solid ASCII
  facet normal 0.000000e+00 0.000000e+00 1.000000e+00
    outer loop
      vertex   -7.300000e+01 2.000000e+00 2.000000e+01
      vertex   -7.500000e+01 2.000000e+00 2.000000e+01
      vertex   -7.300000e+01 0.000000e+00 2.000000e+01
    endloop
  endfacet
  facet normal 0.000000e+00 0.000000e+00 1.000000e+00
    outer loop
      vertex   -7.300000e+01 0.000000e+00 2.000000e+01
      vertex   -7.500000e+01 2.000000e+00 2.000000e+01
      vertex   -7.500000e+01 0.000000e+00 2.000000e+01
    endloop
  endfacet
  facet normal 0.000000e+00 -1.000000e+00 0.000000e+00
    outer loop
      vertex   -7.300000e+01 0.000000e+00 1.800000e+01
      vertex   -7.300000e+01 0.000000e+00 2.000000e+01
      vertex   -7.500000e+01 0.000000e+00 1.800000e+01
    endloop
  endfacet
  facet normal 0.000000e+00 -1.000000e+00 0.000000e+00
    outer loop
      vertex   -7.500000e+01 0.000000e+00 1.800000e+01
      vertex   -7.300000e+01 0.000000e+00 2.000000e+01
      vertex   -7.500000e+01 0.000000e+00 2.000000e+01
    endloop
  endfacet
  facet normal 0.000000e+00 -1.000000e+00 0.000000e+00
    outer loop
      vertex   -7.300000e+01 0.000000e+00 -2.700000e+01
      vertex   -7.300000e+01 0.000000e+00 7.999999e+00
      vertex   -7.500000e+01 0.000000e+00 -2.700000e+01
    endloop
  endfacet
  facet normal 0.000000e+00 -1.000000e+00 0.000000e+00
    outer loop
      vertex   -7.500000e+01 0.000000e+00 -2.700000e+01
      vertex   -7.300000e+01 0.000000e+00 7.999999e+00
      vertex   -7.500000e+01 0.000000e+00 7.999999e+00
    endloop
  endfacet
  facet normal 0.000000e+00 -1.000000e+00 0.000000e+00
    outer loop
      vertex   -7.300000e+01 0.000000e+00 -7.200000e+01
      vertex   -7.300000e+01 0.000000e+00 -3.700000e+01
      vertex   -7.500000e+01 0.000000e+00 -7.200000e+01
    endloop
  endfacet
  facet normal 0.000000e+00 -1.000000e+00 0.000000e+00
    outer loop
      vertex   -7.500000e+01 0.000000e+00 -7.200000e+01
      vertex   -7.300000e+01 0.000000e+00 -3.700000e+01
      vertex   -7.500000e+01 0.000000e+00 -3.700000e+01
    endloop
  endfacet
  facet normal 0.000000e+00 0.000000e+00 1.000000e+00
    outer loop
      vertex   -7.500000e+01 -3.000000e+00 -7.200000e+01
      vertex   -7.300000e+01 -3.000000e+00 -7.200000e+01
      vertex   -7.500000e+01 0.000000e+00 -7.200000e+01
    endloop
  endfacet
  facet normal -0.000000e+00 0.000000e+00 1.000000e+00
    outer loop
      vertex   -7.500000e+01 0.000000e+00 -7.200000e+01
      vertex   -7.300000e+01 -3.000000e+00 -7.200000e+01
      vertex   -7.300000e+01 0.000000e+00 -7.200000e+01
    endloop
  endfacet
  facet normal 0.000000e+00 0.000000e+00 -1.000000e+00
    outer loop
      vertex   -7.300000e+01 -3.000000e+00 -8.200000e+01
      vertex   -7.500000e+01 -3.000000e+00 -8.200000e+01
      vertex   -7.300000e+01 0.000000e+00 -8.200000e+01
    endloop
  endfacet
  facet normal -0.000000e+00 0.000000e+00 -1.000000e+00
    outer loop
      vertex   -7.300000e+01 0.000000e+00 -8.200000e+01
      vertex   -7.500000e+01 -3.000000e+00 -8.200000e+01
      vertex   -7.500000e+01 0.000000e+00 -8.200000e+01
    endloop
  endfacet
  facet normal 0.000000e+00 0.000000e+00 1.000000e+00
    outer loop
      vertex   -7.500000e+01 -3.000000e+00 -2.700000e+01
      vertex   -7.300000e+01 -3.000000e+00 -2.700000e+01
      vertex   -7.500000e+01 0.000000e+00 -2.700000e+01
    endloop
  endfacet
  facet normal -0.000000e+00 0.000000e+00 1.000000e+00
    outer loop
      vertex   -7.500000e+01 0.000000e+00 -2.700000e+01
      vertex   -7.300000e+01 -3.000000e+00 -2.700000e+01
      vertex   -7.300000e+01 0.000000e+00 -2.700000e+01
    endloop
  endfacet
  facet normal 0.000000e+00 0.000000e+00 -1.000000e+00
    outer loop
      vertex   -7.300000e+01 -3.000000e+00 -3.700000e+01
      vertex   -7.500000e+01 -3.000000e+00 -3.700000e+01
      vertex   -7.300000e+01 0.000000e+00 -3.700000e+01
    endloop
  endfacet
  facet normal -0.000000e+00 0.000000e+00 -1.000000e+00
    outer loop
      vertex   -7.300000e+01 0.000000e+00 -3.700000e+01
      vertex   -7.500000e+01 -3.000000e+00 -3.700000e+01
      vertex   -7.500000e+01 0.000000e+00 -3.700000e+01
    endloop
  endfacet
  facet normal 0.000000e+00 0.000000e+00 1.000000e+00
    outer loop
      vertex   -7.500000e+01 -3.000000e+00 1.800000e+01
      vertex   -7.300000e+01 -3.000000e+00 1.800000e+01
      vertex   -7.500000e+01 0.000000e+00 1.800000e+01
    endloop
  endfacet
  facet normal -0.000000e+00 0.000000e+00 1.000000e+00
    outer loop
      vertex   -7.500000e+01 0.000000e+00 1.800000e+01
      vertex   -7.300000e+01 -3.000000e+00 1.800000e+01
      vertex   -7.300000e+01 0.000000e+00 1.800000e+01
    endloop
  endfacet
  facet normal 0.000000e+00 0.000000e+00 -1.000000e+00
    outer loop
      vertex   -7.300000e+01 -3.000000e+00 7.999999e+00
      vertex   -7.500000e+01 -3.000000e+00 7.999999e+00
      vertex   -7.300000e+01 0.000000e+00 7.999999e+00
    endloop
  endfacet
  facet normal -0.000000e+00 0.000000e+00 -1.000000e+00
    outer loop
      vertex   -7.300000e+01 0.000000e+00 7.999999e+00
      vertex   -7.500000e+01 -3.000000e+00 7.999999e+00
      vertex   -7.500000e+01 0.000000e+00 7.999999e+00
    endloop
  endfacet
  facet normal -0.000000e+00 -1.000000e+00 -3.700743e-17
    outer loop
      vertex   -7.300000e+01 2.000000e+00 2.000000e+01
      vertex   -7.300000e+01 2.000000e+00 2.600000e+01
      vertex   -7.500000e+01 2.000000e+00 2.000000e+01
    endloop
  endfacet
  facet normal 0.000000e+00 -1.000000e+00 -3.700743e-17
    outer loop
      vertex   -7.500000e+01 2.000000e+00 2.000000e+01
      vertex   -7.300000e+01 2.000000e+00 2.600000e+01
      vertex   -7.500000e+01 2.000000e+00 2.600000e+01
    endloop
  endfacet
  facet normal -0.000000e+00 -1.000000e+00 0.000000e+00
    outer loop
      vertex   -7.300000e+01 0.000000e+00 -8.200000e+01
      vertex   -7.500000e+01 0.000000e+00 -8.200000e+01
      vertex   -7.300000e+01 0.000000e+00 -9.300000e+01
    endloop
  endfacet
  facet normal 0.000000e+00 -1.000000e+00 0.000000e+00
    outer loop
      vertex   -7.300000e+01 0.000000e+00 -9.300000e+01
      vertex   -7.500000e+01 0.000000e+00 -8.200000e+01
      vertex   -7.500000e+01 0.000000e+00 -9.300000e+01
    endloop
  endfacet
  facet normal 0.000000e+00 0.000000e+00 -1.000000e+00
    outer loop
      vertex   -7.300000e+01 0.000000e+00 -9.300000e+01
      vertex   -7.500000e+01 0.000000e+00 -9.300000e+01
      vertex   -7.300000e+01 5.900000e+01 -9.300000e+01
    endloop
  endfacet
  facet normal -0.000000e+00 0.000000e+00 -1.000000e+00
    outer loop
      vertex   -7.300000e+01 5.900000e+01 -9.300000e+01
      vertex   -7.500000e+01 0.000000e+00 -9.300000e+01
      vertex   -7.500000e+01 5.900000e+01 -9.300000e+01
    endloop
  endfacet
  facet normal -1.000000e+00 0.000000e+00 1.219186e-08
    outer loop
      vertex   -7.500000e+01 5.900000e+01 -9.300000e+01
      vertex   -7.500000e+01 0.000000e+00 -9.300000e+01
      vertex   -7.500000e+01 5.900000e+01 -8.200000e+01
    endloop
  endfacet
  facet normal -1.000000e+00 0.000000e+00 1.219186e-08
    outer loop
      vertex   -7.500000e+01 5.900000e+01 -8.200000e+01
      vertex   -7.500000e+01 0.000000e+00 -9.300000e+01
      vertex   -7.500000e+01 0.000000e+00 -8.200000e+01
    endloop
  endfacet
  facet normal -1.000000e+00 0.000000e+00 0.000000e+00
    outer loop
      vertex   -7.500000e+01 5.900000e+01 -8.200000e+01
      vertex   -7.500000e+01 0.000000e+00 -8.200000e+01
      vertex   -7.500000e+01 5.900000e+01 -7.200000e+01
    endloop
  endfacet
  facet normal -1.000000e+00 -0.000000e+00 0.000000e+00
    outer loop
      vertex   -7.500000e+01 5.900000e+01 -7.200000e+01
      vertex   -7.500000e+01 0.000000e+00 -8.200000e+01
      vertex   -7.500000e+01 0.000000e+00 -7.200000e+01
    endloop
  endfacet
  facet normal -1.000000e+00 -0.000000e+00 -8.514949e-10
    outer loop
      vertex   -7.500000e+01 5.900000e+01 -7.200000e+01
      vertex   -7.500000e+01 0.000000e+00 -7.200000e+01
      vertex   -7.500000e+01 5.900000e+01 -3.700000e+01
    endloop
  endfacet
  facet normal -1.000000e+00 -0.000000e+00 -8.514949e-10
    outer loop
      vertex   -7.500000e+01 5.900000e+01 -3.700000e+01
      vertex   -7.500000e+01 0.000000e+00 -7.200000e+01
      vertex   -7.500000e+01 0.000000e+00 -3.700000e+01
    endloop
  endfacet
  facet normal -1.000000e+00 0.000000e+00 0.000000e+00
    outer loop
      vertex   -7.500000e+01 5.900000e+01 -3.700000e+01
      vertex   -7.500000e+01 0.000000e+00 -3.700000e+01
      vertex   -7.500000e+01 5.900000e+01 -2.700000e+01
    endloop
  endfacet
  facet normal -1.000000e+00 -0.000000e+00 0.000000e+00
    outer loop
      vertex   -7.500000e+01 5.900000e+01 -2.700000e+01
      vertex   -7.500000e+01 0.000000e+00 -3.700000e+01
      vertex   -7.500000e+01 0.000000e+00 -2.700000e+01
    endloop
  endfacet
  facet normal -1.000000e+00 0.000000e+00 0.000000e+00
    outer loop
      vertex   -7.500000e+01 5.900000e+01 -2.700000e+01
      vertex   -7.500000e+01 0.000000e+00 -2.700000e+01
      vertex   -7.500000e+01 5.900000e+01 7.999999e+00
    endloop
  endfacet
  facet normal -1.000000e+00 -0.000000e+00 0.000000e+00
    outer loop
      vertex   -7.500000e+01 5.900000e+01 7.999999e+00
      vertex   -7.500000e+01 0.000000e+00 -2.700000e+01
      vertex   -7.500000e+01 0.000000e+00 7.999999e+00
    endloop
  endfacet
  facet normal -1.000000e+00 -0.000000e+00 -8.692343e-09
    outer loop
      vertex   -7.500000e+01 5.900000e+01 7.999999e+00
      vertex   -7.500000e+01 0.000000e+00 7.999999e+00
      vertex   -7.500000e+01 2.000000e+00 2.000000e+01
    endloop
  endfacet
  facet normal -1.000000e+00 -5.215406e-08 0.000000e+00
    outer loop
      vertex   -7.500000e+01 2.000000e+00 2.000000e+01
      vertex   -7.500000e+01 0.000000e+00 7.999999e+00
      vertex   -7.500000e+01 0.000000e+00 1.800000e+01
    endloop
  endfacet
  facet normal -1.000000e+00 -0.000000e+00 -5.215402e-08
    outer loop
      vertex   -7.500000e+01 2.000000e+00 2.000000e+01
      vertex   -7.500000e+01 0.000000e+00 1.800000e+01
      vertex   -7.500000e+01 0.000000e+00 2.000000e+01
    endloop
  endfacet
  facet normal -1.000000e+00 0.000000e+00 0.000000e+00
    outer loop
      vertex   -7.500000e+01 -3.000000e+00 -8.200000e+01
      vertex   -7.500000e+01 -3.000000e+00 -7.200000e+01
      vertex   -7.500000e+01 0.000000e+00 -8.200000e+01
    endloop
  endfacet
  facet normal -1.000000e+00 0.000000e+00 0.000000e+00
    outer loop
      vertex   -7.500000e+01 0.000000e+00 -8.200000e+01
      vertex   -7.500000e+01 -3.000000e+00 -7.200000e+01
      vertex   -7.500000e+01 0.000000e+00 -7.200000e+01
    endloop
  endfacet
  facet normal -1.000000e+00 0.000000e+00 0.000000e+00
    outer loop
      vertex   -7.500000e+01 -3.000000e+00 -3.700000e+01
      vertex   -7.500000e+01 -3.000000e+00 -2.700000e+01
      vertex   -7.500000e+01 0.000000e+00 -3.700000e+01
    endloop
  endfacet
  facet normal -1.000000e+00 0.000000e+00 0.000000e+00
    outer loop
      vertex   -7.500000e+01 0.000000e+00 -3.700000e+01
      vertex   -7.500000e+01 -3.000000e+00 -2.700000e+01
      vertex   -7.500000e+01 0.000000e+00 -2.700000e+01
    endloop
  endfacet
  facet normal -1.000000e+00 0.000000e+00 0.000000e+00
    outer loop
      vertex   -7.500000e+01 -3.000000e+00 7.999999e+00
      vertex   -7.500000e+01 -3.000000e+00 1.800000e+01
      vertex   -7.500000e+01 0.000000e+00 7.999999e+00
    endloop
  endfacet
  facet normal -1.000000e+00 0.000000e+00 0.000000e+00
    outer loop
      vertex   -7.500000e+01 0.000000e+00 7.999999e+00
      vertex   -7.500000e+01 -3.000000e+00 1.800000e+01
      vertex   -7.500000e+01 0.000000e+00 1.800000e+01
    endloop
  endfacet
  facet normal -1.000000e+00 0.000000e+00 0.000000e+00
    outer loop
      vertex   -7.500000e+01 2.000000e+00 2.600000e+01
      vertex   -7.500000e+01 5.900000e+01 2.600000e+01
      vertex   -7.500000e+01 2.000000e+00 2.000000e+01
    endloop
  endfacet
  facet normal -1.000000e+00 1.372475e-09 -1.303851e-08
    outer loop
      vertex   -7.500000e+01 2.000000e+00 2.000000e+01
      vertex   -7.500000e+01 5.900000e+01 2.600000e+01
      vertex   -7.500000e+01 5.900000e+01 1.800000e+01
    endloop
  endfacet
  facet normal -1.000000e+00 1.829967e-09 0.000000e+00
    outer loop
      vertex   -7.500000e+01 2.000000e+00 2.000000e+01
      vertex   -7.500000e+01 5.900000e+01 1.800000e+01
      vertex   -7.500000e+01 5.900000e+01 7.999999e+00
    endloop
  endfacet
  facet normal -1.000000e+00 0.000000e+00 0.000000e+00
    outer loop
      vertex   -7.500000e+01 5.900000e+01 7.999999e+00
      vertex   -7.500000e+01 5.900000e+01 1.800000e+01
      vertex   -7.500000e+01 6.200000e+01 7.999999e+00
    endloop
  endfacet
  facet normal -1.000000e+00 0.000000e+00 0.000000e+00
    outer loop
      vertex   -7.500000e+01 6.200000e+01 7.999999e+00
      vertex   -7.500000e+01 5.900000e+01 1.800000e+01
      vertex   -7.500000e+01 6.200000e+01 1.800000e+01
    endloop
  endfacet
  facet normal -1.000000e+00 -0.000000e+00 -0.000000e+00
    outer loop
      vertex   -7.500000e+01 6.200000e+01 -2.700000e+01
      vertex   -7.500000e+01 6.200000e+01 -3.700000e+01
      vertex   -7.500000e+01 5.900000e+01 -2.700000e+01
    endloop
  endfacet
  facet normal -1.000000e+00 0.000000e+00 0.000000e+00
    outer loop
      vertex   -7.500000e+01 5.900000e+01 -2.700000e+01
      vertex   -7.500000e+01 6.200000e+01 -3.700000e+01
      vertex   -7.500000e+01 5.900000e+01 -3.700000e+01
    endloop
  endfacet
  facet normal -1.000000e+00 -0.000000e+00 -0.000000e+00
    outer loop
      vertex   -7.500000e+01 6.200000e+01 -7.200000e+01
      vertex   -7.500000e+01 6.200000e+01 -8.200000e+01
      vertex   -7.500000e+01 5.900000e+01 -7.200000e+01
    endloop
  endfacet
  facet normal -1.000000e+00 0.000000e+00 0.000000e+00
    outer loop
      vertex   -7.500000e+01 5.900000e+01 -7.200000e+01
      vertex   -7.500000e+01 6.200000e+01 -8.200000e+01
      vertex   -7.500000e+01 5.900000e+01 -8.200000e+01
    endloop
  endfacet
  facet normal 0.000000e+00 -1.000000e+00 0.000000e+00
    outer loop
      vertex   -7.500000e+01 -3.000000e+00 7.999999e+00
      vertex   -7.300000e+01 -3.000000e+00 7.999999e+00
      vertex   -7.500000e+01 -3.000000e+00 1.800000e+01
    endloop
  endfacet
  facet normal 0.000000e+00 -1.000000e+00 0.000000e+00
    outer loop
      vertex   -7.500000e+01 -3.000000e+00 1.800000e+01
      vertex   -7.300000e+01 -3.000000e+00 7.999999e+00
      vertex   -7.300000e+01 -3.000000e+00 1.800000e+01
    endloop
  endfacet
  facet normal 0.000000e+00 -1.000000e+00 0.000000e+00
    outer loop
      vertex   -7.500000e+01 -3.000000e+00 -3.700000e+01
      vertex   -7.300000e+01 -3.000000e+00 -3.700000e+01
      vertex   -7.500000e+01 -3.000000e+00 -2.700000e+01
    endloop
  endfacet
  facet normal 0.000000e+00 -1.000000e+00 0.000000e+00
    outer loop
      vertex   -7.500000e+01 -3.000000e+00 -2.700000e+01
      vertex   -7.300000e+01 -3.000000e+00 -3.700000e+01
      vertex   -7.300000e+01 -3.000000e+00 -2.700000e+01
    endloop
  endfacet
  facet normal 0.000000e+00 1.000000e+00 0.000000e+00
    outer loop
      vertex   -7.300000e+01 5.900000e+01 -8.200000e+01
      vertex   -7.300000e+01 5.900000e+01 -9.300000e+01
      vertex   -7.500000e+01 5.900000e+01 -8.200000e+01
    endloop
  endfacet
  facet normal 0.000000e+00 1.000000e+00 0.000000e+00
    outer loop
      vertex   -7.500000e+01 5.900000e+01 -8.200000e+01
      vertex   -7.300000e+01 5.900000e+01 -9.300000e+01
      vertex   -7.500000e+01 5.900000e+01 -9.300000e+01
    endloop
  endfacet
  facet normal 0.000000e+00 1.000000e+00 -0.000000e+00
    outer loop
      vertex   -7.300000e+01 5.900000e+01 -7.200000e+01
      vertex   -7.500000e+01 5.900000e+01 -7.200000e+01
      vertex   -7.300000e+01 5.900000e+01 -3.700000e+01
    endloop
  endfacet
  facet normal 0.000000e+00 1.000000e+00 0.000000e+00
    outer loop
      vertex   -7.300000e+01 5.900000e+01 -3.700000e+01
      vertex   -7.500000e+01 5.900000e+01 -7.200000e+01
      vertex   -7.500000e+01 5.900000e+01 -3.700000e+01
    endloop
  endfacet
  facet normal 0.000000e+00 1.000000e+00 -0.000000e+00
    outer loop
      vertex   -7.300000e+01 5.900000e+01 -2.700000e+01
      vertex   -7.500000e+01 5.900000e+01 -2.700000e+01
      vertex   -7.300000e+01 5.900000e+01 7.999999e+00
    endloop
  endfacet
  facet normal 0.000000e+00 1.000000e+00 0.000000e+00
    outer loop
      vertex   -7.300000e+01 5.900000e+01 7.999999e+00
      vertex   -7.500000e+01 5.900000e+01 -2.700000e+01
      vertex   -7.500000e+01 5.900000e+01 7.999999e+00
    endloop
  endfacet
  facet normal 0.000000e+00 1.000000e+00 0.000000e+00
    outer loop
      vertex   -7.300000e+01 5.900000e+01 1.800000e+01
      vertex   -7.500000e+01 5.900000e+01 1.800000e+01
      vertex   -7.300000e+01 5.900000e+01 2.600000e+01
    endloop
  endfacet
  facet normal 0.000000e+00 1.000000e+00 0.000000e+00
    outer loop
      vertex   -7.300000e+01 5.900000e+01 2.600000e+01
      vertex   -7.500000e+01 5.900000e+01 1.800000e+01
      vertex   -7.500000e+01 5.900000e+01 2.600000e+01
    endloop
  endfacet
  facet normal 0.000000e+00 0.000000e+00 -1.000000e+00
    outer loop
      vertex   -7.500000e+01 6.200000e+01 7.999999e+00
      vertex   -7.300000e+01 6.200000e+01 7.999999e+00
      vertex   -7.500000e+01 5.900000e+01 7.999999e+00
    endloop
  endfacet
  facet normal 0.000000e+00 0.000000e+00 -1.000000e+00
    outer loop
      vertex   -7.500000e+01 5.900000e+01 7.999999e+00
      vertex   -7.300000e+01 6.200000e+01 7.999999e+00
      vertex   -7.300000e+01 5.900000e+01 7.999999e+00
    endloop
  endfacet
  facet normal 0.000000e+00 0.000000e+00 1.000000e+00
    outer loop
      vertex   -7.300000e+01 6.200000e+01 1.800000e+01
      vertex   -7.500000e+01 6.200000e+01 1.800000e+01
      vertex   -7.300000e+01 5.900000e+01 1.800000e+01
    endloop
  endfacet
  facet normal 0.000000e+00 0.000000e+00 1.000000e+00
    outer loop
      vertex   -7.300000e+01 5.900000e+01 1.800000e+01
      vertex   -7.500000e+01 6.200000e+01 1.800000e+01
      vertex   -7.500000e+01 5.900000e+01 1.800000e+01
    endloop
  endfacet
  facet normal 0.000000e+00 0.000000e+00 -1.000000e+00
    outer loop
      vertex   -7.500000e+01 6.200000e+01 -3.700000e+01
      vertex   -7.300000e+01 6.200000e+01 -3.700000e+01
      vertex   -7.500000e+01 5.900000e+01 -3.700000e+01
    endloop
  endfacet
  facet normal 0.000000e+00 0.000000e+00 -1.000000e+00
    outer loop
      vertex   -7.500000e+01 5.900000e+01 -3.700000e+01
      vertex   -7.300000e+01 6.200000e+01 -3.700000e+01
      vertex   -7.300000e+01 5.900000e+01 -3.700000e+01
    endloop
  endfacet
  facet normal 0.000000e+00 0.000000e+00 1.000000e+00
    outer loop
      vertex   -7.300000e+01 6.200000e+01 -2.700000e+01
      vertex   -7.500000e+01 6.200000e+01 -2.700000e+01
      vertex   -7.300000e+01 5.900000e+01 -2.700000e+01
    endloop
  endfacet
  facet normal 0.000000e+00 0.000000e+00 1.000000e+00
    outer loop
      vertex   -7.300000e+01 5.900000e+01 -2.700000e+01
      vertex   -7.500000e+01 6.200000e+01 -2.700000e+01
      vertex   -7.500000e+01 5.900000e+01 -2.700000e+01
    endloop
  endfacet
  facet normal 0.000000e+00 0.000000e+00 -1.000000e+00
    outer loop
      vertex   -7.500000e+01 6.200000e+01 -8.200000e+01
      vertex   -7.300000e+01 6.200000e+01 -8.200000e+01
      vertex   -7.500000e+01 5.900000e+01 -8.200000e+01
    endloop
  endfacet
  facet normal 0.000000e+00 0.000000e+00 -1.000000e+00
    outer loop
      vertex   -7.500000e+01 5.900000e+01 -8.200000e+01
      vertex   -7.300000e+01 6.200000e+01 -8.200000e+01
      vertex   -7.300000e+01 5.900000e+01 -8.200000e+01
    endloop
  endfacet
  facet normal 0.000000e+00 0.000000e+00 1.000000e+00
    outer loop
      vertex   -7.300000e+01 6.200000e+01 -7.200000e+01
      vertex   -7.500000e+01 6.200000e+01 -7.200000e+01
      vertex   -7.300000e+01 5.900000e+01 -7.200000e+01
    endloop
  endfacet
  facet normal 0.000000e+00 0.000000e+00 1.000000e+00
    outer loop
      vertex   -7.300000e+01 5.900000e+01 -7.200000e+01
      vertex   -7.500000e+01 6.200000e+01 -7.200000e+01
      vertex   -7.500000e+01 5.900000e+01 -7.200000e+01
    endloop
  endfacet
  facet normal 0.000000e+00 0.000000e+00 1.000000e+00
    outer loop
      vertex   -7.500000e+01 2.000000e+00 2.600000e+01
      vertex   -7.300000e+01 2.000000e+00 2.600000e+01
      vertex   -7.500000e+01 5.900000e+01 2.600000e+01
    endloop
  endfacet
  facet normal -0.000000e+00 0.000000e+00 1.000000e+00
    outer loop
      vertex   -7.500000e+01 5.900000e+01 2.600000e+01
      vertex   -7.300000e+01 2.000000e+00 2.600000e+01
      vertex   -7.300000e+01 5.900000e+01 2.600000e+01
    endloop
  endfacet
  facet normal 0.000000e+00 1.000000e+00 0.000000e+00
    outer loop
      vertex   -7.500000e+01 6.200000e+01 -8.200000e+01
      vertex   -7.500000e+01 6.200000e+01 -7.200000e+01
      vertex   -7.300000e+01 6.200000e+01 -8.200000e+01
    endloop
  endfacet
  facet normal 0.000000e+00 1.000000e+00 -0.000000e+00
    outer loop
      vertex   -7.300000e+01 6.200000e+01 -8.200000e+01
      vertex   -7.500000e+01 6.200000e+01 -7.200000e+01
      vertex   -7.300000e+01 6.200000e+01 -7.200000e+01
    endloop
  endfacet
  facet normal 0.000000e+00 1.000000e+00 0.000000e+00
    outer loop
      vertex   -7.300000e+01 6.200000e+01 -2.700000e+01
      vertex   -7.300000e+01 6.200000e+01 -3.700000e+01
      vertex   -7.500000e+01 6.200000e+01 -2.700000e+01
    endloop
  endfacet
  facet normal 0.000000e+00 1.000000e+00 0.000000e+00
    outer loop
      vertex   -7.500000e+01 6.200000e+01 -2.700000e+01
      vertex   -7.300000e+01 6.200000e+01 -3.700000e+01
      vertex   -7.500000e+01 6.200000e+01 -3.700000e+01
    endloop
  endfacet
  facet normal 1.000000e+00 0.000000e+00 -9.482558e-09
    outer loop
      vertex   -7.300000e+01 0.000000e+00 -9.300000e+01
      vertex   -7.300000e+01 5.900000e+01 -8.200000e+01
      vertex   -7.300000e+01 0.000000e+00 -8.200000e+01
    endloop
  endfacet
  facet normal 1.000000e+00 0.000000e+00 0.000000e+00
    outer loop
      vertex   -7.300000e+01 0.000000e+00 -8.200000e+01
      vertex   -7.300000e+01 5.900000e+01 -8.200000e+01
      vertex   -7.300000e+01 5.900000e+01 -7.200000e+01
    endloop
  endfacet
  facet normal 1.000000e+00 0.000000e+00 0.000000e+00
    outer loop
      vertex   -7.300000e+01 0.000000e+00 -8.200000e+01
      vertex   -7.300000e+01 5.900000e+01 -7.200000e+01
      vertex   -7.300000e+01 0.000000e+00 -7.200000e+01
    endloop
  endfacet
  facet normal 1.000000e+00 0.000000e+00 0.000000e+00
    outer loop
      vertex   -7.300000e+01 0.000000e+00 -7.200000e+01
      vertex   -7.300000e+01 5.900000e+01 -7.200000e+01
      vertex   -7.300000e+01 5.900000e+01 -3.700000e+01
    endloop
  endfacet
  facet normal 1.000000e+00 0.000000e+00 0.000000e+00
    outer loop
      vertex   -7.300000e+01 0.000000e+00 -7.200000e+01
      vertex   -7.300000e+01 5.900000e+01 -3.700000e+01
      vertex   -7.300000e+01 0.000000e+00 -3.700000e+01
    endloop
  endfacet
  facet normal 1.000000e+00 0.000000e+00 0.000000e+00
    outer loop
      vertex   -7.300000e+01 0.000000e+00 -3.700000e+01
      vertex   -7.300000e+01 5.900000e+01 -3.700000e+01
      vertex   -7.300000e+01 5.900000e+01 -2.700000e+01
    endloop
  endfacet
  facet normal 1.000000e+00 0.000000e+00 0.000000e+00
    outer loop
      vertex   -7.300000e+01 0.000000e+00 -3.700000e+01
      vertex   -7.300000e+01 5.900000e+01 -2.700000e+01
      vertex   -7.300000e+01 0.000000e+00 -2.700000e+01
    endloop
  endfacet
  facet normal 1.000000e+00 0.000000e+00 0.000000e+00
    outer loop
      vertex   -7.300000e+01 0.000000e+00 -2.700000e+01
      vertex   -7.300000e+01 5.900000e+01 -2.700000e+01
      vertex   -7.300000e+01 5.900000e+01 7.999999e+00
    endloop
  endfacet
  facet normal 1.000000e+00 0.000000e+00 0.000000e+00
    outer loop
      vertex   -7.300000e+01 0.000000e+00 -2.700000e+01
      vertex   -7.300000e+01 5.900000e+01 7.999999e+00
      vertex   -7.300000e+01 0.000000e+00 7.999999e+00
    endloop
  endfacet
  facet normal 1.000000e+00 -0.000000e+00 8.692343e-09
    outer loop
      vertex   -7.300000e+01 0.000000e+00 7.999999e+00
      vertex   -7.300000e+01 5.900000e+01 7.999999e+00
      vertex   -7.300000e+01 2.000000e+00 2.000000e+01
    endloop
  endfacet
  facet normal 1.000000e+00 5.215406e-08 -0.000000e+00
    outer loop
      vertex   -7.300000e+01 0.000000e+00 7.999999e+00
      vertex   -7.300000e+01 2.000000e+00 2.000000e+01
      vertex   -7.300000e+01 0.000000e+00 1.800000e+01
    endloop
  endfacet
  facet normal 1.000000e+00 0.000000e+00 5.215402e-08
    outer loop
      vertex   -7.300000e+01 0.000000e+00 1.800000e+01
      vertex   -7.300000e+01 2.000000e+00 2.000000e+01
      vertex   -7.300000e+01 0.000000e+00 2.000000e+01
    endloop
  endfacet
  facet normal 1.000000e+00 0.000000e+00 -9.482558e-09
    outer loop
      vertex   -7.300000e+01 0.000000e+00 -9.300000e+01
      vertex   -7.300000e+01 5.900000e+01 -9.300000e+01
      vertex   -7.300000e+01 5.900000e+01 -8.200000e+01
    endloop
  endfacet
  facet normal 1.000000e+00 0.000000e+00 -0.000000e+00
    outer loop
      vertex   -7.300000e+01 6.200000e+01 -8.200000e+01
      vertex   -7.300000e+01 6.200000e+01 -7.200000e+01
      vertex   -7.300000e+01 5.900000e+01 -8.200000e+01
    endloop
  endfacet
  facet normal 1.000000e+00 0.000000e+00 0.000000e+00
    outer loop
      vertex   -7.300000e+01 5.900000e+01 -8.200000e+01
      vertex   -7.300000e+01 6.200000e+01 -7.200000e+01
      vertex   -7.300000e+01 5.900000e+01 -7.200000e+01
    endloop
  endfacet
  facet normal 1.000000e+00 0.000000e+00 -0.000000e+00
    outer loop
      vertex   -7.300000e+01 6.200000e+01 -3.700000e+01
      vertex   -7.300000e+01 6.200000e+01 -2.700000e+01
      vertex   -7.300000e+01 5.900000e+01 -3.700000e+01
    endloop
  endfacet
  facet normal 1.000000e+00 0.000000e+00 0.000000e+00
    outer loop
      vertex   -7.300000e+01 5.900000e+01 -3.700000e+01
      vertex   -7.300000e+01 6.200000e+01 -2.700000e+01
      vertex   -7.300000e+01 5.900000e+01 -2.700000e+01
    endloop
  endfacet
  facet normal 1.000000e+00 0.000000e+00 -0.000000e+00
    outer loop
      vertex   -7.300000e+01 6.200000e+01 7.999999e+00
      vertex   -7.300000e+01 6.200000e+01 1.800000e+01
      vertex   -7.300000e+01 5.900000e+01 7.999999e+00
    endloop
  endfacet
  facet normal 1.000000e+00 0.000000e+00 0.000000e+00
    outer loop
      vertex   -7.300000e+01 5.900000e+01 7.999999e+00
      vertex   -7.300000e+01 6.200000e+01 1.800000e+01
      vertex   -7.300000e+01 5.900000e+01 1.800000e+01
    endloop
  endfacet
  facet normal 1.000000e+00 -1.829967e-09 0.000000e+00
    outer loop
      vertex   -7.300000e+01 5.900000e+01 7.999999e+00
      vertex   -7.300000e+01 5.900000e+01 1.800000e+01
      vertex   -7.300000e+01 2.000000e+00 2.000000e+01
    endloop
  endfacet
  facet normal 1.000000e+00 -1.372475e-09 1.303851e-08
    outer loop
      vertex   -7.300000e+01 2.000000e+00 2.000000e+01
      vertex   -7.300000e+01 5.900000e+01 1.800000e+01
      vertex   -7.300000e+01 5.900000e+01 2.600000e+01
    endloop
  endfacet
  facet normal 1.000000e+00 0.000000e+00 -0.000000e+00
    outer loop
      vertex   -7.300000e+01 2.000000e+00 2.000000e+01
      vertex   -7.300000e+01 5.900000e+01 2.600000e+01
      vertex   -7.300000e+01 2.000000e+00 2.600000e+01
    endloop
  endfacet
  facet normal 1.000000e+00 -0.000000e+00 0.000000e+00
    outer loop
      vertex   -7.300000e+01 -3.000000e+00 1.800000e+01
      vertex   -7.300000e+01 -3.000000e+00 7.999999e+00
      vertex   -7.300000e+01 0.000000e+00 1.800000e+01
    endloop
  endfacet
  facet normal 1.000000e+00 0.000000e+00 0.000000e+00
    outer loop
      vertex   -7.300000e+01 0.000000e+00 1.800000e+01
      vertex   -7.300000e+01 -3.000000e+00 7.999999e+00
      vertex   -7.300000e+01 0.000000e+00 7.999999e+00
    endloop
  endfacet
  facet normal 1.000000e+00 -0.000000e+00 0.000000e+00
    outer loop
      vertex   -7.300000e+01 -3.000000e+00 -2.700000e+01
      vertex   -7.300000e+01 -3.000000e+00 -3.700000e+01
      vertex   -7.300000e+01 0.000000e+00 -2.700000e+01
    endloop
  endfacet
  facet normal 1.000000e+00 0.000000e+00 0.000000e+00
    outer loop
      vertex   -7.300000e+01 0.000000e+00 -2.700000e+01
      vertex   -7.300000e+01 -3.000000e+00 -3.700000e+01
      vertex   -7.300000e+01 0.000000e+00 -3.700000e+01
    endloop
  endfacet
  facet normal 1.000000e+00 -0.000000e+00 0.000000e+00
    outer loop
      vertex   -7.300000e+01 -3.000000e+00 -7.200000e+01
      vertex   -7.300000e+01 -3.000000e+00 -8.200000e+01
      vertex   -7.300000e+01 0.000000e+00 -7.200000e+01
    endloop
  endfacet
  facet normal 1.000000e+00 0.000000e+00 0.000000e+00
    outer loop
      vertex   -7.300000e+01 0.000000e+00 -7.200000e+01
      vertex   -7.300000e+01 -3.000000e+00 -8.200000e+01
      vertex   -7.300000e+01 0.000000e+00 -8.200000e+01
    endloop
  endfacet
  facet normal 0.000000e+00 1.000000e+00 0.000000e+00
    outer loop
      vertex   -7.300000e+01 6.200000e+01 1.800000e+01
      vertex   -7.300000e+01 6.200000e+01 7.999999e+00
      vertex   -7.500000e+01 6.200000e+01 1.800000e+01
    endloop
  endfacet
  facet normal 0.000000e+00 1.000000e+00 0.000000e+00
    outer loop
      vertex   -7.500000e+01 6.200000e+01 1.800000e+01
      vertex   -7.300000e+01 6.200000e+01 7.999999e+00
      vertex   -7.500000e+01 6.200000e+01 7.999999e+00
    endloop
  endfacet
  facet normal 0.000000e+00 -1.000000e+00 0.000000e+00
    outer loop
      vertex   -7.500000e+01 -3.000000e+00 -8.200000e+01
      vertex   -7.300000e+01 -3.000000e+00 -8.200000e+01
      vertex   -7.500000e+01 -3.000000e+00 -7.200000e+01
    endloop
  endfacet
  facet normal 0.000000e+00 -1.000000e+00 0.000000e+00
    outer loop
      vertex   -7.500000e+01 -3.000000e+00 -7.200000e+01
      vertex   -7.300000e+01 -3.000000e+00 -8.200000e+01
      vertex   -7.300000e+01 -3.000000e+00 -7.200000e+01
    endloop
  endfacet
endsolid
