solid ASCII
  facet normal 0.000000e+00 -0.000000e+00 1.000000e+00
    outer loop
      vertex   -7.310000e+01 3.450000e+01 -4.000000e+01
      vertex   -7.310000e+01 3.800000e+01 -4.000000e+01
      vertex   -7.490000e+01 3.450000e+01 -4.000000e+01
    endloop
  endfacet
  facet normal 0.000000e+00 0.000000e+00 1.000000e+00
    outer loop
      vertex   -7.490000e+01 3.450000e+01 -4.000000e+01
      vertex   -7.310000e+01 3.800000e+01 -4.000000e+01
      vertex   -7.490000e+01 3.800000e+01 -4.000000e+01
    endloop
  endfacet
  facet normal 0.000000e+00 1.000000e+00 0.000000e+00
    outer loop
      vertex   -7.310000e+01 3.450000e+01 -3.500000e+01
      vertex   -7.310000e+01 3.450000e+01 -4.000000e+01
      vertex   -7.490000e+01 3.450000e+01 -3.500000e+01
    endloop
  endfacet
  facet normal 0.000000e+00 1.000000e+00 0.000000e+00
    outer loop
      vertex   -7.490000e+01 3.450000e+01 -3.500000e+01
      vertex   -7.310000e+01 3.450000e+01 -4.000000e+01
      vertex   -7.490000e+01 3.450000e+01 -4.000000e+01
    endloop
  endfacet
  facet normal -0.000000e+00 -0.000000e+00 -1.000000e+00
    outer loop
      vertex   -7.310000e+01 3.800000e+01 -3.500000e+01
      vertex   -7.310000e+01 3.450000e+01 -3.500000e+01
      vertex   -7.490000e+01 3.800000e+01 -3.500000e+01
    endloop
  endfacet
  facet normal 0.000000e+00 0.000000e+00 -1.000000e+00
    outer loop
      vertex   -7.490000e+01 3.800000e+01 -3.500000e+01
      vertex   -7.310000e+01 3.450000e+01 -3.500000e+01
      vertex   -7.490000e+01 3.450000e+01 -3.500000e+01
    endloop
  endfacet
  facet normal 0.000000e+00 -1.000000e+00 0.000000e+00
    outer loop
      vertex   -7.310000e+01 3.800000e+01 -4.000000e+01
      vertex   -7.310000e+01 3.800000e+01 -3.500000e+01
      vertex   -7.490000e+01 3.800000e+01 -4.000000e+01
    endloop
  endfacet
  facet normal 0.000000e+00 -1.000000e+00 0.000000e+00
    outer loop
      vertex   -7.490000e+01 3.800000e+01 -4.000000e+01
      vertex   -7.310000e+01 3.800000e+01 -3.500000e+01
      vertex   -7.490000e+01 3.800000e+01 -3.500000e+01
    endloop
  endfacet
  facet normal 0.000000e+00 -1.000000e+00 0.000000e+00
    outer loop
      vertex   -7.310000e+01 2.450000e+01 -4.000000e+01
      vertex   -7.310000e+01 2.450000e+01 -3.500000e+01
      vertex   -7.490000e+01 2.450000e+01 -4.000000e+01
    endloop
  endfacet
  facet normal 0.000000e+00 -1.000000e+00 0.000000e+00
    outer loop
      vertex   -7.490000e+01 2.450000e+01 -4.000000e+01
      vertex   -7.310000e+01 2.450000e+01 -3.500000e+01
      vertex   -7.490000e+01 2.450000e+01 -3.500000e+01
    endloop
  endfacet
  facet normal 0.000000e+00 -0.000000e+00 1.000000e+00
    outer loop
      vertex   -7.310000e+01 2.100000e+01 -4.000000e+01
      vertex   -7.310000e+01 2.450000e+01 -4.000000e+01
      vertex   -7.490000e+01 2.100000e+01 -4.000000e+01
    endloop
  endfacet
  facet normal 0.000000e+00 0.000000e+00 1.000000e+00
    outer loop
      vertex   -7.490000e+01 2.100000e+01 -4.000000e+01
      vertex   -7.310000e+01 2.450000e+01 -4.000000e+01
      vertex   -7.490000e+01 2.450000e+01 -4.000000e+01
    endloop
  endfacet
  facet normal 0.000000e+00 1.000000e+00 0.000000e+00
    outer loop
      vertex   -7.310000e+01 2.100000e+01 -3.500000e+01
      vertex   -7.310000e+01 2.100000e+01 -4.000000e+01
      vertex   -7.490000e+01 2.100000e+01 -3.500000e+01
    endloop
  endfacet
  facet normal 0.000000e+00 1.000000e+00 0.000000e+00
    outer loop
      vertex   -7.490000e+01 2.100000e+01 -3.500000e+01
      vertex   -7.310000e+01 2.100000e+01 -4.000000e+01
      vertex   -7.490000e+01 2.100000e+01 -4.000000e+01
    endloop
  endfacet
  facet normal -0.000000e+00 -0.000000e+00 -1.000000e+00
    outer loop
      vertex   -7.310000e+01 2.450000e+01 -3.500000e+01
      vertex   -7.310000e+01 2.100000e+01 -3.500000e+01
      vertex   -7.490000e+01 2.450000e+01 -3.500000e+01
    endloop
  endfacet
  facet normal 0.000000e+00 0.000000e+00 -1.000000e+00
    outer loop
      vertex   -7.490000e+01 2.450000e+01 -3.500000e+01
      vertex   -7.310000e+01 2.100000e+01 -3.500000e+01
      vertex   -7.490000e+01 2.100000e+01 -3.500000e+01
    endloop
  endfacet
  facet normal -1.548571e-16 -9.969173e-01 7.845910e-02
    outer loop
      vertex   -7.310000e+01 2.000000e+00 2.200000e+01
      vertex   -7.490000e+01 2.000000e+00 2.200000e+01
      vertex   -7.310000e+01 1.975377e+00 2.168713e+01
    endloop
  endfacet
  facet normal 2.459557e-16 -9.969173e-01 7.845910e-02
    outer loop
      vertex   -7.310000e+01 1.975377e+00 2.168713e+01
      vertex   -7.490000e+01 2.000000e+00 2.200000e+01
      vertex   -7.490000e+01 1.975377e+00 2.168713e+01
    endloop
  endfacet
  facet normal 2.398994e-16 -9.723699e-01 2.334454e-01
    outer loop
      vertex   -7.310000e+01 1.975377e+00 2.168713e+01
      vertex   -7.490000e+01 1.975377e+00 2.168713e+01
      vertex   -7.310000e+01 1.902113e+00 2.138197e+01
    endloop
  endfacet
  facet normal 1.904080e-17 -9.723699e-01 2.334454e-01
    outer loop
      vertex   -7.310000e+01 1.902113e+00 2.138197e+01
      vertex   -7.490000e+01 1.975377e+00 2.168713e+01
      vertex   -7.490000e+01 1.902113e+00 2.138197e+01
    endloop
  endfacet
  facet normal -2.994416e-16 -9.238795e-01 3.826834e-01
    outer loop
      vertex   -7.310000e+01 1.902113e+00 2.138197e+01
      vertex   -7.490000e+01 1.902113e+00 2.138197e+01
      vertex   -7.310000e+01 1.782013e+00 2.109202e+01
    endloop
  endfacet
  facet normal 5.698402e-16 -9.238795e-01 3.826834e-01
    outer loop
      vertex   -7.310000e+01 1.782013e+00 2.109202e+01
      vertex   -7.490000e+01 1.902113e+00 2.138197e+01
      vertex   -7.490000e+01 1.782013e+00 2.109202e+01
    endloop
  endfacet
  facet normal 5.259004e-16 -8.526402e-01 5.224986e-01
    outer loop
      vertex   -7.310000e+01 1.782013e+00 2.109202e+01
      vertex   -7.490000e+01 1.782013e+00 2.109202e+01
      vertex   -7.310000e+01 1.618034e+00 2.082443e+01
    endloop
  endfacet
  facet normal -4.001905e-16 -8.526402e-01 5.224986e-01
    outer loop
      vertex   -7.310000e+01 1.618034e+00 2.082443e+01
      vertex   -7.490000e+01 1.782013e+00 2.109202e+01
      vertex   -7.490000e+01 1.618034e+00 2.082443e+01
    endloop
  endfacet
  facet normal -7.190215e-16 -7.604060e-01 6.494480e-01
    outer loop
      vertex   -7.310000e+01 1.618034e+00 2.082443e+01
      vertex   -7.490000e+01 1.618034e+00 2.082443e+01
      vertex   -7.310000e+01 1.414214e+00 2.058579e+01
    endloop
  endfacet
  facet normal 5.628135e-16 -7.604060e-01 6.494480e-01
    outer loop
      vertex   -7.310000e+01 1.414214e+00 2.058579e+01
      vertex   -7.490000e+01 1.618034e+00 2.082443e+01
      vertex   -7.490000e+01 1.414214e+00 2.058579e+01
    endloop
  endfacet
  facet normal 4.806881e-16 -6.494480e-01 7.604060e-01
    outer loop
      vertex   -7.310000e+01 1.414214e+00 2.058579e+01
      vertex   -7.490000e+01 1.414214e+00 2.058579e+01
      vertex   -7.310000e+01 1.175571e+00 2.038197e+01
    endloop
  endfacet
  facet normal 1.981524e-15 -6.494480e-01 7.604060e-01
    outer loop
      vertex   -7.310000e+01 1.175571e+00 2.038197e+01
      vertex   -7.490000e+01 1.414214e+00 2.058579e+01
      vertex   -7.490000e+01 1.175571e+00 2.038197e+01
    endloop
  endfacet
  facet normal 2.069608e-15 -5.224986e-01 8.526402e-01
    outer loop
      vertex   -7.310000e+01 1.175571e+00 2.038197e+01
      vertex   -7.490000e+01 1.175571e+00 2.038197e+01
      vertex   -7.310000e+01 9.079810e-01 2.021799e+01
    endloop
  endfacet
  facet normal 2.255905e-16 -5.224986e-01 8.526402e-01
    outer loop
      vertex   -7.310000e+01 9.079810e-01 2.021799e+01
      vertex   -7.490000e+01 1.175571e+00 2.038197e+01
      vertex   -7.490000e+01 9.079810e-01 2.021799e+01
    endloop
  endfacet
  facet normal 1.652249e-16 -3.826834e-01 9.238795e-01
    outer loop
      vertex   -7.310000e+01 9.079810e-01 2.021799e+01
      vertex   -7.490000e+01 9.079810e-01 2.021799e+01
      vertex   -7.310000e+01 6.180340e-01 2.009789e+01
    endloop
  endfacet
  facet normal 1.652249e-16 -3.826834e-01 9.238795e-01
    outer loop
      vertex   -7.310000e+01 6.180340e-01 2.009789e+01
      vertex   -7.490000e+01 9.079810e-01 2.021799e+01
      vertex   -7.490000e+01 6.180340e-01 2.009789e+01
    endloop
  endfacet
  facet normal 1.007908e-16 -2.334454e-01 9.723699e-01
    outer loop
      vertex   -7.310000e+01 6.180340e-01 2.009789e+01
      vertex   -7.490000e+01 6.180340e-01 2.009789e+01
      vertex   -7.310000e+01 3.128689e-01 2.002462e+01
    endloop
  endfacet
  facet normal 0.000000e+00 -2.334454e-01 9.723699e-01
    outer loop
      vertex   -7.310000e+01 3.128689e-01 2.002462e+01
      vertex   -7.490000e+01 6.180340e-01 2.009789e+01
      vertex   -7.490000e+01 3.128689e-01 2.002462e+01
    endloop
  endfacet
  facet normal 0.000000e+00 -7.845910e-02 9.969173e-01
    outer loop
      vertex   -7.310000e+01 3.128689e-01 2.002462e+01
      vertex   -7.490000e+01 3.128689e-01 2.002462e+01
      vertex   -7.310000e+01 0.000000e+00 2.000000e+01
    endloop
  endfacet
  facet normal 0.000000e+00 -7.845910e-02 9.969173e-01
    outer loop
      vertex   -7.310000e+01 0.000000e+00 2.000000e+01
      vertex   -7.490000e+01 3.128689e-01 2.002462e+01
      vertex   -7.490000e+01 0.000000e+00 2.000000e+01
    endloop
  endfacet
  facet normal 0.000000e+00 7.845910e-02 9.969173e-01
    outer loop
      vertex   -7.310000e+01 6.000000e+00 -5.300000e+01
      vertex   -7.490000e+01 6.000000e+00 -5.300000e+01
      vertex   -7.310000e+01 5.687131e+00 -5.297538e+01
    endloop
  endfacet
  facet normal 0.000000e+00 7.845910e-02 9.969173e-01
    outer loop
      vertex   -7.310000e+01 5.687131e+00 -5.297538e+01
      vertex   -7.490000e+01 6.000000e+00 -5.300000e+01
      vertex   -7.490000e+01 5.687131e+00 -5.297538e+01
    endloop
  endfacet
  facet normal 0.000000e+00 2.334454e-01 9.723699e-01
    outer loop
      vertex   -7.310000e+01 5.687131e+00 -5.297538e+01
      vertex   -7.490000e+01 5.687131e+00 -5.297538e+01
      vertex   -7.310000e+01 5.381966e+00 -5.290211e+01
    endloop
  endfacet
  facet normal -3.455686e-16 2.334454e-01 9.723699e-01
    outer loop
      vertex   -7.310000e+01 5.381966e+00 -5.290211e+01
      vertex   -7.490000e+01 5.687131e+00 -5.297538e+01
      vertex   -7.490000e+01 5.381966e+00 -5.290211e+01
    endloop
  endfacet
  facet normal -5.664853e-16 3.826834e-01 9.238795e-01
    outer loop
      vertex   -7.310000e+01 5.381966e+00 -5.290211e+01
      vertex   -7.490000e+01 5.381966e+00 -5.290211e+01
      vertex   -7.310000e+01 5.092019e+00 -5.278201e+01
    endloop
  endfacet
  facet normal -3.776568e-16 3.826834e-01 9.238795e-01
    outer loop
      vertex   -7.310000e+01 5.092019e+00 -5.278201e+01
      vertex   -7.490000e+01 5.381966e+00 -5.290211e+01
      vertex   -7.490000e+01 5.092019e+00 -5.278201e+01
    endloop
  endfacet
  facet normal -5.156355e-16 5.224986e-01 8.526402e-01
    outer loop
      vertex   -7.310000e+01 5.092019e+00 -5.278201e+01
      vertex   -7.490000e+01 5.092019e+00 -5.278201e+01
      vertex   -7.310000e+01 4.824429e+00 -5.261804e+01
    endloop
  endfacet
  facet normal 5.958072e-15 5.224986e-01 8.526402e-01
    outer loop
      vertex   -7.310000e+01 4.824429e+00 -5.261804e+01
      vertex   -7.490000e+01 5.092019e+00 -5.278201e+01
      vertex   -7.490000e+01 4.824429e+00 -5.261804e+01
    endloop
  endfacet
  facet normal 5.041967e-15 6.494480e-01 7.604060e-01
    outer loop
      vertex   -7.310000e+01 4.824429e+00 -5.261804e+01
      vertex   -7.490000e+01 4.824429e+00 -5.261804e+01
      vertex   -7.310000e+01 4.585786e+00 -5.241421e+01
    endloop
  endfacet
  facet normal -1.281835e-15 6.494480e-01 7.604060e-01
    outer loop
      vertex   -7.310000e+01 4.585786e+00 -5.241421e+01
      vertex   -7.490000e+01 4.824429e+00 -5.261804e+01
      vertex   -7.490000e+01 4.585786e+00 -5.241421e+01
    endloop
  endfacet
  facet normal -1.500836e-15 7.604060e-01 6.494480e-01
    outer loop
      vertex   -7.310000e+01 4.585786e+00 -5.241421e+01
      vertex   -7.490000e+01 4.585786e+00 -5.241421e+01
      vertex   -7.310000e+01 4.381966e+00 -5.217557e+01
    endloop
  endfacet
  facet normal -1.500836e-15 7.604060e-01 6.494480e-01
    outer loop
      vertex   -7.310000e+01 4.381966e+00 -5.217557e+01
      vertex   -7.490000e+01 4.585786e+00 -5.241421e+01
      vertex   -7.490000e+01 4.381966e+00 -5.217557e+01
    endloop
  endfacet
  facet normal -1.682881e-15 8.526402e-01 5.224986e-01
    outer loop
      vertex   -7.310000e+01 4.381966e+00 -5.217557e+01
      vertex   -7.490000e+01 4.381966e+00 -5.217557e+01
      vertex   -7.310000e+01 4.217987e+00 -5.190798e+01
    endloop
  endfacet
  facet normal -1.262161e-15 8.526402e-01 5.224986e-01
    outer loop
      vertex   -7.310000e+01 4.217987e+00 -5.190798e+01
      vertex   -7.490000e+01 4.381966e+00 -5.217557e+01
      vertex   -7.490000e+01 4.217987e+00 -5.190798e+01
    endloop
  endfacet
  facet normal -1.367616e-15 9.238795e-01 3.826834e-01
    outer loop
      vertex   -7.310000e+01 4.217987e+00 -5.190798e+01
      vertex   -7.490000e+01 4.217987e+00 -5.190798e+01
      vertex   -7.310000e+01 4.097887e+00 -5.161804e+01
    endloop
  endfacet
  facet normal -9.117443e-16 9.238795e-01 3.826834e-01
    outer loop
      vertex   -7.310000e+01 4.097887e+00 -5.161804e+01
      vertex   -7.490000e+01 4.217987e+00 -5.190798e+01
      vertex   -7.490000e+01 4.097887e+00 -5.161804e+01
    endloop
  endfacet
  facet normal -9.595977e-16 9.723699e-01 2.334454e-01
    outer loop
      vertex   -7.310000e+01 4.097887e+00 -5.161804e+01
      vertex   -7.490000e+01 4.097887e+00 -5.161804e+01
      vertex   -7.310000e+01 4.024623e+00 -5.131287e+01
    endloop
  endfacet
  facet normal 8.834345e-16 9.723699e-01 2.334454e-01
    outer loop
      vertex   -7.310000e+01 4.024623e+00 -5.131287e+01
      vertex   -7.490000e+01 4.097887e+00 -5.161804e+01
      vertex   -7.490000e+01 4.024623e+00 -5.131287e+01
    endloop
  endfacet
  facet normal -3.643945e-16 9.969173e-01 7.845910e-02
    outer loop
      vertex   -7.310000e+01 4.024623e+00 -5.131287e+01
      vertex   -7.490000e+01 4.024623e+00 -5.131287e+01
      vertex   -7.310000e+01 4.000000e+00 -5.100000e+01
    endloop
  endfacet
  facet normal 3.097141e-16 9.969173e-01 7.845910e-02
    outer loop
      vertex   -7.310000e+01 4.000000e+00 -5.100000e+01
      vertex   -7.490000e+01 4.024623e+00 -5.131287e+01
      vertex   -7.490000e+01 4.000000e+00 -5.100000e+01
    endloop
  endfacet
  facet normal -0.000000e+00 1.000000e+00 0.000000e+00
    outer loop
      vertex   -7.490000e+01 4.000000e+00 -5.100000e+01
      vertex   -7.490000e+01 4.000000e+00 -4.800000e+01
      vertex   -7.310000e+01 4.000000e+00 -5.100000e+01
    endloop
  endfacet
  facet normal 0.000000e+00 1.000000e+00 -0.000000e+00
    outer loop
      vertex   -7.310000e+01 4.000000e+00 -5.100000e+01
      vertex   -7.490000e+01 4.000000e+00 -4.800000e+01
      vertex   -7.310000e+01 4.000000e+00 -4.800000e+01
    endloop
  endfacet
  facet normal 0.000000e+00 9.969173e-01 -7.845910e-02
    outer loop
      vertex   -7.310000e+01 4.000000e+00 -4.800000e+01
      vertex   -7.490000e+01 4.000000e+00 -4.800000e+01
      vertex   -7.310000e+01 4.024623e+00 -4.768713e+01
    endloop
  endfacet
  facet normal 0.000000e+00 9.969173e-01 -7.845910e-02
    outer loop
      vertex   -7.310000e+01 4.024623e+00 -4.768713e+01
      vertex   -7.490000e+01 4.000000e+00 -4.800000e+01
      vertex   -7.490000e+01 4.024623e+00 -4.768713e+01
    endloop
  endfacet
  facet normal 0.000000e+00 9.723699e-01 -2.334454e-01
    outer loop
      vertex   -7.310000e+01 4.024623e+00 -4.768713e+01
      vertex   -7.490000e+01 4.024623e+00 -4.768713e+01
      vertex   -7.310000e+01 4.097887e+00 -4.738197e+01
    endloop
  endfacet
  facet normal 0.000000e+00 9.723699e-01 -2.334454e-01
    outer loop
      vertex   -7.310000e+01 4.097887e+00 -4.738197e+01
      vertex   -7.490000e+01 4.024623e+00 -4.768713e+01
      vertex   -7.490000e+01 4.097887e+00 -4.738197e+01
    endloop
  endfacet
  facet normal 0.000000e+00 9.238795e-01 -3.826834e-01
    outer loop
      vertex   -7.310000e+01 4.097887e+00 -4.738197e+01
      vertex   -7.490000e+01 4.097887e+00 -4.738197e+01
      vertex   -7.310000e+01 4.217987e+00 -4.709202e+01
    endloop
  endfacet
  facet normal 0.000000e+00 9.238795e-01 -3.826834e-01
    outer loop
      vertex   -7.310000e+01 4.217987e+00 -4.709202e+01
      vertex   -7.490000e+01 4.097887e+00 -4.738197e+01
      vertex   -7.490000e+01 4.217987e+00 -4.709202e+01
    endloop
  endfacet
  facet normal 0.000000e+00 8.526402e-01 -5.224986e-01
    outer loop
      vertex   -7.310000e+01 4.217987e+00 -4.709202e+01
      vertex   -7.490000e+01 4.217987e+00 -4.709202e+01
      vertex   -7.310000e+01 4.381966e+00 -4.682443e+01
    endloop
  endfacet
  facet normal 0.000000e+00 8.526402e-01 -5.224986e-01
    outer loop
      vertex   -7.310000e+01 4.381966e+00 -4.682443e+01
      vertex   -7.490000e+01 4.217987e+00 -4.709202e+01
      vertex   -7.490000e+01 4.381966e+00 -4.682443e+01
    endloop
  endfacet
  facet normal 0.000000e+00 7.604060e-01 -6.494480e-01
    outer loop
      vertex   -7.310000e+01 4.381966e+00 -4.682443e+01
      vertex   -7.490000e+01 4.381966e+00 -4.682443e+01
      vertex   -7.310000e+01 4.585786e+00 -4.658579e+01
    endloop
  endfacet
  facet normal 0.000000e+00 7.604060e-01 -6.494480e-01
    outer loop
      vertex   -7.310000e+01 4.585786e+00 -4.658579e+01
      vertex   -7.490000e+01 4.381966e+00 -4.682443e+01
      vertex   -7.490000e+01 4.585786e+00 -4.658579e+01
    endloop
  endfacet
  facet normal 0.000000e+00 6.494480e-01 -7.604060e-01
    outer loop
      vertex   -7.310000e+01 4.585786e+00 -4.658579e+01
      vertex   -7.490000e+01 4.585786e+00 -4.658579e+01
      vertex   -7.310000e+01 4.824429e+00 -4.638197e+01
    endloop
  endfacet
  facet normal 0.000000e+00 6.494480e-01 -7.604060e-01
    outer loop
      vertex   -7.310000e+01 4.824429e+00 -4.638197e+01
      vertex   -7.490000e+01 4.585786e+00 -4.658579e+01
      vertex   -7.490000e+01 4.824429e+00 -4.638197e+01
    endloop
  endfacet
  facet normal 0.000000e+00 5.224986e-01 -8.526402e-01
    outer loop
      vertex   -7.310000e+01 4.824429e+00 -4.638197e+01
      vertex   -7.490000e+01 4.824429e+00 -4.638197e+01
      vertex   -7.310000e+01 5.092019e+00 -4.621799e+01
    endloop
  endfacet
  facet normal -2.578177e-16 5.224986e-01 -8.526402e-01
    outer loop
      vertex   -7.310000e+01 5.092019e+00 -4.621799e+01
      vertex   -7.490000e+01 4.824429e+00 -4.638197e+01
      vertex   -7.490000e+01 5.092019e+00 -4.621799e+01
    endloop
  endfacet
  facet normal -1.888284e-16 3.826834e-01 -9.238795e-01
    outer loop
      vertex   -7.310000e+01 5.092019e+00 -4.621799e+01
      vertex   -7.490000e+01 5.092019e+00 -4.621799e+01
      vertex   -7.310000e+01 5.381966e+00 -4.609789e+01
    endloop
  endfacet
  facet normal 0.000000e+00 3.826834e-01 -9.238795e-01
    outer loop
      vertex   -7.310000e+01 5.381966e+00 -4.609789e+01
      vertex   -7.490000e+01 5.092019e+00 -4.621799e+01
      vertex   -7.490000e+01 5.381966e+00 -4.609789e+01
    endloop
  endfacet
  facet normal 0.000000e+00 2.334454e-01 -9.723699e-01
    outer loop
      vertex   -7.310000e+01 5.381966e+00 -4.609789e+01
      vertex   -7.490000e+01 5.381966e+00 -4.609789e+01
      vertex   -7.310000e+01 5.687131e+00 -4.602462e+01
    endloop
  endfacet
  facet normal 0.000000e+00 2.334454e-01 -9.723699e-01
    outer loop
      vertex   -7.310000e+01 5.687131e+00 -4.602462e+01
      vertex   -7.490000e+01 5.381966e+00 -4.609789e+01
      vertex   -7.490000e+01 5.687131e+00 -4.602462e+01
    endloop
  endfacet
  facet normal 0.000000e+00 7.845910e-02 -9.969173e-01
    outer loop
      vertex   -7.310000e+01 5.687131e+00 -4.602462e+01
      vertex   -7.490000e+01 5.687131e+00 -4.602462e+01
      vertex   -7.310000e+01 6.000000e+00 -4.600000e+01
    endloop
  endfacet
  facet normal 3.935291e-15 7.845910e-02 -9.969173e-01
    outer loop
      vertex   -7.310000e+01 6.000000e+00 -4.600000e+01
      vertex   -7.490000e+01 5.687131e+00 -4.602462e+01
      vertex   -7.490000e+01 6.000000e+00 -4.600000e+01
    endloop
  endfacet
  facet normal 3.947460e-15 0.000000e+00 -1.000000e+00
    outer loop
      vertex   -7.490000e+01 6.000000e+00 -4.600000e+01
      vertex   -7.490000e+01 5.300000e+01 -4.600000e+01
      vertex   -7.310000e+01 6.000000e+00 -4.600000e+01
    endloop
  endfacet
  facet normal 3.947460e-15 0.000000e+00 -1.000000e+00
    outer loop
      vertex   -7.310000e+01 6.000000e+00 -4.600000e+01
      vertex   -7.490000e+01 5.300000e+01 -4.600000e+01
      vertex   -7.310000e+01 5.300000e+01 -4.600000e+01
    endloop
  endfacet
  facet normal 3.935291e-15 -7.845910e-02 -9.969173e-01
    outer loop
      vertex   -7.310000e+01 5.300000e+01 -4.600000e+01
      vertex   -7.490000e+01 5.300000e+01 -4.600000e+01
      vertex   -7.310000e+01 5.331287e+01 -4.602462e+01
    endloop
  endfacet
  facet normal -0.000000e+00 -7.845910e-02 -9.969173e-01
    outer loop
      vertex   -7.310000e+01 5.331287e+01 -4.602462e+01
      vertex   -7.490000e+01 5.300000e+01 -4.600000e+01
      vertex   -7.490000e+01 5.331287e+01 -4.602462e+01
    endloop
  endfacet
  facet normal -0.000000e+00 -2.334454e-01 -9.723699e-01
    outer loop
      vertex   -7.310000e+01 5.331287e+01 -4.602462e+01
      vertex   -7.490000e+01 5.331287e+01 -4.602462e+01
      vertex   -7.310000e+01 5.361803e+01 -4.609789e+01
    endloop
  endfacet
  facet normal -0.000000e+00 -2.334454e-01 -9.723699e-01
    outer loop
      vertex   -7.310000e+01 5.361803e+01 -4.609789e+01
      vertex   -7.490000e+01 5.331287e+01 -4.602462e+01
      vertex   -7.490000e+01 5.361803e+01 -4.609789e+01
    endloop
  endfacet
  facet normal -0.000000e+00 -3.826834e-01 -9.238795e-01
    outer loop
      vertex   -7.310000e+01 5.361803e+01 -4.609789e+01
      vertex   -7.490000e+01 5.361803e+01 -4.609789e+01
      vertex   -7.310000e+01 5.390798e+01 -4.621799e+01
    endloop
  endfacet
  facet normal -0.000000e+00 -3.826834e-01 -9.238795e-01
    outer loop
      vertex   -7.310000e+01 5.390798e+01 -4.621799e+01
      vertex   -7.490000e+01 5.361803e+01 -4.609789e+01
      vertex   -7.490000e+01 5.390798e+01 -4.621799e+01
    endloop
  endfacet
  facet normal -0.000000e+00 -5.224986e-01 -8.526402e-01
    outer loop
      vertex   -7.310000e+01 5.390798e+01 -4.621799e+01
      vertex   -7.490000e+01 5.390798e+01 -4.621799e+01
      vertex   -7.310000e+01 5.417557e+01 -4.638197e+01
    endloop
  endfacet
  facet normal 2.062542e-15 -5.224986e-01 -8.526402e-01
    outer loop
      vertex   -7.310000e+01 5.417557e+01 -4.638197e+01
      vertex   -7.490000e+01 5.390798e+01 -4.621799e+01
      vertex   -7.490000e+01 5.417557e+01 -4.638197e+01
    endloop
  endfacet
  facet normal 2.563670e-15 -6.494480e-01 -7.604060e-01
    outer loop
      vertex   -7.310000e+01 5.417557e+01 -4.638197e+01
      vertex   -7.490000e+01 5.417557e+01 -4.638197e+01
      vertex   -7.310000e+01 5.441421e+01 -4.658579e+01
    endloop
  endfacet
  facet normal -0.000000e+00 -6.494480e-01 -7.604060e-01
    outer loop
      vertex   -7.310000e+01 5.441421e+01 -4.658579e+01
      vertex   -7.490000e+01 5.417557e+01 -4.638197e+01
      vertex   -7.490000e+01 5.441421e+01 -4.658579e+01
    endloop
  endfacet
  facet normal -0.000000e+00 -7.604060e-01 -6.494480e-01
    outer loop
      vertex   -7.310000e+01 5.441421e+01 -4.658579e+01
      vertex   -7.490000e+01 5.441421e+01 -4.658579e+01
      vertex   -7.310000e+01 5.461803e+01 -4.682443e+01
    endloop
  endfacet
  facet normal -0.000000e+00 -7.604060e-01 -6.494480e-01
    outer loop
      vertex   -7.310000e+01 5.461803e+01 -4.682443e+01
      vertex   -7.490000e+01 5.441421e+01 -4.658579e+01
      vertex   -7.490000e+01 5.461803e+01 -4.682443e+01
    endloop
  endfacet
  facet normal -0.000000e+00 -8.526402e-01 -5.224986e-01
    outer loop
      vertex   -7.310000e+01 5.461803e+01 -4.682443e+01
      vertex   -7.490000e+01 5.461803e+01 -4.682443e+01
      vertex   -7.310000e+01 5.478201e+01 -4.709202e+01
    endloop
  endfacet
  facet normal -0.000000e+00 -8.526402e-01 -5.224986e-01
    outer loop
      vertex   -7.310000e+01 5.478201e+01 -4.709202e+01
      vertex   -7.490000e+01 5.461803e+01 -4.682443e+01
      vertex   -7.490000e+01 5.478201e+01 -4.709202e+01
    endloop
  endfacet
  facet normal -0.000000e+00 -9.238795e-01 -3.826834e-01
    outer loop
      vertex   -7.310000e+01 5.478201e+01 -4.709202e+01
      vertex   -7.490000e+01 5.478201e+01 -4.709202e+01
      vertex   -7.310000e+01 5.490211e+01 -4.738197e+01
    endloop
  endfacet
  facet normal -0.000000e+00 -9.238795e-01 -3.826834e-01
    outer loop
      vertex   -7.310000e+01 5.490211e+01 -4.738197e+01
      vertex   -7.490000e+01 5.478201e+01 -4.709202e+01
      vertex   -7.490000e+01 5.490211e+01 -4.738197e+01
    endloop
  endfacet
  facet normal -0.000000e+00 -9.723699e-01 -2.334454e-01
    outer loop
      vertex   -7.310000e+01 5.490211e+01 -4.738197e+01
      vertex   -7.490000e+01 5.490211e+01 -4.738197e+01
      vertex   -7.310000e+01 5.497538e+01 -4.768713e+01
    endloop
  endfacet
  facet normal -0.000000e+00 -9.723699e-01 -2.334454e-01
    outer loop
      vertex   -7.310000e+01 5.497538e+01 -4.768713e+01
      vertex   -7.490000e+01 5.490211e+01 -4.738197e+01
      vertex   -7.490000e+01 5.497538e+01 -4.768713e+01
    endloop
  endfacet
  facet normal -0.000000e+00 -9.969173e-01 -7.845910e-02
    outer loop
      vertex   -7.310000e+01 5.497538e+01 -4.768713e+01
      vertex   -7.490000e+01 5.497538e+01 -4.768713e+01
      vertex   -7.310000e+01 5.500000e+01 -4.800000e+01
    endloop
  endfacet
  facet normal -0.000000e+00 -9.969173e-01 -7.845910e-02
    outer loop
      vertex   -7.310000e+01 5.500000e+01 -4.800000e+01
      vertex   -7.490000e+01 5.497538e+01 -4.768713e+01
      vertex   -7.490000e+01 5.500000e+01 -4.800000e+01
    endloop
  endfacet
  facet normal 0.000000e+00 -1.000000e+00 0.000000e+00
    outer loop
      vertex   -7.490000e+01 5.500000e+01 -4.800000e+01
      vertex   -7.490000e+01 5.500000e+01 -5.100000e+01
      vertex   -7.310000e+01 5.500000e+01 -4.800000e+01
    endloop
  endfacet
  facet normal 0.000000e+00 -1.000000e+00 -0.000000e+00
    outer loop
      vertex   -7.310000e+01 5.500000e+01 -4.800000e+01
      vertex   -7.490000e+01 5.500000e+01 -5.100000e+01
      vertex   -7.310000e+01 5.500000e+01 -5.100000e+01
    endloop
  endfacet
  facet normal 0.000000e+00 -9.969173e-01 7.845910e-02
    outer loop
      vertex   -7.310000e+01 5.500000e+01 -5.100000e+01
      vertex   -7.490000e+01 5.500000e+01 -5.100000e+01
      vertex   -7.310000e+01 5.497538e+01 -5.131287e+01
    endloop
  endfacet
  facet normal 0.000000e+00 -9.969173e-01 7.845910e-02
    outer loop
      vertex   -7.310000e+01 5.497538e+01 -5.131287e+01
      vertex   -7.490000e+01 5.500000e+01 -5.100000e+01
      vertex   -7.490000e+01 5.497538e+01 -5.131287e+01
    endloop
  endfacet
  facet normal 0.000000e+00 -9.723699e-01 2.334454e-01
    outer loop
      vertex   -7.310000e+01 5.497538e+01 -5.131287e+01
      vertex   -7.490000e+01 5.497538e+01 -5.131287e+01
      vertex   -7.310000e+01 5.490211e+01 -5.161804e+01
    endloop
  endfacet
  facet normal 0.000000e+00 -9.723699e-01 2.334454e-01
    outer loop
      vertex   -7.310000e+01 5.490211e+01 -5.161804e+01
      vertex   -7.490000e+01 5.497538e+01 -5.131287e+01
      vertex   -7.490000e+01 5.490211e+01 -5.161804e+01
    endloop
  endfacet
  facet normal 0.000000e+00 -9.238795e-01 3.826834e-01
    outer loop
      vertex   -7.310000e+01 5.490211e+01 -5.161804e+01
      vertex   -7.490000e+01 5.490211e+01 -5.161804e+01
      vertex   -7.310000e+01 5.478201e+01 -5.190798e+01
    endloop
  endfacet
  facet normal 0.000000e+00 -9.238795e-01 3.826834e-01
    outer loop
      vertex   -7.310000e+01 5.478201e+01 -5.190798e+01
      vertex   -7.490000e+01 5.490211e+01 -5.161804e+01
      vertex   -7.490000e+01 5.478201e+01 -5.190798e+01
    endloop
  endfacet
  facet normal 0.000000e+00 -8.526402e-01 5.224986e-01
    outer loop
      vertex   -7.310000e+01 5.478201e+01 -5.190798e+01
      vertex   -7.490000e+01 5.478201e+01 -5.190798e+01
      vertex   -7.310000e+01 5.461803e+01 -5.217557e+01
    endloop
  endfacet
  facet normal 0.000000e+00 -8.526402e-01 5.224986e-01
    outer loop
      vertex   -7.310000e+01 5.461803e+01 -5.217557e+01
      vertex   -7.490000e+01 5.478201e+01 -5.190798e+01
      vertex   -7.490000e+01 5.461803e+01 -5.217557e+01
    endloop
  endfacet
  facet normal 0.000000e+00 -7.604060e-01 6.494480e-01
    outer loop
      vertex   -7.310000e+01 5.461803e+01 -5.217557e+01
      vertex   -7.490000e+01 5.461803e+01 -5.217557e+01
      vertex   -7.310000e+01 5.441421e+01 -5.241421e+01
    endloop
  endfacet
  facet normal 0.000000e+00 -7.604060e-01 6.494480e-01
    outer loop
      vertex   -7.310000e+01 5.441421e+01 -5.241421e+01
      vertex   -7.490000e+01 5.461803e+01 -5.217557e+01
      vertex   -7.490000e+01 5.441421e+01 -5.241421e+01
    endloop
  endfacet
  facet normal 0.000000e+00 -6.494480e-01 7.604060e-01
    outer loop
      vertex   -7.310000e+01 5.441421e+01 -5.241421e+01
      vertex   -7.490000e+01 5.441421e+01 -5.241421e+01
      vertex   -7.310000e+01 5.417557e+01 -5.261804e+01
    endloop
  endfacet
  facet normal 0.000000e+00 -6.494480e-01 7.604060e-01
    outer loop
      vertex   -7.310000e+01 5.417557e+01 -5.261804e+01
      vertex   -7.490000e+01 5.441421e+01 -5.241421e+01
      vertex   -7.490000e+01 5.417557e+01 -5.261804e+01
    endloop
  endfacet
  facet normal 0.000000e+00 -5.224986e-01 8.526402e-01
    outer loop
      vertex   -7.310000e+01 5.417557e+01 -5.261804e+01
      vertex   -7.490000e+01 5.417557e+01 -5.261804e+01
      vertex   -7.310000e+01 5.390798e+01 -5.278201e+01
    endloop
  endfacet
  facet normal 0.000000e+00 -5.224986e-01 8.526402e-01
    outer loop
      vertex   -7.310000e+01 5.390798e+01 -5.278201e+01
      vertex   -7.490000e+01 5.417557e+01 -5.261804e+01
      vertex   -7.490000e+01 5.390798e+01 -5.278201e+01
    endloop
  endfacet
  facet normal 0.000000e+00 -3.826834e-01 9.238795e-01
    outer loop
      vertex   -7.310000e+01 5.390798e+01 -5.278201e+01
      vertex   -7.490000e+01 5.390798e+01 -5.278201e+01
      vertex   -7.310000e+01 5.361803e+01 -5.290211e+01
    endloop
  endfacet
  facet normal 0.000000e+00 -3.826834e-01 9.238795e-01
    outer loop
      vertex   -7.310000e+01 5.361803e+01 -5.290211e+01
      vertex   -7.490000e+01 5.390798e+01 -5.278201e+01
      vertex   -7.490000e+01 5.361803e+01 -5.290211e+01
    endloop
  endfacet
  facet normal 0.000000e+00 -2.334454e-01 9.723699e-01
    outer loop
      vertex   -7.310000e+01 5.361803e+01 -5.290211e+01
      vertex   -7.490000e+01 5.361803e+01 -5.290211e+01
      vertex   -7.310000e+01 5.331287e+01 -5.297538e+01
    endloop
  endfacet
  facet normal 0.000000e+00 -2.334454e-01 9.723699e-01
    outer loop
      vertex   -7.310000e+01 5.331287e+01 -5.297538e+01
      vertex   -7.490000e+01 5.361803e+01 -5.290211e+01
      vertex   -7.490000e+01 5.331287e+01 -5.297538e+01
    endloop
  endfacet
  facet normal 0.000000e+00 -7.845910e-02 9.969173e-01
    outer loop
      vertex   -7.310000e+01 5.331287e+01 -5.297538e+01
      vertex   -7.490000e+01 5.331287e+01 -5.297538e+01
      vertex   -7.310000e+01 5.300000e+01 -5.300000e+01
    endloop
  endfacet
  facet normal 0.000000e+00 -7.845910e-02 9.969173e-01
    outer loop
      vertex   -7.310000e+01 5.300000e+01 -5.300000e+01
      vertex   -7.490000e+01 5.331287e+01 -5.297538e+01
      vertex   -7.490000e+01 5.300000e+01 -5.300000e+01
    endloop
  endfacet
  facet normal 0.000000e+00 -0.000000e+00 1.000000e+00
    outer loop
      vertex   -7.310000e+01 6.000000e+00 -5.300000e+01
      vertex   -7.310000e+01 5.300000e+01 -5.300000e+01
      vertex   -7.490000e+01 6.000000e+00 -5.300000e+01
    endloop
  endfacet
  facet normal 0.000000e+00 0.000000e+00 1.000000e+00
    outer loop
      vertex   -7.490000e+01 6.000000e+00 -5.300000e+01
      vertex   -7.310000e+01 5.300000e+01 -5.300000e+01
      vertex   -7.490000e+01 5.300000e+01 -5.300000e+01
    endloop
  endfacet
  facet normal 0.000000e+00 -1.000000e+00 0.000000e+00
    outer loop
      vertex   -7.310000e+01 0.000000e+00 1.790000e+01
      vertex   -7.310000e+01 0.000000e+00 2.000000e+01
      vertex   -7.490000e+01 0.000000e+00 1.790000e+01
    endloop
  endfacet
  facet normal 0.000000e+00 -1.000000e+00 0.000000e+00
    outer loop
      vertex   -7.490000e+01 0.000000e+00 1.790000e+01
      vertex   -7.310000e+01 0.000000e+00 2.000000e+01
      vertex   -7.490000e+01 0.000000e+00 2.000000e+01
    endloop
  endfacet
  facet normal 0.000000e+00 -1.000000e+00 0.000000e+00
    outer loop
      vertex   -7.310000e+01 0.000000e+00 -2.710000e+01
      vertex   -7.310000e+01 0.000000e+00 8.099999e+00
      vertex   -7.490000e+01 0.000000e+00 -2.710000e+01
    endloop
  endfacet
  facet normal 0.000000e+00 -1.000000e+00 0.000000e+00
    outer loop
      vertex   -7.490000e+01 0.000000e+00 -2.710000e+01
      vertex   -7.310000e+01 0.000000e+00 8.099999e+00
      vertex   -7.490000e+01 0.000000e+00 8.099999e+00
    endloop
  endfacet
  facet normal 0.000000e+00 -1.000000e+00 0.000000e+00
    outer loop
      vertex   -7.310000e+01 0.000000e+00 -7.210000e+01
      vertex   -7.310000e+01 0.000000e+00 -3.690000e+01
      vertex   -7.490000e+01 0.000000e+00 -7.210000e+01
    endloop
  endfacet
  facet normal 0.000000e+00 -1.000000e+00 0.000000e+00
    outer loop
      vertex   -7.490000e+01 0.000000e+00 -7.210000e+01
      vertex   -7.310000e+01 0.000000e+00 -3.690000e+01
      vertex   -7.490000e+01 0.000000e+00 -3.690000e+01
    endloop
  endfacet
  facet normal 0.000000e+00 0.000000e+00 1.000000e+00
    outer loop
      vertex   -7.490000e+01 -3.000000e+00 -7.210000e+01
      vertex   -7.310000e+01 -3.000000e+00 -7.210000e+01
      vertex   -7.490000e+01 0.000000e+00 -7.210000e+01
    endloop
  endfacet
  facet normal -0.000000e+00 0.000000e+00 1.000000e+00
    outer loop
      vertex   -7.490000e+01 0.000000e+00 -7.210000e+01
      vertex   -7.310000e+01 -3.000000e+00 -7.210000e+01
      vertex   -7.310000e+01 0.000000e+00 -7.210000e+01
    endloop
  endfacet
  facet normal 0.000000e+00 0.000000e+00 -1.000000e+00
    outer loop
      vertex   -7.310000e+01 -3.000000e+00 -8.190000e+01
      vertex   -7.490000e+01 -3.000000e+00 -8.190000e+01
      vertex   -7.310000e+01 0.000000e+00 -8.190000e+01
    endloop
  endfacet
  facet normal -0.000000e+00 0.000000e+00 -1.000000e+00
    outer loop
      vertex   -7.310000e+01 0.000000e+00 -8.190000e+01
      vertex   -7.490000e+01 -3.000000e+00 -8.190000e+01
      vertex   -7.490000e+01 0.000000e+00 -8.190000e+01
    endloop
  endfacet
  facet normal 0.000000e+00 0.000000e+00 1.000000e+00
    outer loop
      vertex   -7.490000e+01 -3.000000e+00 -2.710000e+01
      vertex   -7.310000e+01 -3.000000e+00 -2.710000e+01
      vertex   -7.490000e+01 0.000000e+00 -2.710000e+01
    endloop
  endfacet
  facet normal -0.000000e+00 0.000000e+00 1.000000e+00
    outer loop
      vertex   -7.490000e+01 0.000000e+00 -2.710000e+01
      vertex   -7.310000e+01 -3.000000e+00 -2.710000e+01
      vertex   -7.310000e+01 0.000000e+00 -2.710000e+01
    endloop
  endfacet
  facet normal 0.000000e+00 0.000000e+00 -1.000000e+00
    outer loop
      vertex   -7.310000e+01 -3.000000e+00 -3.690000e+01
      vertex   -7.490000e+01 -3.000000e+00 -3.690000e+01
      vertex   -7.310000e+01 0.000000e+00 -3.690000e+01
    endloop
  endfacet
  facet normal -0.000000e+00 0.000000e+00 -1.000000e+00
    outer loop
      vertex   -7.310000e+01 0.000000e+00 -3.690000e+01
      vertex   -7.490000e+01 -3.000000e+00 -3.690000e+01
      vertex   -7.490000e+01 0.000000e+00 -3.690000e+01
    endloop
  endfacet
  facet normal 0.000000e+00 0.000000e+00 1.000000e+00
    outer loop
      vertex   -7.490000e+01 -3.000000e+00 1.790000e+01
      vertex   -7.310000e+01 -3.000000e+00 1.790000e+01
      vertex   -7.490000e+01 0.000000e+00 1.790000e+01
    endloop
  endfacet
  facet normal -0.000000e+00 0.000000e+00 1.000000e+00
    outer loop
      vertex   -7.490000e+01 0.000000e+00 1.790000e+01
      vertex   -7.310000e+01 -3.000000e+00 1.790000e+01
      vertex   -7.310000e+01 0.000000e+00 1.790000e+01
    endloop
  endfacet
  facet normal 0.000000e+00 0.000000e+00 -1.000000e+00
    outer loop
      vertex   -7.310000e+01 -3.000000e+00 8.099999e+00
      vertex   -7.490000e+01 -3.000000e+00 8.099999e+00
      vertex   -7.310000e+01 0.000000e+00 8.099999e+00
    endloop
  endfacet
  facet normal -0.000000e+00 0.000000e+00 -1.000000e+00
    outer loop
      vertex   -7.310000e+01 0.000000e+00 8.099999e+00
      vertex   -7.490000e+01 -3.000000e+00 8.099999e+00
      vertex   -7.490000e+01 0.000000e+00 8.099999e+00
    endloop
  endfacet
  facet normal -0.000000e+00 -1.000000e+00 0.000000e+00
    outer loop
      vertex   -7.310000e+01 2.000000e+00 2.200000e+01
      vertex   -7.310000e+01 2.000000e+00 2.600000e+01
      vertex   -7.490000e+01 2.000000e+00 2.200000e+01
    endloop
  endfacet
  facet normal 1.233581e-16 -1.000000e+00 -5.551115e-17
    outer loop
      vertex   -7.490000e+01 2.000000e+00 2.200000e+01
      vertex   -7.310000e+01 2.000000e+00 2.600000e+01
      vertex   -7.490000e+01 2.000000e+00 2.600000e+01
    endloop
  endfacet
  facet normal -0.000000e+00 -1.000000e+00 -0.000000e+00
    outer loop
      vertex   -7.310000e+01 0.000000e+00 -8.190000e+01
      vertex   -7.490000e+01 0.000000e+00 -8.190000e+01
      vertex   -7.310000e+01 0.000000e+00 -9.300000e+01
    endloop
  endfacet
  facet normal -0.000000e+00 -1.000000e+00 0.000000e+00
    outer loop
      vertex   -7.310000e+01 0.000000e+00 -9.300000e+01
      vertex   -7.490000e+01 0.000000e+00 -8.190000e+01
      vertex   -7.490000e+01 0.000000e+00 -9.300000e+01
    endloop
  endfacet
  facet normal 7.698933e-07 0.000000e+00 -1.000000e+00
    outer loop
      vertex   -7.310000e+01 0.000000e+00 -9.300000e+01
      vertex   -7.490000e+01 0.000000e+00 -9.300000e+01
      vertex   -7.310000e+01 5.900000e+01 -9.300000e+01
    endloop
  endfacet
  facet normal 7.698933e-07 0.000000e+00 -1.000000e+00
    outer loop
      vertex   -7.310000e+01 5.900000e+01 -9.300000e+01
      vertex   -7.490000e+01 0.000000e+00 -9.300000e+01
      vertex   -7.490000e+01 5.900000e+01 -9.300000e+01
    endloop
  endfacet
  facet normal -1.000000e+00 0.000000e+00 0.000000e+00
    outer loop
      vertex   -7.490000e+01 3.450000e+01 -3.500000e+01
      vertex   -7.490000e+01 5.900000e+01 8.099999e+00
      vertex   -7.490000e+01 3.800000e+01 -3.500000e+01
    endloop
  endfacet
  facet normal -1.000000e+00 0.000000e+00 0.000000e+00
    outer loop
      vertex   -7.490000e+01 3.800000e+01 -3.500000e+01
      vertex   -7.490000e+01 5.900000e+01 8.099999e+00
      vertex   -7.490000e+01 5.900000e+01 -2.710000e+01
    endloop
  endfacet
  facet normal -1.000000e+00 0.000000e+00 0.000000e+00
    outer loop
      vertex   -7.490000e+01 3.800000e+01 -3.500000e+01
      vertex   -7.490000e+01 5.900000e+01 -2.710000e+01
      vertex   -7.490000e+01 5.300000e+01 -4.600000e+01
    endloop
  endfacet
  facet normal -1.000000e+00 0.000000e+00 0.000000e+00
    outer loop
      vertex   -7.490000e+01 5.300000e+01 -4.600000e+01
      vertex   -7.490000e+01 5.900000e+01 -2.710000e+01
      vertex   -7.490000e+01 5.900000e+01 -3.690000e+01
    endloop
  endfacet
  facet normal -1.000000e+00 0.000000e+00 0.000000e+00
    outer loop
      vertex   -7.490000e+01 5.300000e+01 -4.600000e+01
      vertex   -7.490000e+01 5.900000e+01 -3.690000e+01
      vertex   -7.490000e+01 5.331287e+01 -4.602462e+01
    endloop
  endfacet
  facet normal -1.000000e+00 0.000000e+00 0.000000e+00
    outer loop
      vertex   -7.490000e+01 5.331287e+01 -4.602462e+01
      vertex   -7.490000e+01 5.900000e+01 -3.690000e+01
      vertex   -7.490000e+01 5.361803e+01 -4.609789e+01
    endloop
  endfacet
  facet normal -1.000000e+00 0.000000e+00 0.000000e+00
    outer loop
      vertex   -7.490000e+01 5.361803e+01 -4.609789e+01
      vertex   -7.490000e+01 5.900000e+01 -3.690000e+01
      vertex   -7.490000e+01 5.390798e+01 -4.621799e+01
    endloop
  endfacet
  facet normal -1.000000e+00 0.000000e+00 0.000000e+00
    outer loop
      vertex   -7.490000e+01 5.390798e+01 -4.621799e+01
      vertex   -7.490000e+01 5.900000e+01 -3.690000e+01
      vertex   -7.490000e+01 5.417557e+01 -4.638197e+01
    endloop
  endfacet
  facet normal -1.000000e+00 0.000000e+00 0.000000e+00
    outer loop
      vertex   -7.490000e+01 5.417557e+01 -4.638197e+01
      vertex   -7.490000e+01 5.900000e+01 -3.690000e+01
      vertex   -7.490000e+01 5.441421e+01 -4.658579e+01
    endloop
  endfacet
  facet normal -1.000000e+00 0.000000e+00 0.000000e+00
    outer loop
      vertex   -7.490000e+01 5.441421e+01 -4.658579e+01
      vertex   -7.490000e+01 5.900000e+01 -3.690000e+01
      vertex   -7.490000e+01 5.461803e+01 -4.682443e+01
    endloop
  endfacet
  facet normal -1.000000e+00 0.000000e+00 0.000000e+00
    outer loop
      vertex   -7.490000e+01 5.461803e+01 -4.682443e+01
      vertex   -7.490000e+01 5.900000e+01 -3.690000e+01
      vertex   -7.490000e+01 5.478201e+01 -4.709202e+01
    endloop
  endfacet
  facet normal -1.000000e+00 0.000000e+00 0.000000e+00
    outer loop
      vertex   -7.490000e+01 5.478201e+01 -4.709202e+01
      vertex   -7.490000e+01 5.900000e+01 -3.690000e+01
      vertex   -7.490000e+01 5.490211e+01 -4.738197e+01
    endloop
  endfacet
  facet normal -1.000000e+00 0.000000e+00 0.000000e+00
    outer loop
      vertex   -7.490000e+01 5.490211e+01 -4.738197e+01
      vertex   -7.490000e+01 5.900000e+01 -3.690000e+01
      vertex   -7.490000e+01 5.497538e+01 -4.768713e+01
    endloop
  endfacet
  facet normal -1.000000e+00 0.000000e+00 0.000000e+00
    outer loop
      vertex   -7.490000e+01 5.497538e+01 -4.768713e+01
      vertex   -7.490000e+01 5.900000e+01 -3.690000e+01
      vertex   -7.490000e+01 5.500000e+01 -4.800000e+01
    endloop
  endfacet
  facet normal -1.000000e+00 0.000000e+00 0.000000e+00
    outer loop
      vertex   -7.490000e+01 5.500000e+01 -4.800000e+01
      vertex   -7.490000e+01 5.900000e+01 -3.690000e+01
      vertex   -7.490000e+01 5.500000e+01 -5.100000e+01
    endloop
  endfacet
  facet normal -1.000000e+00 0.000000e+00 0.000000e+00
    outer loop
      vertex   -7.490000e+01 5.500000e+01 -5.100000e+01
      vertex   -7.490000e+01 5.900000e+01 -3.690000e+01
      vertex   -7.490000e+01 5.900000e+01 -7.210000e+01
    endloop
  endfacet
  facet normal -1.000000e+00 0.000000e+00 -0.000000e+00
    outer loop
      vertex   -7.490000e+01 5.500000e+01 -5.100000e+01
      vertex   -7.490000e+01 5.900000e+01 -7.210000e+01
      vertex   -7.490000e+01 5.497538e+01 -5.131287e+01
    endloop
  endfacet
  facet normal -1.000000e+00 0.000000e+00 -0.000000e+00
    outer loop
      vertex   -7.490000e+01 5.497538e+01 -5.131287e+01
      vertex   -7.490000e+01 5.900000e+01 -7.210000e+01
      vertex   -7.490000e+01 5.490211e+01 -5.161804e+01
    endloop
  endfacet
  facet normal -1.000000e+00 0.000000e+00 -0.000000e+00
    outer loop
      vertex   -7.490000e+01 5.490211e+01 -5.161804e+01
      vertex   -7.490000e+01 5.900000e+01 -7.210000e+01
      vertex   -7.490000e+01 5.478201e+01 -5.190798e+01
    endloop
  endfacet
  facet normal -1.000000e+00 0.000000e+00 -0.000000e+00
    outer loop
      vertex   -7.490000e+01 5.478201e+01 -5.190798e+01
      vertex   -7.490000e+01 5.900000e+01 -7.210000e+01
      vertex   -7.490000e+01 5.461803e+01 -5.217557e+01
    endloop
  endfacet
  facet normal -1.000000e+00 0.000000e+00 -0.000000e+00
    outer loop
      vertex   -7.490000e+01 5.461803e+01 -5.217557e+01
      vertex   -7.490000e+01 5.900000e+01 -7.210000e+01
      vertex   -7.490000e+01 5.441421e+01 -5.241421e+01
    endloop
  endfacet
  facet normal -1.000000e+00 0.000000e+00 -0.000000e+00
    outer loop
      vertex   -7.490000e+01 5.441421e+01 -5.241421e+01
      vertex   -7.490000e+01 5.900000e+01 -7.210000e+01
      vertex   -7.490000e+01 5.417557e+01 -5.261804e+01
    endloop
  endfacet
  facet normal -1.000000e+00 0.000000e+00 -0.000000e+00
    outer loop
      vertex   -7.490000e+01 5.417557e+01 -5.261804e+01
      vertex   -7.490000e+01 5.900000e+01 -7.210000e+01
      vertex   -7.490000e+01 5.390798e+01 -5.278201e+01
    endloop
  endfacet
  facet normal -1.000000e+00 0.000000e+00 -0.000000e+00
    outer loop
      vertex   -7.490000e+01 5.390798e+01 -5.278201e+01
      vertex   -7.490000e+01 5.900000e+01 -7.210000e+01
      vertex   -7.490000e+01 5.361803e+01 -5.290211e+01
    endloop
  endfacet
  facet normal -1.000000e+00 0.000000e+00 -0.000000e+00
    outer loop
      vertex   -7.490000e+01 5.361803e+01 -5.290211e+01
      vertex   -7.490000e+01 5.900000e+01 -7.210000e+01
      vertex   -7.490000e+01 5.331287e+01 -5.297538e+01
    endloop
  endfacet
  facet normal -1.000000e+00 0.000000e+00 -0.000000e+00
    outer loop
      vertex   -7.490000e+01 5.331287e+01 -5.297538e+01
      vertex   -7.490000e+01 5.900000e+01 -7.210000e+01
      vertex   -7.490000e+01 5.300000e+01 -5.300000e+01
    endloop
  endfacet
  facet normal -1.000000e+00 0.000000e+00 0.000000e+00
    outer loop
      vertex   -7.490000e+01 5.300000e+01 -5.300000e+01
      vertex   -7.490000e+01 5.900000e+01 -7.210000e+01
      vertex   -7.490000e+01 5.900000e+01 -8.190000e+01
    endloop
  endfacet
  facet normal -1.000000e+00 -0.000000e+00 -0.000000e+00
    outer loop
      vertex   -7.490000e+01 5.300000e+01 -5.300000e+01
      vertex   -7.490000e+01 5.900000e+01 -8.190000e+01
      vertex   -7.490000e+01 6.000000e+00 -5.300000e+01
    endloop
  endfacet
  facet normal -1.000000e+00 0.000000e+00 -0.000000e+00
    outer loop
      vertex   -7.490000e+01 6.000000e+00 -5.300000e+01
      vertex   -7.490000e+01 5.900000e+01 -8.190000e+01
      vertex   -7.490000e+01 0.000000e+00 -8.190000e+01
    endloop
  endfacet
  facet normal -1.000000e+00 0.000000e+00 0.000000e+00
    outer loop
      vertex   -7.490000e+01 6.000000e+00 -5.300000e+01
      vertex   -7.490000e+01 0.000000e+00 -8.190000e+01
      vertex   -7.490000e+01 0.000000e+00 -7.210000e+01
    endloop
  endfacet
  facet normal -1.000000e+00 -0.000000e+00 -0.000000e+00
    outer loop
      vertex   -7.490000e+01 0.000000e+00 -7.210000e+01
      vertex   -7.490000e+01 0.000000e+00 -8.190000e+01
      vertex   -7.490000e+01 -3.000000e+00 -7.210000e+01
    endloop
  endfacet
  facet normal -1.000000e+00 0.000000e+00 0.000000e+00
    outer loop
      vertex   -7.490000e+01 -3.000000e+00 -7.210000e+01
      vertex   -7.490000e+01 0.000000e+00 -8.190000e+01
      vertex   -7.490000e+01 -3.000000e+00 -8.190000e+01
    endloop
  endfacet
  facet normal -1.000000e+00 0.000000e+00 0.000000e+00
    outer loop
      vertex   -7.490000e+01 3.450000e+01 -4.000000e+01
      vertex   -7.490000e+01 2.450000e+01 -3.500000e+01
      vertex   -7.490000e+01 3.450000e+01 -3.500000e+01
    endloop
  endfacet
  facet normal -1.000000e+00 0.000000e+00 0.000000e+00
    outer loop
      vertex   -7.490000e+01 3.450000e+01 -3.500000e+01
      vertex   -7.490000e+01 2.450000e+01 -3.500000e+01
      vertex   -7.490000e+01 2.000000e+00 2.200000e+01
    endloop
  endfacet
  facet normal -1.000000e+00 0.000000e+00 0.000000e+00
    outer loop
      vertex   -7.490000e+01 3.450000e+01 -3.500000e+01
      vertex   -7.490000e+01 2.000000e+00 2.200000e+01
      vertex   -7.490000e+01 5.900000e+01 1.790000e+01
    endloop
  endfacet
  facet normal -1.000000e+00 0.000000e+00 0.000000e+00
    outer loop
      vertex   -7.490000e+01 5.900000e+01 1.790000e+01
      vertex   -7.490000e+01 2.000000e+00 2.200000e+01
      vertex   -7.490000e+01 5.900000e+01 2.600000e+01
    endloop
  endfacet
  facet normal -1.000000e+00 -0.000000e+00 0.000000e+00
    outer loop
      vertex   -7.490000e+01 5.900000e+01 2.600000e+01
      vertex   -7.490000e+01 2.000000e+00 2.200000e+01
      vertex   -7.490000e+01 2.000000e+00 2.600000e+01
    endloop
  endfacet
  facet normal -1.000000e+00 -0.000000e+00 -0.000000e+00
    outer loop
      vertex   -7.490000e+01 3.800000e+01 -4.000000e+01
      vertex   -7.490000e+01 5.300000e+01 -4.600000e+01
      vertex   -7.490000e+01 3.450000e+01 -4.000000e+01
    endloop
  endfacet
  facet normal -1.000000e+00 0.000000e+00 -0.000000e+00
    outer loop
      vertex   -7.490000e+01 3.450000e+01 -4.000000e+01
      vertex   -7.490000e+01 5.300000e+01 -4.600000e+01
      vertex   -7.490000e+01 6.000000e+00 -4.600000e+01
    endloop
  endfacet
  facet normal -1.000000e+00 -0.000000e+00 0.000000e+00
    outer loop
      vertex   -7.490000e+01 3.450000e+01 -4.000000e+01
      vertex   -7.490000e+01 6.000000e+00 -4.600000e+01
      vertex   -7.490000e+01 2.450000e+01 -4.000000e+01
    endloop
  endfacet
  facet normal -1.000000e+00 -0.000000e+00 0.000000e+00
    outer loop
      vertex   -7.490000e+01 2.450000e+01 -4.000000e+01
      vertex   -7.490000e+01 6.000000e+00 -4.600000e+01
      vertex   -7.490000e+01 2.100000e+01 -4.000000e+01
    endloop
  endfacet
  facet normal -1.000000e+00 -0.000000e+00 0.000000e+00
    outer loop
      vertex   -7.490000e+01 2.100000e+01 -4.000000e+01
      vertex   -7.490000e+01 6.000000e+00 -4.600000e+01
      vertex   -7.490000e+01 2.100000e+01 -3.500000e+01
    endloop
  endfacet
  facet normal -1.000000e+00 -0.000000e+00 0.000000e+00
    outer loop
      vertex   -7.490000e+01 2.100000e+01 -3.500000e+01
      vertex   -7.490000e+01 6.000000e+00 -4.600000e+01
      vertex   -7.490000e+01 0.000000e+00 -2.710000e+01
    endloop
  endfacet
  facet normal -1.000000e+00 0.000000e+00 0.000000e+00
    outer loop
      vertex   -7.490000e+01 2.100000e+01 -3.500000e+01
      vertex   -7.490000e+01 0.000000e+00 -2.710000e+01
      vertex   -7.490000e+01 0.000000e+00 8.099999e+00
    endloop
  endfacet
  facet normal -1.000000e+00 0.000000e+00 0.000000e+00
    outer loop
      vertex   -7.490000e+01 3.800000e+01 -4.000000e+01
      vertex   -7.490000e+01 3.800000e+01 -3.500000e+01
      vertex   -7.490000e+01 5.300000e+01 -4.600000e+01
    endloop
  endfacet
  facet normal -1.000000e+00 0.000000e+00 0.000000e+00
    outer loop
      vertex   -7.490000e+01 2.450000e+01 -4.000000e+01
      vertex   -7.490000e+01 2.450000e+01 -3.500000e+01
      vertex   -7.490000e+01 3.450000e+01 -4.000000e+01
    endloop
  endfacet
  facet normal -1.000000e+00 0.000000e+00 -0.000000e+00
    outer loop
      vertex   -7.490000e+01 2.000000e+00 2.200000e+01
      vertex   -7.490000e+01 2.450000e+01 -3.500000e+01
      vertex   -7.490000e+01 1.975377e+00 2.168713e+01
    endloop
  endfacet
  facet normal -1.000000e+00 0.000000e+00 0.000000e+00
    outer loop
      vertex   -7.490000e+01 1.975377e+00 2.168713e+01
      vertex   -7.490000e+01 2.450000e+01 -3.500000e+01
      vertex   -7.490000e+01 2.100000e+01 -3.500000e+01
    endloop
  endfacet
  facet normal -1.000000e+00 0.000000e+00 -0.000000e+00
    outer loop
      vertex   -7.490000e+01 1.975377e+00 2.168713e+01
      vertex   -7.490000e+01 2.100000e+01 -3.500000e+01
      vertex   -7.490000e+01 1.902113e+00 2.138197e+01
    endloop
  endfacet
  facet normal -1.000000e+00 0.000000e+00 -0.000000e+00
    outer loop
      vertex   -7.490000e+01 1.902113e+00 2.138197e+01
      vertex   -7.490000e+01 2.100000e+01 -3.500000e+01
      vertex   -7.490000e+01 0.000000e+00 8.099999e+00
    endloop
  endfacet
  facet normal -1.000000e+00 0.000000e+00 0.000000e+00
    outer loop
      vertex   -7.490000e+01 1.902113e+00 2.138197e+01
      vertex   -7.490000e+01 0.000000e+00 8.099999e+00
      vertex   -7.490000e+01 1.782013e+00 2.109202e+01
    endloop
  endfacet
  facet normal -1.000000e+00 0.000000e+00 0.000000e+00
    outer loop
      vertex   -7.490000e+01 1.782013e+00 2.109202e+01
      vertex   -7.490000e+01 0.000000e+00 8.099999e+00
      vertex   -7.490000e+01 1.618034e+00 2.082443e+01
    endloop
  endfacet
  facet normal -1.000000e+00 0.000000e+00 0.000000e+00
    outer loop
      vertex   -7.490000e+01 1.618034e+00 2.082443e+01
      vertex   -7.490000e+01 0.000000e+00 8.099999e+00
      vertex   -7.490000e+01 0.000000e+00 1.790000e+01
    endloop
  endfacet
  facet normal -1.000000e+00 0.000000e+00 0.000000e+00
    outer loop
      vertex   -7.490000e+01 1.618034e+00 2.082443e+01
      vertex   -7.490000e+01 0.000000e+00 1.790000e+01
      vertex   -7.490000e+01 1.414214e+00 2.058579e+01
    endloop
  endfacet
  facet normal -1.000000e+00 0.000000e+00 0.000000e+00
    outer loop
      vertex   -7.490000e+01 1.414214e+00 2.058579e+01
      vertex   -7.490000e+01 0.000000e+00 1.790000e+01
      vertex   -7.490000e+01 1.175571e+00 2.038197e+01
    endloop
  endfacet
  facet normal -1.000000e+00 0.000000e+00 0.000000e+00
    outer loop
      vertex   -7.490000e+01 1.175571e+00 2.038197e+01
      vertex   -7.490000e+01 0.000000e+00 1.790000e+01
      vertex   -7.490000e+01 9.079810e-01 2.021799e+01
    endloop
  endfacet
  facet normal -1.000000e+00 0.000000e+00 0.000000e+00
    outer loop
      vertex   -7.490000e+01 9.079810e-01 2.021799e+01
      vertex   -7.490000e+01 0.000000e+00 1.790000e+01
      vertex   -7.490000e+01 6.180340e-01 2.009789e+01
    endloop
  endfacet
  facet normal -1.000000e+00 0.000000e+00 0.000000e+00
    outer loop
      vertex   -7.490000e+01 6.180340e-01 2.009789e+01
      vertex   -7.490000e+01 0.000000e+00 1.790000e+01
      vertex   -7.490000e+01 3.128689e-01 2.002462e+01
    endloop
  endfacet
  facet normal -1.000000e+00 0.000000e+00 0.000000e+00
    outer loop
      vertex   -7.490000e+01 3.128689e-01 2.002462e+01
      vertex   -7.490000e+01 0.000000e+00 1.790000e+01
      vertex   -7.490000e+01 0.000000e+00 2.000000e+01
    endloop
  endfacet
  facet normal -1.000000e+00 0.000000e+00 0.000000e+00
    outer loop
      vertex   -7.490000e+01 0.000000e+00 -2.710000e+01
      vertex   -7.490000e+01 6.000000e+00 -4.600000e+01
      vertex   -7.490000e+01 0.000000e+00 -3.690000e+01
    endloop
  endfacet
  facet normal -1.000000e+00 0.000000e+00 0.000000e+00
    outer loop
      vertex   -7.490000e+01 0.000000e+00 -3.690000e+01
      vertex   -7.490000e+01 6.000000e+00 -4.600000e+01
      vertex   -7.490000e+01 5.687131e+00 -4.602462e+01
    endloop
  endfacet
  facet normal -1.000000e+00 0.000000e+00 0.000000e+00
    outer loop
      vertex   -7.490000e+01 0.000000e+00 -3.690000e+01
      vertex   -7.490000e+01 5.687131e+00 -4.602462e+01
      vertex   -7.490000e+01 5.381966e+00 -4.609789e+01
    endloop
  endfacet
  facet normal -1.000000e+00 -0.000000e+00 0.000000e+00
    outer loop
      vertex   -7.490000e+01 5.381966e+00 -4.609789e+01
      vertex   -7.490000e+01 5.092019e+00 -4.621799e+01
      vertex   -7.490000e+01 0.000000e+00 -3.690000e+01
    endloop
  endfacet
  facet normal -1.000000e+00 0.000000e+00 0.000000e+00
    outer loop
      vertex   -7.490000e+01 0.000000e+00 -3.690000e+01
      vertex   -7.490000e+01 5.092019e+00 -4.621799e+01
      vertex   -7.490000e+01 4.824429e+00 -4.638197e+01
    endloop
  endfacet
  facet normal -1.000000e+00 0.000000e+00 0.000000e+00
    outer loop
      vertex   -7.490000e+01 0.000000e+00 -3.690000e+01
      vertex   -7.490000e+01 4.824429e+00 -4.638197e+01
      vertex   -7.490000e+01 4.585786e+00 -4.658579e+01
    endloop
  endfacet
  facet normal -1.000000e+00 -0.000000e+00 0.000000e+00
    outer loop
      vertex   -7.490000e+01 4.585786e+00 -4.658579e+01
      vertex   -7.490000e+01 4.381966e+00 -4.682443e+01
      vertex   -7.490000e+01 0.000000e+00 -3.690000e+01
    endloop
  endfacet
  facet normal -1.000000e+00 0.000000e+00 0.000000e+00
    outer loop
      vertex   -7.490000e+01 0.000000e+00 -3.690000e+01
      vertex   -7.490000e+01 4.381966e+00 -4.682443e+01
      vertex   -7.490000e+01 4.217987e+00 -4.709202e+01
    endloop
  endfacet
  facet normal -1.000000e+00 0.000000e+00 0.000000e+00
    outer loop
      vertex   -7.490000e+01 0.000000e+00 -3.690000e+01
      vertex   -7.490000e+01 4.217987e+00 -4.709202e+01
      vertex   -7.490000e+01 4.097887e+00 -4.738197e+01
    endloop
  endfacet
  facet normal -1.000000e+00 -0.000000e+00 0.000000e+00
    outer loop
      vertex   -7.490000e+01 4.097887e+00 -4.738197e+01
      vertex   -7.490000e+01 4.024623e+00 -4.768713e+01
      vertex   -7.490000e+01 0.000000e+00 -3.690000e+01
    endloop
  endfacet
  facet normal -1.000000e+00 0.000000e+00 0.000000e+00
    outer loop
      vertex   -7.490000e+01 0.000000e+00 -3.690000e+01
      vertex   -7.490000e+01 4.024623e+00 -4.768713e+01
      vertex   -7.490000e+01 4.000000e+00 -4.800000e+01
    endloop
  endfacet
  facet normal -1.000000e+00 0.000000e+00 0.000000e+00
    outer loop
      vertex   -7.490000e+01 0.000000e+00 -3.690000e+01
      vertex   -7.490000e+01 4.000000e+00 -4.800000e+01
      vertex   -7.490000e+01 4.000000e+00 -5.100000e+01
    endloop
  endfacet
  facet normal -1.000000e+00 0.000000e+00 0.000000e+00
    outer loop
      vertex   -7.490000e+01 0.000000e+00 -3.690000e+01
      vertex   -7.490000e+01 4.000000e+00 -5.100000e+01
      vertex   -7.490000e+01 0.000000e+00 -7.210000e+01
    endloop
  endfacet
  facet normal -1.000000e+00 0.000000e+00 0.000000e+00
    outer loop
      vertex   -7.490000e+01 0.000000e+00 -7.210000e+01
      vertex   -7.490000e+01 4.000000e+00 -5.100000e+01
      vertex   -7.490000e+01 4.024623e+00 -5.131287e+01
    endloop
  endfacet
  facet normal -1.000000e+00 0.000000e+00 0.000000e+00
    outer loop
      vertex   -7.490000e+01 0.000000e+00 -7.210000e+01
      vertex   -7.490000e+01 4.024623e+00 -5.131287e+01
      vertex   -7.490000e+01 4.097887e+00 -5.161804e+01
    endloop
  endfacet
  facet normal -1.000000e+00 0.000000e+00 -0.000000e+00
    outer loop
      vertex   -7.490000e+01 4.097887e+00 -5.161804e+01
      vertex   -7.490000e+01 4.217987e+00 -5.190798e+01
      vertex   -7.490000e+01 0.000000e+00 -7.210000e+01
    endloop
  endfacet
  facet normal -1.000000e+00 0.000000e+00 0.000000e+00
    outer loop
      vertex   -7.490000e+01 0.000000e+00 -7.210000e+01
      vertex   -7.490000e+01 4.217987e+00 -5.190798e+01
      vertex   -7.490000e+01 4.381966e+00 -5.217557e+01
    endloop
  endfacet
  facet normal -1.000000e+00 0.000000e+00 0.000000e+00
    outer loop
      vertex   -7.490000e+01 0.000000e+00 -7.210000e+01
      vertex   -7.490000e+01 4.381966e+00 -5.217557e+01
      vertex   -7.490000e+01 4.585786e+00 -5.241421e+01
    endloop
  endfacet
  facet normal -1.000000e+00 0.000000e+00 -0.000000e+00
    outer loop
      vertex   -7.490000e+01 4.585786e+00 -5.241421e+01
      vertex   -7.490000e+01 4.824429e+00 -5.261804e+01
      vertex   -7.490000e+01 0.000000e+00 -7.210000e+01
    endloop
  endfacet
  facet normal -1.000000e+00 0.000000e+00 0.000000e+00
    outer loop
      vertex   -7.490000e+01 0.000000e+00 -7.210000e+01
      vertex   -7.490000e+01 4.824429e+00 -5.261804e+01
      vertex   -7.490000e+01 5.092019e+00 -5.278201e+01
    endloop
  endfacet
  facet normal -1.000000e+00 0.000000e+00 0.000000e+00
    outer loop
      vertex   -7.490000e+01 0.000000e+00 -7.210000e+01
      vertex   -7.490000e+01 5.092019e+00 -5.278201e+01
      vertex   -7.490000e+01 5.381966e+00 -5.290211e+01
    endloop
  endfacet
  facet normal -1.000000e+00 0.000000e+00 -0.000000e+00
    outer loop
      vertex   -7.490000e+01 5.381966e+00 -5.290211e+01
      vertex   -7.490000e+01 5.687131e+00 -5.297538e+01
      vertex   -7.490000e+01 0.000000e+00 -7.210000e+01
    endloop
  endfacet
  facet normal -1.000000e+00 0.000000e+00 0.000000e+00
    outer loop
      vertex   -7.490000e+01 0.000000e+00 -7.210000e+01
      vertex   -7.490000e+01 5.687131e+00 -5.297538e+01
      vertex   -7.490000e+01 6.000000e+00 -5.300000e+01
    endloop
  endfacet
  facet normal -1.000000e+00 0.000000e+00 0.000000e+00
    outer loop
      vertex   -7.490000e+01 0.000000e+00 -9.300000e+01
      vertex   -7.490000e+01 0.000000e+00 -8.190000e+01
      vertex   -7.490000e+01 5.900000e+01 -9.300000e+01
    endloop
  endfacet
  facet normal -1.000000e+00 0.000000e+00 0.000000e+00
    outer loop
      vertex   -7.490000e+01 5.900000e+01 -9.300000e+01
      vertex   -7.490000e+01 0.000000e+00 -8.190000e+01
      vertex   -7.490000e+01 5.900000e+01 -8.190000e+01
    endloop
  endfacet
  facet normal -1.000000e+00 0.000000e+00 0.000000e+00
    outer loop
      vertex   -7.490000e+01 -3.000000e+00 -3.690000e+01
      vertex   -7.490000e+01 -3.000000e+00 -2.710000e+01
      vertex   -7.490000e+01 0.000000e+00 -3.690000e+01
    endloop
  endfacet
  facet normal -1.000000e+00 0.000000e+00 0.000000e+00
    outer loop
      vertex   -7.490000e+01 0.000000e+00 -3.690000e+01
      vertex   -7.490000e+01 -3.000000e+00 -2.710000e+01
      vertex   -7.490000e+01 0.000000e+00 -2.710000e+01
    endloop
  endfacet
  facet normal -1.000000e+00 0.000000e+00 0.000000e+00
    outer loop
      vertex   -7.490000e+01 -3.000000e+00 8.099999e+00
      vertex   -7.490000e+01 -3.000000e+00 1.790000e+01
      vertex   -7.490000e+01 0.000000e+00 8.099999e+00
    endloop
  endfacet
  facet normal -1.000000e+00 0.000000e+00 0.000000e+00
    outer loop
      vertex   -7.490000e+01 0.000000e+00 8.099999e+00
      vertex   -7.490000e+01 -3.000000e+00 1.790000e+01
      vertex   -7.490000e+01 0.000000e+00 1.790000e+01
    endloop
  endfacet
  facet normal -1.000000e+00 -0.000000e+00 -0.000000e+00
    outer loop
      vertex   -7.490000e+01 6.200000e+01 1.790000e+01
      vertex   -7.490000e+01 6.200000e+01 8.099999e+00
      vertex   -7.490000e+01 5.900000e+01 1.790000e+01
    endloop
  endfacet
  facet normal -1.000000e+00 0.000000e+00 0.000000e+00
    outer loop
      vertex   -7.490000e+01 5.900000e+01 1.790000e+01
      vertex   -7.490000e+01 6.200000e+01 8.099999e+00
      vertex   -7.490000e+01 5.900000e+01 8.099999e+00
    endloop
  endfacet
  facet normal -1.000000e+00 0.000000e+00 -0.000000e+00
    outer loop
      vertex   -7.490000e+01 5.900000e+01 1.790000e+01
      vertex   -7.490000e+01 5.900000e+01 8.099999e+00
      vertex   -7.490000e+01 3.450000e+01 -3.500000e+01
    endloop
  endfacet
  facet normal -1.000000e+00 -0.000000e+00 -0.000000e+00
    outer loop
      vertex   -7.490000e+01 6.200000e+01 -2.710000e+01
      vertex   -7.490000e+01 6.200000e+01 -3.690000e+01
      vertex   -7.490000e+01 5.900000e+01 -2.710000e+01
    endloop
  endfacet
  facet normal -1.000000e+00 0.000000e+00 0.000000e+00
    outer loop
      vertex   -7.490000e+01 5.900000e+01 -2.710000e+01
      vertex   -7.490000e+01 6.200000e+01 -3.690000e+01
      vertex   -7.490000e+01 5.900000e+01 -3.690000e+01
    endloop
  endfacet
  facet normal -1.000000e+00 -0.000000e+00 -0.000000e+00
    outer loop
      vertex   -7.490000e+01 6.200000e+01 -7.210000e+01
      vertex   -7.490000e+01 6.200000e+01 -8.190000e+01
      vertex   -7.490000e+01 5.900000e+01 -7.210000e+01
    endloop
  endfacet
  facet normal -1.000000e+00 0.000000e+00 0.000000e+00
    outer loop
      vertex   -7.490000e+01 5.900000e+01 -7.210000e+01
      vertex   -7.490000e+01 6.200000e+01 -8.190000e+01
      vertex   -7.490000e+01 5.900000e+01 -8.190000e+01
    endloop
  endfacet
  facet normal 0.000000e+00 -1.000000e+00 0.000000e+00
    outer loop
      vertex   -7.490000e+01 -3.000000e+00 8.099999e+00
      vertex   -7.310000e+01 -3.000000e+00 8.099999e+00
      vertex   -7.490000e+01 -3.000000e+00 1.790000e+01
    endloop
  endfacet
  facet normal 0.000000e+00 -1.000000e+00 0.000000e+00
    outer loop
      vertex   -7.490000e+01 -3.000000e+00 1.790000e+01
      vertex   -7.310000e+01 -3.000000e+00 8.099999e+00
      vertex   -7.310000e+01 -3.000000e+00 1.790000e+01
    endloop
  endfacet
  facet normal 0.000000e+00 -1.000000e+00 0.000000e+00
    outer loop
      vertex   -7.490000e+01 -3.000000e+00 -3.690000e+01
      vertex   -7.310000e+01 -3.000000e+00 -3.690000e+01
      vertex   -7.490000e+01 -3.000000e+00 -2.710000e+01
    endloop
  endfacet
  facet normal 0.000000e+00 -1.000000e+00 0.000000e+00
    outer loop
      vertex   -7.490000e+01 -3.000000e+00 -2.710000e+01
      vertex   -7.310000e+01 -3.000000e+00 -3.690000e+01
      vertex   -7.310000e+01 -3.000000e+00 -2.710000e+01
    endloop
  endfacet
  facet normal 0.000000e+00 1.000000e+00 0.000000e+00
    outer loop
      vertex   -7.310000e+01 5.900000e+01 -8.190000e+01
      vertex   -7.310000e+01 5.900000e+01 -9.300000e+01
      vertex   -7.490000e+01 5.900000e+01 -8.190000e+01
    endloop
  endfacet
  facet normal 0.000000e+00 1.000000e+00 0.000000e+00
    outer loop
      vertex   -7.490000e+01 5.900000e+01 -8.190000e+01
      vertex   -7.310000e+01 5.900000e+01 -9.300000e+01
      vertex   -7.490000e+01 5.900000e+01 -9.300000e+01
    endloop
  endfacet
  facet normal 0.000000e+00 1.000000e+00 -0.000000e+00
    outer loop
      vertex   -7.310000e+01 5.900000e+01 -7.210000e+01
      vertex   -7.490000e+01 5.900000e+01 -7.210000e+01
      vertex   -7.310000e+01 5.900000e+01 -3.690000e+01
    endloop
  endfacet
  facet normal 0.000000e+00 1.000000e+00 0.000000e+00
    outer loop
      vertex   -7.310000e+01 5.900000e+01 -3.690000e+01
      vertex   -7.490000e+01 5.900000e+01 -7.210000e+01
      vertex   -7.490000e+01 5.900000e+01 -3.690000e+01
    endloop
  endfacet
  facet normal 0.000000e+00 1.000000e+00 -0.000000e+00
    outer loop
      vertex   -7.310000e+01 5.900000e+01 -2.710000e+01
      vertex   -7.490000e+01 5.900000e+01 -2.710000e+01
      vertex   -7.310000e+01 5.900000e+01 8.099999e+00
    endloop
  endfacet
  facet normal 0.000000e+00 1.000000e+00 0.000000e+00
    outer loop
      vertex   -7.310000e+01 5.900000e+01 8.099999e+00
      vertex   -7.490000e+01 5.900000e+01 -2.710000e+01
      vertex   -7.490000e+01 5.900000e+01 8.099999e+00
    endloop
  endfacet
  facet normal 0.000000e+00 1.000000e+00 -0.000000e+00
    outer loop
      vertex   -7.310000e+01 5.900000e+01 1.790000e+01
      vertex   -7.490000e+01 5.900000e+01 1.790000e+01
      vertex   -7.310000e+01 5.900000e+01 2.600000e+01
    endloop
  endfacet
  facet normal 0.000000e+00 1.000000e+00 0.000000e+00
    outer loop
      vertex   -7.310000e+01 5.900000e+01 2.600000e+01
      vertex   -7.490000e+01 5.900000e+01 1.790000e+01
      vertex   -7.490000e+01 5.900000e+01 2.600000e+01
    endloop
  endfacet
  facet normal 0.000000e+00 0.000000e+00 -1.000000e+00
    outer loop
      vertex   -7.490000e+01 6.200000e+01 8.099999e+00
      vertex   -7.310000e+01 6.200000e+01 8.099999e+00
      vertex   -7.490000e+01 5.900000e+01 8.099999e+00
    endloop
  endfacet
  facet normal 0.000000e+00 0.000000e+00 -1.000000e+00
    outer loop
      vertex   -7.490000e+01 5.900000e+01 8.099999e+00
      vertex   -7.310000e+01 6.200000e+01 8.099999e+00
      vertex   -7.310000e+01 5.900000e+01 8.099999e+00
    endloop
  endfacet
  facet normal 0.000000e+00 0.000000e+00 1.000000e+00
    outer loop
      vertex   -7.310000e+01 6.200000e+01 1.790000e+01
      vertex   -7.490000e+01 6.200000e+01 1.790000e+01
      vertex   -7.310000e+01 5.900000e+01 1.790000e+01
    endloop
  endfacet
  facet normal 0.000000e+00 0.000000e+00 1.000000e+00
    outer loop
      vertex   -7.310000e+01 5.900000e+01 1.790000e+01
      vertex   -7.490000e+01 6.200000e+01 1.790000e+01
      vertex   -7.490000e+01 5.900000e+01 1.790000e+01
    endloop
  endfacet
  facet normal 0.000000e+00 0.000000e+00 -1.000000e+00
    outer loop
      vertex   -7.490000e+01 6.200000e+01 -3.690000e+01
      vertex   -7.310000e+01 6.200000e+01 -3.690000e+01
      vertex   -7.490000e+01 5.900000e+01 -3.690000e+01
    endloop
  endfacet
  facet normal 0.000000e+00 0.000000e+00 -1.000000e+00
    outer loop
      vertex   -7.490000e+01 5.900000e+01 -3.690000e+01
      vertex   -7.310000e+01 6.200000e+01 -3.690000e+01
      vertex   -7.310000e+01 5.900000e+01 -3.690000e+01
    endloop
  endfacet
  facet normal 0.000000e+00 0.000000e+00 1.000000e+00
    outer loop
      vertex   -7.310000e+01 6.200000e+01 -2.710000e+01
      vertex   -7.490000e+01 6.200000e+01 -2.710000e+01
      vertex   -7.310000e+01 5.900000e+01 -2.710000e+01
    endloop
  endfacet
  facet normal 0.000000e+00 0.000000e+00 1.000000e+00
    outer loop
      vertex   -7.310000e+01 5.900000e+01 -2.710000e+01
      vertex   -7.490000e+01 6.200000e+01 -2.710000e+01
      vertex   -7.490000e+01 5.900000e+01 -2.710000e+01
    endloop
  endfacet
  facet normal 0.000000e+00 0.000000e+00 -1.000000e+00
    outer loop
      vertex   -7.490000e+01 6.200000e+01 -8.190000e+01
      vertex   -7.310000e+01 6.200000e+01 -8.190000e+01
      vertex   -7.490000e+01 5.900000e+01 -8.190000e+01
    endloop
  endfacet
  facet normal 0.000000e+00 0.000000e+00 -1.000000e+00
    outer loop
      vertex   -7.490000e+01 5.900000e+01 -8.190000e+01
      vertex   -7.310000e+01 6.200000e+01 -8.190000e+01
      vertex   -7.310000e+01 5.900000e+01 -8.190000e+01
    endloop
  endfacet
  facet normal 0.000000e+00 0.000000e+00 1.000000e+00
    outer loop
      vertex   -7.310000e+01 6.200000e+01 -7.210000e+01
      vertex   -7.490000e+01 6.200000e+01 -7.210000e+01
      vertex   -7.310000e+01 5.900000e+01 -7.210000e+01
    endloop
  endfacet
  facet normal 0.000000e+00 0.000000e+00 1.000000e+00
    outer loop
      vertex   -7.310000e+01 5.900000e+01 -7.210000e+01
      vertex   -7.490000e+01 6.200000e+01 -7.210000e+01
      vertex   -7.490000e+01 5.900000e+01 -7.210000e+01
    endloop
  endfacet
  facet normal 0.000000e+00 0.000000e+00 1.000000e+00
    outer loop
      vertex   -7.490000e+01 2.000000e+00 2.600000e+01
      vertex   -7.310000e+01 2.000000e+00 2.600000e+01
      vertex   -7.490000e+01 5.900000e+01 2.600000e+01
    endloop
  endfacet
  facet normal -0.000000e+00 0.000000e+00 1.000000e+00
    outer loop
      vertex   -7.490000e+01 5.900000e+01 2.600000e+01
      vertex   -7.310000e+01 2.000000e+00 2.600000e+01
      vertex   -7.310000e+01 5.900000e+01 2.600000e+01
    endloop
  endfacet
  facet normal 0.000000e+00 1.000000e+00 0.000000e+00
    outer loop
      vertex   -7.490000e+01 6.200000e+01 -8.190000e+01
      vertex   -7.490000e+01 6.200000e+01 -7.210000e+01
      vertex   -7.310000e+01 6.200000e+01 -8.190000e+01
    endloop
  endfacet
  facet normal 0.000000e+00 1.000000e+00 -0.000000e+00
    outer loop
      vertex   -7.310000e+01 6.200000e+01 -8.190000e+01
      vertex   -7.490000e+01 6.200000e+01 -7.210000e+01
      vertex   -7.310000e+01 6.200000e+01 -7.210000e+01
    endloop
  endfacet
  facet normal 0.000000e+00 1.000000e+00 0.000000e+00
    outer loop
      vertex   -7.310000e+01 6.200000e+01 -2.710000e+01
      vertex   -7.310000e+01 6.200000e+01 -3.690000e+01
      vertex   -7.490000e+01 6.200000e+01 -2.710000e+01
    endloop
  endfacet
  facet normal 0.000000e+00 1.000000e+00 0.000000e+00
    outer loop
      vertex   -7.490000e+01 6.200000e+01 -2.710000e+01
      vertex   -7.310000e+01 6.200000e+01 -3.690000e+01
      vertex   -7.490000e+01 6.200000e+01 -3.690000e+01
    endloop
  endfacet
  facet normal 1.000000e+00 0.000000e+00 -0.000000e+00
    outer loop
      vertex   -7.310000e+01 3.800000e+01 -3.500000e+01
      vertex   -7.310000e+01 5.900000e+01 8.099999e+00
      vertex   -7.310000e+01 3.450000e+01 -3.500000e+01
    endloop
  endfacet
  facet normal 1.000000e+00 0.000000e+00 0.000000e+00
    outer loop
      vertex   -7.310000e+01 3.450000e+01 -3.500000e+01
      vertex   -7.310000e+01 5.900000e+01 8.099999e+00
      vertex   -7.310000e+01 5.900000e+01 1.790000e+01
    endloop
  endfacet
  facet normal 1.000000e+00 0.000000e+00 -0.000000e+00
    outer loop
      vertex   -7.310000e+01 3.450000e+01 -3.500000e+01
      vertex   -7.310000e+01 5.900000e+01 1.790000e+01
      vertex   -7.310000e+01 2.000000e+00 2.200000e+01
    endloop
  endfacet
  facet normal 1.000000e+00 -0.000000e+00 0.000000e+00
    outer loop
      vertex   -7.310000e+01 2.000000e+00 2.200000e+01
      vertex   -7.310000e+01 5.900000e+01 1.790000e+01
      vertex   -7.310000e+01 5.900000e+01 2.600000e+01
    endloop
  endfacet
  facet normal 1.000000e+00 -2.493132e-16 3.552714e-15
    outer loop
      vertex   -7.310000e+01 2.000000e+00 2.200000e+01
      vertex   -7.310000e+01 5.900000e+01 2.600000e+01
      vertex   -7.310000e+01 2.000000e+00 2.600000e+01
    endloop
  endfacet
  facet normal 1.000000e+00 -0.000000e+00 0.000000e+00
    outer loop
      vertex   -7.310000e+01 3.800000e+01 -4.000000e+01
      vertex   -7.310000e+01 5.300000e+01 -4.600000e+01
      vertex   -7.310000e+01 3.800000e+01 -3.500000e+01
    endloop
  endfacet
  facet normal 1.000000e+00 -0.000000e+00 0.000000e+00
    outer loop
      vertex   -7.310000e+01 3.800000e+01 -3.500000e+01
      vertex   -7.310000e+01 5.300000e+01 -4.600000e+01
      vertex   -7.310000e+01 5.900000e+01 -2.710000e+01
    endloop
  endfacet
  facet normal 1.000000e+00 0.000000e+00 0.000000e+00
    outer loop
      vertex   -7.310000e+01 3.800000e+01 -3.500000e+01
      vertex   -7.310000e+01 5.900000e+01 -2.710000e+01
      vertex   -7.310000e+01 5.900000e+01 8.099999e+00
    endloop
  endfacet
  facet normal 1.000000e+00 0.000000e+00 0.000000e+00
    outer loop
      vertex   -7.310000e+01 3.800000e+01 -4.000000e+01
      vertex   -7.310000e+01 3.450000e+01 -4.000000e+01
      vertex   -7.310000e+01 5.300000e+01 -4.600000e+01
    endloop
  endfacet
  facet normal 1.000000e+00 0.000000e+00 0.000000e+00
    outer loop
      vertex   -7.310000e+01 5.300000e+01 -4.600000e+01
      vertex   -7.310000e+01 3.450000e+01 -4.000000e+01
      vertex   -7.310000e+01 6.000000e+00 -4.600000e+01
    endloop
  endfacet
  facet normal 1.000000e+00 0.000000e+00 0.000000e+00
    outer loop
      vertex   -7.310000e+01 6.000000e+00 -4.600000e+01
      vertex   -7.310000e+01 3.450000e+01 -4.000000e+01
      vertex   -7.310000e+01 2.450000e+01 -4.000000e+01
    endloop
  endfacet
  facet normal 1.000000e+00 0.000000e+00 0.000000e+00
    outer loop
      vertex   -7.310000e+01 6.000000e+00 -4.600000e+01
      vertex   -7.310000e+01 2.450000e+01 -4.000000e+01
      vertex   -7.310000e+01 2.100000e+01 -4.000000e+01
    endloop
  endfacet
  facet normal 1.000000e+00 0.000000e+00 -0.000000e+00
    outer loop
      vertex   -7.310000e+01 3.450000e+01 -4.000000e+01
      vertex   -7.310000e+01 3.450000e+01 -3.500000e+01
      vertex   -7.310000e+01 2.450000e+01 -4.000000e+01
    endloop
  endfacet
  facet normal 1.000000e+00 0.000000e+00 0.000000e+00
    outer loop
      vertex   -7.310000e+01 2.450000e+01 -4.000000e+01
      vertex   -7.310000e+01 3.450000e+01 -3.500000e+01
      vertex   -7.310000e+01 2.450000e+01 -3.500000e+01
    endloop
  endfacet
  facet normal 1.000000e+00 -0.000000e+00 -0.000000e+00
    outer loop
      vertex   -7.310000e+01 2.450000e+01 -3.500000e+01
      vertex   -7.310000e+01 3.450000e+01 -3.500000e+01
      vertex   -7.310000e+01 2.000000e+00 2.200000e+01
    endloop
  endfacet
  facet normal 1.000000e+00 0.000000e+00 0.000000e+00
    outer loop
      vertex   -7.310000e+01 2.450000e+01 -3.500000e+01
      vertex   -7.310000e+01 2.000000e+00 2.200000e+01
      vertex   -7.310000e+01 1.975377e+00 2.168713e+01
    endloop
  endfacet
  facet normal 1.000000e+00 0.000000e+00 -0.000000e+00
    outer loop
      vertex   -7.310000e+01 2.100000e+01 -4.000000e+01
      vertex   -7.310000e+01 2.100000e+01 -3.500000e+01
      vertex   -7.310000e+01 6.000000e+00 -4.600000e+01
    endloop
  endfacet
  facet normal 1.000000e+00 0.000000e+00 -0.000000e+00
    outer loop
      vertex   -7.310000e+01 6.000000e+00 -4.600000e+01
      vertex   -7.310000e+01 2.100000e+01 -3.500000e+01
      vertex   -7.310000e+01 0.000000e+00 -2.710000e+01
    endloop
  endfacet
  facet normal 1.000000e+00 0.000000e+00 0.000000e+00
    outer loop
      vertex   -7.310000e+01 6.000000e+00 -4.600000e+01
      vertex   -7.310000e+01 0.000000e+00 -2.710000e+01
      vertex   -7.310000e+01 0.000000e+00 -3.690000e+01
    endloop
  endfacet
  facet normal 1.000000e+00 0.000000e+00 -0.000000e+00
    outer loop
      vertex   -7.310000e+01 0.000000e+00 -3.690000e+01
      vertex   -7.310000e+01 0.000000e+00 -2.710000e+01
      vertex   -7.310000e+01 -3.000000e+00 -3.690000e+01
    endloop
  endfacet
  facet normal 1.000000e+00 0.000000e+00 0.000000e+00
    outer loop
      vertex   -7.310000e+01 -3.000000e+00 -3.690000e+01
      vertex   -7.310000e+01 0.000000e+00 -2.710000e+01
      vertex   -7.310000e+01 -3.000000e+00 -2.710000e+01
    endloop
  endfacet
  facet normal 1.000000e+00 0.000000e+00 0.000000e+00
    outer loop
      vertex   -7.310000e+01 2.450000e+01 -3.500000e+01
      vertex   -7.310000e+01 1.975377e+00 2.168713e+01
      vertex   -7.310000e+01 2.100000e+01 -3.500000e+01
    endloop
  endfacet
  facet normal 1.000000e+00 0.000000e+00 0.000000e+00
    outer loop
      vertex   -7.310000e+01 2.100000e+01 -3.500000e+01
      vertex   -7.310000e+01 1.975377e+00 2.168713e+01
      vertex   -7.310000e+01 1.902113e+00 2.138197e+01
    endloop
  endfacet
  facet normal 1.000000e+00 0.000000e+00 0.000000e+00
    outer loop
      vertex   -7.310000e+01 2.100000e+01 -3.500000e+01
      vertex   -7.310000e+01 1.902113e+00 2.138197e+01
      vertex   -7.310000e+01 0.000000e+00 8.099999e+00
    endloop
  endfacet
  facet normal 1.000000e+00 0.000000e+00 0.000000e+00
    outer loop
      vertex   -7.310000e+01 0.000000e+00 8.099999e+00
      vertex   -7.310000e+01 1.902113e+00 2.138197e+01
      vertex   -7.310000e+01 1.782013e+00 2.109202e+01
    endloop
  endfacet
  facet normal 1.000000e+00 0.000000e+00 0.000000e+00
    outer loop
      vertex   -7.310000e+01 0.000000e+00 8.099999e+00
      vertex   -7.310000e+01 1.782013e+00 2.109202e+01
      vertex   -7.310000e+01 1.618034e+00 2.082443e+01
    endloop
  endfacet
  facet normal 1.000000e+00 0.000000e+00 0.000000e+00
    outer loop
      vertex   -7.310000e+01 5.900000e+01 -2.710000e+01
      vertex   -7.310000e+01 5.300000e+01 -4.600000e+01
      vertex   -7.310000e+01 5.900000e+01 -3.690000e+01
    endloop
  endfacet
  facet normal 1.000000e+00 0.000000e+00 0.000000e+00
    outer loop
      vertex   -7.310000e+01 5.900000e+01 -3.690000e+01
      vertex   -7.310000e+01 5.300000e+01 -4.600000e+01
      vertex   -7.310000e+01 5.331287e+01 -4.602462e+01
    endloop
  endfacet
  facet normal 1.000000e+00 0.000000e+00 0.000000e+00
    outer loop
      vertex   -7.310000e+01 5.900000e+01 -3.690000e+01
      vertex   -7.310000e+01 5.331287e+01 -4.602462e+01
      vertex   -7.310000e+01 5.361803e+01 -4.609789e+01
    endloop
  endfacet
  facet normal 1.000000e+00 -0.000000e+00 0.000000e+00
    outer loop
      vertex   -7.310000e+01 5.361803e+01 -4.609789e+01
      vertex   -7.310000e+01 5.390798e+01 -4.621799e+01
      vertex   -7.310000e+01 5.900000e+01 -3.690000e+01
    endloop
  endfacet
  facet normal 1.000000e+00 0.000000e+00 0.000000e+00
    outer loop
      vertex   -7.310000e+01 5.900000e+01 -3.690000e+01
      vertex   -7.310000e+01 5.390798e+01 -4.621799e+01
      vertex   -7.310000e+01 5.417557e+01 -4.638197e+01
    endloop
  endfacet
  facet normal 1.000000e+00 0.000000e+00 0.000000e+00
    outer loop
      vertex   -7.310000e+01 5.900000e+01 -3.690000e+01
      vertex   -7.310000e+01 5.417557e+01 -4.638197e+01
      vertex   -7.310000e+01 5.441421e+01 -4.658579e+01
    endloop
  endfacet
  facet normal 1.000000e+00 -0.000000e+00 0.000000e+00
    outer loop
      vertex   -7.310000e+01 5.441421e+01 -4.658579e+01
      vertex   -7.310000e+01 5.461803e+01 -4.682443e+01
      vertex   -7.310000e+01 5.900000e+01 -3.690000e+01
    endloop
  endfacet
  facet normal 1.000000e+00 0.000000e+00 0.000000e+00
    outer loop
      vertex   -7.310000e+01 5.900000e+01 -3.690000e+01
      vertex   -7.310000e+01 5.461803e+01 -4.682443e+01
      vertex   -7.310000e+01 5.478201e+01 -4.709202e+01
    endloop
  endfacet
  facet normal 1.000000e+00 0.000000e+00 0.000000e+00
    outer loop
      vertex   -7.310000e+01 5.900000e+01 -3.690000e+01
      vertex   -7.310000e+01 5.478201e+01 -4.709202e+01
      vertex   -7.310000e+01 5.490211e+01 -4.738197e+01
    endloop
  endfacet
  facet normal 1.000000e+00 -0.000000e+00 0.000000e+00
    outer loop
      vertex   -7.310000e+01 5.490211e+01 -4.738197e+01
      vertex   -7.310000e+01 5.497538e+01 -4.768713e+01
      vertex   -7.310000e+01 5.900000e+01 -3.690000e+01
    endloop
  endfacet
  facet normal 1.000000e+00 0.000000e+00 0.000000e+00
    outer loop
      vertex   -7.310000e+01 5.900000e+01 -3.690000e+01
      vertex   -7.310000e+01 5.497538e+01 -4.768713e+01
      vertex   -7.310000e+01 5.500000e+01 -4.800000e+01
    endloop
  endfacet
  facet normal 1.000000e+00 0.000000e+00 0.000000e+00
    outer loop
      vertex   -7.310000e+01 5.900000e+01 -3.690000e+01
      vertex   -7.310000e+01 5.500000e+01 -4.800000e+01
      vertex   -7.310000e+01 5.500000e+01 -5.100000e+01
    endloop
  endfacet
  facet normal 1.000000e+00 0.000000e+00 0.000000e+00
    outer loop
      vertex   -7.310000e+01 5.900000e+01 -3.690000e+01
      vertex   -7.310000e+01 5.500000e+01 -5.100000e+01
      vertex   -7.310000e+01 5.900000e+01 -7.210000e+01
    endloop
  endfacet
  facet normal 1.000000e+00 0.000000e+00 0.000000e+00
    outer loop
      vertex   -7.310000e+01 5.900000e+01 -7.210000e+01
      vertex   -7.310000e+01 5.500000e+01 -5.100000e+01
      vertex   -7.310000e+01 5.497538e+01 -5.131287e+01
    endloop
  endfacet
  facet normal 1.000000e+00 0.000000e+00 0.000000e+00
    outer loop
      vertex   -7.310000e+01 5.900000e+01 -7.210000e+01
      vertex   -7.310000e+01 5.497538e+01 -5.131287e+01
      vertex   -7.310000e+01 5.490211e+01 -5.161804e+01
    endloop
  endfacet
  facet normal 1.000000e+00 0.000000e+00 0.000000e+00
    outer loop
      vertex   -7.310000e+01 5.490211e+01 -5.161804e+01
      vertex   -7.310000e+01 5.478201e+01 -5.190798e+01
      vertex   -7.310000e+01 5.900000e+01 -7.210000e+01
    endloop
  endfacet
  facet normal 1.000000e+00 0.000000e+00 0.000000e+00
    outer loop
      vertex   -7.310000e+01 5.900000e+01 -7.210000e+01
      vertex   -7.310000e+01 5.478201e+01 -5.190798e+01
      vertex   -7.310000e+01 5.461803e+01 -5.217557e+01
    endloop
  endfacet
  facet normal 1.000000e+00 0.000000e+00 0.000000e+00
    outer loop
      vertex   -7.310000e+01 5.900000e+01 -7.210000e+01
      vertex   -7.310000e+01 5.461803e+01 -5.217557e+01
      vertex   -7.310000e+01 5.441421e+01 -5.241421e+01
    endloop
  endfacet
  facet normal 1.000000e+00 0.000000e+00 0.000000e+00
    outer loop
      vertex   -7.310000e+01 5.441421e+01 -5.241421e+01
      vertex   -7.310000e+01 5.417557e+01 -5.261804e+01
      vertex   -7.310000e+01 5.900000e+01 -7.210000e+01
    endloop
  endfacet
  facet normal 1.000000e+00 0.000000e+00 0.000000e+00
    outer loop
      vertex   -7.310000e+01 5.900000e+01 -7.210000e+01
      vertex   -7.310000e+01 5.417557e+01 -5.261804e+01
      vertex   -7.310000e+01 5.390798e+01 -5.278201e+01
    endloop
  endfacet
  facet normal 1.000000e+00 0.000000e+00 0.000000e+00
    outer loop
      vertex   -7.310000e+01 5.900000e+01 -7.210000e+01
      vertex   -7.310000e+01 5.390798e+01 -5.278201e+01
      vertex   -7.310000e+01 5.361803e+01 -5.290211e+01
    endloop
  endfacet
  facet normal 1.000000e+00 0.000000e+00 0.000000e+00
    outer loop
      vertex   -7.310000e+01 5.361803e+01 -5.290211e+01
      vertex   -7.310000e+01 5.331287e+01 -5.297538e+01
      vertex   -7.310000e+01 5.900000e+01 -7.210000e+01
    endloop
  endfacet
  facet normal 1.000000e+00 0.000000e+00 0.000000e+00
    outer loop
      vertex   -7.310000e+01 5.900000e+01 -7.210000e+01
      vertex   -7.310000e+01 5.331287e+01 -5.297538e+01
      vertex   -7.310000e+01 5.300000e+01 -5.300000e+01
    endloop
  endfacet
  facet normal 1.000000e+00 0.000000e+00 0.000000e+00
    outer loop
      vertex   -7.310000e+01 5.900000e+01 -7.210000e+01
      vertex   -7.310000e+01 5.300000e+01 -5.300000e+01
      vertex   -7.310000e+01 5.900000e+01 -8.190000e+01
    endloop
  endfacet
  facet normal 1.000000e+00 0.000000e+00 0.000000e+00
    outer loop
      vertex   -7.310000e+01 5.900000e+01 -8.190000e+01
      vertex   -7.310000e+01 5.300000e+01 -5.300000e+01
      vertex   -7.310000e+01 6.000000e+00 -5.300000e+01
    endloop
  endfacet
  facet normal 1.000000e+00 0.000000e+00 0.000000e+00
    outer loop
      vertex   -7.310000e+01 5.900000e+01 -8.190000e+01
      vertex   -7.310000e+01 6.000000e+00 -5.300000e+01
      vertex   -7.310000e+01 0.000000e+00 -8.190000e+01
    endloop
  endfacet
  facet normal 1.000000e+00 0.000000e+00 0.000000e+00
    outer loop
      vertex   -7.310000e+01 0.000000e+00 -8.190000e+01
      vertex   -7.310000e+01 6.000000e+00 -5.300000e+01
      vertex   -7.310000e+01 0.000000e+00 -7.210000e+01
    endloop
  endfacet
  facet normal 1.000000e+00 0.000000e+00 -0.000000e+00
    outer loop
      vertex   -7.310000e+01 0.000000e+00 -8.190000e+01
      vertex   -7.310000e+01 0.000000e+00 -7.210000e+01
      vertex   -7.310000e+01 -3.000000e+00 -8.190000e+01
    endloop
  endfacet
  facet normal 1.000000e+00 0.000000e+00 0.000000e+00
    outer loop
      vertex   -7.310000e+01 -3.000000e+00 -8.190000e+01
      vertex   -7.310000e+01 0.000000e+00 -7.210000e+01
      vertex   -7.310000e+01 -3.000000e+00 -7.210000e+01
    endloop
  endfacet
  facet normal 1.000000e+00 0.000000e+00 0.000000e+00
    outer loop
      vertex   -7.310000e+01 6.000000e+00 -5.300000e+01
      vertex   -7.310000e+01 5.687131e+00 -5.297538e+01
      vertex   -7.310000e+01 0.000000e+00 -7.210000e+01
    endloop
  endfacet
  facet normal 1.000000e+00 0.000000e+00 0.000000e+00
    outer loop
      vertex   -7.310000e+01 0.000000e+00 -7.210000e+01
      vertex   -7.310000e+01 5.687131e+00 -5.297538e+01
      vertex   -7.310000e+01 5.381966e+00 -5.290211e+01
    endloop
  endfacet
  facet normal 1.000000e+00 0.000000e+00 0.000000e+00
    outer loop
      vertex   -7.310000e+01 0.000000e+00 -7.210000e+01
      vertex   -7.310000e+01 5.381966e+00 -5.290211e+01
      vertex   -7.310000e+01 5.092019e+00 -5.278201e+01
    endloop
  endfacet
  facet normal 1.000000e+00 0.000000e+00 0.000000e+00
    outer loop
      vertex   -7.310000e+01 5.092019e+00 -5.278201e+01
      vertex   -7.310000e+01 4.824429e+00 -5.261804e+01
      vertex   -7.310000e+01 0.000000e+00 -7.210000e+01
    endloop
  endfacet
  facet normal 1.000000e+00 0.000000e+00 0.000000e+00
    outer loop
      vertex   -7.310000e+01 0.000000e+00 -7.210000e+01
      vertex   -7.310000e+01 4.824429e+00 -5.261804e+01
      vertex   -7.310000e+01 4.585786e+00 -5.241421e+01
    endloop
  endfacet
  facet normal 1.000000e+00 0.000000e+00 0.000000e+00
    outer loop
      vertex   -7.310000e+01 0.000000e+00 -7.210000e+01
      vertex   -7.310000e+01 4.585786e+00 -5.241421e+01
      vertex   -7.310000e+01 4.381966e+00 -5.217557e+01
    endloop
  endfacet
  facet normal 1.000000e+00 0.000000e+00 0.000000e+00
    outer loop
      vertex   -7.310000e+01 4.381966e+00 -5.217557e+01
      vertex   -7.310000e+01 4.217987e+00 -5.190798e+01
      vertex   -7.310000e+01 0.000000e+00 -7.210000e+01
    endloop
  endfacet
  facet normal 1.000000e+00 0.000000e+00 0.000000e+00
    outer loop
      vertex   -7.310000e+01 0.000000e+00 -7.210000e+01
      vertex   -7.310000e+01 4.217987e+00 -5.190798e+01
      vertex   -7.310000e+01 4.097887e+00 -5.161804e+01
    endloop
  endfacet
  facet normal 1.000000e+00 0.000000e+00 0.000000e+00
    outer loop
      vertex   -7.310000e+01 0.000000e+00 -7.210000e+01
      vertex   -7.310000e+01 4.097887e+00 -5.161804e+01
      vertex   -7.310000e+01 4.024623e+00 -5.131287e+01
    endloop
  endfacet
  facet normal 1.000000e+00 0.000000e+00 0.000000e+00
    outer loop
      vertex   -7.310000e+01 4.024623e+00 -5.131287e+01
      vertex   -7.310000e+01 4.000000e+00 -5.100000e+01
      vertex   -7.310000e+01 0.000000e+00 -7.210000e+01
    endloop
  endfacet
  facet normal 1.000000e+00 0.000000e+00 0.000000e+00
    outer loop
      vertex   -7.310000e+01 0.000000e+00 -7.210000e+01
      vertex   -7.310000e+01 4.000000e+00 -5.100000e+01
      vertex   -7.310000e+01 0.000000e+00 -3.690000e+01
    endloop
  endfacet
  facet normal 1.000000e+00 0.000000e+00 0.000000e+00
    outer loop
      vertex   -7.310000e+01 0.000000e+00 -3.690000e+01
      vertex   -7.310000e+01 4.000000e+00 -5.100000e+01
      vertex   -7.310000e+01 4.000000e+00 -4.800000e+01
    endloop
  endfacet
  facet normal 1.000000e+00 0.000000e+00 0.000000e+00
    outer loop
      vertex   -7.310000e+01 0.000000e+00 -3.690000e+01
      vertex   -7.310000e+01 4.000000e+00 -4.800000e+01
      vertex   -7.310000e+01 4.024623e+00 -4.768713e+01
    endloop
  endfacet
  facet normal 1.000000e+00 0.000000e+00 -0.000000e+00
    outer loop
      vertex   -7.310000e+01 4.024623e+00 -4.768713e+01
      vertex   -7.310000e+01 4.097887e+00 -4.738197e+01
      vertex   -7.310000e+01 0.000000e+00 -3.690000e+01
    endloop
  endfacet
  facet normal 1.000000e+00 0.000000e+00 0.000000e+00
    outer loop
      vertex   -7.310000e+01 0.000000e+00 -3.690000e+01
      vertex   -7.310000e+01 4.097887e+00 -4.738197e+01
      vertex   -7.310000e+01 4.217987e+00 -4.709202e+01
    endloop
  endfacet
  facet normal 1.000000e+00 0.000000e+00 0.000000e+00
    outer loop
      vertex   -7.310000e+01 0.000000e+00 -3.690000e+01
      vertex   -7.310000e+01 4.217987e+00 -4.709202e+01
      vertex   -7.310000e+01 4.381966e+00 -4.682443e+01
    endloop
  endfacet
  facet normal 1.000000e+00 0.000000e+00 -0.000000e+00
    outer loop
      vertex   -7.310000e+01 4.381966e+00 -4.682443e+01
      vertex   -7.310000e+01 4.585786e+00 -4.658579e+01
      vertex   -7.310000e+01 0.000000e+00 -3.690000e+01
    endloop
  endfacet
  facet normal 1.000000e+00 0.000000e+00 0.000000e+00
    outer loop
      vertex   -7.310000e+01 0.000000e+00 -3.690000e+01
      vertex   -7.310000e+01 4.585786e+00 -4.658579e+01
      vertex   -7.310000e+01 4.824429e+00 -4.638197e+01
    endloop
  endfacet
  facet normal 1.000000e+00 0.000000e+00 0.000000e+00
    outer loop
      vertex   -7.310000e+01 0.000000e+00 -3.690000e+01
      vertex   -7.310000e+01 4.824429e+00 -4.638197e+01
      vertex   -7.310000e+01 5.092019e+00 -4.621799e+01
    endloop
  endfacet
  facet normal 1.000000e+00 0.000000e+00 -0.000000e+00
    outer loop
      vertex   -7.310000e+01 5.092019e+00 -4.621799e+01
      vertex   -7.310000e+01 5.381966e+00 -4.609789e+01
      vertex   -7.310000e+01 0.000000e+00 -3.690000e+01
    endloop
  endfacet
  facet normal 1.000000e+00 0.000000e+00 0.000000e+00
    outer loop
      vertex   -7.310000e+01 0.000000e+00 -3.690000e+01
      vertex   -7.310000e+01 5.381966e+00 -4.609789e+01
      vertex   -7.310000e+01 5.687131e+00 -4.602462e+01
    endloop
  endfacet
  facet normal 1.000000e+00 0.000000e+00 0.000000e+00
    outer loop
      vertex   -7.310000e+01 0.000000e+00 -3.690000e+01
      vertex   -7.310000e+01 5.687131e+00 -4.602462e+01
      vertex   -7.310000e+01 6.000000e+00 -4.600000e+01
    endloop
  endfacet
  facet normal 1.000000e+00 0.000000e+00 0.000000e+00
    outer loop
      vertex   -7.310000e+01 0.000000e+00 -9.300000e+01
      vertex   -7.310000e+01 5.900000e+01 -9.300000e+01
      vertex   -7.310000e+01 0.000000e+00 -8.190000e+01
    endloop
  endfacet
  facet normal 1.000000e+00 -0.000000e+00 0.000000e+00
    outer loop
      vertex   -7.310000e+01 0.000000e+00 -8.190000e+01
      vertex   -7.310000e+01 5.900000e+01 -9.300000e+01
      vertex   -7.310000e+01 5.900000e+01 -8.190000e+01
    endloop
  endfacet
  facet normal 1.000000e+00 0.000000e+00 -0.000000e+00
    outer loop
      vertex   -7.310000e+01 6.200000e+01 -8.190000e+01
      vertex   -7.310000e+01 6.200000e+01 -7.210000e+01
      vertex   -7.310000e+01 5.900000e+01 -8.190000e+01
    endloop
  endfacet
  facet normal 1.000000e+00 0.000000e+00 0.000000e+00
    outer loop
      vertex   -7.310000e+01 5.900000e+01 -8.190000e+01
      vertex   -7.310000e+01 6.200000e+01 -7.210000e+01
      vertex   -7.310000e+01 5.900000e+01 -7.210000e+01
    endloop
  endfacet
  facet normal 1.000000e+00 0.000000e+00 -0.000000e+00
    outer loop
      vertex   -7.310000e+01 6.200000e+01 -3.690000e+01
      vertex   -7.310000e+01 6.200000e+01 -2.710000e+01
      vertex   -7.310000e+01 5.900000e+01 -3.690000e+01
    endloop
  endfacet
  facet normal 1.000000e+00 0.000000e+00 0.000000e+00
    outer loop
      vertex   -7.310000e+01 5.900000e+01 -3.690000e+01
      vertex   -7.310000e+01 6.200000e+01 -2.710000e+01
      vertex   -7.310000e+01 5.900000e+01 -2.710000e+01
    endloop
  endfacet
  facet normal 1.000000e+00 0.000000e+00 -0.000000e+00
    outer loop
      vertex   -7.310000e+01 6.200000e+01 8.099999e+00
      vertex   -7.310000e+01 6.200000e+01 1.790000e+01
      vertex   -7.310000e+01 5.900000e+01 8.099999e+00
    endloop
  endfacet
  facet normal 1.000000e+00 0.000000e+00 0.000000e+00
    outer loop
      vertex   -7.310000e+01 5.900000e+01 8.099999e+00
      vertex   -7.310000e+01 6.200000e+01 1.790000e+01
      vertex   -7.310000e+01 5.900000e+01 1.790000e+01
    endloop
  endfacet
  facet normal 1.000000e+00 0.000000e+00 0.000000e+00
    outer loop
      vertex   -7.310000e+01 0.000000e+00 8.099999e+00
      vertex   -7.310000e+01 1.618034e+00 2.082443e+01
      vertex   -7.310000e+01 0.000000e+00 1.790000e+01
    endloop
  endfacet
  facet normal 1.000000e+00 0.000000e+00 0.000000e+00
    outer loop
      vertex   -7.310000e+01 0.000000e+00 1.790000e+01
      vertex   -7.310000e+01 1.618034e+00 2.082443e+01
      vertex   -7.310000e+01 1.414214e+00 2.058579e+01
    endloop
  endfacet
  facet normal 1.000000e+00 0.000000e+00 0.000000e+00
    outer loop
      vertex   -7.310000e+01 0.000000e+00 1.790000e+01
      vertex   -7.310000e+01 1.414214e+00 2.058579e+01
      vertex   -7.310000e+01 1.175571e+00 2.038197e+01
    endloop
  endfacet
  facet normal 1.000000e+00 0.000000e+00 0.000000e+00
    outer loop
      vertex   -7.310000e+01 1.175571e+00 2.038197e+01
      vertex   -7.310000e+01 9.079810e-01 2.021799e+01
      vertex   -7.310000e+01 0.000000e+00 1.790000e+01
    endloop
  endfacet
  facet normal 1.000000e+00 0.000000e+00 0.000000e+00
    outer loop
      vertex   -7.310000e+01 0.000000e+00 1.790000e+01
      vertex   -7.310000e+01 9.079810e-01 2.021799e+01
      vertex   -7.310000e+01 6.180340e-01 2.009789e+01
    endloop
  endfacet
  facet normal 1.000000e+00 0.000000e+00 0.000000e+00
    outer loop
      vertex   -7.310000e+01 0.000000e+00 1.790000e+01
      vertex   -7.310000e+01 6.180340e-01 2.009789e+01
      vertex   -7.310000e+01 3.128689e-01 2.002462e+01
    endloop
  endfacet
  facet normal 1.000000e+00 0.000000e+00 0.000000e+00
    outer loop
      vertex   -7.310000e+01 3.128689e-01 2.002462e+01
      vertex   -7.310000e+01 0.000000e+00 2.000000e+01
      vertex   -7.310000e+01 0.000000e+00 1.790000e+01
    endloop
  endfacet
  facet normal 1.000000e+00 -0.000000e+00 0.000000e+00
    outer loop
      vertex   -7.310000e+01 -3.000000e+00 1.790000e+01
      vertex   -7.310000e+01 -3.000000e+00 8.099999e+00
      vertex   -7.310000e+01 0.000000e+00 1.790000e+01
    endloop
  endfacet
  facet normal 1.000000e+00 0.000000e+00 0.000000e+00
    outer loop
      vertex   -7.310000e+01 0.000000e+00 1.790000e+01
      vertex   -7.310000e+01 -3.000000e+00 8.099999e+00
      vertex   -7.310000e+01 0.000000e+00 8.099999e+00
    endloop
  endfacet
  facet normal 1.000000e+00 0.000000e+00 0.000000e+00
    outer loop
      vertex   -7.310000e+01 0.000000e+00 8.099999e+00
      vertex   -7.310000e+01 0.000000e+00 -2.710000e+01
      vertex   -7.310000e+01 2.100000e+01 -3.500000e+01
    endloop
  endfacet
  facet normal 0.000000e+00 1.000000e+00 0.000000e+00
    outer loop
      vertex   -7.310000e+01 6.200000e+01 1.790000e+01
      vertex   -7.310000e+01 6.200000e+01 8.099999e+00
      vertex   -7.490000e+01 6.200000e+01 1.790000e+01
    endloop
  endfacet
  facet normal 0.000000e+00 1.000000e+00 0.000000e+00
    outer loop
      vertex   -7.490000e+01 6.200000e+01 1.790000e+01
      vertex   -7.310000e+01 6.200000e+01 8.099999e+00
      vertex   -7.490000e+01 6.200000e+01 8.099999e+00
    endloop
  endfacet
  facet normal 0.000000e+00 -1.000000e+00 0.000000e+00
    outer loop
      vertex   -7.490000e+01 -3.000000e+00 -8.190000e+01
      vertex   -7.310000e+01 -3.000000e+00 -8.190000e+01
      vertex   -7.490000e+01 -3.000000e+00 -7.210000e+01
    endloop
  endfacet
  facet normal 0.000000e+00 -1.000000e+00 0.000000e+00
    outer loop
      vertex   -7.490000e+01 -3.000000e+00 -7.210000e+01
      vertex   -7.310000e+01 -3.000000e+00 -8.190000e+01
      vertex   -7.310000e+01 -3.000000e+00 -7.210000e+01
    endloop
  endfacet
endsolid
