solid ASCII
  facet normal -0.000000e+00 7.071068e-01 7.071068e-01
    outer loop
      vertex   -6.800000e+01 1.500000e+00 2.685858e+01
      vertex   -6.800000e+01 0.000000e+00 2.835858e+01
      vertex   -3.800000e+01 1.500000e+00 2.685858e+01
    endloop
  endfacet
  facet normal 0.000000e+00 7.071068e-01 7.071068e-01
    outer loop
      vertex   -3.800000e+01 1.500000e+00 2.685858e+01
      vertex   -6.800000e+01 0.000000e+00 2.835858e+01
      vertex   -3.800000e+01 0.000000e+00 2.835858e+01
    endloop
  endfacet
  facet normal 0.000000e+00 1.000000e+00 0.000000e+00
    outer loop
      vertex   -6.800000e+01 1.500000e+00 1.914142e+01
      vertex   -6.800000e+01 1.500000e+00 2.685858e+01
      vertex   -3.800000e+01 1.500000e+00 1.914142e+01
    endloop
  endfacet
  facet normal 0.000000e+00 1.000000e+00 -0.000000e+00
    outer loop
      vertex   -3.800000e+01 1.500000e+00 1.914142e+01
      vertex   -6.800000e+01 1.500000e+00 2.685858e+01
      vertex   -3.800000e+01 1.500000e+00 2.685858e+01
    endloop
  endfacet
  facet normal 0.000000e+00 7.071068e-01 -7.071068e-01
    outer loop
      vertex   -6.800000e+01 -4.336809e-18 1.764142e+01
      vertex   -6.800000e+01 1.500000e+00 1.914142e+01
      vertex   -3.800000e+01 -4.336809e-18 1.764142e+01
    endloop
  endfacet
  facet normal 0.000000e+00 7.071068e-01 -7.071068e-01
    outer loop
      vertex   -3.800000e+01 -4.336809e-18 1.764142e+01
      vertex   -6.800000e+01 1.500000e+00 1.914142e+01
      vertex   -3.800000e+01 1.500000e+00 1.914142e+01
    endloop
  endfacet
  facet normal -1.000000e+00 -0.000000e+00 -0.000000e+00
    outer loop
      vertex   -6.800000e+01 1.500000e+00 2.685858e+01
      vertex   -6.800000e+01 1.500000e+00 1.914142e+01
      vertex   -6.800000e+01 0.000000e+00 2.835858e+01
    endloop
  endfacet
  facet normal -1.000000e+00 0.000000e+00 -0.000000e+00
    outer loop
      vertex   -6.800000e+01 0.000000e+00 2.835858e+01
      vertex   -6.800000e+01 1.500000e+00 1.914142e+01
      vertex   -6.800000e+01 -4.336809e-18 1.764142e+01
    endloop
  endfacet
  facet normal 0.000000e+00 -1.000000e+00 4.046604e-19
    outer loop
      vertex   -3.800000e+01 0.000000e+00 2.835858e+01
      vertex   -6.800000e+01 0.000000e+00 2.835858e+01
      vertex   -3.800000e+01 -4.336809e-18 1.764142e+01
    endloop
  endfacet
  facet normal 0.000000e+00 -1.000000e+00 4.046604e-19
    outer loop
      vertex   -3.800000e+01 -4.336809e-18 1.764142e+01
      vertex   -6.800000e+01 0.000000e+00 2.835858e+01
      vertex   -6.800000e+01 -4.336809e-18 1.764142e+01
    endloop
  endfacet
  facet normal 1.000000e+00 0.000000e+00 0.000000e+00
    outer loop
      vertex   -3.800000e+01 0.000000e+00 2.835858e+01
      vertex   -3.800000e+01 -4.336809e-18 1.764142e+01
      vertex   -3.800000e+01 1.500000e+00 2.685858e+01
    endloop
  endfacet
  facet normal 1.000000e+00 0.000000e+00 0.000000e+00
    outer loop
      vertex   -3.800000e+01 1.500000e+00 2.685858e+01
      vertex   -3.800000e+01 -4.336809e-18 1.764142e+01
      vertex   -3.800000e+01 1.500000e+00 1.914142e+01
    endloop
  endfacet
endsolid
