solid ASCII
  facet normal -0.000000e+00 7.071068e-01 7.071068e-01
    outer loop
      vertex   -6.800000e+01 1.500000e+00 2.671716e+01
      vertex   -6.800000e+01 0.000000e+00 2.821716e+01
      vertex   -3.800000e+01 1.500000e+00 2.671716e+01
    endloop
  endfacet
  facet normal 0.000000e+00 7.071068e-01 7.071068e-01
    outer loop
      vertex   -3.800000e+01 1.500000e+00 2.671716e+01
      vertex   -6.800000e+01 0.000000e+00 2.821716e+01
      vertex   -3.800000e+01 0.000000e+00 2.821716e+01
    endloop
  endfacet
  facet normal 0.000000e+00 1.000000e+00 0.000000e+00
    outer loop
      vertex   -6.800000e+01 1.500000e+00 1.928284e+01
      vertex   -6.800000e+01 1.500000e+00 2.671716e+01
      vertex   -3.800000e+01 1.500000e+00 1.928284e+01
    endloop
  endfacet
  facet normal 0.000000e+00 1.000000e+00 -0.000000e+00
    outer loop
      vertex   -3.800000e+01 1.500000e+00 1.928284e+01
      vertex   -6.800000e+01 1.500000e+00 2.671716e+01
      vertex   -3.800000e+01 1.500000e+00 2.671716e+01
    endloop
  endfacet
  facet normal 0.000000e+00 7.071068e-01 -7.071068e-01
    outer loop
      vertex   -6.800000e+01 0.000000e+00 1.778284e+01
      vertex   -6.800000e+01 1.500000e+00 1.928284e+01
      vertex   -3.800000e+01 0.000000e+00 1.778284e+01
    endloop
  endfacet
  facet normal 0.000000e+00 7.071068e-01 -7.071068e-01
    outer loop
      vertex   -3.800000e+01 0.000000e+00 1.778284e+01
      vertex   -6.800000e+01 1.500000e+00 1.928284e+01
      vertex   -3.800000e+01 1.500000e+00 1.928284e+01
    endloop
  endfacet
  facet normal -1.000000e+00 -0.000000e+00 -0.000000e+00
    outer loop
      vertex   -6.800000e+01 1.500000e+00 2.671716e+01
      vertex   -6.800000e+01 1.500000e+00 1.928284e+01
      vertex   -6.800000e+01 0.000000e+00 2.821716e+01
    endloop
  endfacet
  facet normal -1.000000e+00 0.000000e+00 0.000000e+00
    outer loop
      vertex   -6.800000e+01 0.000000e+00 2.821716e+01
      vertex   -6.800000e+01 1.500000e+00 1.928284e+01
      vertex   -6.800000e+01 0.000000e+00 1.778284e+01
    endloop
  endfacet
  facet normal -0.000000e+00 -1.000000e+00 -0.000000e+00
    outer loop
      vertex   -3.800000e+01 0.000000e+00 2.821716e+01
      vertex   -6.800000e+01 0.000000e+00 2.821716e+01
      vertex   -3.800000e+01 0.000000e+00 1.778284e+01
    endloop
  endfacet
  facet normal 0.000000e+00 -1.000000e+00 0.000000e+00
    outer loop
      vertex   -3.800000e+01 0.000000e+00 1.778284e+01
      vertex   -6.800000e+01 0.000000e+00 2.821716e+01
      vertex   -6.800000e+01 0.000000e+00 1.778284e+01
    endloop
  endfacet
  facet normal 1.000000e+00 0.000000e+00 0.000000e+00
    outer loop
      vertex   -3.800000e+01 0.000000e+00 2.821716e+01
      vertex   -3.800000e+01 0.000000e+00 1.778284e+01
      vertex   -3.800000e+01 1.500000e+00 2.671716e+01
    endloop
  endfacet
  facet normal 1.000000e+00 0.000000e+00 0.000000e+00
    outer loop
      vertex   -3.800000e+01 1.500000e+00 2.671716e+01
      vertex   -3.800000e+01 0.000000e+00 1.778284e+01
      vertex   -3.800000e+01 1.500000e+00 1.928284e+01
    endloop
  endfacet
endsolid
