solid ASCII
  facet normal 7.071068e-01 7.071068e-01 -2.861381e-19
    outer loop
      vertex   -3.800000e+01 0.000000e+00 2.835858e+01
      vertex   -3.800000e+01 -4.336809e-18 1.764142e+01
      vertex   -3.950000e+01 1.500000e+00 2.685858e+01
    endloop
  endfacet
  facet normal 7.071068e-01 7.071068e-01 -2.034548e-17
    outer loop
      vertex   -3.950000e+01 1.500000e+00 2.685858e+01
      vertex   -3.800000e+01 -4.336809e-18 1.764142e+01
      vertex   -3.950000e+01 1.500000e+00 1.914142e+01
    endloop
  endfacet
  facet normal 1.121495e-17 7.071068e-01 7.071068e-01
    outer loop
      vertex   -3.800000e+01 0.000000e+00 2.835858e+01
      vertex   -3.950000e+01 1.500000e+00 2.685858e+01
      vertex   -7.300000e+01 5.551115e-16 2.835858e+01
    endloop
  endfacet
  facet normal 0.000000e+00 7.071068e-01 7.071068e-01
    outer loop
      vertex   -7.300000e+01 5.551115e-16 2.835858e+01
      vertex   -3.950000e+01 1.500000e+00 2.685858e+01
      vertex   -7.300000e+01 1.500000e+00 2.685858e+01
    endloop
  endfacet
  facet normal 0.000000e+00 1.000000e+00 -2.877285e-17
    outer loop
      vertex   -3.950000e+01 1.500000e+00 2.685858e+01
      vertex   -3.950000e+01 1.500000e+00 1.914142e+01
      vertex   -7.300000e+01 1.500000e+00 2.685858e+01
    endloop
  endfacet
  facet normal 0.000000e+00 1.000000e+00 -2.877285e-17
    outer loop
      vertex   -7.300000e+01 1.500000e+00 2.685858e+01
      vertex   -3.950000e+01 1.500000e+00 1.914142e+01
      vertex   -7.300000e+01 1.500000e+00 1.914142e+01
    endloop
  endfacet
  facet normal 5.695090e-18 7.071068e-01 -7.071068e-01
    outer loop
      vertex   -3.800000e+01 -4.336809e-18 1.764142e+01
      vertex   -7.300000e+01 2.775558e-16 1.764142e+01
      vertex   -3.950000e+01 1.500000e+00 1.914142e+01
    endloop
  endfacet
  facet normal 0.000000e+00 7.071068e-01 -7.071068e-01
    outer loop
      vertex   -3.950000e+01 1.500000e+00 1.914142e+01
      vertex   -7.300000e+01 2.775558e-16 1.764142e+01
      vertex   -7.300000e+01 1.500000e+00 1.914142e+01
    endloop
  endfacet
  facet normal -1.000000e+00 -0.000000e+00 0.000000e+00
    outer loop
      vertex   -7.300000e+01 1.500000e+00 2.685858e+01
      vertex   -7.300000e+01 1.500000e+00 1.914142e+01
      vertex   -7.300000e+01 5.551115e-16 2.835858e+01
    endloop
  endfacet
  facet normal -1.000000e+00 0.000000e+00 -0.000000e+00
    outer loop
      vertex   -7.300000e+01 5.551115e-16 2.835858e+01
      vertex   -7.300000e+01 1.500000e+00 1.914142e+01
      vertex   -7.300000e+01 2.775558e-16 1.764142e+01
    endloop
  endfacet
  facet normal -1.586033e-17 -1.000000e+00 4.046604e-19
    outer loop
      vertex   -3.800000e+01 0.000000e+00 2.835858e+01
      vertex   -7.300000e+01 5.551115e-16 2.835858e+01
      vertex   -3.800000e+01 -4.336809e-18 1.764142e+01
    endloop
  endfacet
  facet normal -8.054073e-18 -1.000000e+00 2.589826e-17
    outer loop
      vertex   -3.800000e+01 -4.336809e-18 1.764142e+01
      vertex   -7.300000e+01 5.551115e-16 2.835858e+01
      vertex   -7.300000e+01 2.775558e-16 1.764142e+01
    endloop
  endfacet
endsolid
