solid ASCII
  facet normal -7.071066e-01 0.000000e+00 7.071069e-01
    outer loop
      vertex   -7.220000e+01 -3.000000e+00 5.151716e+01
      vertex   -6.160000e+01 -3.000000e+00 6.211716e+01
      vertex   -7.220000e+01 6.200000e+01 5.151716e+01
    endloop
  endfacet
  facet normal -7.071066e-01 0.000000e+00 7.071069e-01
    outer loop
      vertex   -7.220000e+01 6.200000e+01 5.151716e+01
      vertex   -6.160000e+01 -3.000000e+00 6.211716e+01
      vertex   -6.160000e+01 6.200000e+01 6.211716e+01
    endloop
  endfacet
  facet normal -1.000000e+00 0.000000e+00 0.000000e+00
    outer loop
      vertex   -7.220000e+01 -3.000000e+00 3.780000e+01
      vertex   -7.220000e+01 -3.000000e+00 5.151716e+01
      vertex   -7.220000e+01 6.200000e+01 3.780000e+01
    endloop
  endfacet
  facet normal -1.000000e+00 0.000000e+00 0.000000e+00
    outer loop
      vertex   -7.220000e+01 6.200000e+01 3.780000e+01
      vertex   -7.220000e+01 -3.000000e+00 5.151716e+01
      vertex   -7.220000e+01 6.200000e+01 5.151716e+01
    endloop
  endfacet
  facet normal 0.000000e+00 0.000000e+00 -1.000000e+00
    outer loop
      vertex   -6.160000e+01 -3.000000e+00 3.780000e+01
      vertex   -7.220000e+01 -3.000000e+00 3.780000e+01
      vertex   -6.160000e+01 6.200000e+01 3.780000e+01
    endloop
  endfacet
  facet normal -0.000000e+00 0.000000e+00 -1.000000e+00
    outer loop
      vertex   -6.160000e+01 6.200000e+01 3.780000e+01
      vertex   -7.220000e+01 -3.000000e+00 3.780000e+01
      vertex   -7.220000e+01 6.200000e+01 3.780000e+01
    endloop
  endfacet
  facet normal 1.000000e+00 -0.000000e+00 0.000000e+00
    outer loop
      vertex   -6.160000e+01 -3.000000e+00 6.211716e+01
      vertex   -6.160000e+01 -3.000000e+00 3.780000e+01
      vertex   -6.160000e+01 6.200000e+01 6.211716e+01
    endloop
  endfacet
  facet normal 1.000000e+00 0.000000e+00 0.000000e+00
    outer loop
      vertex   -6.160000e+01 6.200000e+01 6.211716e+01
      vertex   -6.160000e+01 -3.000000e+00 3.780000e+01
      vertex   -6.160000e+01 6.200000e+01 3.780000e+01
    endloop
  endfacet
  facet normal 0.000000e+00 1.000000e+00 0.000000e+00
    outer loop
      vertex   -6.160000e+01 6.200000e+01 6.211716e+01
      vertex   -6.160000e+01 6.200000e+01 3.780000e+01
      vertex   -7.220000e+01 6.200000e+01 5.151716e+01
    endloop
  endfacet
  facet normal 0.000000e+00 1.000000e+00 0.000000e+00
    outer loop
      vertex   -7.220000e+01 6.200000e+01 5.151716e+01
      vertex   -6.160000e+01 6.200000e+01 3.780000e+01
      vertex   -7.220000e+01 6.200000e+01 3.780000e+01
    endloop
  endfacet
  facet normal 0.000000e+00 -1.000000e+00 -0.000000e+00
    outer loop
      vertex   -6.160000e+01 -3.000000e+00 6.211716e+01
      vertex   -7.220000e+01 -3.000000e+00 5.151716e+01
      vertex   -6.160000e+01 -3.000000e+00 3.780000e+01
    endloop
  endfacet
  facet normal 0.000000e+00 -1.000000e+00 0.000000e+00
    outer loop
      vertex   -6.160000e+01 -3.000000e+00 3.780000e+01
      vertex   -7.220000e+01 -3.000000e+00 5.151716e+01
      vertex   -7.220000e+01 -3.000000e+00 3.780000e+01
    endloop
  endfacet
endsolid
