solid ASCII
  facet normal -1.000000e+00 -1.421085e-14 4.649365e-45
    outer loop
      vertex   -7.300000e+01 -1.776357e-14 6.135534e+01
      vertex   -7.300000e+01 -1.776357e-14 7.100000e+01
      vertex   -7.300000e+01 1.000000e+00 6.135534e+01
    endloop
  endfacet
  facet normal -1.000000e+00 0.000000e+00 1.473443e-15
    outer loop
      vertex   -7.300000e+01 1.000000e+00 6.135534e+01
      vertex   -7.300000e+01 -1.776357e-14 7.100000e+01
      vertex   -7.300000e+01 1.000000e+00 7.100000e+01
    endloop
  endfacet
  facet normal -1.000000e+00 -1.421087e-14 0.000000e+00
    outer loop
      vertex   -7.300000e+01 5.800000e+01 6.135534e+01
      vertex   -7.300000e+01 5.800000e+01 7.100000e+01
      vertex   -7.300000e+01 5.900000e+01 6.135534e+01
    endloop
  endfacet
  facet normal -1.000000e+00 0.000000e+00 1.473443e-15
    outer loop
      vertex   -7.300000e+01 5.900000e+01 6.135534e+01
      vertex   -7.300000e+01 5.800000e+01 7.100000e+01
      vertex   -7.300000e+01 5.900000e+01 7.100000e+01
    endloop
  endfacet
  facet normal 3.271700e-31 -1.000000e+00 3.271700e-31
    outer loop
      vertex   -7.300000e+01 -1.776357e-14 7.100000e+01
      vertex   -7.300000e+01 -1.776357e-14 6.135534e+01
      vertex   -6.335534e+01 -1.776357e-14 7.100000e+01
    endloop
  endfacet
  facet normal 7.071068e-01 5.024296e-15 -7.071068e-01
    outer loop
      vertex   -7.300000e+01 1.000000e+00 6.135534e+01
      vertex   -6.335534e+01 1.000000e+00 7.100000e+01
      vertex   -7.300000e+01 -1.776357e-14 6.135534e+01
    endloop
  endfacet
  facet normal 7.071068e-01 0.000000e+00 -7.071068e-01
    outer loop
      vertex   -7.300000e+01 -1.776357e-14 6.135534e+01
      vertex   -6.335534e+01 1.000000e+00 7.100000e+01
      vertex   -6.335534e+01 -1.776357e-14 7.100000e+01
    endloop
  endfacet
  facet normal 0.000000e+00 -1.000000e+00 0.000000e+00
    outer loop
      vertex   -7.300000e+01 5.800000e+01 7.100000e+01
      vertex   -7.300000e+01 5.800000e+01 6.135534e+01
      vertex   -6.335534e+01 5.800000e+01 7.100000e+01
    endloop
  endfacet
  facet normal 7.071068e-01 1.004860e-14 -7.071068e-01
    outer loop
      vertex   -7.300000e+01 5.900000e+01 6.135534e+01
      vertex   -6.335534e+01 5.900000e+01 7.100000e+01
      vertex   -7.300000e+01 5.800000e+01 6.135534e+01
    endloop
  endfacet
  facet normal 7.071068e-01 0.000000e+00 -7.071068e-01
    outer loop
      vertex   -7.300000e+01 5.800000e+01 6.135534e+01
      vertex   -6.335534e+01 5.900000e+01 7.100000e+01
      vertex   -6.335534e+01 5.800000e+01 7.100000e+01
    endloop
  endfacet
  facet normal 4.906767e-02 9.987955e-01 -2.957027e-15
    outer loop
      vertex   -6.400000e+01 5.000000e+00 7.400000e+01
      vertex   -6.400000e+01 5.000000e+00 7.100000e+01
      vertex   -6.449009e+01 5.024076e+00 7.400000e+01
    endloop
  endfacet
  facet normal 4.906767e-02 9.987955e-01 -3.252730e-15
    outer loop
      vertex   -6.449009e+01 5.024076e+00 7.400000e+01
      vertex   -6.400000e+01 5.000000e+00 7.100000e+01
      vertex   -6.449009e+01 5.024076e+00 7.100000e+01
    endloop
  endfacet
  facet normal 1.467305e-01 9.891765e-01 -3.221405e-15
    outer loop
      vertex   -6.449009e+01 5.024076e+00 7.400000e+01
      vertex   -6.449009e+01 5.024076e+00 7.100000e+01
      vertex   -6.497545e+01 5.096074e+00 7.100000e+01
    endloop
  endfacet
  facet normal 1.467305e-01 9.891765e-01 -2.931998e-15
    outer loop
      vertex   -6.449009e+01 5.024076e+00 7.400000e+01
      vertex   -6.497545e+01 5.096074e+00 7.100000e+01
      vertex   -6.497545e+01 5.096074e+00 7.400000e+01
    endloop
  endfacet
  facet normal 2.429802e-01 9.700313e-01 -2.871868e-15
    outer loop
      vertex   -6.497545e+01 5.096074e+00 7.400000e+01
      vertex   -6.497545e+01 5.096074e+00 7.100000e+01
      vertex   -6.545142e+01 5.215298e+00 7.100000e+01
    endloop
  endfacet
  facet normal 2.429802e-01 9.700313e-01 -2.870719e-15
    outer loop
      vertex   -6.497545e+01 5.096074e+00 7.400000e+01
      vertex   -6.545142e+01 5.215298e+00 7.100000e+01
      vertex   -6.545142e+01 5.215298e+00 7.400000e+01
    endloop
  endfacet
  facet normal 3.368899e-01 9.415441e-01 -2.787529e-15
    outer loop
      vertex   -6.545142e+01 5.215298e+00 7.400000e+01
      vertex   -6.545142e+01 5.215298e+00 7.100000e+01
      vertex   -6.591342e+01 5.380602e+00 7.100000e+01
    endloop
  endfacet
  facet normal 3.368899e-01 9.415441e-01 -2.781156e-15
    outer loop
      vertex   -6.545142e+01 5.215298e+00 7.400000e+01
      vertex   -6.591342e+01 5.380602e+00 7.100000e+01
      vertex   -6.591342e+01 5.380602e+00 7.400000e+01
    endloop
  endfacet
  facet normal 4.275551e-01 9.039893e-01 -2.676345e-15
    outer loop
      vertex   -6.591342e+01 5.380602e+00 7.400000e+01
      vertex   -6.591342e+01 5.380602e+00 7.100000e+01
      vertex   -6.635698e+01 5.590394e+00 7.100000e+01
    endloop
  endfacet
  facet normal 4.275551e-01 9.039893e-01 -2.413478e-15
    outer loop
      vertex   -6.591342e+01 5.380602e+00 7.400000e+01
      vertex   -6.635698e+01 5.590394e+00 7.100000e+01
      vertex   -6.635698e+01 5.590394e+00 7.400000e+01
    endloop
  endfacet
  facet normal 5.141027e-01 8.577286e-01 -2.285447e-15
    outer loop
      vertex   -6.635698e+01 5.590394e+00 7.400000e+01
      vertex   -6.635698e+01 5.590394e+00 7.100000e+01
      vertex   -6.677785e+01 5.842652e+00 7.100000e+01
    endloop
  endfacet
  facet normal 5.141027e-01 8.577286e-01 -2.536037e-15
    outer loop
      vertex   -6.635698e+01 5.590394e+00 7.400000e+01
      vertex   -6.677785e+01 5.842652e+00 7.100000e+01
      vertex   -6.677785e+01 5.842652e+00 7.400000e+01
    endloop
  endfacet
  facet normal 5.956993e-01 8.032075e-01 -2.377971e-15
    outer loop
      vertex   -6.677785e+01 5.842652e+00 7.400000e+01
      vertex   -6.677785e+01 5.842652e+00 7.100000e+01
      vertex   -6.717197e+01 6.134948e+00 7.100000e+01
    endloop
  endfacet
  facet normal 5.956993e-01 8.032075e-01 -2.385195e-15
    outer loop
      vertex   -6.677785e+01 5.842652e+00 7.400000e+01
      vertex   -6.717197e+01 6.134948e+00 7.100000e+01
      vertex   -6.717197e+01 6.134948e+00 7.400000e+01
    endloop
  endfacet
  facet normal 6.715590e-01 7.409511e-01 -2.193655e-15
    outer loop
      vertex   -6.717197e+01 6.134948e+00 7.400000e+01
      vertex   -6.717197e+01 6.134948e+00 7.100000e+01
      vertex   -6.753553e+01 6.464466e+00 7.100000e+01
    endloop
  endfacet
  facet normal 6.715590e-01 7.409511e-01 -2.187214e-15
    outer loop
      vertex   -6.717197e+01 6.134948e+00 7.400000e+01
      vertex   -6.753553e+01 6.464466e+00 7.100000e+01
      vertex   -6.753553e+01 6.464466e+00 7.400000e+01
    endloop
  endfacet
  facet normal 7.409511e-01 6.715590e-01 -1.988213e-15
    outer loop
      vertex   -6.753553e+01 6.464466e+00 7.400000e+01
      vertex   -6.753553e+01 6.464466e+00 7.100000e+01
      vertex   -6.786505e+01 6.828034e+00 7.100000e+01
    endloop
  endfacet
  facet normal 7.409511e-01 6.715590e-01 -1.979806e-15
    outer loop
      vertex   -6.753553e+01 6.464466e+00 7.400000e+01
      vertex   -6.786505e+01 6.828034e+00 7.100000e+01
      vertex   -6.786505e+01 6.828034e+00 7.400000e+01
    endloop
  endfacet
  facet normal 8.032075e-01 5.956993e-01 -1.763624e-15
    outer loop
      vertex   -6.786505e+01 6.828034e+00 7.400000e+01
      vertex   -6.786505e+01 6.828034e+00 7.100000e+01
      vertex   -6.815735e+01 7.222149e+00 7.100000e+01
    endloop
  endfacet
  facet normal 8.032075e-01 5.956993e-01 -1.772398e-15
    outer loop
      vertex   -6.786505e+01 6.828034e+00 7.400000e+01
      vertex   -6.815735e+01 7.222149e+00 7.100000e+01
      vertex   -6.815735e+01 7.222149e+00 7.400000e+01
    endloop
  endfacet
  facet normal 8.577286e-01 5.141027e-01 -1.522049e-15
    outer loop
      vertex   -6.815735e+01 7.222149e+00 7.400000e+01
      vertex   -6.815735e+01 7.222149e+00 7.100000e+01
      vertex   -6.840961e+01 7.643016e+00 7.100000e+01
    endloop
  endfacet
  facet normal 8.577286e-01 5.141027e-01 -1.678121e-15
    outer loop
      vertex   -6.815735e+01 7.222149e+00 7.400000e+01
      vertex   -6.840961e+01 7.643016e+00 7.100000e+01
      vertex   -6.840961e+01 7.643016e+00 7.400000e+01
    endloop
  endfacet
  facet normal 9.039893e-01 4.275551e-01 -1.392399e-15
    outer loop
      vertex   -6.840961e+01 7.643016e+00 7.400000e+01
      vertex   -6.840961e+01 7.643016e+00 7.100000e+01
      vertex   -6.861940e+01 8.086583e+00 7.100000e+01
    endloop
  endfacet
  facet normal 9.039893e-01 4.275551e-01 -1.272732e-15
    outer loop
      vertex   -6.840961e+01 7.643016e+00 7.400000e+01
      vertex   -6.861940e+01 8.086583e+00 7.100000e+01
      vertex   -6.861940e+01 8.086583e+00 7.400000e+01
    endloop
  endfacet
  facet normal 9.415441e-01 3.368899e-01 -9.973939e-16
    outer loop
      vertex   -6.861940e+01 8.086583e+00 7.400000e+01
      vertex   -6.861940e+01 8.086583e+00 7.100000e+01
      vertex   -6.878470e+01 8.548577e+00 7.100000e+01
    endloop
  endfacet
  facet normal 9.415441e-01 3.368899e-01 -9.993307e-16
    outer loop
      vertex   -6.861940e+01 8.086583e+00 7.400000e+01
      vertex   -6.878470e+01 8.548577e+00 7.100000e+01
      vertex   -6.878470e+01 8.548577e+00 7.400000e+01
    endloop
  endfacet
  facet normal 9.700313e-01 2.429802e-01 -7.193656e-16
    outer loop
      vertex   -6.878470e+01 8.548577e+00 7.400000e+01
      vertex   -6.878470e+01 8.548577e+00 7.100000e+01
      vertex   -6.890393e+01 9.024548e+00 7.100000e+01
    endloop
  endfacet
  facet normal 9.700313e-01 2.429802e-01 -7.212151e-16
    outer loop
      vertex   -6.878470e+01 8.548577e+00 7.400000e+01
      vertex   -6.890393e+01 9.024548e+00 7.100000e+01
      vertex   -6.890393e+01 9.024548e+00 7.400000e+01
    endloop
  endfacet
  facet normal 9.891765e-01 1.467305e-01 -4.344093e-16
    outer loop
      vertex   -6.890393e+01 9.024548e+00 7.400000e+01
      vertex   -6.890393e+01 9.024548e+00 7.100000e+01
      vertex   -6.897592e+01 9.509914e+00 7.100000e+01
    endloop
  endfacet
  facet normal 9.891765e-01 1.467305e-01 -5.185206e-16
    outer loop
      vertex   -6.890393e+01 9.024548e+00 7.400000e+01
      vertex   -6.897592e+01 9.509914e+00 7.100000e+01
      vertex   -6.897592e+01 9.509914e+00 7.400000e+01
    endloop
  endfacet
  facet normal 9.987955e-01 4.906767e-02 -1.743233e-16
    outer loop
      vertex   -6.897592e+01 9.509914e+00 7.400000e+01
      vertex   -6.897592e+01 9.509914e+00 7.100000e+01
      vertex   -6.900000e+01 1.000000e+01 7.400000e+01
    endloop
  endfacet
  facet normal 9.987955e-01 4.906767e-02 -1.452694e-16
    outer loop
      vertex   -6.900000e+01 1.000000e+01 7.400000e+01
      vertex   -6.897592e+01 9.509914e+00 7.100000e+01
      vertex   -6.900000e+01 1.000000e+01 7.100000e+01
    endloop
  endfacet
  facet normal 1.000000e+00 -3.552714e-16 1.051814e-30
    outer loop
      vertex   -6.900000e+01 1.000000e+01 7.100000e+01
      vertex   -6.900000e+01 5.000000e+01 7.100000e+01
      vertex   -6.900000e+01 1.000000e+01 7.400000e+01
    endloop
  endfacet
  facet normal 1.000000e+00 -3.365805e-30 4.736950e-15
    outer loop
      vertex   -6.900000e+01 1.000000e+01 7.400000e+01
      vertex   -6.900000e+01 5.000000e+01 7.100000e+01
      vertex   -6.900000e+01 5.000000e+01 7.400000e+01
    endloop
  endfacet
  facet normal 4.906767e-02 -9.987955e-01 -4.731244e-15
    outer loop
      vertex   -6.400000e+01 5.500000e+01 7.100000e+01
      vertex   -6.400000e+01 5.500000e+01 7.400000e+01
      vertex   -6.449009e+01 5.497592e+01 7.100000e+01
    endloop
  endfacet
  facet normal 4.906767e-02 -9.987955e-01 -7.096866e-15
    outer loop
      vertex   -6.449009e+01 5.497592e+01 7.100000e+01
      vertex   -6.400000e+01 5.500000e+01 7.400000e+01
      vertex   -6.449009e+01 5.497592e+01 7.400000e+01
    endloop
  endfacet
  facet normal 1.467305e-01 -9.891765e-01 -7.028519e-15
    outer loop
      vertex   -6.449009e+01 5.497592e+01 7.100000e+01
      vertex   -6.449009e+01 5.497592e+01 7.400000e+01
      vertex   -6.497545e+01 5.490393e+01 7.400000e+01
    endloop
  endfacet
  facet normal 1.467305e-01 -9.891765e-01 -4.685541e-15
    outer loop
      vertex   -6.449009e+01 5.497592e+01 7.100000e+01
      vertex   -6.497545e+01 5.490393e+01 7.400000e+01
      vertex   -6.497545e+01 5.490393e+01 7.100000e+01
    endloop
  endfacet
  facet normal 2.429802e-01 -9.700313e-01 -4.594989e-15
    outer loop
      vertex   -6.497545e+01 5.490393e+01 7.100000e+01
      vertex   -6.497545e+01 5.490393e+01 7.400000e+01
      vertex   -6.545142e+01 5.478470e+01 7.400000e+01
    endloop
  endfacet
  facet normal 2.429802e-01 -9.700313e-01 -4.591264e-15
    outer loop
      vertex   -6.497545e+01 5.490393e+01 7.100000e+01
      vertex   -6.545142e+01 5.478470e+01 7.400000e+01
      vertex   -6.545142e+01 5.478470e+01 7.100000e+01
    endloop
  endfacet
  facet normal 3.368899e-01 -9.415441e-01 -4.460047e-15
    outer loop
      vertex   -6.545142e+01 5.478470e+01 7.100000e+01
      vertex   -6.545142e+01 5.478470e+01 7.400000e+01
      vertex   -6.591342e+01 5.461940e+01 7.400000e+01
    endloop
  endfacet
  facet normal 3.368899e-01 -9.415441e-01 -6.684202e-15
    outer loop
      vertex   -6.545142e+01 5.478470e+01 7.100000e+01
      vertex   -6.591342e+01 5.461940e+01 7.400000e+01
      vertex   -6.591342e+01 5.461940e+01 7.100000e+01
    endloop
  endfacet
  facet normal 4.275551e-01 -9.039893e-01 -6.423228e-15
    outer loop
      vertex   -6.591342e+01 5.461940e+01 7.100000e+01
      vertex   -6.591342e+01 5.461940e+01 7.400000e+01
      vertex   -6.635698e+01 5.440961e+01 7.400000e+01
    endloop
  endfacet
  facet normal 4.275551e-01 -9.039893e-01 -2.253208e-15
    outer loop
      vertex   -6.591342e+01 5.461940e+01 7.100000e+01
      vertex   -6.635698e+01 5.440961e+01 7.400000e+01
      vertex   -6.635698e+01 5.440961e+01 7.100000e+01
    endloop
  endfacet
  facet normal 5.141027e-01 -8.577286e-01 -1.627738e-15
    outer loop
      vertex   -6.635698e+01 5.440961e+01 7.100000e+01
      vertex   -6.635698e+01 5.440961e+01 7.400000e+01
      vertex   -6.677785e+01 5.415735e+01 7.400000e+01
    endloop
  endfacet
  facet normal 5.141027e-01 -8.577286e-01 -3.657927e-15
    outer loop
      vertex   -6.635698e+01 5.440961e+01 7.100000e+01
      vertex   -6.677785e+01 5.415735e+01 7.400000e+01
      vertex   -6.677785e+01 5.415735e+01 7.100000e+01
    endloop
  endfacet
  facet normal 5.956993e-01 -8.032075e-01 -2.885333e-15
    outer loop
      vertex   -6.677785e+01 5.415735e+01 7.100000e+01
      vertex   -6.677785e+01 5.415735e+01 7.400000e+01
      vertex   -6.717197e+01 5.386505e+01 7.400000e+01
    endloop
  endfacet
  facet normal 5.956993e-01 -8.032075e-01 -2.884860e-15
    outer loop
      vertex   -6.677785e+01 5.415735e+01 7.100000e+01
      vertex   -6.717197e+01 5.386505e+01 7.400000e+01
      vertex   -6.717197e+01 5.386505e+01 7.100000e+01
    endloop
  endfacet
  facet normal 6.715590e-01 -7.409511e-01 -2.083631e-15
    outer loop
      vertex   -6.717197e+01 5.386505e+01 7.100000e+01
      vertex   -6.717197e+01 5.386505e+01 7.400000e+01
      vertex   -6.753553e+01 5.353553e+01 7.400000e+01
    endloop
  endfacet
  facet normal 6.715590e-01 -7.409511e-01 -5.260627e-15
    outer loop
      vertex   -6.717197e+01 5.386505e+01 7.100000e+01
      vertex   -6.753553e+01 5.353553e+01 7.400000e+01
      vertex   -6.753553e+01 5.353553e+01 7.100000e+01
    endloop
  endfacet
  facet normal 7.409511e-01 -6.715590e-01 -4.771712e-15
    outer loop
      vertex   -6.753553e+01 5.353553e+01 7.100000e+01
      vertex   -6.753553e+01 5.353553e+01 7.400000e+01
      vertex   -6.786505e+01 5.317197e+01 7.400000e+01
    endloop
  endfacet
  facet normal 7.409511e-01 -6.715590e-01 3.299677e-16
    outer loop
      vertex   -6.753553e+01 5.353553e+01 7.100000e+01
      vertex   -6.786505e+01 5.317197e+01 7.400000e+01
      vertex   -6.786505e+01 5.317197e+01 7.100000e+01
    endloop
  endfacet
  facet normal 8.032075e-01 -5.956993e-01 9.829561e-16
    outer loop
      vertex   -6.786505e+01 5.317197e+01 7.100000e+01
      vertex   -6.786505e+01 5.317197e+01 7.400000e+01
      vertex   -6.815735e+01 5.277785e+01 7.400000e+01
    endloop
  endfacet
  facet normal 8.032075e-01 -5.956993e-01 -4.242442e-16
    outer loop
      vertex   -6.786505e+01 5.317197e+01 7.100000e+01
      vertex   -6.815735e+01 5.277785e+01 7.400000e+01
      vertex   -6.815735e+01 5.277785e+01 7.100000e+01
    endloop
  endfacet
  facet normal 8.577286e-01 -5.141027e-01 4.100990e-16
    outer loop
      vertex   -6.815735e+01 5.277785e+01 7.100000e+01
      vertex   -6.815735e+01 5.277785e+01 7.400000e+01
      vertex   -6.840961e+01 5.235698e+01 7.400000e+01
    endloop
  endfacet
  facet normal 8.577286e-01 -5.141027e-01 -3.648500e-15
    outer loop
      vertex   -6.815735e+01 5.277785e+01 7.100000e+01
      vertex   -6.840961e+01 5.235698e+01 7.400000e+01
      vertex   -6.840961e+01 5.235698e+01 7.100000e+01
    endloop
  endfacet
  facet normal 9.039893e-01 -4.275551e-01 -3.037961e-15
    outer loop
      vertex   -6.840961e+01 5.235698e+01 7.100000e+01
      vertex   -6.840961e+01 5.235698e+01 7.400000e+01
      vertex   -6.861940e+01 5.191342e+01 7.400000e+01
    endloop
  endfacet
  facet normal 9.039893e-01 -4.275551e-01 2.253208e-15
    outer loop
      vertex   -6.840961e+01 5.235698e+01 7.100000e+01
      vertex   -6.861940e+01 5.191342e+01 7.400000e+01
      vertex   -6.861940e+01 5.191342e+01 7.100000e+01
    endloop
  endfacet
  facet normal 9.415441e-01 -3.368899e-01 2.864217e-15
    outer loop
      vertex   -6.861940e+01 5.191342e+01 7.100000e+01
      vertex   -6.861940e+01 5.191342e+01 7.400000e+01
      vertex   -6.878470e+01 5.145142e+01 7.400000e+01
    endloop
  endfacet
  facet normal 9.415441e-01 -3.368899e-01 2.866005e-15
    outer loop
      vertex   -6.861940e+01 5.191342e+01 7.100000e+01
      vertex   -6.878470e+01 5.145142e+01 7.400000e+01
      vertex   -6.878470e+01 5.145142e+01 7.100000e+01
    endloop
  endfacet
  facet normal 9.700313e-01 -2.429802e-01 3.444004e-15
    outer loop
      vertex   -6.878470e+01 5.145142e+01 7.100000e+01
      vertex   -6.878470e+01 5.145142e+01 7.400000e+01
      vertex   -6.890393e+01 5.097545e+01 7.400000e+01
    endloop
  endfacet
  facet normal 9.700313e-01 -2.429802e-01 -1.725260e-15
    outer loop
      vertex   -6.878470e+01 5.145142e+01 7.100000e+01
      vertex   -6.890393e+01 5.097545e+01 7.400000e+01
      vertex   -6.890393e+01 5.097545e+01 7.100000e+01
    endloop
  endfacet
  facet normal 9.891765e-01 -1.467305e-01 -1.042582e-15
    outer loop
      vertex   -6.890393e+01 5.097545e+01 7.100000e+01
      vertex   -6.890393e+01 5.097545e+01 7.400000e+01
      vertex   -6.897592e+01 5.049009e+01 7.400000e+01
    endloop
  endfacet
  facet normal 9.891765e-01 -1.467305e-01 3.992609e-15
    outer loop
      vertex   -6.890393e+01 5.097545e+01 7.100000e+01
      vertex   -6.897592e+01 5.049009e+01 7.400000e+01
      vertex   -6.897592e+01 5.049009e+01 7.100000e+01
    endloop
  endfacet
  facet normal 9.987955e-01 -4.906767e-02 4.498813e-15
    outer loop
      vertex   -6.897592e+01 5.049009e+01 7.100000e+01
      vertex   -6.897592e+01 5.049009e+01 7.400000e+01
      vertex   -6.900000e+01 5.000000e+01 7.100000e+01
    endloop
  endfacet
  facet normal 9.987955e-01 -4.906767e-02 4.498813e-15
    outer loop
      vertex   -6.900000e+01 5.000000e+01 7.100000e+01
      vertex   -6.897592e+01 5.049009e+01 7.400000e+01
      vertex   -6.900000e+01 5.000000e+01 7.400000e+01
    endloop
  endfacet
  facet normal -2.864515e-30 -1.000000e+00 -4.736950e-15
    outer loop
      vertex   -6.400000e+01 5.500000e+01 7.100000e+01
      vertex   3.000000e+01 5.500000e+01 7.100000e+01
      vertex   -6.400000e+01 5.500000e+01 7.400000e+01
    endloop
  endfacet
  facet normal -7.161288e-31 -1.000000e+00 -4.736950e-15
    outer loop
      vertex   -6.400000e+01 5.500000e+01 7.400000e+01
      vertex   3.000000e+01 5.500000e+01 7.100000e+01
      vertex   3.000000e+01 5.500000e+01 7.400000e+01
    endloop
  endfacet
  facet normal -1.790322e-30 1.000000e+00 -2.960594e-15
    outer loop
      vertex   -6.400000e+01 5.000000e+00 7.400000e+01
      vertex   3.000000e+01 5.000000e+00 7.400000e+01
      vertex   -6.400000e+01 5.000000e+00 7.100000e+01
    endloop
  endfacet
  facet normal -2.237902e-30 1.000000e+00 -2.960594e-15
    outer loop
      vertex   -6.400000e+01 5.000000e+00 7.100000e+01
      vertex   3.000000e+01 5.000000e+00 7.400000e+01
      vertex   3.000000e+01 5.000000e+00 7.100000e+01
    endloop
  endfacet
  facet normal -7.077186e-01 1.003989e-14 -7.064944e-01
    outer loop
      vertex   3.800000e+01 5.800000e+01 6.100000e+01
      vertex   2.801730e+01 5.800000e+01 7.100000e+01
      vertex   3.800000e+01 5.900000e+01 6.100000e+01
    endloop
  endfacet
  facet normal -7.077186e-01 0.000000e+00 -7.064944e-01
    outer loop
      vertex   3.800000e+01 5.900000e+01 6.100000e+01
      vertex   2.801730e+01 5.800000e+01 7.100000e+01
      vertex   2.801730e+01 5.900000e+01 7.100000e+01
    endloop
  endfacet
  facet normal -1.000000e+00 0.000000e+00 0.000000e+00
    outer loop
      vertex   3.800000e+01 -3.000000e+00 7.100000e+01
      vertex   3.800000e+01 -8.881784e-15 6.100000e+01
      vertex   3.800000e+01 -3.000000e+00 5.700000e+01
    endloop
  endfacet
  facet normal -1.000000e+00 0.000000e+00 0.000000e+00
    outer loop
      vertex   3.800000e+01 -3.000000e+00 5.700000e+01
      vertex   3.800000e+01 -8.881784e-15 6.100000e+01
      vertex   3.800000e+01 1.000000e+00 6.100000e+01
    endloop
  endfacet
  facet normal -1.000000e+00 4.986265e-16 -4.986263e-16
    outer loop
      vertex   3.800000e+01 -3.000000e+00 5.700000e+01
      vertex   3.800000e+01 1.000000e+00 6.100000e+01
      vertex   3.800000e+01 5.800000e+01 6.100000e+01
    endloop
  endfacet
  facet normal -1.000000e+00 4.986265e-16 0.000000e+00
    outer loop
      vertex   3.800000e+01 5.800000e+01 6.100000e+01
      vertex   3.800000e+01 1.000000e+00 6.100000e+01
      vertex   3.800000e+01 1.000000e+00 7.089949e+01
    endloop
  endfacet
  facet normal -1.000000e+00 4.986265e-16 -3.542954e-31
    outer loop
      vertex   3.800000e+01 5.800000e+01 6.100000e+01
      vertex   3.800000e+01 1.000000e+00 7.089949e+01
      vertex   3.800000e+01 5.800000e+01 7.100000e+01
    endloop
  endfacet
  facet normal -1.000000e+00 4.659297e-16 1.854374e-14
    outer loop
      vertex   3.800000e+01 5.800000e+01 7.100000e+01
      vertex   3.800000e+01 1.000000e+00 7.089949e+01
      vertex   3.800000e+01 -3.000000e+00 7.100000e+01
    endloop
  endfacet
  facet normal -1.000000e+00 0.000000e+00 0.000000e+00
    outer loop
      vertex   3.800000e+01 -3.000000e+00 7.100000e+01
      vertex   3.800000e+01 1.000000e+00 7.089949e+01
      vertex   3.800000e+01 -8.881784e-15 7.089949e+01
    endloop
  endfacet
  facet normal -1.000000e+00 0.000000e+00 0.000000e+00
    outer loop
      vertex   3.800000e+01 -3.000000e+00 7.100000e+01
      vertex   3.800000e+01 -8.881784e-15 7.089949e+01
      vertex   3.800000e+01 -8.881784e-15 6.100000e+01
    endloop
  endfacet
  facet normal -1.000000e+00 -1.553449e-30 7.105427e-15
    outer loop
      vertex   3.800000e+01 -3.000000e+00 5.700000e+01
      vertex   3.800000e+01 5.800000e+01 6.100000e+01
      vertex   3.800000e+01 6.200000e+01 5.700000e+01
    endloop
  endfacet
  facet normal -1.000000e+00 -1.009742e-28 7.105427e-15
    outer loop
      vertex   3.800000e+01 6.200000e+01 5.700000e+01
      vertex   3.800000e+01 5.800000e+01 6.100000e+01
      vertex   3.800000e+01 5.900000e+01 6.100000e+01
    endloop
  endfacet
  facet normal -1.000000e+00 -9.473903e-15 -9.616590e-30
    outer loop
      vertex   3.800000e+01 6.200000e+01 5.700000e+01
      vertex   3.800000e+01 5.900000e+01 6.100000e+01
      vertex   3.800000e+01 6.200000e+01 7.100000e+01
    endloop
  endfacet
  facet normal -1.000000e+00 -9.473903e-15 6.731613e-30
    outer loop
      vertex   3.800000e+01 6.200000e+01 7.100000e+01
      vertex   3.800000e+01 5.900000e+01 6.100000e+01
      vertex   3.800000e+01 5.900000e+01 7.100000e+01
    endloop
  endfacet
  facet normal -7.071068e-01 -1.004859e-14 -7.071068e-01
    outer loop
      vertex   3.800000e+01 1.000000e+00 6.100000e+01
      vertex   3.800000e+01 -8.881784e-15 6.100000e+01
      vertex   2.800000e+01 1.000000e+00 7.100000e+01
    endloop
  endfacet
  facet normal -7.071068e-01 -1.507289e-14 -7.071068e-01
    outer loop
      vertex   2.800000e+01 1.000000e+00 7.100000e+01
      vertex   3.800000e+01 -8.881784e-15 6.100000e+01
      vertex   2.800000e+01 -1.776357e-14 7.100000e+01
    endloop
  endfacet
  facet normal -7.367213e-16 1.000000e+00 1.085517e-30
    outer loop
      vertex   -7.300000e+01 5.900000e+01 6.135534e+01
      vertex   -7.300000e+01 5.900000e+01 7.100000e+01
      vertex   -6.335534e+01 5.900000e+01 7.100000e+01
    endloop
  endfacet
  facet normal 1.611578e-15 1.000000e+00 -2.374568e-30
    outer loop
      vertex   -7.300000e+01 1.000000e+00 6.135534e+01
      vertex   -7.300000e+01 1.000000e+00 7.100000e+01
      vertex   -6.335534e+01 1.000000e+00 7.100000e+01
    endloop
  endfacet
  facet normal 0.000000e+00 -0.000000e+00 -1.000000e+00
    outer loop
      vertex   -7.300000e+01 1.000000e+00 7.100000e+01
      vertex   -7.300000e+01 -1.776357e-14 7.100000e+01
      vertex   -7.800000e+01 -3.000000e+00 7.100000e+01
    endloop
  endfacet
  facet normal 0.000000e+00 0.000000e+00 -1.000000e+00
    outer loop
      vertex   -7.800000e+01 -3.000000e+00 7.100000e+01
      vertex   -7.300000e+01 -1.776357e-14 7.100000e+01
      vertex   -6.335534e+01 -1.776357e-14 7.100000e+01
    endloop
  endfacet
  facet normal -4.900295e-16 2.392105e-15 -1.000000e+00
    outer loop
      vertex   -7.800000e+01 -3.000000e+00 7.100000e+01
      vertex   -6.335534e+01 -1.776357e-14 7.100000e+01
      vertex   3.800000e+01 -3.000000e+00 7.100000e+01
    endloop
  endfacet
  facet normal 1.468008e-09 4.959684e-08 -1.000000e+00
    outer loop
      vertex   3.800000e+01 -3.000000e+00 7.100000e+01
      vertex   -6.335534e+01 -1.776357e-14 7.100000e+01
      vertex   2.800000e+01 -1.776357e-14 7.100000e+01
    endloop
  endfacet
  facet normal -1.354720e-08 -4.538490e-10 -1.000000e+00
    outer loop
      vertex   3.800000e+01 -3.000000e+00 7.100000e+01
      vertex   2.800000e+01 -1.776357e-14 7.100000e+01
      vertex   3.789950e+01 -8.881784e-15 7.100000e+01
    endloop
  endfacet
  facet normal 1.468008e-09 -1.341105e-07 -1.000000e+00
    outer loop
      vertex   2.800000e+01 -1.776357e-14 7.100000e+01
      vertex   -6.335534e+01 -1.776357e-14 7.100000e+01
      vertex   2.800000e+01 1.000000e+00 7.100000e+01
    endloop
  endfacet
  facet normal -7.777791e-16 0.000000e+00 -1.000000e+00
    outer loop
      vertex   2.800000e+01 1.000000e+00 7.100000e+01
      vertex   -6.335534e+01 -1.776357e-14 7.100000e+01
      vertex   -6.335534e+01 1.000000e+00 7.100000e+01
    endloop
  endfacet
  facet normal -7.777791e-16 -1.253509e-16 -1.000000e+00
    outer loop
      vertex   2.800000e+01 1.000000e+00 7.100000e+01
      vertex   -6.335534e+01 1.000000e+00 7.100000e+01
      vertex   -6.400000e+01 5.000000e+00 7.100000e+01
    endloop
  endfacet
  facet normal -0.000000e+00 -0.000000e+00 -1.000000e+00
    outer loop
      vertex   -6.400000e+01 5.000000e+00 7.100000e+01
      vertex   -6.335534e+01 1.000000e+00 7.100000e+01
      vertex   -6.449009e+01 5.024076e+00 7.100000e+01
    endloop
  endfacet
  facet normal -0.000000e+00 -0.000000e+00 -1.000000e+00
    outer loop
      vertex   -6.449009e+01 5.024076e+00 7.100000e+01
      vertex   -6.335534e+01 1.000000e+00 7.100000e+01
      vertex   -6.497545e+01 5.096074e+00 7.100000e+01
    endloop
  endfacet
  facet normal -0.000000e+00 -0.000000e+00 -1.000000e+00
    outer loop
      vertex   -6.497545e+01 5.096074e+00 7.100000e+01
      vertex   -6.335534e+01 1.000000e+00 7.100000e+01
      vertex   -6.545142e+01 5.215298e+00 7.100000e+01
    endloop
  endfacet
  facet normal 0.000000e+00 -0.000000e+00 -1.000000e+00
    outer loop
      vertex   -6.545142e+01 5.215298e+00 7.100000e+01
      vertex   -6.335534e+01 1.000000e+00 7.100000e+01
      vertex   -7.300000e+01 1.000000e+00 7.100000e+01
    endloop
  endfacet
  facet normal -0.000000e+00 0.000000e+00 -1.000000e+00
    outer loop
      vertex   -6.545142e+01 5.215298e+00 7.100000e+01
      vertex   -7.300000e+01 1.000000e+00 7.100000e+01
      vertex   -6.591342e+01 5.380602e+00 7.100000e+01
    endloop
  endfacet
  facet normal -0.000000e+00 0.000000e+00 -1.000000e+00
    outer loop
      vertex   -6.591342e+01 5.380602e+00 7.100000e+01
      vertex   -7.300000e+01 1.000000e+00 7.100000e+01
      vertex   -6.635698e+01 5.590394e+00 7.100000e+01
    endloop
  endfacet
  facet normal -0.000000e+00 0.000000e+00 -1.000000e+00
    outer loop
      vertex   -6.635698e+01 5.590394e+00 7.100000e+01
      vertex   -7.300000e+01 1.000000e+00 7.100000e+01
      vertex   -6.677785e+01 5.842652e+00 7.100000e+01
    endloop
  endfacet
  facet normal -0.000000e+00 0.000000e+00 -1.000000e+00
    outer loop
      vertex   -6.677785e+01 5.842652e+00 7.100000e+01
      vertex   -7.300000e+01 1.000000e+00 7.100000e+01
      vertex   -6.717197e+01 6.134948e+00 7.100000e+01
    endloop
  endfacet
  facet normal -0.000000e+00 0.000000e+00 -1.000000e+00
    outer loop
      vertex   -6.717197e+01 6.134948e+00 7.100000e+01
      vertex   -7.300000e+01 1.000000e+00 7.100000e+01
      vertex   -6.753553e+01 6.464466e+00 7.100000e+01
    endloop
  endfacet
  facet normal -0.000000e+00 0.000000e+00 -1.000000e+00
    outer loop
      vertex   -6.753553e+01 6.464466e+00 7.100000e+01
      vertex   -7.300000e+01 1.000000e+00 7.100000e+01
      vertex   -6.786505e+01 6.828034e+00 7.100000e+01
    endloop
  endfacet
  facet normal -0.000000e+00 0.000000e+00 -1.000000e+00
    outer loop
      vertex   -6.786505e+01 6.828034e+00 7.100000e+01
      vertex   -7.300000e+01 1.000000e+00 7.100000e+01
      vertex   -6.815735e+01 7.222149e+00 7.100000e+01
    endloop
  endfacet
  facet normal -0.000000e+00 0.000000e+00 -1.000000e+00
    outer loop
      vertex   -6.815735e+01 7.222149e+00 7.100000e+01
      vertex   -7.300000e+01 1.000000e+00 7.100000e+01
      vertex   -6.840961e+01 7.643016e+00 7.100000e+01
    endloop
  endfacet
  facet normal -0.000000e+00 0.000000e+00 -1.000000e+00
    outer loop
      vertex   -6.840961e+01 7.643016e+00 7.100000e+01
      vertex   -7.300000e+01 1.000000e+00 7.100000e+01
      vertex   -6.861940e+01 8.086583e+00 7.100000e+01
    endloop
  endfacet
  facet normal -0.000000e+00 0.000000e+00 -1.000000e+00
    outer loop
      vertex   -6.861940e+01 8.086583e+00 7.100000e+01
      vertex   -7.300000e+01 1.000000e+00 7.100000e+01
      vertex   -6.878470e+01 8.548577e+00 7.100000e+01
    endloop
  endfacet
  facet normal -0.000000e+00 0.000000e+00 -1.000000e+00
    outer loop
      vertex   -6.878470e+01 8.548577e+00 7.100000e+01
      vertex   -7.300000e+01 1.000000e+00 7.100000e+01
      vertex   -6.890393e+01 9.024548e+00 7.100000e+01
    endloop
  endfacet
  facet normal -0.000000e+00 0.000000e+00 -1.000000e+00
    outer loop
      vertex   -6.890393e+01 9.024548e+00 7.100000e+01
      vertex   -7.300000e+01 1.000000e+00 7.100000e+01
      vertex   -6.897592e+01 9.509914e+00 7.100000e+01
    endloop
  endfacet
  facet normal -0.000000e+00 0.000000e+00 -1.000000e+00
    outer loop
      vertex   -6.897592e+01 9.509914e+00 7.100000e+01
      vertex   -7.300000e+01 1.000000e+00 7.100000e+01
      vertex   -6.900000e+01 1.000000e+01 7.100000e+01
    endloop
  endfacet
  facet normal 0.000000e+00 0.000000e+00 -1.000000e+00
    outer loop
      vertex   -6.900000e+01 1.000000e+01 7.100000e+01
      vertex   -7.300000e+01 1.000000e+00 7.100000e+01
      vertex   -7.800000e+01 -3.000000e+00 7.100000e+01
    endloop
  endfacet
  facet normal -0.000000e+00 0.000000e+00 -1.000000e+00
    outer loop
      vertex   -6.900000e+01 1.000000e+01 7.100000e+01
      vertex   -7.800000e+01 -3.000000e+00 7.100000e+01
      vertex   -7.800000e+01 6.200000e+01 7.100000e+01
    endloop
  endfacet
  facet normal 0.000000e+00 8.839525e-15 -1.000000e+00
    outer loop
      vertex   -6.335534e+01 5.800000e+01 7.100000e+01
      vertex   -6.545142e+01 5.478470e+01 7.100000e+01
      vertex   -7.300000e+01 5.800000e+01 7.100000e+01
    endloop
  endfacet
  facet normal -1.718909e-15 4.804030e-15 -1.000000e+00
    outer loop
      vertex   -7.300000e+01 5.800000e+01 7.100000e+01
      vertex   -6.545142e+01 5.478470e+01 7.100000e+01
      vertex   -6.591342e+01 5.461940e+01 7.100000e+01
    endloop
  endfacet
  facet normal -1.996711e-15 4.221690e-15 -1.000000e+00
    outer loop
      vertex   -7.300000e+01 5.800000e+01 7.100000e+01
      vertex   -6.591342e+01 5.461940e+01 7.100000e+01
      vertex   -6.635698e+01 5.440961e+01 7.100000e+01
    endloop
  endfacet
  facet normal -7.776319e-16 -0.000000e+00 -1.000000e+00
    outer loop
      vertex   -6.335534e+01 5.900000e+01 7.100000e+01
      vertex   2.801730e+01 5.900000e+01 7.100000e+01
      vertex   -6.335534e+01 5.800000e+01 7.100000e+01
    endloop
  endfacet
  facet normal -7.776319e-16 0.000000e+00 -1.000000e+00
    outer loop
      vertex   -6.335534e+01 5.800000e+01 7.100000e+01
      vertex   2.801730e+01 5.900000e+01 7.100000e+01
      vertex   2.801730e+01 5.800000e+01 7.100000e+01
    endloop
  endfacet
  facet normal -7.776319e-16 1.671029e-16 -1.000000e+00
    outer loop
      vertex   -6.335534e+01 5.800000e+01 7.100000e+01
      vertex   2.801730e+01 5.800000e+01 7.100000e+01
      vertex   -6.400000e+01 5.500000e+01 7.100000e+01
    endloop
  endfacet
  facet normal -6.047172e-16 -5.136611e-15 -1.000000e+00
    outer loop
      vertex   -6.400000e+01 5.500000e+01 7.100000e+01
      vertex   2.801730e+01 5.800000e+01 7.100000e+01
      vertex   3.000000e+01 5.500000e+01 7.100000e+01
    endloop
  endfacet
  facet normal -2.405208e-16 -4.895913e-15 -1.000000e+00
    outer loop
      vertex   3.000000e+01 5.500000e+01 7.100000e+01
      vertex   2.801730e+01 5.800000e+01 7.100000e+01
      vertex   3.049009e+01 5.497592e+01 7.100000e+01
    endloop
  endfacet
  facet normal -7.932877e-16 -5.347911e-15 -1.000000e+00
    outer loop
      vertex   3.049009e+01 5.497592e+01 7.100000e+01
      vertex   2.801730e+01 5.800000e+01 7.100000e+01
      vertex   3.097545e+01 5.490393e+01 7.100000e+01
    endloop
  endfacet
  facet normal 1.423548e-15 -3.229827e-15 -1.000000e+00
    outer loop
      vertex   3.097545e+01 5.490393e+01 7.100000e+01
      vertex   2.801730e+01 5.800000e+01 7.100000e+01
      vertex   3.800000e+01 5.800000e+01 7.100000e+01
    endloop
  endfacet
  facet normal 0.000000e+00 0.000000e+00 -1.000000e+00
    outer loop
      vertex   3.097545e+01 5.490393e+01 7.100000e+01
      vertex   3.800000e+01 5.800000e+01 7.100000e+01
      vertex   3.145142e+01 5.478470e+01 7.100000e+01
    endloop
  endfacet
  facet normal 0.000000e+00 0.000000e+00 -1.000000e+00
    outer loop
      vertex   3.145142e+01 5.478470e+01 7.100000e+01
      vertex   3.800000e+01 5.800000e+01 7.100000e+01
      vertex   3.191342e+01 5.461940e+01 7.100000e+01
    endloop
  endfacet
  facet normal 0.000000e+00 0.000000e+00 -1.000000e+00
    outer loop
      vertex   3.191342e+01 5.461940e+01 7.100000e+01
      vertex   3.800000e+01 5.800000e+01 7.100000e+01
      vertex   3.235698e+01 5.440961e+01 7.100000e+01
    endloop
  endfacet
  facet normal 0.000000e+00 0.000000e+00 -1.000000e+00
    outer loop
      vertex   3.235698e+01 5.440961e+01 7.100000e+01
      vertex   3.800000e+01 5.800000e+01 7.100000e+01
      vertex   3.277785e+01 5.415735e+01 7.100000e+01
    endloop
  endfacet
  facet normal 0.000000e+00 0.000000e+00 -1.000000e+00
    outer loop
      vertex   3.277785e+01 5.415735e+01 7.100000e+01
      vertex   3.800000e+01 5.800000e+01 7.100000e+01
      vertex   3.317197e+01 5.386505e+01 7.100000e+01
    endloop
  endfacet
  facet normal 0.000000e+00 0.000000e+00 -1.000000e+00
    outer loop
      vertex   3.317197e+01 5.386505e+01 7.100000e+01
      vertex   3.800000e+01 5.800000e+01 7.100000e+01
      vertex   3.353553e+01 5.353553e+01 7.100000e+01
    endloop
  endfacet
  facet normal 0.000000e+00 0.000000e+00 -1.000000e+00
    outer loop
      vertex   3.353553e+01 5.353553e+01 7.100000e+01
      vertex   3.800000e+01 5.800000e+01 7.100000e+01
      vertex   3.386505e+01 5.317197e+01 7.100000e+01
    endloop
  endfacet
  facet normal 0.000000e+00 0.000000e+00 -1.000000e+00
    outer loop
      vertex   3.386505e+01 5.317197e+01 7.100000e+01
      vertex   3.800000e+01 5.800000e+01 7.100000e+01
      vertex   3.415735e+01 5.277785e+01 7.100000e+01
    endloop
  endfacet
  facet normal 0.000000e+00 0.000000e+00 -1.000000e+00
    outer loop
      vertex   3.415735e+01 5.277785e+01 7.100000e+01
      vertex   3.800000e+01 5.800000e+01 7.100000e+01
      vertex   3.440961e+01 5.235698e+01 7.100000e+01
    endloop
  endfacet
  facet normal 0.000000e+00 0.000000e+00 -1.000000e+00
    outer loop
      vertex   3.440961e+01 5.235698e+01 7.100000e+01
      vertex   3.800000e+01 5.800000e+01 7.100000e+01
      vertex   3.461940e+01 5.191342e+01 7.100000e+01
    endloop
  endfacet
  facet normal 0.000000e+00 0.000000e+00 -1.000000e+00
    outer loop
      vertex   3.461940e+01 5.191342e+01 7.100000e+01
      vertex   3.800000e+01 5.800000e+01 7.100000e+01
      vertex   3.478470e+01 5.145142e+01 7.100000e+01
    endloop
  endfacet
  facet normal 0.000000e+00 0.000000e+00 -1.000000e+00
    outer loop
      vertex   3.478470e+01 5.145142e+01 7.100000e+01
      vertex   3.800000e+01 5.800000e+01 7.100000e+01
      vertex   3.490393e+01 5.097545e+01 7.100000e+01
    endloop
  endfacet
  facet normal 0.000000e+00 0.000000e+00 -1.000000e+00
    outer loop
      vertex   3.490393e+01 5.097545e+01 7.100000e+01
      vertex   3.800000e+01 5.800000e+01 7.100000e+01
      vertex   3.497592e+01 5.049009e+01 7.100000e+01
    endloop
  endfacet
  facet normal 0.000000e+00 0.000000e+00 -1.000000e+00
    outer loop
      vertex   3.497592e+01 5.049009e+01 7.100000e+01
      vertex   3.800000e+01 5.800000e+01 7.100000e+01
      vertex   3.500000e+01 5.000000e+01 7.100000e+01
    endloop
  endfacet
  facet normal -9.473905e-16 3.552714e-16 -1.000000e+00
    outer loop
      vertex   3.500000e+01 5.000000e+01 7.100000e+01
      vertex   3.800000e+01 5.800000e+01 7.100000e+01
      vertex   3.500000e+01 1.000000e+01 7.100000e+01
    endloop
  endfacet
  facet normal 7.696532e-16 2.479562e-16 -1.000000e+00
    outer loop
      vertex   3.500000e+01 1.000000e+01 7.100000e+01
      vertex   3.800000e+01 5.800000e+01 7.100000e+01
      vertex   3.789950e+01 1.000000e+00 7.100000e+01
    endloop
  endfacet
  facet normal -2.342894e-13 -7.548012e-14 -1.000000e+00
    outer loop
      vertex   3.500000e+01 1.000000e+01 7.100000e+01
      vertex   3.789950e+01 1.000000e+00 7.100000e+01
      vertex   3.497592e+01 9.509914e+00 7.100000e+01
    endloop
  endfacet
  facet normal -1.018481e-14 1.510773e-15 -1.000000e+00
    outer loop
      vertex   3.497592e+01 9.509914e+00 7.100000e+01
      vertex   3.789950e+01 1.000000e+00 7.100000e+01
      vertex   3.490393e+01 9.024548e+00 7.100000e+01
    endloop
  endfacet
  facet normal -8.516951e-15 2.133385e-15 -1.000000e+00
    outer loop
      vertex   3.490393e+01 9.024548e+00 7.100000e+01
      vertex   3.789950e+01 1.000000e+00 7.100000e+01
      vertex   3.478470e+01 8.548577e+00 7.100000e+01
    endloop
  endfacet
  facet normal -7.330577e-15 2.622922e-15 -1.000000e+00
    outer loop
      vertex   3.478470e+01 8.548577e+00 7.100000e+01
      vertex   3.789950e+01 1.000000e+00 7.100000e+01
      vertex   3.461940e+01 8.086583e+00 7.100000e+01
    endloop
  endfacet
  facet normal -6.428504e-15 3.040456e-15 -1.000000e+00
    outer loop
      vertex   3.461940e+01 8.086583e+00 7.100000e+01
      vertex   3.789950e+01 1.000000e+00 7.100000e+01
      vertex   3.440961e+01 7.643016e+00 7.100000e+01
    endloop
  endfacet
  facet normal -5.705979e-15 3.420032e-15 -1.000000e+00
    outer loop
      vertex   3.440961e+01 7.643016e+00 7.100000e+01
      vertex   3.789950e+01 1.000000e+00 7.100000e+01
      vertex   3.415735e+01 7.222149e+00 7.100000e+01
    endloop
  endfacet
  facet normal -5.101537e-15 3.783558e-15 -1.000000e+00
    outer loop
      vertex   3.415735e+01 7.222149e+00 7.100000e+01
      vertex   3.789950e+01 1.000000e+00 7.100000e+01
      vertex   3.386505e+01 6.828034e+00 7.100000e+01
    endloop
  endfacet
  facet normal -4.575947e-15 4.147397e-15 -1.000000e+00
    outer loop
      vertex   3.386505e+01 6.828034e+00 7.100000e+01
      vertex   3.789950e+01 1.000000e+00 7.100000e+01
      vertex   3.353553e+01 6.464466e+00 7.100000e+01
    endloop
  endfacet
  facet normal -4.102018e-15 4.525880e-15 -1.000000e+00
    outer loop
      vertex   3.353553e+01 6.464466e+00 7.100000e+01
      vertex   3.789950e+01 1.000000e+00 7.100000e+01
      vertex   3.317197e+01 6.134948e+00 7.100000e+01
    endloop
  endfacet
  facet normal -3.659069e-15 4.933684e-15 -1.000000e+00
    outer loop
      vertex   3.317197e+01 6.134948e+00 7.100000e+01
      vertex   3.789950e+01 1.000000e+00 7.100000e+01
      vertex   3.277785e+01 5.842652e+00 7.100000e+01
    endloop
  endfacet
  facet normal -3.229466e-15 5.388038e-15 -1.000000e+00
    outer loop
      vertex   3.277785e+01 5.842652e+00 7.100000e+01
      vertex   3.789950e+01 1.000000e+00 7.100000e+01
      vertex   3.235698e+01 5.590394e+00 7.100000e+01
    endloop
  endfacet
  facet normal -2.795929e-15 5.911496e-15 -1.000000e+00
    outer loop
      vertex   3.235698e+01 5.590394e+00 7.100000e+01
      vertex   3.789950e+01 1.000000e+00 7.100000e+01
      vertex   3.191342e+01 5.380602e+00 7.100000e+01
    endloop
  endfacet
  facet normal -2.338717e-15 6.536275e-15 -1.000000e+00
    outer loop
      vertex   3.191342e+01 5.380602e+00 7.100000e+01
      vertex   3.789950e+01 1.000000e+00 7.100000e+01
      vertex   3.145142e+01 5.215298e+00 7.100000e+01
    endloop
  endfacet
  facet normal -1.831572e-15 7.312046e-15 -1.000000e+00
    outer loop
      vertex   3.145142e+01 5.215298e+00 7.100000e+01
      vertex   3.789950e+01 1.000000e+00 7.100000e+01
      vertex   3.097545e+01 5.096074e+00 7.100000e+01
    endloop
  endfacet
  facet normal 0.000000e+00 1.040815e-14 -1.000000e+00
    outer loop
      vertex   3.097545e+01 5.096074e+00 7.100000e+01
      vertex   3.789950e+01 1.000000e+00 7.100000e+01
      vertex   2.800000e+01 1.000000e+00 7.100000e+01
    endloop
  endfacet
  facet normal -1.730356e-15 1.166511e-14 -1.000000e+00
    outer loop
      vertex   3.097545e+01 5.096074e+00 7.100000e+01
      vertex   2.800000e+01 1.000000e+00 7.100000e+01
      vertex   3.049009e+01 5.024076e+00 7.100000e+01
    endloop
  endfacet
  facet normal 8.918060e-14 -4.459030e-14 -1.000000e+00
    outer loop
      vertex   3.049009e+01 5.024076e+00 7.100000e+01
      vertex   2.800000e+01 1.000000e+00 7.100000e+01
      vertex   3.000000e+01 5.000000e+00 7.100000e+01
    endloop
  endfacet
  facet normal -7.558965e-16 3.779482e-16 -1.000000e+00
    outer loop
      vertex   3.000000e+01 5.000000e+00 7.100000e+01
      vertex   2.800000e+01 1.000000e+00 7.100000e+01
      vertex   -6.400000e+01 5.000000e+00 7.100000e+01
    endloop
  endfacet
  facet normal 0.000000e+00 0.000000e+00 -1.000000e+00
    outer loop
      vertex   -7.300000e+01 5.900000e+01 7.100000e+01
      vertex   -7.800000e+01 6.200000e+01 7.100000e+01
      vertex   -6.335534e+01 5.900000e+01 7.100000e+01
    endloop
  endfacet
  facet normal -4.900295e-16 -2.392105e-15 -1.000000e+00
    outer loop
      vertex   -6.335534e+01 5.900000e+01 7.100000e+01
      vertex   -7.800000e+01 6.200000e+01 7.100000e+01
      vertex   3.800000e+01 6.200000e+01 7.100000e+01
    endloop
  endfacet
  facet normal -7.776319e-16 7.324574e-15 -1.000000e+00
    outer loop
      vertex   -6.335534e+01 5.900000e+01 7.100000e+01
      vertex   3.800000e+01 6.200000e+01 7.100000e+01
      vertex   2.801730e+01 5.900000e+01 7.100000e+01
    endloop
  endfacet
  facet normal 1.343429e-08 -4.470349e-08 -1.000000e+00
    outer loop
      vertex   2.801730e+01 5.900000e+01 7.100000e+01
      vertex   3.800000e+01 6.200000e+01 7.100000e+01
      vertex   3.800000e+01 5.900000e+01 7.100000e+01
    endloop
  endfacet
  facet normal -0.000000e+00 -0.000000e+00 -1.000000e+00
    outer loop
      vertex   -7.300000e+01 5.900000e+01 7.100000e+01
      vertex   -7.300000e+01 5.800000e+01 7.100000e+01
      vertex   -7.800000e+01 6.200000e+01 7.100000e+01
    endloop
  endfacet
  facet normal 0.000000e+00 0.000000e+00 -1.000000e+00
    outer loop
      vertex   -7.800000e+01 6.200000e+01 7.100000e+01
      vertex   -7.300000e+01 5.800000e+01 7.100000e+01
      vertex   -6.900000e+01 5.000000e+01 7.100000e+01
    endloop
  endfacet
  facet normal 0.000000e+00 0.000000e+00 -1.000000e+00
    outer loop
      vertex   -7.800000e+01 6.200000e+01 7.100000e+01
      vertex   -6.900000e+01 5.000000e+01 7.100000e+01
      vertex   -6.900000e+01 1.000000e+01 7.100000e+01
    endloop
  endfacet
  facet normal 5.861210e-14 -1.259497e-14 -1.000000e+00
    outer loop
      vertex   -6.400000e+01 5.500000e+01 7.100000e+01
      vertex   -6.449009e+01 5.497592e+01 7.100000e+01
      vertex   -6.335534e+01 5.800000e+01 7.100000e+01
    endloop
  endfacet
  facet normal -1.476305e-15 9.952441e-15 -1.000000e+00
    outer loop
      vertex   -6.335534e+01 5.800000e+01 7.100000e+01
      vertex   -6.449009e+01 5.497592e+01 7.100000e+01
      vertex   -6.497545e+01 5.490393e+01 7.100000e+01
    endloop
  endfacet
  facet normal -2.646315e-15 1.056468e-14 -1.000000e+00
    outer loop
      vertex   -6.335534e+01 5.800000e+01 7.100000e+01
      vertex   -6.497545e+01 5.490393e+01 7.100000e+01
      vertex   -6.545142e+01 5.478470e+01 7.100000e+01
    endloop
  endfacet
  facet normal -2.249759e-15 3.753495e-15 -1.000000e+00
    outer loop
      vertex   -6.635698e+01 5.440961e+01 7.100000e+01
      vertex   -6.677785e+01 5.415735e+01 7.100000e+01
      vertex   -7.300000e+01 5.800000e+01 7.100000e+01
    endloop
  endfacet
  facet normal -2.492397e-15 3.360608e-15 -1.000000e+00
    outer loop
      vertex   -7.300000e+01 5.800000e+01 7.100000e+01
      vertex   -6.677785e+01 5.415735e+01 7.100000e+01
      vertex   -6.717197e+01 5.386505e+01 7.100000e+01
    endloop
  endfacet
  facet normal -2.735422e-15 3.018073e-15 -1.000000e+00
    outer loop
      vertex   -7.300000e+01 5.800000e+01 7.100000e+01
      vertex   -6.717197e+01 5.386505e+01 7.100000e+01
      vertex   -6.753553e+01 5.353553e+01 7.100000e+01
    endloop
  endfacet
  facet normal -2.988355e-15 2.708487e-15 -1.000000e+00
    outer loop
      vertex   -6.753553e+01 5.353553e+01 7.100000e+01
      vertex   -6.786505e+01 5.317197e+01 7.100000e+01
      vertex   -7.300000e+01 5.800000e+01 7.100000e+01
    endloop
  endfacet
  facet normal -3.260993e-15 2.418517e-15 -1.000000e+00
    outer loop
      vertex   -7.300000e+01 5.800000e+01 7.100000e+01
      vertex   -6.786505e+01 5.317197e+01 7.100000e+01
      vertex   -6.815735e+01 5.277785e+01 7.100000e+01
    endloop
  endfacet
  facet normal -3.564884e-15 2.136709e-15 -1.000000e+00
    outer loop
      vertex   -7.300000e+01 5.800000e+01 7.100000e+01
      vertex   -6.815735e+01 5.277785e+01 7.100000e+01
      vertex   -6.840961e+01 5.235698e+01 7.100000e+01
    endloop
  endfacet
  facet normal -3.915191e-15 1.851747e-15 -1.000000e+00
    outer loop
      vertex   -6.840961e+01 5.235698e+01 7.100000e+01
      vertex   -6.861940e+01 5.191342e+01 7.100000e+01
      vertex   -7.300000e+01 5.800000e+01 7.100000e+01
    endloop
  endfacet
  facet normal -4.333624e-15 1.550595e-15 -1.000000e+00
    outer loop
      vertex   -7.300000e+01 5.800000e+01 7.100000e+01
      vertex   -6.861940e+01 5.191342e+01 7.100000e+01
      vertex   -6.878470e+01 5.145142e+01 7.100000e+01
    endloop
  endfacet
  facet normal -4.853739e-15 1.215798e-15 -1.000000e+00
    outer loop
      vertex   -7.300000e+01 5.800000e+01 7.100000e+01
      vertex   -6.878470e+01 5.145142e+01 7.100000e+01
      vertex   -6.890393e+01 5.097545e+01 7.100000e+01
    endloop
  endfacet
  facet normal -5.531596e-15 8.205347e-16 -1.000000e+00
    outer loop
      vertex   -6.890393e+01 5.097545e+01 7.100000e+01
      vertex   -6.897592e+01 5.049009e+01 7.100000e+01
      vertex   -7.300000e+01 5.800000e+01 7.100000e+01
    endloop
  endfacet
  facet normal -1.056101e-13 -5.280505e-14 -1.000000e+00
    outer loop
      vertex   -7.300000e+01 5.800000e+01 7.100000e+01
      vertex   -6.897592e+01 5.049009e+01 7.100000e+01
      vertex   -6.900000e+01 5.000000e+01 7.100000e+01
    endloop
  endfacet
  facet normal 1.413960e-13 -6.588059e-29 -1.000000e+00
    outer loop
      vertex   3.800000e+01 5.800000e+01 7.100000e+01
      vertex   3.800000e+01 -3.000000e+00 7.100000e+01
      vertex   3.789950e+01 1.000000e+00 7.100000e+01
    endloop
  endfacet
  facet normal -4.241880e-13 -1.421085e-14 -1.000000e+00
    outer loop
      vertex   3.789950e+01 1.000000e+00 7.100000e+01
      vertex   3.800000e+01 -3.000000e+00 7.100000e+01
      vertex   3.789950e+01 -8.881784e-15 7.100000e+01
    endloop
  endfacet
  facet normal -9.987955e-01 4.906767e-02 4.731244e-15
    outer loop
      vertex   3.500000e+01 1.000000e+01 7.400000e+01
      vertex   3.500000e+01 1.000000e+01 7.100000e+01
      vertex   3.497592e+01 9.509914e+00 7.400000e+01
    endloop
  endfacet
  facet normal -9.987955e-01 4.906767e-02 4.760298e-15
    outer loop
      vertex   3.497592e+01 9.509914e+00 7.400000e+01
      vertex   3.500000e+01 1.000000e+01 7.100000e+01
      vertex   3.497592e+01 9.509914e+00 7.100000e+01
    endloop
  endfacet
  facet normal -9.891765e-01 1.467305e-01 4.772561e-15
    outer loop
      vertex   3.497592e+01 9.509914e+00 7.400000e+01
      vertex   3.497592e+01 9.509914e+00 7.100000e+01
      vertex   3.490393e+01 9.024548e+00 7.100000e+01
    endloop
  endfacet
  facet normal -9.891765e-01 1.467305e-01 2.342770e-15
    outer loop
      vertex   3.497592e+01 9.509914e+00 7.400000e+01
      vertex   3.490393e+01 9.024548e+00 7.100000e+01
      vertex   3.490393e+01 9.024548e+00 7.400000e+01
    endloop
  endfacet
  facet normal -9.700313e-01 2.429802e-01 2.297495e-15
    outer loop
      vertex   3.490393e+01 9.024548e+00 7.400000e+01
      vertex   3.490393e+01 9.024548e+00 7.100000e+01
      vertex   3.478470e+01 8.548577e+00 7.100000e+01
    endloop
  endfacet
  facet normal -9.700313e-01 2.429802e-01 4.591264e-15
    outer loop
      vertex   3.490393e+01 9.024548e+00 7.400000e+01
      vertex   3.478470e+01 8.548577e+00 7.100000e+01
      vertex   3.478470e+01 8.548577e+00 7.400000e+01
    endloop
  endfacet
  facet normal -9.415441e-01 3.368899e-01 4.460047e-15
    outer loop
      vertex   3.478470e+01 8.548577e+00 7.400000e+01
      vertex   3.478470e+01 8.548577e+00 7.100000e+01
      vertex   3.461940e+01 8.086583e+00 7.100000e+01
    endloop
  endfacet
  facet normal -9.415441e-01 3.368899e-01 2.234353e-15
    outer loop
      vertex   3.478470e+01 8.548577e+00 7.400000e+01
      vertex   3.461940e+01 8.086583e+00 7.100000e+01
      vertex   3.461940e+01 8.086583e+00 7.400000e+01
    endloop
  endfacet
  facet normal -9.039893e-01 4.275551e-01 2.141076e-15
    outer loop
      vertex   3.461940e+01 8.086583e+00 7.400000e+01
      vertex   3.461940e+01 8.086583e+00 7.100000e+01
      vertex   3.440961e+01 7.643016e+00 7.100000e+01
    endloop
  endfacet
  facet normal -9.039893e-01 4.275551e-01 2.394623e-15
    outer loop
      vertex   3.461940e+01 8.086583e+00 7.400000e+01
      vertex   3.440961e+01 7.643016e+00 7.100000e+01
      vertex   3.440961e+01 7.643016e+00 7.400000e+01
    endloop
  endfacet
  facet normal -8.577286e-01 5.141027e-01 2.335919e-15
    outer loop
      vertex   3.440961e+01 7.643016e+00 7.400000e+01
      vertex   3.440961e+01 7.643016e+00 7.100000e+01
      vertex   3.415735e+01 7.222149e+00 7.100000e+01
    endloop
  endfacet
  facet normal -8.577286e-01 5.141027e-01 4.063316e-15
    outer loop
      vertex   3.440961e+01 7.643016e+00 7.400000e+01
      vertex   3.415735e+01 7.222149e+00 7.100000e+01
      vertex   3.415735e+01 7.222149e+00 7.400000e+01
    endloop
  endfacet
  facet normal -8.032075e-01 5.956993e-01 3.804754e-15
    outer loop
      vertex   3.415735e+01 7.222149e+00 7.400000e+01
      vertex   3.415735e+01 7.222149e+00 7.100000e+01
      vertex   3.386505e+01 6.828034e+00 7.100000e+01
    endloop
  endfacet
  facet normal -8.032075e-01 5.956993e-01 1.904385e-15
    outer loop
      vertex   3.415735e+01 7.222149e+00 7.400000e+01
      vertex   3.386505e+01 6.828034e+00 7.100000e+01
      vertex   3.386505e+01 6.828034e+00 7.400000e+01
    endloop
  endfacet
  facet normal -7.409511e-01 6.715590e-01 1.754924e-15
    outer loop
      vertex   3.386505e+01 6.828034e+00 7.400000e+01
      vertex   3.386505e+01 6.828034e+00 7.100000e+01
      vertex   3.353553e+01 6.464466e+00 7.100000e+01
    endloop
  endfacet
  facet normal -7.409511e-01 6.715590e-01 3.507085e-15
    outer loop
      vertex   3.386505e+01 6.828034e+00 7.400000e+01
      vertex   3.353553e+01 6.464466e+00 7.100000e+01
      vertex   3.353553e+01 6.464466e+00 7.400000e+01
    endloop
  endfacet
  facet normal -6.715590e-01 7.409511e-01 3.181141e-15
    outer loop
      vertex   3.353553e+01 6.464466e+00 7.400000e+01
      vertex   3.353553e+01 6.464466e+00 7.100000e+01
      vertex   3.317197e+01 6.134948e+00 7.100000e+01
    endloop
  endfacet
  facet normal -6.715590e-01 7.409511e-01 3.177117e-15
    outer loop
      vertex   3.353553e+01 6.464466e+00 7.400000e+01
      vertex   3.317197e+01 6.134948e+00 7.100000e+01
      vertex   3.317197e+01 6.134948e+00 7.400000e+01
    endloop
  endfacet
  facet normal -5.956993e-01 8.032075e-01 2.821798e-15
    outer loop
      vertex   3.317197e+01 6.134948e+00 7.400000e+01
      vertex   3.317197e+01 6.134948e+00 7.100000e+01
      vertex   3.277785e+01 5.842652e+00 7.100000e+01
    endloop
  endfacet
  facet normal -5.956993e-01 8.032075e-01 1.404720e-15
    outer loop
      vertex   3.317197e+01 6.134948e+00 7.400000e+01
      vertex   3.277785e+01 5.842652e+00 7.100000e+01
      vertex   3.277785e+01 5.842652e+00 7.400000e+01
    endloop
  endfacet
  facet normal -5.141027e-01 8.577286e-01 1.217639e-15
    outer loop
      vertex   3.277785e+01 5.842652e+00 7.400000e+01
      vertex   3.277785e+01 5.842652e+00 7.100000e+01
      vertex   3.235698e+01 5.590394e+00 7.100000e+01
    endloop
  endfacet
  facet normal -5.141027e-01 8.577286e-01 1.216167e-15
    outer loop
      vertex   3.277785e+01 5.842652e+00 7.400000e+01
      vertex   3.235698e+01 5.590394e+00 7.100000e+01
      vertex   3.235698e+01 5.590394e+00 7.400000e+01
    endloop
  endfacet
  facet normal -4.275551e-01 9.039893e-01 1.012654e-15
    outer loop
      vertex   3.235698e+01 5.590394e+00 7.400000e+01
      vertex   3.235698e+01 5.590394e+00 7.100000e+01
      vertex   3.191342e+01 5.380602e+00 7.100000e+01
    endloop
  endfacet
  facet normal -4.275551e-01 9.039893e-01 1.008758e-15
    outer loop
      vertex   3.235698e+01 5.590394e+00 7.400000e+01
      vertex   3.191342e+01 5.380602e+00 7.100000e+01
      vertex   3.191342e+01 5.380602e+00 7.400000e+01
    endloop
  endfacet
  facet normal -3.368899e-01 9.415441e-01 7.979152e-16
    outer loop
      vertex   3.191342e+01 5.380602e+00 7.400000e+01
      vertex   3.191342e+01 5.380602e+00 7.100000e+01
      vertex   3.145142e+01 5.215298e+00 7.100000e+01
    endloop
  endfacet
  facet normal -3.368899e-01 9.415441e-01 1.593272e-15
    outer loop
      vertex   3.191342e+01 5.380602e+00 7.400000e+01
      vertex   3.145142e+01 5.215298e+00 7.100000e+01
      vertex   3.145142e+01 5.215298e+00 7.400000e+01
    endloop
  endfacet
  facet normal -2.429802e-01 9.700313e-01 1.150985e-15
    outer loop
      vertex   3.145142e+01 5.215298e+00 7.400000e+01
      vertex   3.145142e+01 5.215298e+00 7.100000e+01
      vertex   3.097545e+01 5.096074e+00 7.100000e+01
    endloop
  endfacet
  facet normal -2.429802e-01 9.700313e-01 8.626298e-16
    outer loop
      vertex   3.145142e+01 5.215298e+00 7.400000e+01
      vertex   3.097545e+01 5.096074e+00 7.100000e+01
      vertex   3.097545e+01 5.096074e+00 7.400000e+01
    endloop
  endfacet
  facet normal -1.467305e-01 9.891765e-01 5.212912e-16
    outer loop
      vertex   3.097545e+01 5.096074e+00 7.400000e+01
      vertex   3.097545e+01 5.096074e+00 7.100000e+01
      vertex   3.049009e+01 5.024076e+00 7.100000e+01
    endloop
  endfacet
  facet normal -1.467305e-01 9.891765e-01 3.488230e-16
    outer loop
      vertex   3.097545e+01 5.096074e+00 7.400000e+01
      vertex   3.049009e+01 5.024076e+00 7.100000e+01
      vertex   3.049009e+01 5.024076e+00 7.400000e+01
    endloop
  endfacet
  facet normal -4.906767e-02 9.987955e-01 1.162156e-16
    outer loop
      vertex   3.049009e+01 5.024076e+00 7.400000e+01
      vertex   3.049009e+01 5.024076e+00 7.100000e+01
      vertex   3.000000e+01 5.000000e+00 7.400000e+01
    endloop
  endfacet
  facet normal -4.906767e-02 9.987955e-01 -2.782704e-15
    outer loop
      vertex   3.000000e+01 5.000000e+00 7.400000e+01
      vertex   3.049009e+01 5.024076e+00 7.100000e+01
      vertex   3.000000e+01 5.000000e+00 7.100000e+01
    endloop
  endfacet
  facet normal -4.906767e-02 -9.987955e-01 -4.615028e-15
    outer loop
      vertex   3.000000e+01 5.500000e+01 7.400000e+01
      vertex   3.000000e+01 5.500000e+01 7.100000e+01
      vertex   3.049009e+01 5.497592e+01 7.400000e+01
    endloop
  endfacet
  facet normal -4.906767e-02 -9.987955e-01 -6.922543e-15
    outer loop
      vertex   3.049009e+01 5.497592e+01 7.400000e+01
      vertex   3.000000e+01 5.500000e+01 7.100000e+01
      vertex   3.049009e+01 5.497592e+01 7.100000e+01
    endloop
  endfacet
  facet normal -1.467305e-01 -9.891765e-01 -6.507228e-15
    outer loop
      vertex   3.049009e+01 5.497592e+01 7.400000e+01
      vertex   3.049009e+01 5.497592e+01 7.100000e+01
      vertex   3.097545e+01 5.490393e+01 7.100000e+01
    endloop
  endfacet
  facet normal -1.467305e-01 -9.891765e-01 -4.341432e-15
    outer loop
      vertex   3.049009e+01 5.497592e+01 7.400000e+01
      vertex   3.097545e+01 5.490393e+01 7.100000e+01
      vertex   3.097545e+01 5.490393e+01 7.400000e+01
    endloop
  endfacet
  facet normal -2.429802e-01 -9.700313e-01 -4.019497e-15
    outer loop
      vertex   3.097545e+01 5.490393e+01 7.400000e+01
      vertex   3.097545e+01 5.490393e+01 7.100000e+01
      vertex   3.145142e+01 5.478470e+01 7.100000e+01
    endloop
  endfacet
  facet normal -2.429802e-01 -9.700313e-01 -4.303721e-15
    outer loop
      vertex   3.097545e+01 5.490393e+01 7.400000e+01
      vertex   3.145142e+01 5.478470e+01 7.100000e+01
      vertex   3.145142e+01 5.478470e+01 7.400000e+01
    endloop
  endfacet
  facet normal -3.368899e-01 -9.415441e-01 -4.061089e-15
    outer loop
      vertex   3.145142e+01 5.478470e+01 7.400000e+01
      vertex   3.145142e+01 5.478470e+01 7.100000e+01
      vertex   3.191342e+01 5.461940e+01 7.100000e+01
    endloop
  endfacet
  facet normal -3.368899e-01 -9.415441e-01 -5.892280e-15
    outer loop
      vertex   3.145142e+01 5.478470e+01 7.400000e+01
      vertex   3.191342e+01 5.461940e+01 7.100000e+01
      vertex   3.191342e+01 5.461940e+01 7.400000e+01
    endloop
  endfacet
  facet normal -4.275551e-01 -9.039893e-01 -5.410574e-15
    outer loop
      vertex   3.191342e+01 5.461940e+01 7.400000e+01
      vertex   3.191342e+01 5.461940e+01 7.100000e+01
      vertex   3.235698e+01 5.440961e+01 7.100000e+01
    endloop
  endfacet
  facet normal -4.275551e-01 -9.039893e-01 -3.271394e-15
    outer loop
      vertex   3.191342e+01 5.461940e+01 7.400000e+01
      vertex   3.235698e+01 5.440961e+01 7.100000e+01
      vertex   3.235698e+01 5.440961e+01 7.400000e+01
    endloop
  endfacet
  facet normal -5.141027e-01 -8.577286e-01 -2.845378e-15
    outer loop
      vertex   3.235698e+01 5.440961e+01 7.400000e+01
      vertex   3.235698e+01 5.440961e+01 7.100000e+01
      vertex   3.277785e+01 5.415735e+01 7.100000e+01
    endloop
  endfacet
  facet normal -5.141027e-01 -8.577286e-01 -4.874094e-15
    outer loop
      vertex   3.235698e+01 5.440961e+01 7.400000e+01
      vertex   3.277785e+01 5.415735e+01 7.100000e+01
      vertex   3.277785e+01 5.415735e+01 7.400000e+01
    endloop
  endfacet
  facet normal -5.956993e-01 -8.032075e-01 -4.296232e-15
    outer loop
      vertex   3.277785e+01 5.415735e+01 7.400000e+01
      vertex   3.277785e+01 5.415735e+01 7.100000e+01
      vertex   3.317197e+01 5.386505e+01 7.100000e+01
    endloop
  endfacet
  facet normal -5.956993e-01 -8.032075e-01 -4.299007e-15
    outer loop
      vertex   3.277785e+01 5.415735e+01 7.400000e+01
      vertex   3.317197e+01 5.386505e+01 7.100000e+01
      vertex   3.317197e+01 5.386505e+01 7.400000e+01
    endloop
  endfacet
  facet normal -6.715590e-01 -7.409511e-01 -3.674202e-15
    outer loop
      vertex   3.317197e+01 5.386505e+01 7.400000e+01
      vertex   3.317197e+01 5.386505e+01 7.100000e+01
      vertex   3.353553e+01 5.353553e+01 7.100000e+01
    endloop
  endfacet
  facet normal -6.715590e-01 -7.409511e-01 -3.676783e-15
    outer loop
      vertex   3.317197e+01 5.386505e+01 7.400000e+01
      vertex   3.353553e+01 5.353553e+01 7.100000e+01
      vertex   3.353553e+01 5.353553e+01 7.400000e+01
    endloop
  endfacet
  facet normal -7.409511e-01 -6.715590e-01 -3.016787e-15
    outer loop
      vertex   3.353553e+01 5.353553e+01 7.400000e+01
      vertex   3.353553e+01 5.353553e+01 7.100000e+01
      vertex   3.386505e+01 5.317197e+01 7.100000e+01
    endloop
  endfacet
  facet normal -7.409511e-01 -6.715590e-01 -1.423575e-15
    outer loop
      vertex   3.353553e+01 5.353553e+01 7.400000e+01
      vertex   3.386505e+01 5.317197e+01 7.100000e+01
      vertex   3.386505e+01 5.317197e+01 7.400000e+01
    endloop
  endfacet
  facet normal -8.032075e-01 -5.956993e-01 -9.194208e-16
    outer loop
      vertex   3.386505e+01 5.317197e+01 7.400000e+01
      vertex   3.386505e+01 5.317197e+01 7.100000e+01
      vertex   3.415735e+01 5.277785e+01 7.100000e+01
    endloop
  endfacet
  facet normal -8.032075e-01 -5.956993e-01 -2.328629e-15
    outer loop
      vertex   3.386505e+01 5.317197e+01 7.400000e+01
      vertex   3.415735e+01 5.277785e+01 7.100000e+01
      vertex   3.415735e+01 5.277785e+01 7.400000e+01
    endloop
  endfacet
  facet normal -8.577286e-01 -5.141027e-01 -1.621410e-15
    outer loop
      vertex   3.415735e+01 5.277785e+01 7.400000e+01
      vertex   3.415735e+01 5.277785e+01 7.100000e+01
      vertex   3.440961e+01 5.235698e+01 7.100000e+01
    endloop
  endfacet
  facet normal -8.577286e-01 -5.141027e-01 -1.621555e-15
    outer loop
      vertex   3.415735e+01 5.277785e+01 7.400000e+01
      vertex   3.440961e+01 5.235698e+01 7.100000e+01
      vertex   3.440961e+01 5.235698e+01 7.400000e+01
    endloop
  endfacet
  facet normal -9.039893e-01 -4.275551e-01 -8.968846e-16
    outer loop
      vertex   3.440961e+01 5.235698e+01 7.400000e+01
      vertex   3.440961e+01 5.235698e+01 7.100000e+01
      vertex   3.461940e+01 5.191342e+01 7.100000e+01
    endloop
  endfacet
  facet normal -9.039893e-01 -4.275551e-01 1.225594e-16
    outer loop
      vertex   3.440961e+01 5.235698e+01 7.400000e+01
      vertex   3.461940e+01 5.191342e+01 7.100000e+01
      vertex   3.461940e+01 5.191342e+01 7.400000e+01
    endloop
  endfacet
  facet normal -9.415441e-01 -3.368899e-01 6.341932e-16
    outer loop
      vertex   3.461940e+01 5.191342e+01 7.400000e+01
      vertex   3.461940e+01 5.191342e+01 7.100000e+01
      vertex   3.478470e+01 5.145142e+01 7.100000e+01
    endloop
  endfacet
  facet normal -9.415441e-01 -3.368899e-01 6.316524e-16
    outer loop
      vertex   3.461940e+01 5.191342e+01 7.400000e+01
      vertex   3.478470e+01 5.145142e+01 7.100000e+01
      vertex   3.478470e+01 5.145142e+01 7.400000e+01
    endloop
  endfacet
  facet normal -9.700313e-01 -2.429802e-01 1.146510e-15
    outer loop
      vertex   3.478470e+01 5.145142e+01 7.400000e+01
      vertex   3.478470e+01 5.145142e+01 7.100000e+01
      vertex   3.490393e+01 5.097545e+01 7.100000e+01
    endloop
  endfacet
  facet normal -9.700313e-01 -2.429802e-01 5.750865e-16
    outer loop
      vertex   3.478470e+01 5.145142e+01 7.400000e+01
      vertex   3.490393e+01 5.097545e+01 7.100000e+01
      vertex   3.490393e+01 5.097545e+01 7.400000e+01
    endloop
  endfacet
  facet normal -9.891765e-01 -1.467305e-01 1.300257e-15
    outer loop
      vertex   3.490393e+01 5.097545e+01 7.400000e+01
      vertex   3.490393e+01 5.097545e+01 7.100000e+01
      vertex   3.497592e+01 5.049009e+01 7.100000e+01
    endloop
  endfacet
  facet normal -9.891765e-01 -1.467305e-01 1.645125e-15
    outer loop
      vertex   3.490393e+01 5.097545e+01 7.400000e+01
      vertex   3.497592e+01 5.049009e+01 7.100000e+01
      vertex   3.497592e+01 5.049009e+01 7.400000e+01
    endloop
  endfacet
  facet normal -9.987955e-01 -4.906767e-02 2.133191e-15
    outer loop
      vertex   3.497592e+01 5.049009e+01 7.400000e+01
      vertex   3.497592e+01 5.049009e+01 7.100000e+01
      vertex   3.500000e+01 5.000000e+01 7.400000e+01
    endloop
  endfacet
  facet normal -9.987955e-01 -4.906767e-02 2.249406e-15
    outer loop
      vertex   3.500000e+01 5.000000e+01 7.400000e+01
      vertex   3.497592e+01 5.049009e+01 7.100000e+01
      vertex   3.500000e+01 5.000000e+01 7.100000e+01
    endloop
  endfacet
  facet normal -1.000000e+00 -3.552714e-16 4.736950e-15
    outer loop
      vertex   3.500000e+01 1.000000e+01 7.400000e+01
      vertex   3.500000e+01 5.000000e+01 7.400000e+01
      vertex   3.500000e+01 1.000000e+01 7.100000e+01
    endloop
  endfacet
  facet normal -1.000000e+00 -1.776357e-16 2.368475e-15
    outer loop
      vertex   3.500000e+01 1.000000e+01 7.100000e+01
      vertex   3.500000e+01 5.000000e+01 7.400000e+01
      vertex   3.500000e+01 5.000000e+01 7.100000e+01
    endloop
  endfacet
  facet normal 1.294541e-30 2.186285e-16 -1.000000e+00
    outer loop
      vertex   4.100000e+01 -3.000000e+00 5.700000e+01
      vertex   3.800000e+01 -3.000000e+00 5.700000e+01
      vertex   4.100000e+01 6.200000e+01 5.700000e+01
    endloop
  endfacet
  facet normal 0.000000e+00 2.186285e-16 -1.000000e+00
    outer loop
      vertex   4.100000e+01 6.200000e+01 5.700000e+01
      vertex   3.800000e+01 -3.000000e+00 5.700000e+01
      vertex   3.800000e+01 6.200000e+01 5.700000e+01
    endloop
  endfacet
  facet normal 2.847096e-15 1.000000e+00 -7.105427e-16
    outer loop
      vertex   3.800000e+01 5.900000e+01 6.100000e+01
      vertex   2.801730e+01 5.900000e+01 7.100000e+01
      vertex   3.800000e+01 5.900000e+01 7.100000e+01
    endloop
  endfacet
  facet normal -2.847096e-15 -1.000000e+00 7.105427e-16
    outer loop
      vertex   3.800000e+01 5.800000e+01 6.100000e+01
      vertex   3.800000e+01 5.800000e+01 7.100000e+01
      vertex   2.801730e+01 5.800000e+01 7.100000e+01
    endloop
  endfacet
  facet normal 1.225074e-16 1.000000e+00 -0.000000e+00
    outer loop
      vertex   -7.800000e+01 6.200000e+01 7.100000e+01
      vertex   -7.800000e+01 6.200000e+01 7.400000e+01
      vertex   3.800000e+01 6.200000e+01 7.100000e+01
    endloop
  endfacet
  facet normal 1.194189e-16 1.000000e+00 -1.194189e-16
    outer loop
      vertex   3.800000e+01 6.200000e+01 7.100000e+01
      vertex   -7.800000e+01 6.200000e+01 7.400000e+01
      vertex   4.100000e+01 6.200000e+01 7.400000e+01
    endloop
  endfacet
  facet normal -8.359329e-16 1.000000e+00 8.359326e-16
    outer loop
      vertex   3.800000e+01 6.200000e+01 7.100000e+01
      vertex   4.100000e+01 6.200000e+01 7.400000e+01
      vertex   4.100000e+01 6.200000e+01 5.700000e+01
    endloop
  endfacet
  facet normal 0.000000e+00 1.000000e+00 1.015061e-15
    outer loop
      vertex   4.100000e+01 6.200000e+01 5.700000e+01
      vertex   3.800000e+01 6.200000e+01 5.700000e+01
      vertex   3.800000e+01 6.200000e+01 7.100000e+01
    endloop
  endfacet
  facet normal -8.881785e-16 1.000000e+00 0.000000e+00
    outer loop
      vertex   3.800000e+01 1.000000e+00 6.100000e+01
      vertex   2.800000e+01 1.000000e+00 7.100000e+01
      vertex   3.800000e+01 1.000000e+00 7.089949e+01
    endloop
  endfacet
  facet normal 0.000000e+00 1.000000e+00 8.837249e-14
    outer loop
      vertex   3.800000e+01 1.000000e+00 7.089949e+01
      vertex   2.800000e+01 1.000000e+00 7.100000e+01
      vertex   3.789950e+01 1.000000e+00 7.100000e+01
    endloop
  endfacet
  facet normal 7.071068e-01 1.004859e-14 7.071068e-01
    outer loop
      vertex   3.789950e+01 -8.881784e-15 7.100000e+01
      vertex   3.800000e+01 -8.881784e-15 7.089949e+01
      vertex   3.789950e+01 1.000000e+00 7.100000e+01
    endloop
  endfacet
  facet normal 7.071068e-01 0.000000e+00 7.071068e-01
    outer loop
      vertex   3.789950e+01 1.000000e+00 7.100000e+01
      vertex   3.800000e+01 -8.881784e-15 7.089949e+01
      vertex   3.800000e+01 1.000000e+00 7.089949e+01
    endloop
  endfacet
  facet normal -0.000000e+00 -1.000000e+00 -0.000000e+00
    outer loop
      vertex   3.800000e+01 -8.881784e-15 7.089949e+01
      vertex   3.789950e+01 -8.881784e-15 7.100000e+01
      vertex   3.800000e+01 -8.881784e-15 6.100000e+01
    endloop
  endfacet
  facet normal 8.971957e-16 -1.000000e+00 9.017172e-18
    outer loop
      vertex   3.800000e+01 -8.881784e-15 6.100000e+01
      vertex   3.789950e+01 -8.881784e-15 7.100000e+01
      vertex   2.800000e+01 -1.776357e-14 7.100000e+01
    endloop
  endfacet
  facet normal 1.000000e+00 9.137936e-32 -4.179663e-16
    outer loop
      vertex   4.100000e+01 6.200000e+01 5.700000e+01
      vertex   4.100000e+01 6.200000e+01 7.400000e+01
      vertex   4.100000e+01 -3.000000e+00 5.700000e+01
    endloop
  endfacet
  facet normal 1.000000e+00 0.000000e+00 -4.179663e-16
    outer loop
      vertex   4.100000e+01 -3.000000e+00 5.700000e+01
      vertex   4.100000e+01 6.200000e+01 7.400000e+01
      vertex   4.100000e+01 -3.000000e+00 7.400000e+01
    endloop
  endfacet
  facet normal 1.511793e-16 -2.375675e-16 1.000000e+00
    outer loop
      vertex   3.000000e+01 5.500000e+01 7.400000e+01
      vertex   4.100000e+01 6.200000e+01 7.400000e+01
      vertex   -6.400000e+01 5.500000e+01 7.400000e+01
    endloop
  endfacet
  facet normal 2.388379e-16 -1.552446e-15 1.000000e+00
    outer loop
      vertex   -6.400000e+01 5.500000e+01 7.400000e+01
      vertex   4.100000e+01 6.200000e+01 7.400000e+01
      vertex   -7.800000e+01 6.200000e+01 7.400000e+01
    endloop
  endfacet
  facet normal 9.081100e-17 -1.848500e-15 1.000000e+00
    outer loop
      vertex   -6.400000e+01 5.500000e+01 7.400000e+01
      vertex   -7.800000e+01 6.200000e+01 7.400000e+01
      vertex   -6.449009e+01 5.497592e+01 7.400000e+01
    endloop
  endfacet
  facet normal 2.334916e-16 -1.574072e-15 1.000000e+00
    outer loop
      vertex   -6.449009e+01 5.497592e+01 7.400000e+01
      vertex   -7.800000e+01 6.200000e+01 7.400000e+01
      vertex   -6.497545e+01 5.490393e+01 7.400000e+01
    endloop
  endfacet
  facet normal 3.436420e-16 -1.371896e-15 1.000000e+00
    outer loop
      vertex   -6.497545e+01 5.490393e+01 7.400000e+01
      vertex   -7.800000e+01 6.200000e+01 7.400000e+01
      vertex   -6.545142e+01 5.478470e+01 7.400000e+01
    endloop
  endfacet
  facet normal 4.343970e-16 -1.214058e-15 1.000000e+00
    outer loop
      vertex   -6.545142e+01 5.478470e+01 7.400000e+01
      vertex   -7.800000e+01 6.200000e+01 7.400000e+01
      vertex   -6.591342e+01 5.461940e+01 7.400000e+01
    endloop
  endfacet
  facet normal 5.131837e-16 -1.085036e-15 1.000000e+00
    outer loop
      vertex   -6.591342e+01 5.461940e+01 7.400000e+01
      vertex   -7.800000e+01 6.200000e+01 7.400000e+01
      vertex   -6.635698e+01 5.440961e+01 7.400000e+01
    endloop
  endfacet
  facet normal 5.846447e-16 -9.754208e-16 1.000000e+00
    outer loop
      vertex   -6.635698e+01 5.440961e+01 7.400000e+01
      vertex   -7.800000e+01 6.200000e+01 7.400000e+01
      vertex   -6.677785e+01 5.415735e+01 7.400000e+01
    endloop
  endfacet
  facet normal 6.519716e-16 -8.790819e-16 1.000000e+00
    outer loop
      vertex   -6.677785e+01 5.415735e+01 7.400000e+01
      vertex   -7.800000e+01 6.200000e+01 7.400000e+01
      vertex   -6.717197e+01 5.386505e+01 7.400000e+01
    endloop
  endfacet
  facet normal 7.175908e-16 -7.917394e-16 1.000000e+00
    outer loop
      vertex   -6.717197e+01 5.386505e+01 7.400000e+01
      vertex   -7.800000e+01 6.200000e+01 7.400000e+01
      vertex   -6.753553e+01 5.353553e+01 7.400000e+01
    endloop
  endfacet
  facet normal 7.835625e-16 -7.101797e-16 1.000000e+00
    outer loop
      vertex   -6.753553e+01 5.353553e+01 7.400000e+01
      vertex   -7.800000e+01 6.200000e+01 7.400000e+01
      vertex   -6.786505e+01 5.317197e+01 7.400000e+01
    endloop
  endfacet
  facet normal 8.518541e-16 -6.317781e-16 1.000000e+00
    outer loop
      vertex   -6.786505e+01 5.317197e+01 7.400000e+01
      vertex   -7.800000e+01 6.200000e+01 7.400000e+01
      vertex   -6.815735e+01 5.277785e+01 7.400000e+01
    endloop
  endfacet
  facet normal 9.245722e-16 -5.541672e-16 1.000000e+00
    outer loop
      vertex   -6.815735e+01 5.277785e+01 7.400000e+01
      vertex   -7.800000e+01 6.200000e+01 7.400000e+01
      vertex   -6.840961e+01 5.235698e+01 7.400000e+01
    endloop
  endfacet
  facet normal 1.004215e-15 -4.749586e-16 1.000000e+00
    outer loop
      vertex   -6.840961e+01 5.235698e+01 7.400000e+01
      vertex   -7.800000e+01 6.200000e+01 7.400000e+01
      vertex   -6.861940e+01 5.191342e+01 7.400000e+01
    endloop
  endfacet
  facet normal 1.094015e-15 -3.914447e-16 1.000000e+00
    outer loop
      vertex   -6.861940e+01 5.191342e+01 7.400000e+01
      vertex   -7.800000e+01 6.200000e+01 7.400000e+01
      vertex   -6.878470e+01 5.145142e+01 7.400000e+01
    endloop
  endfacet
  facet normal 1.198462e-15 -3.001990e-16 1.000000e+00
    outer loop
      vertex   -6.878470e+01 5.145142e+01 7.400000e+01
      vertex   -7.800000e+01 6.200000e+01 7.400000e+01
      vertex   -6.890393e+01 5.097545e+01 7.400000e+01
    endloop
  endfacet
  facet normal 1.324230e-15 -1.964309e-16 1.000000e+00
    outer loop
      vertex   -6.890393e+01 5.097545e+01 7.400000e+01
      vertex   -7.800000e+01 6.200000e+01 7.400000e+01
      vertex   -6.897592e+01 5.049009e+01 7.400000e+01
    endloop
  endfacet
  facet normal 1.058925e-13 8.178785e-14 1.000000e+00
    outer loop
      vertex   -6.897592e+01 5.049009e+01 7.400000e+01
      vertex   -7.800000e+01 6.200000e+01 7.400000e+01
      vertex   -6.900000e+01 5.000000e+01 7.400000e+01
    endloop
  endfacet
  facet normal -4.105358e-15 -7.105427e-16 1.000000e+00
    outer loop
      vertex   -6.900000e+01 5.000000e+01 7.400000e+01
      vertex   -7.800000e+01 6.200000e+01 7.400000e+01
      vertex   -6.900000e+01 1.000000e+01 7.400000e+01
    endloop
  endfacet
  facet normal 0.000000e+00 0.000000e+00 1.000000e+00
    outer loop
      vertex   -6.900000e+01 1.000000e+01 7.400000e+01
      vertex   -7.800000e+01 6.200000e+01 7.400000e+01
      vertex   -7.800000e+01 -3.000000e+00 7.400000e+01
    endloop
  endfacet
  facet normal -7.821776e-14 5.415075e-14 1.000000e+00
    outer loop
      vertex   -6.900000e+01 1.000000e+01 7.400000e+01
      vertex   -7.800000e+01 -3.000000e+00 7.400000e+01
      vertex   -6.897592e+01 9.509914e+00 7.400000e+01
    endloop
  endfacet
  facet normal -2.612350e-15 -3.875056e-16 1.000000e+00
    outer loop
      vertex   -6.897592e+01 9.509914e+00 7.400000e+01
      vertex   -7.800000e+01 -3.000000e+00 7.400000e+01
      vertex   -6.890393e+01 9.024548e+00 7.400000e+01
    endloop
  endfacet
  facet normal -2.347337e-15 -5.879773e-16 1.000000e+00
    outer loop
      vertex   -6.890393e+01 9.024548e+00 7.400000e+01
      vertex   -7.800000e+01 -3.000000e+00 7.400000e+01
      vertex   -6.878470e+01 8.548577e+00 7.400000e+01
    endloop
  endfacet
  facet normal -2.129374e-15 -7.619024e-16 1.000000e+00
    outer loop
      vertex   -6.878470e+01 8.548577e+00 7.400000e+01
      vertex   -7.800000e+01 -3.000000e+00 7.400000e+01
      vertex   -6.861940e+01 8.086583e+00 7.400000e+01
    endloop
  endfacet
  facet normal -1.943476e-15 -9.191955e-16 1.000000e+00
    outer loop
      vertex   -6.861940e+01 8.086583e+00 7.400000e+01
      vertex   -7.800000e+01 -3.000000e+00 7.400000e+01
      vertex   -6.840961e+01 7.643016e+00 7.400000e+01
    endloop
  endfacet
  facet normal -1.779741e-15 -1.066736e-15 1.000000e+00
    outer loop
      vertex   -6.840961e+01 7.643016e+00 7.400000e+01
      vertex   -7.800000e+01 -3.000000e+00 7.400000e+01
      vertex   -6.815735e+01 7.222149e+00 7.400000e+01
    endloop
  endfacet
  facet normal -1.631190e-15 -1.209773e-15 1.000000e+00
    outer loop
      vertex   -6.815735e+01 7.222149e+00 7.400000e+01
      vertex   -7.800000e+01 -3.000000e+00 7.400000e+01
      vertex   -6.786505e+01 6.828034e+00 7.400000e+01
    endloop
  endfacet
  facet normal -1.492536e-15 -1.352756e-15 1.000000e+00
    outer loop
      vertex   -6.786505e+01 6.828034e+00 7.400000e+01
      vertex   -7.800000e+01 -3.000000e+00 7.400000e+01
      vertex   -6.753553e+01 6.464466e+00 7.400000e+01
    endloop
  endfacet
  facet normal -1.359442e-15 -1.499913e-15 1.000000e+00
    outer loop
      vertex   -6.753553e+01 6.464466e+00 7.400000e+01
      vertex   -7.800000e+01 -3.000000e+00 7.400000e+01
      vertex   -6.717197e+01 6.134948e+00 7.400000e+01
    endloop
  endfacet
  facet normal -1.227980e-15 -1.655740e-15 1.000000e+00
    outer loop
      vertex   -6.717197e+01 6.134948e+00 7.400000e+01
      vertex   -7.800000e+01 -3.000000e+00 7.400000e+01
      vertex   -6.677785e+01 5.842652e+00 7.400000e+01
    endloop
  endfacet
  facet normal -1.094185e-15 -1.825538e-15 1.000000e+00
    outer loop
      vertex   -6.677785e+01 5.842652e+00 7.400000e+01
      vertex   -7.800000e+01 -3.000000e+00 7.400000e+01
      vertex   -6.635698e+01 5.590394e+00 7.400000e+01
    endloop
  endfacet
  facet normal -9.535606e-16 -2.016134e-15 1.000000e+00
    outer loop
      vertex   -6.635698e+01 5.590394e+00 7.400000e+01
      vertex   -7.800000e+01 -3.000000e+00 7.400000e+01
      vertex   -6.591342e+01 5.380602e+00 7.400000e+01
    endloop
  endfacet
  facet normal -8.004132e-16 -2.237005e-15 1.000000e+00
    outer loop
      vertex   -6.591342e+01 5.380602e+00 7.400000e+01
      vertex   -7.800000e+01 -3.000000e+00 7.400000e+01
      vertex   -6.545142e+01 5.215298e+00 7.400000e+01
    endloop
  endfacet
  facet normal -6.267759e-16 -2.502230e-15 1.000000e+00
    outer loop
      vertex   -6.545142e+01 5.215298e+00 7.400000e+01
      vertex   -7.800000e+01 -3.000000e+00 7.400000e+01
      vertex   -6.497545e+01 5.096074e+00 7.400000e+01
    endloop
  endfacet
  facet normal -4.204156e-16 -2.834212e-15 1.000000e+00
    outer loop
      vertex   -6.497545e+01 5.096074e+00 7.400000e+01
      vertex   -7.800000e+01 -3.000000e+00 7.400000e+01
      vertex   -6.449009e+01 5.024076e+00 7.400000e+01
    endloop
  endfacet
  facet normal 5.340225e-14 -9.345393e-14 1.000000e+00
    outer loop
      vertex   -6.449009e+01 5.024076e+00 7.400000e+01
      vertex   -7.800000e+01 -3.000000e+00 7.400000e+01
      vertex   -6.400000e+01 5.000000e+00 7.400000e+01
    endloop
  endfacet
  facet normal 2.388379e-16 -4.179663e-16 1.000000e+00
    outer loop
      vertex   -6.400000e+01 5.000000e+00 7.400000e+01
      vertex   -7.800000e+01 -3.000000e+00 7.400000e+01
      vertex   4.100000e+01 -3.000000e+00 7.400000e+01
    endloop
  endfacet
  facet normal 6.047172e-16 4.384200e-15 1.000000e+00
    outer loop
      vertex   -6.400000e+01 5.000000e+00 7.400000e+01
      vertex   4.100000e+01 -3.000000e+00 7.400000e+01
      vertex   3.000000e+01 5.000000e+00 7.400000e+01
    endloop
  endfacet
  facet normal -8.164920e-14 -1.087149e-13 1.000000e+00
    outer loop
      vertex   3.000000e+01 5.000000e+00 7.400000e+01
      vertex   4.100000e+01 -3.000000e+00 7.400000e+01
      vertex   3.049009e+01 5.024076e+00 7.400000e+01
    endloop
  endfacet
  facet normal 2.199692e-16 -1.482912e-15 1.000000e+00
    outer loop
      vertex   3.049009e+01 5.024076e+00 7.400000e+01
      vertex   4.100000e+01 -3.000000e+00 7.400000e+01
      vertex   3.097545e+01 5.096074e+00 7.400000e+01
    endloop
  endfacet
  facet normal 3.355900e-16 -1.339750e-15 1.000000e+00
    outer loop
      vertex   3.097545e+01 5.096074e+00 7.400000e+01
      vertex   4.100000e+01 -3.000000e+00 7.400000e+01
      vertex   3.145142e+01 5.215298e+00 7.400000e+01
    endloop
  endfacet
  facet normal 4.371388e-16 -1.221721e-15 1.000000e+00
    outer loop
      vertex   3.145142e+01 5.215298e+00 7.400000e+01
      vertex   4.100000e+01 -3.000000e+00 7.400000e+01
      vertex   3.191342e+01 5.380602e+00 7.400000e+01
    endloop
  endfacet
  facet normal 5.301395e-16 -1.120886e-15 1.000000e+00
    outer loop
      vertex   3.191342e+01 5.380602e+00 7.400000e+01
      vertex   4.100000e+01 -3.000000e+00 7.400000e+01
      vertex   3.235698e+01 5.590394e+00 7.400000e+01
    endloop
  endfacet
  facet normal 6.185296e-16 -1.031954e-15 1.000000e+00
    outer loop
      vertex   3.235698e+01 5.590394e+00 7.400000e+01
      vertex   4.100000e+01 -3.000000e+00 7.400000e+01
      vertex   3.277785e+01 5.842652e+00 7.400000e+01
    endloop
  endfacet
  facet normal 7.054254e-16 -9.511561e-16 1.000000e+00
    outer loop
      vertex   3.277785e+01 5.842652e+00 7.400000e+01
      vertex   4.100000e+01 -3.000000e+00 7.400000e+01
      vertex   3.317197e+01 6.134948e+00 7.400000e+01
    endloop
  endfacet
  facet normal 7.935968e-16 -8.755992e-16 1.000000e+00
    outer loop
      vertex   3.317197e+01 6.134948e+00 7.400000e+01
      vertex   4.100000e+01 -3.000000e+00 7.400000e+01
      vertex   3.353553e+01 6.464466e+00 7.400000e+01
    endloop
  endfacet
  facet normal 8.858223e-16 -8.028625e-16 1.000000e+00
    outer loop
      vertex   3.353553e+01 6.464466e+00 7.400000e+01
      vertex   4.100000e+01 -3.000000e+00 7.400000e+01
      vertex   3.386505e+01 6.828034e+00 7.400000e+01
    endloop
  endfacet
  facet normal 9.852288e-16 -7.306955e-16 1.000000e+00
    outer loop
      vertex   3.386505e+01 6.828034e+00 7.400000e+01
      vertex   4.100000e+01 -3.000000e+00 7.400000e+01
      vertex   3.415735e+01 7.222149e+00 7.400000e+01
    endloop
  endfacet
  facet normal 1.095707e-15 -6.567417e-16 1.000000e+00
    outer loop
      vertex   3.415735e+01 7.222149e+00 7.400000e+01
      vertex   4.100000e+01 -3.000000e+00 7.400000e+01
      vertex   3.440961e+01 7.643016e+00 7.400000e+01
    endloop
  endfacet
  facet normal 1.222527e-15 -5.782122e-16 1.000000e+00
    outer loop
      vertex   3.440961e+01 7.643016e+00 7.400000e+01
      vertex   4.100000e+01 -3.000000e+00 7.400000e+01
      vertex   3.461940e+01 8.086583e+00 7.400000e+01
    endloop
  endfacet
  facet normal 1.373369e-15 -4.913991e-16 1.000000e+00
    outer loop
      vertex   3.461940e+01 8.086583e+00 7.400000e+01
      vertex   4.100000e+01 -3.000000e+00 7.400000e+01
      vertex   3.478470e+01 8.548577e+00 7.400000e+01
    endloop
  endfacet
  facet normal 1.560250e-15 -3.908222e-16 1.000000e+00
    outer loop
      vertex   3.478470e+01 8.548577e+00 7.400000e+01
      vertex   4.100000e+01 -3.000000e+00 7.400000e+01
      vertex   3.490393e+01 9.024548e+00 7.400000e+01
    endloop
  endfacet
  facet normal 1.803466e-15 -2.675189e-16 1.000000e+00
    outer loop
      vertex   3.490393e+01 9.024548e+00 7.400000e+01
      vertex   4.100000e+01 -3.000000e+00 7.400000e+01
      vertex   3.497592e+01 9.509914e+00 7.400000e+01
    endloop
  endfacet
  facet normal 1.660652e-13 7.883176e-14 1.000000e+00
    outer loop
      vertex   3.497592e+01 9.509914e+00 7.400000e+01
      vertex   4.100000e+01 -3.000000e+00 7.400000e+01
      vertex   3.500000e+01 1.000000e+01 7.400000e+01
    endloop
  endfacet
  facet normal -4.736952e-15 0.000000e+00 1.000000e+00
    outer loop
      vertex   3.500000e+01 1.000000e+01 7.400000e+01
      vertex   4.100000e+01 -3.000000e+00 7.400000e+01
      vertex   4.100000e+01 6.200000e+01 7.400000e+01
    endloop
  endfacet
  facet normal 1.421086e-15 -7.105427e-16 1.000000e+00
    outer loop
      vertex   3.500000e+01 1.000000e+01 7.400000e+01
      vertex   4.100000e+01 6.200000e+01 7.400000e+01
      vertex   3.500000e+01 5.000000e+01 7.400000e+01
    endloop
  endfacet
  facet normal 0.000000e+00 -0.000000e+00 1.000000e+00
    outer loop
      vertex   3.500000e+01 5.000000e+01 7.400000e+01
      vertex   4.100000e+01 6.200000e+01 7.400000e+01
      vertex   3.497592e+01 5.049009e+01 7.400000e+01
    endloop
  endfacet
  facet normal 0.000000e+00 -0.000000e+00 1.000000e+00
    outer loop
      vertex   3.497592e+01 5.049009e+01 7.400000e+01
      vertex   4.100000e+01 6.200000e+01 7.400000e+01
      vertex   3.490393e+01 5.097545e+01 7.400000e+01
    endloop
  endfacet
  facet normal 0.000000e+00 -0.000000e+00 1.000000e+00
    outer loop
      vertex   3.490393e+01 5.097545e+01 7.400000e+01
      vertex   4.100000e+01 6.200000e+01 7.400000e+01
      vertex   3.478470e+01 5.145142e+01 7.400000e+01
    endloop
  endfacet
  facet normal 0.000000e+00 -0.000000e+00 1.000000e+00
    outer loop
      vertex   3.478470e+01 5.145142e+01 7.400000e+01
      vertex   4.100000e+01 6.200000e+01 7.400000e+01
      vertex   3.461940e+01 5.191342e+01 7.400000e+01
    endloop
  endfacet
  facet normal 0.000000e+00 -0.000000e+00 1.000000e+00
    outer loop
      vertex   3.461940e+01 5.191342e+01 7.400000e+01
      vertex   4.100000e+01 6.200000e+01 7.400000e+01
      vertex   3.440961e+01 5.235698e+01 7.400000e+01
    endloop
  endfacet
  facet normal 0.000000e+00 -0.000000e+00 1.000000e+00
    outer loop
      vertex   3.440961e+01 5.235698e+01 7.400000e+01
      vertex   4.100000e+01 6.200000e+01 7.400000e+01
      vertex   3.415735e+01 5.277785e+01 7.400000e+01
    endloop
  endfacet
  facet normal 0.000000e+00 -0.000000e+00 1.000000e+00
    outer loop
      vertex   3.415735e+01 5.277785e+01 7.400000e+01
      vertex   4.100000e+01 6.200000e+01 7.400000e+01
      vertex   3.386505e+01 5.317197e+01 7.400000e+01
    endloop
  endfacet
  facet normal 0.000000e+00 -0.000000e+00 1.000000e+00
    outer loop
      vertex   3.386505e+01 5.317197e+01 7.400000e+01
      vertex   4.100000e+01 6.200000e+01 7.400000e+01
      vertex   3.353553e+01 5.353553e+01 7.400000e+01
    endloop
  endfacet
  facet normal 0.000000e+00 -0.000000e+00 1.000000e+00
    outer loop
      vertex   3.353553e+01 5.353553e+01 7.400000e+01
      vertex   4.100000e+01 6.200000e+01 7.400000e+01
      vertex   3.317197e+01 5.386505e+01 7.400000e+01
    endloop
  endfacet
  facet normal 0.000000e+00 -0.000000e+00 1.000000e+00
    outer loop
      vertex   3.317197e+01 5.386505e+01 7.400000e+01
      vertex   4.100000e+01 6.200000e+01 7.400000e+01
      vertex   3.277785e+01 5.415735e+01 7.400000e+01
    endloop
  endfacet
  facet normal 0.000000e+00 -0.000000e+00 1.000000e+00
    outer loop
      vertex   3.277785e+01 5.415735e+01 7.400000e+01
      vertex   4.100000e+01 6.200000e+01 7.400000e+01
      vertex   3.235698e+01 5.440961e+01 7.400000e+01
    endloop
  endfacet
  facet normal 0.000000e+00 -0.000000e+00 1.000000e+00
    outer loop
      vertex   3.235698e+01 5.440961e+01 7.400000e+01
      vertex   4.100000e+01 6.200000e+01 7.400000e+01
      vertex   3.191342e+01 5.461940e+01 7.400000e+01
    endloop
  endfacet
  facet normal 0.000000e+00 -0.000000e+00 1.000000e+00
    outer loop
      vertex   3.191342e+01 5.461940e+01 7.400000e+01
      vertex   4.100000e+01 6.200000e+01 7.400000e+01
      vertex   3.145142e+01 5.478470e+01 7.400000e+01
    endloop
  endfacet
  facet normal 0.000000e+00 -0.000000e+00 1.000000e+00
    outer loop
      vertex   3.145142e+01 5.478470e+01 7.400000e+01
      vertex   4.100000e+01 6.200000e+01 7.400000e+01
      vertex   3.097545e+01 5.490393e+01 7.400000e+01
    endloop
  endfacet
  facet normal 0.000000e+00 -0.000000e+00 1.000000e+00
    outer loop
      vertex   3.097545e+01 5.490393e+01 7.400000e+01
      vertex   4.100000e+01 6.200000e+01 7.400000e+01
      vertex   3.049009e+01 5.497592e+01 7.400000e+01
    endloop
  endfacet
  facet normal 0.000000e+00 -0.000000e+00 1.000000e+00
    outer loop
      vertex   3.049009e+01 5.497592e+01 7.400000e+01
      vertex   4.100000e+01 6.200000e+01 7.400000e+01
      vertex   3.000000e+01 5.500000e+01 7.400000e+01
    endloop
  endfacet
  facet normal -1.000000e+00 0.000000e+00 0.000000e+00
    outer loop
      vertex   -7.800000e+01 -3.000000e+00 7.100000e+01
      vertex   -7.800000e+01 -3.000000e+00 7.400000e+01
      vertex   -7.800000e+01 6.200000e+01 7.100000e+01
    endloop
  endfacet
  facet normal -1.000000e+00 0.000000e+00 0.000000e+00
    outer loop
      vertex   -7.800000e+01 6.200000e+01 7.100000e+01
      vertex   -7.800000e+01 -3.000000e+00 7.400000e+01
      vertex   -7.800000e+01 6.200000e+01 7.400000e+01
    endloop
  endfacet
  facet normal -5.921189e-15 -1.000000e+00 -1.015061e-15
    outer loop
      vertex   3.800000e+01 -3.000000e+00 5.700000e+01
      vertex   4.100000e+01 -3.000000e+00 5.700000e+01
      vertex   3.800000e+01 -3.000000e+00 7.100000e+01
    endloop
  endfacet
  facet normal -2.089832e-16 -1.000000e+00 2.089831e-16
    outer loop
      vertex   3.800000e+01 -3.000000e+00 7.100000e+01
      vertex   4.100000e+01 -3.000000e+00 5.700000e+01
      vertex   4.100000e+01 -3.000000e+00 7.400000e+01
    endloop
  endfacet
  facet normal 0.000000e+00 -1.000000e+00 0.000000e+00
    outer loop
      vertex   3.800000e+01 -3.000000e+00 7.100000e+01
      vertex   4.100000e+01 -3.000000e+00 7.400000e+01
      vertex   -7.800000e+01 -3.000000e+00 7.400000e+01
    endloop
  endfacet
  facet normal 0.000000e+00 -1.000000e+00 0.000000e+00
    outer loop
      vertex   -7.800000e+01 -3.000000e+00 7.400000e+01
      vertex   -7.800000e+01 -3.000000e+00 7.100000e+01
      vertex   3.800000e+01 -3.000000e+00 7.100000e+01
    endloop
  endfacet
endsolid
