solid ASCII
  facet normal 4.906767e-02 9.987955e-01 0.000000e+00
    outer loop
      vertex   -6.400000e+01 5.000000e+00 7.300000e+01
      vertex   -6.400000e+01 5.000000e+00 7.000000e+01
      vertex   -6.449009e+01 5.024076e+00 7.300000e+01
    endloop
  endfacet
  facet normal 4.906767e-02 9.987955e-01 -2.957027e-16
    outer loop
      vertex   -6.449009e+01 5.024076e+00 7.300000e+01
      vertex   -6.400000e+01 5.000000e+00 7.000000e+01
      vertex   -6.449009e+01 5.024076e+00 7.000000e+01
    endloop
  endfacet
  facet normal 1.467305e-01 9.891765e-01 -2.928550e-16
    outer loop
      vertex   -6.449009e+01 5.024076e+00 7.300000e+01
      vertex   -6.449009e+01 5.024076e+00 7.000000e+01
      vertex   -6.497545e+01 5.096074e+00 7.300000e+01
    endloop
  endfacet
  facet normal 1.467305e-01 9.891765e-01 0.000000e+00
    outer loop
      vertex   -6.497545e+01 5.096074e+00 7.300000e+01
      vertex   -6.449009e+01 5.024076e+00 7.000000e+01
      vertex   -6.497545e+01 5.096074e+00 7.000000e+01
    endloop
  endfacet
  facet normal 2.429802e-01 9.700313e-01 0.000000e+00
    outer loop
      vertex   -6.497545e+01 5.096074e+00 7.300000e+01
      vertex   -6.497545e+01 5.096074e+00 7.000000e+01
      vertex   -6.545142e+01 5.215298e+00 7.300000e+01
    endloop
  endfacet
  facet normal 2.429802e-01 9.700313e-01 0.000000e+00
    outer loop
      vertex   -6.545142e+01 5.215298e+00 7.300000e+01
      vertex   -6.497545e+01 5.096074e+00 7.000000e+01
      vertex   -6.545142e+01 5.215298e+00 7.000000e+01
    endloop
  endfacet
  facet normal 3.368899e-01 9.415441e-01 0.000000e+00
    outer loop
      vertex   -6.545142e+01 5.215298e+00 7.300000e+01
      vertex   -6.545142e+01 5.215298e+00 7.000000e+01
      vertex   -6.591342e+01 5.380602e+00 7.300000e+01
    endloop
  endfacet
  facet normal 3.368899e-01 9.415441e-01 0.000000e+00
    outer loop
      vertex   -6.591342e+01 5.380602e+00 7.300000e+01
      vertex   -6.545142e+01 5.215298e+00 7.000000e+01
      vertex   -6.591342e+01 5.380602e+00 7.000000e+01
    endloop
  endfacet
  facet normal 4.275551e-01 9.039893e-01 0.000000e+00
    outer loop
      vertex   -6.591342e+01 5.380602e+00 7.300000e+01
      vertex   -6.591342e+01 5.380602e+00 7.000000e+01
      vertex   -6.635698e+01 5.590394e+00 7.300000e+01
    endloop
  endfacet
  facet normal 4.275551e-01 9.039893e-01 2.676345e-16
    outer loop
      vertex   -6.635698e+01 5.590394e+00 7.300000e+01
      vertex   -6.591342e+01 5.380602e+00 7.000000e+01
      vertex   -6.635698e+01 5.590394e+00 7.000000e+01
    endloop
  endfacet
  facet normal 5.141027e-01 8.577286e-01 2.539386e-16
    outer loop
      vertex   -6.635698e+01 5.590394e+00 7.300000e+01
      vertex   -6.635698e+01 5.590394e+00 7.000000e+01
      vertex   -6.677785e+01 5.842652e+00 7.300000e+01
    endloop
  endfacet
  facet normal 5.141027e-01 8.577286e-01 0.000000e+00
    outer loop
      vertex   -6.677785e+01 5.842652e+00 7.300000e+01
      vertex   -6.635698e+01 5.590394e+00 7.000000e+01
      vertex   -6.677785e+01 5.842652e+00 7.000000e+01
    endloop
  endfacet
  facet normal 5.956993e-01 8.032075e-01 0.000000e+00
    outer loop
      vertex   -6.677785e+01 5.842652e+00 7.300000e+01
      vertex   -6.677785e+01 5.842652e+00 7.000000e+01
      vertex   -6.717197e+01 6.134948e+00 7.300000e+01
    endloop
  endfacet
  facet normal 5.956993e-01 8.032075e-01 0.000000e+00
    outer loop
      vertex   -6.717197e+01 6.134948e+00 7.300000e+01
      vertex   -6.677785e+01 5.842652e+00 7.000000e+01
      vertex   -6.717197e+01 6.134948e+00 7.000000e+01
    endloop
  endfacet
  facet normal 6.715590e-01 7.409511e-01 0.000000e+00
    outer loop
      vertex   -6.717197e+01 6.134948e+00 7.300000e+01
      vertex   -6.717197e+01 6.134948e+00 7.000000e+01
      vertex   -6.753553e+01 6.464466e+00 7.300000e+01
    endloop
  endfacet
  facet normal 6.715590e-01 7.409511e-01 0.000000e+00
    outer loop
      vertex   -6.753553e+01 6.464466e+00 7.300000e+01
      vertex   -6.717197e+01 6.134948e+00 7.000000e+01
      vertex   -6.753553e+01 6.464466e+00 7.000000e+01
    endloop
  endfacet
  facet normal 7.409511e-01 6.715590e-01 0.000000e+00
    outer loop
      vertex   -6.753553e+01 6.464466e+00 7.300000e+01
      vertex   -6.753553e+01 6.464466e+00 7.000000e+01
      vertex   -6.786505e+01 6.828034e+00 7.300000e+01
    endloop
  endfacet
  facet normal 7.409511e-01 6.715590e-01 0.000000e+00
    outer loop
      vertex   -6.786505e+01 6.828034e+00 7.300000e+01
      vertex   -6.753553e+01 6.464466e+00 7.000000e+01
      vertex   -6.786505e+01 6.828034e+00 7.000000e+01
    endloop
  endfacet
  facet normal 8.032075e-01 5.956993e-01 0.000000e+00
    outer loop
      vertex   -6.786505e+01 6.828034e+00 7.300000e+01
      vertex   -6.786505e+01 6.828034e+00 7.000000e+01
      vertex   -6.815735e+01 7.222149e+00 7.300000e+01
    endloop
  endfacet
  facet normal 8.032075e-01 5.956993e-01 0.000000e+00
    outer loop
      vertex   -6.815735e+01 7.222149e+00 7.300000e+01
      vertex   -6.786505e+01 6.828034e+00 7.000000e+01
      vertex   -6.815735e+01 7.222149e+00 7.000000e+01
    endloop
  endfacet
  facet normal 8.577286e-01 5.141027e-01 0.000000e+00
    outer loop
      vertex   -6.815735e+01 7.222149e+00 7.300000e+01
      vertex   -6.815735e+01 7.222149e+00 7.000000e+01
      vertex   -6.840961e+01 7.643016e+00 7.300000e+01
    endloop
  endfacet
  facet normal 8.577286e-01 5.141027e-01 -1.522049e-16
    outer loop
      vertex   -6.840961e+01 7.643016e+00 7.300000e+01
      vertex   -6.815735e+01 7.222149e+00 7.000000e+01
      vertex   -6.840961e+01 7.643016e+00 7.000000e+01
    endloop
  endfacet
  facet normal 9.039893e-01 4.275551e-01 -1.265817e-16
    outer loop
      vertex   -6.840961e+01 7.643016e+00 7.300000e+01
      vertex   -6.840961e+01 7.643016e+00 7.000000e+01
      vertex   -6.861940e+01 8.086583e+00 7.300000e+01
    endloop
  endfacet
  facet normal 9.039893e-01 4.275551e-01 0.000000e+00
    outer loop
      vertex   -6.861940e+01 8.086583e+00 7.300000e+01
      vertex   -6.840961e+01 7.643016e+00 7.000000e+01
      vertex   -6.861940e+01 8.086583e+00 7.000000e+01
    endloop
  endfacet
  facet normal 9.415441e-01 3.368899e-01 0.000000e+00
    outer loop
      vertex   -6.861940e+01 8.086583e+00 7.300000e+01
      vertex   -6.861940e+01 8.086583e+00 7.000000e+01
      vertex   -6.878470e+01 8.548577e+00 7.300000e+01
    endloop
  endfacet
  facet normal 9.415441e-01 3.368899e-01 0.000000e+00
    outer loop
      vertex   -6.878470e+01 8.548577e+00 7.300000e+01
      vertex   -6.861940e+01 8.086583e+00 7.000000e+01
      vertex   -6.878470e+01 8.548577e+00 7.000000e+01
    endloop
  endfacet
  facet normal 9.700313e-01 2.429802e-01 0.000000e+00
    outer loop
      vertex   -6.878470e+01 8.548577e+00 7.300000e+01
      vertex   -6.878470e+01 8.548577e+00 7.000000e+01
      vertex   -6.890393e+01 9.024548e+00 7.300000e+01
    endloop
  endfacet
  facet normal 9.700313e-01 2.429802e-01 0.000000e+00
    outer loop
      vertex   -6.890393e+01 9.024548e+00 7.300000e+01
      vertex   -6.878470e+01 8.548577e+00 7.000000e+01
      vertex   -6.890393e+01 9.024548e+00 7.000000e+01
    endloop
  endfacet
  facet normal 9.891765e-01 1.467305e-01 0.000000e+00
    outer loop
      vertex   -6.890393e+01 9.024548e+00 7.300000e+01
      vertex   -6.890393e+01 9.024548e+00 7.000000e+01
      vertex   -6.897592e+01 9.509914e+00 7.300000e+01
    endloop
  endfacet
  facet normal 9.891765e-01 1.467305e-01 -8.688186e-17
    outer loop
      vertex   -6.897592e+01 9.509914e+00 7.300000e+01
      vertex   -6.890393e+01 9.024548e+00 7.000000e+01
      vertex   -6.897592e+01 9.509914e+00 7.000000e+01
    endloop
  endfacet
  facet normal 9.987955e-01 4.906767e-02 -2.905389e-17
    outer loop
      vertex   -6.897592e+01 9.509914e+00 7.300000e+01
      vertex   -6.897592e+01 9.509914e+00 7.000000e+01
      vertex   -6.900000e+01 1.000000e+01 7.300000e+01
    endloop
  endfacet
  facet normal 9.987955e-01 4.906767e-02 0.000000e+00
    outer loop
      vertex   -6.900000e+01 1.000000e+01 7.300000e+01
      vertex   -6.897592e+01 9.509914e+00 7.000000e+01
      vertex   -6.900000e+01 1.000000e+01 7.000000e+01
    endloop
  endfacet
  facet normal 1.000000e+00 0.000000e+00 0.000000e+00
    outer loop
      vertex   -6.900000e+01 1.000000e+01 7.000000e+01
      vertex   -6.900000e+01 5.000000e+01 7.000000e+01
      vertex   -6.900000e+01 1.000000e+01 7.300000e+01
    endloop
  endfacet
  facet normal 1.000000e+00 -0.000000e+00 0.000000e+00
    outer loop
      vertex   -6.900000e+01 1.000000e+01 7.300000e+01
      vertex   -6.900000e+01 5.000000e+01 7.000000e+01
      vertex   -6.900000e+01 5.000000e+01 7.300000e+01
    endloop
  endfacet
  facet normal 4.906767e-02 -9.987955e-01 0.000000e+00
    outer loop
      vertex   -6.400000e+01 5.500000e+01 7.000000e+01
      vertex   -6.400000e+01 5.500000e+01 7.300000e+01
      vertex   -6.449009e+01 5.497592e+01 7.000000e+01
    endloop
  endfacet
  facet normal 4.906767e-02 -9.987955e-01 0.000000e+00
    outer loop
      vertex   -6.449009e+01 5.497592e+01 7.000000e+01
      vertex   -6.400000e+01 5.500000e+01 7.300000e+01
      vertex   -6.449009e+01 5.497592e+01 7.300000e+01
    endloop
  endfacet
  facet normal 1.467305e-01 -9.891765e-01 0.000000e+00
    outer loop
      vertex   -6.449009e+01 5.497592e+01 7.000000e+01
      vertex   -6.449009e+01 5.497592e+01 7.300000e+01
      vertex   -6.497545e+01 5.490393e+01 7.000000e+01
    endloop
  endfacet
  facet normal 1.467305e-01 -9.891765e-01 0.000000e+00
    outer loop
      vertex   -6.497545e+01 5.490393e+01 7.000000e+01
      vertex   -6.449009e+01 5.497592e+01 7.300000e+01
      vertex   -6.497545e+01 5.490393e+01 7.300000e+01
    endloop
  endfacet
  facet normal 2.429802e-01 -9.700313e-01 0.000000e+00
    outer loop
      vertex   -6.497545e+01 5.490393e+01 7.000000e+01
      vertex   -6.497545e+01 5.490393e+01 7.300000e+01
      vertex   -6.545142e+01 5.478470e+01 7.000000e+01
    endloop
  endfacet
  facet normal 2.429802e-01 -9.700313e-01 0.000000e+00
    outer loop
      vertex   -6.545142e+01 5.478470e+01 7.000000e+01
      vertex   -6.497545e+01 5.490393e+01 7.300000e+01
      vertex   -6.545142e+01 5.478470e+01 7.300000e+01
    endloop
  endfacet
  facet normal 3.368899e-01 -9.415441e-01 0.000000e+00
    outer loop
      vertex   -6.545142e+01 5.478470e+01 7.000000e+01
      vertex   -6.545142e+01 5.478470e+01 7.300000e+01
      vertex   -6.591342e+01 5.461940e+01 7.000000e+01
    endloop
  endfacet
  facet normal 3.368899e-01 -9.415441e-01 0.000000e+00
    outer loop
      vertex   -6.591342e+01 5.461940e+01 7.000000e+01
      vertex   -6.545142e+01 5.478470e+01 7.300000e+01
      vertex   -6.591342e+01 5.461940e+01 7.300000e+01
    endloop
  endfacet
  facet normal 4.275551e-01 -9.039893e-01 0.000000e+00
    outer loop
      vertex   -6.591342e+01 5.461940e+01 7.000000e+01
      vertex   -6.591342e+01 5.461940e+01 7.300000e+01
      vertex   -6.635698e+01 5.440961e+01 7.000000e+01
    endloop
  endfacet
  facet normal 4.275551e-01 -9.039893e-01 0.000000e+00
    outer loop
      vertex   -6.635698e+01 5.440961e+01 7.000000e+01
      vertex   -6.591342e+01 5.461940e+01 7.300000e+01
      vertex   -6.635698e+01 5.440961e+01 7.300000e+01
    endloop
  endfacet
  facet normal 5.141027e-01 -8.577286e-01 0.000000e+00
    outer loop
      vertex   -6.635698e+01 5.440961e+01 7.000000e+01
      vertex   -6.635698e+01 5.440961e+01 7.300000e+01
      vertex   -6.677785e+01 5.415735e+01 7.000000e+01
    endloop
  endfacet
  facet normal 5.141027e-01 -8.577286e-01 0.000000e+00
    outer loop
      vertex   -6.677785e+01 5.415735e+01 7.000000e+01
      vertex   -6.635698e+01 5.440961e+01 7.300000e+01
      vertex   -6.677785e+01 5.415735e+01 7.300000e+01
    endloop
  endfacet
  facet normal 5.956993e-01 -8.032075e-01 0.000000e+00
    outer loop
      vertex   -6.677785e+01 5.415735e+01 7.000000e+01
      vertex   -6.677785e+01 5.415735e+01 7.300000e+01
      vertex   -6.717197e+01 5.386505e+01 7.000000e+01
    endloop
  endfacet
  facet normal 5.956993e-01 -8.032075e-01 0.000000e+00
    outer loop
      vertex   -6.717197e+01 5.386505e+01 7.000000e+01
      vertex   -6.677785e+01 5.415735e+01 7.300000e+01
      vertex   -6.717197e+01 5.386505e+01 7.300000e+01
    endloop
  endfacet
  facet normal 6.715590e-01 -7.409511e-01 0.000000e+00
    outer loop
      vertex   -6.717197e+01 5.386505e+01 7.000000e+01
      vertex   -6.717197e+01 5.386505e+01 7.300000e+01
      vertex   -6.753553e+01 5.353553e+01 7.000000e+01
    endloop
  endfacet
  facet normal 6.715590e-01 -7.409511e-01 0.000000e+00
    outer loop
      vertex   -6.753553e+01 5.353553e+01 7.000000e+01
      vertex   -6.717197e+01 5.386505e+01 7.300000e+01
      vertex   -6.753553e+01 5.353553e+01 7.300000e+01
    endloop
  endfacet
  facet normal 7.409511e-01 -6.715590e-01 0.000000e+00
    outer loop
      vertex   -6.753553e+01 5.353553e+01 7.000000e+01
      vertex   -6.753553e+01 5.353553e+01 7.300000e+01
      vertex   -6.786505e+01 5.317197e+01 7.000000e+01
    endloop
  endfacet
  facet normal 7.409511e-01 -6.715590e-01 0.000000e+00
    outer loop
      vertex   -6.786505e+01 5.317197e+01 7.000000e+01
      vertex   -6.753553e+01 5.353553e+01 7.300000e+01
      vertex   -6.786505e+01 5.317197e+01 7.300000e+01
    endloop
  endfacet
  facet normal 8.032075e-01 -5.956993e-01 0.000000e+00
    outer loop
      vertex   -6.786505e+01 5.317197e+01 7.000000e+01
      vertex   -6.786505e+01 5.317197e+01 7.300000e+01
      vertex   -6.815735e+01 5.277785e+01 7.000000e+01
    endloop
  endfacet
  facet normal 8.032075e-01 -5.956993e-01 0.000000e+00
    outer loop
      vertex   -6.815735e+01 5.277785e+01 7.000000e+01
      vertex   -6.786505e+01 5.317197e+01 7.300000e+01
      vertex   -6.815735e+01 5.277785e+01 7.300000e+01
    endloop
  endfacet
  facet normal 8.577286e-01 -5.141027e-01 0.000000e+00
    outer loop
      vertex   -6.815735e+01 5.277785e+01 7.000000e+01
      vertex   -6.815735e+01 5.277785e+01 7.300000e+01
      vertex   -6.840961e+01 5.235698e+01 7.000000e+01
    endloop
  endfacet
  facet normal 8.577286e-01 -5.141027e-01 0.000000e+00
    outer loop
      vertex   -6.840961e+01 5.235698e+01 7.000000e+01
      vertex   -6.815735e+01 5.277785e+01 7.300000e+01
      vertex   -6.840961e+01 5.235698e+01 7.300000e+01
    endloop
  endfacet
  facet normal 9.039893e-01 -4.275551e-01 0.000000e+00
    outer loop
      vertex   -6.840961e+01 5.235698e+01 7.000000e+01
      vertex   -6.840961e+01 5.235698e+01 7.300000e+01
      vertex   -6.861940e+01 5.191342e+01 7.000000e+01
    endloop
  endfacet
  facet normal 9.039893e-01 -4.275551e-01 0.000000e+00
    outer loop
      vertex   -6.861940e+01 5.191342e+01 7.000000e+01
      vertex   -6.840961e+01 5.235698e+01 7.300000e+01
      vertex   -6.861940e+01 5.191342e+01 7.300000e+01
    endloop
  endfacet
  facet normal 9.415441e-01 -3.368899e-01 0.000000e+00
    outer loop
      vertex   -6.861940e+01 5.191342e+01 7.000000e+01
      vertex   -6.861940e+01 5.191342e+01 7.300000e+01
      vertex   -6.878470e+01 5.145142e+01 7.000000e+01
    endloop
  endfacet
  facet normal 9.415441e-01 -3.368899e-01 0.000000e+00
    outer loop
      vertex   -6.878470e+01 5.145142e+01 7.000000e+01
      vertex   -6.861940e+01 5.191342e+01 7.300000e+01
      vertex   -6.878470e+01 5.145142e+01 7.300000e+01
    endloop
  endfacet
  facet normal 9.700313e-01 -2.429802e-01 0.000000e+00
    outer loop
      vertex   -6.878470e+01 5.145142e+01 7.000000e+01
      vertex   -6.878470e+01 5.145142e+01 7.300000e+01
      vertex   -6.890393e+01 5.097545e+01 7.000000e+01
    endloop
  endfacet
  facet normal 9.700313e-01 -2.429802e-01 0.000000e+00
    outer loop
      vertex   -6.890393e+01 5.097545e+01 7.000000e+01
      vertex   -6.878470e+01 5.145142e+01 7.300000e+01
      vertex   -6.890393e+01 5.097545e+01 7.300000e+01
    endloop
  endfacet
  facet normal 9.891765e-01 -1.467305e-01 0.000000e+00
    outer loop
      vertex   -6.890393e+01 5.097545e+01 7.000000e+01
      vertex   -6.890393e+01 5.097545e+01 7.300000e+01
      vertex   -6.897592e+01 5.049009e+01 7.000000e+01
    endloop
  endfacet
  facet normal 9.891765e-01 -1.467305e-01 0.000000e+00
    outer loop
      vertex   -6.897592e+01 5.049009e+01 7.000000e+01
      vertex   -6.890393e+01 5.097545e+01 7.300000e+01
      vertex   -6.897592e+01 5.049009e+01 7.300000e+01
    endloop
  endfacet
  facet normal 9.987955e-01 -4.906767e-02 0.000000e+00
    outer loop
      vertex   -6.897592e+01 5.049009e+01 7.000000e+01
      vertex   -6.897592e+01 5.049009e+01 7.300000e+01
      vertex   -6.900000e+01 5.000000e+01 7.000000e+01
    endloop
  endfacet
  facet normal 9.987955e-01 -4.906767e-02 0.000000e+00
    outer loop
      vertex   -6.900000e+01 5.000000e+01 7.000000e+01
      vertex   -6.897592e+01 5.049009e+01 7.300000e+01
      vertex   -6.900000e+01 5.000000e+01 7.300000e+01
    endloop
  endfacet
  facet normal 0.000000e+00 -1.000000e+00 0.000000e+00
    outer loop
      vertex   -6.400000e+01 5.500000e+01 7.000000e+01
      vertex   3.000000e+01 5.500000e+01 7.000000e+01
      vertex   -6.400000e+01 5.500000e+01 7.300000e+01
    endloop
  endfacet
  facet normal 0.000000e+00 -1.000000e+00 0.000000e+00
    outer loop
      vertex   -6.400000e+01 5.500000e+01 7.300000e+01
      vertex   3.000000e+01 5.500000e+01 7.000000e+01
      vertex   3.000000e+01 5.500000e+01 7.300000e+01
    endloop
  endfacet
  facet normal -0.000000e+00 1.000000e+00 0.000000e+00
    outer loop
      vertex   -6.400000e+01 5.000000e+00 7.300000e+01
      vertex   3.000000e+01 5.000000e+00 7.300000e+01
      vertex   -6.400000e+01 5.000000e+00 7.000000e+01
    endloop
  endfacet
  facet normal 0.000000e+00 1.000000e+00 0.000000e+00
    outer loop
      vertex   -6.400000e+01 5.000000e+00 7.000000e+01
      vertex   3.000000e+01 5.000000e+00 7.300000e+01
      vertex   3.000000e+01 5.000000e+00 7.000000e+01
    endloop
  endfacet
  facet normal -7.077186e-01 -8.698824e-18 -7.064944e-01
    outer loop
      vertex   3.800000e+01 5.800000e+01 6.000000e+01
      vertex   2.801730e+01 5.800000e+01 7.000000e+01
      vertex   3.800000e+01 5.900000e+01 6.000000e+01
    endloop
  endfacet
  facet normal -7.077186e-01 2.011457e-15 -7.064944e-01
    outer loop
      vertex   3.800000e+01 5.900000e+01 6.000000e+01
      vertex   2.801730e+01 5.800000e+01 7.000000e+01
      vertex   2.801730e+01 5.900000e+01 7.000000e+01
    endloop
  endfacet
  facet normal -1.000000e+00 0.000000e+00 0.000000e+00
    outer loop
      vertex   3.800000e+01 -1.500000e+00 7.000000e+01
      vertex   3.800000e+01 0.000000e+00 6.000000e+01
      vertex   3.800000e+01 -1.500000e+00 5.900000e+01
    endloop
  endfacet
  facet normal -1.000000e+00 0.000000e+00 0.000000e+00
    outer loop
      vertex   3.800000e+01 -1.500000e+00 5.900000e+01
      vertex   3.800000e+01 0.000000e+00 6.000000e+01
      vertex   3.800000e+01 1.000000e+00 6.000000e+01
    endloop
  endfacet
  facet normal -1.000000e+00 1.246566e-16 -3.116412e-16
    outer loop
      vertex   3.800000e+01 -1.500000e+00 5.900000e+01
      vertex   3.800000e+01 1.000000e+00 6.000000e+01
      vertex   3.800000e+01 5.800000e+01 6.000000e+01
    endloop
  endfacet
  facet normal -1.000000e+00 1.246566e-16 0.000000e+00
    outer loop
      vertex   3.800000e+01 5.800000e+01 6.000000e+01
      vertex   3.800000e+01 1.000000e+00 6.000000e+01
      vertex   3.800000e+01 1.000000e+00 6.989950e+01
    endloop
  endfacet
  facet normal -1.000000e+00 1.252848e-18 -7.105427e-16
    outer loop
      vertex   3.800000e+01 5.800000e+01 6.000000e+01
      vertex   3.800000e+01 1.000000e+00 6.989950e+01
      vertex   3.800000e+01 5.800000e+01 7.000000e+01
    endloop
  endfacet
  facet normal -1.000000e+00 -0.000000e+00 0.000000e+00
    outer loop
      vertex   3.800000e+01 5.800000e+01 7.000000e+01
      vertex   3.800000e+01 1.000000e+00 6.989950e+01
      vertex   3.800000e+01 -1.500000e+00 7.000000e+01
    endloop
  endfacet
  facet normal -1.000000e+00 0.000000e+00 0.000000e+00
    outer loop
      vertex   3.800000e+01 -1.500000e+00 7.000000e+01
      vertex   3.800000e+01 1.000000e+00 6.989950e+01
      vertex   3.800000e+01 0.000000e+00 6.989950e+01
    endloop
  endfacet
  facet normal -1.000000e+00 0.000000e+00 0.000000e+00
    outer loop
      vertex   3.800000e+01 -1.500000e+00 7.000000e+01
      vertex   3.800000e+01 0.000000e+00 6.989950e+01
      vertex   3.800000e+01 0.000000e+00 6.000000e+01
    endloop
  endfacet
  facet normal -1.000000e+00 0.000000e+00 7.105427e-15
    outer loop
      vertex   3.800000e+01 -1.500000e+00 5.900000e+01
      vertex   3.800000e+01 5.800000e+01 6.000000e+01
      vertex   3.800000e+01 6.050000e+01 5.900000e+01
    endloop
  endfacet
  facet normal -1.000000e+00 -7.105427e-15 -1.065814e-14
    outer loop
      vertex   3.800000e+01 6.050000e+01 5.900000e+01
      vertex   3.800000e+01 5.800000e+01 6.000000e+01
      vertex   3.800000e+01 5.900000e+01 6.000000e+01
    endloop
  endfacet
  facet normal -1.000000e+00 0.000000e+00 0.000000e+00
    outer loop
      vertex   3.800000e+01 6.050000e+01 5.900000e+01
      vertex   3.800000e+01 5.900000e+01 6.000000e+01
      vertex   3.800000e+01 6.050000e+01 7.000000e+01
    endloop
  endfacet
  facet normal -1.000000e+00 -0.000000e+00 0.000000e+00
    outer loop
      vertex   3.800000e+01 6.050000e+01 7.000000e+01
      vertex   3.800000e+01 5.900000e+01 6.000000e+01
      vertex   3.800000e+01 5.900000e+01 7.000000e+01
    endloop
  endfacet
  facet normal -7.071068e-01 -0.000000e+00 -7.071068e-01
    outer loop
      vertex   3.800000e+01 1.000000e+00 6.000000e+01
      vertex   3.800000e+01 0.000000e+00 6.000000e+01
      vertex   2.800000e+01 1.000000e+00 7.000000e+01
    endloop
  endfacet
  facet normal -7.071068e-01 -5.024296e-15 -7.071068e-01
    outer loop
      vertex   2.800000e+01 1.000000e+00 7.000000e+01
      vertex   3.800000e+01 0.000000e+00 6.000000e+01
      vertex   2.800000e+01 0.000000e+00 7.000000e+01
    endloop
  endfacet
  facet normal 7.071068e-01 0.000000e+00 -7.071068e-01
    outer loop
      vertex   -6.335534e+01 5.800000e+01 7.000000e+01
      vertex   -7.200000e+01 5.800000e+01 6.135534e+01
      vertex   -6.335534e+01 5.900000e+01 7.000000e+01
    endloop
  endfacet
  facet normal 7.071068e-01 0.000000e+00 -7.071068e-01
    outer loop
      vertex   -6.335534e+01 5.900000e+01 7.000000e+01
      vertex   -7.200000e+01 5.800000e+01 6.135534e+01
      vertex   -7.200000e+01 5.900000e+01 6.135534e+01
    endloop
  endfacet
  facet normal 0.000000e+00 -1.000000e+00 0.000000e+00
    outer loop
      vertex   -7.200000e+01 5.800000e+01 6.135534e+01
      vertex   -6.335534e+01 5.800000e+01 7.000000e+01
      vertex   -7.200000e+01 5.800000e+01 7.000000e+01
    endloop
  endfacet
  facet normal 0.000000e+00 1.000000e+00 0.000000e+00
    outer loop
      vertex   -6.335534e+01 5.900000e+01 7.000000e+01
      vertex   -7.200000e+01 5.900000e+01 6.135534e+01
      vertex   -7.200000e+01 5.900000e+01 7.000000e+01
    endloop
  endfacet
  facet normal 7.071068e-01 0.000000e+00 -7.071068e-01
    outer loop
      vertex   -6.335534e+01 0.000000e+00 7.000000e+01
      vertex   -7.200000e+01 0.000000e+00 6.135534e+01
      vertex   -6.335534e+01 1.000000e+00 7.000000e+01
    endloop
  endfacet
  facet normal 7.071068e-01 0.000000e+00 -7.071068e-01
    outer loop
      vertex   -6.335534e+01 1.000000e+00 7.000000e+01
      vertex   -7.200000e+01 0.000000e+00 6.135534e+01
      vertex   -7.200000e+01 1.000000e+00 6.135534e+01
    endloop
  endfacet
  facet normal 0.000000e+00 -1.000000e+00 0.000000e+00
    outer loop
      vertex   -7.200000e+01 0.000000e+00 6.135534e+01
      vertex   -6.335534e+01 0.000000e+00 7.000000e+01
      vertex   -7.200000e+01 0.000000e+00 7.000000e+01
    endloop
  endfacet
  facet normal 0.000000e+00 1.000000e+00 2.568575e-17
    outer loop
      vertex   -6.335534e+01 1.000000e+00 7.000000e+01
      vertex   -7.200000e+01 1.000000e+00 6.135534e+01
      vertex   -7.200000e+01 1.000000e+00 7.000000e+01
    endloop
  endfacet
  facet normal 0.000000e+00 0.000000e+00 -1.000000e+00
    outer loop
      vertex   3.049009e+01 5.497592e+01 7.000000e+01
      vertex   3.000000e+01 5.500000e+01 7.000000e+01
      vertex   2.801730e+01 5.800000e+01 7.000000e+01
    endloop
  endfacet
  facet normal 0.000000e+00 -0.000000e+00 -1.000000e+00
    outer loop
      vertex   2.801730e+01 5.800000e+01 7.000000e+01
      vertex   3.000000e+01 5.500000e+01 7.000000e+01
      vertex   -6.400000e+01 5.500000e+01 7.000000e+01
    endloop
  endfacet
  facet normal -0.000000e+00 0.000000e+00 -1.000000e+00
    outer loop
      vertex   2.801730e+01 5.800000e+01 7.000000e+01
      vertex   -6.400000e+01 5.500000e+01 7.000000e+01
      vertex   -6.335534e+01 5.800000e+01 7.000000e+01
    endloop
  endfacet
  facet normal 0.000000e+00 0.000000e+00 -1.000000e+00
    outer loop
      vertex   -6.335534e+01 5.800000e+01 7.000000e+01
      vertex   -6.400000e+01 5.500000e+01 7.000000e+01
      vertex   -6.449009e+01 5.497592e+01 7.000000e+01
    endloop
  endfacet
  facet normal 0.000000e+00 0.000000e+00 -1.000000e+00
    outer loop
      vertex   -6.335534e+01 5.800000e+01 7.000000e+01
      vertex   -6.449009e+01 5.497592e+01 7.000000e+01
      vertex   -6.497545e+01 5.490393e+01 7.000000e+01
    endloop
  endfacet
  facet normal -0.000000e+00 0.000000e+00 -1.000000e+00
    outer loop
      vertex   -6.497545e+01 5.490393e+01 7.000000e+01
      vertex   -6.545142e+01 5.478470e+01 7.000000e+01
      vertex   -6.335534e+01 5.800000e+01 7.000000e+01
    endloop
  endfacet
  facet normal -0.000000e+00 0.000000e+00 -1.000000e+00
    outer loop
      vertex   -6.335534e+01 5.800000e+01 7.000000e+01
      vertex   -6.545142e+01 5.478470e+01 7.000000e+01
      vertex   -7.200000e+01 5.800000e+01 7.000000e+01
    endloop
  endfacet
  facet normal 0.000000e+00 0.000000e+00 -1.000000e+00
    outer loop
      vertex   -7.200000e+01 5.800000e+01 7.000000e+01
      vertex   -6.545142e+01 5.478470e+01 7.000000e+01
      vertex   -6.591342e+01 5.461940e+01 7.000000e+01
    endloop
  endfacet
  facet normal 0.000000e+00 0.000000e+00 -1.000000e+00
    outer loop
      vertex   -7.200000e+01 5.800000e+01 7.000000e+01
      vertex   -6.591342e+01 5.461940e+01 7.000000e+01
      vertex   -6.635698e+01 5.440961e+01 7.000000e+01
    endloop
  endfacet
  facet normal -0.000000e+00 0.000000e+00 -1.000000e+00
    outer loop
      vertex   -6.635698e+01 5.440961e+01 7.000000e+01
      vertex   -6.677785e+01 5.415735e+01 7.000000e+01
      vertex   -7.200000e+01 5.800000e+01 7.000000e+01
    endloop
  endfacet
  facet normal 0.000000e+00 0.000000e+00 -1.000000e+00
    outer loop
      vertex   -7.200000e+01 5.800000e+01 7.000000e+01
      vertex   -6.677785e+01 5.415735e+01 7.000000e+01
      vertex   -6.717197e+01 5.386505e+01 7.000000e+01
    endloop
  endfacet
  facet normal 0.000000e+00 0.000000e+00 -1.000000e+00
    outer loop
      vertex   -7.200000e+01 5.800000e+01 7.000000e+01
      vertex   -6.717197e+01 5.386505e+01 7.000000e+01
      vertex   -6.753553e+01 5.353553e+01 7.000000e+01
    endloop
  endfacet
  facet normal -0.000000e+00 0.000000e+00 -1.000000e+00
    outer loop
      vertex   -6.753553e+01 5.353553e+01 7.000000e+01
      vertex   -6.786505e+01 5.317197e+01 7.000000e+01
      vertex   -7.200000e+01 5.800000e+01 7.000000e+01
    endloop
  endfacet
  facet normal 0.000000e+00 0.000000e+00 -1.000000e+00
    outer loop
      vertex   -7.200000e+01 5.800000e+01 7.000000e+01
      vertex   -6.786505e+01 5.317197e+01 7.000000e+01
      vertex   -6.815735e+01 5.277785e+01 7.000000e+01
    endloop
  endfacet
  facet normal 0.000000e+00 0.000000e+00 -1.000000e+00
    outer loop
      vertex   -7.200000e+01 5.800000e+01 7.000000e+01
      vertex   -6.815735e+01 5.277785e+01 7.000000e+01
      vertex   -6.840961e+01 5.235698e+01 7.000000e+01
    endloop
  endfacet
  facet normal -0.000000e+00 0.000000e+00 -1.000000e+00
    outer loop
      vertex   -6.840961e+01 5.235698e+01 7.000000e+01
      vertex   -6.861940e+01 5.191342e+01 7.000000e+01
      vertex   -7.200000e+01 5.800000e+01 7.000000e+01
    endloop
  endfacet
  facet normal 0.000000e+00 0.000000e+00 -1.000000e+00
    outer loop
      vertex   -7.200000e+01 5.800000e+01 7.000000e+01
      vertex   -6.861940e+01 5.191342e+01 7.000000e+01
      vertex   -6.878470e+01 5.145142e+01 7.000000e+01
    endloop
  endfacet
  facet normal 0.000000e+00 0.000000e+00 -1.000000e+00
    outer loop
      vertex   -7.200000e+01 5.800000e+01 7.000000e+01
      vertex   -6.878470e+01 5.145142e+01 7.000000e+01
      vertex   -6.890393e+01 5.097545e+01 7.000000e+01
    endloop
  endfacet
  facet normal -0.000000e+00 0.000000e+00 -1.000000e+00
    outer loop
      vertex   -6.890393e+01 5.097545e+01 7.000000e+01
      vertex   -6.897592e+01 5.049009e+01 7.000000e+01
      vertex   -7.200000e+01 5.800000e+01 7.000000e+01
    endloop
  endfacet
  facet normal 0.000000e+00 0.000000e+00 -1.000000e+00
    outer loop
      vertex   -7.200000e+01 5.800000e+01 7.000000e+01
      vertex   -6.897592e+01 5.049009e+01 7.000000e+01
      vertex   -6.900000e+01 5.000000e+01 7.000000e+01
    endloop
  endfacet
  facet normal 0.000000e+00 0.000000e+00 -1.000000e+00
    outer loop
      vertex   -7.200000e+01 5.800000e+01 7.000000e+01
      vertex   -6.900000e+01 5.000000e+01 7.000000e+01
      vertex   -6.900000e+01 1.000000e+01 7.000000e+01
    endloop
  endfacet
  facet normal 0.000000e+00 0.000000e+00 -1.000000e+00
    outer loop
      vertex   -7.200000e+01 5.800000e+01 7.000000e+01
      vertex   -6.900000e+01 1.000000e+01 7.000000e+01
      vertex   -7.200000e+01 1.000000e+00 7.000000e+01
    endloop
  endfacet
  facet normal 0.000000e+00 0.000000e+00 -1.000000e+00
    outer loop
      vertex   -7.200000e+01 1.000000e+00 7.000000e+01
      vertex   -6.900000e+01 1.000000e+01 7.000000e+01
      vertex   -6.897592e+01 9.509914e+00 7.000000e+01
    endloop
  endfacet
  facet normal 0.000000e+00 0.000000e+00 -1.000000e+00
    outer loop
      vertex   -7.200000e+01 1.000000e+00 7.000000e+01
      vertex   -6.897592e+01 9.509914e+00 7.000000e+01
      vertex   -6.890393e+01 9.024548e+00 7.000000e+01
    endloop
  endfacet
  facet normal 0.000000e+00 -0.000000e+00 -1.000000e+00
    outer loop
      vertex   -6.890393e+01 9.024548e+00 7.000000e+01
      vertex   -6.878470e+01 8.548577e+00 7.000000e+01
      vertex   -7.200000e+01 1.000000e+00 7.000000e+01
    endloop
  endfacet
  facet normal 0.000000e+00 0.000000e+00 -1.000000e+00
    outer loop
      vertex   -7.200000e+01 1.000000e+00 7.000000e+01
      vertex   -6.878470e+01 8.548577e+00 7.000000e+01
      vertex   -6.861940e+01 8.086583e+00 7.000000e+01
    endloop
  endfacet
  facet normal 0.000000e+00 0.000000e+00 -1.000000e+00
    outer loop
      vertex   -7.200000e+01 1.000000e+00 7.000000e+01
      vertex   -6.861940e+01 8.086583e+00 7.000000e+01
      vertex   -6.840961e+01 7.643016e+00 7.000000e+01
    endloop
  endfacet
  facet normal 0.000000e+00 -0.000000e+00 -1.000000e+00
    outer loop
      vertex   -6.840961e+01 7.643016e+00 7.000000e+01
      vertex   -6.815735e+01 7.222149e+00 7.000000e+01
      vertex   -7.200000e+01 1.000000e+00 7.000000e+01
    endloop
  endfacet
  facet normal 0.000000e+00 0.000000e+00 -1.000000e+00
    outer loop
      vertex   -7.200000e+01 1.000000e+00 7.000000e+01
      vertex   -6.815735e+01 7.222149e+00 7.000000e+01
      vertex   -6.786505e+01 6.828034e+00 7.000000e+01
    endloop
  endfacet
  facet normal 0.000000e+00 0.000000e+00 -1.000000e+00
    outer loop
      vertex   -7.200000e+01 1.000000e+00 7.000000e+01
      vertex   -6.786505e+01 6.828034e+00 7.000000e+01
      vertex   -6.753553e+01 6.464466e+00 7.000000e+01
    endloop
  endfacet
  facet normal 0.000000e+00 -0.000000e+00 -1.000000e+00
    outer loop
      vertex   -6.753553e+01 6.464466e+00 7.000000e+01
      vertex   -6.717197e+01 6.134948e+00 7.000000e+01
      vertex   -7.200000e+01 1.000000e+00 7.000000e+01
    endloop
  endfacet
  facet normal 0.000000e+00 0.000000e+00 -1.000000e+00
    outer loop
      vertex   -7.200000e+01 1.000000e+00 7.000000e+01
      vertex   -6.717197e+01 6.134948e+00 7.000000e+01
      vertex   -6.677785e+01 5.842652e+00 7.000000e+01
    endloop
  endfacet
  facet normal 0.000000e+00 0.000000e+00 -1.000000e+00
    outer loop
      vertex   -7.200000e+01 1.000000e+00 7.000000e+01
      vertex   -6.677785e+01 5.842652e+00 7.000000e+01
      vertex   -6.635698e+01 5.590394e+00 7.000000e+01
    endloop
  endfacet
  facet normal 0.000000e+00 -0.000000e+00 -1.000000e+00
    outer loop
      vertex   -6.635698e+01 5.590394e+00 7.000000e+01
      vertex   -6.591342e+01 5.380602e+00 7.000000e+01
      vertex   -7.200000e+01 1.000000e+00 7.000000e+01
    endloop
  endfacet
  facet normal 0.000000e+00 0.000000e+00 -1.000000e+00
    outer loop
      vertex   -7.200000e+01 1.000000e+00 7.000000e+01
      vertex   -6.591342e+01 5.380602e+00 7.000000e+01
      vertex   -6.545142e+01 5.215298e+00 7.000000e+01
    endloop
  endfacet
  facet normal 0.000000e+00 0.000000e+00 -1.000000e+00
    outer loop
      vertex   -7.200000e+01 1.000000e+00 7.000000e+01
      vertex   -6.545142e+01 5.215298e+00 7.000000e+01
      vertex   -6.335534e+01 1.000000e+00 7.000000e+01
    endloop
  endfacet
  facet normal 0.000000e+00 0.000000e+00 -1.000000e+00
    outer loop
      vertex   -6.335534e+01 1.000000e+00 7.000000e+01
      vertex   -6.545142e+01 5.215298e+00 7.000000e+01
      vertex   -6.497545e+01 5.096074e+00 7.000000e+01
    endloop
  endfacet
  facet normal 0.000000e+00 0.000000e+00 -1.000000e+00
    outer loop
      vertex   -6.335534e+01 1.000000e+00 7.000000e+01
      vertex   -6.497545e+01 5.096074e+00 7.000000e+01
      vertex   -6.449009e+01 5.024076e+00 7.000000e+01
    endloop
  endfacet
  facet normal 0.000000e+00 0.000000e+00 -1.000000e+00
    outer loop
      vertex   -6.449009e+01 5.024076e+00 7.000000e+01
      vertex   -6.400000e+01 5.000000e+00 7.000000e+01
      vertex   -6.335534e+01 1.000000e+00 7.000000e+01
    endloop
  endfacet
  facet normal 0.000000e+00 0.000000e+00 -1.000000e+00
    outer loop
      vertex   -6.335534e+01 1.000000e+00 7.000000e+01
      vertex   -6.400000e+01 5.000000e+00 7.000000e+01
      vertex   2.800000e+01 1.000000e+00 7.000000e+01
    endloop
  endfacet
  facet normal 0.000000e+00 0.000000e+00 -1.000000e+00
    outer loop
      vertex   -6.335534e+01 1.000000e+00 7.000000e+01
      vertex   2.800000e+01 1.000000e+00 7.000000e+01
      vertex   -6.335534e+01 0.000000e+00 7.000000e+01
    endloop
  endfacet
  facet normal 1.468009e-09 -1.341105e-07 -1.000000e+00
    outer loop
      vertex   -6.335534e+01 0.000000e+00 7.000000e+01
      vertex   2.800000e+01 1.000000e+00 7.000000e+01
      vertex   2.800000e+01 0.000000e+00 7.000000e+01
    endloop
  endfacet
  facet normal 1.468009e-09 -8.460293e-09 -1.000000e+00
    outer loop
      vertex   -6.335534e+01 0.000000e+00 7.000000e+01
      vertex   2.800000e+01 0.000000e+00 7.000000e+01
      vertex   -7.200000e+01 -1.500000e+00 7.000000e+01
    endloop
  endfacet
  facet normal 0.000000e+00 8.940697e-08 -1.000000e+00
    outer loop
      vertex   -7.200000e+01 -1.500000e+00 7.000000e+01
      vertex   2.800000e+01 0.000000e+00 7.000000e+01
      vertex   3.800000e+01 -1.500000e+00 7.000000e+01
    endloop
  endfacet
  facet normal -1.354720e-08 -9.076981e-10 -1.000000e+00
    outer loop
      vertex   3.800000e+01 -1.500000e+00 7.000000e+01
      vertex   2.800000e+01 0.000000e+00 7.000000e+01
      vertex   3.789950e+01 0.000000e+00 7.000000e+01
    endloop
  endfacet
  facet normal 0.000000e+00 0.000000e+00 -1.000000e+00
    outer loop
      vertex   3.800000e+01 -1.500000e+00 7.000000e+01
      vertex   3.789950e+01 0.000000e+00 7.000000e+01
      vertex   3.789950e+01 1.000000e+00 7.000000e+01
    endloop
  endfacet
  facet normal 0.000000e+00 0.000000e+00 -1.000000e+00
    outer loop
      vertex   -6.400000e+01 5.000000e+00 7.000000e+01
      vertex   3.000000e+01 5.000000e+00 7.000000e+01
      vertex   2.800000e+01 1.000000e+00 7.000000e+01
    endloop
  endfacet
  facet normal 0.000000e+00 0.000000e+00 -1.000000e+00
    outer loop
      vertex   2.800000e+01 1.000000e+00 7.000000e+01
      vertex   3.000000e+01 5.000000e+00 7.000000e+01
      vertex   3.049009e+01 5.024076e+00 7.000000e+01
    endloop
  endfacet
  facet normal 0.000000e+00 0.000000e+00 -1.000000e+00
    outer loop
      vertex   2.800000e+01 1.000000e+00 7.000000e+01
      vertex   3.049009e+01 5.024076e+00 7.000000e+01
      vertex   3.097545e+01 5.096074e+00 7.000000e+01
    endloop
  endfacet
  facet normal 0.000000e+00 0.000000e+00 -1.000000e+00
    outer loop
      vertex   2.800000e+01 1.000000e+00 7.000000e+01
      vertex   3.097545e+01 5.096074e+00 7.000000e+01
      vertex   3.789950e+01 1.000000e+00 7.000000e+01
    endloop
  endfacet
  facet normal 0.000000e+00 0.000000e+00 -1.000000e+00
    outer loop
      vertex   3.789950e+01 1.000000e+00 7.000000e+01
      vertex   3.097545e+01 5.096074e+00 7.000000e+01
      vertex   3.145142e+01 5.215298e+00 7.000000e+01
    endloop
  endfacet
  facet normal 0.000000e+00 0.000000e+00 -1.000000e+00
    outer loop
      vertex   3.789950e+01 1.000000e+00 7.000000e+01
      vertex   3.145142e+01 5.215298e+00 7.000000e+01
      vertex   3.191342e+01 5.380602e+00 7.000000e+01
    endloop
  endfacet
  facet normal 0.000000e+00 0.000000e+00 -1.000000e+00
    outer loop
      vertex   3.191342e+01 5.380602e+00 7.000000e+01
      vertex   3.235698e+01 5.590394e+00 7.000000e+01
      vertex   3.789950e+01 1.000000e+00 7.000000e+01
    endloop
  endfacet
  facet normal 0.000000e+00 0.000000e+00 -1.000000e+00
    outer loop
      vertex   3.789950e+01 1.000000e+00 7.000000e+01
      vertex   3.235698e+01 5.590394e+00 7.000000e+01
      vertex   3.277785e+01 5.842652e+00 7.000000e+01
    endloop
  endfacet
  facet normal 0.000000e+00 0.000000e+00 -1.000000e+00
    outer loop
      vertex   3.789950e+01 1.000000e+00 7.000000e+01
      vertex   3.277785e+01 5.842652e+00 7.000000e+01
      vertex   3.317197e+01 6.134948e+00 7.000000e+01
    endloop
  endfacet
  facet normal 0.000000e+00 0.000000e+00 -1.000000e+00
    outer loop
      vertex   3.317197e+01 6.134948e+00 7.000000e+01
      vertex   3.353553e+01 6.464466e+00 7.000000e+01
      vertex   3.789950e+01 1.000000e+00 7.000000e+01
    endloop
  endfacet
  facet normal 0.000000e+00 0.000000e+00 -1.000000e+00
    outer loop
      vertex   3.789950e+01 1.000000e+00 7.000000e+01
      vertex   3.353553e+01 6.464466e+00 7.000000e+01
      vertex   3.386505e+01 6.828034e+00 7.000000e+01
    endloop
  endfacet
  facet normal 0.000000e+00 0.000000e+00 -1.000000e+00
    outer loop
      vertex   3.789950e+01 1.000000e+00 7.000000e+01
      vertex   3.386505e+01 6.828034e+00 7.000000e+01
      vertex   3.415735e+01 7.222149e+00 7.000000e+01
    endloop
  endfacet
  facet normal 0.000000e+00 0.000000e+00 -1.000000e+00
    outer loop
      vertex   3.415735e+01 7.222149e+00 7.000000e+01
      vertex   3.440961e+01 7.643016e+00 7.000000e+01
      vertex   3.789950e+01 1.000000e+00 7.000000e+01
    endloop
  endfacet
  facet normal 0.000000e+00 0.000000e+00 -1.000000e+00
    outer loop
      vertex   3.789950e+01 1.000000e+00 7.000000e+01
      vertex   3.440961e+01 7.643016e+00 7.000000e+01
      vertex   3.461940e+01 8.086583e+00 7.000000e+01
    endloop
  endfacet
  facet normal 0.000000e+00 0.000000e+00 -1.000000e+00
    outer loop
      vertex   3.789950e+01 1.000000e+00 7.000000e+01
      vertex   3.461940e+01 8.086583e+00 7.000000e+01
      vertex   3.478470e+01 8.548577e+00 7.000000e+01
    endloop
  endfacet
  facet normal 0.000000e+00 0.000000e+00 -1.000000e+00
    outer loop
      vertex   3.478470e+01 8.548577e+00 7.000000e+01
      vertex   3.490393e+01 9.024548e+00 7.000000e+01
      vertex   3.789950e+01 1.000000e+00 7.000000e+01
    endloop
  endfacet
  facet normal 0.000000e+00 0.000000e+00 -1.000000e+00
    outer loop
      vertex   3.789950e+01 1.000000e+00 7.000000e+01
      vertex   3.490393e+01 9.024548e+00 7.000000e+01
      vertex   3.497592e+01 9.509914e+00 7.000000e+01
    endloop
  endfacet
  facet normal 0.000000e+00 0.000000e+00 -1.000000e+00
    outer loop
      vertex   3.789950e+01 1.000000e+00 7.000000e+01
      vertex   3.497592e+01 9.509914e+00 7.000000e+01
      vertex   3.500000e+01 1.000000e+01 7.000000e+01
    endloop
  endfacet
  facet normal 0.000000e+00 0.000000e+00 -1.000000e+00
    outer loop
      vertex   3.789950e+01 1.000000e+00 7.000000e+01
      vertex   3.500000e+01 1.000000e+01 7.000000e+01
      vertex   3.800000e+01 5.800000e+01 7.000000e+01
    endloop
  endfacet
  facet normal 0.000000e+00 0.000000e+00 -1.000000e+00
    outer loop
      vertex   3.800000e+01 5.800000e+01 7.000000e+01
      vertex   3.500000e+01 1.000000e+01 7.000000e+01
      vertex   3.500000e+01 5.000000e+01 7.000000e+01
    endloop
  endfacet
  facet normal 0.000000e+00 0.000000e+00 -1.000000e+00
    outer loop
      vertex   3.800000e+01 5.800000e+01 7.000000e+01
      vertex   3.500000e+01 5.000000e+01 7.000000e+01
      vertex   3.497592e+01 5.049009e+01 7.000000e+01
    endloop
  endfacet
  facet normal 0.000000e+00 0.000000e+00 -1.000000e+00
    outer loop
      vertex   3.497592e+01 5.049009e+01 7.000000e+01
      vertex   3.490393e+01 5.097545e+01 7.000000e+01
      vertex   3.800000e+01 5.800000e+01 7.000000e+01
    endloop
  endfacet
  facet normal 0.000000e+00 0.000000e+00 -1.000000e+00
    outer loop
      vertex   3.800000e+01 5.800000e+01 7.000000e+01
      vertex   3.490393e+01 5.097545e+01 7.000000e+01
      vertex   3.478470e+01 5.145142e+01 7.000000e+01
    endloop
  endfacet
  facet normal 0.000000e+00 0.000000e+00 -1.000000e+00
    outer loop
      vertex   3.800000e+01 5.800000e+01 7.000000e+01
      vertex   3.478470e+01 5.145142e+01 7.000000e+01
      vertex   3.461940e+01 5.191342e+01 7.000000e+01
    endloop
  endfacet
  facet normal 0.000000e+00 0.000000e+00 -1.000000e+00
    outer loop
      vertex   3.461940e+01 5.191342e+01 7.000000e+01
      vertex   3.440961e+01 5.235698e+01 7.000000e+01
      vertex   3.800000e+01 5.800000e+01 7.000000e+01
    endloop
  endfacet
  facet normal 0.000000e+00 0.000000e+00 -1.000000e+00
    outer loop
      vertex   3.800000e+01 5.800000e+01 7.000000e+01
      vertex   3.440961e+01 5.235698e+01 7.000000e+01
      vertex   3.415735e+01 5.277785e+01 7.000000e+01
    endloop
  endfacet
  facet normal 0.000000e+00 0.000000e+00 -1.000000e+00
    outer loop
      vertex   3.800000e+01 5.800000e+01 7.000000e+01
      vertex   3.415735e+01 5.277785e+01 7.000000e+01
      vertex   3.386505e+01 5.317197e+01 7.000000e+01
    endloop
  endfacet
  facet normal 0.000000e+00 0.000000e+00 -1.000000e+00
    outer loop
      vertex   3.386505e+01 5.317197e+01 7.000000e+01
      vertex   3.353553e+01 5.353553e+01 7.000000e+01
      vertex   3.800000e+01 5.800000e+01 7.000000e+01
    endloop
  endfacet
  facet normal 0.000000e+00 0.000000e+00 -1.000000e+00
    outer loop
      vertex   3.800000e+01 5.800000e+01 7.000000e+01
      vertex   3.353553e+01 5.353553e+01 7.000000e+01
      vertex   3.317197e+01 5.386505e+01 7.000000e+01
    endloop
  endfacet
  facet normal 0.000000e+00 0.000000e+00 -1.000000e+00
    outer loop
      vertex   3.800000e+01 5.800000e+01 7.000000e+01
      vertex   3.317197e+01 5.386505e+01 7.000000e+01
      vertex   3.277785e+01 5.415735e+01 7.000000e+01
    endloop
  endfacet
  facet normal 0.000000e+00 0.000000e+00 -1.000000e+00
    outer loop
      vertex   3.277785e+01 5.415735e+01 7.000000e+01
      vertex   3.235698e+01 5.440961e+01 7.000000e+01
      vertex   3.800000e+01 5.800000e+01 7.000000e+01
    endloop
  endfacet
  facet normal 0.000000e+00 0.000000e+00 -1.000000e+00
    outer loop
      vertex   3.800000e+01 5.800000e+01 7.000000e+01
      vertex   3.235698e+01 5.440961e+01 7.000000e+01
      vertex   3.191342e+01 5.461940e+01 7.000000e+01
    endloop
  endfacet
  facet normal 0.000000e+00 0.000000e+00 -1.000000e+00
    outer loop
      vertex   3.800000e+01 5.800000e+01 7.000000e+01
      vertex   3.191342e+01 5.461940e+01 7.000000e+01
      vertex   3.145142e+01 5.478470e+01 7.000000e+01
    endloop
  endfacet
  facet normal 0.000000e+00 0.000000e+00 -1.000000e+00
    outer loop
      vertex   3.145142e+01 5.478470e+01 7.000000e+01
      vertex   3.097545e+01 5.490393e+01 7.000000e+01
      vertex   3.800000e+01 5.800000e+01 7.000000e+01
    endloop
  endfacet
  facet normal -0.000000e+00 0.000000e+00 -1.000000e+00
    outer loop
      vertex   3.800000e+01 5.800000e+01 7.000000e+01
      vertex   3.097545e+01 5.490393e+01 7.000000e+01
      vertex   2.801730e+01 5.800000e+01 7.000000e+01
    endloop
  endfacet
  facet normal 0.000000e+00 0.000000e+00 -1.000000e+00
    outer loop
      vertex   2.801730e+01 5.800000e+01 7.000000e+01
      vertex   3.097545e+01 5.490393e+01 7.000000e+01
      vertex   3.049009e+01 5.497592e+01 7.000000e+01
    endloop
  endfacet
  facet normal 0.000000e+00 0.000000e+00 -1.000000e+00
    outer loop
      vertex   -7.200000e+01 5.900000e+01 7.000000e+01
      vertex   -7.200000e+01 6.050000e+01 7.000000e+01
      vertex   -6.335534e+01 5.900000e+01 7.000000e+01
    endloop
  endfacet
  facet normal 0.000000e+00 0.000000e+00 -1.000000e+00
    outer loop
      vertex   -6.335534e+01 5.900000e+01 7.000000e+01
      vertex   -7.200000e+01 6.050000e+01 7.000000e+01
      vertex   2.801730e+01 5.900000e+01 7.000000e+01
    endloop
  endfacet
  facet normal 0.000000e+00 0.000000e+00 -1.000000e+00
    outer loop
      vertex   -6.335534e+01 5.900000e+01 7.000000e+01
      vertex   2.801730e+01 5.900000e+01 7.000000e+01
      vertex   -6.335534e+01 5.800000e+01 7.000000e+01
    endloop
  endfacet
  facet normal 0.000000e+00 0.000000e+00 -1.000000e+00
    outer loop
      vertex   -6.335534e+01 5.800000e+01 7.000000e+01
      vertex   2.801730e+01 5.900000e+01 7.000000e+01
      vertex   2.801730e+01 5.800000e+01 7.000000e+01
    endloop
  endfacet
  facet normal 0.000000e+00 0.000000e+00 -1.000000e+00
    outer loop
      vertex   -7.200000e+01 6.050000e+01 7.000000e+01
      vertex   3.800000e+01 6.050000e+01 7.000000e+01
      vertex   2.801730e+01 5.900000e+01 7.000000e+01
    endloop
  endfacet
  facet normal 1.343428e-08 -8.940697e-08 -1.000000e+00
    outer loop
      vertex   2.801730e+01 5.900000e+01 7.000000e+01
      vertex   3.800000e+01 6.050000e+01 7.000000e+01
      vertex   3.800000e+01 5.900000e+01 7.000000e+01
    endloop
  endfacet
  facet normal 0.000000e+00 -0.000000e+00 -1.000000e+00
    outer loop
      vertex   3.800000e+01 5.800000e+01 7.000000e+01
      vertex   3.800000e+01 -1.500000e+00 7.000000e+01
      vertex   3.789950e+01 1.000000e+00 7.000000e+01
    endloop
  endfacet
  facet normal 0.000000e+00 0.000000e+00 -1.000000e+00
    outer loop
      vertex   -7.200000e+01 -1.500000e+00 7.000000e+01
      vertex   -7.200000e+01 0.000000e+00 7.000000e+01
      vertex   -6.335534e+01 0.000000e+00 7.000000e+01
    endloop
  endfacet
  facet normal -9.987955e-01 4.906767e-02 0.000000e+00
    outer loop
      vertex   3.500000e+01 1.000000e+01 7.300000e+01
      vertex   3.500000e+01 1.000000e+01 7.000000e+01
      vertex   3.497592e+01 9.509914e+00 7.300000e+01
    endloop
  endfacet
  facet normal -9.987955e-01 4.906767e-02 2.905389e-17
    outer loop
      vertex   3.497592e+01 9.509914e+00 7.300000e+01
      vertex   3.500000e+01 1.000000e+01 7.000000e+01
      vertex   3.497592e+01 9.509914e+00 7.000000e+01
    endloop
  endfacet
  facet normal -9.891765e-01 1.467305e-01 8.688186e-17
    outer loop
      vertex   3.497592e+01 9.509914e+00 7.300000e+01
      vertex   3.497592e+01 9.509914e+00 7.000000e+01
      vertex   3.490393e+01 9.024548e+00 7.300000e+01
    endloop
  endfacet
  facet normal -9.891765e-01 1.467305e-01 0.000000e+00
    outer loop
      vertex   3.490393e+01 9.024548e+00 7.300000e+01
      vertex   3.497592e+01 9.509914e+00 7.000000e+01
      vertex   3.490393e+01 9.024548e+00 7.000000e+01
    endloop
  endfacet
  facet normal -9.700313e-01 2.429802e-01 0.000000e+00
    outer loop
      vertex   3.490393e+01 9.024548e+00 7.300000e+01
      vertex   3.490393e+01 9.024548e+00 7.000000e+01
      vertex   3.478470e+01 8.548577e+00 7.300000e+01
    endloop
  endfacet
  facet normal -9.700313e-01 2.429802e-01 2.297495e-15
    outer loop
      vertex   3.478470e+01 8.548577e+00 7.300000e+01
      vertex   3.490393e+01 9.024548e+00 7.000000e+01
      vertex   3.478470e+01 8.548577e+00 7.000000e+01
    endloop
  endfacet
  facet normal -9.415441e-01 3.368899e-01 2.230023e-15
    outer loop
      vertex   3.478470e+01 8.548577e+00 7.300000e+01
      vertex   3.478470e+01 8.548577e+00 7.000000e+01
      vertex   3.461940e+01 8.086583e+00 7.300000e+01
    endloop
  endfacet
  facet normal -9.415441e-01 3.368899e-01 0.000000e+00
    outer loop
      vertex   3.461940e+01 8.086583e+00 7.300000e+01
      vertex   3.478470e+01 8.548577e+00 7.000000e+01
      vertex   3.461940e+01 8.086583e+00 7.000000e+01
    endloop
  endfacet
  facet normal -9.039893e-01 4.275551e-01 0.000000e+00
    outer loop
      vertex   3.461940e+01 8.086583e+00 7.300000e+01
      vertex   3.461940e+01 8.086583e+00 7.000000e+01
      vertex   3.440961e+01 7.643016e+00 7.300000e+01
    endloop
  endfacet
  facet normal -9.039893e-01 4.275551e-01 2.531634e-16
    outer loop
      vertex   3.440961e+01 7.643016e+00 7.300000e+01
      vertex   3.461940e+01 8.086583e+00 7.000000e+01
      vertex   3.440961e+01 7.643016e+00 7.000000e+01
    endloop
  endfacet
  facet normal -8.577286e-01 5.141027e-01 3.044099e-16
    outer loop
      vertex   3.440961e+01 7.643016e+00 7.300000e+01
      vertex   3.440961e+01 7.643016e+00 7.000000e+01
      vertex   3.415735e+01 7.222149e+00 7.300000e+01
    endloop
  endfacet
  facet normal -8.577286e-01 5.141027e-01 0.000000e+00
    outer loop
      vertex   3.415735e+01 7.222149e+00 7.300000e+01
      vertex   3.440961e+01 7.643016e+00 7.000000e+01
      vertex   3.415735e+01 7.222149e+00 7.000000e+01
    endloop
  endfacet
  facet normal -8.032075e-01 5.956993e-01 0.000000e+00
    outer loop
      vertex   3.415735e+01 7.222149e+00 7.300000e+01
      vertex   3.415735e+01 7.222149e+00 7.000000e+01
      vertex   3.386505e+01 6.828034e+00 7.300000e+01
    endloop
  endfacet
  facet normal -8.032075e-01 5.956993e-01 0.000000e+00
    outer loop
      vertex   3.386505e+01 6.828034e+00 7.300000e+01
      vertex   3.415735e+01 7.222149e+00 7.000000e+01
      vertex   3.386505e+01 6.828034e+00 7.000000e+01
    endloop
  endfacet
  facet normal -7.409511e-01 6.715590e-01 0.000000e+00
    outer loop
      vertex   3.386505e+01 6.828034e+00 7.300000e+01
      vertex   3.386505e+01 6.828034e+00 7.000000e+01
      vertex   3.353553e+01 6.464466e+00 7.300000e+01
    endloop
  endfacet
  facet normal -7.409511e-01 6.715590e-01 0.000000e+00
    outer loop
      vertex   3.353553e+01 6.464466e+00 7.300000e+01
      vertex   3.386505e+01 6.828034e+00 7.000000e+01
      vertex   3.353553e+01 6.464466e+00 7.000000e+01
    endloop
  endfacet
  facet normal -6.715590e-01 7.409511e-01 0.000000e+00
    outer loop
      vertex   3.353553e+01 6.464466e+00 7.300000e+01
      vertex   3.353553e+01 6.464466e+00 7.000000e+01
      vertex   3.317197e+01 6.134948e+00 7.300000e+01
    endloop
  endfacet
  facet normal -6.715590e-01 7.409511e-01 0.000000e+00
    outer loop
      vertex   3.317197e+01 6.134948e+00 7.300000e+01
      vertex   3.353553e+01 6.464466e+00 7.000000e+01
      vertex   3.317197e+01 6.134948e+00 7.000000e+01
    endloop
  endfacet
  facet normal -5.956993e-01 8.032075e-01 0.000000e+00
    outer loop
      vertex   3.317197e+01 6.134948e+00 7.300000e+01
      vertex   3.317197e+01 6.134948e+00 7.000000e+01
      vertex   3.277785e+01 5.842652e+00 7.300000e+01
    endloop
  endfacet
  facet normal -5.956993e-01 8.032075e-01 0.000000e+00
    outer loop
      vertex   3.277785e+01 5.842652e+00 7.300000e+01
      vertex   3.317197e+01 6.134948e+00 7.000000e+01
      vertex   3.277785e+01 5.842652e+00 7.000000e+01
    endloop
  endfacet
  facet normal -5.141027e-01 8.577286e-01 0.000000e+00
    outer loop
      vertex   3.277785e+01 5.842652e+00 7.300000e+01
      vertex   3.277785e+01 5.842652e+00 7.000000e+01
      vertex   3.235698e+01 5.590394e+00 7.300000e+01
    endloop
  endfacet
  facet normal -5.141027e-01 8.577286e-01 0.000000e+00
    outer loop
      vertex   3.235698e+01 5.590394e+00 7.300000e+01
      vertex   3.277785e+01 5.842652e+00 7.000000e+01
      vertex   3.235698e+01 5.590394e+00 7.000000e+01
    endloop
  endfacet
  facet normal -4.275551e-01 9.039893e-01 0.000000e+00
    outer loop
      vertex   3.235698e+01 5.590394e+00 7.300000e+01
      vertex   3.235698e+01 5.590394e+00 7.000000e+01
      vertex   3.191342e+01 5.380602e+00 7.300000e+01
    endloop
  endfacet
  facet normal -4.275551e-01 9.039893e-01 0.000000e+00
    outer loop
      vertex   3.191342e+01 5.380602e+00 7.300000e+01
      vertex   3.235698e+01 5.590394e+00 7.000000e+01
      vertex   3.191342e+01 5.380602e+00 7.000000e+01
    endloop
  endfacet
  facet normal -3.368899e-01 9.415441e-01 0.000000e+00
    outer loop
      vertex   3.191342e+01 5.380602e+00 7.300000e+01
      vertex   3.191342e+01 5.380602e+00 7.000000e+01
      vertex   3.145142e+01 5.215298e+00 7.300000e+01
    endloop
  endfacet
  facet normal -3.368899e-01 9.415441e-01 3.989576e-16
    outer loop
      vertex   3.145142e+01 5.215298e+00 7.300000e+01
      vertex   3.191342e+01 5.380602e+00 7.000000e+01
      vertex   3.145142e+01 5.215298e+00 7.000000e+01
    endloop
  endfacet
  facet normal -2.429802e-01 9.700313e-01 2.877462e-16
    outer loop
      vertex   3.145142e+01 5.215298e+00 7.300000e+01
      vertex   3.145142e+01 5.215298e+00 7.000000e+01
      vertex   3.097545e+01 5.096074e+00 7.300000e+01
    endloop
  endfacet
  facet normal -2.429802e-01 9.700313e-01 0.000000e+00
    outer loop
      vertex   3.097545e+01 5.096074e+00 7.300000e+01
      vertex   3.145142e+01 5.215298e+00 7.000000e+01
      vertex   3.097545e+01 5.096074e+00 7.000000e+01
    endloop
  endfacet
  facet normal -1.467305e-01 9.891765e-01 0.000000e+00
    outer loop
      vertex   3.097545e+01 5.096074e+00 7.300000e+01
      vertex   3.097545e+01 5.096074e+00 7.000000e+01
      vertex   3.049009e+01 5.024076e+00 7.300000e+01
    endloop
  endfacet
  facet normal -1.467305e-01 9.891765e-01 0.000000e+00
    outer loop
      vertex   3.049009e+01 5.024076e+00 7.300000e+01
      vertex   3.097545e+01 5.096074e+00 7.000000e+01
      vertex   3.049009e+01 5.024076e+00 7.000000e+01
    endloop
  endfacet
  facet normal -4.906767e-02 9.987955e-01 0.000000e+00
    outer loop
      vertex   3.049009e+01 5.024076e+00 7.300000e+01
      vertex   3.049009e+01 5.024076e+00 7.000000e+01
      vertex   3.000000e+01 5.000000e+00 7.300000e+01
    endloop
  endfacet
  facet normal -4.906767e-02 9.987955e-01 0.000000e+00
    outer loop
      vertex   3.000000e+01 5.000000e+00 7.300000e+01
      vertex   3.049009e+01 5.024076e+00 7.000000e+01
      vertex   3.000000e+01 5.000000e+00 7.000000e+01
    endloop
  endfacet
  facet normal -4.906767e-02 -9.987955e-01 -0.000000e+00
    outer loop
      vertex   3.000000e+01 5.500000e+01 7.300000e+01
      vertex   3.000000e+01 5.500000e+01 7.000000e+01
      vertex   3.049009e+01 5.497592e+01 7.300000e+01
    endloop
  endfacet
  facet normal -4.906767e-02 -9.987955e-01 -0.000000e+00
    outer loop
      vertex   3.049009e+01 5.497592e+01 7.300000e+01
      vertex   3.000000e+01 5.500000e+01 7.000000e+01
      vertex   3.049009e+01 5.497592e+01 7.000000e+01
    endloop
  endfacet
  facet normal -1.467305e-01 -9.891765e-01 -0.000000e+00
    outer loop
      vertex   3.049009e+01 5.497592e+01 7.300000e+01
      vertex   3.049009e+01 5.497592e+01 7.000000e+01
      vertex   3.097545e+01 5.490393e+01 7.300000e+01
    endloop
  endfacet
  facet normal -1.467305e-01 -9.891765e-01 -0.000000e+00
    outer loop
      vertex   3.097545e+01 5.490393e+01 7.300000e+01
      vertex   3.049009e+01 5.497592e+01 7.000000e+01
      vertex   3.097545e+01 5.490393e+01 7.000000e+01
    endloop
  endfacet
  facet normal -2.429802e-01 -9.700313e-01 -0.000000e+00
    outer loop
      vertex   3.097545e+01 5.490393e+01 7.300000e+01
      vertex   3.097545e+01 5.490393e+01 7.000000e+01
      vertex   3.145142e+01 5.478470e+01 7.300000e+01
    endloop
  endfacet
  facet normal -2.429802e-01 -9.700313e-01 -2.877462e-16
    outer loop
      vertex   3.145142e+01 5.478470e+01 7.300000e+01
      vertex   3.097545e+01 5.490393e+01 7.000000e+01
      vertex   3.145142e+01 5.478470e+01 7.000000e+01
    endloop
  endfacet
  facet normal -3.368899e-01 -9.415441e-01 -3.989576e-16
    outer loop
      vertex   3.145142e+01 5.478470e+01 7.300000e+01
      vertex   3.145142e+01 5.478470e+01 7.000000e+01
      vertex   3.191342e+01 5.461940e+01 7.300000e+01
    endloop
  endfacet
  facet normal -3.368899e-01 -9.415441e-01 -0.000000e+00
    outer loop
      vertex   3.191342e+01 5.461940e+01 7.300000e+01
      vertex   3.145142e+01 5.478470e+01 7.000000e+01
      vertex   3.191342e+01 5.461940e+01 7.000000e+01
    endloop
  endfacet
  facet normal -4.275551e-01 -9.039893e-01 -0.000000e+00
    outer loop
      vertex   3.191342e+01 5.461940e+01 7.300000e+01
      vertex   3.191342e+01 5.461940e+01 7.000000e+01
      vertex   3.235698e+01 5.440961e+01 7.300000e+01
    endloop
  endfacet
  facet normal -4.275551e-01 -9.039893e-01 -0.000000e+00
    outer loop
      vertex   3.235698e+01 5.440961e+01 7.300000e+01
      vertex   3.191342e+01 5.461940e+01 7.000000e+01
      vertex   3.235698e+01 5.440961e+01 7.000000e+01
    endloop
  endfacet
  facet normal -5.141027e-01 -8.577286e-01 -0.000000e+00
    outer loop
      vertex   3.235698e+01 5.440961e+01 7.300000e+01
      vertex   3.235698e+01 5.440961e+01 7.000000e+01
      vertex   3.277785e+01 5.415735e+01 7.300000e+01
    endloop
  endfacet
  facet normal -5.141027e-01 -8.577286e-01 -0.000000e+00
    outer loop
      vertex   3.277785e+01 5.415735e+01 7.300000e+01
      vertex   3.235698e+01 5.440961e+01 7.000000e+01
      vertex   3.277785e+01 5.415735e+01 7.000000e+01
    endloop
  endfacet
  facet normal -5.956993e-01 -8.032075e-01 -0.000000e+00
    outer loop
      vertex   3.277785e+01 5.415735e+01 7.300000e+01
      vertex   3.277785e+01 5.415735e+01 7.000000e+01
      vertex   3.317197e+01 5.386505e+01 7.300000e+01
    endloop
  endfacet
  facet normal -5.956993e-01 -8.032075e-01 -0.000000e+00
    outer loop
      vertex   3.317197e+01 5.386505e+01 7.300000e+01
      vertex   3.277785e+01 5.415735e+01 7.000000e+01
      vertex   3.317197e+01 5.386505e+01 7.000000e+01
    endloop
  endfacet
  facet normal -6.715590e-01 -7.409511e-01 -0.000000e+00
    outer loop
      vertex   3.317197e+01 5.386505e+01 7.300000e+01
      vertex   3.317197e+01 5.386505e+01 7.000000e+01
      vertex   3.353553e+01 5.353553e+01 7.300000e+01
    endloop
  endfacet
  facet normal -6.715590e-01 -7.409511e-01 -0.000000e+00
    outer loop
      vertex   3.353553e+01 5.353553e+01 7.300000e+01
      vertex   3.317197e+01 5.386505e+01 7.000000e+01
      vertex   3.353553e+01 5.353553e+01 7.000000e+01
    endloop
  endfacet
  facet normal -7.409511e-01 -6.715590e-01 -0.000000e+00
    outer loop
      vertex   3.353553e+01 5.353553e+01 7.300000e+01
      vertex   3.353553e+01 5.353553e+01 7.000000e+01
      vertex   3.386505e+01 5.317197e+01 7.300000e+01
    endloop
  endfacet
  facet normal -7.409511e-01 -6.715590e-01 -0.000000e+00
    outer loop
      vertex   3.386505e+01 5.317197e+01 7.300000e+01
      vertex   3.353553e+01 5.353553e+01 7.000000e+01
      vertex   3.386505e+01 5.317197e+01 7.000000e+01
    endloop
  endfacet
  facet normal -8.032075e-01 -5.956993e-01 -0.000000e+00
    outer loop
      vertex   3.386505e+01 5.317197e+01 7.300000e+01
      vertex   3.386505e+01 5.317197e+01 7.000000e+01
      vertex   3.415735e+01 5.277785e+01 7.300000e+01
    endloop
  endfacet
  facet normal -8.032075e-01 -5.956993e-01 -0.000000e+00
    outer loop
      vertex   3.415735e+01 5.277785e+01 7.300000e+01
      vertex   3.386505e+01 5.317197e+01 7.000000e+01
      vertex   3.415735e+01 5.277785e+01 7.000000e+01
    endloop
  endfacet
  facet normal -8.577286e-01 -5.141027e-01 -0.000000e+00
    outer loop
      vertex   3.415735e+01 5.277785e+01 7.300000e+01
      vertex   3.415735e+01 5.277785e+01 7.000000e+01
      vertex   3.440961e+01 5.235698e+01 7.300000e+01
    endloop
  endfacet
  facet normal -8.577286e-01 -5.141027e-01 -0.000000e+00
    outer loop
      vertex   3.440961e+01 5.235698e+01 7.300000e+01
      vertex   3.415735e+01 5.277785e+01 7.000000e+01
      vertex   3.440961e+01 5.235698e+01 7.000000e+01
    endloop
  endfacet
  facet normal -9.039893e-01 -4.275551e-01 -0.000000e+00
    outer loop
      vertex   3.440961e+01 5.235698e+01 7.300000e+01
      vertex   3.440961e+01 5.235698e+01 7.000000e+01
      vertex   3.461940e+01 5.191342e+01 7.300000e+01
    endloop
  endfacet
  facet normal -9.039893e-01 -4.275551e-01 -0.000000e+00
    outer loop
      vertex   3.461940e+01 5.191342e+01 7.300000e+01
      vertex   3.440961e+01 5.235698e+01 7.000000e+01
      vertex   3.461940e+01 5.191342e+01 7.000000e+01
    endloop
  endfacet
  facet normal -9.415441e-01 -3.368899e-01 -0.000000e+00
    outer loop
      vertex   3.461940e+01 5.191342e+01 7.300000e+01
      vertex   3.461940e+01 5.191342e+01 7.000000e+01
      vertex   3.478470e+01 5.145142e+01 7.300000e+01
    endloop
  endfacet
  facet normal -9.415441e-01 -3.368899e-01 -2.230023e-15
    outer loop
      vertex   3.478470e+01 5.145142e+01 7.300000e+01
      vertex   3.461940e+01 5.191342e+01 7.000000e+01
      vertex   3.478470e+01 5.145142e+01 7.000000e+01
    endloop
  endfacet
  facet normal -9.700313e-01 -2.429802e-01 -2.297495e-15
    outer loop
      vertex   3.478470e+01 5.145142e+01 7.300000e+01
      vertex   3.478470e+01 5.145142e+01 7.000000e+01
      vertex   3.490393e+01 5.097545e+01 7.300000e+01
    endloop
  endfacet
  facet normal -9.700313e-01 -2.429802e-01 -0.000000e+00
    outer loop
      vertex   3.490393e+01 5.097545e+01 7.300000e+01
      vertex   3.478470e+01 5.145142e+01 7.000000e+01
      vertex   3.490393e+01 5.097545e+01 7.000000e+01
    endloop
  endfacet
  facet normal -9.891765e-01 -1.467305e-01 -0.000000e+00
    outer loop
      vertex   3.490393e+01 5.097545e+01 7.300000e+01
      vertex   3.490393e+01 5.097545e+01 7.000000e+01
      vertex   3.497592e+01 5.049009e+01 7.300000e+01
    endloop
  endfacet
  facet normal -9.891765e-01 -1.467305e-01 -0.000000e+00
    outer loop
      vertex   3.497592e+01 5.049009e+01 7.300000e+01
      vertex   3.490393e+01 5.097545e+01 7.000000e+01
      vertex   3.497592e+01 5.049009e+01 7.000000e+01
    endloop
  endfacet
  facet normal -9.987955e-01 -4.906767e-02 -0.000000e+00
    outer loop
      vertex   3.497592e+01 5.049009e+01 7.300000e+01
      vertex   3.497592e+01 5.049009e+01 7.000000e+01
      vertex   3.500000e+01 5.000000e+01 7.300000e+01
    endloop
  endfacet
  facet normal -9.987955e-01 -4.906767e-02 -0.000000e+00
    outer loop
      vertex   3.500000e+01 5.000000e+01 7.300000e+01
      vertex   3.497592e+01 5.049009e+01 7.000000e+01
      vertex   3.500000e+01 5.000000e+01 7.000000e+01
    endloop
  endfacet
  facet normal -1.000000e+00 0.000000e+00 0.000000e+00
    outer loop
      vertex   3.500000e+01 1.000000e+01 7.300000e+01
      vertex   3.500000e+01 5.000000e+01 7.300000e+01
      vertex   3.500000e+01 1.000000e+01 7.000000e+01
    endloop
  endfacet
  facet normal -1.000000e+00 0.000000e+00 0.000000e+00
    outer loop
      vertex   3.500000e+01 1.000000e+01 7.000000e+01
      vertex   3.500000e+01 5.000000e+01 7.300000e+01
      vertex   3.500000e+01 5.000000e+01 7.000000e+01
    endloop
  endfacet
  facet normal 0.000000e+00 0.000000e+00 -1.000000e+00
    outer loop
      vertex   4.000000e+01 -1.500000e+00 5.900000e+01
      vertex   3.800000e+01 -1.500000e+00 5.900000e+01
      vertex   4.000000e+01 6.050000e+01 5.900000e+01
    endloop
  endfacet
  facet normal -0.000000e+00 0.000000e+00 -1.000000e+00
    outer loop
      vertex   4.000000e+01 6.050000e+01 5.900000e+01
      vertex   3.800000e+01 -1.500000e+00 5.900000e+01
      vertex   3.800000e+01 6.050000e+01 5.900000e+01
    endloop
  endfacet
  facet normal 0.000000e+00 1.000000e+00 -0.000000e+00
    outer loop
      vertex   3.800000e+01 5.900000e+01 6.000000e+01
      vertex   2.801730e+01 5.900000e+01 7.000000e+01
      vertex   3.800000e+01 5.900000e+01 7.000000e+01
    endloop
  endfacet
  facet normal 0.000000e+00 -1.000000e+00 0.000000e+00
    outer loop
      vertex   3.800000e+01 5.800000e+01 6.000000e+01
      vertex   3.800000e+01 5.800000e+01 7.000000e+01
      vertex   2.801730e+01 5.800000e+01 7.000000e+01
    endloop
  endfacet
  facet normal 0.000000e+00 1.000000e+00 -0.000000e+00
    outer loop
      vertex   -7.200000e+01 6.050000e+01 7.000000e+01
      vertex   -7.200000e+01 6.050000e+01 7.300000e+01
      vertex   3.800000e+01 6.050000e+01 7.000000e+01
    endloop
  endfacet
  facet normal 0.000000e+00 1.000000e+00 -0.000000e+00
    outer loop
      vertex   3.800000e+01 6.050000e+01 7.000000e+01
      vertex   -7.200000e+01 6.050000e+01 7.300000e+01
      vertex   4.000000e+01 6.050000e+01 7.300000e+01
    endloop
  endfacet
  facet normal -0.000000e+00 1.000000e+00 0.000000e+00
    outer loop
      vertex   3.800000e+01 6.050000e+01 7.000000e+01
      vertex   4.000000e+01 6.050000e+01 7.300000e+01
      vertex   4.000000e+01 6.050000e+01 5.900000e+01
    endloop
  endfacet
  facet normal 0.000000e+00 1.000000e+00 0.000000e+00
    outer loop
      vertex   4.000000e+01 6.050000e+01 5.900000e+01
      vertex   3.800000e+01 6.050000e+01 5.900000e+01
      vertex   3.800000e+01 6.050000e+01 7.000000e+01
    endloop
  endfacet
  facet normal 0.000000e+00 1.000000e+00 -0.000000e+00
    outer loop
      vertex   3.800000e+01 1.000000e+00 6.000000e+01
      vertex   2.800000e+01 1.000000e+00 7.000000e+01
      vertex   3.800000e+01 1.000000e+00 6.989950e+01
    endloop
  endfacet
  facet normal 0.000000e+00 1.000000e+00 0.000000e+00
    outer loop
      vertex   3.800000e+01 1.000000e+00 6.989950e+01
      vertex   2.800000e+01 1.000000e+00 7.000000e+01
      vertex   3.789950e+01 1.000000e+00 7.000000e+01
    endloop
  endfacet
  facet normal 7.071068e-01 -5.024296e-15 7.071068e-01
    outer loop
      vertex   3.789950e+01 0.000000e+00 7.000000e+01
      vertex   3.800000e+01 0.000000e+00 6.989950e+01
      vertex   3.789950e+01 1.000000e+00 7.000000e+01
    endloop
  endfacet
  facet normal 7.071068e-01 0.000000e+00 7.071068e-01
    outer loop
      vertex   3.789950e+01 1.000000e+00 7.000000e+01
      vertex   3.800000e+01 0.000000e+00 6.989950e+01
      vertex   3.800000e+01 1.000000e+00 6.989950e+01
    endloop
  endfacet
  facet normal -0.000000e+00 -1.000000e+00 -0.000000e+00
    outer loop
      vertex   3.800000e+01 0.000000e+00 6.989950e+01
      vertex   3.789950e+01 0.000000e+00 7.000000e+01
      vertex   3.800000e+01 0.000000e+00 6.000000e+01
    endloop
  endfacet
  facet normal 0.000000e+00 -1.000000e+00 0.000000e+00
    outer loop
      vertex   3.800000e+01 0.000000e+00 6.000000e+01
      vertex   3.789950e+01 0.000000e+00 7.000000e+01
      vertex   2.800000e+01 0.000000e+00 7.000000e+01
    endloop
  endfacet
  facet normal 1.000000e+00 0.000000e+00 5.075305e-16
    outer loop
      vertex   4.000000e+01 6.050000e+01 5.900000e+01
      vertex   4.000000e+01 6.050000e+01 7.300000e+01
      vertex   4.000000e+01 -1.500000e+00 5.900000e+01
    endloop
  endfacet
  facet normal 1.000000e+00 0.000000e+00 5.075305e-16
    outer loop
      vertex   4.000000e+01 -1.500000e+00 5.900000e+01
      vertex   4.000000e+01 6.050000e+01 7.300000e+01
      vertex   4.000000e+01 -1.500000e+00 7.300000e+01
    endloop
  endfacet
  facet normal 5.412567e-14 7.872827e-14 1.000000e+00
    outer loop
      vertex   -6.449009e+01 5.497592e+01 7.300000e+01
      vertex   -6.400000e+01 5.500000e+01 7.300000e+01
      vertex   -7.200000e+01 6.050000e+01 7.300000e+01
    endloop
  endfacet
  facet normal -3.023586e-16 -4.397944e-16 1.000000e+00
    outer loop
      vertex   -7.200000e+01 6.050000e+01 7.300000e+01
      vertex   -6.400000e+01 5.500000e+01 7.300000e+01
      vertex   3.000000e+01 5.500000e+01 7.300000e+01
    endloop
  endfacet
  facet normal -2.537653e-16 4.613914e-16 1.000000e+00
    outer loop
      vertex   -7.200000e+01 6.050000e+01 7.300000e+01
      vertex   3.000000e+01 5.500000e+01 7.300000e+01
      vertex   4.000000e+01 6.050000e+01 7.300000e+01
    endloop
  endfacet
  facet normal 0.000000e+00 0.000000e+00 1.000000e+00
    outer loop
      vertex   4.000000e+01 6.050000e+01 7.300000e+01
      vertex   3.000000e+01 5.500000e+01 7.300000e+01
      vertex   3.049009e+01 5.497592e+01 7.300000e+01
    endloop
  endfacet
  facet normal 0.000000e+00 0.000000e+00 1.000000e+00
    outer loop
      vertex   4.000000e+01 6.050000e+01 7.300000e+01
      vertex   3.049009e+01 5.497592e+01 7.300000e+01
      vertex   3.097545e+01 5.490393e+01 7.300000e+01
    endloop
  endfacet
  facet normal -0.000000e+00 0.000000e+00 1.000000e+00
    outer loop
      vertex   3.097545e+01 5.490393e+01 7.300000e+01
      vertex   3.145142e+01 5.478470e+01 7.300000e+01
      vertex   4.000000e+01 6.050000e+01 7.300000e+01
    endloop
  endfacet
  facet normal 0.000000e+00 0.000000e+00 1.000000e+00
    outer loop
      vertex   4.000000e+01 6.050000e+01 7.300000e+01
      vertex   3.145142e+01 5.478470e+01 7.300000e+01
      vertex   3.191342e+01 5.461940e+01 7.300000e+01
    endloop
  endfacet
  facet normal 0.000000e+00 0.000000e+00 1.000000e+00
    outer loop
      vertex   4.000000e+01 6.050000e+01 7.300000e+01
      vertex   3.191342e+01 5.461940e+01 7.300000e+01
      vertex   3.235698e+01 5.440961e+01 7.300000e+01
    endloop
  endfacet
  facet normal -0.000000e+00 0.000000e+00 1.000000e+00
    outer loop
      vertex   3.235698e+01 5.440961e+01 7.300000e+01
      vertex   3.277785e+01 5.415735e+01 7.300000e+01
      vertex   4.000000e+01 6.050000e+01 7.300000e+01
    endloop
  endfacet
  facet normal 0.000000e+00 0.000000e+00 1.000000e+00
    outer loop
      vertex   4.000000e+01 6.050000e+01 7.300000e+01
      vertex   3.277785e+01 5.415735e+01 7.300000e+01
      vertex   3.317197e+01 5.386505e+01 7.300000e+01
    endloop
  endfacet
  facet normal 0.000000e+00 0.000000e+00 1.000000e+00
    outer loop
      vertex   4.000000e+01 6.050000e+01 7.300000e+01
      vertex   3.317197e+01 5.386505e+01 7.300000e+01
      vertex   3.353553e+01 5.353553e+01 7.300000e+01
    endloop
  endfacet
  facet normal -0.000000e+00 0.000000e+00 1.000000e+00
    outer loop
      vertex   3.353553e+01 5.353553e+01 7.300000e+01
      vertex   3.386505e+01 5.317197e+01 7.300000e+01
      vertex   4.000000e+01 6.050000e+01 7.300000e+01
    endloop
  endfacet
  facet normal 0.000000e+00 0.000000e+00 1.000000e+00
    outer loop
      vertex   4.000000e+01 6.050000e+01 7.300000e+01
      vertex   3.386505e+01 5.317197e+01 7.300000e+01
      vertex   3.415735e+01 5.277785e+01 7.300000e+01
    endloop
  endfacet
  facet normal 0.000000e+00 0.000000e+00 1.000000e+00
    outer loop
      vertex   4.000000e+01 6.050000e+01 7.300000e+01
      vertex   3.415735e+01 5.277785e+01 7.300000e+01
      vertex   3.440961e+01 5.235698e+01 7.300000e+01
    endloop
  endfacet
  facet normal -0.000000e+00 0.000000e+00 1.000000e+00
    outer loop
      vertex   3.440961e+01 5.235698e+01 7.300000e+01
      vertex   3.461940e+01 5.191342e+01 7.300000e+01
      vertex   4.000000e+01 6.050000e+01 7.300000e+01
    endloop
  endfacet
  facet normal 0.000000e+00 0.000000e+00 1.000000e+00
    outer loop
      vertex   4.000000e+01 6.050000e+01 7.300000e+01
      vertex   3.461940e+01 5.191342e+01 7.300000e+01
      vertex   3.478470e+01 5.145142e+01 7.300000e+01
    endloop
  endfacet
  facet normal 0.000000e+00 0.000000e+00 1.000000e+00
    outer loop
      vertex   4.000000e+01 6.050000e+01 7.300000e+01
      vertex   3.478470e+01 5.145142e+01 7.300000e+01
      vertex   3.490393e+01 5.097545e+01 7.300000e+01
    endloop
  endfacet
  facet normal -0.000000e+00 0.000000e+00 1.000000e+00
    outer loop
      vertex   3.490393e+01 5.097545e+01 7.300000e+01
      vertex   3.497592e+01 5.049009e+01 7.300000e+01
      vertex   4.000000e+01 6.050000e+01 7.300000e+01
    endloop
  endfacet
  facet normal 0.000000e+00 0.000000e+00 1.000000e+00
    outer loop
      vertex   4.000000e+01 6.050000e+01 7.300000e+01
      vertex   3.497592e+01 5.049009e+01 7.300000e+01
      vertex   3.500000e+01 5.000000e+01 7.300000e+01
    endloop
  endfacet
  facet normal 0.000000e+00 0.000000e+00 1.000000e+00
    outer loop
      vertex   4.000000e+01 6.050000e+01 7.300000e+01
      vertex   3.500000e+01 5.000000e+01 7.300000e+01
      vertex   3.500000e+01 1.000000e+01 7.300000e+01
    endloop
  endfacet
  facet normal 0.000000e+00 0.000000e+00 1.000000e+00
    outer loop
      vertex   4.000000e+01 6.050000e+01 7.300000e+01
      vertex   3.500000e+01 1.000000e+01 7.300000e+01
      vertex   4.000000e+01 -1.500000e+00 7.300000e+01
    endloop
  endfacet
  facet normal 0.000000e+00 0.000000e+00 1.000000e+00
    outer loop
      vertex   4.000000e+01 -1.500000e+00 7.300000e+01
      vertex   3.500000e+01 1.000000e+01 7.300000e+01
      vertex   3.497592e+01 9.509914e+00 7.300000e+01
    endloop
  endfacet
  facet normal 0.000000e+00 0.000000e+00 1.000000e+00
    outer loop
      vertex   4.000000e+01 -1.500000e+00 7.300000e+01
      vertex   3.497592e+01 9.509914e+00 7.300000e+01
      vertex   3.490393e+01 9.024548e+00 7.300000e+01
    endloop
  endfacet
  facet normal 0.000000e+00 0.000000e+00 1.000000e+00
    outer loop
      vertex   3.490393e+01 9.024548e+00 7.300000e+01
      vertex   3.478470e+01 8.548577e+00 7.300000e+01
      vertex   4.000000e+01 -1.500000e+00 7.300000e+01
    endloop
  endfacet
  facet normal 0.000000e+00 0.000000e+00 1.000000e+00
    outer loop
      vertex   4.000000e+01 -1.500000e+00 7.300000e+01
      vertex   3.478470e+01 8.548577e+00 7.300000e+01
      vertex   3.461940e+01 8.086583e+00 7.300000e+01
    endloop
  endfacet
  facet normal 0.000000e+00 0.000000e+00 1.000000e+00
    outer loop
      vertex   4.000000e+01 -1.500000e+00 7.300000e+01
      vertex   3.461940e+01 8.086583e+00 7.300000e+01
      vertex   3.440961e+01 7.643016e+00 7.300000e+01
    endloop
  endfacet
  facet normal 0.000000e+00 0.000000e+00 1.000000e+00
    outer loop
      vertex   3.440961e+01 7.643016e+00 7.300000e+01
      vertex   3.415735e+01 7.222149e+00 7.300000e+01
      vertex   4.000000e+01 -1.500000e+00 7.300000e+01
    endloop
  endfacet
  facet normal 0.000000e+00 0.000000e+00 1.000000e+00
    outer loop
      vertex   4.000000e+01 -1.500000e+00 7.300000e+01
      vertex   3.415735e+01 7.222149e+00 7.300000e+01
      vertex   3.386505e+01 6.828034e+00 7.300000e+01
    endloop
  endfacet
  facet normal 0.000000e+00 0.000000e+00 1.000000e+00
    outer loop
      vertex   4.000000e+01 -1.500000e+00 7.300000e+01
      vertex   3.386505e+01 6.828034e+00 7.300000e+01
      vertex   3.353553e+01 6.464466e+00 7.300000e+01
    endloop
  endfacet
  facet normal 0.000000e+00 0.000000e+00 1.000000e+00
    outer loop
      vertex   3.353553e+01 6.464466e+00 7.300000e+01
      vertex   3.317197e+01 6.134948e+00 7.300000e+01
      vertex   4.000000e+01 -1.500000e+00 7.300000e+01
    endloop
  endfacet
  facet normal 0.000000e+00 0.000000e+00 1.000000e+00
    outer loop
      vertex   4.000000e+01 -1.500000e+00 7.300000e+01
      vertex   3.317197e+01 6.134948e+00 7.300000e+01
      vertex   3.277785e+01 5.842652e+00 7.300000e+01
    endloop
  endfacet
  facet normal 0.000000e+00 0.000000e+00 1.000000e+00
    outer loop
      vertex   4.000000e+01 -1.500000e+00 7.300000e+01
      vertex   3.277785e+01 5.842652e+00 7.300000e+01
      vertex   3.235698e+01 5.590394e+00 7.300000e+01
    endloop
  endfacet
  facet normal 0.000000e+00 0.000000e+00 1.000000e+00
    outer loop
      vertex   3.235698e+01 5.590394e+00 7.300000e+01
      vertex   3.191342e+01 5.380602e+00 7.300000e+01
      vertex   4.000000e+01 -1.500000e+00 7.300000e+01
    endloop
  endfacet
  facet normal 0.000000e+00 0.000000e+00 1.000000e+00
    outer loop
      vertex   4.000000e+01 -1.500000e+00 7.300000e+01
      vertex   3.191342e+01 5.380602e+00 7.300000e+01
      vertex   3.145142e+01 5.215298e+00 7.300000e+01
    endloop
  endfacet
  facet normal 0.000000e+00 0.000000e+00 1.000000e+00
    outer loop
      vertex   4.000000e+01 -1.500000e+00 7.300000e+01
      vertex   3.145142e+01 5.215298e+00 7.300000e+01
      vertex   3.097545e+01 5.096074e+00 7.300000e+01
    endloop
  endfacet
  facet normal 0.000000e+00 0.000000e+00 1.000000e+00
    outer loop
      vertex   3.097545e+01 5.096074e+00 7.300000e+01
      vertex   3.049009e+01 5.024076e+00 7.300000e+01
      vertex   4.000000e+01 -1.500000e+00 7.300000e+01
    endloop
  endfacet
  facet normal 0.000000e+00 0.000000e+00 1.000000e+00
    outer loop
      vertex   4.000000e+01 -1.500000e+00 7.300000e+01
      vertex   3.049009e+01 5.024076e+00 7.300000e+01
      vertex   3.000000e+01 5.000000e+00 7.300000e+01
    endloop
  endfacet
  facet normal -2.537653e-16 -3.904080e-16 1.000000e+00
    outer loop
      vertex   4.000000e+01 -1.500000e+00 7.300000e+01
      vertex   3.000000e+01 5.000000e+00 7.300000e+01
      vertex   -7.200000e+01 -1.500000e+00 7.300000e+01
    endloop
  endfacet
  facet normal -3.023586e-16 3.721337e-16 1.000000e+00
    outer loop
      vertex   -7.200000e+01 -1.500000e+00 7.300000e+01
      vertex   3.000000e+01 5.000000e+00 7.300000e+01
      vertex   -6.400000e+01 5.000000e+00 7.300000e+01
    endloop
  endfacet
  facet normal 5.468677e-14 -6.730680e-14 1.000000e+00
    outer loop
      vertex   -7.200000e+01 -1.500000e+00 7.300000e+01
      vertex   -6.400000e+01 5.000000e+00 7.300000e+01
      vertex   -6.449009e+01 5.024076e+00 7.300000e+01
    endloop
  endfacet
  facet normal -5.519672e-16 -3.721060e-15 1.000000e+00
    outer loop
      vertex   -6.449009e+01 5.024076e+00 7.300000e+01
      vertex   -6.497545e+01 5.096074e+00 7.300000e+01
      vertex   -7.200000e+01 -1.500000e+00 7.300000e+01
    endloop
  endfacet
  facet normal -8.520323e-16 -3.401503e-15 1.000000e+00
    outer loop
      vertex   -7.200000e+01 -1.500000e+00 7.300000e+01
      vertex   -6.497545e+01 5.096074e+00 7.300000e+01
      vertex   -6.545142e+01 5.215298e+00 7.300000e+01
    endloop
  endfacet
  facet normal -1.122652e-15 -3.137602e-15 1.000000e+00
    outer loop
      vertex   -7.200000e+01 -1.500000e+00 7.300000e+01
      vertex   -6.545142e+01 5.215298e+00 7.300000e+01
      vertex   -6.591342e+01 5.380602e+00 7.300000e+01
    endloop
  endfacet
  facet normal -1.377395e-15 -2.912257e-15 1.000000e+00
    outer loop
      vertex   -6.591342e+01 5.380602e+00 7.300000e+01
      vertex   -6.635698e+01 5.590394e+00 7.300000e+01
      vertex   -7.200000e+01 -1.500000e+00 7.300000e+01
    endloop
  endfacet
  facet normal -1.626642e-15 -2.713889e-15 1.000000e+00
    outer loop
      vertex   -7.200000e+01 -1.500000e+00 7.300000e+01
      vertex   -6.635698e+01 5.590394e+00 7.300000e+01
      vertex   -6.677785e+01 5.842652e+00 7.300000e+01
    endloop
  endfacet
  facet normal -1.879423e-15 -2.534109e-15 1.000000e+00
    outer loop
      vertex   -7.200000e+01 -1.500000e+00 7.300000e+01
      vertex   -6.677785e+01 5.842652e+00 7.300000e+01
      vertex   -6.717197e+01 6.134948e+00 7.300000e+01
    endloop
  endfacet
  facet normal -2.144727e-15 -2.366342e-15 1.000000e+00
    outer loop
      vertex   -6.717197e+01 6.134948e+00 7.300000e+01
      vertex   -6.753553e+01 6.464466e+00 7.300000e+01
      vertex   -7.200000e+01 -1.500000e+00 7.300000e+01
    endloop
  endfacet
  facet normal -2.432733e-15 -2.204901e-15 1.000000e+00
    outer loop
      vertex   -7.200000e+01 -1.500000e+00 7.300000e+01
      vertex   -6.753553e+01 6.464466e+00 7.300000e+01
      vertex   -6.786505e+01 6.828034e+00 7.300000e+01
    endloop
  endfacet
  facet normal -2.756328e-15 -2.044232e-15 1.000000e+00
    outer loop
      vertex   -7.200000e+01 -1.500000e+00 7.300000e+01
      vertex   -6.786505e+01 6.828034e+00 7.300000e+01
      vertex   -6.815735e+01 7.222149e+00 7.300000e+01
    endloop
  endfacet
  facet normal -3.133420e-15 -1.878100e-15 1.000000e+00
    outer loop
      vertex   -6.815735e+01 7.222149e+00 7.300000e+01
      vertex   -6.840961e+01 7.643016e+00 7.300000e+01
      vertex   -7.200000e+01 -1.500000e+00 7.300000e+01
    endloop
  endfacet
  facet normal -3.590994e-15 -1.698414e-15 1.000000e+00
    outer loop
      vertex   -7.200000e+01 -1.500000e+00 7.300000e+01
      vertex   -6.840961e+01 7.643016e+00 7.300000e+01
      vertex   -6.861940e+01 8.086583e+00 7.300000e+01
    endloop
  endfacet
  facet normal -4.173074e-15 -1.493150e-15 1.000000e+00
    outer loop
      vertex   -7.200000e+01 -1.500000e+00 7.300000e+01
      vertex   -6.861940e+01 8.086583e+00 7.300000e+01
      vertex   -6.878470e+01 8.548577e+00 7.300000e+01
    endloop
  endfacet
  facet normal -4.958138e-15 -1.241949e-15 1.000000e+00
    outer loop
      vertex   -6.878470e+01 8.548577e+00 7.300000e+01
      vertex   -6.890393e+01 9.024548e+00 7.300000e+01
      vertex   -7.200000e+01 -1.500000e+00 7.300000e+01
    endloop
  endfacet
  facet normal -6.102690e-15 -9.052485e-16 1.000000e+00
    outer loop
      vertex   -7.200000e+01 -1.500000e+00 7.300000e+01
      vertex   -6.890393e+01 9.024548e+00 7.300000e+01
      vertex   -6.897592e+01 9.509914e+00 7.300000e+01
    endloop
  endfacet
  facet normal -1.870775e-13 4.880282e-14 1.000000e+00
    outer loop
      vertex   -7.200000e+01 -1.500000e+00 7.300000e+01
      vertex   -6.897592e+01 9.509914e+00 7.300000e+01
      vertex   -6.900000e+01 1.000000e+01 7.300000e+01
    endloop
  endfacet
  facet normal 0.000000e+00 -0.000000e+00 1.000000e+00
    outer loop
      vertex   -7.200000e+01 -1.500000e+00 7.300000e+01
      vertex   -6.900000e+01 1.000000e+01 7.300000e+01
      vertex   -7.200000e+01 6.050000e+01 7.300000e+01
    endloop
  endfacet
  facet normal 0.000000e+00 0.000000e+00 1.000000e+00
    outer loop
      vertex   -7.200000e+01 6.050000e+01 7.300000e+01
      vertex   -6.900000e+01 1.000000e+01 7.300000e+01
      vertex   -6.900000e+01 5.000000e+01 7.300000e+01
    endloop
  endfacet
  facet normal -1.731966e-13 -4.948474e-14 1.000000e+00
    outer loop
      vertex   -7.200000e+01 6.050000e+01 7.300000e+01
      vertex   -6.900000e+01 5.000000e+01 7.300000e+01
      vertex   -6.897592e+01 5.049009e+01 7.300000e+01
    endloop
  endfacet
  facet normal -6.303459e-15 9.350298e-16 1.000000e+00
    outer loop
      vertex   -6.897592e+01 5.049009e+01 7.300000e+01
      vertex   -6.890393e+01 5.097545e+01 7.300000e+01
      vertex   -7.200000e+01 6.050000e+01 7.300000e+01
    endloop
  endfacet
  facet normal -5.184694e-15 1.298698e-15 1.000000e+00
    outer loop
      vertex   -7.200000e+01 6.050000e+01 7.300000e+01
      vertex   -6.890393e+01 5.097545e+01 7.300000e+01
      vertex   -6.878470e+01 5.145142e+01 7.300000e+01
    endloop
  endfacet
  facet normal -4.404465e-15 1.575943e-15 1.000000e+00
    outer loop
      vertex   -7.200000e+01 6.050000e+01 7.300000e+01
      vertex   -6.878470e+01 5.145142e+01 7.300000e+01
      vertex   -6.861940e+01 5.191342e+01 7.300000e+01
    endloop
  endfacet
  facet normal -3.819222e-15 1.806358e-15 1.000000e+00
    outer loop
      vertex   -6.861940e+01 5.191342e+01 7.300000e+01
      vertex   -6.840961e+01 5.235698e+01 7.300000e+01
      vertex   -7.200000e+01 6.050000e+01 7.300000e+01
    endloop
  endfacet
  facet normal -3.355126e-15 2.010985e-15 1.000000e+00
    outer loop
      vertex   -7.200000e+01 6.050000e+01 7.300000e+01
      vertex   -6.840961e+01 5.235698e+01 7.300000e+01
      vertex   -6.815735e+01 5.277785e+01 7.300000e+01
    endloop
  endfacet
  facet normal -2.969942e-15 2.202659e-15 1.000000e+00
    outer loop
      vertex   -7.200000e+01 6.050000e+01 7.300000e+01
      vertex   -6.815735e+01 5.277785e+01 7.300000e+01
      vertex   -6.786505e+01 5.317197e+01 7.300000e+01
    endloop
  endfacet
  facet normal -2.637332e-15 2.390338e-15 1.000000e+00
    outer loop
      vertex   -6.786505e+01 5.317197e+01 7.300000e+01
      vertex   -6.753553e+01 5.353553e+01 7.300000e+01
      vertex   -7.200000e+01 6.050000e+01 7.300000e+01
    endloop
  endfacet
  facet normal -2.339511e-15 2.581252e-15 1.000000e+00
    outer loop
      vertex   -7.200000e+01 6.050000e+01 7.300000e+01
      vertex   -6.753553e+01 5.353553e+01 7.300000e+01
      vertex   -6.717197e+01 5.386505e+01 7.300000e+01
    endloop
  endfacet
  facet normal -2.063398e-15 2.782170e-15 1.000000e+00
    outer loop
      vertex   -7.200000e+01 6.050000e+01 7.300000e+01
      vertex   -6.717197e+01 5.386505e+01 7.300000e+01
      vertex   -6.677785e+01 5.415735e+01 7.300000e+01
    endloop
  endfacet
  facet normal -1.798362e-15 3.000385e-15 1.000000e+00
    outer loop
      vertex   -6.677785e+01 5.415735e+01 7.300000e+01
      vertex   -6.635698e+01 5.440961e+01 7.300000e+01
      vertex   -7.200000e+01 6.050000e+01 7.300000e+01
    endloop
  endfacet
  facet normal -1.534644e-15 3.244732e-15 1.000000e+00
    outer loop
      vertex   -7.200000e+01 6.050000e+01 7.300000e+01
      vertex   -6.635698e+01 5.440961e+01 7.300000e+01
      vertex   -6.591342e+01 5.461940e+01 7.300000e+01
    endloop
  endfacet
  facet normal -1.261966e-15 3.526960e-15 1.000000e+00
    outer loop
      vertex   -7.200000e+01 6.050000e+01 7.300000e+01
      vertex   -6.591342e+01 5.461940e+01 7.300000e+01
      vertex   -6.545142e+01 5.478470e+01 7.300000e+01
    endloop
  endfacet
  facet normal -9.678664e-16 3.863939e-15 1.000000e+00
    outer loop
      vertex   -6.545142e+01 5.478470e+01 7.300000e+01
      vertex   -6.497545e+01 5.490393e+01 7.300000e+01
      vertex   -7.200000e+01 6.050000e+01 7.300000e+01
    endloop
  endfacet
  facet normal -6.351191e-16 4.281625e-15 1.000000e+00
    outer loop
      vertex   -7.200000e+01 6.050000e+01 7.300000e+01
      vertex   -6.497545e+01 5.490393e+01 7.300000e+01
      vertex   -6.449009e+01 5.497592e+01 7.300000e+01
    endloop
  endfacet
  facet normal -1.000000e+00 0.000000e+00 4.736950e-15
    outer loop
      vertex   -7.200000e+01 -1.500000e+00 7.000000e+01
      vertex   -7.200000e+01 -1.500000e+00 7.300000e+01
      vertex   -7.200000e+01 0.000000e+00 7.000000e+01
    endloop
  endfacet
  facet normal -1.000000e+00 0.000000e+00 4.736950e-15
    outer loop
      vertex   -7.200000e+01 0.000000e+00 7.000000e+01
      vertex   -7.200000e+01 -1.500000e+00 7.300000e+01
      vertex   -7.200000e+01 1.000000e+00 7.000000e+01
    endloop
  endfacet
  facet normal -1.000000e+00 0.000000e+00 -1.643888e-15
    outer loop
      vertex   -7.200000e+01 0.000000e+00 7.000000e+01
      vertex   -7.200000e+01 1.000000e+00 7.000000e+01
      vertex   -7.200000e+01 1.000000e+00 6.135534e+01
    endloop
  endfacet
  facet normal -1.000000e+00 -2.292073e-16 4.545944e-15
    outer loop
      vertex   -7.200000e+01 -1.500000e+00 7.300000e+01
      vertex   -7.200000e+01 6.050000e+01 7.300000e+01
      vertex   -7.200000e+01 1.000000e+00 7.000000e+01
    endloop
  endfacet
  facet normal -1.000000e+00 0.000000e+00 0.000000e+00
    outer loop
      vertex   -7.200000e+01 1.000000e+00 7.000000e+01
      vertex   -7.200000e+01 6.050000e+01 7.300000e+01
      vertex   -7.200000e+01 5.800000e+01 7.000000e+01
    endloop
  endfacet
  facet normal -1.000000e+00 0.000000e+00 0.000000e+00
    outer loop
      vertex   -7.200000e+01 5.800000e+01 7.000000e+01
      vertex   -7.200000e+01 6.050000e+01 7.300000e+01
      vertex   -7.200000e+01 5.900000e+01 7.000000e+01
    endloop
  endfacet
  facet normal -1.000000e+00 0.000000e+00 -1.643888e-15
    outer loop
      vertex   -7.200000e+01 5.800000e+01 7.000000e+01
      vertex   -7.200000e+01 5.900000e+01 7.000000e+01
      vertex   -7.200000e+01 5.900000e+01 6.135534e+01
    endloop
  endfacet
  facet normal -1.000000e+00 9.473903e-15 -4.736950e-15
    outer loop
      vertex   -7.200000e+01 6.050000e+01 7.300000e+01
      vertex   -7.200000e+01 6.050000e+01 7.000000e+01
      vertex   -7.200000e+01 5.900000e+01 7.000000e+01
    endloop
  endfacet
  facet normal -1.000000e+00 -0.000000e+00 -1.643888e-15
    outer loop
      vertex   -7.200000e+01 5.900000e+01 6.135534e+01
      vertex   -7.200000e+01 5.800000e+01 6.135534e+01
      vertex   -7.200000e+01 5.800000e+01 7.000000e+01
    endloop
  endfacet
  facet normal -1.000000e+00 -0.000000e+00 -1.643888e-15
    outer loop
      vertex   -7.200000e+01 1.000000e+00 6.135534e+01
      vertex   -7.200000e+01 0.000000e+00 6.135534e+01
      vertex   -7.200000e+01 0.000000e+00 7.000000e+01
    endloop
  endfacet
  facet normal 0.000000e+00 -1.000000e+00 0.000000e+00
    outer loop
      vertex   3.800000e+01 -1.500000e+00 5.900000e+01
      vertex   4.000000e+01 -1.500000e+00 5.900000e+01
      vertex   3.800000e+01 -1.500000e+00 7.000000e+01
    endloop
  endfacet
  facet normal 0.000000e+00 -1.000000e+00 0.000000e+00
    outer loop
      vertex   3.800000e+01 -1.500000e+00 7.000000e+01
      vertex   4.000000e+01 -1.500000e+00 5.900000e+01
      vertex   4.000000e+01 -1.500000e+00 7.300000e+01
    endloop
  endfacet
  facet normal 0.000000e+00 -1.000000e+00 0.000000e+00
    outer loop
      vertex   3.800000e+01 -1.500000e+00 7.000000e+01
      vertex   4.000000e+01 -1.500000e+00 7.300000e+01
      vertex   -7.200000e+01 -1.500000e+00 7.300000e+01
    endloop
  endfacet
  facet normal 0.000000e+00 -1.000000e+00 -0.000000e+00
    outer loop
      vertex   -7.200000e+01 -1.500000e+00 7.300000e+01
      vertex   -7.200000e+01 -1.500000e+00 7.000000e+01
      vertex   3.800000e+01 -1.500000e+00 7.000000e+01
    endloop
  endfacet
endsolid
