solid ASCII
  facet normal 4.906767e-02 -9.987955e-01 2.365622e-15
    outer loop
      vertex   -6.400000e+01 5.400000e+01 -9.300000e+01
      vertex   -6.400000e+01 5.400000e+01 -9.000000e+01
      vertex   -6.449009e+01 5.397592e+01 -9.300000e+01
    endloop
  endfacet
  facet normal 4.906767e-02 -9.987955e-01 2.365622e-15
    outer loop
      vertex   -6.449009e+01 5.397592e+01 -9.300000e+01
      vertex   -6.400000e+01 5.400000e+01 -9.000000e+01
      vertex   -6.449009e+01 5.397592e+01 -9.000000e+01
    endloop
  endfacet
  facet normal 1.467305e-01 -9.891765e-01 2.342840e-15
    outer loop
      vertex   -6.449009e+01 5.397592e+01 -9.300000e+01
      vertex   -6.449009e+01 5.397592e+01 -9.000000e+01
      vertex   -6.497545e+01 5.390393e+01 -9.300000e+01
    endloop
  endfacet
  facet normal 1.467305e-01 -9.891765e-01 0.000000e+00
    outer loop
      vertex   -6.497545e+01 5.390393e+01 -9.300000e+01
      vertex   -6.449009e+01 5.397592e+01 -9.000000e+01
      vertex   -6.497545e+01 5.390393e+01 -9.000000e+01
    endloop
  endfacet
  facet normal 2.429802e-01 -9.700313e-01 0.000000e+00
    outer loop
      vertex   -6.497545e+01 5.390393e+01 -9.300000e+01
      vertex   -6.497545e+01 5.390393e+01 -9.000000e+01
      vertex   -6.545142e+01 5.378470e+01 -9.300000e+01
    endloop
  endfacet
  facet normal 2.429802e-01 -9.700313e-01 2.297495e-15
    outer loop
      vertex   -6.545142e+01 5.378470e+01 -9.300000e+01
      vertex   -6.497545e+01 5.390393e+01 -9.000000e+01
      vertex   -6.545142e+01 5.378470e+01 -9.000000e+01
    endloop
  endfacet
  facet normal 3.368899e-01 -9.415441e-01 2.230023e-15
    outer loop
      vertex   -6.545142e+01 5.378470e+01 -9.300000e+01
      vertex   -6.545142e+01 5.378470e+01 -9.000000e+01
      vertex   -6.591342e+01 5.361940e+01 -9.300000e+01
    endloop
  endfacet
  facet normal 3.368899e-01 -9.415441e-01 2.230023e-15
    outer loop
      vertex   -6.591342e+01 5.361940e+01 -9.300000e+01
      vertex   -6.545142e+01 5.378470e+01 -9.000000e+01
      vertex   -6.591342e+01 5.361940e+01 -9.000000e+01
    endloop
  endfacet
  facet normal 4.275551e-01 -9.039893e-01 2.141076e-15
    outer loop
      vertex   -6.591342e+01 5.361940e+01 -9.300000e+01
      vertex   -6.591342e+01 5.361940e+01 -9.000000e+01
      vertex   -6.635698e+01 5.340961e+01 -9.300000e+01
    endloop
  endfacet
  facet normal 4.275551e-01 -9.039893e-01 2.141076e-15
    outer loop
      vertex   -6.635698e+01 5.340961e+01 -9.300000e+01
      vertex   -6.591342e+01 5.361940e+01 -9.000000e+01
      vertex   -6.635698e+01 5.340961e+01 -9.000000e+01
    endloop
  endfacet
  facet normal 5.141027e-01 -8.577286e-01 2.031509e-15
    outer loop
      vertex   -6.635698e+01 5.340961e+01 -9.300000e+01
      vertex   -6.635698e+01 5.340961e+01 -9.000000e+01
      vertex   -6.677785e+01 5.315735e+01 -9.300000e+01
    endloop
  endfacet
  facet normal 5.141027e-01 -8.577286e-01 2.031509e-15
    outer loop
      vertex   -6.677785e+01 5.315735e+01 -9.300000e+01
      vertex   -6.635698e+01 5.340961e+01 -9.000000e+01
      vertex   -6.677785e+01 5.315735e+01 -9.000000e+01
    endloop
  endfacet
  facet normal 5.956993e-01 -8.032075e-01 1.902377e-15
    outer loop
      vertex   -6.677785e+01 5.315735e+01 -9.300000e+01
      vertex   -6.677785e+01 5.315735e+01 -9.000000e+01
      vertex   -6.717197e+01 5.286505e+01 -9.300000e+01
    endloop
  endfacet
  facet normal 5.956993e-01 -8.032075e-01 3.804754e-15
    outer loop
      vertex   -6.717197e+01 5.286505e+01 -9.300000e+01
      vertex   -6.677785e+01 5.315735e+01 -9.000000e+01
      vertex   -6.717197e+01 5.286505e+01 -9.000000e+01
    endloop
  endfacet
  facet normal 6.715590e-01 -7.409511e-01 3.509848e-15
    outer loop
      vertex   -6.717197e+01 5.286505e+01 -9.300000e+01
      vertex   -6.717197e+01 5.286505e+01 -9.000000e+01
      vertex   -6.753553e+01 5.253553e+01 -9.300000e+01
    endloop
  endfacet
  facet normal 6.715590e-01 -7.409511e-01 1.754924e-15
    outer loop
      vertex   -6.753553e+01 5.253553e+01 -9.300000e+01
      vertex   -6.717197e+01 5.286505e+01 -9.000000e+01
      vertex   -6.753553e+01 5.253553e+01 -9.000000e+01
    endloop
  endfacet
  facet normal 7.409511e-01 -6.715590e-01 1.590571e-15
    outer loop
      vertex   -6.753553e+01 5.253553e+01 -9.300000e+01
      vertex   -6.753553e+01 5.253553e+01 -9.000000e+01
      vertex   -6.786505e+01 5.217197e+01 -9.300000e+01
    endloop
  endfacet
  facet normal 7.409511e-01 -6.715590e-01 1.590571e-15
    outer loop
      vertex   -6.786505e+01 5.217197e+01 -9.300000e+01
      vertex   -6.753553e+01 5.253553e+01 -9.000000e+01
      vertex   -6.786505e+01 5.217197e+01 -9.000000e+01
    endloop
  endfacet
  facet normal 8.032075e-01 -5.956993e-01 1.410899e-15
    outer loop
      vertex   -6.786505e+01 5.217197e+01 -9.300000e+01
      vertex   -6.786505e+01 5.217197e+01 -9.000000e+01
      vertex   -6.815735e+01 5.177785e+01 -9.300000e+01
    endloop
  endfacet
  facet normal 8.032075e-01 -5.956993e-01 2.821798e-15
    outer loop
      vertex   -6.815735e+01 5.177785e+01 -9.300000e+01
      vertex   -6.786505e+01 5.217197e+01 -9.000000e+01
      vertex   -6.815735e+01 5.177785e+01 -9.000000e+01
    endloop
  endfacet
  facet normal 8.577286e-01 -5.141027e-01 2.435279e-15
    outer loop
      vertex   -6.815735e+01 5.177785e+01 -9.300000e+01
      vertex   -6.815735e+01 5.177785e+01 -9.000000e+01
      vertex   -6.840961e+01 5.135698e+01 -9.300000e+01
    endloop
  endfacet
  facet normal 8.577286e-01 -5.141027e-01 1.217639e-15
    outer loop
      vertex   -6.840961e+01 5.135698e+01 -9.300000e+01
      vertex   -6.815735e+01 5.177785e+01 -9.000000e+01
      vertex   -6.840961e+01 5.135698e+01 -9.000000e+01
    endloop
  endfacet
  facet normal 9.039893e-01 -4.275551e-01 1.012654e-15
    outer loop
      vertex   -6.840961e+01 5.135698e+01 -9.300000e+01
      vertex   -6.840961e+01 5.135698e+01 -9.000000e+01
      vertex   -6.861940e+01 5.091342e+01 -9.300000e+01
    endloop
  endfacet
  facet normal 9.039893e-01 -4.275551e-01 1.012654e-15
    outer loop
      vertex   -6.861940e+01 5.091342e+01 -9.300000e+01
      vertex   -6.840961e+01 5.135698e+01 -9.000000e+01
      vertex   -6.861940e+01 5.091342e+01 -9.000000e+01
    endloop
  endfacet
  facet normal 9.415441e-01 -3.368899e-01 7.979152e-16
    outer loop
      vertex   -6.861940e+01 5.091342e+01 -9.300000e+01
      vertex   -6.861940e+01 5.091342e+01 -9.000000e+01
      vertex   -6.878470e+01 5.045142e+01 -9.300000e+01
    endloop
  endfacet
  facet normal 9.415441e-01 -3.368899e-01 7.979152e-16
    outer loop
      vertex   -6.878470e+01 5.045142e+01 -9.300000e+01
      vertex   -6.861940e+01 5.091342e+01 -9.000000e+01
      vertex   -6.878470e+01 5.045142e+01 -9.000000e+01
    endloop
  endfacet
  facet normal 9.700313e-01 -2.429802e-01 5.754925e-16
    outer loop
      vertex   -6.878470e+01 5.045142e+01 -9.300000e+01
      vertex   -6.878470e+01 5.045142e+01 -9.000000e+01
      vertex   -6.890393e+01 4.997545e+01 -9.300000e+01
    endloop
  endfacet
  facet normal 9.700313e-01 -2.429802e-01 0.000000e+00
    outer loop
      vertex   -6.890393e+01 4.997545e+01 -9.300000e+01
      vertex   -6.878470e+01 5.045142e+01 -9.000000e+01
      vertex   -6.890393e+01 4.997545e+01 -9.000000e+01
    endloop
  endfacet
  facet normal 9.891765e-01 -1.467305e-01 0.000000e+00
    outer loop
      vertex   -6.890393e+01 4.997545e+01 -9.300000e+01
      vertex   -6.890393e+01 4.997545e+01 -9.000000e+01
      vertex   -6.897592e+01 4.949009e+01 -9.300000e+01
    endloop
  endfacet
  facet normal 9.891765e-01 -1.467305e-01 3.475274e-16
    outer loop
      vertex   -6.897592e+01 4.949009e+01 -9.300000e+01
      vertex   -6.890393e+01 4.997545e+01 -9.000000e+01
      vertex   -6.897592e+01 4.949009e+01 -9.000000e+01
    endloop
  endfacet
  facet normal 9.987955e-01 -4.906767e-02 1.162156e-16
    outer loop
      vertex   -6.897592e+01 4.949009e+01 -9.300000e+01
      vertex   -6.897592e+01 4.949009e+01 -9.000000e+01
      vertex   -6.900000e+01 4.900000e+01 -9.300000e+01
    endloop
  endfacet
  facet normal 9.987955e-01 -4.906767e-02 1.162156e-16
    outer loop
      vertex   -6.900000e+01 4.900000e+01 -9.300000e+01
      vertex   -6.897592e+01 4.949009e+01 -9.000000e+01
      vertex   -6.900000e+01 4.900000e+01 -9.000000e+01
    endloop
  endfacet
  facet normal 1.000000e+00 3.552714e-16 -8.414513e-31
    outer loop
      vertex   -6.900000e+01 4.900000e+01 -9.000000e+01
      vertex   -6.900000e+01 8.999999e+00 -9.000000e+01
      vertex   -6.900000e+01 4.900000e+01 -9.300000e+01
    endloop
  endfacet
  facet normal 1.000000e+00 1.682903e-30 -4.736950e-15
    outer loop
      vertex   -6.900000e+01 4.900000e+01 -9.300000e+01
      vertex   -6.900000e+01 8.999999e+00 -9.000000e+01
      vertex   -6.900000e+01 8.999999e+00 -9.300000e+01
    endloop
  endfacet
  facet normal 4.906767e-02 9.987955e-01 5.914055e-15
    outer loop
      vertex   -6.400000e+01 3.999999e+00 -9.000000e+01
      vertex   -6.400000e+01 3.999999e+00 -9.300000e+01
      vertex   -6.449009e+01 4.024076e+00 -9.000000e+01
    endloop
  endfacet
  facet normal 4.906767e-02 9.987955e-01 5.618352e-15
    outer loop
      vertex   -6.449009e+01 4.024076e+00 -9.000000e+01
      vertex   -6.400000e+01 3.999999e+00 -9.300000e+01
      vertex   -6.449009e+01 4.024076e+00 -9.300000e+01
    endloop
  endfacet
  facet normal 1.467305e-01 9.891765e-01 5.564244e-15
    outer loop
      vertex   -6.449009e+01 4.024076e+00 -9.000000e+01
      vertex   -6.449009e+01 4.024076e+00 -9.300000e+01
      vertex   -6.497545e+01 4.096073e+00 -9.000000e+01
    endloop
  endfacet
  facet normal 1.467305e-01 9.891765e-01 5.857099e-15
    outer loop
      vertex   -6.497545e+01 4.096073e+00 -9.000000e+01
      vertex   -6.449009e+01 4.024076e+00 -9.300000e+01
      vertex   -6.497545e+01 4.096073e+00 -9.300000e+01
    endloop
  endfacet
  facet normal 2.429802e-01 9.700313e-01 5.743737e-15
    outer loop
      vertex   -6.497545e+01 4.096073e+00 -9.000000e+01
      vertex   -6.497545e+01 4.096073e+00 -9.300000e+01
      vertex   -6.545142e+01 4.215298e+00 -9.000000e+01
    endloop
  endfacet
  facet normal 2.429802e-01 9.700313e-01 6.030924e-15
    outer loop
      vertex   -6.545142e+01 4.215298e+00 -9.000000e+01
      vertex   -6.497545e+01 4.096073e+00 -9.300000e+01
      vertex   -6.545142e+01 4.215298e+00 -9.300000e+01
    endloop
  endfacet
  facet normal 3.368899e-01 9.415441e-01 5.853812e-15
    outer loop
      vertex   -6.545142e+01 4.215298e+00 -9.000000e+01
      vertex   -6.545142e+01 4.215298e+00 -9.300000e+01
      vertex   -6.591342e+01 4.380602e+00 -9.000000e+01
    endloop
  endfacet
  facet normal 3.368899e-01 9.415441e-01 5.575059e-15
    outer loop
      vertex   -6.591342e+01 4.380602e+00 -9.000000e+01
      vertex   -6.545142e+01 4.215298e+00 -9.300000e+01
      vertex   -6.591342e+01 4.380602e+00 -9.300000e+01
    endloop
  endfacet
  facet normal 4.275551e-01 9.039893e-01 5.352690e-15
    outer loop
      vertex   -6.591342e+01 4.380602e+00 -9.000000e+01
      vertex   -6.591342e+01 4.380602e+00 -9.300000e+01
      vertex   -6.635698e+01 4.590393e+00 -9.000000e+01
    endloop
  endfacet
  facet normal 4.275551e-01 9.039893e-01 3.595017e-15
    outer loop
      vertex   -6.635698e+01 4.590393e+00 -9.000000e+01
      vertex   -6.591342e+01 4.380602e+00 -9.300000e+01
      vertex   -6.635698e+01 4.590393e+00 -9.300000e+01
    endloop
  endfacet
  facet normal 5.141027e-01 8.577286e-01 2.897431e-15
    outer loop
      vertex   -6.635698e+01 4.590393e+00 -9.000000e+01
      vertex   -6.635698e+01 4.590393e+00 -9.300000e+01
      vertex   -6.677785e+01 4.842651e+00 -9.000000e+01
    endloop
  endfacet
  facet normal 5.141027e-01 8.577286e-01 2.643493e-15
    outer loop
      vertex   -6.677785e+01 4.842651e+00 -9.000000e+01
      vertex   -6.635698e+01 4.590393e+00 -9.300000e+01
      vertex   -6.677785e+01 4.842651e+00 -9.300000e+01
    endloop
  endfacet
  facet normal 5.956993e-01 8.032075e-01 1.934144e-15
    outer loop
      vertex   -6.677785e+01 4.842651e+00 -9.000000e+01
      vertex   -6.677785e+01 4.842651e+00 -9.300000e+01
      vertex   -6.717197e+01 5.134947e+00 -9.000000e+01
    endloop
  endfacet
  facet normal 5.956993e-01 8.032075e-01 1.934144e-15
    outer loop
      vertex   -6.717197e+01 5.134947e+00 -9.000000e+01
      vertex   -6.677785e+01 4.842651e+00 -9.300000e+01
      vertex   -6.717197e+01 5.134947e+00 -9.300000e+01
    endloop
  endfacet
  facet normal 6.715590e-01 7.409511e-01 1.206169e-15
    outer loop
      vertex   -6.717197e+01 5.134947e+00 -9.000000e+01
      vertex   -6.717197e+01 5.134947e+00 -9.300000e+01
      vertex   -6.753553e+01 5.464465e+00 -9.000000e+01
    endloop
  endfacet
  facet normal 6.715590e-01 7.409511e-01 4.387310e-15
    outer loop
      vertex   -6.753553e+01 5.464465e+00 -9.000000e+01
      vertex   -6.717197e+01 5.134947e+00 -9.300000e+01
      vertex   -6.753553e+01 5.464465e+00 -9.300000e+01
    endloop
  endfacet
  facet normal 7.409511e-01 6.715590e-01 3.976426e-15
    outer loop
      vertex   -6.753553e+01 5.464465e+00 -9.000000e+01
      vertex   -6.753553e+01 5.464465e+00 -9.300000e+01
      vertex   -6.786505e+01 5.828033e+00 -9.000000e+01
    endloop
  endfacet
  facet normal 7.409511e-01 6.715590e-01 4.665780e-16
    outer loop
      vertex   -6.786505e+01 5.828033e+00 -9.000000e+01
      vertex   -6.753553e+01 5.464465e+00 -9.300000e+01
      vertex   -6.786505e+01 5.828033e+00 -9.300000e+01
    endloop
  endfacet
  facet normal 8.032075e-01 5.956993e-01 -2.775066e-16
    outer loop
      vertex   -6.786505e+01 5.828033e+00 -9.000000e+01
      vertex   -6.786505e+01 5.828033e+00 -9.300000e+01
      vertex   -6.815735e+01 6.222148e+00 -9.000000e+01
    endloop
  endfacet
  facet normal 8.032075e-01 5.956993e-01 -2.775066e-16
    outer loop
      vertex   -6.815735e+01 6.222148e+00 -9.000000e+01
      vertex   -6.786505e+01 5.828033e+00 -9.300000e+01
      vertex   -6.815735e+01 6.222148e+00 -9.300000e+01
    endloop
  endfacet
  facet normal 8.577286e-01 5.141027e-01 -1.018919e-15
    outer loop
      vertex   -6.815735e+01 6.222148e+00 -9.000000e+01
      vertex   -6.815735e+01 6.222148e+00 -9.300000e+01
      vertex   -6.840961e+01 6.643015e+00 -9.000000e+01
    endloop
  endfacet
  facet normal 8.577286e-01 5.141027e-01 2.891894e-15
    outer loop
      vertex   -6.840961e+01 6.643015e+00 -9.000000e+01
      vertex   -6.815735e+01 6.222148e+00 -9.300000e+01
      vertex   -6.840961e+01 6.643015e+00 -9.300000e+01
    endloop
  endfacet
  facet normal 9.039893e-01 4.275551e-01 2.405052e-15
    outer loop
      vertex   -6.840961e+01 6.643015e+00 -9.000000e+01
      vertex   -6.840961e+01 6.643015e+00 -9.300000e+01
      vertex   -6.861940e+01 7.086582e+00 -9.000000e+01
    endloop
  endfacet
  facet normal 9.039893e-01 4.275551e-01 -1.750518e-15
    outer loop
      vertex   -6.861940e+01 7.086582e+00 -9.000000e+01
      vertex   -6.840961e+01 6.643015e+00 -9.300000e+01
      vertex   -6.861940e+01 7.086582e+00 -9.300000e+01
    endloop
  endfacet
  facet normal 9.415441e-01 3.368899e-01 -2.465259e-15
    outer loop
      vertex   -6.861940e+01 7.086582e+00 -9.000000e+01
      vertex   -6.861940e+01 7.086582e+00 -9.300000e+01
      vertex   -6.878470e+01 7.548576e+00 -9.000000e+01
    endloop
  endfacet
  facet normal 9.415441e-01 3.368899e-01 -2.465259e-15
    outer loop
      vertex   -6.878470e+01 7.548576e+00 -9.000000e+01
      vertex   -6.861940e+01 7.086582e+00 -9.300000e+01
      vertex   -6.878470e+01 7.548576e+00 -9.300000e+01
    endloop
  endfacet
  facet normal 9.700313e-01 2.429802e-01 -3.156258e-15
    outer loop
      vertex   -6.878470e+01 7.548576e+00 -9.000000e+01
      vertex   -6.878470e+01 7.548576e+00 -9.300000e+01
      vertex   -6.890393e+01 8.024548e+00 -9.000000e+01
    endloop
  endfacet
  facet normal 9.700313e-01 2.429802e-01 1.438731e-15
    outer loop
      vertex   -6.890393e+01 8.024548e+00 -9.000000e+01
      vertex   -6.878470e+01 7.548576e+00 -9.300000e+01
      vertex   -6.890393e+01 8.024548e+00 -9.300000e+01
    endloop
  endfacet
  facet normal 9.891765e-01 1.467305e-01 8.688186e-16
    outer loop
      vertex   -6.890393e+01 8.024548e+00 -9.000000e+01
      vertex   -6.890393e+01 8.024548e+00 -9.300000e+01
      vertex   -6.897592e+01 8.509913e+00 -9.000000e+01
    endloop
  endfacet
  facet normal 9.891765e-01 1.467305e-01 -3.903743e-15
    outer loop
      vertex   -6.897592e+01 8.509913e+00 -9.000000e+01
      vertex   -6.890393e+01 8.024548e+00 -9.300000e+01
      vertex   -6.897592e+01 8.509913e+00 -9.300000e+01
    endloop
  endfacet
  facet normal 9.987955e-01 4.906767e-02 -4.469759e-15
    outer loop
      vertex   -6.897592e+01 8.509913e+00 -9.000000e+01
      vertex   -6.897592e+01 8.509913e+00 -9.300000e+01
      vertex   -6.900000e+01 8.999999e+00 -9.000000e+01
    endloop
  endfacet
  facet normal 9.987955e-01 4.906767e-02 -4.440705e-15
    outer loop
      vertex   -6.900000e+01 8.999999e+00 -9.000000e+01
      vertex   -6.897592e+01 8.509913e+00 -9.300000e+01
      vertex   -6.900000e+01 8.999999e+00 -9.300000e+01
    endloop
  endfacet
  facet normal -3.580644e-30 1.000000e+00 5.921187e-15
    outer loop
      vertex   -6.400000e+01 3.999999e+00 -9.000000e+01
      vertex   3.000000e+01 3.999999e+00 -9.000000e+01
      vertex   -6.400000e+01 3.999999e+00 -9.300000e+01
    endloop
  endfacet
  facet normal -8.951610e-31 1.000000e+00 5.921187e-15
    outer loop
      vertex   -6.400000e+01 3.999999e+00 -9.300000e+01
      vertex   3.000000e+01 3.999999e+00 -9.000000e+01
      vertex   3.000000e+01 3.999999e+00 -9.300000e+01
    endloop
  endfacet
  facet normal -1.432258e-30 -1.000000e+00 2.368475e-15
    outer loop
      vertex   -6.400000e+01 5.400000e+01 -9.300000e+01
      vertex   3.000000e+01 5.400000e+01 -9.300000e+01
      vertex   -6.400000e+01 5.400000e+01 -9.000000e+01
    endloop
  endfacet
  facet normal -1.790322e-30 -1.000000e+00 2.368475e-15
    outer loop
      vertex   -6.400000e+01 5.400000e+01 -9.000000e+01
      vertex   3.000000e+01 5.400000e+01 -9.300000e+01
      vertex   3.000000e+01 5.400000e+01 -9.000000e+01
    endloop
  endfacet
  facet normal -7.077186e-01 -1.003989e-14 7.064944e-01
    outer loop
      vertex   3.800000e+01 1.000000e+00 -8.000000e+01
      vertex   2.801730e+01 1.000000e+00 -9.000000e+01
      vertex   3.800000e+01 3.552714e-14 -8.000000e+01
    endloop
  endfacet
  facet normal -7.077186e-01 0.000000e+00 7.064944e-01
    outer loop
      vertex   3.800000e+01 3.552714e-14 -8.000000e+01
      vertex   2.801730e+01 1.000000e+00 -9.000000e+01
      vertex   2.801730e+01 0.000000e+00 -9.000000e+01
    endloop
  endfacet
  facet normal -1.000000e+00 3.643808e-15 5.465713e-16
    outer loop
      vertex   3.800000e+01 6.050000e+01 -9.000000e+01
      vertex   3.800000e+01 5.900000e+01 -8.000000e+01
      vertex   3.800000e+01 6.050000e+01 -7.700000e+01
    endloop
  endfacet
  facet normal -1.000000e+00 3.365805e-29 2.368475e-15
    outer loop
      vertex   3.800000e+01 6.050000e+01 -7.700000e+01
      vertex   3.800000e+01 5.900000e+01 -8.000000e+01
      vertex   3.800000e+01 5.800000e+01 -8.000000e+01
    endloop
  endfacet
  facet normal -1.000000e+00 -4.986264e-16 2.783997e-15
    outer loop
      vertex   3.800000e+01 6.050000e+01 -7.700000e+01
      vertex   3.800000e+01 5.800000e+01 -8.000000e+01
      vertex   3.800000e+01 1.000000e+00 -8.000000e+01
    endloop
  endfacet
  facet normal -1.000000e+00 -4.986265e-16 0.000000e+00
    outer loop
      vertex   3.800000e+01 1.000000e+00 -8.000000e+01
      vertex   3.800000e+01 5.800000e+01 -8.000000e+01
      vertex   3.800000e+01 5.800000e+01 -8.989950e+01
    endloop
  endfacet
  facet normal -1.000000e+00 -4.986265e-16 4.428693e-31
    outer loop
      vertex   3.800000e+01 1.000000e+00 -8.000000e+01
      vertex   3.800000e+01 5.800000e+01 -8.989950e+01
      vertex   3.800000e+01 1.000000e+00 -9.000000e+01
    endloop
  endfacet
  facet normal -1.000000e+00 -4.776758e-16 -1.188202e-14
    outer loop
      vertex   3.800000e+01 1.000000e+00 -9.000000e+01
      vertex   3.800000e+01 5.800000e+01 -8.989950e+01
      vertex   3.800000e+01 6.050000e+01 -9.000000e+01
    endloop
  endfacet
  facet normal -1.000000e+00 0.000000e+00 0.000000e+00
    outer loop
      vertex   3.800000e+01 6.050000e+01 -9.000000e+01
      vertex   3.800000e+01 5.800000e+01 -8.989950e+01
      vertex   3.800000e+01 5.900000e+01 -8.989950e+01
    endloop
  endfacet
  facet normal -1.000000e+00 0.000000e+00 0.000000e+00
    outer loop
      vertex   3.800000e+01 6.050000e+01 -9.000000e+01
      vertex   3.800000e+01 5.900000e+01 -8.989950e+01
      vertex   3.800000e+01 5.900000e+01 -8.000000e+01
    endloop
  endfacet
  facet normal -1.000000e+00 -2.292073e-16 -2.559482e-15
    outer loop
      vertex   3.800000e+01 6.050000e+01 -7.700000e+01
      vertex   3.800000e+01 1.000000e+00 -8.000000e+01
      vertex   3.800000e+01 -1.500000e+00 -7.700000e+01
    endloop
  endfacet
  facet normal -1.000000e+00 3.365807e-29 -2.368476e-15
    outer loop
      vertex   3.800000e+01 -1.500000e+00 -7.700000e+01
      vertex   3.800000e+01 1.000000e+00 -8.000000e+01
      vertex   3.800000e+01 3.552714e-14 -8.000000e+01
    endloop
  endfacet
  facet normal -1.000000e+00 3.643809e-15 -5.465713e-16
    outer loop
      vertex   3.800000e+01 -1.500000e+00 -7.700000e+01
      vertex   3.800000e+01 3.552714e-14 -8.000000e+01
      vertex   3.800000e+01 -1.500000e+00 -9.000000e+01
    endloop
  endfacet
  facet normal -1.000000e+00 0.000000e+00 0.000000e+00
    outer loop
      vertex   3.800000e+01 -1.500000e+00 -9.000000e+01
      vertex   3.800000e+01 3.552714e-14 -8.000000e+01
      vertex   3.800000e+01 2.664535e-14 -9.000000e+01
    endloop
  endfacet
  facet normal -7.071068e-01 1.004859e-14 7.071068e-01
    outer loop
      vertex   3.800000e+01 5.800000e+01 -8.000000e+01
      vertex   3.800000e+01 5.900000e+01 -8.000000e+01
      vertex   2.800000e+01 5.800000e+01 -9.000000e+01
    endloop
  endfacet
  facet normal -7.071068e-01 5.024296e-15 7.071068e-01
    outer loop
      vertex   2.800000e+01 5.800000e+01 -9.000000e+01
      vertex   3.800000e+01 5.900000e+01 -8.000000e+01
      vertex   2.800000e+01 5.900000e+01 -9.000000e+01
    endloop
  endfacet
  facet normal 7.071068e-01 0.000000e+00 7.071068e-01
    outer loop
      vertex   -6.335534e+01 9.999991e-01 -9.000000e+01
      vertex   -7.200000e+01 9.999991e-01 -8.135534e+01
      vertex   -6.335534e+01 0.000000e+00 -9.000000e+01
    endloop
  endfacet
  facet normal 7.071068e-01 0.000000e+00 7.071068e-01
    outer loop
      vertex   -6.335534e+01 0.000000e+00 -9.000000e+01
      vertex   -7.200000e+01 9.999991e-01 -8.135534e+01
      vertex   -7.200000e+01 3.552714e-14 -8.135534e+01
    endloop
  endfacet
  facet normal 3.082290e-15 1.000000e+00 -1.027430e-15
    outer loop
      vertex   -7.200000e+01 9.999991e-01 -8.135534e+01
      vertex   -6.335534e+01 9.999991e-01 -9.000000e+01
      vertex   -7.200000e+01 9.999991e-01 -9.000000e+01
    endloop
  endfacet
  facet normal -3.082290e-15 -1.000000e+00 1.027430e-15
    outer loop
      vertex   -6.335534e+01 0.000000e+00 -9.000000e+01
      vertex   -7.200000e+01 3.552714e-14 -8.135534e+01
      vertex   -7.200000e+01 2.664535e-14 -9.000000e+01
    endloop
  endfacet
  facet normal 7.071068e-01 0.000000e+00 7.071068e-01
    outer loop
      vertex   -6.335534e+01 5.900000e+01 -9.000000e+01
      vertex   -7.200000e+01 5.900000e+01 -8.135534e+01
      vertex   -6.335534e+01 5.800000e+01 -9.000000e+01
    endloop
  endfacet
  facet normal 7.071068e-01 0.000000e+00 7.071068e-01
    outer loop
      vertex   -6.335534e+01 5.800000e+01 -9.000000e+01
      vertex   -7.200000e+01 5.900000e+01 -8.135534e+01
      vertex   -7.200000e+01 5.800000e+01 -8.135534e+01
    endloop
  endfacet
  facet normal 0.000000e+00 1.000000e+00 0.000000e+00
    outer loop
      vertex   -7.200000e+01 5.900000e+01 -8.135534e+01
      vertex   -6.335534e+01 5.900000e+01 -9.000000e+01
      vertex   -7.200000e+01 5.900000e+01 -9.000000e+01
    endloop
  endfacet
  facet normal 0.000000e+00 -1.000000e+00 0.000000e+00
    outer loop
      vertex   -6.335534e+01 5.800000e+01 -9.000000e+01
      vertex   -7.200000e+01 5.800000e+01 -8.135534e+01
      vertex   -7.200000e+01 5.800000e+01 -9.000000e+01
    endloop
  endfacet
  facet normal -2.405208e-16 4.895913e-15 1.000000e+00
    outer loop
      vertex   3.049009e+01 4.024076e+00 -9.000000e+01
      vertex   3.000000e+01 3.999999e+00 -9.000000e+01
      vertex   2.801730e+01 1.000000e+00 -9.000000e+01
    endloop
  endfacet
  facet normal -6.047172e-16 5.136611e-15 1.000000e+00
    outer loop
      vertex   2.801730e+01 1.000000e+00 -9.000000e+01
      vertex   3.000000e+01 3.999999e+00 -9.000000e+01
      vertex   -6.400000e+01 3.999999e+00 -9.000000e+01
    endloop
  endfacet
  facet normal -7.776319e-16 -1.671029e-16 1.000000e+00
    outer loop
      vertex   2.801730e+01 1.000000e+00 -9.000000e+01
      vertex   -6.400000e+01 3.999999e+00 -9.000000e+01
      vertex   -6.335534e+01 9.999991e-01 -9.000000e+01
    endloop
  endfacet
  facet normal 8.791815e-14 1.889246e-14 1.000000e+00
    outer loop
      vertex   -6.335534e+01 9.999991e-01 -9.000000e+01
      vertex   -6.400000e+01 3.999999e+00 -9.000000e+01
      vertex   -6.449009e+01 4.024076e+00 -9.000000e+01
    endloop
  endfacet
  facet normal -2.214458e-15 -1.492866e-14 1.000000e+00
    outer loop
      vertex   -6.335534e+01 9.999991e-01 -9.000000e+01
      vertex   -6.449009e+01 4.024076e+00 -9.000000e+01
      vertex   -6.497545e+01 4.096073e+00 -9.000000e+01
    endloop
  endfacet
  facet normal -3.969473e-15 -1.584703e-14 1.000000e+00
    outer loop
      vertex   -6.497545e+01 4.096073e+00 -9.000000e+01
      vertex   -6.545142e+01 4.215298e+00 -9.000000e+01
      vertex   -6.335534e+01 9.999991e-01 -9.000000e+01
    endloop
  endfacet
  facet normal -4.086897e-29 -1.325929e-14 1.000000e+00
    outer loop
      vertex   -6.335534e+01 9.999991e-01 -9.000000e+01
      vertex   -6.545142e+01 4.215298e+00 -9.000000e+01
      vertex   -7.200000e+01 9.999991e-01 -9.000000e+01
    endloop
  endfacet
  facet normal -2.744338e-15 -7.669912e-15 1.000000e+00
    outer loop
      vertex   -7.200000e+01 9.999991e-01 -9.000000e+01
      vertex   -6.545142e+01 4.215298e+00 -9.000000e+01
      vertex   -6.591342e+01 4.380602e+00 -9.000000e+01
    endloop
  endfacet
  facet normal -3.221377e-15 -6.811030e-15 1.000000e+00
    outer loop
      vertex   -7.200000e+01 9.999991e-01 -9.000000e+01
      vertex   -6.591342e+01 4.380602e+00 -9.000000e+01
      vertex   -6.635698e+01 4.590393e+00 -9.000000e+01
    endloop
  endfacet
  facet normal -3.664724e-15 -6.114223e-15 1.000000e+00
    outer loop
      vertex   -6.635698e+01 4.590393e+00 -9.000000e+01
      vertex   -6.677785e+01 4.842651e+00 -9.000000e+01
      vertex   -7.200000e+01 9.999991e-01 -9.000000e+01
    endloop
  endfacet
  facet normal -4.097959e-15 -5.525458e-15 1.000000e+00
    outer loop
      vertex   -7.200000e+01 9.999991e-01 -9.000000e+01
      vertex   -6.677785e+01 4.842651e+00 -9.000000e+01
      vertex   -6.717197e+01 5.134947e+00 -9.000000e+01
    endloop
  endfacet
  facet normal -4.540090e-15 -5.009218e-15 1.000000e+00
    outer loop
      vertex   -7.200000e+01 9.999991e-01 -9.000000e+01
      vertex   -6.717197e+01 5.134947e+00 -9.000000e+01
      vertex   -6.753553e+01 5.464465e+00 -9.000000e+01
    endloop
  endfacet
  facet normal -5.009218e-15 -4.540090e-15 1.000000e+00
    outer loop
      vertex   -6.753553e+01 5.464465e+00 -9.000000e+01
      vertex   -6.786505e+01 5.828033e+00 -9.000000e+01
      vertex   -7.200000e+01 9.999991e-01 -9.000000e+01
    endloop
  endfacet
  facet normal -5.525458e-15 -4.097959e-15 1.000000e+00
    outer loop
      vertex   -7.200000e+01 9.999991e-01 -9.000000e+01
      vertex   -6.786505e+01 5.828033e+00 -9.000000e+01
      vertex   -6.815735e+01 6.222148e+00 -9.000000e+01
    endloop
  endfacet
  facet normal -6.114223e-15 -3.664724e-15 1.000000e+00
    outer loop
      vertex   -7.200000e+01 9.999991e-01 -9.000000e+01
      vertex   -6.815735e+01 6.222148e+00 -9.000000e+01
      vertex   -6.840961e+01 6.643015e+00 -9.000000e+01
    endloop
  endfacet
  facet normal -6.811030e-15 -3.221377e-15 1.000000e+00
    outer loop
      vertex   -6.840961e+01 6.643015e+00 -9.000000e+01
      vertex   -6.861940e+01 7.086582e+00 -9.000000e+01
      vertex   -7.200000e+01 9.999991e-01 -9.000000e+01
    endloop
  endfacet
  facet normal -7.669912e-15 -2.744338e-15 1.000000e+00
    outer loop
      vertex   -7.200000e+01 9.999991e-01 -9.000000e+01
      vertex   -6.861940e+01 7.086582e+00 -9.000000e+01
      vertex   -6.878470e+01 7.548576e+00 -9.000000e+01
    endloop
  endfacet
  facet normal -8.780025e-15 -2.199282e-15 1.000000e+00
    outer loop
      vertex   -7.200000e+01 9.999991e-01 -9.000000e+01
      vertex   -6.878470e+01 7.548576e+00 -9.000000e+01
      vertex   -6.890393e+01 8.024548e+00 -9.000000e+01
    endloop
  endfacet
  facet normal -1.030253e-14 -1.528236e-15 1.000000e+00
    outer loop
      vertex   -6.890393e+01 8.024548e+00 -9.000000e+01
      vertex   -6.897592e+01 8.509913e+00 -9.000000e+01
      vertex   -7.200000e+01 9.999991e-01 -9.000000e+01
    endloop
  endfacet
  facet normal -2.051038e-13 7.691392e-14 1.000000e+00
    outer loop
      vertex   -7.200000e+01 9.999991e-01 -9.000000e+01
      vertex   -6.897592e+01 8.509913e+00 -9.000000e+01
      vertex   -6.900000e+01 8.999999e+00 -9.000000e+01
    endloop
  endfacet
  facet normal 0.000000e+00 0.000000e+00 1.000000e+00
    outer loop
      vertex   -7.200000e+01 9.999991e-01 -9.000000e+01
      vertex   -6.900000e+01 8.999999e+00 -9.000000e+01
      vertex   -6.900000e+01 4.900000e+01 -9.000000e+01
    endloop
  endfacet
  facet normal 0.000000e+00 0.000000e+00 1.000000e+00
    outer loop
      vertex   -7.200000e+01 9.999991e-01 -9.000000e+01
      vertex   -6.900000e+01 4.900000e+01 -9.000000e+01
      vertex   -7.200000e+01 5.800000e+01 -9.000000e+01
    endloop
  endfacet
  facet normal 0.000000e+00 0.000000e+00 1.000000e+00
    outer loop
      vertex   -7.200000e+01 5.800000e+01 -9.000000e+01
      vertex   -6.900000e+01 4.900000e+01 -9.000000e+01
      vertex   -6.897592e+01 4.949009e+01 -9.000000e+01
    endloop
  endfacet
  facet normal 0.000000e+00 0.000000e+00 1.000000e+00
    outer loop
      vertex   -7.200000e+01 5.800000e+01 -9.000000e+01
      vertex   -6.897592e+01 4.949009e+01 -9.000000e+01
      vertex   -6.890393e+01 4.997545e+01 -9.000000e+01
    endloop
  endfacet
  facet normal 0.000000e+00 -0.000000e+00 1.000000e+00
    outer loop
      vertex   -6.890393e+01 4.997545e+01 -9.000000e+01
      vertex   -6.878470e+01 5.045142e+01 -9.000000e+01
      vertex   -7.200000e+01 5.800000e+01 -9.000000e+01
    endloop
  endfacet
  facet normal 0.000000e+00 0.000000e+00 1.000000e+00
    outer loop
      vertex   -7.200000e+01 5.800000e+01 -9.000000e+01
      vertex   -6.878470e+01 5.045142e+01 -9.000000e+01
      vertex   -6.861940e+01 5.091342e+01 -9.000000e+01
    endloop
  endfacet
  facet normal 0.000000e+00 0.000000e+00 1.000000e+00
    outer loop
      vertex   -7.200000e+01 5.800000e+01 -9.000000e+01
      vertex   -6.861940e+01 5.091342e+01 -9.000000e+01
      vertex   -6.840961e+01 5.135698e+01 -9.000000e+01
    endloop
  endfacet
  facet normal 0.000000e+00 -0.000000e+00 1.000000e+00
    outer loop
      vertex   -6.840961e+01 5.135698e+01 -9.000000e+01
      vertex   -6.815735e+01 5.177785e+01 -9.000000e+01
      vertex   -7.200000e+01 5.800000e+01 -9.000000e+01
    endloop
  endfacet
  facet normal 0.000000e+00 0.000000e+00 1.000000e+00
    outer loop
      vertex   -7.200000e+01 5.800000e+01 -9.000000e+01
      vertex   -6.815735e+01 5.177785e+01 -9.000000e+01
      vertex   -6.786505e+01 5.217197e+01 -9.000000e+01
    endloop
  endfacet
  facet normal 0.000000e+00 0.000000e+00 1.000000e+00
    outer loop
      vertex   -7.200000e+01 5.800000e+01 -9.000000e+01
      vertex   -6.786505e+01 5.217197e+01 -9.000000e+01
      vertex   -6.753553e+01 5.253553e+01 -9.000000e+01
    endloop
  endfacet
  facet normal 0.000000e+00 -0.000000e+00 1.000000e+00
    outer loop
      vertex   -6.753553e+01 5.253553e+01 -9.000000e+01
      vertex   -6.717197e+01 5.286505e+01 -9.000000e+01
      vertex   -7.200000e+01 5.800000e+01 -9.000000e+01
    endloop
  endfacet
  facet normal 0.000000e+00 0.000000e+00 1.000000e+00
    outer loop
      vertex   -7.200000e+01 5.800000e+01 -9.000000e+01
      vertex   -6.717197e+01 5.286505e+01 -9.000000e+01
      vertex   -6.677785e+01 5.315735e+01 -9.000000e+01
    endloop
  endfacet
  facet normal 0.000000e+00 0.000000e+00 1.000000e+00
    outer loop
      vertex   -7.200000e+01 5.800000e+01 -9.000000e+01
      vertex   -6.677785e+01 5.315735e+01 -9.000000e+01
      vertex   -6.635698e+01 5.340961e+01 -9.000000e+01
    endloop
  endfacet
  facet normal 0.000000e+00 -0.000000e+00 1.000000e+00
    outer loop
      vertex   -6.635698e+01 5.340961e+01 -9.000000e+01
      vertex   -6.591342e+01 5.361940e+01 -9.000000e+01
      vertex   -7.200000e+01 5.800000e+01 -9.000000e+01
    endloop
  endfacet
  facet normal 0.000000e+00 0.000000e+00 1.000000e+00
    outer loop
      vertex   -7.200000e+01 5.800000e+01 -9.000000e+01
      vertex   -6.591342e+01 5.361940e+01 -9.000000e+01
      vertex   -6.545142e+01 5.378470e+01 -9.000000e+01
    endloop
  endfacet
  facet normal -0.000000e+00 0.000000e+00 1.000000e+00
    outer loop
      vertex   -7.200000e+01 5.800000e+01 -9.000000e+01
      vertex   -6.545142e+01 5.378470e+01 -9.000000e+01
      vertex   -6.335534e+01 5.800000e+01 -9.000000e+01
    endloop
  endfacet
  facet normal 0.000000e+00 0.000000e+00 1.000000e+00
    outer loop
      vertex   -6.335534e+01 5.800000e+01 -9.000000e+01
      vertex   -6.545142e+01 5.378470e+01 -9.000000e+01
      vertex   -6.497545e+01 5.390393e+01 -9.000000e+01
    endloop
  endfacet
  facet normal 0.000000e+00 0.000000e+00 1.000000e+00
    outer loop
      vertex   -6.335534e+01 5.800000e+01 -9.000000e+01
      vertex   -6.497545e+01 5.390393e+01 -9.000000e+01
      vertex   -6.449009e+01 5.397592e+01 -9.000000e+01
    endloop
  endfacet
  facet normal 0.000000e+00 0.000000e+00 1.000000e+00
    outer loop
      vertex   -6.449009e+01 5.397592e+01 -9.000000e+01
      vertex   -6.400000e+01 5.400000e+01 -9.000000e+01
      vertex   -6.335534e+01 5.800000e+01 -9.000000e+01
    endloop
  endfacet
  facet normal -7.777791e-16 1.253509e-16 1.000000e+00
    outer loop
      vertex   -6.335534e+01 5.800000e+01 -9.000000e+01
      vertex   -6.400000e+01 5.400000e+01 -9.000000e+01
      vertex   2.800000e+01 5.800000e+01 -9.000000e+01
    endloop
  endfacet
  facet normal -7.777791e-16 0.000000e+00 1.000000e+00
    outer loop
      vertex   -6.335534e+01 5.800000e+01 -9.000000e+01
      vertex   2.800000e+01 5.800000e+01 -9.000000e+01
      vertex   -6.335534e+01 5.900000e+01 -9.000000e+01
    endloop
  endfacet
  facet normal 1.468008e-09 1.341104e-07 1.000000e+00
    outer loop
      vertex   -6.335534e+01 5.900000e+01 -9.000000e+01
      vertex   2.800000e+01 5.800000e+01 -9.000000e+01
      vertex   2.800000e+01 5.900000e+01 -9.000000e+01
    endloop
  endfacet
  facet normal 1.468008e-09 8.460287e-09 1.000000e+00
    outer loop
      vertex   -6.335534e+01 5.900000e+01 -9.000000e+01
      vertex   2.800000e+01 5.900000e+01 -9.000000e+01
      vertex   -7.200000e+01 6.050000e+01 -9.000000e+01
    endloop
  endfacet
  facet normal -5.167584e-16 -8.940694e-08 1.000000e+00
    outer loop
      vertex   -7.200000e+01 6.050000e+01 -9.000000e+01
      vertex   2.800000e+01 5.900000e+01 -9.000000e+01
      vertex   3.800000e+01 6.050000e+01 -9.000000e+01
    endloop
  endfacet
  facet normal -1.354720e-08 9.076979e-10 1.000000e+00
    outer loop
      vertex   3.800000e+01 6.050000e+01 -9.000000e+01
      vertex   2.800000e+01 5.900000e+01 -9.000000e+01
      vertex   3.789950e+01 5.900000e+01 -9.000000e+01
    endloop
  endfacet
  facet normal -2.120940e-13 1.421085e-14 1.000000e+00
    outer loop
      vertex   3.800000e+01 6.050000e+01 -9.000000e+01
      vertex   3.789950e+01 5.900000e+01 -9.000000e+01
      vertex   3.789950e+01 5.800000e+01 -9.000000e+01
    endloop
  endfacet
  facet normal -7.558965e-16 -3.779482e-16 1.000000e+00
    outer loop
      vertex   -6.400000e+01 5.400000e+01 -9.000000e+01
      vertex   3.000000e+01 5.400000e+01 -9.000000e+01
      vertex   2.800000e+01 5.800000e+01 -9.000000e+01
    endloop
  endfacet
  facet normal 5.945373e-14 2.972687e-14 1.000000e+00
    outer loop
      vertex   2.800000e+01 5.800000e+01 -9.000000e+01
      vertex   3.000000e+01 5.400000e+01 -9.000000e+01
      vertex   3.049009e+01 5.397592e+01 -9.000000e+01
    endloop
  endfacet
  facet normal -1.153571e-15 -7.776741e-15 1.000000e+00
    outer loop
      vertex   2.800000e+01 5.800000e+01 -9.000000e+01
      vertex   3.049009e+01 5.397592e+01 -9.000000e+01
      vertex   3.097545e+01 5.390393e+01 -9.000000e+01
    endloop
  endfacet
  facet normal 0.000000e+00 -6.938769e-15 1.000000e+00
    outer loop
      vertex   2.800000e+01 5.800000e+01 -9.000000e+01
      vertex   3.097545e+01 5.390393e+01 -9.000000e+01
      vertex   3.789950e+01 5.800000e+01 -9.000000e+01
    endloop
  endfacet
  facet normal -1.221048e-15 -4.874697e-15 1.000000e+00
    outer loop
      vertex   3.789950e+01 5.800000e+01 -9.000000e+01
      vertex   3.097545e+01 5.390393e+01 -9.000000e+01
      vertex   3.145142e+01 5.378470e+01 -9.000000e+01
    endloop
  endfacet
  facet normal -1.559144e-15 -4.357517e-15 1.000000e+00
    outer loop
      vertex   3.789950e+01 5.800000e+01 -9.000000e+01
      vertex   3.145142e+01 5.378470e+01 -9.000000e+01
      vertex   3.191342e+01 5.361940e+01 -9.000000e+01
    endloop
  endfacet
  facet normal -1.863953e-15 -3.940997e-15 1.000000e+00
    outer loop
      vertex   3.191342e+01 5.361940e+01 -9.000000e+01
      vertex   3.235698e+01 5.340961e+01 -9.000000e+01
      vertex   3.789950e+01 5.800000e+01 -9.000000e+01
    endloop
  endfacet
  facet normal -2.152977e-15 -3.592025e-15 1.000000e+00
    outer loop
      vertex   3.789950e+01 5.800000e+01 -9.000000e+01
      vertex   3.235698e+01 5.340961e+01 -9.000000e+01
      vertex   3.277785e+01 5.315735e+01 -9.000000e+01
    endloop
  endfacet
  facet normal -2.439380e-15 -3.289123e-15 1.000000e+00
    outer loop
      vertex   3.789950e+01 5.800000e+01 -9.000000e+01
      vertex   3.277785e+01 5.315735e+01 -9.000000e+01
      vertex   3.317197e+01 5.286505e+01 -9.000000e+01
    endloop
  endfacet
  facet normal -2.734679e-15 -3.017253e-15 1.000000e+00
    outer loop
      vertex   3.317197e+01 5.286505e+01 -9.000000e+01
      vertex   3.353553e+01 5.253553e+01 -9.000000e+01
      vertex   3.789950e+01 5.800000e+01 -9.000000e+01
    endloop
  endfacet
  facet normal -3.050631e-15 -2.764931e-15 1.000000e+00
    outer loop
      vertex   3.789950e+01 5.800000e+01 -9.000000e+01
      vertex   3.353553e+01 5.253553e+01 -9.000000e+01
      vertex   3.386505e+01 5.217197e+01 -9.000000e+01
    endloop
  endfacet
  facet normal -3.401025e-15 -2.522372e-15 1.000000e+00
    outer loop
      vertex   3.789950e+01 5.800000e+01 -9.000000e+01
      vertex   3.386505e+01 5.217197e+01 -9.000000e+01
      vertex   3.415735e+01 5.177785e+01 -9.000000e+01
    endloop
  endfacet
  facet normal -3.803986e-15 -2.280022e-15 1.000000e+00
    outer loop
      vertex   3.415735e+01 5.177785e+01 -9.000000e+01
      vertex   3.440961e+01 5.135698e+01 -9.000000e+01
      vertex   3.789950e+01 5.800000e+01 -9.000000e+01
    endloop
  endfacet
  facet normal -4.285670e-15 -2.026971e-15 1.000000e+00
    outer loop
      vertex   3.789950e+01 5.800000e+01 -9.000000e+01
      vertex   3.440961e+01 5.135698e+01 -9.000000e+01
      vertex   3.461940e+01 5.091342e+01 -9.000000e+01
    endloop
  endfacet
  facet normal -4.887051e-15 -1.748615e-15 1.000000e+00
    outer loop
      vertex   3.789950e+01 5.800000e+01 -9.000000e+01
      vertex   3.461940e+01 5.091342e+01 -9.000000e+01
      vertex   3.478470e+01 5.045142e+01 -9.000000e+01
    endloop
  endfacet
  facet normal -5.677967e-15 -1.422257e-15 1.000000e+00
    outer loop
      vertex   3.478470e+01 5.045142e+01 -9.000000e+01
      vertex   3.490393e+01 4.997545e+01 -9.000000e+01
      vertex   3.789950e+01 5.800000e+01 -9.000000e+01
    endloop
  endfacet
  facet normal -6.789872e-15 -1.007182e-15 1.000000e+00
    outer loop
      vertex   3.789950e+01 5.800000e+01 -9.000000e+01
      vertex   3.490393e+01 4.997545e+01 -9.000000e+01
      vertex   3.497592e+01 4.949009e+01 -9.000000e+01
    endloop
  endfacet
  facet normal -1.561930e-13 5.032008e-14 1.000000e+00
    outer loop
      vertex   3.789950e+01 5.800000e+01 -9.000000e+01
      vertex   3.497592e+01 4.949009e+01 -9.000000e+01
      vertex   3.500000e+01 4.900000e+01 -9.000000e+01
    endloop
  endfacet
  facet normal 7.696532e-16 -2.479562e-16 1.000000e+00
    outer loop
      vertex   3.789950e+01 5.800000e+01 -9.000000e+01
      vertex   3.500000e+01 4.900000e+01 -9.000000e+01
      vertex   3.800000e+01 1.000000e+00 -9.000000e+01
    endloop
  endfacet
  facet normal -9.473905e-16 -3.552714e-16 1.000000e+00
    outer loop
      vertex   3.800000e+01 1.000000e+00 -9.000000e+01
      vertex   3.500000e+01 4.900000e+01 -9.000000e+01
      vertex   3.500000e+01 8.999999e+00 -9.000000e+01
    endloop
  endfacet
  facet normal 0.000000e+00 0.000000e+00 1.000000e+00
    outer loop
      vertex   3.800000e+01 1.000000e+00 -9.000000e+01
      vertex   3.500000e+01 8.999999e+00 -9.000000e+01
      vertex   3.497592e+01 8.509913e+00 -9.000000e+01
    endloop
  endfacet
  facet normal 0.000000e+00 0.000000e+00 1.000000e+00
    outer loop
      vertex   3.497592e+01 8.509913e+00 -9.000000e+01
      vertex   3.490393e+01 8.024548e+00 -9.000000e+01
      vertex   3.800000e+01 1.000000e+00 -9.000000e+01
    endloop
  endfacet
  facet normal 0.000000e+00 0.000000e+00 1.000000e+00
    outer loop
      vertex   3.800000e+01 1.000000e+00 -9.000000e+01
      vertex   3.490393e+01 8.024548e+00 -9.000000e+01
      vertex   3.478470e+01 7.548576e+00 -9.000000e+01
    endloop
  endfacet
  facet normal 0.000000e+00 0.000000e+00 1.000000e+00
    outer loop
      vertex   3.800000e+01 1.000000e+00 -9.000000e+01
      vertex   3.478470e+01 7.548576e+00 -9.000000e+01
      vertex   3.461940e+01 7.086582e+00 -9.000000e+01
    endloop
  endfacet
  facet normal 0.000000e+00 0.000000e+00 1.000000e+00
    outer loop
      vertex   3.461940e+01 7.086582e+00 -9.000000e+01
      vertex   3.440961e+01 6.643015e+00 -9.000000e+01
      vertex   3.800000e+01 1.000000e+00 -9.000000e+01
    endloop
  endfacet
  facet normal 0.000000e+00 0.000000e+00 1.000000e+00
    outer loop
      vertex   3.800000e+01 1.000000e+00 -9.000000e+01
      vertex   3.440961e+01 6.643015e+00 -9.000000e+01
      vertex   3.415735e+01 6.222148e+00 -9.000000e+01
    endloop
  endfacet
  facet normal 0.000000e+00 0.000000e+00 1.000000e+00
    outer loop
      vertex   3.800000e+01 1.000000e+00 -9.000000e+01
      vertex   3.415735e+01 6.222148e+00 -9.000000e+01
      vertex   3.386505e+01 5.828033e+00 -9.000000e+01
    endloop
  endfacet
  facet normal 0.000000e+00 0.000000e+00 1.000000e+00
    outer loop
      vertex   3.386505e+01 5.828033e+00 -9.000000e+01
      vertex   3.353553e+01 5.464465e+00 -9.000000e+01
      vertex   3.800000e+01 1.000000e+00 -9.000000e+01
    endloop
  endfacet
  facet normal 0.000000e+00 0.000000e+00 1.000000e+00
    outer loop
      vertex   3.800000e+01 1.000000e+00 -9.000000e+01
      vertex   3.353553e+01 5.464465e+00 -9.000000e+01
      vertex   3.317197e+01 5.134947e+00 -9.000000e+01
    endloop
  endfacet
  facet normal 0.000000e+00 0.000000e+00 1.000000e+00
    outer loop
      vertex   3.800000e+01 1.000000e+00 -9.000000e+01
      vertex   3.317197e+01 5.134947e+00 -9.000000e+01
      vertex   3.277785e+01 4.842651e+00 -9.000000e+01
    endloop
  endfacet
  facet normal 0.000000e+00 0.000000e+00 1.000000e+00
    outer loop
      vertex   3.277785e+01 4.842651e+00 -9.000000e+01
      vertex   3.235698e+01 4.590393e+00 -9.000000e+01
      vertex   3.800000e+01 1.000000e+00 -9.000000e+01
    endloop
  endfacet
  facet normal 0.000000e+00 0.000000e+00 1.000000e+00
    outer loop
      vertex   3.800000e+01 1.000000e+00 -9.000000e+01
      vertex   3.235698e+01 4.590393e+00 -9.000000e+01
      vertex   3.191342e+01 4.380602e+00 -9.000000e+01
    endloop
  endfacet
  facet normal 0.000000e+00 0.000000e+00 1.000000e+00
    outer loop
      vertex   3.800000e+01 1.000000e+00 -9.000000e+01
      vertex   3.191342e+01 4.380602e+00 -9.000000e+01
      vertex   3.145142e+01 4.215298e+00 -9.000000e+01
    endloop
  endfacet
  facet normal 0.000000e+00 0.000000e+00 1.000000e+00
    outer loop
      vertex   3.145142e+01 4.215298e+00 -9.000000e+01
      vertex   3.097545e+01 4.096073e+00 -9.000000e+01
      vertex   3.800000e+01 1.000000e+00 -9.000000e+01
    endloop
  endfacet
  facet normal 1.423548e-15 3.229827e-15 1.000000e+00
    outer loop
      vertex   3.800000e+01 1.000000e+00 -9.000000e+01
      vertex   3.097545e+01 4.096073e+00 -9.000000e+01
      vertex   2.801730e+01 1.000000e+00 -9.000000e+01
    endloop
  endfacet
  facet normal -7.932877e-16 5.347911e-15 1.000000e+00
    outer loop
      vertex   2.801730e+01 1.000000e+00 -9.000000e+01
      vertex   3.097545e+01 4.096073e+00 -9.000000e+01
      vertex   3.049009e+01 4.024076e+00 -9.000000e+01
    endloop
  endfacet
  facet normal 0.000000e+00 0.000000e+00 1.000000e+00
    outer loop
      vertex   -7.200000e+01 2.664535e-14 -9.000000e+01
      vertex   -7.200000e+01 -1.500000e+00 -9.000000e+01
      vertex   -6.335534e+01 0.000000e+00 -9.000000e+01
    endloop
  endfacet
  facet normal -7.776319e-16 4.481576e-15 1.000000e+00
    outer loop
      vertex   -6.335534e+01 0.000000e+00 -9.000000e+01
      vertex   -7.200000e+01 -1.500000e+00 -9.000000e+01
      vertex   2.801730e+01 0.000000e+00 -9.000000e+01
    endloop
  endfacet
  facet normal -7.776319e-16 0.000000e+00 1.000000e+00
    outer loop
      vertex   -6.335534e+01 0.000000e+00 -9.000000e+01
      vertex   2.801730e+01 0.000000e+00 -9.000000e+01
      vertex   -6.335534e+01 9.999991e-01 -9.000000e+01
    endloop
  endfacet
  facet normal -7.776319e-16 0.000000e+00 1.000000e+00
    outer loop
      vertex   -6.335534e+01 9.999991e-01 -9.000000e+01
      vertex   2.801730e+01 0.000000e+00 -9.000000e+01
      vertex   2.801730e+01 1.000000e+00 -9.000000e+01
    endloop
  endfacet
  facet normal -5.167584e-16 -1.291300e-14 1.000000e+00
    outer loop
      vertex   -7.200000e+01 -1.500000e+00 -9.000000e+01
      vertex   3.800000e+01 -1.500000e+00 -9.000000e+01
      vertex   2.801730e+01 0.000000e+00 -9.000000e+01
    endloop
  endfacet
  facet normal 1.343429e-08 8.940698e-08 1.000000e+00
    outer loop
      vertex   2.801730e+01 0.000000e+00 -9.000000e+01
      vertex   3.800000e+01 -1.500000e+00 -9.000000e+01
      vertex   3.800000e+01 2.664535e-14 -9.000000e+01
    endloop
  endfacet
  facet normal 1.413960e-13 6.754144e-29 1.000000e+00
    outer loop
      vertex   3.800000e+01 1.000000e+00 -9.000000e+01
      vertex   3.800000e+01 6.050000e+01 -9.000000e+01
      vertex   3.789950e+01 5.800000e+01 -9.000000e+01
    endloop
  endfacet
  facet normal 0.000000e+00 0.000000e+00 1.000000e+00
    outer loop
      vertex   -7.200000e+01 6.050000e+01 -9.000000e+01
      vertex   -7.200000e+01 5.900000e+01 -9.000000e+01
      vertex   -6.335534e+01 5.900000e+01 -9.000000e+01
    endloop
  endfacet
  facet normal -9.987955e-01 -4.906767e-02 -4.731244e-15
    outer loop
      vertex   3.500000e+01 4.900000e+01 -9.300000e+01
      vertex   3.500000e+01 4.900000e+01 -9.000000e+01
      vertex   3.497592e+01 4.949009e+01 -9.300000e+01
    endloop
  endfacet
  facet normal -9.987955e-01 -4.906767e-02 -4.731244e-15
    outer loop
      vertex   3.497592e+01 4.949009e+01 -9.300000e+01
      vertex   3.500000e+01 4.900000e+01 -9.000000e+01
      vertex   3.497592e+01 4.949009e+01 -9.000000e+01
    endloop
  endfacet
  facet normal -9.891765e-01 -1.467305e-01 -4.685679e-15
    outer loop
      vertex   3.497592e+01 4.949009e+01 -9.300000e+01
      vertex   3.497592e+01 4.949009e+01 -9.000000e+01
      vertex   3.490393e+01 4.997545e+01 -9.300000e+01
    endloop
  endfacet
  facet normal -9.891765e-01 -1.467305e-01 -2.342840e-15
    outer loop
      vertex   3.490393e+01 4.997545e+01 -9.300000e+01
      vertex   3.497592e+01 4.949009e+01 -9.000000e+01
      vertex   3.490393e+01 4.997545e+01 -9.000000e+01
    endloop
  endfacet
  facet normal -9.700313e-01 -2.429802e-01 -2.297495e-15
    outer loop
      vertex   3.490393e+01 4.997545e+01 -9.300000e+01
      vertex   3.490393e+01 4.997545e+01 -9.000000e+01
      vertex   3.478470e+01 5.045142e+01 -9.300000e+01
    endloop
  endfacet
  facet normal -9.700313e-01 -2.429802e-01 -4.594989e-15
    outer loop
      vertex   3.478470e+01 5.045142e+01 -9.300000e+01
      vertex   3.490393e+01 4.997545e+01 -9.000000e+01
      vertex   3.478470e+01 5.045142e+01 -9.000000e+01
    endloop
  endfacet
  facet normal -9.415441e-01 -3.368899e-01 -4.460047e-15
    outer loop
      vertex   3.478470e+01 5.045142e+01 -9.300000e+01
      vertex   3.478470e+01 5.045142e+01 -9.000000e+01
      vertex   3.461940e+01 5.091342e+01 -9.300000e+01
    endloop
  endfacet
  facet normal -9.415441e-01 -3.368899e-01 -2.230023e-15
    outer loop
      vertex   3.461940e+01 5.091342e+01 -9.300000e+01
      vertex   3.478470e+01 5.045142e+01 -9.000000e+01
      vertex   3.461940e+01 5.091342e+01 -9.000000e+01
    endloop
  endfacet
  facet normal -9.039893e-01 -4.275551e-01 -2.141076e-15
    outer loop
      vertex   3.461940e+01 5.091342e+01 -9.300000e+01
      vertex   3.461940e+01 5.091342e+01 -9.000000e+01
      vertex   3.440961e+01 5.135698e+01 -9.300000e+01
    endloop
  endfacet
  facet normal -9.039893e-01 -4.275551e-01 -2.141076e-15
    outer loop
      vertex   3.440961e+01 5.135698e+01 -9.300000e+01
      vertex   3.461940e+01 5.091342e+01 -9.000000e+01
      vertex   3.440961e+01 5.135698e+01 -9.000000e+01
    endloop
  endfacet
  facet normal -8.577286e-01 -5.141027e-01 -2.031509e-15
    outer loop
      vertex   3.440961e+01 5.135698e+01 -9.300000e+01
      vertex   3.440961e+01 5.135698e+01 -9.000000e+01
      vertex   3.415735e+01 5.177785e+01 -9.300000e+01
    endloop
  endfacet
  facet normal -8.577286e-01 -5.141027e-01 -4.063017e-15
    outer loop
      vertex   3.415735e+01 5.177785e+01 -9.300000e+01
      vertex   3.440961e+01 5.135698e+01 -9.000000e+01
      vertex   3.415735e+01 5.177785e+01 -9.000000e+01
    endloop
  endfacet
  facet normal -8.032075e-01 -5.956993e-01 -3.804754e-15
    outer loop
      vertex   3.415735e+01 5.177785e+01 -9.300000e+01
      vertex   3.415735e+01 5.177785e+01 -9.000000e+01
      vertex   3.386505e+01 5.217197e+01 -9.300000e+01
    endloop
  endfacet
  facet normal -8.032075e-01 -5.956993e-01 -1.902377e-15
    outer loop
      vertex   3.386505e+01 5.217197e+01 -9.300000e+01
      vertex   3.415735e+01 5.177785e+01 -9.000000e+01
      vertex   3.386505e+01 5.217197e+01 -9.000000e+01
    endloop
  endfacet
  facet normal -7.409511e-01 -6.715590e-01 -1.754924e-15
    outer loop
      vertex   3.386505e+01 5.217197e+01 -9.300000e+01
      vertex   3.386505e+01 5.217197e+01 -9.000000e+01
      vertex   3.353553e+01 5.253553e+01 -9.300000e+01
    endloop
  endfacet
  facet normal -7.409511e-01 -6.715590e-01 -3.509848e-15
    outer loop
      vertex   3.353553e+01 5.253553e+01 -9.300000e+01
      vertex   3.386505e+01 5.217197e+01 -9.000000e+01
      vertex   3.353553e+01 5.253553e+01 -9.000000e+01
    endloop
  endfacet
  facet normal -6.715590e-01 -7.409511e-01 -3.181141e-15
    outer loop
      vertex   3.353553e+01 5.253553e+01 -9.300000e+01
      vertex   3.353553e+01 5.253553e+01 -9.000000e+01
      vertex   3.317197e+01 5.286505e+01 -9.300000e+01
    endloop
  endfacet
  facet normal -6.715590e-01 -7.409511e-01 -3.181141e-15
    outer loop
      vertex   3.317197e+01 5.286505e+01 -9.300000e+01
      vertex   3.353553e+01 5.253553e+01 -9.000000e+01
      vertex   3.317197e+01 5.286505e+01 -9.000000e+01
    endloop
  endfacet
  facet normal -5.956993e-01 -8.032075e-01 -2.821798e-15
    outer loop
      vertex   3.317197e+01 5.286505e+01 -9.300000e+01
      vertex   3.317197e+01 5.286505e+01 -9.000000e+01
      vertex   3.277785e+01 5.315735e+01 -9.300000e+01
    endloop
  endfacet
  facet normal -5.956993e-01 -8.032075e-01 -1.410899e-15
    outer loop
      vertex   3.277785e+01 5.315735e+01 -9.300000e+01
      vertex   3.317197e+01 5.286505e+01 -9.000000e+01
      vertex   3.277785e+01 5.315735e+01 -9.000000e+01
    endloop
  endfacet
  facet normal -5.141027e-01 -8.577286e-01 -1.217639e-15
    outer loop
      vertex   3.277785e+01 5.315735e+01 -9.300000e+01
      vertex   3.277785e+01 5.315735e+01 -9.000000e+01
      vertex   3.235698e+01 5.340961e+01 -9.300000e+01
    endloop
  endfacet
  facet normal -5.141027e-01 -8.577286e-01 -1.217639e-15
    outer loop
      vertex   3.235698e+01 5.340961e+01 -9.300000e+01
      vertex   3.277785e+01 5.315735e+01 -9.000000e+01
      vertex   3.235698e+01 5.340961e+01 -9.000000e+01
    endloop
  endfacet
  facet normal -4.275551e-01 -9.039893e-01 -1.012654e-15
    outer loop
      vertex   3.235698e+01 5.340961e+01 -9.300000e+01
      vertex   3.235698e+01 5.340961e+01 -9.000000e+01
      vertex   3.191342e+01 5.361940e+01 -9.300000e+01
    endloop
  endfacet
  facet normal -4.275551e-01 -9.039893e-01 -1.012654e-15
    outer loop
      vertex   3.191342e+01 5.361940e+01 -9.300000e+01
      vertex   3.235698e+01 5.340961e+01 -9.000000e+01
      vertex   3.191342e+01 5.361940e+01 -9.000000e+01
    endloop
  endfacet
  facet normal -3.368899e-01 -9.415441e-01 -7.979152e-16
    outer loop
      vertex   3.191342e+01 5.361940e+01 -9.300000e+01
      vertex   3.191342e+01 5.361940e+01 -9.000000e+01
      vertex   3.145142e+01 5.378470e+01 -9.300000e+01
    endloop
  endfacet
  facet normal -3.368899e-01 -9.415441e-01 -1.595830e-15
    outer loop
      vertex   3.145142e+01 5.378470e+01 -9.300000e+01
      vertex   3.191342e+01 5.361940e+01 -9.000000e+01
      vertex   3.145142e+01 5.378470e+01 -9.000000e+01
    endloop
  endfacet
  facet normal -2.429802e-01 -9.700313e-01 -1.150985e-15
    outer loop
      vertex   3.145142e+01 5.378470e+01 -9.300000e+01
      vertex   3.145142e+01 5.378470e+01 -9.000000e+01
      vertex   3.097545e+01 5.390393e+01 -9.300000e+01
    endloop
  endfacet
  facet normal -2.429802e-01 -9.700313e-01 -8.632387e-16
    outer loop
      vertex   3.097545e+01 5.390393e+01 -9.300000e+01
      vertex   3.145142e+01 5.378470e+01 -9.000000e+01
      vertex   3.097545e+01 5.390393e+01 -9.000000e+01
    endloop
  endfacet
  facet normal -1.467305e-01 -9.891765e-01 -5.212912e-16
    outer loop
      vertex   3.097545e+01 5.390393e+01 -9.300000e+01
      vertex   3.097545e+01 5.390393e+01 -9.000000e+01
      vertex   3.049009e+01 5.397592e+01 -9.300000e+01
    endloop
  endfacet
  facet normal -1.467305e-01 -9.891765e-01 -3.475274e-16
    outer loop
      vertex   3.049009e+01 5.397592e+01 -9.300000e+01
      vertex   3.097545e+01 5.390393e+01 -9.000000e+01
      vertex   3.049009e+01 5.397592e+01 -9.000000e+01
    endloop
  endfacet
  facet normal -4.906767e-02 -9.987955e-01 -1.162156e-16
    outer loop
      vertex   3.049009e+01 5.397592e+01 -9.300000e+01
      vertex   3.049009e+01 5.397592e+01 -9.000000e+01
      vertex   3.000000e+01 5.400000e+01 -9.300000e+01
    endloop
  endfacet
  facet normal -4.906767e-02 -9.987955e-01 2.191299e-15
    outer loop
      vertex   3.000000e+01 5.400000e+01 -9.300000e+01
      vertex   3.049009e+01 5.397592e+01 -9.000000e+01
      vertex   3.000000e+01 5.400000e+01 -9.000000e+01
    endloop
  endfacet
  facet normal -4.906767e-02 9.987955e-01 5.797839e-15
    outer loop
      vertex   3.000000e+01 3.999999e+00 -9.300000e+01
      vertex   3.000000e+01 3.999999e+00 -9.000000e+01
      vertex   3.049009e+01 4.024076e+00 -9.300000e+01
    endloop
  endfacet
  facet normal -4.906767e-02 9.987955e-01 5.444029e-15
    outer loop
      vertex   3.049009e+01 4.024076e+00 -9.300000e+01
      vertex   3.000000e+01 3.999999e+00 -9.000000e+01
      vertex   3.049009e+01 4.024076e+00 -9.000000e+01
    endloop
  endfacet
  facet normal -1.467305e-01 9.891765e-01 5.042953e-15
    outer loop
      vertex   3.049009e+01 4.024076e+00 -9.300000e+01
      vertex   3.049009e+01 4.024076e+00 -9.000000e+01
      vertex   3.097545e+01 4.096073e+00 -9.300000e+01
    endloop
  endfacet
  facet normal -1.467305e-01 9.891765e-01 5.509572e-15
    outer loop
      vertex   3.097545e+01 4.096073e+00 -9.300000e+01
      vertex   3.049009e+01 4.024076e+00 -9.000000e+01
      vertex   3.097545e+01 4.096073e+00 -9.000000e+01
    endloop
  endfacet
  facet normal -2.429802e-01 9.700313e-01 5.168244e-15
    outer loop
      vertex   3.097545e+01 4.096073e+00 -9.300000e+01
      vertex   3.097545e+01 4.096073e+00 -9.000000e+01
      vertex   3.145142e+01 4.215298e+00 -9.300000e+01
    endloop
  endfacet
  facet normal -2.429802e-01 9.700313e-01 5.455990e-15
    outer loop
      vertex   3.145142e+01 4.215298e+00 -9.300000e+01
      vertex   3.097545e+01 4.096073e+00 -9.000000e+01
      vertex   3.145142e+01 4.215298e+00 -9.000000e+01
    endloop
  endfacet
  facet normal -3.368899e-01 9.415441e-01 5.176101e-15
    outer loop
      vertex   3.145142e+01 4.215298e+00 -9.300000e+01
      vertex   3.145142e+01 4.215298e+00 -9.000000e+01
      vertex   3.191342e+01 4.380602e+00 -9.300000e+01
    endloop
  endfacet
  facet normal -3.368899e-01 9.415441e-01 4.777144e-15
    outer loop
      vertex   3.191342e+01 4.380602e+00 -9.300000e+01
      vertex   3.145142e+01 4.215298e+00 -9.000000e+01
      vertex   3.191342e+01 4.380602e+00 -9.000000e+01
    endloop
  endfacet
  facet normal -4.275551e-01 9.039893e-01 4.340036e-15
    outer loop
      vertex   3.191342e+01 4.380602e+00 -9.300000e+01
      vertex   3.191342e+01 4.380602e+00 -9.000000e+01
      vertex   3.235698e+01 4.590393e+00 -9.300000e+01
    endloop
  endfacet
  facet normal -4.275551e-01 9.039893e-01 3.804767e-15
    outer loop
      vertex   3.235698e+01 4.590393e+00 -9.300000e+01
      vertex   3.191342e+01 4.380602e+00 -9.000000e+01
      vertex   3.235698e+01 4.590393e+00 -9.000000e+01
    endloop
  endfacet
  facet normal -5.141027e-01 8.577286e-01 3.353255e-15
    outer loop
      vertex   3.235698e+01 4.590393e+00 -9.300000e+01
      vertex   3.235698e+01 4.590393e+00 -9.000000e+01
      vertex   3.277785e+01 4.842651e+00 -9.300000e+01
    endloop
  endfacet
  facet normal -5.141027e-01 8.577286e-01 3.861132e-15
    outer loop
      vertex   3.277785e+01 4.842651e+00 -9.300000e+01
      vertex   3.235698e+01 4.590393e+00 -9.000000e+01
      vertex   3.277785e+01 4.842651e+00 -9.000000e+01
    endloop
  endfacet
  facet normal -5.956993e-01 8.032075e-01 3.345043e-15
    outer loop
      vertex   3.277785e+01 4.842651e+00 -9.300000e+01
      vertex   3.277785e+01 4.842651e+00 -9.000000e+01
      vertex   3.317197e+01 5.134947e+00 -9.300000e+01
    endloop
  endfacet
  facet normal -5.956993e-01 8.032075e-01 3.345043e-15
    outer loop
      vertex   3.317197e+01 5.134947e+00 -9.300000e+01
      vertex   3.277785e+01 4.842651e+00 -9.000000e+01
      vertex   3.317197e+01 5.134947e+00 -9.000000e+01
    endloop
  endfacet
  facet normal -6.715590e-01 7.409511e-01 2.796740e-15
    outer loop
      vertex   3.317197e+01 5.134947e+00 -9.300000e+01
      vertex   3.317197e+01 5.134947e+00 -9.000000e+01
      vertex   3.353553e+01 5.464465e+00 -9.300000e+01
    endloop
  endfacet
  facet normal -6.715590e-01 7.409511e-01 2.796740e-15
    outer loop
      vertex   3.353553e+01 5.464465e+00 -9.300000e+01
      vertex   3.317197e+01 5.134947e+00 -9.000000e+01
      vertex   3.353553e+01 5.464465e+00 -9.000000e+01
    endloop
  endfacet
  facet normal -7.409511e-01 6.715590e-01 2.221502e-15
    outer loop
      vertex   3.353553e+01 5.464465e+00 -9.300000e+01
      vertex   3.353553e+01 5.464465e+00 -9.000000e+01
      vertex   3.386505e+01 5.828033e+00 -9.300000e+01
    endloop
  endfacet
  facet normal -7.409511e-01 6.715590e-01 2.221502e-15
    outer loop
      vertex   3.386505e+01 5.828033e+00 -9.300000e+01
      vertex   3.353553e+01 5.464465e+00 -9.000000e+01
      vertex   3.386505e+01 5.828033e+00 -9.000000e+01
    endloop
  endfacet
  facet normal -8.032075e-01 5.956993e-01 1.624870e-15
    outer loop
      vertex   3.386505e+01 5.828033e+00 -9.300000e+01
      vertex   3.386505e+01 5.828033e+00 -9.000000e+01
      vertex   3.415735e+01 6.222148e+00 -9.300000e+01
    endloop
  endfacet
  facet normal -8.032075e-01 5.956993e-01 1.624870e-15
    outer loop
      vertex   3.415735e+01 6.222148e+00 -9.300000e+01
      vertex   3.386505e+01 5.828033e+00 -9.000000e+01
      vertex   3.415735e+01 6.222148e+00 -9.000000e+01
    endloop
  endfacet
  facet normal -8.577286e-01 5.141027e-01 1.012590e-15
    outer loop
      vertex   3.415735e+01 6.222148e+00 -9.300000e+01
      vertex   3.415735e+01 6.222148e+00 -9.000000e+01
      vertex   3.440961e+01 6.643015e+00 -9.300000e+01
    endloop
  endfacet
  facet normal -8.577286e-01 5.141027e-01 1.317000e-15
    outer loop
      vertex   3.440961e+01 6.643015e+00 -9.300000e+01
      vertex   3.415735e+01 6.222148e+00 -9.000000e+01
      vertex   3.440961e+01 6.643015e+00 -9.000000e+01
    endloop
  endfacet
  facet normal -9.039893e-01 4.275551e-01 6.437212e-16
    outer loop
      vertex   3.440961e+01 6.643015e+00 -9.300000e+01
      vertex   3.440961e+01 6.643015e+00 -9.000000e+01
      vertex   3.461940e+01 7.086582e+00 -9.300000e+01
    endloop
  endfacet
  facet normal -9.039893e-01 4.275551e-01 3.905578e-16
    outer loop
      vertex   3.461940e+01 7.086582e+00 -9.300000e+01
      vertex   3.440961e+01 6.643015e+00 -9.000000e+01
      vertex   3.461940e+01 7.086582e+00 -9.000000e+01
    endloop
  endfacet
  facet normal -9.415441e-01 3.368899e-01 -2.352356e-16
    outer loop
      vertex   3.461940e+01 7.086582e+00 -9.300000e+01
      vertex   3.461940e+01 7.086582e+00 -9.000000e+01
      vertex   3.478470e+01 7.548576e+00 -9.300000e+01
    endloop
  endfacet
  facet normal -9.415441e-01 3.368899e-01 -2.352356e-16
    outer loop
      vertex   3.478470e+01 7.548576e+00 -9.300000e+01
      vertex   3.461940e+01 7.086582e+00 -9.000000e+01
      vertex   3.478470e+01 7.548576e+00 -9.000000e+01
    endloop
  endfacet
  facet normal -9.700313e-01 2.429802e-01 -8.587635e-16
    outer loop
      vertex   3.478470e+01 7.548576e+00 -9.300000e+01
      vertex   3.478470e+01 7.548576e+00 -9.000000e+01
      vertex   3.490393e+01 8.024548e+00 -9.300000e+01
    endloop
  endfacet
  facet normal -9.700313e-01 2.429802e-01 -8.587635e-16
    outer loop
      vertex   3.490393e+01 8.024548e+00 -9.300000e+01
      vertex   3.478470e+01 7.548576e+00 -9.000000e+01
      vertex   3.490393e+01 8.024548e+00 -9.000000e+01
    endloop
  endfacet
  facet normal -9.891765e-01 1.467305e-01 -1.474021e-15
    outer loop
      vertex   3.490393e+01 8.024548e+00 -9.300000e+01
      vertex   3.490393e+01 8.024548e+00 -9.000000e+01
      vertex   3.497592e+01 8.509913e+00 -9.300000e+01
    endloop
  endfacet
  facet normal -9.891765e-01 1.467305e-01 -1.387139e-15
    outer loop
      vertex   3.497592e+01 8.509913e+00 -9.300000e+01
      vertex   3.490393e+01 8.024548e+00 -9.000000e+01
      vertex   3.497592e+01 8.509913e+00 -9.000000e+01
    endloop
  endfacet
  facet normal -9.987955e-01 4.906767e-02 -2.046029e-15
    outer loop
      vertex   3.497592e+01 8.509913e+00 -9.300000e+01
      vertex   3.497592e+01 8.509913e+00 -9.000000e+01
      vertex   3.500000e+01 8.999999e+00 -9.300000e+01
    endloop
  endfacet
  facet normal -9.987955e-01 4.906767e-02 -2.220353e-15
    outer loop
      vertex   3.500000e+01 8.999999e+00 -9.300000e+01
      vertex   3.497592e+01 8.509913e+00 -9.000000e+01
      vertex   3.500000e+01 8.999999e+00 -9.000000e+01
    endloop
  endfacet
  facet normal -1.000000e+00 3.552714e-16 -4.736950e-15
    outer loop
      vertex   3.500000e+01 4.900000e+01 -9.300000e+01
      vertex   3.500000e+01 8.999999e+00 -9.300000e+01
      vertex   3.500000e+01 4.900000e+01 -9.000000e+01
    endloop
  endfacet
  facet normal -1.000000e+00 1.776357e-16 -2.368475e-15
    outer loop
      vertex   3.500000e+01 4.900000e+01 -9.000000e+01
      vertex   3.500000e+01 8.999999e+00 -9.300000e+01
      vertex   3.500000e+01 8.999999e+00 -9.000000e+01
    endloop
  endfacet
  facet normal 0.000000e+00 -2.292073e-16 1.000000e+00
    outer loop
      vertex   4.100000e+01 6.050000e+01 -7.700000e+01
      vertex   3.800000e+01 6.050000e+01 -7.700000e+01
      vertex   4.100000e+01 -1.500000e+00 -7.700000e+01
    endloop
  endfacet
  facet normal -1.866123e-30 -2.292073e-16 1.000000e+00
    outer loop
      vertex   4.100000e+01 -1.500000e+00 -7.700000e+01
      vertex   3.800000e+01 6.050000e+01 -7.700000e+01
      vertex   3.800000e+01 -1.500000e+00 -7.700000e+01
    endloop
  endfacet
  facet normal 2.669153e-15 -1.000000e+00 8.881784e-16
    outer loop
      vertex   3.800000e+01 3.552714e-14 -8.000000e+01
      vertex   2.801730e+01 0.000000e+00 -9.000000e+01
      vertex   3.800000e+01 2.664535e-14 -9.000000e+01
    endloop
  endfacet
  facet normal -2.669153e-15 1.000000e+00 -8.881784e-16
    outer loop
      vertex   3.800000e+01 1.000000e+00 -8.000000e+01
      vertex   3.800000e+01 1.000000e+00 -9.000000e+01
      vertex   2.801730e+01 1.000000e+00 -9.000000e+01
    endloop
  endfacet
  facet normal 3.059823e-30 -1.000000e+00 -5.921187e-15
    outer loop
      vertex   -7.200000e+01 -1.500000e+00 -9.000000e+01
      vertex   -7.200000e+01 -1.500000e+00 -9.300000e+01
      vertex   3.800000e+01 -1.500000e+00 -9.000000e+01
    endloop
  endfacet
  facet normal 7.446472e-31 -1.000000e+00 -5.921187e-15
    outer loop
      vertex   3.800000e+01 -1.500000e+00 -9.000000e+01
      vertex   -7.200000e+01 -1.500000e+00 -9.300000e+01
      vertex   4.100000e+01 -1.500000e+00 -9.300000e+01
    endloop
  endfacet
  facet normal 3.256653e-15 -1.000000e+00 -2.664535e-15
    outer loop
      vertex   3.800000e+01 -1.500000e+00 -9.000000e+01
      vertex   4.100000e+01 -1.500000e+00 -9.300000e+01
      vertex   4.100000e+01 -1.500000e+00 -7.700000e+01
    endloop
  endfacet
  facet normal -8.141636e-15 -1.000000e+00 -3.416071e-17
    outer loop
      vertex   4.100000e+01 -1.500000e+00 -7.700000e+01
      vertex   3.800000e+01 -1.500000e+00 -7.700000e+01
      vertex   3.800000e+01 -1.500000e+00 -9.000000e+01
    endloop
  endfacet
  facet normal -7.105428e-16 -1.000000e+00 -0.000000e+00
    outer loop
      vertex   3.800000e+01 5.800000e+01 -8.000000e+01
      vertex   2.800000e+01 5.800000e+01 -9.000000e+01
      vertex   3.800000e+01 5.800000e+01 -8.989950e+01
    endloop
  endfacet
  facet normal 0.000000e+00 -1.000000e+00 -7.069799e-14
    outer loop
      vertex   3.800000e+01 5.800000e+01 -8.989950e+01
      vertex   2.800000e+01 5.800000e+01 -9.000000e+01
      vertex   3.789950e+01 5.800000e+01 -9.000000e+01
    endloop
  endfacet
  facet normal 7.071068e-01 -1.004859e-14 -7.071068e-01
    outer loop
      vertex   3.789950e+01 5.900000e+01 -9.000000e+01
      vertex   3.800000e+01 5.900000e+01 -8.989950e+01
      vertex   3.789950e+01 5.800000e+01 -9.000000e+01
    endloop
  endfacet
  facet normal 7.071068e-01 0.000000e+00 -7.071068e-01
    outer loop
      vertex   3.789950e+01 5.800000e+01 -9.000000e+01
      vertex   3.800000e+01 5.900000e+01 -8.989950e+01
      vertex   3.800000e+01 5.800000e+01 -8.989950e+01
    endloop
  endfacet
  facet normal 0.000000e+00 1.000000e+00 -0.000000e+00
    outer loop
      vertex   3.800000e+01 5.900000e+01 -8.989950e+01
      vertex   3.789950e+01 5.900000e+01 -9.000000e+01
      vertex   3.800000e+01 5.900000e+01 -8.000000e+01
    endloop
  endfacet
  facet normal 1.435513e-15 1.000000e+00 -1.442747e-17
    outer loop
      vertex   3.800000e+01 5.900000e+01 -8.000000e+01
      vertex   3.789950e+01 5.900000e+01 -9.000000e+01
      vertex   2.800000e+01 5.900000e+01 -9.000000e+01
    endloop
  endfacet
  facet normal 1.000000e+00 -1.146037e-16 8.881784e-16
    outer loop
      vertex   4.100000e+01 -1.500000e+00 -7.700000e+01
      vertex   4.100000e+01 -1.500000e+00 -9.300000e+01
      vertex   4.100000e+01 6.050000e+01 -7.700000e+01
    endloop
  endfacet
  facet normal 1.000000e+00 -1.146037e-16 8.881784e-16
    outer loop
      vertex   4.100000e+01 6.050000e+01 -7.700000e+01
      vertex   4.100000e+01 -1.500000e+00 -9.300000e+01
      vertex   4.100000e+01 6.050000e+01 -9.300000e+01
    endloop
  endfacet
  facet normal 0.000000e+00 -0.000000e+00 -1.000000e+00
    outer loop
      vertex   -6.449009e+01 4.024076e+00 -9.300000e+01
      vertex   -6.400000e+01 3.999999e+00 -9.300000e+01
      vertex   -7.200000e+01 -1.500000e+00 -9.300000e+01
    endloop
  endfacet
  facet normal 1.511793e-16 -2.198972e-16 -1.000000e+00
    outer loop
      vertex   -7.200000e+01 -1.500000e+00 -9.300000e+01
      vertex   -6.400000e+01 3.999999e+00 -9.300000e+01
      vertex   3.000000e+01 3.999999e+00 -9.300000e+01
    endloop
  endfacet
  facet normal 1.257598e-16 2.515196e-16 -1.000000e+00
    outer loop
      vertex   -7.200000e+01 -1.500000e+00 -9.300000e+01
      vertex   3.000000e+01 3.999999e+00 -9.300000e+01
      vertex   4.100000e+01 -1.500000e+00 -9.300000e+01
    endloop
  endfacet
  facet normal 0.000000e+00 0.000000e+00 -1.000000e+00
    outer loop
      vertex   4.100000e+01 -1.500000e+00 -9.300000e+01
      vertex   3.000000e+01 3.999999e+00 -9.300000e+01
      vertex   3.049009e+01 4.024076e+00 -9.300000e+01
    endloop
  endfacet
  facet normal 0.000000e+00 0.000000e+00 -1.000000e+00
    outer loop
      vertex   4.100000e+01 -1.500000e+00 -9.300000e+01
      vertex   3.049009e+01 4.024076e+00 -9.300000e+01
      vertex   3.097545e+01 4.096073e+00 -9.300000e+01
    endloop
  endfacet
  facet normal 0.000000e+00 0.000000e+00 -1.000000e+00
    outer loop
      vertex   3.097545e+01 4.096073e+00 -9.300000e+01
      vertex   3.145142e+01 4.215298e+00 -9.300000e+01
      vertex   4.100000e+01 -1.500000e+00 -9.300000e+01
    endloop
  endfacet
  facet normal 0.000000e+00 0.000000e+00 -1.000000e+00
    outer loop
      vertex   4.100000e+01 -1.500000e+00 -9.300000e+01
      vertex   3.145142e+01 4.215298e+00 -9.300000e+01
      vertex   3.191342e+01 4.380602e+00 -9.300000e+01
    endloop
  endfacet
  facet normal 0.000000e+00 0.000000e+00 -1.000000e+00
    outer loop
      vertex   4.100000e+01 -1.500000e+00 -9.300000e+01
      vertex   3.191342e+01 4.380602e+00 -9.300000e+01
      vertex   3.235698e+01 4.590393e+00 -9.300000e+01
    endloop
  endfacet
  facet normal 0.000000e+00 0.000000e+00 -1.000000e+00
    outer loop
      vertex   3.235698e+01 4.590393e+00 -9.300000e+01
      vertex   3.277785e+01 4.842651e+00 -9.300000e+01
      vertex   4.100000e+01 -1.500000e+00 -9.300000e+01
    endloop
  endfacet
  facet normal 0.000000e+00 0.000000e+00 -1.000000e+00
    outer loop
      vertex   4.100000e+01 -1.500000e+00 -9.300000e+01
      vertex   3.277785e+01 4.842651e+00 -9.300000e+01
      vertex   3.317197e+01 5.134947e+00 -9.300000e+01
    endloop
  endfacet
  facet normal 0.000000e+00 0.000000e+00 -1.000000e+00
    outer loop
      vertex   4.100000e+01 -1.500000e+00 -9.300000e+01
      vertex   3.317197e+01 5.134947e+00 -9.300000e+01
      vertex   3.353553e+01 5.464465e+00 -9.300000e+01
    endloop
  endfacet
  facet normal 0.000000e+00 0.000000e+00 -1.000000e+00
    outer loop
      vertex   3.353553e+01 5.464465e+00 -9.300000e+01
      vertex   3.386505e+01 5.828033e+00 -9.300000e+01
      vertex   4.100000e+01 -1.500000e+00 -9.300000e+01
    endloop
  endfacet
  facet normal 0.000000e+00 0.000000e+00 -1.000000e+00
    outer loop
      vertex   4.100000e+01 -1.500000e+00 -9.300000e+01
      vertex   3.386505e+01 5.828033e+00 -9.300000e+01
      vertex   3.415735e+01 6.222148e+00 -9.300000e+01
    endloop
  endfacet
  facet normal 0.000000e+00 0.000000e+00 -1.000000e+00
    outer loop
      vertex   4.100000e+01 -1.500000e+00 -9.300000e+01
      vertex   3.415735e+01 6.222148e+00 -9.300000e+01
      vertex   3.440961e+01 6.643015e+00 -9.300000e+01
    endloop
  endfacet
  facet normal 0.000000e+00 0.000000e+00 -1.000000e+00
    outer loop
      vertex   3.440961e+01 6.643015e+00 -9.300000e+01
      vertex   3.461940e+01 7.086582e+00 -9.300000e+01
      vertex   4.100000e+01 -1.500000e+00 -9.300000e+01
    endloop
  endfacet
  facet normal 0.000000e+00 0.000000e+00 -1.000000e+00
    outer loop
      vertex   4.100000e+01 -1.500000e+00 -9.300000e+01
      vertex   3.461940e+01 7.086582e+00 -9.300000e+01
      vertex   3.478470e+01 7.548576e+00 -9.300000e+01
    endloop
  endfacet
  facet normal 0.000000e+00 0.000000e+00 -1.000000e+00
    outer loop
      vertex   4.100000e+01 -1.500000e+00 -9.300000e+01
      vertex   3.478470e+01 7.548576e+00 -9.300000e+01
      vertex   3.490393e+01 8.024548e+00 -9.300000e+01
    endloop
  endfacet
  facet normal 0.000000e+00 0.000000e+00 -1.000000e+00
    outer loop
      vertex   3.490393e+01 8.024548e+00 -9.300000e+01
      vertex   3.497592e+01 8.509913e+00 -9.300000e+01
      vertex   4.100000e+01 -1.500000e+00 -9.300000e+01
    endloop
  endfacet
  facet normal 0.000000e+00 0.000000e+00 -1.000000e+00
    outer loop
      vertex   4.100000e+01 -1.500000e+00 -9.300000e+01
      vertex   3.497592e+01 8.509913e+00 -9.300000e+01
      vertex   3.500000e+01 8.999999e+00 -9.300000e+01
    endloop
  endfacet
  facet normal 1.243450e-15 7.105427e-16 -1.000000e+00
    outer loop
      vertex   4.100000e+01 -1.500000e+00 -9.300000e+01
      vertex   3.500000e+01 8.999999e+00 -9.300000e+01
      vertex   3.500000e+01 4.900000e+01 -9.300000e+01
    endloop
  endfacet
  facet normal -4.736952e-15 5.428721e-31 -1.000000e+00
    outer loop
      vertex   4.100000e+01 -1.500000e+00 -9.300000e+01
      vertex   3.500000e+01 4.900000e+01 -9.300000e+01
      vertex   4.100000e+01 6.050000e+01 -9.300000e+01
    endloop
  endfacet
  facet normal 1.480533e-13 -7.971663e-14 -1.000000e+00
    outer loop
      vertex   4.100000e+01 6.050000e+01 -9.300000e+01
      vertex   3.500000e+01 4.900000e+01 -9.300000e+01
      vertex   3.497592e+01 4.949009e+01 -9.300000e+01
    endloop
  endfacet
  facet normal 1.855871e-15 2.752925e-16 -1.000000e+00
    outer loop
      vertex   4.100000e+01 6.050000e+01 -9.300000e+01
      vertex   3.497592e+01 4.949009e+01 -9.300000e+01
      vertex   3.490393e+01 4.997545e+01 -9.300000e+01
    endloop
  endfacet
  facet normal 1.627383e-15 4.076383e-16 -1.000000e+00
    outer loop
      vertex   3.490393e+01 4.997545e+01 -9.300000e+01
      vertex   3.478470e+01 5.045142e+01 -9.300000e+01
      vertex   4.100000e+01 6.050000e+01 -9.300000e+01
    endloop
  endfacet
  facet normal 1.448500e-15 5.182817e-16 -1.000000e+00
    outer loop
      vertex   4.100000e+01 6.050000e+01 -9.300000e+01
      vertex   3.478470e+01 5.045142e+01 -9.300000e+01
      vertex   3.461940e+01 5.091342e+01 -9.300000e+01
    endloop
  endfacet
  facet normal 1.301990e-15 6.157955e-16 -1.000000e+00
    outer loop
      vertex   4.100000e+01 6.050000e+01 -9.300000e+01
      vertex   3.461940e+01 5.091342e+01 -9.300000e+01
      vertex   3.440961e+01 5.135698e+01 -9.300000e+01
    endloop
  endfacet
  facet normal 1.177321e-15 7.056588e-16 -1.000000e+00
    outer loop
      vertex   3.440961e+01 5.135698e+01 -9.300000e+01
      vertex   3.415735e+01 5.177785e+01 -9.300000e+01
      vertex   4.100000e+01 6.050000e+01 -9.300000e+01
    endloop
  endfacet
  facet normal 1.067567e-15 7.917618e-16 -1.000000e+00
    outer loop
      vertex   4.100000e+01 6.050000e+01 -9.300000e+01
      vertex   3.415735e+01 5.177785e+01 -9.300000e+01
      vertex   3.386505e+01 5.217197e+01 -9.300000e+01
    endloop
  endfacet
  facet normal 9.678417e-16 8.772006e-16 -1.000000e+00
    outer loop
      vertex   4.100000e+01 6.050000e+01 -9.300000e+01
      vertex   3.386505e+01 5.217197e+01 -9.300000e+01
      vertex   3.353553e+01 5.253553e+01 -9.300000e+01
    endloop
  endfacet
  facet normal 8.744119e-16 9.647649e-16 -1.000000e+00
    outer loop
      vertex   3.353553e+01 5.253553e+01 -9.300000e+01
      vertex   3.317197e+01 5.286505e+01 -9.300000e+01
      vertex   4.100000e+01 6.050000e+01 -9.300000e+01
    endloop
  endfacet
  facet normal 7.841524e-16 1.057307e-15 -1.000000e+00
    outer loop
      vertex   4.100000e+01 6.050000e+01 -9.300000e+01
      vertex   3.317197e+01 5.286505e+01 -9.300000e+01
      vertex   3.277785e+01 5.315735e+01 -9.300000e+01
    endloop
  endfacet
  facet normal 6.941394e-16 1.158102e-15 -1.000000e+00
    outer loop
      vertex   4.100000e+01 6.050000e+01 -9.300000e+01
      vertex   3.277785e+01 5.315735e+01 -9.300000e+01
      vertex   3.235698e+01 5.340961e+01 -9.300000e+01
    endloop
  endfacet
  facet normal 6.012786e-16 1.271297e-15 -1.000000e+00
    outer loop
      vertex   3.235698e+01 5.340961e+01 -9.300000e+01
      vertex   3.191342e+01 5.361940e+01 -9.300000e+01
      vertex   4.100000e+01 6.050000e+01 -9.300000e+01
    endloop
  endfacet
  facet normal 5.018564e-16 1.402595e-15 -1.000000e+00
    outer loop
      vertex   4.100000e+01 6.050000e+01 -9.300000e+01
      vertex   3.191342e+01 5.361940e+01 -9.300000e+01
      vertex   3.145142e+01 5.378470e+01 -9.300000e+01
    endloop
  endfacet
  facet normal 3.908639e-16 1.560416e-15 -1.000000e+00
    outer loop
      vertex   4.100000e+01 6.050000e+01 -9.300000e+01
      vertex   3.145142e+01 5.378470e+01 -9.300000e+01
      vertex   3.097545e+01 5.390393e+01 -9.300000e+01
    endloop
  endfacet
  facet normal 2.607895e-16 1.758100e-15 -1.000000e+00
    outer loop
      vertex   3.097545e+01 5.390393e+01 -9.300000e+01
      vertex   3.049009e+01 5.397592e+01 -9.300000e+01
      vertex   4.100000e+01 6.050000e+01 -9.300000e+01
    endloop
  endfacet
  facet normal -8.051130e-14 1.318773e-13 -1.000000e+00
    outer loop
      vertex   4.100000e+01 6.050000e+01 -9.300000e+01
      vertex   3.049009e+01 5.397592e+01 -9.300000e+01
      vertex   3.000000e+01 5.400000e+01 -9.300000e+01
    endloop
  endfacet
  facet normal 2.515196e-16 -4.798219e-15 -1.000000e+00
    outer loop
      vertex   4.100000e+01 6.050000e+01 -9.300000e+01
      vertex   3.000000e+01 5.400000e+01 -9.300000e+01
      vertex   -7.200000e+01 6.050000e+01 -9.300000e+01
    endloop
  endfacet
  facet normal 6.047172e-16 7.442673e-16 -1.000000e+00
    outer loop
      vertex   -7.200000e+01 6.050000e+01 -9.300000e+01
      vertex   3.000000e+01 5.400000e+01 -9.300000e+01
      vertex   -6.400000e+01 5.400000e+01 -9.300000e+01
    endloop
  endfacet
  facet normal 2.734339e-14 3.365340e-14 -1.000000e+00
    outer loop
      vertex   -7.200000e+01 6.050000e+01 -9.300000e+01
      vertex   -6.400000e+01 5.400000e+01 -9.300000e+01
      vertex   -6.449009e+01 5.397592e+01 -9.300000e+01
    endloop
  endfacet
  facet normal -2.759836e-16 1.860530e-15 -1.000000e+00
    outer loop
      vertex   -6.449009e+01 5.397592e+01 -9.300000e+01
      vertex   -6.497545e+01 5.390393e+01 -9.300000e+01
      vertex   -7.200000e+01 6.050000e+01 -9.300000e+01
    endloop
  endfacet
  facet normal -4.260161e-16 1.700752e-15 -1.000000e+00
    outer loop
      vertex   -7.200000e+01 6.050000e+01 -9.300000e+01
      vertex   -6.497545e+01 5.390393e+01 -9.300000e+01
      vertex   -6.545142e+01 5.378470e+01 -9.300000e+01
    endloop
  endfacet
  facet normal -5.613260e-16 1.568801e-15 -1.000000e+00
    outer loop
      vertex   -7.200000e+01 6.050000e+01 -9.300000e+01
      vertex   -6.545142e+01 5.378470e+01 -9.300000e+01
      vertex   -6.591342e+01 5.361940e+01 -9.300000e+01
    endloop
  endfacet
  facet normal -6.886974e-16 1.456128e-15 -1.000000e+00
    outer loop
      vertex   -6.591342e+01 5.361940e+01 -9.300000e+01
      vertex   -6.635698e+01 5.340961e+01 -9.300000e+01
      vertex   -7.200000e+01 6.050000e+01 -9.300000e+01
    endloop
  endfacet
  facet normal -8.133212e-16 1.356944e-15 -1.000000e+00
    outer loop
      vertex   -7.200000e+01 6.050000e+01 -9.300000e+01
      vertex   -6.635698e+01 5.340961e+01 -9.300000e+01
      vertex   -6.677785e+01 5.315735e+01 -9.300000e+01
    endloop
  endfacet
  facet normal -9.397117e-16 1.267055e-15 -1.000000e+00
    outer loop
      vertex   -7.200000e+01 6.050000e+01 -9.300000e+01
      vertex   -6.677785e+01 5.315735e+01 -9.300000e+01
      vertex   -6.717197e+01 5.286505e+01 -9.300000e+01
    endloop
  endfacet
  facet normal -1.072364e-15 1.183171e-15 -1.000000e+00
    outer loop
      vertex   -6.717197e+01 5.286505e+01 -9.300000e+01
      vertex   -6.753553e+01 5.253553e+01 -9.300000e+01
      vertex   -7.200000e+01 6.050000e+01 -9.300000e+01
    endloop
  endfacet
  facet normal -1.216366e-15 1.102450e-15 -1.000000e+00
    outer loop
      vertex   -7.200000e+01 6.050000e+01 -9.300000e+01
      vertex   -6.753553e+01 5.253553e+01 -9.300000e+01
      vertex   -6.786505e+01 5.217197e+01 -9.300000e+01
    endloop
  endfacet
  facet normal -1.378164e-15 1.022116e-15 -1.000000e+00
    outer loop
      vertex   -7.200000e+01 6.050000e+01 -9.300000e+01
      vertex   -6.786505e+01 5.217197e+01 -9.300000e+01
      vertex   -6.815735e+01 5.177785e+01 -9.300000e+01
    endloop
  endfacet
  facet normal -1.566710e-15 9.390499e-16 -1.000000e+00
    outer loop
      vertex   -6.815735e+01 5.177785e+01 -9.300000e+01
      vertex   -6.840961e+01 5.135698e+01 -9.300000e+01
      vertex   -7.200000e+01 6.050000e+01 -9.300000e+01
    endloop
  endfacet
  facet normal -1.795497e-15 8.492069e-16 -1.000000e+00
    outer loop
      vertex   -7.200000e+01 6.050000e+01 -9.300000e+01
      vertex   -6.840961e+01 5.135698e+01 -9.300000e+01
      vertex   -6.861940e+01 5.091342e+01 -9.300000e+01
    endloop
  endfacet
  facet normal -2.086537e-15 7.465749e-16 -1.000000e+00
    outer loop
      vertex   -7.200000e+01 6.050000e+01 -9.300000e+01
      vertex   -6.861940e+01 5.091342e+01 -9.300000e+01
      vertex   -6.878470e+01 5.045142e+01 -9.300000e+01
    endloop
  endfacet
  facet normal -2.479069e-15 6.209744e-16 -1.000000e+00
    outer loop
      vertex   -6.878470e+01 5.045142e+01 -9.300000e+01
      vertex   -6.890393e+01 4.997545e+01 -9.300000e+01
      vertex   -7.200000e+01 6.050000e+01 -9.300000e+01
    endloop
  endfacet
  facet normal -3.051345e-15 4.526243e-16 -1.000000e+00
    outer loop
      vertex   -7.200000e+01 6.050000e+01 -9.300000e+01
      vertex   -6.890393e+01 4.997545e+01 -9.300000e+01
      vertex   -6.897592e+01 4.949009e+01 -9.300000e+01
    endloop
  endfacet
  facet normal -9.353873e-14 -2.440141e-14 -1.000000e+00
    outer loop
      vertex   -7.200000e+01 6.050000e+01 -9.300000e+01
      vertex   -6.897592e+01 4.949009e+01 -9.300000e+01
      vertex   -6.900000e+01 4.900000e+01 -9.300000e+01
    endloop
  endfacet
  facet normal -8.786281e-16 -2.292073e-16 -1.000000e+00
    outer loop
      vertex   -7.200000e+01 6.050000e+01 -9.300000e+01
      vertex   -6.900000e+01 4.900000e+01 -9.300000e+01
      vertex   -7.200000e+01 -1.500000e+00 -9.300000e+01
    endloop
  endfacet
  facet normal -1.071735e-14 3.552714e-16 -1.000000e+00
    outer loop
      vertex   -7.200000e+01 -1.500000e+00 -9.300000e+01
      vertex   -6.900000e+01 4.900000e+01 -9.300000e+01
      vertex   -6.900000e+01 8.999999e+00 -9.300000e+01
    endloop
  endfacet
  facet normal 1.651127e-13 -4.988188e-14 -1.000000e+00
    outer loop
      vertex   -7.200000e+01 -1.500000e+00 -9.300000e+01
      vertex   -6.900000e+01 8.999999e+00 -9.300000e+01
      vertex   -6.897592e+01 8.509913e+00 -9.300000e+01
    endloop
  endfacet
  facet normal 0.000000e+00 -0.000000e+00 -1.000000e+00
    outer loop
      vertex   -6.897592e+01 8.509913e+00 -9.300000e+01
      vertex   -6.890393e+01 8.024548e+00 -9.300000e+01
      vertex   -7.200000e+01 -1.500000e+00 -9.300000e+01
    endloop
  endfacet
  facet normal 0.000000e+00 0.000000e+00 -1.000000e+00
    outer loop
      vertex   -7.200000e+01 -1.500000e+00 -9.300000e+01
      vertex   -6.890393e+01 8.024548e+00 -9.300000e+01
      vertex   -6.878470e+01 7.548576e+00 -9.300000e+01
    endloop
  endfacet
  facet normal 0.000000e+00 0.000000e+00 -1.000000e+00
    outer loop
      vertex   -7.200000e+01 -1.500000e+00 -9.300000e+01
      vertex   -6.878470e+01 7.548576e+00 -9.300000e+01
      vertex   -6.861940e+01 7.086582e+00 -9.300000e+01
    endloop
  endfacet
  facet normal 0.000000e+00 -0.000000e+00 -1.000000e+00
    outer loop
      vertex   -6.861940e+01 7.086582e+00 -9.300000e+01
      vertex   -6.840961e+01 6.643015e+00 -9.300000e+01
      vertex   -7.200000e+01 -1.500000e+00 -9.300000e+01
    endloop
  endfacet
  facet normal 0.000000e+00 0.000000e+00 -1.000000e+00
    outer loop
      vertex   -7.200000e+01 -1.500000e+00 -9.300000e+01
      vertex   -6.840961e+01 6.643015e+00 -9.300000e+01
      vertex   -6.815735e+01 6.222148e+00 -9.300000e+01
    endloop
  endfacet
  facet normal 0.000000e+00 0.000000e+00 -1.000000e+00
    outer loop
      vertex   -7.200000e+01 -1.500000e+00 -9.300000e+01
      vertex   -6.815735e+01 6.222148e+00 -9.300000e+01
      vertex   -6.786505e+01 5.828033e+00 -9.300000e+01
    endloop
  endfacet
  facet normal 0.000000e+00 -0.000000e+00 -1.000000e+00
    outer loop
      vertex   -6.786505e+01 5.828033e+00 -9.300000e+01
      vertex   -6.753553e+01 5.464465e+00 -9.300000e+01
      vertex   -7.200000e+01 -1.500000e+00 -9.300000e+01
    endloop
  endfacet
  facet normal 0.000000e+00 0.000000e+00 -1.000000e+00
    outer loop
      vertex   -7.200000e+01 -1.500000e+00 -9.300000e+01
      vertex   -6.753553e+01 5.464465e+00 -9.300000e+01
      vertex   -6.717197e+01 5.134947e+00 -9.300000e+01
    endloop
  endfacet
  facet normal 0.000000e+00 0.000000e+00 -1.000000e+00
    outer loop
      vertex   -7.200000e+01 -1.500000e+00 -9.300000e+01
      vertex   -6.717197e+01 5.134947e+00 -9.300000e+01
      vertex   -6.677785e+01 4.842651e+00 -9.300000e+01
    endloop
  endfacet
  facet normal 0.000000e+00 -0.000000e+00 -1.000000e+00
    outer loop
      vertex   -6.677785e+01 4.842651e+00 -9.300000e+01
      vertex   -6.635698e+01 4.590393e+00 -9.300000e+01
      vertex   -7.200000e+01 -1.500000e+00 -9.300000e+01
    endloop
  endfacet
  facet normal 0.000000e+00 0.000000e+00 -1.000000e+00
    outer loop
      vertex   -7.200000e+01 -1.500000e+00 -9.300000e+01
      vertex   -6.635698e+01 4.590393e+00 -9.300000e+01
      vertex   -6.591342e+01 4.380602e+00 -9.300000e+01
    endloop
  endfacet
  facet normal 0.000000e+00 0.000000e+00 -1.000000e+00
    outer loop
      vertex   -7.200000e+01 -1.500000e+00 -9.300000e+01
      vertex   -6.591342e+01 4.380602e+00 -9.300000e+01
      vertex   -6.545142e+01 4.215298e+00 -9.300000e+01
    endloop
  endfacet
  facet normal 0.000000e+00 -0.000000e+00 -1.000000e+00
    outer loop
      vertex   -6.545142e+01 4.215298e+00 -9.300000e+01
      vertex   -6.497545e+01 4.096073e+00 -9.300000e+01
      vertex   -7.200000e+01 -1.500000e+00 -9.300000e+01
    endloop
  endfacet
  facet normal 0.000000e+00 0.000000e+00 -1.000000e+00
    outer loop
      vertex   -7.200000e+01 -1.500000e+00 -9.300000e+01
      vertex   -6.497545e+01 4.096073e+00 -9.300000e+01
      vertex   -6.449009e+01 4.024076e+00 -9.300000e+01
    endloop
  endfacet
  facet normal -1.000000e+00 -9.473903e-15 -4.736950e-15
    outer loop
      vertex   -7.200000e+01 6.050000e+01 -9.000000e+01
      vertex   -7.200000e+01 6.050000e+01 -9.300000e+01
      vertex   -7.200000e+01 5.900000e+01 -9.000000e+01
    endloop
  endfacet
  facet normal -1.000000e+00 -0.000000e+00 -0.000000e+00
    outer loop
      vertex   -7.200000e+01 5.900000e+01 -9.000000e+01
      vertex   -7.200000e+01 6.050000e+01 -9.300000e+01
      vertex   -7.200000e+01 5.800000e+01 -9.000000e+01
    endloop
  endfacet
  facet normal -1.000000e+00 0.000000e+00 0.000000e+00
    outer loop
      vertex   -7.200000e+01 5.900000e+01 -9.000000e+01
      vertex   -7.200000e+01 5.800000e+01 -9.000000e+01
      vertex   -7.200000e+01 5.800000e+01 -8.135534e+01
    endloop
  endfacet
  facet normal -1.000000e+00 0.000000e+00 0.000000e+00
    outer loop
      vertex   -7.200000e+01 6.050000e+01 -9.300000e+01
      vertex   -7.200000e+01 -1.500000e+00 -9.300000e+01
      vertex   -7.200000e+01 5.800000e+01 -9.000000e+01
    endloop
  endfacet
  facet normal -1.000000e+00 -0.000000e+00 0.000000e+00
    outer loop
      vertex   -7.200000e+01 5.800000e+01 -9.000000e+01
      vertex   -7.200000e+01 -1.500000e+00 -9.300000e+01
      vertex   -7.200000e+01 9.999991e-01 -9.000000e+01
    endloop
  endfacet
  facet normal -1.000000e+00 -0.000000e+00 0.000000e+00
    outer loop
      vertex   -7.200000e+01 9.999991e-01 -9.000000e+01
      vertex   -7.200000e+01 -1.500000e+00 -9.300000e+01
      vertex   -7.200000e+01 2.664535e-14 -9.000000e+01
    endloop
  endfacet
  facet normal -1.000000e+00 0.000000e+00 0.000000e+00
    outer loop
      vertex   -7.200000e+01 9.999991e-01 -9.000000e+01
      vertex   -7.200000e+01 2.664535e-14 -9.000000e+01
      vertex   -7.200000e+01 3.552714e-14 -8.135534e+01
    endloop
  endfacet
  facet normal -1.000000e+00 0.000000e+00 0.000000e+00
    outer loop
      vertex   -7.200000e+01 -1.500000e+00 -9.300000e+01
      vertex   -7.200000e+01 -1.500000e+00 -9.000000e+01
      vertex   -7.200000e+01 2.664535e-14 -9.000000e+01
    endloop
  endfacet
  facet normal -1.000000e+00 0.000000e+00 0.000000e+00
    outer loop
      vertex   -7.200000e+01 3.552714e-14 -8.135534e+01
      vertex   -7.200000e+01 9.999991e-01 -8.135534e+01
      vertex   -7.200000e+01 9.999991e-01 -9.000000e+01
    endloop
  endfacet
  facet normal -1.000000e+00 0.000000e+00 0.000000e+00
    outer loop
      vertex   -7.200000e+01 5.800000e+01 -8.135534e+01
      vertex   -7.200000e+01 5.900000e+01 -8.135534e+01
      vertex   -7.200000e+01 5.900000e+01 -9.000000e+01
    endloop
  endfacet
  facet normal -0.000000e+00 1.000000e+00 0.000000e+00
    outer loop
      vertex   3.800000e+01 6.050000e+01 -7.700000e+01
      vertex   4.100000e+01 6.050000e+01 -7.700000e+01
      vertex   3.800000e+01 6.050000e+01 -9.000000e+01
    endloop
  endfacet
  facet normal -0.000000e+00 1.000000e+00 0.000000e+00
    outer loop
      vertex   3.800000e+01 6.050000e+01 -9.000000e+01
      vertex   4.100000e+01 6.050000e+01 -7.700000e+01
      vertex   4.100000e+01 6.050000e+01 -9.300000e+01
    endloop
  endfacet
  facet normal 0.000000e+00 1.000000e+00 0.000000e+00
    outer loop
      vertex   3.800000e+01 6.050000e+01 -9.000000e+01
      vertex   4.100000e+01 6.050000e+01 -9.300000e+01
      vertex   -7.200000e+01 6.050000e+01 -9.300000e+01
    endloop
  endfacet
  facet normal 6.459479e-17 1.000000e+00 -2.368475e-15
    outer loop
      vertex   -7.200000e+01 6.050000e+01 -9.300000e+01
      vertex   -7.200000e+01 6.050000e+01 -9.000000e+01
      vertex   3.800000e+01 6.050000e+01 -9.000000e+01
    endloop
  endfacet
endsolid
