solid ASCII
  facet normal 9.999958e-01 -3.469957e-13 2.911202e-03
    outer loop
      vertex   -2.591359e+01 -1.000072e-02 1.845500e+02
      vertex   -2.580460e+01 -1.000072e-02 1.471098e+02
      vertex   -2.591359e+01 -7.152557e-07 1.845500e+02
    endloop
  endfacet
  facet normal 9.999958e-01 0.000000e+00 2.911202e-03
    outer loop
      vertex   -2.591359e+01 -7.152557e-07 1.845500e+02
      vertex   -2.580460e+01 -1.000072e-02 1.471098e+02
      vertex   -2.580460e+01 -7.152557e-07 1.471098e+02
    endloop
  endfacet
  facet normal 8.253073e-01 1.268319e-13 -5.646839e-01
    outer loop
      vertex   -3.146425e-01 -1.000072e-02 1.845500e+02
      vertex   -1.201150e+01 -1.000072e-02 1.674546e+02
      vertex   -3.146425e-01 -7.152557e-07 1.845500e+02
    endloop
  endfacet
  facet normal 8.253073e-01 0.000000e+00 -5.646839e-01
    outer loop
      vertex   -3.146425e-01 -7.152557e-07 1.845500e+02
      vertex   -1.201150e+01 -1.000072e-02 1.674546e+02
      vertex   -1.201150e+01 -7.152557e-07 1.674546e+02
    endloop
  endfacet
  facet normal 9.999981e-01 1.720625e-13 -1.960765e-03
    outer loop
      vertex   1.204501e+01 -1.000072e-02 1.845500e+02
      vertex   1.201149e+01 -1.000072e-02 1.674546e+02
      vertex   1.204501e+01 -7.152557e-07 1.845500e+02
    endloop
  endfacet
  facet normal 9.999981e-01 0.000000e+00 -1.960765e-03
    outer loop
      vertex   1.204501e+01 -7.152557e-07 1.845500e+02
      vertex   1.201149e+01 -1.000072e-02 1.674546e+02
      vertex   1.201149e+01 -7.152557e-07 1.674546e+02
    endloop
  endfacet
  facet normal -9.999981e-01 -1.832082e-13 -1.960765e-03
    outer loop
      vertex   -1.204502e+01 -7.152557e-07 1.845500e+02
      vertex   -1.201150e+01 -7.152557e-07 1.674546e+02
      vertex   -1.204502e+01 -1.000072e-02 1.845500e+02
    endloop
  endfacet
  facet normal -9.999981e-01 0.000000e+00 -1.960765e-03
    outer loop
      vertex   -1.204502e+01 -1.000072e-02 1.845500e+02
      vertex   -1.201150e+01 -7.152557e-07 1.674546e+02
      vertex   -1.201150e+01 -1.000072e-02 1.674546e+02
    endloop
  endfacet
  facet normal -8.227764e-01 2.115395e-13 -5.683652e-01
    outer loop
      vertex   2.021690e-01 -7.152557e-07 1.845500e+02
      vertex   1.201149e+01 -7.152557e-07 1.674546e+02
      vertex   2.021690e-01 -1.000072e-02 1.845500e+02
    endloop
  endfacet
  facet normal -8.227764e-01 0.000000e+00 -5.683652e-01
    outer loop
      vertex   2.021690e-01 -1.000072e-02 1.845500e+02
      vertex   1.201149e+01 -7.152557e-07 1.674546e+02
      vertex   1.201149e+01 -1.000072e-02 1.674546e+02
    endloop
  endfacet
  facet normal -9.999958e-01 8.274221e-15 2.911233e-03
    outer loop
      vertex   2.591359e+01 -7.152557e-07 1.845500e+02
      vertex   2.580459e+01 -7.152557e-07 1.471098e+02
      vertex   2.591359e+01 -1.000072e-02 1.845500e+02
    endloop
  endfacet
  facet normal -9.999958e-01 0.000000e+00 2.911233e-03
    outer loop
      vertex   2.591359e+01 -1.000072e-02 1.845500e+02
      vertex   2.580459e+01 -7.152557e-07 1.471098e+02
      vertex   2.580459e+01 -1.000072e-02 1.471098e+02
    endloop
  endfacet
  facet normal -9.832829e-01 0.000000e+00 1.820845e-01
    outer loop
      vertex   2.580459e+01 -7.152557e-07 1.471098e+02
      vertex   2.576867e+01 -7.152557e-07 1.469158e+02
      vertex   2.580459e+01 -1.000072e-02 1.471098e+02
    endloop
  endfacet
  facet normal -9.832829e-01 0.000000e+00 1.820845e-01
    outer loop
      vertex   2.580459e+01 -1.000072e-02 1.471098e+02
      vertex   2.576867e+01 -7.152557e-07 1.469158e+02
      vertex   2.576867e+01 -1.000072e-02 1.469158e+02
    endloop
  endfacet
  facet normal -9.515940e-01 0.000000e+00 3.073580e-01
    outer loop
      vertex   2.576867e+01 -1.000072e-02 1.469158e+02
      vertex   2.576867e+01 -7.152557e-07 1.469158e+02
      vertex   2.575464e+01 -7.152557e-07 1.468724e+02
    endloop
  endfacet
  facet normal -9.515940e-01 0.000000e+00 3.073580e-01
    outer loop
      vertex   2.576867e+01 -1.000072e-02 1.469158e+02
      vertex   2.575464e+01 -7.152557e-07 1.468724e+02
      vertex   2.575464e+01 -1.000072e-02 1.468724e+02
    endloop
  endfacet
  facet normal -9.172756e-01 0.000000e+00 3.982530e-01
    outer loop
      vertex   2.575464e+01 -1.000072e-02 1.468724e+02
      vertex   2.575464e+01 -7.152557e-07 1.468724e+02
      vertex   2.573725e+01 -7.152557e-07 1.468323e+02
    endloop
  endfacet
  facet normal -9.172756e-01 0.000000e+00 3.982530e-01
    outer loop
      vertex   2.575464e+01 -1.000072e-02 1.468724e+02
      vertex   2.573725e+01 -7.152557e-07 1.468323e+02
      vertex   2.573725e+01 -1.000072e-02 1.468323e+02
    endloop
  endfacet
  facet normal -8.593782e-01 0.000000e+00 5.113405e-01
    outer loop
      vertex   2.573725e+01 -1.000072e-02 1.468323e+02
      vertex   2.573725e+01 -7.152557e-07 1.468323e+02
      vertex   2.571581e+01 -7.152557e-07 1.467963e+02
    endloop
  endfacet
  facet normal -8.593782e-01 0.000000e+00 5.113405e-01
    outer loop
      vertex   2.573725e+01 -1.000072e-02 1.468323e+02
      vertex   2.571581e+01 -7.152557e-07 1.467963e+02
      vertex   2.571581e+01 -1.000072e-02 1.467963e+02
    endloop
  endfacet
  facet normal -7.675450e-01 0.000000e+00 6.409951e-01
    outer loop
      vertex   2.571581e+01 -1.000072e-02 1.467963e+02
      vertex   2.571581e+01 -7.152557e-07 1.467963e+02
      vertex   2.568965e+01 -7.152557e-07 1.467649e+02
    endloop
  endfacet
  facet normal -7.675450e-01 0.000000e+00 6.409951e-01
    outer loop
      vertex   2.571581e+01 -1.000072e-02 1.467963e+02
      vertex   2.568965e+01 -7.152557e-07 1.467649e+02
      vertex   2.568965e+01 -1.000072e-02 1.467649e+02
    endloop
  endfacet
  facet normal -6.409951e-01 0.000000e+00 7.675450e-01
    outer loop
      vertex   2.568965e+01 -1.000072e-02 1.467649e+02
      vertex   2.568965e+01 -7.152557e-07 1.467649e+02
      vertex   2.565833e+01 -7.152557e-07 1.467388e+02
    endloop
  endfacet
  facet normal -6.409951e-01 0.000000e+00 7.675450e-01
    outer loop
      vertex   2.568965e+01 -1.000072e-02 1.467649e+02
      vertex   2.565833e+01 -7.152557e-07 1.467388e+02
      vertex   2.565833e+01 -1.000072e-02 1.467388e+02
    endloop
  endfacet
  facet normal -5.113405e-01 0.000000e+00 8.593782e-01
    outer loop
      vertex   2.565833e+01 -1.000072e-02 1.467388e+02
      vertex   2.565833e+01 -7.152557e-07 1.467388e+02
      vertex   2.562230e+01 -7.152557e-07 1.467174e+02
    endloop
  endfacet
  facet normal -5.113405e-01 0.000000e+00 8.593782e-01
    outer loop
      vertex   2.565833e+01 -1.000072e-02 1.467388e+02
      vertex   2.562230e+01 -7.152557e-07 1.467174e+02
      vertex   2.562230e+01 -1.000072e-02 1.467174e+02
    endloop
  endfacet
  facet normal -3.982530e-01 0.000000e+00 9.172756e-01
    outer loop
      vertex   2.562230e+01 -1.000072e-02 1.467174e+02
      vertex   2.562230e+01 -7.152557e-07 1.467174e+02
      vertex   2.558223e+01 -7.152557e-07 1.467000e+02
    endloop
  endfacet
  facet normal -3.982530e-01 0.000000e+00 9.172756e-01
    outer loop
      vertex   2.562230e+01 -1.000072e-02 1.467174e+02
      vertex   2.558223e+01 -7.152557e-07 1.467000e+02
      vertex   2.558223e+01 -1.000072e-02 1.467000e+02
    endloop
  endfacet
  facet normal -3.073580e-01 0.000000e+00 9.515940e-01
    outer loop
      vertex   2.558223e+01 -1.000072e-02 1.467000e+02
      vertex   2.558223e+01 -7.152557e-07 1.467000e+02
      vertex   2.553879e+01 -7.152557e-07 1.466859e+02
    endloop
  endfacet
  facet normal -3.073580e-01 0.000000e+00 9.515940e-01
    outer loop
      vertex   2.558223e+01 -1.000072e-02 1.467000e+02
      vertex   2.553879e+01 -7.152557e-07 1.466859e+02
      vertex   2.553879e+01 -1.000072e-02 1.466859e+02
    endloop
  endfacet
  facet normal -1.820845e-01 0.000000e+00 9.832829e-01
    outer loop
      vertex   2.553879e+01 -1.000072e-02 1.466859e+02
      vertex   2.553879e+01 -7.152557e-07 1.466859e+02
      vertex   2.534482e+01 -7.152557e-07 1.466500e+02
    endloop
  endfacet
  facet normal -1.820845e-01 0.000000e+00 9.832829e-01
    outer loop
      vertex   2.553879e+01 -1.000072e-02 1.466859e+02
      vertex   2.534482e+01 -7.152557e-07 1.466500e+02
      vertex   2.534482e+01 -1.000072e-02 1.466500e+02
    endloop
  endfacet
  facet normal 0.000000e+00 0.000000e+00 1.000000e+00
    outer loop
      vertex   2.534482e+01 -7.152557e-07 1.466500e+02
      vertex   1.120689e+01 -7.152557e-07 1.466500e+02
      vertex   2.534482e+01 -1.000072e-02 1.466500e+02
    endloop
  endfacet
  facet normal 0.000000e+00 0.000000e+00 1.000000e+00
    outer loop
      vertex   2.534482e+01 -1.000072e-02 1.466500e+02
      vertex   1.120689e+01 -7.152557e-07 1.466500e+02
      vertex   1.120689e+01 -1.000072e-02 1.466500e+02
    endloop
  endfacet
  facet normal 1.834246e-01 0.000000e+00 9.830338e-01
    outer loop
      vertex   1.120689e+01 -7.152557e-07 1.466500e+02
      vertex   1.096712e+01 -7.152557e-07 1.466947e+02
      vertex   1.120689e+01 -1.000072e-02 1.466500e+02
    endloop
  endfacet
  facet normal 1.834246e-01 0.000000e+00 9.830338e-01
    outer loop
      vertex   1.120689e+01 -1.000072e-02 1.466500e+02
      vertex   1.096712e+01 -7.152557e-07 1.466947e+02
      vertex   1.096712e+01 -1.000072e-02 1.466947e+02
    endloop
  endfacet
  facet normal 2.955902e-01 -0.000000e+00 9.553148e-01
    outer loop
      vertex   1.096712e+01 -1.000072e-02 1.466947e+02
      vertex   1.096712e+01 -7.152557e-07 1.466947e+02
      vertex   1.085415e+01 -7.152557e-07 1.467297e+02
    endloop
  endfacet
  facet normal 2.955902e-01 0.000000e+00 9.553148e-01
    outer loop
      vertex   1.096712e+01 -1.000072e-02 1.466947e+02
      vertex   1.085415e+01 -7.152557e-07 1.467297e+02
      vertex   1.085415e+01 -1.000072e-02 1.467297e+02
    endloop
  endfacet
  facet normal 4.312060e-01 -0.000000e+00 9.022535e-01
    outer loop
      vertex   1.085415e+01 -1.000072e-02 1.467297e+02
      vertex   1.085415e+01 -7.152557e-07 1.467297e+02
      vertex   1.074948e+01 -7.152557e-07 1.467797e+02
    endloop
  endfacet
  facet normal 4.312060e-01 0.000000e+00 9.022535e-01
    outer loop
      vertex   1.085415e+01 -1.000072e-02 1.467297e+02
      vertex   1.074948e+01 -7.152557e-07 1.467797e+02
      vertex   1.074948e+01 -1.000072e-02 1.467797e+02
    endloop
  endfacet
  facet normal 5.754458e-01 -0.000000e+00 8.178399e-01
    outer loop
      vertex   1.074948e+01 -1.000072e-02 1.467797e+02
      vertex   1.074948e+01 -7.152557e-07 1.467797e+02
      vertex   1.065418e+01 -7.152557e-07 1.468468e+02
    endloop
  endfacet
  facet normal 5.754458e-01 0.000000e+00 8.178399e-01
    outer loop
      vertex   1.074948e+01 -1.000072e-02 1.467797e+02
      vertex   1.065418e+01 -7.152557e-07 1.468468e+02
      vertex   1.065418e+01 -1.000072e-02 1.468468e+02
    endloop
  endfacet
  facet normal 6.740278e-01 -0.000000e+00 7.387060e-01
    outer loop
      vertex   1.065418e+01 -1.000072e-02 1.468468e+02
      vertex   1.065418e+01 -7.152557e-07 1.468468e+02
      vertex   1.056617e+01 -7.152557e-07 1.469271e+02
    endloop
  endfacet
  facet normal 6.740278e-01 0.000000e+00 7.387060e-01
    outer loop
      vertex   1.065418e+01 -1.000072e-02 1.468468e+02
      vertex   1.056617e+01 -7.152557e-07 1.469271e+02
      vertex   1.056617e+01 -1.000072e-02 1.469271e+02
    endloop
  endfacet
  facet normal 7.444113e-01 -0.000000e+00 6.677213e-01
    outer loop
      vertex   1.056617e+01 -1.000072e-02 1.469271e+02
      vertex   1.056617e+01 -7.152557e-07 1.469271e+02
      vertex   1.040230e+01 -7.152557e-07 1.471098e+02
    endloop
  endfacet
  facet normal 7.444113e-01 0.000000e+00 6.677213e-01
    outer loop
      vertex   1.056617e+01 -1.000072e-02 1.469271e+02
      vertex   1.040230e+01 -7.152557e-07 1.471098e+02
      vertex   1.040230e+01 -1.000072e-02 1.471098e+02
    endloop
  endfacet
  facet normal 8.233133e-01 0.000000e+00 5.675871e-01
    outer loop
      vertex   1.040230e+01 -7.152557e-07 1.471098e+02
      vertex   -5.747315e-02 -7.152557e-07 1.622822e+02
      vertex   1.040230e+01 -1.000072e-02 1.471098e+02
    endloop
  endfacet
  facet normal 8.233133e-01 0.000000e+00 5.675871e-01
    outer loop
      vertex   1.040230e+01 -1.000072e-02 1.471098e+02
      vertex   -5.747315e-02 -7.152557e-07 1.622822e+02
      vertex   -5.747315e-02 -1.000072e-02 1.622822e+02
    endloop
  endfacet
  facet normal -8.233133e-01 0.000000e+00 5.675871e-01
    outer loop
      vertex   -5.747315e-02 -7.152557e-07 1.622822e+02
      vertex   -1.051724e+01 -7.152557e-07 1.471098e+02
      vertex   -5.747315e-02 -1.000072e-02 1.622822e+02
    endloop
  endfacet
  facet normal -8.233133e-01 0.000000e+00 5.675871e-01
    outer loop
      vertex   -5.747315e-02 -1.000072e-02 1.622822e+02
      vertex   -1.051724e+01 -7.152557e-07 1.471098e+02
      vertex   -1.051724e+01 -1.000072e-02 1.471098e+02
    endloop
  endfacet
  facet normal -7.444112e-01 0.000000e+00 6.677214e-01
    outer loop
      vertex   -1.051724e+01 -7.152557e-07 1.471098e+02
      vertex   -1.068111e+01 -7.152557e-07 1.469271e+02
      vertex   -1.051724e+01 -1.000072e-02 1.471098e+02
    endloop
  endfacet
  facet normal -7.444112e-01 0.000000e+00 6.677214e-01
    outer loop
      vertex   -1.051724e+01 -1.000072e-02 1.471098e+02
      vertex   -1.068111e+01 -7.152557e-07 1.469271e+02
      vertex   -1.068111e+01 -1.000072e-02 1.469271e+02
    endloop
  endfacet
  facet normal -6.740273e-01 0.000000e+00 7.387064e-01
    outer loop
      vertex   -1.068111e+01 -1.000072e-02 1.469271e+02
      vertex   -1.068111e+01 -7.152557e-07 1.469271e+02
      vertex   -1.076913e+01 -7.152557e-07 1.468468e+02
    endloop
  endfacet
  facet normal -6.740273e-01 0.000000e+00 7.387064e-01
    outer loop
      vertex   -1.068111e+01 -1.000072e-02 1.469271e+02
      vertex   -1.076913e+01 -7.152557e-07 1.468468e+02
      vertex   -1.076913e+01 -1.000072e-02 1.468468e+02
    endloop
  endfacet
  facet normal -5.754447e-01 0.000000e+00 8.178407e-01
    outer loop
      vertex   -1.076913e+01 -1.000072e-02 1.468468e+02
      vertex   -1.076913e+01 -7.152557e-07 1.468468e+02
      vertex   -1.086443e+01 -7.152557e-07 1.467797e+02
    endloop
  endfacet
  facet normal -5.754447e-01 0.000000e+00 8.178407e-01
    outer loop
      vertex   -1.076913e+01 -1.000072e-02 1.468468e+02
      vertex   -1.086443e+01 -7.152557e-07 1.467797e+02
      vertex   -1.086443e+01 -1.000072e-02 1.467797e+02
    endloop
  endfacet
  facet normal -4.312042e-01 0.000000e+00 9.022544e-01
    outer loop
      vertex   -1.086443e+01 -1.000072e-02 1.467797e+02
      vertex   -1.086443e+01 -7.152557e-07 1.467797e+02
      vertex   -1.096910e+01 -7.152557e-07 1.467297e+02
    endloop
  endfacet
  facet normal -4.312042e-01 0.000000e+00 9.022544e-01
    outer loop
      vertex   -1.086443e+01 -1.000072e-02 1.467797e+02
      vertex   -1.096910e+01 -7.152557e-07 1.467297e+02
      vertex   -1.096910e+01 -1.000072e-02 1.467297e+02
    endloop
  endfacet
  facet normal -2.955883e-01 0.000000e+00 9.553154e-01
    outer loop
      vertex   -1.096910e+01 -1.000072e-02 1.467297e+02
      vertex   -1.096910e+01 -7.152557e-07 1.467297e+02
      vertex   -1.108206e+01 -7.152557e-07 1.466947e+02
    endloop
  endfacet
  facet normal -2.955883e-01 0.000000e+00 9.553154e-01
    outer loop
      vertex   -1.096910e+01 -1.000072e-02 1.467297e+02
      vertex   -1.108206e+01 -7.152557e-07 1.466947e+02
      vertex   -1.108206e+01 -1.000072e-02 1.466947e+02
    endloop
  endfacet
  facet normal -1.834227e-01 0.000000e+00 9.830341e-01
    outer loop
      vertex   -1.108206e+01 -1.000072e-02 1.466947e+02
      vertex   -1.108206e+01 -7.152557e-07 1.466947e+02
      vertex   -1.132184e+01 -7.152557e-07 1.466500e+02
    endloop
  endfacet
  facet normal -1.834227e-01 0.000000e+00 9.830341e-01
    outer loop
      vertex   -1.108206e+01 -1.000072e-02 1.466947e+02
      vertex   -1.132184e+01 -7.152557e-07 1.466500e+02
      vertex   -1.132184e+01 -1.000072e-02 1.466500e+02
    endloop
  endfacet
  facet normal 0.000000e+00 0.000000e+00 1.000000e+00
    outer loop
      vertex   -1.132184e+01 -7.152557e-07 1.466500e+02
      vertex   -2.534483e+01 -7.152557e-07 1.466500e+02
      vertex   -1.132184e+01 -1.000072e-02 1.466500e+02
    endloop
  endfacet
  facet normal 0.000000e+00 0.000000e+00 1.000000e+00
    outer loop
      vertex   -1.132184e+01 -1.000072e-02 1.466500e+02
      vertex   -2.534483e+01 -7.152557e-07 1.466500e+02
      vertex   -2.534483e+01 -1.000072e-02 1.466500e+02
    endloop
  endfacet
  facet normal 1.820877e-01 0.000000e+00 9.832823e-01
    outer loop
      vertex   -2.534483e+01 -7.152557e-07 1.466500e+02
      vertex   -2.553879e+01 -7.152557e-07 1.466859e+02
      vertex   -2.534483e+01 -1.000072e-02 1.466500e+02
    endloop
  endfacet
  facet normal 1.820877e-01 0.000000e+00 9.832823e-01
    outer loop
      vertex   -2.534483e+01 -1.000072e-02 1.466500e+02
      vertex   -2.553879e+01 -7.152557e-07 1.466859e+02
      vertex   -2.553879e+01 -1.000072e-02 1.466859e+02
    endloop
  endfacet
  facet normal 3.073613e-01 -0.000000e+00 9.515929e-01
    outer loop
      vertex   -2.553879e+01 -1.000072e-02 1.466859e+02
      vertex   -2.553879e+01 -7.152557e-07 1.466859e+02
      vertex   -2.558223e+01 -7.152557e-07 1.467000e+02
    endloop
  endfacet
  facet normal 3.073613e-01 0.000000e+00 9.515929e-01
    outer loop
      vertex   -2.553879e+01 -1.000072e-02 1.466859e+02
      vertex   -2.558223e+01 -7.152557e-07 1.467000e+02
      vertex   -2.558223e+01 -1.000072e-02 1.467000e+02
    endloop
  endfacet
  facet normal 3.982563e-01 -0.000000e+00 9.172742e-01
    outer loop
      vertex   -2.558223e+01 -1.000072e-02 1.467000e+02
      vertex   -2.558223e+01 -7.152557e-07 1.467000e+02
      vertex   -2.562231e+01 -7.152557e-07 1.467174e+02
    endloop
  endfacet
  facet normal 3.982563e-01 0.000000e+00 9.172742e-01
    outer loop
      vertex   -2.558223e+01 -1.000072e-02 1.467000e+02
      vertex   -2.562231e+01 -7.152557e-07 1.467174e+02
      vertex   -2.562231e+01 -1.000072e-02 1.467174e+02
    endloop
  endfacet
  facet normal 5.113436e-01 -0.000000e+00 8.593764e-01
    outer loop
      vertex   -2.562231e+01 -1.000072e-02 1.467174e+02
      vertex   -2.562231e+01 -7.152557e-07 1.467174e+02
      vertex   -2.565834e+01 -7.152557e-07 1.467388e+02
    endloop
  endfacet
  facet normal 5.113436e-01 0.000000e+00 8.593764e-01
    outer loop
      vertex   -2.562231e+01 -1.000072e-02 1.467174e+02
      vertex   -2.565834e+01 -7.152557e-07 1.467388e+02
      vertex   -2.565834e+01 -1.000072e-02 1.467388e+02
    endloop
  endfacet
  facet normal 6.409977e-01 -0.000000e+00 7.675428e-01
    outer loop
      vertex   -2.565834e+01 -1.000072e-02 1.467388e+02
      vertex   -2.565834e+01 -7.152557e-07 1.467388e+02
      vertex   -2.568966e+01 -7.152557e-07 1.467649e+02
    endloop
  endfacet
  facet normal 6.409977e-01 0.000000e+00 7.675428e-01
    outer loop
      vertex   -2.565834e+01 -1.000072e-02 1.467388e+02
      vertex   -2.568966e+01 -7.152557e-07 1.467649e+02
      vertex   -2.568966e+01 -1.000072e-02 1.467649e+02
    endloop
  endfacet
  facet normal 7.675464e-01 -0.000000e+00 6.409934e-01
    outer loop
      vertex   -2.568966e+01 -1.000072e-02 1.467649e+02
      vertex   -2.568966e+01 -7.152557e-07 1.467649e+02
      vertex   -2.571581e+01 -7.152557e-07 1.467963e+02
    endloop
  endfacet
  facet normal 7.675464e-01 0.000000e+00 6.409934e-01
    outer loop
      vertex   -2.568966e+01 -1.000072e-02 1.467649e+02
      vertex   -2.571581e+01 -7.152557e-07 1.467963e+02
      vertex   -2.571581e+01 -1.000072e-02 1.467963e+02
    endloop
  endfacet
  facet normal 8.593784e-01 -0.000000e+00 5.113401e-01
    outer loop
      vertex   -2.571581e+01 -1.000072e-02 1.467963e+02
      vertex   -2.571581e+01 -7.152557e-07 1.467963e+02
      vertex   -2.573725e+01 -7.152557e-07 1.468323e+02
    endloop
  endfacet
  facet normal 8.593784e-01 0.000000e+00 5.113401e-01
    outer loop
      vertex   -2.571581e+01 -1.000072e-02 1.467963e+02
      vertex   -2.573725e+01 -7.152557e-07 1.468323e+02
      vertex   -2.573725e+01 -1.000072e-02 1.468323e+02
    endloop
  endfacet
  facet normal 9.172753e-01 -0.000000e+00 3.982538e-01
    outer loop
      vertex   -2.573725e+01 -1.000072e-02 1.468323e+02
      vertex   -2.573725e+01 -7.152557e-07 1.468323e+02
      vertex   -2.575465e+01 -7.152557e-07 1.468724e+02
    endloop
  endfacet
  facet normal 9.172753e-01 0.000000e+00 3.982538e-01
    outer loop
      vertex   -2.573725e+01 -1.000072e-02 1.468323e+02
      vertex   -2.575465e+01 -7.152557e-07 1.468724e+02
      vertex   -2.575465e+01 -1.000072e-02 1.468724e+02
    endloop
  endfacet
  facet normal 9.515934e-01 -0.000000e+00 3.073596e-01
    outer loop
      vertex   -2.575465e+01 -1.000072e-02 1.468724e+02
      vertex   -2.575465e+01 -7.152557e-07 1.468724e+02
      vertex   -2.576868e+01 -7.152557e-07 1.469158e+02
    endloop
  endfacet
  facet normal 9.515934e-01 0.000000e+00 3.073596e-01
    outer loop
      vertex   -2.575465e+01 -1.000072e-02 1.468724e+02
      vertex   -2.576868e+01 -7.152557e-07 1.469158e+02
      vertex   -2.576868e+01 -1.000072e-02 1.469158e+02
    endloop
  endfacet
  facet normal 9.832824e-01 -0.000000e+00 1.820872e-01
    outer loop
      vertex   -2.576868e+01 -1.000072e-02 1.469158e+02
      vertex   -2.576868e+01 -7.152557e-07 1.469158e+02
      vertex   -2.580460e+01 -7.152557e-07 1.471098e+02
    endloop
  endfacet
  facet normal 9.832824e-01 0.000000e+00 1.820872e-01
    outer loop
      vertex   -2.576868e+01 -1.000072e-02 1.469158e+02
      vertex   -2.580460e+01 -7.152557e-07 1.471098e+02
      vertex   -2.580460e+01 -1.000072e-02 1.471098e+02
    endloop
  endfacet
  facet normal 0.000000e+00 1.000000e+00 0.000000e+00
    outer loop
      vertex   -1.204502e+01 -1.000072e-02 1.845500e+02
      vertex   -1.201150e+01 -1.000072e-02 1.674546e+02
      vertex   -2.591359e+01 -1.000072e-02 1.845500e+02
    endloop
  endfacet
  facet normal 0.000000e+00 1.000000e+00 0.000000e+00
    outer loop
      vertex   -2.591359e+01 -1.000072e-02 1.845500e+02
      vertex   -1.201150e+01 -1.000072e-02 1.674546e+02
      vertex   -2.580460e+01 -1.000072e-02 1.471098e+02
    endloop
  endfacet
  facet normal 0.000000e+00 1.000000e+00 0.000000e+00
    outer loop
      vertex   -2.580460e+01 -1.000072e-02 1.471098e+02
      vertex   -1.201150e+01 -1.000072e-02 1.674546e+02
      vertex   -1.051724e+01 -1.000072e-02 1.471098e+02
    endloop
  endfacet
  facet normal -0.000000e+00 1.000000e+00 0.000000e+00
    outer loop
      vertex   -2.580460e+01 -1.000072e-02 1.471098e+02
      vertex   -1.051724e+01 -1.000072e-02 1.471098e+02
      vertex   -1.132184e+01 -1.000072e-02 1.466500e+02
    endloop
  endfacet
  facet normal 0.000000e+00 1.000000e+00 0.000000e+00
    outer loop
      vertex   -1.132184e+01 -1.000072e-02 1.466500e+02
      vertex   -1.051724e+01 -1.000072e-02 1.471098e+02
      vertex   -1.068111e+01 -1.000072e-02 1.469271e+02
    endloop
  endfacet
  facet normal 0.000000e+00 1.000000e+00 0.000000e+00
    outer loop
      vertex   -1.132184e+01 -1.000072e-02 1.466500e+02
      vertex   -1.068111e+01 -1.000072e-02 1.469271e+02
      vertex   -1.076913e+01 -1.000072e-02 1.468468e+02
    endloop
  endfacet
  facet normal -0.000000e+00 1.000000e+00 0.000000e+00
    outer loop
      vertex   -3.146425e-01 -1.000072e-02 1.845500e+02
      vertex   2.021690e-01 -1.000072e-02 1.845500e+02
      vertex   -1.201150e+01 -1.000072e-02 1.674546e+02
    endloop
  endfacet
  facet normal -0.000000e+00 1.000000e+00 0.000000e+00
    outer loop
      vertex   -1.201150e+01 -1.000072e-02 1.674546e+02
      vertex   2.021690e-01 -1.000072e-02 1.845500e+02
      vertex   -5.747315e-02 -1.000072e-02 1.622822e+02
    endloop
  endfacet
  facet normal 0.000000e+00 1.000000e+00 0.000000e+00
    outer loop
      vertex   -1.201150e+01 -1.000072e-02 1.674546e+02
      vertex   -5.747315e-02 -1.000072e-02 1.622822e+02
      vertex   -1.051724e+01 -1.000072e-02 1.471098e+02
    endloop
  endfacet
  facet normal 0.000000e+00 1.000000e+00 0.000000e+00
    outer loop
      vertex   2.021690e-01 -1.000072e-02 1.845500e+02
      vertex   1.201149e+01 -1.000072e-02 1.674546e+02
      vertex   -5.747315e-02 -1.000072e-02 1.622822e+02
    endloop
  endfacet
  facet normal -0.000000e+00 1.000000e+00 0.000000e+00
    outer loop
      vertex   -5.747315e-02 -1.000072e-02 1.622822e+02
      vertex   1.201149e+01 -1.000072e-02 1.674546e+02
      vertex   1.040230e+01 -1.000072e-02 1.471098e+02
    endloop
  endfacet
  facet normal 0.000000e+00 1.000000e+00 0.000000e+00
    outer loop
      vertex   1.040230e+01 -1.000072e-02 1.471098e+02
      vertex   1.201149e+01 -1.000072e-02 1.674546e+02
      vertex   2.580459e+01 -1.000072e-02 1.471098e+02
    endloop
  endfacet
  facet normal -0.000000e+00 1.000000e+00 0.000000e+00
    outer loop
      vertex   1.040230e+01 -1.000072e-02 1.471098e+02
      vertex   2.580459e+01 -1.000072e-02 1.471098e+02
      vertex   1.120689e+01 -1.000072e-02 1.466500e+02
    endloop
  endfacet
  facet normal 0.000000e+00 1.000000e+00 0.000000e+00
    outer loop
      vertex   1.120689e+01 -1.000072e-02 1.466500e+02
      vertex   2.580459e+01 -1.000072e-02 1.471098e+02
      vertex   2.534482e+01 -1.000072e-02 1.466500e+02
    endloop
  endfacet
  facet normal 0.000000e+00 1.000000e+00 0.000000e+00
    outer loop
      vertex   2.534482e+01 -1.000072e-02 1.466500e+02
      vertex   2.580459e+01 -1.000072e-02 1.471098e+02
      vertex   2.576867e+01 -1.000072e-02 1.469158e+02
    endloop
  endfacet
  facet normal 0.000000e+00 1.000000e+00 0.000000e+00
    outer loop
      vertex   2.534482e+01 -1.000072e-02 1.466500e+02
      vertex   2.576867e+01 -1.000072e-02 1.469158e+02
      vertex   2.575464e+01 -1.000072e-02 1.468724e+02
    endloop
  endfacet
  facet normal -0.000000e+00 1.000000e+00 0.000000e+00
    outer loop
      vertex   1.204501e+01 -1.000072e-02 1.845500e+02
      vertex   2.591359e+01 -1.000072e-02 1.845500e+02
      vertex   1.201149e+01 -1.000072e-02 1.674546e+02
    endloop
  endfacet
  facet normal -0.000000e+00 1.000000e+00 0.000000e+00
    outer loop
      vertex   1.201149e+01 -1.000072e-02 1.674546e+02
      vertex   2.591359e+01 -1.000072e-02 1.845500e+02
      vertex   2.580459e+01 -1.000072e-02 1.471098e+02
    endloop
  endfacet
  facet normal 0.000000e+00 1.000000e+00 0.000000e+00
    outer loop
      vertex   2.534482e+01 -1.000072e-02 1.466500e+02
      vertex   2.575464e+01 -1.000072e-02 1.468724e+02
      vertex   2.553879e+01 -1.000072e-02 1.466859e+02
    endloop
  endfacet
  facet normal 0.000000e+00 1.000000e+00 0.000000e+00
    outer loop
      vertex   2.553879e+01 -1.000072e-02 1.466859e+02
      vertex   2.575464e+01 -1.000072e-02 1.468724e+02
      vertex   2.573725e+01 -1.000072e-02 1.468323e+02
    endloop
  endfacet
  facet normal 0.000000e+00 1.000000e+00 0.000000e+00
    outer loop
      vertex   2.553879e+01 -1.000072e-02 1.466859e+02
      vertex   2.573725e+01 -1.000072e-02 1.468323e+02
      vertex   2.558223e+01 -1.000072e-02 1.467000e+02
    endloop
  endfacet
  facet normal 0.000000e+00 1.000000e+00 0.000000e+00
    outer loop
      vertex   2.558223e+01 -1.000072e-02 1.467000e+02
      vertex   2.573725e+01 -1.000072e-02 1.468323e+02
      vertex   2.562230e+01 -1.000072e-02 1.467174e+02
    endloop
  endfacet
  facet normal 0.000000e+00 1.000000e+00 0.000000e+00
    outer loop
      vertex   2.562230e+01 -1.000072e-02 1.467174e+02
      vertex   2.573725e+01 -1.000072e-02 1.468323e+02
      vertex   2.571581e+01 -1.000072e-02 1.467963e+02
    endloop
  endfacet
  facet normal 0.000000e+00 1.000000e+00 0.000000e+00
    outer loop
      vertex   2.562230e+01 -1.000072e-02 1.467174e+02
      vertex   2.571581e+01 -1.000072e-02 1.467963e+02
      vertex   2.565833e+01 -1.000072e-02 1.467388e+02
    endloop
  endfacet
  facet normal 0.000000e+00 1.000000e+00 0.000000e+00
    outer loop
      vertex   2.565833e+01 -1.000072e-02 1.467388e+02
      vertex   2.571581e+01 -1.000072e-02 1.467963e+02
      vertex   2.568965e+01 -1.000072e-02 1.467649e+02
    endloop
  endfacet
  facet normal -0.000000e+00 1.000000e+00 -0.000000e+00
    outer loop
      vertex   1.096712e+01 -1.000072e-02 1.466947e+02
      vertex   1.065418e+01 -1.000072e-02 1.468468e+02
      vertex   1.120689e+01 -1.000072e-02 1.466500e+02
    endloop
  endfacet
  facet normal 0.000000e+00 1.000000e+00 0.000000e+00
    outer loop
      vertex   1.120689e+01 -1.000072e-02 1.466500e+02
      vertex   1.065418e+01 -1.000072e-02 1.468468e+02
      vertex   1.056617e+01 -1.000072e-02 1.469271e+02
    endloop
  endfacet
  facet normal 0.000000e+00 1.000000e+00 0.000000e+00
    outer loop
      vertex   1.120689e+01 -1.000072e-02 1.466500e+02
      vertex   1.056617e+01 -1.000072e-02 1.469271e+02
      vertex   1.040230e+01 -1.000072e-02 1.471098e+02
    endloop
  endfacet
  facet normal 0.000000e+00 1.000000e+00 0.000000e+00
    outer loop
      vertex   1.096712e+01 -1.000072e-02 1.466947e+02
      vertex   1.085415e+01 -1.000072e-02 1.467297e+02
      vertex   1.065418e+01 -1.000072e-02 1.468468e+02
    endloop
  endfacet
  facet normal 0.000000e+00 1.000000e+00 0.000000e+00
    outer loop
      vertex   1.065418e+01 -1.000072e-02 1.468468e+02
      vertex   1.085415e+01 -1.000072e-02 1.467297e+02
      vertex   1.074948e+01 -1.000072e-02 1.467797e+02
    endloop
  endfacet
  facet normal 0.000000e+00 1.000000e+00 -0.000000e+00
    outer loop
      vertex   -1.086443e+01 -1.000072e-02 1.467797e+02
      vertex   -1.096910e+01 -1.000072e-02 1.467297e+02
      vertex   -1.076913e+01 -1.000072e-02 1.468468e+02
    endloop
  endfacet
  facet normal 0.000000e+00 1.000000e+00 0.000000e+00
    outer loop
      vertex   -1.076913e+01 -1.000072e-02 1.468468e+02
      vertex   -1.096910e+01 -1.000072e-02 1.467297e+02
      vertex   -1.108206e+01 -1.000072e-02 1.466947e+02
    endloop
  endfacet
  facet normal 0.000000e+00 1.000000e+00 0.000000e+00
    outer loop
      vertex   -1.076913e+01 -1.000072e-02 1.468468e+02
      vertex   -1.108206e+01 -1.000072e-02 1.466947e+02
      vertex   -1.132184e+01 -1.000072e-02 1.466500e+02
    endloop
  endfacet
  facet normal 0.000000e+00 1.000000e+00 0.000000e+00
    outer loop
      vertex   -1.132184e+01 -1.000072e-02 1.466500e+02
      vertex   -2.534483e+01 -1.000072e-02 1.466500e+02
      vertex   -2.580460e+01 -1.000072e-02 1.471098e+02
    endloop
  endfacet
  facet normal 0.000000e+00 1.000000e+00 0.000000e+00
    outer loop
      vertex   -2.580460e+01 -1.000072e-02 1.471098e+02
      vertex   -2.534483e+01 -1.000072e-02 1.466500e+02
      vertex   -2.576868e+01 -1.000072e-02 1.469158e+02
    endloop
  endfacet
  facet normal 0.000000e+00 1.000000e+00 0.000000e+00
    outer loop
      vertex   -2.576868e+01 -1.000072e-02 1.469158e+02
      vertex   -2.534483e+01 -1.000072e-02 1.466500e+02
      vertex   -2.575465e+01 -1.000072e-02 1.468724e+02
    endloop
  endfacet
  facet normal 0.000000e+00 1.000000e+00 0.000000e+00
    outer loop
      vertex   -2.575465e+01 -1.000072e-02 1.468724e+02
      vertex   -2.534483e+01 -1.000072e-02 1.466500e+02
      vertex   -2.553879e+01 -1.000072e-02 1.466859e+02
    endloop
  endfacet
  facet normal 0.000000e+00 1.000000e+00 0.000000e+00
    outer loop
      vertex   -2.575465e+01 -1.000072e-02 1.468724e+02
      vertex   -2.553879e+01 -1.000072e-02 1.466859e+02
      vertex   -2.573725e+01 -1.000072e-02 1.468323e+02
    endloop
  endfacet
  facet normal 0.000000e+00 1.000000e+00 0.000000e+00
    outer loop
      vertex   -2.573725e+01 -1.000072e-02 1.468323e+02
      vertex   -2.553879e+01 -1.000072e-02 1.466859e+02
      vertex   -2.558223e+01 -1.000072e-02 1.467000e+02
    endloop
  endfacet
  facet normal 0.000000e+00 1.000000e+00 0.000000e+00
    outer loop
      vertex   -2.573725e+01 -1.000072e-02 1.468323e+02
      vertex   -2.558223e+01 -1.000072e-02 1.467000e+02
      vertex   -2.562231e+01 -1.000072e-02 1.467174e+02
    endloop
  endfacet
  facet normal 0.000000e+00 1.000000e+00 0.000000e+00
    outer loop
      vertex   -2.573725e+01 -1.000072e-02 1.468323e+02
      vertex   -2.562231e+01 -1.000072e-02 1.467174e+02
      vertex   -2.571581e+01 -1.000072e-02 1.467963e+02
    endloop
  endfacet
  facet normal 0.000000e+00 1.000000e+00 0.000000e+00
    outer loop
      vertex   -2.571581e+01 -1.000072e-02 1.467963e+02
      vertex   -2.562231e+01 -1.000072e-02 1.467174e+02
      vertex   -2.565834e+01 -1.000072e-02 1.467388e+02
    endloop
  endfacet
  facet normal 0.000000e+00 1.000000e+00 0.000000e+00
    outer loop
      vertex   -2.571581e+01 -1.000072e-02 1.467963e+02
      vertex   -2.565834e+01 -1.000072e-02 1.467388e+02
      vertex   -2.568966e+01 -1.000072e-02 1.467649e+02
    endloop
  endfacet
  facet normal 0.000000e+00 1.000000e+00 4.058924e-18
    outer loop
      vertex   1.201149e+01 -7.152557e-07 1.674546e+02
      vertex   2.021690e-01 -7.152557e-07 1.845500e+02
      vertex   1.204501e+01 -7.152557e-07 1.845500e+02
    endloop
  endfacet
  facet normal 0.000000e+00 1.000000e+00 4.058924e-18
    outer loop
      vertex   -1.201150e+01 -7.152557e-07 1.674546e+02
      vertex   -1.204502e+01 -7.152557e-07 1.845500e+02
      vertex   -3.146425e-01 -7.152557e-07 1.845500e+02
    endloop
  endfacet
  facet normal 1.857104e-17 1.000000e+00 -4.239032e-16
    outer loop
      vertex   -2.965000e+01 -7.152557e-07 1.845500e+02
      vertex   -2.591359e+01 -7.152557e-07 1.845500e+02
      vertex   -2.715000e+01 -7.152557e-07 1.833500e+02
    endloop
  endfacet
  facet normal -3.935371e-16 1.000000e+00 7.076548e-19
    outer loop
      vertex   -2.715000e+01 -7.152557e-07 1.833500e+02
      vertex   -2.591359e+01 -7.152557e-07 1.845500e+02
      vertex   -2.580460e+01 -7.152557e-07 1.471098e+02
    endloop
  endfacet
  facet normal 1.203906e-15 1.000000e+00 6.001206e-17
    outer loop
      vertex   -2.715000e+01 -7.152557e-07 1.833500e+02
      vertex   -2.580460e+01 -7.152557e-07 1.471098e+02
      vertex   -2.715000e+01 -7.152557e-07 1.278500e+02
    endloop
  endfacet
  facet normal 5.650581e-16 1.000000e+00 1.046392e-16
    outer loop
      vertex   -2.715000e+01 -7.152557e-07 1.278500e+02
      vertex   -2.580460e+01 -7.152557e-07 1.471098e+02
      vertex   -2.576868e+01 -7.152557e-07 1.469158e+02
    endloop
  endfacet
  facet normal 3.681366e-16 1.000000e+00 1.189062e-16
    outer loop
      vertex   -2.715000e+01 -7.152557e-07 1.278500e+02
      vertex   -2.576868e+01 -7.152557e-07 1.469158e+02
      vertex   -2.575465e+01 -7.152557e-07 1.468724e+02
    endloop
  endfacet
  facet normal 2.874944e-16 1.000000e+00 1.248216e-16
    outer loop
      vertex   -2.575465e+01 -7.152557e-07 1.468724e+02
      vertex   -2.573725e+01 -7.152557e-07 1.468323e+02
      vertex   -2.715000e+01 -7.152557e-07 1.278500e+02
    endloop
  endfacet
  facet normal 2.184200e-16 1.000000e+00 1.299624e-16
    outer loop
      vertex   -2.715000e+01 -7.152557e-07 1.278500e+02
      vertex   -2.573725e+01 -7.152557e-07 1.468323e+02
      vertex   -2.571581e+01 -7.152557e-07 1.467963e+02
    endloop
  endfacet
  facet normal 1.608404e-16 1.000000e+00 1.343211e-16
    outer loop
      vertex   -2.715000e+01 -7.152557e-07 1.278500e+02
      vertex   -2.571581e+01 -7.152557e-07 1.467963e+02
      vertex   -2.568966e+01 -7.152557e-07 1.467649e+02
    endloop
  endfacet
  facet normal 1.151232e-16 1.000000e+00 1.378507e-16
    outer loop
      vertex   -2.568966e+01 -7.152557e-07 1.467649e+02
      vertex   -2.565834e+01 -7.152557e-07 1.467388e+02
      vertex   -2.715000e+01 -7.152557e-07 1.278500e+02
    endloop
  endfacet
  facet normal 8.350903e-17 1.000000e+00 1.403473e-16
    outer loop
      vertex   -2.715000e+01 -7.152557e-07 1.278500e+02
      vertex   -2.565834e+01 -7.152557e-07 1.467388e+02
      vertex   -2.562231e+01 -7.152557e-07 1.467174e+02
    endloop
  endfacet
  facet normal 6.170174e-17 1.000000e+00 1.421130e-16
    outer loop
      vertex   -2.715000e+01 -7.152557e-07 1.278500e+02
      vertex   -2.562231e+01 -7.152557e-07 1.467174e+02
      vertex   -2.558223e+01 -7.152557e-07 1.467000e+02
    endloop
  endfacet
  facet normal 4.631537e-17 1.000000e+00 1.433927e-16
    outer loop
      vertex   -2.558223e+01 -7.152557e-07 1.467000e+02
      vertex   -2.553879e+01 -7.152557e-07 1.466859e+02
      vertex   -2.715000e+01 -7.152557e-07 1.278500e+02
    endloop
  endfacet
  facet normal 2.686212e-17 1.000000e+00 1.450567e-16
    outer loop
      vertex   -2.715000e+01 -7.152557e-07 1.278500e+02
      vertex   -2.553879e+01 -7.152557e-07 1.466859e+02
      vertex   -2.534483e+01 -7.152557e-07 1.466500e+02
    endloop
  endfacet
  facet normal 0.000000e+00 1.000000e+00 1.476360e-16
    outer loop
      vertex   -2.715000e+01 -7.152557e-07 1.278500e+02
      vertex   -2.534483e+01 -7.152557e-07 1.466500e+02
      vertex   -1.132184e+01 -7.152557e-07 1.466500e+02
    endloop
  endfacet
  facet normal -3.268115e-17 1.000000e+00 1.751511e-16
    outer loop
      vertex   -1.132184e+01 -7.152557e-07 1.466500e+02
      vertex   -1.108206e+01 -7.152557e-07 1.466947e+02
      vertex   -2.715000e+01 -7.152557e-07 1.278500e+02
    endloop
  endfacet
  facet normal -6.190382e-17 1.000000e+00 2.000677e-16
    outer loop
      vertex   -2.715000e+01 -7.152557e-07 1.278500e+02
      vertex   -1.108206e+01 -7.152557e-07 1.466947e+02
      vertex   -1.096910e+01 -7.152557e-07 1.467297e+02
    endloop
  endfacet
  facet normal -3.251258e-24 1.000000e+00 1.470129e-16
    outer loop
      vertex   -2.715000e+01 -7.152557e-07 1.278500e+02
      vertex   -1.096910e+01 -7.152557e-07 1.467297e+02
      vertex   1.085415e+01 -7.152557e-07 1.467297e+02
    endloop
  endfacet
  facet normal 0.000000e+00 1.000000e+00 0.000000e+00
    outer loop
      vertex   1.085415e+01 -7.152557e-07 1.467297e+02
      vertex   -1.096910e+01 -7.152557e-07 1.467297e+02
      vertex   -1.086443e+01 -7.152557e-07 1.467797e+02
    endloop
  endfacet
  facet normal 0.000000e+00 1.000000e+00 0.000000e+00
    outer loop
      vertex   1.085415e+01 -7.152557e-07 1.467297e+02
      vertex   -1.086443e+01 -7.152557e-07 1.467797e+02
      vertex   1.074948e+01 -7.152557e-07 1.467797e+02
    endloop
  endfacet
  facet normal 0.000000e+00 1.000000e+00 0.000000e+00
    outer loop
      vertex   1.074948e+01 -7.152557e-07 1.467797e+02
      vertex   -1.086443e+01 -7.152557e-07 1.467797e+02
      vertex   1.065418e+01 -7.152557e-07 1.468468e+02
    endloop
  endfacet
  facet normal 0.000000e+00 1.000000e+00 0.000000e+00
    outer loop
      vertex   1.065418e+01 -7.152557e-07 1.468468e+02
      vertex   -1.086443e+01 -7.152557e-07 1.467797e+02
      vertex   -1.076913e+01 -7.152557e-07 1.468468e+02
    endloop
  endfacet
  facet normal 0.000000e+00 1.000000e+00 0.000000e+00
    outer loop
      vertex   1.065418e+01 -7.152557e-07 1.468468e+02
      vertex   -1.076913e+01 -7.152557e-07 1.468468e+02
      vertex   1.056617e+01 -7.152557e-07 1.469271e+02
    endloop
  endfacet
  facet normal 0.000000e+00 1.000000e+00 0.000000e+00
    outer loop
      vertex   1.056617e+01 -7.152557e-07 1.469271e+02
      vertex   -1.076913e+01 -7.152557e-07 1.468468e+02
      vertex   -1.068111e+01 -7.152557e-07 1.469271e+02
    endloop
  endfacet
  facet normal 0.000000e+00 1.000000e+00 0.000000e+00
    outer loop
      vertex   1.056617e+01 -7.152557e-07 1.469271e+02
      vertex   -1.068111e+01 -7.152557e-07 1.469271e+02
      vertex   1.040230e+01 -7.152557e-07 1.471098e+02
    endloop
  endfacet
  facet normal 0.000000e+00 1.000000e+00 0.000000e+00
    outer loop
      vertex   1.040230e+01 -7.152557e-07 1.471098e+02
      vertex   -1.068111e+01 -7.152557e-07 1.469271e+02
      vertex   -1.051724e+01 -7.152557e-07 1.471098e+02
    endloop
  endfacet
  facet normal 0.000000e+00 1.000000e+00 0.000000e+00
    outer loop
      vertex   1.040230e+01 -7.152557e-07 1.471098e+02
      vertex   -1.051724e+01 -7.152557e-07 1.471098e+02
      vertex   -5.747315e-02 -7.152557e-07 1.622822e+02
    endloop
  endfacet
  facet normal -5.878253e-17 1.000000e+00 2.653400e-16
    outer loop
      vertex   -2.715000e+01 -7.152557e-07 1.278500e+02
      vertex   1.085415e+01 -7.152557e-07 1.467297e+02
      vertex   2.715000e+01 -7.152557e-07 1.278500e+02
    endloop
  endfacet
  facet normal 1.334366e-16 1.000000e+00 4.312523e-16
    outer loop
      vertex   2.715000e+01 -7.152557e-07 1.278500e+02
      vertex   1.085415e+01 -7.152557e-07 1.467297e+02
      vertex   1.096712e+01 -7.152557e-07 1.466947e+02
    endloop
  endfacet
  facet normal 7.036060e-17 1.000000e+00 3.770859e-16
    outer loop
      vertex   2.715000e+01 -7.152557e-07 1.278500e+02
      vertex   1.096712e+01 -7.152557e-07 1.466947e+02
      vertex   1.120689e+01 -7.152557e-07 1.466500e+02
    endloop
  endfacet
  facet normal -0.000000e+00 1.000000e+00 3.174175e-16
    outer loop
      vertex   1.120689e+01 -7.152557e-07 1.466500e+02
      vertex   2.534482e+01 -7.152557e-07 1.466500e+02
      vertex   2.715000e+01 -7.152557e-07 1.278500e+02
    endloop
  endfacet
  facet normal -5.775252e-17 1.000000e+00 3.118721e-16
    outer loop
      vertex   2.715000e+01 -7.152557e-07 1.278500e+02
      vertex   2.534482e+01 -7.152557e-07 1.466500e+02
      vertex   2.553879e+01 -7.152557e-07 1.466859e+02
    endloop
  endfacet
  facet normal -9.957688e-17 1.000000e+00 3.082944e-16
    outer loop
      vertex   2.715000e+01 -7.152557e-07 1.278500e+02
      vertex   2.553879e+01 -7.152557e-07 1.466859e+02
      vertex   2.558223e+01 -7.152557e-07 1.467000e+02
    endloop
  endfacet
  facet normal -1.326575e-16 1.000000e+00 3.055431e-16
    outer loop
      vertex   2.558223e+01 -7.152557e-07 1.467000e+02
      vertex   2.562230e+01 -7.152557e-07 1.467174e+02
      vertex   2.715000e+01 -7.152557e-07 1.278500e+02
    endloop
  endfacet
  facet normal -1.795402e-16 1.000000e+00 3.017470e-16
    outer loop
      vertex   2.715000e+01 -7.152557e-07 1.278500e+02
      vertex   2.562230e+01 -7.152557e-07 1.467174e+02
      vertex   2.565833e+01 -7.152557e-07 1.467388e+02
    endloop
  endfacet
  facet normal -2.475164e-16 1.000000e+00 2.963788e-16
    outer loop
      vertex   2.715000e+01 -7.152557e-07 1.278500e+02
      vertex   2.565833e+01 -7.152557e-07 1.467388e+02
      vertex   2.568965e+01 -7.152557e-07 1.467649e+02
    endloop
  endfacet
  facet normal -3.458017e-16 1.000000e+00 2.887906e-16
    outer loop
      vertex   2.568965e+01 -7.152557e-07 1.467649e+02
      vertex   2.571581e+01 -7.152557e-07 1.467963e+02
      vertex   2.715000e+01 -7.152557e-07 1.278500e+02
    endloop
  endfacet
  facet normal -4.696068e-16 1.000000e+00 2.794188e-16
    outer loop
      vertex   2.715000e+01 -7.152557e-07 1.278500e+02
      vertex   2.571581e+01 -7.152557e-07 1.467963e+02
      vertex   2.573725e+01 -7.152557e-07 1.468323e+02
    endloop
  endfacet
  facet normal -6.181139e-16 1.000000e+00 2.683662e-16
    outer loop
      vertex   2.715000e+01 -7.152557e-07 1.278500e+02
      vertex   2.573725e+01 -7.152557e-07 1.468323e+02
      vertex   2.575464e+01 -7.152557e-07 1.468724e+02
    endloop
  endfacet
  facet normal -7.914973e-16 1.000000e+00 2.556479e-16
    outer loop
      vertex   2.575464e+01 -7.152557e-07 1.468724e+02
      vertex   2.576867e+01 -7.152557e-07 1.469158e+02
      vertex   2.715000e+01 -7.152557e-07 1.278500e+02
    endloop
  endfacet
  facet normal -1.214888e-15 1.000000e+00 2.249731e-16
    outer loop
      vertex   2.715000e+01 -7.152557e-07 1.278500e+02
      vertex   2.576867e+01 -7.152557e-07 1.469158e+02
      vertex   2.580459e+01 -7.152557e-07 1.471098e+02
    endloop
  endfacet
  facet normal -4.435425e-15 1.000000e+00 -1.419621e-30
    outer loop
      vertex   2.715000e+01 -7.152557e-07 1.278500e+02
      vertex   2.580459e+01 -7.152557e-07 1.471098e+02
      vertex   2.715000e+01 -7.152557e-07 1.833500e+02
    endloop
  endfacet
  facet normal -4.867008e-15 1.000000e+00 1.602238e-17
    outer loop
      vertex   2.715000e+01 -7.152557e-07 1.833500e+02
      vertex   2.580459e+01 -7.152557e-07 1.471098e+02
      vertex   2.591359e+01 -7.152557e-07 1.845500e+02
    endloop
  endfacet
  facet normal -1.764247e-15 1.000000e+00 3.212922e-15
    outer loop
      vertex   2.715000e+01 -7.152557e-07 1.833500e+02
      vertex   2.591359e+01 -7.152557e-07 1.845500e+02
      vertex   2.965000e+01 -7.152557e-07 1.845500e+02
    endloop
  endfacet
  facet normal -2.220446e-16 1.000000e+00 0.000000e+00
    outer loop
      vertex   2.965000e+01 -7.152557e-07 1.845500e+02
      vertex   2.965000e+01 -7.152557e-07 1.833500e+02
      vertex   2.715000e+01 -7.152557e-07 1.833500e+02
    endloop
  endfacet
  facet normal 2.220446e-16 1.000000e+00 0.000000e+00
    outer loop
      vertex   -2.715000e+01 -7.152557e-07 1.833500e+02
      vertex   -2.965000e+01 -7.152557e-07 1.833500e+02
      vertex   -2.965000e+01 -7.152557e-07 1.845500e+02
    endloop
  endfacet
  facet normal -1.513958e-01 0.000000e+00 9.884732e-01
    outer loop
      vertex   1.850575e+01 -1.000001e+00 1.466500e+02
      vertex   1.863034e+01 -1.000001e+00 1.466691e+02
      vertex   1.850575e+01 -9.900007e-01 1.466500e+02
    endloop
  endfacet
  facet normal -1.513958e-01 0.000000e+00 9.884732e-01
    outer loop
      vertex   1.850575e+01 -9.900007e-01 1.466500e+02
      vertex   1.863034e+01 -1.000001e+00 1.466691e+02
      vertex   1.863034e+01 -9.900007e-01 1.466691e+02
    endloop
  endfacet
  facet normal -2.139817e-01 0.000000e+00 9.768377e-01
    outer loop
      vertex   1.863034e+01 -9.900007e-01 1.466691e+02
      vertex   1.863034e+01 -1.000001e+00 1.466691e+02
      vertex   1.874820e+01 -1.000001e+00 1.466949e+02
    endloop
  endfacet
  facet normal -2.139817e-01 0.000000e+00 9.768377e-01
    outer loop
      vertex   1.863034e+01 -9.900007e-01 1.466691e+02
      vertex   1.874820e+01 -1.000001e+00 1.466949e+02
      vertex   1.874820e+01 -9.900007e-01 1.466949e+02
    endloop
  endfacet
  facet normal -3.073684e-01 0.000000e+00 9.515906e-01
    outer loop
      vertex   1.874820e+01 -9.900007e-01 1.466949e+02
      vertex   1.874820e+01 -1.000001e+00 1.466949e+02
      vertex   1.880250e+01 -1.000001e+00 1.467124e+02
    endloop
  endfacet
  facet normal -3.073684e-01 0.000000e+00 9.515906e-01
    outer loop
      vertex   1.874820e+01 -9.900007e-01 1.466949e+02
      vertex   1.880250e+01 -1.000001e+00 1.467124e+02
      vertex   1.880250e+01 -9.900007e-01 1.467124e+02
    endloop
  endfacet
  facet normal -3.982615e-01 0.000000e+00 9.172719e-01
    outer loop
      vertex   1.880250e+01 -9.900007e-01 1.467124e+02
      vertex   1.880250e+01 -1.000001e+00 1.467124e+02
      vertex   1.885259e+01 -1.000001e+00 1.467342e+02
    endloop
  endfacet
  facet normal -3.982615e-01 0.000000e+00 9.172719e-01
    outer loop
      vertex   1.880250e+01 -9.900007e-01 1.467124e+02
      vertex   1.885259e+01 -1.000001e+00 1.467342e+02
      vertex   1.885259e+01 -9.900007e-01 1.467342e+02
    endloop
  endfacet
  facet normal -5.113461e-01 0.000000e+00 8.593749e-01
    outer loop
      vertex   1.885259e+01 -9.900007e-01 1.467342e+02
      vertex   1.885259e+01 -1.000001e+00 1.467342e+02
      vertex   1.889763e+01 -1.000001e+00 1.467610e+02
    endloop
  endfacet
  facet normal -5.113461e-01 0.000000e+00 8.593749e-01
    outer loop
      vertex   1.885259e+01 -9.900007e-01 1.467342e+02
      vertex   1.889763e+01 -1.000001e+00 1.467610e+02
      vertex   1.889763e+01 -9.900007e-01 1.467610e+02
    endloop
  endfacet
  facet normal -6.409970e-01 0.000000e+00 7.675434e-01
    outer loop
      vertex   1.889763e+01 -9.900007e-01 1.467610e+02
      vertex   1.889763e+01 -1.000001e+00 1.467610e+02
      vertex   1.893678e+01 -1.000001e+00 1.467937e+02
    endloop
  endfacet
  facet normal -6.409970e-01 0.000000e+00 7.675434e-01
    outer loop
      vertex   1.889763e+01 -9.900007e-01 1.467610e+02
      vertex   1.893678e+01 -1.000001e+00 1.467937e+02
      vertex   1.893678e+01 -9.900007e-01 1.467937e+02
    endloop
  endfacet
  facet normal -7.675434e-01 0.000000e+00 6.409970e-01
    outer loop
      vertex   1.893678e+01 -9.900007e-01 1.467937e+02
      vertex   1.893678e+01 -1.000001e+00 1.467937e+02
      vertex   1.896947e+01 -1.000001e+00 1.468328e+02
    endloop
  endfacet
  facet normal -7.675434e-01 0.000000e+00 6.409970e-01
    outer loop
      vertex   1.893678e+01 -9.900007e-01 1.467937e+02
      vertex   1.896947e+01 -1.000001e+00 1.468328e+02
      vertex   1.896947e+01 -9.900007e-01 1.468328e+02
    endloop
  endfacet
  facet normal -8.593749e-01 0.000000e+00 5.113461e-01
    outer loop
      vertex   1.896947e+01 -9.900007e-01 1.468328e+02
      vertex   1.896947e+01 -1.000001e+00 1.468328e+02
      vertex   1.899627e+01 -1.000001e+00 1.468779e+02
    endloop
  endfacet
  facet normal -8.593749e-01 0.000000e+00 5.113461e-01
    outer loop
      vertex   1.896947e+01 -9.900007e-01 1.468328e+02
      vertex   1.899627e+01 -1.000001e+00 1.468779e+02
      vertex   1.899627e+01 -9.900007e-01 1.468779e+02
    endloop
  endfacet
  facet normal -9.172719e-01 0.000000e+00 3.982615e-01
    outer loop
      vertex   1.899627e+01 -9.900007e-01 1.468779e+02
      vertex   1.899627e+01 -1.000001e+00 1.468779e+02
      vertex   1.901802e+01 -1.000001e+00 1.469280e+02
    endloop
  endfacet
  facet normal -9.172719e-01 0.000000e+00 3.982615e-01
    outer loop
      vertex   1.899627e+01 -9.900007e-01 1.468779e+02
      vertex   1.901802e+01 -1.000001e+00 1.469280e+02
      vertex   1.901802e+01 -9.900007e-01 1.469280e+02
    endloop
  endfacet
  facet normal -9.515906e-01 0.000000e+00 3.073684e-01
    outer loop
      vertex   1.901802e+01 -9.900007e-01 1.469280e+02
      vertex   1.901802e+01 -1.000001e+00 1.469280e+02
      vertex   1.903556e+01 -1.000001e+00 1.469823e+02
    endloop
  endfacet
  facet normal -9.515906e-01 0.000000e+00 3.073684e-01
    outer loop
      vertex   1.901802e+01 -9.900007e-01 1.469280e+02
      vertex   1.903556e+01 -1.000001e+00 1.469823e+02
      vertex   1.903556e+01 -9.900007e-01 1.469823e+02
    endloop
  endfacet
  facet normal -9.768377e-01 0.000000e+00 2.139817e-01
    outer loop
      vertex   1.903556e+01 -9.900007e-01 1.469823e+02
      vertex   1.903556e+01 -1.000001e+00 1.469823e+02
      vertex   1.906138e+01 -1.000001e+00 1.471001e+02
    endloop
  endfacet
  facet normal -9.768377e-01 0.000000e+00 2.139817e-01
    outer loop
      vertex   1.903556e+01 -9.900007e-01 1.469823e+02
      vertex   1.906138e+01 -1.000001e+00 1.471001e+02
      vertex   1.906138e+01 -9.900007e-01 1.471001e+02
    endloop
  endfacet
  facet normal -9.884732e-01 0.000000e+00 1.513958e-01
    outer loop
      vertex   1.906138e+01 -9.900007e-01 1.471001e+02
      vertex   1.906138e+01 -1.000001e+00 1.471001e+02
      vertex   1.908046e+01 -1.000001e+00 1.472247e+02
    endloop
  endfacet
  facet normal -9.884732e-01 0.000000e+00 1.513958e-01
    outer loop
      vertex   1.906138e+01 -9.900007e-01 1.471001e+02
      vertex   1.908046e+01 -1.000001e+00 1.472247e+02
      vertex   1.908046e+01 -9.900007e-01 1.472247e+02
    endloop
  endfacet
  facet normal -1.000000e+00 0.000000e+00 0.000000e+00
    outer loop
      vertex   1.908046e+01 -1.000001e+00 1.472247e+02
      vertex   1.908046e+01 -1.000001e+00 1.602132e+02
      vertex   1.908046e+01 -9.900007e-01 1.472247e+02
    endloop
  endfacet
  facet normal -1.000000e+00 0.000000e+00 0.000000e+00
    outer loop
      vertex   1.908046e+01 -9.900007e-01 1.472247e+02
      vertex   1.908046e+01 -1.000001e+00 1.602132e+02
      vertex   1.908046e+01 -9.900007e-01 1.602132e+02
    endloop
  endfacet
  facet normal -9.884746e-01 0.000000e+00 -1.513869e-01
    outer loop
      vertex   1.908046e+01 -1.000001e+00 1.602132e+02
      vertex   1.906138e+01 -1.000001e+00 1.603378e+02
      vertex   1.908046e+01 -9.900007e-01 1.602132e+02
    endloop
  endfacet
  facet normal -9.884746e-01 0.000000e+00 -1.513869e-01
    outer loop
      vertex   1.908046e+01 -9.900007e-01 1.602132e+02
      vertex   1.906138e+01 -1.000001e+00 1.603378e+02
      vertex   1.906138e+01 -9.900007e-01 1.603378e+02
    endloop
  endfacet
  facet normal -9.768397e-01 -0.000000e+00 -2.139723e-01
    outer loop
      vertex   1.906138e+01 -9.900007e-01 1.603378e+02
      vertex   1.906138e+01 -1.000001e+00 1.603378e+02
      vertex   1.903556e+01 -1.000001e+00 1.604557e+02
    endloop
  endfacet
  facet normal -9.768397e-01 0.000000e+00 -2.139723e-01
    outer loop
      vertex   1.906138e+01 -9.900007e-01 1.603378e+02
      vertex   1.903556e+01 -1.000001e+00 1.604557e+02
      vertex   1.903556e+01 -9.900007e-01 1.604557e+02
    endloop
  endfacet
  facet normal -9.515938e-01 -0.000000e+00 -3.073584e-01
    outer loop
      vertex   1.903556e+01 -9.900007e-01 1.604557e+02
      vertex   1.903556e+01 -1.000001e+00 1.604557e+02
      vertex   1.901802e+01 -1.000001e+00 1.605100e+02
    endloop
  endfacet
  facet normal -9.515938e-01 0.000000e+00 -3.073584e-01
    outer loop
      vertex   1.903556e+01 -9.900007e-01 1.604557e+02
      vertex   1.901802e+01 -1.000001e+00 1.605100e+02
      vertex   1.901802e+01 -9.900007e-01 1.605100e+02
    endloop
  endfacet
  facet normal -9.172765e-01 -0.000000e+00 -3.982511e-01
    outer loop
      vertex   1.901802e+01 -9.900007e-01 1.605100e+02
      vertex   1.901802e+01 -1.000001e+00 1.605100e+02
      vertex   1.899627e+01 -1.000001e+00 1.605601e+02
    endloop
  endfacet
  facet normal -9.172765e-01 0.000000e+00 -3.982511e-01
    outer loop
      vertex   1.901802e+01 -9.900007e-01 1.605100e+02
      vertex   1.899627e+01 -1.000001e+00 1.605601e+02
      vertex   1.899627e+01 -9.900007e-01 1.605601e+02
    endloop
  endfacet
  facet normal -8.593812e-01 -0.000000e+00 -5.113355e-01
    outer loop
      vertex   1.899627e+01 -9.900007e-01 1.605601e+02
      vertex   1.899627e+01 -1.000001e+00 1.605601e+02
      vertex   1.896947e+01 -1.000001e+00 1.606051e+02
    endloop
  endfacet
  facet normal -8.593812e-01 0.000000e+00 -5.113355e-01
    outer loop
      vertex   1.899627e+01 -9.900007e-01 1.605601e+02
      vertex   1.896947e+01 -1.000001e+00 1.606051e+02
      vertex   1.896947e+01 -9.900007e-01 1.606051e+02
    endloop
  endfacet
  facet normal -7.675518e-01 -0.000000e+00 -6.409869e-01
    outer loop
      vertex   1.896947e+01 -9.900007e-01 1.606051e+02
      vertex   1.896947e+01 -1.000001e+00 1.606051e+02
      vertex   1.893678e+01 -1.000001e+00 1.606443e+02
    endloop
  endfacet
  facet normal -7.675518e-01 0.000000e+00 -6.409869e-01
    outer loop
      vertex   1.896947e+01 -9.900007e-01 1.606051e+02
      vertex   1.893678e+01 -1.000001e+00 1.606443e+02
      vertex   1.893678e+01 -9.900007e-01 1.606443e+02
    endloop
  endfacet
  facet normal -6.410058e-01 -0.000000e+00 -7.675360e-01
    outer loop
      vertex   1.893678e+01 -9.900007e-01 1.606443e+02
      vertex   1.893678e+01 -1.000001e+00 1.606443e+02
      vertex   1.889764e+01 -1.000001e+00 1.606769e+02
    endloop
  endfacet
  facet normal -6.410058e-01 0.000000e+00 -7.675360e-01
    outer loop
      vertex   1.893678e+01 -9.900007e-01 1.606443e+02
      vertex   1.889764e+01 -1.000001e+00 1.606769e+02
      vertex   1.889764e+01 -9.900007e-01 1.606769e+02
    endloop
  endfacet
  facet normal -5.113532e-01 -0.000000e+00 -8.593706e-01
    outer loop
      vertex   1.889764e+01 -9.900007e-01 1.606769e+02
      vertex   1.889764e+01 -1.000001e+00 1.606769e+02
      vertex   1.885260e+01 -1.000001e+00 1.607037e+02
    endloop
  endfacet
  facet normal -5.113532e-01 0.000000e+00 -8.593706e-01
    outer loop
      vertex   1.889764e+01 -9.900007e-01 1.606769e+02
      vertex   1.885260e+01 -1.000001e+00 1.607037e+02
      vertex   1.885260e+01 -9.900007e-01 1.607037e+02
    endloop
  endfacet
  facet normal -3.982667e-01 -0.000000e+00 -9.172697e-01
    outer loop
      vertex   1.885260e+01 -9.900007e-01 1.607037e+02
      vertex   1.885260e+01 -1.000001e+00 1.607037e+02
      vertex   1.880251e+01 -1.000001e+00 1.607255e+02
    endloop
  endfacet
  facet normal -3.982667e-01 0.000000e+00 -9.172697e-01
    outer loop
      vertex   1.885260e+01 -9.900007e-01 1.607037e+02
      vertex   1.880251e+01 -1.000001e+00 1.607255e+02
      vertex   1.880251e+01 -9.900007e-01 1.607255e+02
    endloop
  endfacet
  facet normal -3.073720e-01 -0.000000e+00 -9.515894e-01
    outer loop
      vertex   1.880251e+01 -9.900007e-01 1.607255e+02
      vertex   1.880251e+01 -1.000001e+00 1.607255e+02
      vertex   1.874820e+01 -1.000001e+00 1.607430e+02
    endloop
  endfacet
  facet normal -3.073720e-01 0.000000e+00 -9.515894e-01
    outer loop
      vertex   1.880251e+01 -9.900007e-01 1.607255e+02
      vertex   1.874820e+01 -1.000001e+00 1.607430e+02
      vertex   1.874820e+01 -9.900007e-01 1.607430e+02
    endloop
  endfacet
  facet normal -2.139837e-01 -0.000000e+00 -9.768372e-01
    outer loop
      vertex   1.874820e+01 -9.900007e-01 1.607430e+02
      vertex   1.874820e+01 -1.000001e+00 1.607430e+02
      vertex   1.863034e+01 -1.000001e+00 1.607689e+02
    endloop
  endfacet
  facet normal -2.139837e-01 0.000000e+00 -9.768372e-01
    outer loop
      vertex   1.874820e+01 -9.900007e-01 1.607430e+02
      vertex   1.863034e+01 -1.000001e+00 1.607689e+02
      vertex   1.863034e+01 -9.900007e-01 1.607689e+02
    endloop
  endfacet
  facet normal -1.513969e-01 -0.000000e+00 -9.884731e-01
    outer loop
      vertex   1.863034e+01 -9.900007e-01 1.607689e+02
      vertex   1.863034e+01 -1.000001e+00 1.607689e+02
      vertex   1.850575e+01 -1.000001e+00 1.607879e+02
    endloop
  endfacet
  facet normal -1.513969e-01 0.000000e+00 -9.884731e-01
    outer loop
      vertex   1.863034e+01 -9.900007e-01 1.607689e+02
      vertex   1.850575e+01 -1.000001e+00 1.607879e+02
      vertex   1.850575e+01 -9.900007e-01 1.607879e+02
    endloop
  endfacet
  facet normal 0.000000e+00 0.000000e+00 -1.000000e+00
    outer loop
      vertex   1.850575e+01 -1.000001e+00 1.607879e+02
      vertex   -5.172415e+00 -1.000001e+00 1.607879e+02
      vertex   1.850575e+01 -9.900007e-01 1.607879e+02
    endloop
  endfacet
  facet normal -0.000000e+00 0.000000e+00 -1.000000e+00
    outer loop
      vertex   1.850575e+01 -9.900007e-01 1.607879e+02
      vertex   -5.172415e+00 -1.000001e+00 1.607879e+02
      vertex   -5.172415e+00 -9.900007e-01 1.607879e+02
    endloop
  endfacet
  facet normal -9.999985e-01 0.000000e+00 1.760547e-03
    outer loop
      vertex   -5.130580e+00 -9.900007e-01 1.845500e+02
      vertex   -5.172415e+00 -9.900007e-01 1.607879e+02
      vertex   -5.130580e+00 -1.000001e+00 1.845500e+02
    endloop
  endfacet
  facet normal -9.999985e-01 0.000000e+00 1.760547e-03
    outer loop
      vertex   -5.130580e+00 -1.000001e+00 1.845500e+02
      vertex   -5.172415e+00 -9.900007e-01 1.607879e+02
      vertex   -5.172415e+00 -1.000001e+00 1.607879e+02
    endloop
  endfacet
  facet normal 9.999989e-01 0.000000e+00 -1.457728e-03
    outer loop
      vertex   -1.902605e+01 -1.000001e+00 1.845500e+02
      vertex   -1.908046e+01 -1.000001e+00 1.472247e+02
      vertex   -1.902605e+01 -9.900007e-01 1.845500e+02
    endloop
  endfacet
  facet normal 9.999989e-01 0.000000e+00 -1.457728e-03
    outer loop
      vertex   -1.902605e+01 -9.900007e-01 1.845500e+02
      vertex   -1.908046e+01 -1.000001e+00 1.472247e+02
      vertex   -1.908046e+01 -9.900007e-01 1.472247e+02
    endloop
  endfacet
  facet normal 9.945107e-01 -0.000000e+00 1.046354e-01
    outer loop
      vertex   -1.908046e+01 -1.000001e+00 1.472247e+02
      vertex   -1.905694e+01 -1.000001e+00 1.470011e+02
      vertex   -1.908046e+01 -9.900007e-01 1.472247e+02
    endloop
  endfacet
  facet normal 9.945107e-01 0.000000e+00 1.046354e-01
    outer loop
      vertex   -1.908046e+01 -9.900007e-01 1.472247e+02
      vertex   -1.905694e+01 -1.000001e+00 1.470011e+02
      vertex   -1.905694e+01 -9.900007e-01 1.470011e+02
    endloop
  endfacet
  facet normal 9.661081e-01 0.000000e+00 2.581380e-01
    outer loop
      vertex   -1.905694e+01 -9.900007e-01 1.470011e+02
      vertex   -1.905694e+01 -1.000001e+00 1.470011e+02
      vertex   -1.903050e+01 -1.000001e+00 1.469022e+02
    endloop
  endfacet
  facet normal 9.661081e-01 0.000000e+00 2.581380e-01
    outer loop
      vertex   -1.905694e+01 -9.900007e-01 1.470011e+02
      vertex   -1.903050e+01 -1.000001e+00 1.469022e+02
      vertex   -1.903050e+01 -9.900007e-01 1.469022e+02
    endloop
  endfacet
  facet normal 9.146415e-01 0.000000e+00 4.042659e-01
    outer loop
      vertex   -1.903050e+01 -9.900007e-01 1.469022e+02
      vertex   -1.903050e+01 -1.000001e+00 1.469022e+02
      vertex   -1.901104e+01 -1.000001e+00 1.468581e+02
    endloop
  endfacet
  facet normal 9.146415e-01 0.000000e+00 4.042659e-01
    outer loop
      vertex   -1.903050e+01 -9.900007e-01 1.469022e+02
      vertex   -1.901104e+01 -1.000001e+00 1.468581e+02
      vertex   -1.901104e+01 -9.900007e-01 1.468581e+02
    endloop
  endfacet
  facet normal 8.490827e-01 0.000000e+00 5.282600e-01
    outer loop
      vertex   -1.901104e+01 -9.900007e-01 1.468581e+02
      vertex   -1.901104e+01 -1.000001e+00 1.468581e+02
      vertex   -1.898644e+01 -1.000001e+00 1.468186e+02
    endloop
  endfacet
  facet normal 8.490827e-01 0.000000e+00 5.282600e-01
    outer loop
      vertex   -1.901104e+01 -9.900007e-01 1.468581e+02
      vertex   -1.898644e+01 -1.000001e+00 1.468186e+02
      vertex   -1.898644e+01 -9.900007e-01 1.468186e+02
    endloop
  endfacet
  facet normal 7.777183e-01 0.000000e+00 6.286130e-01
    outer loop
      vertex   -1.898644e+01 -9.900007e-01 1.468186e+02
      vertex   -1.898644e+01 -1.000001e+00 1.468186e+02
      vertex   -1.897198e+01 -1.000001e+00 1.468007e+02
    endloop
  endfacet
  facet normal 7.777183e-01 0.000000e+00 6.286130e-01
    outer loop
      vertex   -1.898644e+01 -9.900007e-01 1.468186e+02
      vertex   -1.897198e+01 -1.000001e+00 1.468007e+02
      vertex   -1.897198e+01 -9.900007e-01 1.468007e+02
    endloop
  endfacet
  facet normal 7.182779e-01 0.000000e+00 6.957564e-01
    outer loop
      vertex   -1.897198e+01 -9.900007e-01 1.468007e+02
      vertex   -1.897198e+01 -1.000001e+00 1.468007e+02
      vertex   -1.895598e+01 -1.000001e+00 1.467842e+02
    endloop
  endfacet
  facet normal 7.182779e-01 0.000000e+00 6.957564e-01
    outer loop
      vertex   -1.897198e+01 -9.900007e-01 1.468007e+02
      vertex   -1.895598e+01 -1.000001e+00 1.467842e+02
      vertex   -1.895598e+01 -9.900007e-01 1.467842e+02
    endloop
  endfacet
  facet normal 6.237494e-01 0.000000e+00 7.816244e-01
    outer loop
      vertex   -1.895598e+01 -9.900007e-01 1.467842e+02
      vertex   -1.895598e+01 -1.000001e+00 1.467842e+02
      vertex   -1.891947e+01 -1.000001e+00 1.467551e+02
    endloop
  endfacet
  facet normal 6.237494e-01 0.000000e+00 7.816244e-01
    outer loop
      vertex   -1.895598e+01 -9.900007e-01 1.467842e+02
      vertex   -1.891947e+01 -1.000001e+00 1.467551e+02
      vertex   -1.891947e+01 -9.900007e-01 1.467551e+02
    endloop
  endfacet
  facet normal 5.065207e-01 0.000000e+00 8.622278e-01
    outer loop
      vertex   -1.891947e+01 -9.900007e-01 1.467551e+02
      vertex   -1.891947e+01 -1.000001e+00 1.467551e+02
      vertex   -1.887771e+01 -1.000001e+00 1.467305e+02
    endloop
  endfacet
  facet normal 5.065207e-01 0.000000e+00 8.622278e-01
    outer loop
      vertex   -1.891947e+01 -9.900007e-01 1.467551e+02
      vertex   -1.887771e+01 -1.000001e+00 1.467305e+02
      vertex   -1.887771e+01 -9.900007e-01 1.467305e+02
    endloop
  endfacet
  facet normal 4.093406e-01 0.000000e+00 9.123817e-01
    outer loop
      vertex   -1.887771e+01 -9.900007e-01 1.467305e+02
      vertex   -1.887771e+01 -1.000001e+00 1.467305e+02
      vertex   -1.883157e+01 -1.000001e+00 1.467098e+02
    endloop
  endfacet
  facet normal 4.093406e-01 0.000000e+00 9.123817e-01
    outer loop
      vertex   -1.887771e+01 -9.900007e-01 1.467305e+02
      vertex   -1.883157e+01 -1.000001e+00 1.467098e+02
      vertex   -1.883157e+01 -9.900007e-01 1.467098e+02
    endloop
  endfacet
  facet normal 3.078264e-01 0.000000e+00 9.514425e-01
    outer loop
      vertex   -1.883157e+01 -9.900007e-01 1.467098e+02
      vertex   -1.883157e+01 -1.000001e+00 1.467098e+02
      vertex   -1.872963e+01 -1.000001e+00 1.466768e+02
    endloop
  endfacet
  facet normal 3.078264e-01 0.000000e+00 9.514425e-01
    outer loop
      vertex   -1.883157e+01 -9.900007e-01 1.467098e+02
      vertex   -1.872963e+01 -1.000001e+00 1.466768e+02
      vertex   -1.872963e+01 -9.900007e-01 1.466768e+02
    endloop
  endfacet
  facet normal 2.392938e-01 0.000000e+00 9.709472e-01
    outer loop
      vertex   -1.872963e+01 -9.900007e-01 1.466768e+02
      vertex   -1.872963e+01 -1.000001e+00 1.466768e+02
      vertex   -1.862069e+01 -1.000001e+00 1.466500e+02
    endloop
  endfacet
  facet normal 2.392938e-01 0.000000e+00 9.709472e-01
    outer loop
      vertex   -1.872963e+01 -9.900007e-01 1.466768e+02
      vertex   -1.862069e+01 -1.000001e+00 1.466500e+02
      vertex   -1.862069e+01 -9.900007e-01 1.466500e+02
    endloop
  endfacet
  facet normal 0.000000e+00 0.000000e+00 1.000000e+00
    outer loop
      vertex   -1.862069e+01 -1.000001e+00 1.466500e+02
      vertex   1.850575e+01 -1.000001e+00 1.466500e+02
      vertex   -1.862069e+01 -9.900007e-01 1.466500e+02
    endloop
  endfacet
  facet normal -0.000000e+00 0.000000e+00 1.000000e+00
    outer loop
      vertex   -1.862069e+01 -9.900007e-01 1.466500e+02
      vertex   1.850575e+01 -1.000001e+00 1.466500e+02
      vertex   1.850575e+01 -9.900007e-01 1.466500e+02
    endloop
  endfacet
  facet normal -0.000000e+00 -1.000000e+00 0.000000e+00
    outer loop
      vertex   -5.130580e+00 -9.900007e-01 1.845500e+02
      vertex   -1.902605e+01 -9.900007e-01 1.845500e+02
      vertex   -5.172415e+00 -9.900007e-01 1.607879e+02
    endloop
  endfacet
  facet normal -0.000000e+00 -1.000000e+00 0.000000e+00
    outer loop
      vertex   -5.172415e+00 -9.900007e-01 1.607879e+02
      vertex   -1.902605e+01 -9.900007e-01 1.845500e+02
      vertex   -1.908046e+01 -9.900007e-01 1.472247e+02
    endloop
  endfacet
  facet normal 0.000000e+00 -1.000000e+00 0.000000e+00
    outer loop
      vertex   -5.172415e+00 -9.900007e-01 1.607879e+02
      vertex   -1.908046e+01 -9.900007e-01 1.472247e+02
      vertex   -1.862069e+01 -9.900007e-01 1.466500e+02
    endloop
  endfacet
  facet normal 0.000000e+00 -1.000000e+00 0.000000e+00
    outer loop
      vertex   -1.862069e+01 -9.900007e-01 1.466500e+02
      vertex   -1.908046e+01 -9.900007e-01 1.472247e+02
      vertex   -1.872963e+01 -9.900007e-01 1.466768e+02
    endloop
  endfacet
  facet normal 0.000000e+00 -1.000000e+00 0.000000e+00
    outer loop
      vertex   -1.872963e+01 -9.900007e-01 1.466768e+02
      vertex   -1.908046e+01 -9.900007e-01 1.472247e+02
      vertex   -1.905694e+01 -9.900007e-01 1.470011e+02
    endloop
  endfacet
  facet normal -1.617340e-15 -1.000000e+00 -1.632422e-15
    outer loop
      vertex   -1.872963e+01 -9.900007e-01 1.466768e+02
      vertex   -1.905694e+01 -9.900007e-01 1.470011e+02
      vertex   -1.883157e+01 -9.900007e-01 1.467098e+02
    endloop
  endfacet
  facet normal -1.462548e-15 -1.000000e+00 -1.512663e-15
    outer loop
      vertex   -1.883157e+01 -9.900007e-01 1.467098e+02
      vertex   -1.905694e+01 -9.900007e-01 1.470011e+02
      vertex   -1.903050e+01 -9.900007e-01 1.469022e+02
    endloop
  endfacet
  facet normal 4.488932e-15 -1.000000e+00 4.642747e-15
    outer loop
      vertex   -1.883157e+01 -9.900007e-01 1.467098e+02
      vertex   -1.903050e+01 -9.900007e-01 1.469022e+02
      vertex   -1.887771e+01 -9.900007e-01 1.467305e+02
    endloop
  endfacet
  facet normal 6.369003e-15 -1.000000e+00 6.316327e-15
    outer loop
      vertex   -1.887771e+01 -9.900007e-01 1.467305e+02
      vertex   -1.903050e+01 -9.900007e-01 1.469022e+02
      vertex   -1.891947e+01 -9.900007e-01 1.467551e+02
    endloop
  endfacet
  facet normal -4.618614e-15 -1.000000e+00 -1.976367e-15
    outer loop
      vertex   -1.891947e+01 -9.900007e-01 1.467551e+02
      vertex   -1.903050e+01 -9.900007e-01 1.469022e+02
      vertex   -1.895598e+01 -9.900007e-01 1.467842e+02
    endloop
  endfacet
  facet normal -5.701583e-14 -1.000000e+00 -3.507418e-14
    outer loop
      vertex   -1.895598e+01 -9.900007e-01 1.467842e+02
      vertex   -1.903050e+01 -9.900007e-01 1.469022e+02
      vertex   -1.897198e+01 -9.900007e-01 1.468007e+02
    endloop
  endfacet
  facet normal 7.099459e-14 -1.000000e+00 3.875927e-14
    outer loop
      vertex   -1.897198e+01 -9.900007e-01 1.468007e+02
      vertex   -1.903050e+01 -9.900007e-01 1.469022e+02
      vertex   -1.898644e+01 -9.900007e-01 1.468186e+02
    endloop
  endfacet
  facet normal 1.399686e-14 -1.000000e+00 8.708197e-15
    outer loop
      vertex   -1.898644e+01 -9.900007e-01 1.468186e+02
      vertex   -1.903050e+01 -9.900007e-01 1.469022e+02
      vertex   -1.901104e+01 -9.900007e-01 1.468581e+02
    endloop
  endfacet
  facet normal 0.000000e+00 -1.000000e+00 0.000000e+00
    outer loop
      vertex   1.850575e+01 -9.900007e-01 1.466500e+02
      vertex   1.863034e+01 -9.900007e-01 1.466691e+02
      vertex   -1.862069e+01 -9.900007e-01 1.466500e+02
    endloop
  endfacet
  facet normal 0.000000e+00 -1.000000e+00 0.000000e+00
    outer loop
      vertex   -1.862069e+01 -9.900007e-01 1.466500e+02
      vertex   1.863034e+01 -9.900007e-01 1.466691e+02
      vertex   -5.172415e+00 -9.900007e-01 1.607879e+02
    endloop
  endfacet
  facet normal 1.314583e-15 -1.000000e+00 -1.700941e-15
    outer loop
      vertex   1.874820e+01 -9.900007e-01 1.466949e+02
      vertex   1.903556e+01 -9.900007e-01 1.469823e+02
      vertex   1.863034e+01 -9.900007e-01 1.466691e+02
    endloop
  endfacet
  facet normal 0.000000e+00 -1.000000e+00 0.000000e+00
    outer loop
      vertex   1.863034e+01 -9.900007e-01 1.466691e+02
      vertex   1.903556e+01 -9.900007e-01 1.469823e+02
      vertex   1.906138e+01 -9.900007e-01 1.471001e+02
    endloop
  endfacet
  facet normal 0.000000e+00 -1.000000e+00 0.000000e+00
    outer loop
      vertex   1.863034e+01 -9.900007e-01 1.466691e+02
      vertex   1.906138e+01 -9.900007e-01 1.471001e+02
      vertex   1.908046e+01 -9.900007e-01 1.472247e+02
    endloop
  endfacet
  facet normal -3.590822e-15 -1.000000e+00 3.204465e-15
    outer loop
      vertex   1.903556e+01 -9.900007e-01 1.469823e+02
      vertex   1.874820e+01 -9.900007e-01 1.466949e+02
      vertex   1.901802e+01 -9.900007e-01 1.469280e+02
    endloop
  endfacet
  facet normal -2.774344e-15 -1.000000e+00 2.259201e-15
    outer loop
      vertex   1.901802e+01 -9.900007e-01 1.469280e+02
      vertex   1.874820e+01 -9.900007e-01 1.466949e+02
      vertex   1.880250e+01 -9.900007e-01 1.467124e+02
    endloop
  endfacet
  facet normal 3.006757e-15 -1.000000e+00 -3.521901e-15
    outer loop
      vertex   1.901802e+01 -9.900007e-01 1.469280e+02
      vertex   1.880250e+01 -9.900007e-01 1.467124e+02
      vertex   1.899627e+01 -9.900007e-01 1.468779e+02
    endloop
  endfacet
  facet normal 0.000000e+00 -1.000000e+00 0.000000e+00
    outer loop
      vertex   1.899627e+01 -9.900007e-01 1.468779e+02
      vertex   1.880250e+01 -9.900007e-01 1.467124e+02
      vertex   1.885259e+01 -9.900007e-01 1.467342e+02
    endloop
  endfacet
  facet normal 0.000000e+00 -1.000000e+00 0.000000e+00
    outer loop
      vertex   1.899627e+01 -9.900007e-01 1.468779e+02
      vertex   1.885259e+01 -9.900007e-01 1.467342e+02
      vertex   1.896947e+01 -9.900007e-01 1.468328e+02
    endloop
  endfacet
  facet normal 0.000000e+00 -1.000000e+00 0.000000e+00
    outer loop
      vertex   1.896947e+01 -9.900007e-01 1.468328e+02
      vertex   1.885259e+01 -9.900007e-01 1.467342e+02
      vertex   1.889763e+01 -9.900007e-01 1.467610e+02
    endloop
  endfacet
  facet normal 0.000000e+00 -1.000000e+00 0.000000e+00
    outer loop
      vertex   1.896947e+01 -9.900007e-01 1.468328e+02
      vertex   1.889763e+01 -9.900007e-01 1.467610e+02
      vertex   1.893678e+01 -9.900007e-01 1.467937e+02
    endloop
  endfacet
  facet normal -0.000000e+00 -1.000000e+00 0.000000e+00
    outer loop
      vertex   1.908046e+01 -9.900007e-01 1.472247e+02
      vertex   1.908046e+01 -9.900007e-01 1.602132e+02
      vertex   1.863034e+01 -9.900007e-01 1.466691e+02
    endloop
  endfacet
  facet normal 2.369324e-16 -1.000000e+00 -7.874072e-18
    outer loop
      vertex   1.863034e+01 -9.900007e-01 1.466691e+02
      vertex   1.908046e+01 -9.900007e-01 1.602132e+02
      vertex   1.863034e+01 -9.900007e-01 1.607689e+02
    endloop
  endfacet
  facet normal -4.670575e-18 -1.000000e+00 -7.874051e-18
    outer loop
      vertex   1.863034e+01 -9.900007e-01 1.466691e+02
      vertex   1.863034e+01 -9.900007e-01 1.607689e+02
      vertex   -5.172415e+00 -9.900007e-01 1.607879e+02
    endloop
  endfacet
  facet normal 0.000000e+00 -1.000000e+00 5.817724e-15
    outer loop
      vertex   -5.172415e+00 -9.900007e-01 1.607879e+02
      vertex   1.863034e+01 -9.900007e-01 1.607689e+02
      vertex   1.850575e+01 -9.900007e-01 1.607879e+02
    endloop
  endfacet
  facet normal 1.660531e-15 -1.000000e+00 1.145366e-15
    outer loop
      vertex   1.908046e+01 -9.900007e-01 1.602132e+02
      vertex   1.906138e+01 -9.900007e-01 1.603378e+02
      vertex   1.863034e+01 -9.900007e-01 1.607689e+02
    endloop
  endfacet
  facet normal -5.465676e-16 -1.000000e+00 -1.061692e-15
    outer loop
      vertex   1.863034e+01 -9.900007e-01 1.607689e+02
      vertex   1.906138e+01 -9.900007e-01 1.603378e+02
      vertex   1.903556e+01 -9.900007e-01 1.604557e+02
    endloop
  endfacet
  facet normal 1.206195e-15 -1.000000e+00 1.206171e-15
    outer loop
      vertex   1.863034e+01 -9.900007e-01 1.607689e+02
      vertex   1.903556e+01 -9.900007e-01 1.604557e+02
      vertex   1.874820e+01 -9.900007e-01 1.607430e+02
    endloop
  endfacet
  facet normal 0.000000e+00 -1.000000e+00 0.000000e+00
    outer loop
      vertex   1.874820e+01 -9.900007e-01 1.607430e+02
      vertex   1.903556e+01 -9.900007e-01 1.604557e+02
      vertex   1.901802e+01 -9.900007e-01 1.605100e+02
    endloop
  endfacet
  facet normal -3.265875e-15 -1.000000e+00 -3.780938e-15
    outer loop
      vertex   1.874820e+01 -9.900007e-01 1.607430e+02
      vertex   1.901802e+01 -9.900007e-01 1.605100e+02
      vertex   1.880251e+01 -9.900007e-01 1.607255e+02
    endloop
  endfacet
  facet normal 4.827620e-15 -1.000000e+00 4.312382e-15
    outer loop
      vertex   1.880251e+01 -9.900007e-01 1.607255e+02
      vertex   1.901802e+01 -9.900007e-01 1.605100e+02
      vertex   1.899627e+01 -9.900007e-01 1.605601e+02
    endloop
  endfacet
  facet normal 3.324218e-15 -1.000000e+00 2.551441e-15
    outer loop
      vertex   1.880251e+01 -9.900007e-01 1.607255e+02
      vertex   1.899627e+01 -9.900007e-01 1.605601e+02
      vertex   1.885260e+01 -9.900007e-01 1.607037e+02
    endloop
  endfacet
  facet normal -4.178677e-15 -1.000000e+00 -4.951280e-15
    outer loop
      vertex   1.885260e+01 -9.900007e-01 1.607037e+02
      vertex   1.899627e+01 -9.900007e-01 1.605601e+02
      vertex   1.896947e+01 -9.900007e-01 1.606051e+02
    endloop
  endfacet
  facet normal 0.000000e+00 -1.000000e+00 0.000000e+00
    outer loop
      vertex   1.885260e+01 -9.900007e-01 1.607037e+02
      vertex   1.896947e+01 -9.900007e-01 1.606051e+02
      vertex   1.889764e+01 -9.900007e-01 1.606769e+02
    endloop
  endfacet
  facet normal 0.000000e+00 -1.000000e+00 0.000000e+00
    outer loop
      vertex   1.889764e+01 -9.900007e-01 1.606769e+02
      vertex   1.896947e+01 -9.900007e-01 1.606051e+02
      vertex   1.893678e+01 -9.900007e-01 1.606443e+02
    endloop
  endfacet
  facet normal 0.000000e+00 -1.000000e+00 0.000000e+00
    outer loop
      vertex   -5.172415e+00 -1.000001e+00 1.607879e+02
      vertex   1.850575e+01 -1.000001e+00 1.607879e+02
      vertex   -5.130580e+00 -1.000001e+00 1.845500e+02
    endloop
  endfacet
  facet normal -9.999779e-17 -1.000000e+00 -9.946865e-17
    outer loop
      vertex   -5.130580e+00 -1.000001e+00 1.845500e+02
      vertex   1.850575e+01 -1.000001e+00 1.607879e+02
      vertex   2.715000e+01 -1.000001e+00 1.833500e+02
    endloop
  endfacet
  facet normal -7.022570e-17 -1.000000e+00 7.014151e-16
    outer loop
      vertex   -5.130580e+00 -1.000001e+00 1.845500e+02
      vertex   2.715000e+01 -1.000001e+00 1.833500e+02
      vertex   2.965000e+01 -1.000001e+00 1.845500e+02
    endloop
  endfacet
  facet normal 2.664535e-16 -1.000000e+00 0.000000e+00
    outer loop
      vertex   2.965000e+01 -1.000001e+00 1.845500e+02
      vertex   2.715000e+01 -1.000001e+00 1.833500e+02
      vertex   2.965000e+01 -1.000001e+00 1.833500e+02
    endloop
  endfacet
  facet normal -1.703266e-15 -1.000000e+00 5.147948e-16
    outer loop
      vertex   1.850575e+01 -1.000001e+00 1.607879e+02
      vertex   1.863034e+01 -1.000001e+00 1.607689e+02
      vertex   2.715000e+01 -1.000001e+00 1.833500e+02
    endloop
  endfacet
  facet normal 1.714265e-15 -1.000000e+00 -7.746076e-16
    outer loop
      vertex   2.715000e+01 -1.000001e+00 1.833500e+02
      vertex   1.863034e+01 -1.000001e+00 1.607689e+02
      vertex   1.874820e+01 -1.000001e+00 1.607430e+02
    endloop
  endfacet
  facet normal -3.690576e-15 -1.000000e+00 1.234081e-15
    outer loop
      vertex   2.715000e+01 -1.000001e+00 1.833500e+02
      vertex   1.874820e+01 -1.000001e+00 1.607430e+02
      vertex   1.880251e+01 -1.000001e+00 1.607255e+02
    endloop
  endfacet
  facet normal 3.773009e-15 -1.000000e+00 -1.519669e-15
    outer loop
      vertex   1.880251e+01 -1.000001e+00 1.607255e+02
      vertex   1.885260e+01 -1.000001e+00 1.607037e+02
      vertex   2.715000e+01 -1.000001e+00 1.833500e+02
    endloop
  endfacet
  facet normal -6.705941e-17 -1.000000e+00 -1.126988e-16
    outer loop
      vertex   2.715000e+01 -1.000001e+00 1.833500e+02
      vertex   1.885260e+01 -1.000001e+00 1.607037e+02
      vertex   1.889764e+01 -1.000001e+00 1.606769e+02
    endloop
  endfacet
  facet normal -4.437708e-15 -1.000000e+00 1.478096e-15
    outer loop
      vertex   2.715000e+01 -1.000001e+00 1.833500e+02
      vertex   1.889764e+01 -1.000001e+00 1.606769e+02
      vertex   1.893678e+01 -1.000001e+00 1.606443e+02
    endloop
  endfacet
  facet normal 4.632973e-15 -1.000000e+00 -1.802988e-15
    outer loop
      vertex   1.893678e+01 -1.000001e+00 1.606443e+02
      vertex   1.896947e+01 -1.000001e+00 1.606051e+02
      vertex   2.715000e+01 -1.000001e+00 1.833500e+02
    endloop
  endfacet
  facet normal 5.020827e-15 -1.000000e+00 -1.942485e-15
    outer loop
      vertex   2.715000e+01 -1.000001e+00 1.833500e+02
      vertex   1.896947e+01 -1.000001e+00 1.606051e+02
      vertex   1.899627e+01 -1.000001e+00 1.605601e+02
    endloop
  endfacet
  facet normal -5.781877e-15 -1.000000e+00 1.922479e-15
    outer loop
      vertex   2.715000e+01 -1.000001e+00 1.833500e+02
      vertex   1.899627e+01 -1.000001e+00 1.605601e+02
      vertex   1.901802e+01 -1.000001e+00 1.605100e+02
    endloop
  endfacet
  facet normal -6.222465e-15 -1.000000e+00 2.079346e-15
    outer loop
      vertex   1.901802e+01 -1.000001e+00 1.605100e+02
      vertex   1.903556e+01 -1.000001e+00 1.604557e+02
      vertex   2.715000e+01 -1.000001e+00 1.833500e+02
    endloop
  endfacet
  facet normal 3.065266e-15 -1.000000e+00 -1.212505e-15
    outer loop
      vertex   2.715000e+01 -1.000001e+00 1.833500e+02
      vertex   1.903556e+01 -1.000001e+00 1.604557e+02
      vertex   1.906138e+01 -1.000001e+00 1.603378e+02
    endloop
  endfacet
  facet normal -2.676852e-16 -1.000000e+00 -4.099654e-17
    outer loop
      vertex   2.715000e+01 -1.000001e+00 1.833500e+02
      vertex   1.906138e+01 -1.000001e+00 1.603378e+02
      vertex   1.908046e+01 -1.000001e+00 1.602132e+02
    endloop
  endfacet
  facet normal -3.852295e-16 -1.000000e+00 -1.232982e-31
    outer loop
      vertex   2.715000e+01 -1.000001e+00 1.833500e+02
      vertex   1.908046e+01 -1.000001e+00 1.602132e+02
      vertex   2.715000e+01 -1.000001e+00 1.278500e+02
    endloop
  endfacet
  facet normal -3.852295e-16 -1.000000e+00 0.000000e+00
    outer loop
      vertex   2.715000e+01 -1.000001e+00 1.278500e+02
      vertex   1.908046e+01 -1.000001e+00 1.602132e+02
      vertex   1.908046e+01 -1.000001e+00 1.472247e+02
    endloop
  endfacet
  facet normal -2.816550e-16 -1.000000e+00 4.313863e-17
    outer loop
      vertex   2.715000e+01 -1.000001e+00 1.278500e+02
      vertex   1.908046e+01 -1.000001e+00 1.472247e+02
      vertex   1.906138e+01 -1.000001e+00 1.471001e+02
    endloop
  endfacet
  facet normal -2.526214e-16 -1.000000e+00 5.533811e-17
    outer loop
      vertex   1.906138e+01 -1.000001e+00 1.471001e+02
      vertex   1.903556e+01 -1.000001e+00 1.469823e+02
      vertex   2.715000e+01 -1.000001e+00 1.278500e+02
    endloop
  endfacet
  facet normal -2.174737e-16 -1.000000e+00 7.024507e-17
    outer loop
      vertex   2.715000e+01 -1.000001e+00 1.278500e+02
      vertex   1.903556e+01 -1.000001e+00 1.469823e+02
      vertex   1.901802e+01 -1.000001e+00 1.469280e+02
    endloop
  endfacet
  facet normal -1.893741e-16 -1.000000e+00 8.222253e-17
    outer loop
      vertex   2.715000e+01 -1.000001e+00 1.278500e+02
      vertex   1.901802e+01 -1.000001e+00 1.469280e+02
      vertex   1.899627e+01 -1.000001e+00 1.468779e+02
    endloop
  endfacet
  facet normal -1.596155e-16 -1.000000e+00 9.497456e-17
    outer loop
      vertex   1.899627e+01 -1.000001e+00 1.468779e+02
      vertex   1.896947e+01 -1.000001e+00 1.468328e+02
      vertex   2.715000e+01 -1.000001e+00 1.278500e+02
    endloop
  endfacet
  facet normal -1.293448e-16 -1.000000e+00 1.080195e-16
    outer loop
      vertex   2.715000e+01 -1.000001e+00 1.278500e+02
      vertex   1.896947e+01 -1.000001e+00 1.468328e+02
      vertex   1.893678e+01 -1.000001e+00 1.467937e+02
    endloop
  endfacet
  facet normal -1.006132e-16 -1.000000e+00 1.204764e-16
    outer loop
      vertex   2.715000e+01 -1.000001e+00 1.278500e+02
      vertex   1.893678e+01 -1.000001e+00 1.467937e+02
      vertex   1.889763e+01 -1.000001e+00 1.467610e+02
    endloop
  endfacet
  facet normal 3.836111e-15 -1.000000e+00 1.838382e-15
    outer loop
      vertex   1.889763e+01 -1.000001e+00 1.467610e+02
      vertex   1.885259e+01 -1.000001e+00 1.467342e+02
      vertex   2.715000e+01 -1.000001e+00 1.278500e+02
    endloop
  endfacet
  facet normal -3.778405e-15 -1.000000e+00 -1.507313e-15
    outer loop
      vertex   2.715000e+01 -1.000001e+00 1.278500e+02
      vertex   1.885259e+01 -1.000001e+00 1.467342e+02
      vertex   1.880250e+01 -1.000001e+00 1.467124e+02
    endloop
  endfacet
  facet normal -4.657515e-17 -1.000000e+00 1.441934e-16
    outer loop
      vertex   2.715000e+01 -1.000001e+00 1.278500e+02
      vertex   1.880250e+01 -1.000001e+00 1.467124e+02
      vertex   1.874820e+01 -1.000001e+00 1.466949e+02
    endloop
  endfacet
  facet normal -3.291997e-17 -1.000000e+00 1.502814e-16
    outer loop
      vertex   1.874820e+01 -1.000001e+00 1.466949e+02
      vertex   1.863034e+01 -1.000001e+00 1.466691e+02
      vertex   2.715000e+01 -1.000001e+00 1.278500e+02
    endloop
  endfacet
  facet normal -2.365940e-17 -1.000000e+00 1.544738e-16
    outer loop
      vertex   2.715000e+01 -1.000001e+00 1.278500e+02
      vertex   1.863034e+01 -1.000001e+00 1.466691e+02
      vertex   1.850575e+01 -1.000001e+00 1.466500e+02
    endloop
  endfacet
  facet normal -1.063197e-16 -1.000000e+00 1.164665e-16
    outer loop
      vertex   2.715000e+01 -1.000001e+00 1.278500e+02
      vertex   1.850575e+01 -1.000001e+00 1.466500e+02
      vertex   -2.715000e+01 -1.000001e+00 1.278500e+02
    endloop
  endfacet
  facet normal 0.000000e+00 -1.000000e+00 -1.417306e-16
    outer loop
      vertex   -2.715000e+01 -1.000001e+00 1.278500e+02
      vertex   1.850575e+01 -1.000001e+00 1.466500e+02
      vertex   -1.862069e+01 -1.000001e+00 1.466500e+02
    endloop
  endfacet
  facet normal -3.141722e-17 -1.000000e+00 -1.274770e-16
    outer loop
      vertex   -2.715000e+01 -1.000001e+00 1.278500e+02
      vertex   -1.862069e+01 -1.000001e+00 1.466500e+02
      vertex   -1.872963e+01 -1.000001e+00 1.466768e+02
    endloop
  endfacet
  facet normal -4.000134e-17 -1.000000e+00 -1.236378e-16
    outer loop
      vertex   -1.872963e+01 -1.000001e+00 1.466768e+02
      vertex   -1.883157e+01 -1.000001e+00 1.467098e+02
      vertex   -2.715000e+01 -1.000001e+00 1.278500e+02
    endloop
  endfacet
  facet normal -5.291478e-17 -1.000000e+00 -1.179421e-16
    outer loop
      vertex   -2.715000e+01 -1.000001e+00 1.278500e+02
      vertex   -1.883157e+01 -1.000001e+00 1.467098e+02
      vertex   -1.887771e+01 -1.000001e+00 1.467305e+02
    endloop
  endfacet
  facet normal -6.593462e-17 -1.000000e+00 -1.122376e-16
    outer loop
      vertex   -2.715000e+01 -1.000001e+00 1.278500e+02
      vertex   -1.887771e+01 -1.000001e+00 1.467305e+02
      vertex   -1.891947e+01 -1.000001e+00 1.467551e+02
    endloop
  endfacet
  facet normal -8.347389e-17 -1.000000e+00 -1.046017e-16
    outer loop
      vertex   -1.891947e+01 -1.000001e+00 1.467551e+02
      vertex   -1.895598e+01 -1.000001e+00 1.467842e+02
      vertex   -2.715000e+01 -1.000001e+00 1.278500e+02
    endloop
  endfacet
  facet normal -1.004176e-16 -1.000000e+00 -9.726904e-17
    outer loop
      vertex   -2.715000e+01 -1.000001e+00 1.278500e+02
      vertex   -1.895598e+01 -1.000001e+00 1.467842e+02
      vertex   -1.897198e+01 -1.000001e+00 1.468007e+02
    endloop
  endfacet
  facet normal -1.134063e-16 -1.000000e+00 -9.166389e-17
    outer loop
      vertex   -2.715000e+01 -1.000001e+00 1.278500e+02
      vertex   -1.897198e+01 -1.000001e+00 1.468007e+02
      vertex   -1.898644e+01 -1.000001e+00 1.468186e+02
    endloop
  endfacet
  facet normal -1.334607e-16 -1.000000e+00 -8.303305e-17
    outer loop
      vertex   -1.898644e+01 -1.000001e+00 1.468186e+02
      vertex   -1.901104e+01 -1.000001e+00 1.468581e+02
      vertex   -2.715000e+01 -1.000001e+00 1.278500e+02
    endloop
  endfacet
  facet normal -5.956860e-15 -1.000000e+00 2.410448e-15
    outer loop
      vertex   -2.715000e+01 -1.000001e+00 1.278500e+02
      vertex   -1.901104e+01 -1.000001e+00 1.468581e+02
      vertex   -1.903050e+01 -1.000001e+00 1.469022e+02
    endloop
  endfacet
  facet normal 3.051144e-15 -1.000000e+00 -1.428513e-15
    outer loop
      vertex   -2.715000e+01 -1.000001e+00 1.278500e+02
      vertex   -1.903050e+01 -1.000001e+00 1.469022e+02
      vertex   -1.905694e+01 -1.000001e+00 1.470011e+02
    endloop
  endfacet
  facet normal -2.636063e-16 -1.000000e+00 -2.773480e-17
    outer loop
      vertex   -1.905694e+01 -1.000001e+00 1.470011e+02
      vertex   -1.908046e+01 -1.000001e+00 1.472247e+02
      vertex   -2.715000e+01 -1.000001e+00 1.278500e+02
    endloop
  endfacet
  facet normal -2.149271e-16 -1.000000e+00 -4.800964e-17
    outer loop
      vertex   -2.715000e+01 -1.000001e+00 1.278500e+02
      vertex   -1.908046e+01 -1.000001e+00 1.472247e+02
      vertex   -2.715000e+01 -1.000001e+00 1.833500e+02
    endloop
  endfacet
  facet normal 0.000000e+00 -1.000000e+00 0.000000e+00
    outer loop
      vertex   -2.715000e+01 -1.000001e+00 1.833500e+02
      vertex   -1.908046e+01 -1.000001e+00 1.472247e+02
      vertex   -1.902605e+01 -1.000001e+00 1.845500e+02
    endloop
  endfacet
  facet normal 0.000000e+00 -1.000000e+00 0.000000e+00
    outer loop
      vertex   -2.715000e+01 -1.000001e+00 1.833500e+02
      vertex   -1.902605e+01 -1.000001e+00 1.845500e+02
      vertex   -2.965000e+01 -1.000001e+00 1.845500e+02
    endloop
  endfacet
  facet normal 0.000000e+00 -1.000000e+00 0.000000e+00
    outer loop
      vertex   -2.965000e+01 -1.000001e+00 1.845500e+02
      vertex   -2.965000e+01 -1.000001e+00 1.833500e+02
      vertex   -2.715000e+01 -1.000001e+00 1.833500e+02
    endloop
  endfacet
  facet normal 5.278206e-29 2.842171e-12 1.000000e+00
    outer loop
      vertex   -2.591359e+01 -7.152557e-07 1.845500e+02
      vertex   -2.965000e+01 -7.152557e-07 1.845500e+02
      vertex   -2.591359e+01 -1.000072e-02 1.845500e+02
    endloop
  endfacet
  facet normal -7.606697e-15 0.000000e+00 1.000000e+00
    outer loop
      vertex   -2.591359e+01 -1.000072e-02 1.845500e+02
      vertex   -2.965000e+01 -7.152557e-07 1.845500e+02
      vertex   -2.965000e+01 -1.000001e+00 1.845500e+02
    endloop
  endfacet
  facet normal -2.657668e-15 -1.867837e-14 1.000000e+00
    outer loop
      vertex   -2.591359e+01 -1.000072e-02 1.845500e+02
      vertex   -2.965000e+01 -1.000001e+00 1.845500e+02
      vertex   -1.902605e+01 -9.900007e-01 1.845500e+02
    endloop
  endfacet
  facet normal -2.675249e-15 0.000000e+00 1.000000e+00
    outer loop
      vertex   -1.902605e+01 -9.900007e-01 1.845500e+02
      vertex   -2.965000e+01 -1.000001e+00 1.845500e+02
      vertex   -1.902605e+01 -1.000001e+00 1.845500e+02
    endloop
  endfacet
  facet normal -0.000000e+00 0.000000e+00 1.000000e+00
    outer loop
      vertex   -2.591359e+01 -1.000072e-02 1.845500e+02
      vertex   -1.902605e+01 -9.900007e-01 1.845500e+02
      vertex   -1.204502e+01 -1.000072e-02 1.845500e+02
    endloop
  endfacet
  facet normal 0.000000e+00 0.000000e+00 1.000000e+00
    outer loop
      vertex   -1.204502e+01 -1.000072e-02 1.845500e+02
      vertex   -1.902605e+01 -9.900007e-01 1.845500e+02
      vertex   -5.130580e+00 -9.900007e-01 1.845500e+02
    endloop
  endfacet
  facet normal -0.000000e+00 0.000000e+00 1.000000e+00
    outer loop
      vertex   -1.204502e+01 -1.000072e-02 1.845500e+02
      vertex   -5.130580e+00 -9.900007e-01 1.845500e+02
      vertex   -3.146425e-01 -1.000072e-02 1.845500e+02
    endloop
  endfacet
  facet normal -0.000000e+00 0.000000e+00 1.000000e+00
    outer loop
      vertex   -3.146425e-01 -1.000072e-02 1.845500e+02
      vertex   -5.130580e+00 -9.900007e-01 1.845500e+02
      vertex   2.021690e-01 -1.000072e-02 1.845500e+02
    endloop
  endfacet
  facet normal -0.000000e+00 0.000000e+00 1.000000e+00
    outer loop
      vertex   2.021690e-01 -1.000072e-02 1.845500e+02
      vertex   -5.130580e+00 -9.900007e-01 1.845500e+02
      vertex   1.204501e+01 -1.000072e-02 1.845500e+02
    endloop
  endfacet
  facet normal -0.000000e+00 2.842171e-12 1.000000e+00
    outer loop
      vertex   2.021690e-01 -1.000072e-02 1.845500e+02
      vertex   1.204501e+01 -1.000072e-02 1.845500e+02
      vertex   2.021690e-01 -7.152557e-07 1.845500e+02
    endloop
  endfacet
  facet normal -0.000000e+00 2.842171e-12 1.000000e+00
    outer loop
      vertex   2.021690e-01 -7.152557e-07 1.845500e+02
      vertex   1.204501e+01 -1.000072e-02 1.845500e+02
      vertex   1.204501e+01 -7.152557e-07 1.845500e+02
    endloop
  endfacet
  facet normal -0.000000e+00 0.000000e+00 1.000000e+00
    outer loop
      vertex   -5.130580e+00 -1.000001e+00 1.845500e+02
      vertex   2.965000e+01 -1.000001e+00 1.845500e+02
      vertex   -5.130580e+00 -9.900007e-01 1.845500e+02
    endloop
  endfacet
  facet normal -0.000000e+00 0.000000e+00 1.000000e+00
    outer loop
      vertex   -5.130580e+00 -9.900007e-01 1.845500e+02
      vertex   2.965000e+01 -1.000001e+00 1.845500e+02
      vertex   1.204501e+01 -1.000072e-02 1.845500e+02
    endloop
  endfacet
  facet normal -0.000000e+00 0.000000e+00 1.000000e+00
    outer loop
      vertex   1.204501e+01 -1.000072e-02 1.845500e+02
      vertex   2.965000e+01 -1.000001e+00 1.845500e+02
      vertex   2.591359e+01 -1.000072e-02 1.845500e+02
    endloop
  endfacet
  facet normal -0.000000e+00 0.000000e+00 1.000000e+00
    outer loop
      vertex   2.591359e+01 -1.000072e-02 1.845500e+02
      vertex   2.965000e+01 -1.000001e+00 1.845500e+02
      vertex   2.965000e+01 -7.152557e-07 1.845500e+02
    endloop
  endfacet
  facet normal -7.606692e-15 2.842171e-12 1.000000e+00
    outer loop
      vertex   2.591359e+01 -1.000072e-02 1.845500e+02
      vertex   2.965000e+01 -7.152557e-07 1.845500e+02
      vertex   2.591359e+01 -7.152557e-07 1.845500e+02
    endloop
  endfacet
  facet normal 0.000000e+00 2.842171e-12 1.000000e+00
    outer loop
      vertex   -3.146425e-01 -7.152557e-07 1.845500e+02
      vertex   -1.204502e+01 -7.152557e-07 1.845500e+02
      vertex   -3.146425e-01 -1.000072e-02 1.845500e+02
    endloop
  endfacet
  facet normal 0.000000e+00 2.842171e-12 1.000000e+00
    outer loop
      vertex   -3.146425e-01 -1.000072e-02 1.845500e+02
      vertex   -1.204502e+01 -7.152557e-07 1.845500e+02
      vertex   -1.204502e+01 -1.000072e-02 1.845500e+02
    endloop
  endfacet
  facet normal 1.136868e-14 0.000000e+00 -1.000000e+00
    outer loop
      vertex   2.715000e+01 -7.152557e-07 1.833500e+02
      vertex   2.965000e+01 -7.152557e-07 1.833500e+02
      vertex   2.715000e+01 -1.000001e+00 1.833500e+02
    endloop
  endfacet
  facet normal 1.136868e-14 0.000000e+00 -1.000000e+00
    outer loop
      vertex   2.715000e+01 -1.000001e+00 1.833500e+02
      vertex   2.965000e+01 -7.152557e-07 1.833500e+02
      vertex   2.965000e+01 -1.000001e+00 1.833500e+02
    endloop
  endfacet
  facet normal 1.000000e+00 0.000000e+00 -0.000000e+00
    outer loop
      vertex   2.965000e+01 -7.152557e-07 1.833500e+02
      vertex   2.965000e+01 -7.152557e-07 1.845500e+02
      vertex   2.965000e+01 -1.000001e+00 1.833500e+02
    endloop
  endfacet
  facet normal 1.000000e+00 0.000000e+00 0.000000e+00
    outer loop
      vertex   2.965000e+01 -1.000001e+00 1.833500e+02
      vertex   2.965000e+01 -7.152557e-07 1.845500e+02
      vertex   2.965000e+01 -1.000001e+00 1.845500e+02
    endloop
  endfacet
  facet normal 4.470348e-07 0.000000e+00 -1.000000e+00
    outer loop
      vertex   -2.965000e+01 -7.152557e-07 1.833500e+02
      vertex   -2.715000e+01 -7.152557e-07 1.833500e+02
      vertex   -2.965000e+01 -1.000001e+00 1.833500e+02
    endloop
  endfacet
  facet normal 4.470348e-07 0.000000e+00 -1.000000e+00
    outer loop
      vertex   -2.965000e+01 -1.000001e+00 1.833500e+02
      vertex   -2.715000e+01 -7.152557e-07 1.833500e+02
      vertex   -2.715000e+01 -1.000001e+00 1.833500e+02
    endloop
  endfacet
  facet normal -1.000000e+00 -0.000000e+00 -0.000000e+00
    outer loop
      vertex   -2.965000e+01 -7.152557e-07 1.845500e+02
      vertex   -2.965000e+01 -7.152557e-07 1.833500e+02
      vertex   -2.965000e+01 -1.000001e+00 1.845500e+02
    endloop
  endfacet
  facet normal -1.000000e+00 0.000000e+00 0.000000e+00
    outer loop
      vertex   -2.965000e+01 -1.000001e+00 1.845500e+02
      vertex   -2.965000e+01 -7.152557e-07 1.833500e+02
      vertex   -2.965000e+01 -1.000001e+00 1.833500e+02
    endloop
  endfacet
  facet normal -1.000000e+00 0.000000e+00 -6.401286e-16
    outer loop
      vertex   -2.715000e+01 -1.000001e+00 1.278500e+02
      vertex   -2.715000e+01 -1.000001e+00 1.833500e+02
      vertex   -2.715000e+01 -7.152557e-07 1.278500e+02
    endloop
  endfacet
  facet normal -1.000000e+00 0.000000e+00 -6.401286e-16
    outer loop
      vertex   -2.715000e+01 -7.152557e-07 1.278500e+02
      vertex   -2.715000e+01 -1.000001e+00 1.833500e+02
      vertex   -2.715000e+01 -7.152557e-07 1.833500e+02
    endloop
  endfacet
  facet normal 2.617100e-16 0.000000e+00 -1.000000e+00
    outer loop
      vertex   2.715000e+01 -1.000001e+00 1.278500e+02
      vertex   -2.715000e+01 -1.000001e+00 1.278500e+02
      vertex   2.715000e+01 -7.152557e-07 1.278500e+02
    endloop
  endfacet
  facet normal 2.617100e-16 0.000000e+00 -1.000000e+00
    outer loop
      vertex   2.715000e+01 -7.152557e-07 1.278500e+02
      vertex   -2.715000e+01 -1.000001e+00 1.278500e+02
      vertex   -2.715000e+01 -7.152557e-07 1.278500e+02
    endloop
  endfacet
  facet normal 1.000000e+00 -0.000000e+00 3.200643e-16
    outer loop
      vertex   2.715000e+01 -1.000001e+00 1.833500e+02
      vertex   2.715000e+01 -1.000001e+00 1.278500e+02
      vertex   2.715000e+01 -7.152557e-07 1.833500e+02
    endloop
  endfacet
  facet normal 1.000000e+00 0.000000e+00 3.200643e-16
    outer loop
      vertex   2.715000e+01 -7.152557e-07 1.833500e+02
      vertex   2.715000e+01 -1.000001e+00 1.278500e+02
      vertex   2.715000e+01 -7.152557e-07 1.278500e+02
    endloop
  endfacet
endsolid
