solid ASCII
  facet normal 1.000000e+00 0.000000e+00 0.000000e+00
    outer loop
      vertex   8.563217e+00 -1.000072e-02 1.845500e+02
      vertex   8.563217e+00 -1.000072e-02 1.471098e+02
      vertex   8.563217e+00 -7.152557e-07 1.845500e+02
    endloop
  endfacet
  facet normal 1.000000e+00 0.000000e+00 0.000000e+00
    outer loop
      vertex   8.563217e+00 -7.152557e-07 1.845500e+02
      vertex   8.563217e+00 -1.000072e-02 1.471098e+02
      vertex   8.563217e+00 -7.152557e-07 1.471098e+02
    endloop
  endfacet
  facet normal -0.000000e+00 1.000000e+00 -0.000000e+00
    outer loop
      vertex   -2.235632e+01 -1.000072e-02 1.471098e+02
      vertex   -2.250608e+01 -1.000072e-02 1.845500e+02
      vertex   -2.189655e+01 -1.000072e-02 1.466500e+02
    endloop
  endfacet
  facet normal 0.000000e+00 1.000000e+00 -0.000000e+00
    outer loop
      vertex   -2.189655e+01 -1.000072e-02 1.466500e+02
      vertex   -2.250608e+01 -1.000072e-02 1.845500e+02
      vertex   -8.563219e+00 -1.000072e-02 1.845500e+02
    endloop
  endfacet
  facet normal 0.000000e+00 1.000000e+00 0.000000e+00
    outer loop
      vertex   -2.189655e+01 -1.000072e-02 1.466500e+02
      vertex   -8.563219e+00 -1.000072e-02 1.845500e+02
      vertex   -9.022990e+00 -1.000072e-02 1.466500e+02
    endloop
  endfacet
  facet normal 0.000000e+00 1.000000e+00 0.000000e+00
    outer loop
      vertex   -9.022990e+00 -1.000072e-02 1.466500e+02
      vertex   -8.563219e+00 -1.000072e-02 1.845500e+02
      vertex   -8.563219e+00 -1.000072e-02 1.471098e+02
    endloop
  endfacet
  facet normal 0.000000e+00 1.000000e+00 0.000000e+00
    outer loop
      vertex   -9.022990e+00 -1.000072e-02 1.466500e+02
      vertex   -8.563219e+00 -1.000072e-02 1.471098e+02
      vertex   -8.829024e+00 -1.000072e-02 1.466859e+02
    endloop
  endfacet
  facet normal 0.000000e+00 1.000000e+00 0.000000e+00
    outer loop
      vertex   -8.829024e+00 -1.000072e-02 1.466859e+02
      vertex   -8.563219e+00 -1.000072e-02 1.471098e+02
      vertex   -8.785584e+00 -1.000072e-02 1.467000e+02
    endloop
  endfacet
  facet normal 0.000000e+00 1.000000e+00 0.000000e+00
    outer loop
      vertex   -8.785584e+00 -1.000072e-02 1.467000e+02
      vertex   -8.563219e+00 -1.000072e-02 1.471098e+02
      vertex   -8.745511e+00 -1.000072e-02 1.467173e+02
    endloop
  endfacet
  facet normal 0.000000e+00 1.000000e+00 0.000000e+00
    outer loop
      vertex   -8.745511e+00 -1.000072e-02 1.467173e+02
      vertex   -8.563219e+00 -1.000072e-02 1.471098e+02
      vertex   -8.709479e+00 -1.000072e-02 1.467388e+02
    endloop
  endfacet
  facet normal -8.258106e-17 1.000000e+00 3.255797e-17
    outer loop
      vertex   -8.709479e+00 -1.000072e-02 1.467388e+02
      vertex   -8.563219e+00 -1.000072e-02 1.471098e+02
      vertex   -8.678162e+00 -1.000072e-02 1.467649e+02
    endloop
  endfacet
  facet normal 1.003615e-16 1.000000e+00 -2.842340e-17
    outer loop
      vertex   -8.678162e+00 -1.000072e-02 1.467649e+02
      vertex   -8.563219e+00 -1.000072e-02 1.471098e+02
      vertex   -8.652008e+00 -1.000072e-02 1.467963e+02
    endloop
  endfacet
  facet normal 0.000000e+00 1.000000e+00 0.000000e+00
    outer loop
      vertex   -8.652008e+00 -1.000072e-02 1.467963e+02
      vertex   -8.563219e+00 -1.000072e-02 1.471098e+02
      vertex   -8.630568e+00 -1.000072e-02 1.468323e+02
    endloop
  endfacet
  facet normal 0.000000e+00 1.000000e+00 0.000000e+00
    outer loop
      vertex   -8.630568e+00 -1.000072e-02 1.468323e+02
      vertex   -8.563219e+00 -1.000072e-02 1.471098e+02
      vertex   -8.613170e+00 -1.000072e-02 1.468724e+02
    endloop
  endfacet
  facet normal 0.000000e+00 1.000000e+00 0.000000e+00
    outer loop
      vertex   -8.613170e+00 -1.000072e-02 1.468724e+02
      vertex   -8.563219e+00 -1.000072e-02 1.471098e+02
      vertex   -8.599139e+00 -1.000072e-02 1.469158e+02
    endloop
  endfacet
  facet normal 0.000000e+00 1.000000e+00 0.000000e+00
    outer loop
      vertex   -2.189655e+01 -1.000072e-02 1.466500e+02
      vertex   -2.209052e+01 -1.000072e-02 1.466859e+02
      vertex   -2.235632e+01 -1.000072e-02 1.471098e+02
    endloop
  endfacet
  facet normal 0.000000e+00 1.000000e+00 0.000000e+00
    outer loop
      vertex   -2.235632e+01 -1.000072e-02 1.471098e+02
      vertex   -2.209052e+01 -1.000072e-02 1.466859e+02
      vertex   -2.213396e+01 -1.000072e-02 1.467000e+02
    endloop
  endfacet
  facet normal 0.000000e+00 1.000000e+00 0.000000e+00
    outer loop
      vertex   -2.235632e+01 -1.000072e-02 1.471098e+02
      vertex   -2.213396e+01 -1.000072e-02 1.467000e+02
      vertex   -2.217403e+01 -1.000072e-02 1.467173e+02
    endloop
  endfacet
  facet normal 0.000000e+00 1.000000e+00 0.000000e+00
    outer loop
      vertex   -2.217403e+01 -1.000072e-02 1.467173e+02
      vertex   -2.221006e+01 -1.000072e-02 1.467388e+02
      vertex   -2.235632e+01 -1.000072e-02 1.471098e+02
    endloop
  endfacet
  facet normal 0.000000e+00 1.000000e+00 0.000000e+00
    outer loop
      vertex   -2.235632e+01 -1.000072e-02 1.471098e+02
      vertex   -2.221006e+01 -1.000072e-02 1.467388e+02
      vertex   -2.224138e+01 -1.000072e-02 1.467649e+02
    endloop
  endfacet
  facet normal 0.000000e+00 1.000000e+00 0.000000e+00
    outer loop
      vertex   -2.235632e+01 -1.000072e-02 1.471098e+02
      vertex   -2.224138e+01 -1.000072e-02 1.467649e+02
      vertex   -2.226753e+01 -1.000072e-02 1.467963e+02
    endloop
  endfacet
  facet normal 0.000000e+00 1.000000e+00 0.000000e+00
    outer loop
      vertex   -2.226753e+01 -1.000072e-02 1.467963e+02
      vertex   -2.228897e+01 -1.000072e-02 1.468323e+02
      vertex   -2.235632e+01 -1.000072e-02 1.471098e+02
    endloop
  endfacet
  facet normal 0.000000e+00 1.000000e+00 0.000000e+00
    outer loop
      vertex   -2.235632e+01 -1.000072e-02 1.471098e+02
      vertex   -2.228897e+01 -1.000072e-02 1.468323e+02
      vertex   -2.230637e+01 -1.000072e-02 1.468724e+02
    endloop
  endfacet
  facet normal 0.000000e+00 1.000000e+00 0.000000e+00
    outer loop
      vertex   -2.235632e+01 -1.000072e-02 1.471098e+02
      vertex   -2.230637e+01 -1.000072e-02 1.468724e+02
      vertex   -2.232040e+01 -1.000072e-02 1.469158e+02
    endloop
  endfacet
  facet normal 9.999920e-01 1.136859e-14 3.999967e-03
    outer loop
      vertex   -2.250608e+01 -1.000072e-02 1.845500e+02
      vertex   -2.235632e+01 -1.000072e-02 1.471098e+02
      vertex   -2.250608e+01 -7.152557e-07 1.845500e+02
    endloop
  endfacet
  facet normal 9.999920e-01 0.000000e+00 3.999967e-03
    outer loop
      vertex   -2.250608e+01 -7.152557e-07 1.845500e+02
      vertex   -2.235632e+01 -1.000072e-02 1.471098e+02
      vertex   -2.235632e+01 -7.152557e-07 1.471098e+02
    endloop
  endfacet
  facet normal -9.999920e-01 1.136897e-14 4.000101e-03
    outer loop
      vertex   2.250608e+01 -7.152557e-07 1.845500e+02
      vertex   2.235631e+01 -7.152557e-07 1.471098e+02
      vertex   2.250608e+01 -1.000072e-02 1.845500e+02
    endloop
  endfacet
  facet normal -9.999920e-01 0.000000e+00 4.000101e-03
    outer loop
      vertex   2.250608e+01 -1.000072e-02 1.845500e+02
      vertex   2.235631e+01 -7.152557e-07 1.471098e+02
      vertex   2.235631e+01 -1.000072e-02 1.471098e+02
    endloop
  endfacet
  facet normal -9.832820e-01 0.000000e+00 1.820893e-01
    outer loop
      vertex   2.235631e+01 -7.152557e-07 1.471098e+02
      vertex   2.232039e+01 -7.152557e-07 1.469158e+02
      vertex   2.235631e+01 -1.000072e-02 1.471098e+02
    endloop
  endfacet
  facet normal -9.832820e-01 0.000000e+00 1.820893e-01
    outer loop
      vertex   2.235631e+01 -1.000072e-02 1.471098e+02
      vertex   2.232039e+01 -7.152557e-07 1.469158e+02
      vertex   2.232039e+01 -1.000072e-02 1.469158e+02
    endloop
  endfacet
  facet normal -9.515927e-01 0.000000e+00 3.073620e-01
    outer loop
      vertex   2.232039e+01 -1.000072e-02 1.469158e+02
      vertex   2.232039e+01 -7.152557e-07 1.469158e+02
      vertex   2.230636e+01 -7.152557e-07 1.468724e+02
    endloop
  endfacet
  facet normal -9.515927e-01 0.000000e+00 3.073620e-01
    outer loop
      vertex   2.232039e+01 -1.000072e-02 1.469158e+02
      vertex   2.230636e+01 -7.152557e-07 1.468724e+02
      vertex   2.230636e+01 -1.000072e-02 1.468724e+02
    endloop
  endfacet
  facet normal -9.172742e-01 0.000000e+00 3.982563e-01
    outer loop
      vertex   2.230636e+01 -1.000072e-02 1.468724e+02
      vertex   2.230636e+01 -7.152557e-07 1.468724e+02
      vertex   2.228897e+01 -7.152557e-07 1.468323e+02
    endloop
  endfacet
  facet normal -9.172742e-01 0.000000e+00 3.982563e-01
    outer loop
      vertex   2.230636e+01 -1.000072e-02 1.468724e+02
      vertex   2.228897e+01 -7.152557e-07 1.468323e+02
      vertex   2.228897e+01 -1.000072e-02 1.468323e+02
    endloop
  endfacet
  facet normal -8.593769e-01 0.000000e+00 5.113427e-01
    outer loop
      vertex   2.228897e+01 -1.000072e-02 1.468323e+02
      vertex   2.228897e+01 -7.152557e-07 1.468323e+02
      vertex   2.226753e+01 -7.152557e-07 1.467963e+02
    endloop
  endfacet
  facet normal -8.593769e-01 0.000000e+00 5.113427e-01
    outer loop
      vertex   2.228897e+01 -1.000072e-02 1.468323e+02
      vertex   2.226753e+01 -7.152557e-07 1.467963e+02
      vertex   2.226753e+01 -1.000072e-02 1.467963e+02
    endloop
  endfacet
  facet normal -7.675444e-01 0.000000e+00 6.409958e-01
    outer loop
      vertex   2.226753e+01 -1.000072e-02 1.467963e+02
      vertex   2.226753e+01 -7.152557e-07 1.467963e+02
      vertex   2.224137e+01 -7.152557e-07 1.467649e+02
    endloop
  endfacet
  facet normal -7.675444e-01 0.000000e+00 6.409958e-01
    outer loop
      vertex   2.226753e+01 -1.000072e-02 1.467963e+02
      vertex   2.224137e+01 -7.152557e-07 1.467649e+02
      vertex   2.224137e+01 -1.000072e-02 1.467649e+02
    endloop
  endfacet
  facet normal -6.409958e-01 0.000000e+00 7.675444e-01
    outer loop
      vertex   2.224137e+01 -1.000072e-02 1.467649e+02
      vertex   2.224137e+01 -7.152557e-07 1.467649e+02
      vertex   2.221006e+01 -7.152557e-07 1.467388e+02
    endloop
  endfacet
  facet normal -6.409958e-01 0.000000e+00 7.675444e-01
    outer loop
      vertex   2.224137e+01 -1.000072e-02 1.467649e+02
      vertex   2.221006e+01 -7.152557e-07 1.467388e+02
      vertex   2.221006e+01 -1.000072e-02 1.467388e+02
    endloop
  endfacet
  facet normal -5.113427e-01 0.000000e+00 8.593769e-01
    outer loop
      vertex   2.221006e+01 -1.000072e-02 1.467388e+02
      vertex   2.221006e+01 -7.152557e-07 1.467388e+02
      vertex   2.217402e+01 -7.152557e-07 1.467174e+02
    endloop
  endfacet
  facet normal -5.113427e-01 0.000000e+00 8.593769e-01
    outer loop
      vertex   2.221006e+01 -1.000072e-02 1.467388e+02
      vertex   2.217402e+01 -7.152557e-07 1.467174e+02
      vertex   2.217402e+01 -1.000072e-02 1.467174e+02
    endloop
  endfacet
  facet normal -3.982563e-01 0.000000e+00 9.172742e-01
    outer loop
      vertex   2.217402e+01 -1.000072e-02 1.467174e+02
      vertex   2.217402e+01 -7.152557e-07 1.467174e+02
      vertex   2.213395e+01 -7.152557e-07 1.467000e+02
    endloop
  endfacet
  facet normal -3.982563e-01 0.000000e+00 9.172742e-01
    outer loop
      vertex   2.217402e+01 -1.000072e-02 1.467174e+02
      vertex   2.213395e+01 -7.152557e-07 1.467000e+02
      vertex   2.213395e+01 -1.000072e-02 1.467000e+02
    endloop
  endfacet
  facet normal -3.073620e-01 0.000000e+00 9.515927e-01
    outer loop
      vertex   2.213395e+01 -1.000072e-02 1.467000e+02
      vertex   2.213395e+01 -7.152557e-07 1.467000e+02
      vertex   2.209051e+01 -7.152557e-07 1.466859e+02
    endloop
  endfacet
  facet normal -3.073620e-01 0.000000e+00 9.515927e-01
    outer loop
      vertex   2.213395e+01 -1.000072e-02 1.467000e+02
      vertex   2.209051e+01 -7.152557e-07 1.466859e+02
      vertex   2.209051e+01 -1.000072e-02 1.466859e+02
    endloop
  endfacet
  facet normal -1.820893e-01 0.000000e+00 9.832820e-01
    outer loop
      vertex   2.209051e+01 -1.000072e-02 1.466859e+02
      vertex   2.209051e+01 -7.152557e-07 1.466859e+02
      vertex   2.189655e+01 -7.152557e-07 1.466500e+02
    endloop
  endfacet
  facet normal -1.820893e-01 0.000000e+00 9.832820e-01
    outer loop
      vertex   2.209051e+01 -1.000072e-02 1.466859e+02
      vertex   2.189655e+01 -7.152557e-07 1.466500e+02
      vertex   2.189655e+01 -1.000072e-02 1.466500e+02
    endloop
  endfacet
  facet normal 0.000000e+00 0.000000e+00 1.000000e+00
    outer loop
      vertex   2.189655e+01 -7.152557e-07 1.466500e+02
      vertex   9.022986e+00 -7.152557e-07 1.466500e+02
      vertex   2.189655e+01 -1.000072e-02 1.466500e+02
    endloop
  endfacet
  facet normal 0.000000e+00 0.000000e+00 1.000000e+00
    outer loop
      vertex   2.189655e+01 -1.000072e-02 1.466500e+02
      vertex   9.022986e+00 -7.152557e-07 1.466500e+02
      vertex   9.022986e+00 -1.000072e-02 1.466500e+02
    endloop
  endfacet
  facet normal 1.820864e-01 0.000000e+00 9.832825e-01
    outer loop
      vertex   9.022986e+00 -7.152557e-07 1.466500e+02
      vertex   8.829021e+00 -7.152557e-07 1.466859e+02
      vertex   9.022986e+00 -1.000072e-02 1.466500e+02
    endloop
  endfacet
  facet normal 1.820864e-01 0.000000e+00 9.832825e-01
    outer loop
      vertex   9.022986e+00 -1.000072e-02 1.466500e+02
      vertex   8.829021e+00 -7.152557e-07 1.466859e+02
      vertex   8.829021e+00 -1.000072e-02 1.466859e+02
    endloop
  endfacet
  facet normal 3.073588e-01 -0.000000e+00 9.515937e-01
    outer loop
      vertex   8.829021e+00 -1.000072e-02 1.466859e+02
      vertex   8.829021e+00 -7.152557e-07 1.466859e+02
      vertex   8.785581e+00 -7.152557e-07 1.467000e+02
    endloop
  endfacet
  facet normal 3.073588e-01 0.000000e+00 9.515937e-01
    outer loop
      vertex   8.829021e+00 -1.000072e-02 1.466859e+02
      vertex   8.785581e+00 -7.152557e-07 1.467000e+02
      vertex   8.785581e+00 -1.000072e-02 1.467000e+02
    endloop
  endfacet
  facet normal 3.982530e-01 -0.000000e+00 9.172756e-01
    outer loop
      vertex   8.785581e+00 -1.000072e-02 1.467000e+02
      vertex   8.785581e+00 -7.152557e-07 1.467000e+02
      vertex   8.745509e+00 -7.152557e-07 1.467173e+02
    endloop
  endfacet
  facet normal 3.982530e-01 0.000000e+00 9.172756e-01
    outer loop
      vertex   8.785581e+00 -1.000072e-02 1.467000e+02
      vertex   8.745509e+00 -7.152557e-07 1.467173e+02
      vertex   8.745509e+00 -1.000072e-02 1.467173e+02
    endloop
  endfacet
  facet normal 5.113394e-01 -0.000000e+00 8.593789e-01
    outer loop
      vertex   8.745509e+00 -1.000072e-02 1.467173e+02
      vertex   8.745509e+00 -7.152557e-07 1.467173e+02
      vertex   8.709477e+00 -7.152557e-07 1.467388e+02
    endloop
  endfacet
  facet normal 5.113394e-01 0.000000e+00 8.593789e-01
    outer loop
      vertex   8.745509e+00 -1.000072e-02 1.467173e+02
      vertex   8.709477e+00 -7.152557e-07 1.467388e+02
      vertex   8.709477e+00 -1.000072e-02 1.467388e+02
    endloop
  endfacet
  facet normal 6.409927e-01 -0.000000e+00 7.675470e-01
    outer loop
      vertex   8.709477e+00 -1.000072e-02 1.467388e+02
      vertex   8.709477e+00 -7.152557e-07 1.467388e+02
      vertex   8.678160e+00 -7.152557e-07 1.467649e+02
    endloop
  endfacet
  facet normal 6.409927e-01 0.000000e+00 7.675470e-01
    outer loop
      vertex   8.709477e+00 -1.000072e-02 1.467388e+02
      vertex   8.678160e+00 -7.152557e-07 1.467649e+02
      vertex   8.678160e+00 -1.000072e-02 1.467649e+02
    endloop
  endfacet
  facet normal 7.675420e-01 -0.000000e+00 6.409986e-01
    outer loop
      vertex   8.678160e+00 -1.000072e-02 1.467649e+02
      vertex   8.678160e+00 -7.152557e-07 1.467649e+02
      vertex   8.652006e+00 -7.152557e-07 1.467963e+02
    endloop
  endfacet
  facet normal 7.675420e-01 0.000000e+00 6.409986e-01
    outer loop
      vertex   8.678160e+00 -1.000072e-02 1.467649e+02
      vertex   8.652006e+00 -7.152557e-07 1.467963e+02
      vertex   8.652006e+00 -1.000072e-02 1.467963e+02
    endloop
  endfacet
  facet normal 8.593756e-01 -0.000000e+00 5.113449e-01
    outer loop
      vertex   8.652006e+00 -1.000072e-02 1.467963e+02
      vertex   8.652006e+00 -7.152557e-07 1.467963e+02
      vertex   8.630566e+00 -7.152557e-07 1.468323e+02
    endloop
  endfacet
  facet normal 8.593756e-01 0.000000e+00 5.113449e-01
    outer loop
      vertex   8.652006e+00 -1.000072e-02 1.467963e+02
      vertex   8.630566e+00 -7.152557e-07 1.468323e+02
      vertex   8.630566e+00 -1.000072e-02 1.468323e+02
    endloop
  endfacet
  facet normal 9.172735e-01 -0.000000e+00 3.982579e-01
    outer loop
      vertex   8.630566e+00 -1.000072e-02 1.468323e+02
      vertex   8.630566e+00 -7.152557e-07 1.468323e+02
      vertex   8.613168e+00 -7.152557e-07 1.468724e+02
    endloop
  endfacet
  facet normal 9.172735e-01 0.000000e+00 3.982579e-01
    outer loop
      vertex   8.630566e+00 -1.000072e-02 1.468323e+02
      vertex   8.613168e+00 -7.152557e-07 1.468724e+02
      vertex   8.613168e+00 -1.000072e-02 1.468724e+02
    endloop
  endfacet
  facet normal 9.515923e-01 -0.000000e+00 3.073631e-01
    outer loop
      vertex   8.613168e+00 -1.000072e-02 1.468724e+02
      vertex   8.613168e+00 -7.152557e-07 1.468724e+02
      vertex   8.599137e+00 -7.152557e-07 1.469158e+02
    endloop
  endfacet
  facet normal 9.515923e-01 0.000000e+00 3.073631e-01
    outer loop
      vertex   8.613168e+00 -1.000072e-02 1.468724e+02
      vertex   8.599137e+00 -7.152557e-07 1.469158e+02
      vertex   8.599137e+00 -1.000072e-02 1.469158e+02
    endloop
  endfacet
  facet normal 9.832819e-01 -0.000000e+00 1.820897e-01
    outer loop
      vertex   8.599137e+00 -1.000072e-02 1.469158e+02
      vertex   8.599137e+00 -7.152557e-07 1.469158e+02
      vertex   8.563217e+00 -7.152557e-07 1.471098e+02
    endloop
  endfacet
  facet normal 9.832819e-01 0.000000e+00 1.820897e-01
    outer loop
      vertex   8.599137e+00 -1.000072e-02 1.469158e+02
      vertex   8.563217e+00 -7.152557e-07 1.471098e+02
      vertex   8.563217e+00 -1.000072e-02 1.471098e+02
    endloop
  endfacet
  facet normal -1.000000e+00 -0.000000e+00 -0.000000e+00
    outer loop
      vertex   -8.563219e+00 -7.152557e-07 1.845500e+02
      vertex   -8.563219e+00 -7.152557e-07 1.471098e+02
      vertex   -8.563219e+00 -1.000072e-02 1.845500e+02
    endloop
  endfacet
  facet normal -1.000000e+00 0.000000e+00 0.000000e+00
    outer loop
      vertex   -8.563219e+00 -1.000072e-02 1.845500e+02
      vertex   -8.563219e+00 -7.152557e-07 1.471098e+02
      vertex   -8.563219e+00 -1.000072e-02 1.471098e+02
    endloop
  endfacet
  facet normal -9.832818e-01 0.000000e+00 1.820902e-01
    outer loop
      vertex   -8.563219e+00 -7.152557e-07 1.471098e+02
      vertex   -8.599139e+00 -7.152557e-07 1.469158e+02
      vertex   -8.563219e+00 -1.000072e-02 1.471098e+02
    endloop
  endfacet
  facet normal -9.832818e-01 0.000000e+00 1.820902e-01
    outer loop
      vertex   -8.563219e+00 -1.000072e-02 1.471098e+02
      vertex   -8.599139e+00 -7.152557e-07 1.469158e+02
      vertex   -8.599139e+00 -1.000072e-02 1.469158e+02
    endloop
  endfacet
  facet normal -9.515919e-01 0.000000e+00 3.073642e-01
    outer loop
      vertex   -8.599139e+00 -1.000072e-02 1.469158e+02
      vertex   -8.599139e+00 -7.152557e-07 1.469158e+02
      vertex   -8.613170e+00 -7.152557e-07 1.468724e+02
    endloop
  endfacet
  facet normal -9.515919e-01 0.000000e+00 3.073642e-01
    outer loop
      vertex   -8.599139e+00 -1.000072e-02 1.469158e+02
      vertex   -8.613170e+00 -7.152557e-07 1.468724e+02
      vertex   -8.613170e+00 -1.000072e-02 1.468724e+02
    endloop
  endfacet
  facet normal -9.172728e-01 0.000000e+00 3.982596e-01
    outer loop
      vertex   -8.613170e+00 -1.000072e-02 1.468724e+02
      vertex   -8.613170e+00 -7.152557e-07 1.468724e+02
      vertex   -8.630568e+00 -7.152557e-07 1.468323e+02
    endloop
  endfacet
  facet normal -9.172728e-01 0.000000e+00 3.982596e-01
    outer loop
      vertex   -8.613170e+00 -1.000072e-02 1.468724e+02
      vertex   -8.630568e+00 -7.152557e-07 1.468323e+02
      vertex   -8.630568e+00 -1.000072e-02 1.468323e+02
    endloop
  endfacet
  facet normal -8.593743e-01 0.000000e+00 5.113471e-01
    outer loop
      vertex   -8.630568e+00 -1.000072e-02 1.468323e+02
      vertex   -8.630568e+00 -7.152557e-07 1.468323e+02
      vertex   -8.652008e+00 -7.152557e-07 1.467963e+02
    endloop
  endfacet
  facet normal -8.593743e-01 0.000000e+00 5.113471e-01
    outer loop
      vertex   -8.630568e+00 -1.000072e-02 1.468323e+02
      vertex   -8.652008e+00 -7.152557e-07 1.467963e+02
      vertex   -8.652008e+00 -1.000072e-02 1.467963e+02
    endloop
  endfacet
  facet normal -7.675397e-01 0.000000e+00 6.410014e-01
    outer loop
      vertex   -8.652008e+00 -1.000072e-02 1.467963e+02
      vertex   -8.652008e+00 -7.152557e-07 1.467963e+02
      vertex   -8.678162e+00 -7.152557e-07 1.467649e+02
    endloop
  endfacet
  facet normal -7.675397e-01 0.000000e+00 6.410014e-01
    outer loop
      vertex   -8.652008e+00 -1.000072e-02 1.467963e+02
      vertex   -8.678162e+00 -7.152557e-07 1.467649e+02
      vertex   -8.678162e+00 -1.000072e-02 1.467649e+02
    endloop
  endfacet
  facet normal -6.409896e-01 0.000000e+00 7.675496e-01
    outer loop
      vertex   -8.678162e+00 -1.000072e-02 1.467649e+02
      vertex   -8.678162e+00 -7.152557e-07 1.467649e+02
      vertex   -8.709479e+00 -7.152557e-07 1.467388e+02
    endloop
  endfacet
  facet normal -6.409896e-01 0.000000e+00 7.675496e-01
    outer loop
      vertex   -8.678162e+00 -1.000072e-02 1.467649e+02
      vertex   -8.709479e+00 -7.152557e-07 1.467388e+02
      vertex   -8.709479e+00 -1.000072e-02 1.467388e+02
    endloop
  endfacet
  facet normal -5.113361e-01 0.000000e+00 8.593808e-01
    outer loop
      vertex   -8.709479e+00 -1.000072e-02 1.467388e+02
      vertex   -8.709479e+00 -7.152557e-07 1.467388e+02
      vertex   -8.745511e+00 -7.152557e-07 1.467173e+02
    endloop
  endfacet
  facet normal -5.113361e-01 0.000000e+00 8.593808e-01
    outer loop
      vertex   -8.709479e+00 -1.000072e-02 1.467388e+02
      vertex   -8.745511e+00 -7.152557e-07 1.467173e+02
      vertex   -8.745511e+00 -1.000072e-02 1.467173e+02
    endloop
  endfacet
  facet normal -3.982498e-01 0.000000e+00 9.172770e-01
    outer loop
      vertex   -8.745511e+00 -1.000072e-02 1.467173e+02
      vertex   -8.745511e+00 -7.152557e-07 1.467173e+02
      vertex   -8.785584e+00 -7.152557e-07 1.467000e+02
    endloop
  endfacet
  facet normal -3.982498e-01 0.000000e+00 9.172770e-01
    outer loop
      vertex   -8.745511e+00 -1.000072e-02 1.467173e+02
      vertex   -8.785584e+00 -7.152557e-07 1.467000e+02
      vertex   -8.785584e+00 -1.000072e-02 1.467000e+02
    endloop
  endfacet
  facet normal -3.073557e-01 0.000000e+00 9.515947e-01
    outer loop
      vertex   -8.785584e+00 -1.000072e-02 1.467000e+02
      vertex   -8.785584e+00 -7.152557e-07 1.467000e+02
      vertex   -8.829024e+00 -7.152557e-07 1.466859e+02
    endloop
  endfacet
  facet normal -3.073557e-01 0.000000e+00 9.515947e-01
    outer loop
      vertex   -8.785584e+00 -1.000072e-02 1.467000e+02
      vertex   -8.829024e+00 -7.152557e-07 1.466859e+02
      vertex   -8.829024e+00 -1.000072e-02 1.466859e+02
    endloop
  endfacet
  facet normal -1.820835e-01 0.000000e+00 9.832831e-01
    outer loop
      vertex   -8.829024e+00 -1.000072e-02 1.466859e+02
      vertex   -8.829024e+00 -7.152557e-07 1.466859e+02
      vertex   -9.022990e+00 -7.152557e-07 1.466500e+02
    endloop
  endfacet
  facet normal -1.820835e-01 0.000000e+00 9.832831e-01
    outer loop
      vertex   -8.829024e+00 -1.000072e-02 1.466859e+02
      vertex   -9.022990e+00 -7.152557e-07 1.466500e+02
      vertex   -9.022990e+00 -1.000072e-02 1.466500e+02
    endloop
  endfacet
  facet normal 0.000000e+00 0.000000e+00 1.000000e+00
    outer loop
      vertex   -9.022990e+00 -7.152557e-07 1.466500e+02
      vertex   -2.189655e+01 -7.152557e-07 1.466500e+02
      vertex   -9.022990e+00 -1.000072e-02 1.466500e+02
    endloop
  endfacet
  facet normal 0.000000e+00 0.000000e+00 1.000000e+00
    outer loop
      vertex   -9.022990e+00 -1.000072e-02 1.466500e+02
      vertex   -2.189655e+01 -7.152557e-07 1.466500e+02
      vertex   -2.189655e+01 -1.000072e-02 1.466500e+02
    endloop
  endfacet
  facet normal 1.820852e-01 0.000000e+00 9.832828e-01
    outer loop
      vertex   -2.189655e+01 -7.152557e-07 1.466500e+02
      vertex   -2.209052e+01 -7.152557e-07 1.466859e+02
      vertex   -2.189655e+01 -1.000072e-02 1.466500e+02
    endloop
  endfacet
  facet normal 1.820852e-01 0.000000e+00 9.832828e-01
    outer loop
      vertex   -2.189655e+01 -1.000072e-02 1.466500e+02
      vertex   -2.209052e+01 -7.152557e-07 1.466859e+02
      vertex   -2.209052e+01 -1.000072e-02 1.466859e+02
    endloop
  endfacet
  facet normal 3.073574e-01 -0.000000e+00 9.515942e-01
    outer loop
      vertex   -2.209052e+01 -1.000072e-02 1.466859e+02
      vertex   -2.209052e+01 -7.152557e-07 1.466859e+02
      vertex   -2.213396e+01 -7.152557e-07 1.467000e+02
    endloop
  endfacet
  facet normal 3.073574e-01 0.000000e+00 9.515942e-01
    outer loop
      vertex   -2.209052e+01 -1.000072e-02 1.466859e+02
      vertex   -2.213396e+01 -7.152557e-07 1.467000e+02
      vertex   -2.213396e+01 -1.000072e-02 1.467000e+02
    endloop
  endfacet
  facet normal 3.982514e-01 -0.000000e+00 9.172763e-01
    outer loop
      vertex   -2.213396e+01 -1.000072e-02 1.467000e+02
      vertex   -2.213396e+01 -7.152557e-07 1.467000e+02
      vertex   -2.217403e+01 -7.152557e-07 1.467173e+02
    endloop
  endfacet
  facet normal 3.982514e-01 0.000000e+00 9.172763e-01
    outer loop
      vertex   -2.213396e+01 -1.000072e-02 1.467000e+02
      vertex   -2.217403e+01 -7.152557e-07 1.467173e+02
      vertex   -2.217403e+01 -1.000072e-02 1.467173e+02
    endloop
  endfacet
  facet normal 5.113376e-01 -0.000000e+00 8.593799e-01
    outer loop
      vertex   -2.217403e+01 -1.000072e-02 1.467173e+02
      vertex   -2.217403e+01 -7.152557e-07 1.467173e+02
      vertex   -2.221006e+01 -7.152557e-07 1.467388e+02
    endloop
  endfacet
  facet normal 5.113376e-01 0.000000e+00 8.593799e-01
    outer loop
      vertex   -2.217403e+01 -1.000072e-02 1.467173e+02
      vertex   -2.221006e+01 -7.152557e-07 1.467388e+02
      vertex   -2.221006e+01 -1.000072e-02 1.467388e+02
    endloop
  endfacet
  facet normal 6.409909e-01 -0.000000e+00 7.675485e-01
    outer loop
      vertex   -2.221006e+01 -1.000072e-02 1.467388e+02
      vertex   -2.221006e+01 -7.152557e-07 1.467388e+02
      vertex   -2.224138e+01 -7.152557e-07 1.467649e+02
    endloop
  endfacet
  facet normal 6.409909e-01 0.000000e+00 7.675485e-01
    outer loop
      vertex   -2.221006e+01 -1.000072e-02 1.467388e+02
      vertex   -2.224138e+01 -7.152557e-07 1.467649e+02
      vertex   -2.224138e+01 -1.000072e-02 1.467649e+02
    endloop
  endfacet
  facet normal 7.675404e-01 -0.000000e+00 6.410005e-01
    outer loop
      vertex   -2.224138e+01 -1.000072e-02 1.467649e+02
      vertex   -2.224138e+01 -7.152557e-07 1.467649e+02
      vertex   -2.226753e+01 -7.152557e-07 1.467963e+02
    endloop
  endfacet
  facet normal 7.675404e-01 0.000000e+00 6.410005e-01
    outer loop
      vertex   -2.224138e+01 -1.000072e-02 1.467649e+02
      vertex   -2.226753e+01 -7.152557e-07 1.467963e+02
      vertex   -2.226753e+01 -1.000072e-02 1.467963e+02
    endloop
  endfacet
  facet normal 8.593744e-01 -0.000000e+00 5.113469e-01
    outer loop
      vertex   -2.226753e+01 -1.000072e-02 1.467963e+02
      vertex   -2.226753e+01 -7.152557e-07 1.467963e+02
      vertex   -2.228897e+01 -7.152557e-07 1.468323e+02
    endloop
  endfacet
  facet normal 8.593744e-01 0.000000e+00 5.113469e-01
    outer loop
      vertex   -2.226753e+01 -1.000072e-02 1.467963e+02
      vertex   -2.228897e+01 -7.152557e-07 1.468323e+02
      vertex   -2.228897e+01 -1.000072e-02 1.468323e+02
    endloop
  endfacet
  facet normal 9.172726e-01 -0.000000e+00 3.982599e-01
    outer loop
      vertex   -2.228897e+01 -1.000072e-02 1.468323e+02
      vertex   -2.228897e+01 -7.152557e-07 1.468323e+02
      vertex   -2.230637e+01 -7.152557e-07 1.468724e+02
    endloop
  endfacet
  facet normal 9.172726e-01 0.000000e+00 3.982599e-01
    outer loop
      vertex   -2.228897e+01 -1.000072e-02 1.468323e+02
      vertex   -2.230637e+01 -7.152557e-07 1.468724e+02
      vertex   -2.230637e+01 -1.000072e-02 1.468724e+02
    endloop
  endfacet
  facet normal 9.515917e-01 -0.000000e+00 3.073651e-01
    outer loop
      vertex   -2.230637e+01 -1.000072e-02 1.468724e+02
      vertex   -2.230637e+01 -7.152557e-07 1.468724e+02
      vertex   -2.232040e+01 -7.152557e-07 1.469158e+02
    endloop
  endfacet
  facet normal 9.515917e-01 0.000000e+00 3.073651e-01
    outer loop
      vertex   -2.230637e+01 -1.000072e-02 1.468724e+02
      vertex   -2.232040e+01 -7.152557e-07 1.469158e+02
      vertex   -2.232040e+01 -1.000072e-02 1.469158e+02
    endloop
  endfacet
  facet normal 9.832816e-01 -0.000000e+00 1.820916e-01
    outer loop
      vertex   -2.232040e+01 -1.000072e-02 1.469158e+02
      vertex   -2.232040e+01 -7.152557e-07 1.469158e+02
      vertex   -2.235632e+01 -7.152557e-07 1.471098e+02
    endloop
  endfacet
  facet normal 9.832816e-01 0.000000e+00 1.820916e-01
    outer loop
      vertex   -2.232040e+01 -1.000072e-02 1.469158e+02
      vertex   -2.235632e+01 -7.152557e-07 1.471098e+02
      vertex   -2.235632e+01 -1.000072e-02 1.471098e+02
    endloop
  endfacet
  facet normal 0.000000e+00 1.000000e+00 0.000000e+00
    outer loop
      vertex   2.250608e+01 -1.000072e-02 1.845500e+02
      vertex   2.189655e+01 -1.000072e-02 1.466500e+02
      vertex   8.563217e+00 -1.000072e-02 1.845500e+02
    endloop
  endfacet
  facet normal 0.000000e+00 1.000000e+00 0.000000e+00
    outer loop
      vertex   8.563217e+00 -1.000072e-02 1.845500e+02
      vertex   2.189655e+01 -1.000072e-02 1.466500e+02
      vertex   9.022986e+00 -1.000072e-02 1.466500e+02
    endloop
  endfacet
  facet normal 0.000000e+00 1.000000e+00 0.000000e+00
    outer loop
      vertex   8.563217e+00 -1.000072e-02 1.845500e+02
      vertex   9.022986e+00 -1.000072e-02 1.466500e+02
      vertex   8.563217e+00 -1.000072e-02 1.471098e+02
    endloop
  endfacet
  facet normal 0.000000e+00 1.000000e+00 0.000000e+00
    outer loop
      vertex   8.563217e+00 -1.000072e-02 1.471098e+02
      vertex   9.022986e+00 -1.000072e-02 1.466500e+02
      vertex   8.829021e+00 -1.000072e-02 1.466859e+02
    endloop
  endfacet
  facet normal 0.000000e+00 1.000000e+00 0.000000e+00
    outer loop
      vertex   8.563217e+00 -1.000072e-02 1.471098e+02
      vertex   8.829021e+00 -1.000072e-02 1.466859e+02
      vertex   8.785581e+00 -1.000072e-02 1.467000e+02
    endloop
  endfacet
  facet normal 0.000000e+00 1.000000e+00 0.000000e+00
    outer loop
      vertex   2.250608e+01 -1.000072e-02 1.845500e+02
      vertex   2.235631e+01 -1.000072e-02 1.471098e+02
      vertex   2.189655e+01 -1.000072e-02 1.466500e+02
    endloop
  endfacet
  facet normal 0.000000e+00 1.000000e+00 0.000000e+00
    outer loop
      vertex   2.189655e+01 -1.000072e-02 1.466500e+02
      vertex   2.235631e+01 -1.000072e-02 1.471098e+02
      vertex   2.209051e+01 -1.000072e-02 1.466859e+02
    endloop
  endfacet
  facet normal 0.000000e+00 1.000000e+00 0.000000e+00
    outer loop
      vertex   2.209051e+01 -1.000072e-02 1.466859e+02
      vertex   2.235631e+01 -1.000072e-02 1.471098e+02
      vertex   2.213395e+01 -1.000072e-02 1.467000e+02
    endloop
  endfacet
  facet normal 0.000000e+00 1.000000e+00 0.000000e+00
    outer loop
      vertex   2.213395e+01 -1.000072e-02 1.467000e+02
      vertex   2.235631e+01 -1.000072e-02 1.471098e+02
      vertex   2.217402e+01 -1.000072e-02 1.467174e+02
    endloop
  endfacet
  facet normal 0.000000e+00 1.000000e+00 0.000000e+00
    outer loop
      vertex   2.217402e+01 -1.000072e-02 1.467174e+02
      vertex   2.235631e+01 -1.000072e-02 1.471098e+02
      vertex   2.221006e+01 -1.000072e-02 1.467388e+02
    endloop
  endfacet
  facet normal 0.000000e+00 1.000000e+00 0.000000e+00
    outer loop
      vertex   2.221006e+01 -1.000072e-02 1.467388e+02
      vertex   2.235631e+01 -1.000072e-02 1.471098e+02
      vertex   2.224137e+01 -1.000072e-02 1.467649e+02
    endloop
  endfacet
  facet normal 0.000000e+00 1.000000e+00 0.000000e+00
    outer loop
      vertex   2.224137e+01 -1.000072e-02 1.467649e+02
      vertex   2.235631e+01 -1.000072e-02 1.471098e+02
      vertex   2.226753e+01 -1.000072e-02 1.467963e+02
    endloop
  endfacet
  facet normal 0.000000e+00 1.000000e+00 0.000000e+00
    outer loop
      vertex   2.226753e+01 -1.000072e-02 1.467963e+02
      vertex   2.235631e+01 -1.000072e-02 1.471098e+02
      vertex   2.228897e+01 -1.000072e-02 1.468323e+02
    endloop
  endfacet
  facet normal 0.000000e+00 1.000000e+00 0.000000e+00
    outer loop
      vertex   2.228897e+01 -1.000072e-02 1.468323e+02
      vertex   2.235631e+01 -1.000072e-02 1.471098e+02
      vertex   2.230636e+01 -1.000072e-02 1.468724e+02
    endloop
  endfacet
  facet normal 0.000000e+00 1.000000e+00 0.000000e+00
    outer loop
      vertex   2.230636e+01 -1.000072e-02 1.468724e+02
      vertex   2.235631e+01 -1.000072e-02 1.471098e+02
      vertex   2.232039e+01 -1.000072e-02 1.469158e+02
    endloop
  endfacet
  facet normal 0.000000e+00 1.000000e+00 0.000000e+00
    outer loop
      vertex   8.785581e+00 -1.000072e-02 1.467000e+02
      vertex   8.745509e+00 -1.000072e-02 1.467173e+02
      vertex   8.563217e+00 -1.000072e-02 1.471098e+02
    endloop
  endfacet
  facet normal 0.000000e+00 1.000000e+00 0.000000e+00
    outer loop
      vertex   8.563217e+00 -1.000072e-02 1.471098e+02
      vertex   8.745509e+00 -1.000072e-02 1.467173e+02
      vertex   8.709477e+00 -1.000072e-02 1.467388e+02
    endloop
  endfacet
  facet normal -8.258174e-17 1.000000e+00 -3.255809e-17
    outer loop
      vertex   8.563217e+00 -1.000072e-02 1.471098e+02
      vertex   8.709477e+00 -1.000072e-02 1.467388e+02
      vertex   8.678160e+00 -1.000072e-02 1.467649e+02
    endloop
  endfacet
  facet normal 1.003624e-16 1.000000e+00 2.842354e-17
    outer loop
      vertex   8.678160e+00 -1.000072e-02 1.467649e+02
      vertex   8.652006e+00 -1.000072e-02 1.467963e+02
      vertex   8.563217e+00 -1.000072e-02 1.471098e+02
    endloop
  endfacet
  facet normal 0.000000e+00 1.000000e+00 0.000000e+00
    outer loop
      vertex   8.563217e+00 -1.000072e-02 1.471098e+02
      vertex   8.652006e+00 -1.000072e-02 1.467963e+02
      vertex   8.630566e+00 -1.000072e-02 1.468323e+02
    endloop
  endfacet
  facet normal 0.000000e+00 1.000000e+00 0.000000e+00
    outer loop
      vertex   8.563217e+00 -1.000072e-02 1.471098e+02
      vertex   8.630566e+00 -1.000072e-02 1.468323e+02
      vertex   8.613168e+00 -1.000072e-02 1.468724e+02
    endloop
  endfacet
  facet normal 0.000000e+00 1.000000e+00 0.000000e+00
    outer loop
      vertex   8.613168e+00 -1.000072e-02 1.468724e+02
      vertex   8.599137e+00 -1.000072e-02 1.469158e+02
      vertex   8.563217e+00 -1.000072e-02 1.471098e+02
    endloop
  endfacet
  facet normal -0.000000e+00 1.000000e+00 1.853326e-18
    outer loop
      vertex   -8.563219e+00 -7.152557e-07 1.845500e+02
      vertex   8.563217e+00 -7.152557e-07 1.845500e+02
      vertex   -8.563219e+00 -7.152557e-07 1.471098e+02
    endloop
  endfacet
  facet normal -0.000000e+00 1.000000e+00 1.853326e-18
    outer loop
      vertex   -8.563219e+00 -7.152557e-07 1.471098e+02
      vertex   8.563217e+00 -7.152557e-07 1.845500e+02
      vertex   8.563217e+00 -7.152557e-07 1.471098e+02
    endloop
  endfacet
  facet normal -0.000000e+00 1.000000e+00 0.000000e+00
    outer loop
      vertex   -8.563219e+00 -7.152557e-07 1.471098e+02
      vertex   8.563217e+00 -7.152557e-07 1.471098e+02
      vertex   -8.599139e+00 -7.152557e-07 1.469158e+02
    endloop
  endfacet
  facet normal 0.000000e+00 1.000000e+00 0.000000e+00
    outer loop
      vertex   -8.599139e+00 -7.152557e-07 1.469158e+02
      vertex   8.563217e+00 -7.152557e-07 1.471098e+02
      vertex   8.599137e+00 -7.152557e-07 1.469158e+02
    endloop
  endfacet
  facet normal -0.000000e+00 1.000000e+00 0.000000e+00
    outer loop
      vertex   -8.599139e+00 -7.152557e-07 1.469158e+02
      vertex   8.599137e+00 -7.152557e-07 1.469158e+02
      vertex   8.613168e+00 -7.152557e-07 1.468724e+02
    endloop
  endfacet
  facet normal 0.000000e+00 1.000000e+00 0.000000e+00
    outer loop
      vertex   -8.599139e+00 -7.152557e-07 1.469158e+02
      vertex   8.613168e+00 -7.152557e-07 1.468724e+02
      vertex   -8.613170e+00 -7.152557e-07 1.468724e+02
    endloop
  endfacet
  facet normal -0.000000e+00 1.000000e+00 0.000000e+00
    outer loop
      vertex   -8.613170e+00 -7.152557e-07 1.468724e+02
      vertex   8.613168e+00 -7.152557e-07 1.468724e+02
      vertex   8.630566e+00 -7.152557e-07 1.468323e+02
    endloop
  endfacet
  facet normal 0.000000e+00 1.000000e+00 0.000000e+00
    outer loop
      vertex   -8.613170e+00 -7.152557e-07 1.468724e+02
      vertex   8.630566e+00 -7.152557e-07 1.468323e+02
      vertex   -8.630568e+00 -7.152557e-07 1.468323e+02
    endloop
  endfacet
  facet normal -0.000000e+00 1.000000e+00 0.000000e+00
    outer loop
      vertex   -8.630568e+00 -7.152557e-07 1.468323e+02
      vertex   8.630566e+00 -7.152557e-07 1.468323e+02
      vertex   8.652006e+00 -7.152557e-07 1.467963e+02
    endloop
  endfacet
  facet normal 0.000000e+00 1.000000e+00 0.000000e+00
    outer loop
      vertex   -8.630568e+00 -7.152557e-07 1.468323e+02
      vertex   8.652006e+00 -7.152557e-07 1.467963e+02
      vertex   -8.652008e+00 -7.152557e-07 1.467963e+02
    endloop
  endfacet
  facet normal 1.437726e-28 1.000000e+00 -3.380875e-21
    outer loop
      vertex   -8.652008e+00 -7.152557e-07 1.467963e+02
      vertex   8.652006e+00 -7.152557e-07 1.467963e+02
      vertex   8.678160e+00 -7.152557e-07 1.467649e+02
    endloop
  endfacet
  facet normal 6.100320e-24 1.000000e+00 -5.094608e-24
    outer loop
      vertex   -8.652008e+00 -7.152557e-07 1.467963e+02
      vertex   8.678160e+00 -7.152557e-07 1.467649e+02
      vertex   -8.678162e+00 -7.152557e-07 1.467649e+02
    endloop
  endfacet
  facet normal 6.100153e-24 1.000000e+00 4.055654e-21
    outer loop
      vertex   -8.678162e+00 -7.152557e-07 1.467649e+02
      vertex   8.678160e+00 -7.152557e-07 1.467649e+02
      vertex   8.709477e+00 -7.152557e-07 1.467388e+02
    endloop
  endfacet
  facet normal 0.000000e+00 1.000000e+00 0.000000e+00
    outer loop
      vertex   -8.678162e+00 -7.152557e-07 1.467649e+02
      vertex   8.709477e+00 -7.152557e-07 1.467388e+02
      vertex   -8.709479e+00 -7.152557e-07 1.467388e+02
    endloop
  endfacet
  facet normal -0.000000e+00 1.000000e+00 0.000000e+00
    outer loop
      vertex   -8.709479e+00 -7.152557e-07 1.467388e+02
      vertex   8.709477e+00 -7.152557e-07 1.467388e+02
      vertex   8.745509e+00 -7.152557e-07 1.467173e+02
    endloop
  endfacet
  facet normal 0.000000e+00 1.000000e+00 0.000000e+00
    outer loop
      vertex   -8.709479e+00 -7.152557e-07 1.467388e+02
      vertex   8.745509e+00 -7.152557e-07 1.467173e+02
      vertex   -8.745511e+00 -7.152557e-07 1.467173e+02
    endloop
  endfacet
  facet normal -0.000000e+00 1.000000e+00 0.000000e+00
    outer loop
      vertex   -8.745511e+00 -7.152557e-07 1.467173e+02
      vertex   8.745509e+00 -7.152557e-07 1.467173e+02
      vertex   8.785581e+00 -7.152557e-07 1.467000e+02
    endloop
  endfacet
  facet normal 0.000000e+00 1.000000e+00 0.000000e+00
    outer loop
      vertex   -8.745511e+00 -7.152557e-07 1.467173e+02
      vertex   8.785581e+00 -7.152557e-07 1.467000e+02
      vertex   -8.785584e+00 -7.152557e-07 1.467000e+02
    endloop
  endfacet
  facet normal -0.000000e+00 1.000000e+00 0.000000e+00
    outer loop
      vertex   -8.785584e+00 -7.152557e-07 1.467000e+02
      vertex   8.785581e+00 -7.152557e-07 1.467000e+02
      vertex   8.829021e+00 -7.152557e-07 1.466859e+02
    endloop
  endfacet
  facet normal 0.000000e+00 1.000000e+00 0.000000e+00
    outer loop
      vertex   -8.785584e+00 -7.152557e-07 1.467000e+02
      vertex   8.829021e+00 -7.152557e-07 1.466859e+02
      vertex   -8.829024e+00 -7.152557e-07 1.466859e+02
    endloop
  endfacet
  facet normal -3.543913e-24 1.000000e+00 1.473545e-16
    outer loop
      vertex   -8.829024e+00 -7.152557e-07 1.466859e+02
      vertex   8.829021e+00 -7.152557e-07 1.466859e+02
      vertex   -2.715000e+01 -7.152557e-07 1.278500e+02
    endloop
  endfacet
  facet normal -3.328155e-17 1.000000e+00 1.797262e-16
    outer loop
      vertex   -8.829024e+00 -7.152557e-07 1.466859e+02
      vertex   -2.715000e+01 -7.152557e-07 1.278500e+02
      vertex   -9.022990e+00 -7.152557e-07 1.466500e+02
    endloop
  endfacet
  facet normal 0.000000e+00 1.000000e+00 1.476360e-16
    outer loop
      vertex   -9.022990e+00 -7.152557e-07 1.466500e+02
      vertex   -2.715000e+01 -7.152557e-07 1.278500e+02
      vertex   -2.189655e+01 -7.152557e-07 1.466500e+02
    endloop
  endfacet
  facet normal 2.599425e-17 1.000000e+00 1.403722e-16
    outer loop
      vertex   -2.189655e+01 -7.152557e-07 1.466500e+02
      vertex   -2.715000e+01 -7.152557e-07 1.278500e+02
      vertex   -2.209052e+01 -7.152557e-07 1.466859e+02
    endloop
  endfacet
  facet normal 4.379478e-17 1.000000e+00 1.355909e-16
    outer loop
      vertex   -2.209052e+01 -7.152557e-07 1.466859e+02
      vertex   -2.715000e+01 -7.152557e-07 1.278500e+02
      vertex   -2.213396e+01 -7.152557e-07 1.467000e+02
    endloop
  endfacet
  facet normal 5.730791e-17 1.000000e+00 1.319950e-16
    outer loop
      vertex   -2.213396e+01 -7.152557e-07 1.467000e+02
      vertex   -2.715000e+01 -7.152557e-07 1.278500e+02
      vertex   -2.217403e+01 -7.152557e-07 1.467173e+02
    endloop
  endfacet
  facet normal 7.565838e-17 1.000000e+00 1.271553e-16
    outer loop
      vertex   -2.217403e+01 -7.152557e-07 1.467173e+02
      vertex   -2.715000e+01 -7.152557e-07 1.278500e+02
      vertex   -2.221006e+01 -7.152557e-07 1.467388e+02
    endloop
  endfacet
  facet normal 1.007164e-16 1.000000e+00 1.206020e-16
    outer loop
      vertex   -2.221006e+01 -7.152557e-07 1.467388e+02
      vertex   -2.715000e+01 -7.152557e-07 1.278500e+02
      vertex   -2.224138e+01 -7.152557e-07 1.467649e+02
    endloop
  endfacet
  facet normal 1.340515e-16 1.000000e+00 1.119512e-16
    outer loop
      vertex   -2.224138e+01 -7.152557e-07 1.467649e+02
      vertex   -2.715000e+01 -7.152557e-07 1.278500e+02
      vertex   -2.226753e+01 -7.152557e-07 1.467963e+02
    endloop
  endfacet
  facet normal 1.717983e-16 1.000000e+00 1.022238e-16
    outer loop
      vertex   -2.226753e+01 -7.152557e-07 1.467963e+02
      vertex   -2.715000e+01 -7.152557e-07 1.278500e+02
      vertex   -2.228897e+01 -7.152557e-07 1.468323e+02
    endloop
  endfacet
  facet normal 2.118305e-16 1.000000e+00 9.197224e-17
    outer loop
      vertex   -2.228897e+01 -7.152557e-07 1.468323e+02
      vertex   -2.715000e+01 -7.152557e-07 1.278500e+02
      vertex   -2.230637e+01 -7.152557e-07 1.468724e+02
    endloop
  endfacet
  facet normal 2.526020e-16 1.000000e+00 8.159069e-17
    outer loop
      vertex   -2.230637e+01 -7.152557e-07 1.468724e+02
      vertex   -2.715000e+01 -7.152557e-07 1.278500e+02
      vertex   -2.232040e+01 -7.152557e-07 1.469158e+02
    endloop
  endfacet
  facet normal 3.319907e-16 1.000000e+00 6.148057e-17
    outer loop
      vertex   -2.232040e+01 -7.152557e-07 1.469158e+02
      vertex   -2.715000e+01 -7.152557e-07 1.278500e+02
      vertex   -2.235632e+01 -7.152557e-07 1.471098e+02
    endloop
  endfacet
  facet normal 3.378908e-16 1.000000e+00 6.001206e-17
    outer loop
      vertex   -2.235632e+01 -7.152557e-07 1.471098e+02
      vertex   -2.715000e+01 -7.152557e-07 1.278500e+02
      vertex   -2.715000e+01 -7.152557e-07 1.833500e+02
    endloop
  endfacet
  facet normal -1.049637e-16 1.000000e+00 1.433471e-18
    outer loop
      vertex   -2.235632e+01 -7.152557e-07 1.471098e+02
      vertex   -2.715000e+01 -7.152557e-07 1.833500e+02
      vertex   -2.250608e+01 -7.152557e-07 1.845500e+02
    endloop
  endfacet
  facet normal 9.713012e-18 1.000000e+00 -4.423574e-16
    outer loop
      vertex   -2.250608e+01 -7.152557e-07 1.845500e+02
      vertex   -2.715000e+01 -7.152557e-07 1.833500e+02
      vertex   -2.965000e+01 -7.152557e-07 1.845500e+02
    endloop
  endfacet
  facet normal 2.220446e-16 1.000000e+00 0.000000e+00
    outer loop
      vertex   -2.965000e+01 -7.152557e-07 1.845500e+02
      vertex   -2.715000e+01 -7.152557e-07 1.833500e+02
      vertex   -2.965000e+01 -7.152557e-07 1.833500e+02
    endloop
  endfacet
  facet normal -5.878253e-17 1.000000e+00 2.596367e-16
    outer loop
      vertex   -2.715000e+01 -7.152557e-07 1.278500e+02
      vertex   8.829021e+00 -7.152557e-07 1.466859e+02
      vertex   2.715000e+01 -7.152557e-07 1.278500e+02
    endloop
  endfacet
  facet normal 7.155674e-17 1.000000e+00 3.864127e-16
    outer loop
      vertex   2.715000e+01 -7.152557e-07 1.278500e+02
      vertex   8.829021e+00 -7.152557e-07 1.466859e+02
      vertex   9.022986e+00 -7.152557e-07 1.466500e+02
    endloop
  endfacet
  facet normal 0.000000e+00 1.000000e+00 3.174175e-16
    outer loop
      vertex   2.715000e+01 -7.152557e-07 1.278500e+02
      vertex   9.022986e+00 -7.152557e-07 1.466500e+02
      vertex   2.189655e+01 -7.152557e-07 1.466500e+02
    endloop
  endfacet
  facet normal -5.588888e-17 1.000000e+00 3.017999e-16
    outer loop
      vertex   2.189655e+01 -7.152557e-07 1.466500e+02
      vertex   2.209051e+01 -7.152557e-07 1.466859e+02
      vertex   2.715000e+01 -7.152557e-07 1.278500e+02
    endloop
  endfacet
  facet normal -9.416019e-17 1.000000e+00 2.915199e-16
    outer loop
      vertex   2.715000e+01 -7.152557e-07 1.278500e+02
      vertex   2.209051e+01 -7.152557e-07 1.466859e+02
      vertex   2.213395e+01 -7.152557e-07 1.467000e+02
    endloop
  endfacet
  facet normal -1.232136e-16 1.000000e+00 2.837887e-16
    outer loop
      vertex   2.715000e+01 -7.152557e-07 1.278500e+02
      vertex   2.213395e+01 -7.152557e-07 1.467000e+02
      vertex   2.217402e+01 -7.152557e-07 1.467174e+02
    endloop
  endfacet
  facet normal -1.626674e-16 1.000000e+00 2.733834e-16
    outer loop
      vertex   2.217402e+01 -7.152557e-07 1.467174e+02
      vertex   2.221006e+01 -7.152557e-07 1.467388e+02
      vertex   2.715000e+01 -7.152557e-07 1.278500e+02
    endloop
  endfacet
  facet normal -2.165426e-16 1.000000e+00 2.592935e-16
    outer loop
      vertex   2.715000e+01 -7.152557e-07 1.278500e+02
      vertex   2.221006e+01 -7.152557e-07 1.467388e+02
      vertex   2.224137e+01 -7.152557e-07 1.467649e+02
    endloop
  endfacet
  facet normal -2.882132e-16 1.000000e+00 2.406942e-16
    outer loop
      vertex   2.715000e+01 -7.152557e-07 1.278500e+02
      vertex   2.224137e+01 -7.152557e-07 1.467649e+02
      vertex   2.226753e+01 -7.152557e-07 1.467963e+02
    endloop
  endfacet
  facet normal -3.693690e-16 1.000000e+00 2.197803e-16
    outer loop
      vertex   2.226753e+01 -7.152557e-07 1.467963e+02
      vertex   2.228897e+01 -7.152557e-07 1.468323e+02
      vertex   2.715000e+01 -7.152557e-07 1.278500e+02
    endloop
  endfacet
  facet normal -4.554385e-16 1.000000e+00 1.977394e-16
    outer loop
      vertex   2.715000e+01 -7.152557e-07 1.278500e+02
      vertex   2.228897e+01 -7.152557e-07 1.468323e+02
      vertex   2.230636e+01 -7.152557e-07 1.468724e+02
    endloop
  endfacet
  facet normal -5.430972e-16 1.000000e+00 1.754190e-16
    outer loop
      vertex   2.715000e+01 -7.152557e-07 1.278500e+02
      vertex   2.230636e+01 -7.152557e-07 1.468724e+02
      vertex   2.232039e+01 -7.152557e-07 1.469158e+02
    endloop
  endfacet
  facet normal -7.137832e-16 1.000000e+00 1.321821e-16
    outer loop
      vertex   2.232039e+01 -7.152557e-07 1.469158e+02
      vertex   2.235631e+01 -7.152557e-07 1.471098e+02
      vertex   2.715000e+01 -7.152557e-07 1.278500e+02
    endloop
  endfacet
  facet normal -1.244856e-15 1.000000e+00 -3.984339e-31
    outer loop
      vertex   2.715000e+01 -7.152557e-07 1.278500e+02
      vertex   2.235631e+01 -7.152557e-07 1.471098e+02
      vertex   2.715000e+01 -7.152557e-07 1.833500e+02
    endloop
  endfacet
  facet normal -1.298124e-15 1.000000e+00 7.045993e-18
    outer loop
      vertex   2.715000e+01 -7.152557e-07 1.833500e+02
      vertex   2.235631e+01 -7.152557e-07 1.471098e+02
      vertex   2.250608e+01 -7.152557e-07 1.845500e+02
    endloop
  endfacet
  facet normal -9.227356e-16 1.000000e+00 1.459773e-15
    outer loop
      vertex   2.715000e+01 -7.152557e-07 1.833500e+02
      vertex   2.250608e+01 -7.152557e-07 1.845500e+02
      vertex   2.965000e+01 -7.152557e-07 1.845500e+02
    endloop
  endfacet
  facet normal -2.220446e-16 1.000000e+00 0.000000e+00
    outer loop
      vertex   2.965000e+01 -7.152557e-07 1.845500e+02
      vertex   2.965000e+01 -7.152557e-07 1.833500e+02
      vertex   2.715000e+01 -7.152557e-07 1.833500e+02
    endloop
  endfacet
  facet normal -2.392941e-01 0.000000e+00 9.709471e-01
    outer loop
      vertex   6.551722e+00 -1.000001e+00 1.466500e+02
      vertex   6.660665e+00 -1.000001e+00 1.466768e+02
      vertex   6.551722e+00 -9.900007e-01 1.466500e+02
    endloop
  endfacet
  facet normal -2.392941e-01 0.000000e+00 9.709471e-01
    outer loop
      vertex   6.551722e+00 -9.900007e-01 1.466500e+02
      vertex   6.660665e+00 -1.000001e+00 1.466768e+02
      vertex   6.660665e+00 -9.900007e-01 1.466768e+02
    endloop
  endfacet
  facet normal -3.078267e-01 0.000000e+00 9.514425e-01
    outer loop
      vertex   6.660665e+00 -9.900007e-01 1.466768e+02
      vertex   6.660665e+00 -1.000001e+00 1.466768e+02
      vertex   6.762595e+00 -1.000001e+00 1.467098e+02
    endloop
  endfacet
  facet normal -3.078267e-01 0.000000e+00 9.514425e-01
    outer loop
      vertex   6.660665e+00 -9.900007e-01 1.466768e+02
      vertex   6.762595e+00 -1.000001e+00 1.467098e+02
      vertex   6.762595e+00 -9.900007e-01 1.467098e+02
    endloop
  endfacet
  facet normal -4.093406e-01 0.000000e+00 9.123816e-01
    outer loop
      vertex   6.762595e+00 -9.900007e-01 1.467098e+02
      vertex   6.762595e+00 -1.000001e+00 1.467098e+02
      vertex   6.808740e+00 -1.000001e+00 1.467305e+02
    endloop
  endfacet
  facet normal -4.093406e-01 0.000000e+00 9.123816e-01
    outer loop
      vertex   6.762595e+00 -9.900007e-01 1.467098e+02
      vertex   6.808740e+00 -1.000001e+00 1.467305e+02
      vertex   6.808740e+00 -9.900007e-01 1.467305e+02
    endloop
  endfacet
  facet normal -5.065206e-01 0.000000e+00 8.622278e-01
    outer loop
      vertex   6.808740e+00 -9.900007e-01 1.467305e+02
      vertex   6.808740e+00 -1.000001e+00 1.467305e+02
      vertex   6.850502e+00 -1.000001e+00 1.467551e+02
    endloop
  endfacet
  facet normal -5.065206e-01 0.000000e+00 8.622278e-01
    outer loop
      vertex   6.808740e+00 -9.900007e-01 1.467305e+02
      vertex   6.850502e+00 -1.000001e+00 1.467551e+02
      vertex   6.850502e+00 -9.900007e-01 1.467551e+02
    endloop
  endfacet
  facet normal -6.237490e-01 0.000000e+00 7.816247e-01
    outer loop
      vertex   6.850502e+00 -9.900007e-01 1.467551e+02
      vertex   6.850502e+00 -1.000001e+00 1.467551e+02
      vertex   6.887006e+00 -1.000001e+00 1.467842e+02
    endloop
  endfacet
  facet normal -6.237490e-01 0.000000e+00 7.816247e-01
    outer loop
      vertex   6.850502e+00 -9.900007e-01 1.467551e+02
      vertex   6.887006e+00 -1.000001e+00 1.467842e+02
      vertex   6.887006e+00 -9.900007e-01 1.467842e+02
    endloop
  endfacet
  facet normal -7.182773e-01 0.000000e+00 6.957569e-01
    outer loop
      vertex   6.887006e+00 -9.900007e-01 1.467842e+02
      vertex   6.887006e+00 -1.000001e+00 1.467842e+02
      vertex   6.903014e+00 -1.000001e+00 1.468007e+02
    endloop
  endfacet
  facet normal -7.182773e-01 0.000000e+00 6.957569e-01
    outer loop
      vertex   6.887006e+00 -9.900007e-01 1.467842e+02
      vertex   6.903014e+00 -1.000001e+00 1.468007e+02
      vertex   6.903014e+00 -9.900007e-01 1.468007e+02
    endloop
  endfacet
  facet normal -7.777176e-01 0.000000e+00 6.286139e-01
    outer loop
      vertex   6.903014e+00 -9.900007e-01 1.468007e+02
      vertex   6.903014e+00 -1.000001e+00 1.468007e+02
      vertex   6.917469e+00 -1.000001e+00 1.468186e+02
    endloop
  endfacet
  facet normal -7.777176e-01 0.000000e+00 6.286139e-01
    outer loop
      vertex   6.903014e+00 -9.900007e-01 1.468007e+02
      vertex   6.917469e+00 -1.000001e+00 1.468186e+02
      vertex   6.917469e+00 -9.900007e-01 1.468186e+02
    endloop
  endfacet
  facet normal -8.490819e-01 0.000000e+00 5.282613e-01
    outer loop
      vertex   6.917469e+00 -9.900007e-01 1.468186e+02
      vertex   6.917469e+00 -1.000001e+00 1.468186e+02
      vertex   6.942066e+00 -1.000001e+00 1.468581e+02
    endloop
  endfacet
  facet normal -8.490819e-01 0.000000e+00 5.282613e-01
    outer loop
      vertex   6.917469e+00 -9.900007e-01 1.468186e+02
      vertex   6.942066e+00 -1.000001e+00 1.468581e+02
      vertex   6.942066e+00 -9.900007e-01 1.468581e+02
    endloop
  endfacet
  facet normal -9.146407e-01 0.000000e+00 4.042678e-01
    outer loop
      vertex   6.942066e+00 -9.900007e-01 1.468581e+02
      vertex   6.942066e+00 -1.000001e+00 1.468581e+02
      vertex   6.961526e+00 -1.000001e+00 1.469022e+02
    endloop
  endfacet
  facet normal -9.146407e-01 0.000000e+00 4.042678e-01
    outer loop
      vertex   6.942066e+00 -9.900007e-01 1.468581e+02
      vertex   6.961526e+00 -1.000001e+00 1.469022e+02
      vertex   6.961526e+00 -9.900007e-01 1.469022e+02
    endloop
  endfacet
  facet normal -9.661074e-01 0.000000e+00 2.581404e-01
    outer loop
      vertex   6.961526e+00 -9.900007e-01 1.469022e+02
      vertex   6.961526e+00 -1.000001e+00 1.469022e+02
      vertex   6.987968e+00 -1.000001e+00 1.470011e+02
    endloop
  endfacet
  facet normal -9.661074e-01 0.000000e+00 2.581404e-01
    outer loop
      vertex   6.961526e+00 -9.900007e-01 1.469022e+02
      vertex   6.987968e+00 -1.000001e+00 1.470011e+02
      vertex   6.987968e+00 -9.900007e-01 1.470011e+02
    endloop
  endfacet
  facet normal -9.945104e-01 0.000000e+00 1.046381e-01
    outer loop
      vertex   6.987968e+00 -9.900007e-01 1.470011e+02
      vertex   6.987968e+00 -1.000001e+00 1.470011e+02
      vertex   7.011493e+00 -1.000001e+00 1.472247e+02
    endloop
  endfacet
  facet normal -9.945104e-01 0.000000e+00 1.046381e-01
    outer loop
      vertex   6.987968e+00 -9.900007e-01 1.470011e+02
      vertex   7.011493e+00 -1.000001e+00 1.472247e+02
      vertex   7.011493e+00 -9.900007e-01 1.472247e+02
    endloop
  endfacet
  facet normal -9.999985e-01 -0.000000e+00 -1.754369e-03
    outer loop
      vertex   6.946010e+00 -9.900007e-01 1.845500e+02
      vertex   7.011493e+00 -9.900007e-01 1.472247e+02
      vertex   6.946010e+00 -1.000001e+00 1.845500e+02
    endloop
  endfacet
  facet normal -9.999985e-01 0.000000e+00 -1.754369e-03
    outer loop
      vertex   6.946010e+00 -1.000001e+00 1.845500e+02
      vertex   7.011493e+00 -9.900007e-01 1.472247e+02
      vertex   7.011493e+00 -1.000001e+00 1.472247e+02
    endloop
  endfacet
  facet normal 1.000000e+00 -0.000000e+00 0.000000e+00
    outer loop
      vertex   -6.896552e+00 -1.000001e+00 1.845500e+02
      vertex   -6.896552e+00 -1.000001e+00 1.472247e+02
      vertex   -6.896552e+00 -9.900007e-01 1.845500e+02
    endloop
  endfacet
  facet normal 1.000000e+00 0.000000e+00 0.000000e+00
    outer loop
      vertex   -6.896552e+00 -9.900007e-01 1.845500e+02
      vertex   -6.896552e+00 -1.000001e+00 1.472247e+02
      vertex   -6.896552e+00 -9.900007e-01 1.472247e+02
    endloop
  endfacet
  facet normal 9.945109e-01 -0.000000e+00 1.046330e-01
    outer loop
      vertex   -6.896552e+00 -1.000001e+00 1.472247e+02
      vertex   -6.873029e+00 -1.000001e+00 1.470011e+02
      vertex   -6.896552e+00 -9.900007e-01 1.472247e+02
    endloop
  endfacet
  facet normal 9.945109e-01 0.000000e+00 1.046330e-01
    outer loop
      vertex   -6.896552e+00 -9.900007e-01 1.472247e+02
      vertex   -6.873029e+00 -1.000001e+00 1.470011e+02
      vertex   -6.873029e+00 -9.900007e-01 1.470011e+02
    endloop
  endfacet
  facet normal 9.661084e-01 0.000000e+00 2.581368e-01
    outer loop
      vertex   -6.873029e+00 -9.900007e-01 1.470011e+02
      vertex   -6.873029e+00 -1.000001e+00 1.470011e+02
      vertex   -6.846587e+00 -1.000001e+00 1.469022e+02
    endloop
  endfacet
  facet normal 9.661084e-01 0.000000e+00 2.581368e-01
    outer loop
      vertex   -6.873029e+00 -9.900007e-01 1.470011e+02
      vertex   -6.846587e+00 -1.000001e+00 1.469022e+02
      vertex   -6.846587e+00 -9.900007e-01 1.469022e+02
    endloop
  endfacet
  facet normal 9.146415e-01 0.000000e+00 4.042660e-01
    outer loop
      vertex   -6.846587e+00 -9.900007e-01 1.469022e+02
      vertex   -6.846587e+00 -1.000001e+00 1.469022e+02
      vertex   -6.827128e+00 -1.000001e+00 1.468581e+02
    endloop
  endfacet
  facet normal 9.146415e-01 0.000000e+00 4.042660e-01
    outer loop
      vertex   -6.846587e+00 -9.900007e-01 1.469022e+02
      vertex   -6.827128e+00 -1.000001e+00 1.468581e+02
      vertex   -6.827128e+00 -9.900007e-01 1.468581e+02
    endloop
  endfacet
  facet normal 8.490819e-01 0.000000e+00 5.282612e-01
    outer loop
      vertex   -6.827128e+00 -9.900007e-01 1.468581e+02
      vertex   -6.827128e+00 -1.000001e+00 1.468581e+02
      vertex   -6.802530e+00 -1.000001e+00 1.468186e+02
    endloop
  endfacet
  facet normal 8.490819e-01 0.000000e+00 5.282612e-01
    outer loop
      vertex   -6.827128e+00 -9.900007e-01 1.468581e+02
      vertex   -6.802530e+00 -1.000001e+00 1.468186e+02
      vertex   -6.802530e+00 -9.900007e-01 1.468186e+02
    endloop
  endfacet
  facet normal 7.777166e-01 0.000000e+00 6.286151e-01
    outer loop
      vertex   -6.802530e+00 -9.900007e-01 1.468186e+02
      vertex   -6.802530e+00 -1.000001e+00 1.468186e+02
      vertex   -6.788075e+00 -1.000001e+00 1.468007e+02
    endloop
  endfacet
  facet normal 7.777166e-01 0.000000e+00 6.286151e-01
    outer loop
      vertex   -6.802530e+00 -9.900007e-01 1.468186e+02
      vertex   -6.788075e+00 -1.000001e+00 1.468007e+02
      vertex   -6.788075e+00 -9.900007e-01 1.468007e+02
    endloop
  endfacet
  facet normal 7.182755e-01 0.000000e+00 6.957588e-01
    outer loop
      vertex   -6.788075e+00 -9.900007e-01 1.468007e+02
      vertex   -6.788075e+00 -1.000001e+00 1.468007e+02
      vertex   -6.772067e+00 -1.000001e+00 1.467842e+02
    endloop
  endfacet
  facet normal 7.182755e-01 0.000000e+00 6.957588e-01
    outer loop
      vertex   -6.788075e+00 -9.900007e-01 1.468007e+02
      vertex   -6.772067e+00 -1.000001e+00 1.467842e+02
      vertex   -6.772067e+00 -9.900007e-01 1.467842e+02
    endloop
  endfacet
  facet normal 6.237465e-01 0.000000e+00 7.816267e-01
    outer loop
      vertex   -6.772067e+00 -9.900007e-01 1.467842e+02
      vertex   -6.772067e+00 -1.000001e+00 1.467842e+02
      vertex   -6.735563e+00 -1.000001e+00 1.467551e+02
    endloop
  endfacet
  facet normal 6.237465e-01 0.000000e+00 7.816267e-01
    outer loop
      vertex   -6.772067e+00 -9.900007e-01 1.467842e+02
      vertex   -6.735563e+00 -1.000001e+00 1.467551e+02
      vertex   -6.735563e+00 -9.900007e-01 1.467551e+02
    endloop
  endfacet
  facet normal 5.065174e-01 0.000000e+00 8.622297e-01
    outer loop
      vertex   -6.735563e+00 -9.900007e-01 1.467551e+02
      vertex   -6.735563e+00 -1.000001e+00 1.467551e+02
      vertex   -6.693801e+00 -1.000001e+00 1.467305e+02
    endloop
  endfacet
  facet normal 5.065174e-01 0.000000e+00 8.622297e-01
    outer loop
      vertex   -6.735563e+00 -9.900007e-01 1.467551e+02
      vertex   -6.693801e+00 -1.000001e+00 1.467305e+02
      vertex   -6.693801e+00 -9.900007e-01 1.467305e+02
    endloop
  endfacet
  facet normal 4.093371e-01 0.000000e+00 9.123832e-01
    outer loop
      vertex   -6.693801e+00 -9.900007e-01 1.467305e+02
      vertex   -6.693801e+00 -1.000001e+00 1.467305e+02
      vertex   -6.647656e+00 -1.000001e+00 1.467098e+02
    endloop
  endfacet
  facet normal 4.093371e-01 0.000000e+00 9.123832e-01
    outer loop
      vertex   -6.693801e+00 -9.900007e-01 1.467305e+02
      vertex   -6.647656e+00 -1.000001e+00 1.467098e+02
      vertex   -6.647656e+00 -9.900007e-01 1.467098e+02
    endloop
  endfacet
  facet normal 3.078230e-01 0.000000e+00 9.514436e-01
    outer loop
      vertex   -6.647656e+00 -9.900007e-01 1.467098e+02
      vertex   -6.647656e+00 -1.000001e+00 1.467098e+02
      vertex   -6.545725e+00 -1.000001e+00 1.466768e+02
    endloop
  endfacet
  facet normal 3.078230e-01 0.000000e+00 9.514436e-01
    outer loop
      vertex   -6.647656e+00 -9.900007e-01 1.467098e+02
      vertex   -6.545725e+00 -1.000001e+00 1.466768e+02
      vertex   -6.545725e+00 -9.900007e-01 1.466768e+02
    endloop
  endfacet
  facet normal 2.392904e-01 0.000000e+00 9.709480e-01
    outer loop
      vertex   -6.545725e+00 -9.900007e-01 1.466768e+02
      vertex   -6.545725e+00 -1.000001e+00 1.466768e+02
      vertex   -6.436781e+00 -1.000001e+00 1.466500e+02
    endloop
  endfacet
  facet normal 2.392904e-01 0.000000e+00 9.709480e-01
    outer loop
      vertex   -6.545725e+00 -9.900007e-01 1.466768e+02
      vertex   -6.436781e+00 -1.000001e+00 1.466500e+02
      vertex   -6.436781e+00 -9.900007e-01 1.466500e+02
    endloop
  endfacet
  facet normal 0.000000e+00 0.000000e+00 1.000000e+00
    outer loop
      vertex   -6.436781e+00 -1.000001e+00 1.466500e+02
      vertex   6.551722e+00 -1.000001e+00 1.466500e+02
      vertex   -6.436781e+00 -9.900007e-01 1.466500e+02
    endloop
  endfacet
  facet normal -0.000000e+00 0.000000e+00 1.000000e+00
    outer loop
      vertex   -6.436781e+00 -9.900007e-01 1.466500e+02
      vertex   6.551722e+00 -1.000001e+00 1.466500e+02
      vertex   6.551722e+00 -9.900007e-01 1.466500e+02
    endloop
  endfacet
  facet normal 0.000000e+00 -1.000000e+00 0.000000e+00
    outer loop
      vertex   -6.896552e+00 -9.900007e-01 1.845500e+02
      vertex   -6.436781e+00 -9.900007e-01 1.466500e+02
      vertex   6.946010e+00 -9.900007e-01 1.845500e+02
    endloop
  endfacet
  facet normal 0.000000e+00 -1.000000e+00 0.000000e+00
    outer loop
      vertex   6.946010e+00 -9.900007e-01 1.845500e+02
      vertex   -6.436781e+00 -9.900007e-01 1.466500e+02
      vertex   6.551722e+00 -9.900007e-01 1.466500e+02
    endloop
  endfacet
  facet normal 0.000000e+00 -1.000000e+00 -0.000000e+00
    outer loop
      vertex   6.946010e+00 -9.900007e-01 1.845500e+02
      vertex   6.551722e+00 -9.900007e-01 1.466500e+02
      vertex   7.011493e+00 -9.900007e-01 1.472247e+02
    endloop
  endfacet
  facet normal 0.000000e+00 -1.000000e+00 0.000000e+00
    outer loop
      vertex   7.011493e+00 -9.900007e-01 1.472247e+02
      vertex   6.551722e+00 -9.900007e-01 1.466500e+02
      vertex   6.660665e+00 -9.900007e-01 1.466768e+02
    endloop
  endfacet
  facet normal 1.373818e-15 -1.000000e+00 -8.797347e-16
    outer loop
      vertex   7.011493e+00 -9.900007e-01 1.472247e+02
      vertex   6.660665e+00 -9.900007e-01 1.466768e+02
      vertex   6.762595e+00 -9.900007e-01 1.467098e+02
    endloop
  endfacet
  facet normal 0.000000e+00 -1.000000e+00 0.000000e+00
    outer loop
      vertex   -6.896552e+00 -9.900007e-01 1.845500e+02
      vertex   -6.896552e+00 -9.900007e-01 1.472247e+02
      vertex   -6.436781e+00 -9.900007e-01 1.466500e+02
    endloop
  endfacet
  facet normal 0.000000e+00 -1.000000e+00 0.000000e+00
    outer loop
      vertex   -6.436781e+00 -9.900007e-01 1.466500e+02
      vertex   -6.896552e+00 -9.900007e-01 1.472247e+02
      vertex   -6.545725e+00 -9.900007e-01 1.466768e+02
    endloop
  endfacet
  facet normal 0.000000e+00 -1.000000e+00 0.000000e+00
    outer loop
      vertex   -6.545725e+00 -9.900007e-01 1.466768e+02
      vertex   -6.896552e+00 -9.900007e-01 1.472247e+02
      vertex   -6.647656e+00 -9.900007e-01 1.467098e+02
    endloop
  endfacet
  facet normal -3.072246e-15 -1.000000e+00 -1.485129e-15
    outer loop
      vertex   -6.647656e+00 -9.900007e-01 1.467098e+02
      vertex   -6.896552e+00 -9.900007e-01 1.472247e+02
      vertex   -6.693801e+00 -9.900007e-01 1.467305e+02
    endloop
  endfacet
  facet normal 3.328734e-15 -1.000000e+00 1.141043e-15
    outer loop
      vertex   -6.693801e+00 -9.900007e-01 1.467305e+02
      vertex   -6.896552e+00 -9.900007e-01 1.472247e+02
      vertex   -6.735563e+00 -9.900007e-01 1.467551e+02
    endloop
  endfacet
  facet normal 0.000000e+00 -1.000000e+00 0.000000e+00
    outer loop
      vertex   -6.735563e+00 -9.900007e-01 1.467551e+02
      vertex   -6.896552e+00 -9.900007e-01 1.472247e+02
      vertex   -6.772067e+00 -9.900007e-01 1.467842e+02
    endloop
  endfacet
  facet normal 0.000000e+00 -1.000000e+00 0.000000e+00
    outer loop
      vertex   -6.772067e+00 -9.900007e-01 1.467842e+02
      vertex   -6.896552e+00 -9.900007e-01 1.472247e+02
      vertex   -6.788075e+00 -9.900007e-01 1.468007e+02
    endloop
  endfacet
  facet normal 0.000000e+00 -1.000000e+00 0.000000e+00
    outer loop
      vertex   -6.788075e+00 -9.900007e-01 1.468007e+02
      vertex   -6.896552e+00 -9.900007e-01 1.472247e+02
      vertex   -6.802530e+00 -9.900007e-01 1.468186e+02
    endloop
  endfacet
  facet normal 7.188562e-15 -1.000000e+00 1.664300e-15
    outer loop
      vertex   -6.802530e+00 -9.900007e-01 1.468186e+02
      vertex   -6.896552e+00 -9.900007e-01 1.472247e+02
      vertex   -6.827128e+00 -9.900007e-01 1.468581e+02
    endloop
  endfacet
  facet normal -8.783690e-15 -1.000000e+00 -1.360669e-15
    outer loop
      vertex   -6.827128e+00 -9.900007e-01 1.468581e+02
      vertex   -6.896552e+00 -9.900007e-01 1.472247e+02
      vertex   -6.846587e+00 -9.900007e-01 1.469022e+02
    endloop
  endfacet
  facet normal 9.991448e-15 -1.000000e+00 1.547761e-15
    outer loop
      vertex   -6.846587e+00 -9.900007e-01 1.469022e+02
      vertex   -6.896552e+00 -9.900007e-01 1.472247e+02
      vertex   -6.873029e+00 -9.900007e-01 1.470011e+02
    endloop
  endfacet
  facet normal -2.948740e-15 -1.000000e+00 1.209807e-15
    outer loop
      vertex   6.762595e+00 -9.900007e-01 1.467098e+02
      vertex   6.808740e+00 -9.900007e-01 1.467305e+02
      vertex   7.011493e+00 -9.900007e-01 1.472247e+02
    endloop
  endfacet
  facet normal 0.000000e+00 -1.000000e+00 0.000000e+00
    outer loop
      vertex   7.011493e+00 -9.900007e-01 1.472247e+02
      vertex   6.808740e+00 -9.900007e-01 1.467305e+02
      vertex   6.850502e+00 -9.900007e-01 1.467551e+02
    endloop
  endfacet
  facet normal 4.186719e-15 -1.000000e+00 -1.435162e-15
    outer loop
      vertex   7.011493e+00 -9.900007e-01 1.472247e+02
      vertex   6.850502e+00 -9.900007e-01 1.467551e+02
      vertex   6.887006e+00 -9.900007e-01 1.467842e+02
    endloop
  endfacet
  facet normal -9.424835e-15 -1.000000e+00 2.411362e-15
    outer loop
      vertex   6.887006e+00 -9.900007e-01 1.467842e+02
      vertex   6.903014e+00 -9.900007e-01 1.468007e+02
      vertex   7.011493e+00 -9.900007e-01 1.472247e+02
    endloop
  endfacet
  facet normal 0.000000e+00 -1.000000e+00 0.000000e+00
    outer loop
      vertex   7.011493e+00 -9.900007e-01 1.472247e+02
      vertex   6.903014e+00 -9.900007e-01 1.468007e+02
      vertex   6.917469e+00 -9.900007e-01 1.468186e+02
    endloop
  endfacet
  facet normal 0.000000e+00 -1.000000e+00 0.000000e+00
    outer loop
      vertex   7.011493e+00 -9.900007e-01 1.472247e+02
      vertex   6.917469e+00 -9.900007e-01 1.468186e+02
      vertex   6.942066e+00 -9.900007e-01 1.468581e+02
    endloop
  endfacet
  facet normal 0.000000e+00 -1.000000e+00 0.000000e+00
    outer loop
      vertex   6.942066e+00 -9.900007e-01 1.468581e+02
      vertex   6.961526e+00 -9.900007e-01 1.469022e+02
      vertex   7.011493e+00 -9.900007e-01 1.472247e+02
    endloop
  endfacet
  facet normal 0.000000e+00 -1.000000e+00 0.000000e+00
    outer loop
      vertex   7.011493e+00 -9.900007e-01 1.472247e+02
      vertex   6.961526e+00 -9.900007e-01 1.469022e+02
      vertex   6.987968e+00 -9.900007e-01 1.470011e+02
    endloop
  endfacet
  facet normal -1.075798e-16 -1.000000e+00 7.792361e-16
    outer loop
      vertex   2.965000e+01 -1.000001e+00 1.845500e+02
      vertex   6.946010e+00 -1.000001e+00 1.845500e+02
      vertex   2.715000e+01 -1.000001e+00 1.833500e+02
    endloop
  endfacet
  facet normal -1.538779e-16 -1.000000e+00 -2.699591e-19
    outer loop
      vertex   2.715000e+01 -1.000001e+00 1.833500e+02
      vertex   6.946010e+00 -1.000001e+00 1.845500e+02
      vertex   7.011493e+00 -1.000001e+00 1.472247e+02
    endloop
  endfacet
  facet normal -1.543622e-16 -1.000000e+00 -4.940583e-32
    outer loop
      vertex   2.715000e+01 -1.000001e+00 1.833500e+02
      vertex   7.011493e+00 -1.000001e+00 1.472247e+02
      vertex   2.715000e+01 -1.000001e+00 1.278500e+02
    endloop
  endfacet
  facet normal -1.401732e-16 -1.000000e+00 1.474842e-17
    outer loop
      vertex   2.715000e+01 -1.000001e+00 1.278500e+02
      vertex   7.011493e+00 -1.000001e+00 1.472247e+02
      vertex   6.987968e+00 -1.000001e+00 1.470011e+02
    endloop
  endfacet
  facet normal -1.229719e-16 -1.000000e+00 3.285764e-17
    outer loop
      vertex   2.715000e+01 -1.000001e+00 1.278500e+02
      vertex   6.987968e+00 -1.000001e+00 1.470011e+02
      vertex   6.961526e+00 -1.000001e+00 1.469022e+02
    endloop
  endfacet
  facet normal 3.249904e-15 -1.000000e+00 3.606899e-15
    outer loop
      vertex   6.961526e+00 -1.000001e+00 1.469022e+02
      vertex   6.942066e+00 -1.000001e+00 1.468581e+02
      vertex   2.715000e+01 -1.000001e+00 1.278500e+02
    endloop
  endfacet
  facet normal -3.422627e-15 -1.000000e+00 -3.486803e-15
    outer loop
      vertex   2.715000e+01 -1.000001e+00 1.278500e+02
      vertex   6.942066e+00 -1.000001e+00 1.468581e+02
      vertex   6.917469e+00 -1.000001e+00 1.468186e+02
    endloop
  endfacet
  facet normal -8.740812e-17 -1.000000e+00 7.065027e-17
    outer loop
      vertex   2.715000e+01 -1.000001e+00 1.278500e+02
      vertex   6.917469e+00 -1.000001e+00 1.468186e+02
      vertex   6.903014e+00 -1.000001e+00 1.468007e+02
    endloop
  endfacet
  facet normal -8.052693e-17 -1.000000e+00 7.800214e-17
    outer loop
      vertex   6.903014e+00 -1.000001e+00 1.468007e+02
      vertex   6.887006e+00 -1.000001e+00 1.467842e+02
      vertex   2.715000e+01 -1.000001e+00 1.278500e+02
    endloop
  endfacet
  facet normal -7.066730e-17 -1.000000e+00 8.855373e-17
    outer loop
      vertex   2.715000e+01 -1.000001e+00 1.278500e+02
      vertex   6.887006e+00 -1.000001e+00 1.467842e+02
      vertex   6.850502e+00 -1.000001e+00 1.467551e+02
    endloop
  endfacet
  facet normal 3.201081e-15 -1.000000e+00 3.601626e-15
    outer loop
      vertex   2.715000e+01 -1.000001e+00 1.278500e+02
      vertex   6.850502e+00 -1.000001e+00 1.467551e+02
      vertex   6.808740e+00 -1.000001e+00 1.467305e+02
    endloop
  endfacet
  facet normal -3.290170e-15 -1.000000e+00 -3.391834e-15
    outer loop
      vertex   6.808740e+00 -1.000001e+00 1.467305e+02
      vertex   6.762595e+00 -1.000001e+00 1.467098e+02
      vertex   2.715000e+01 -1.000001e+00 1.278500e+02
    endloop
  endfacet
  facet normal -3.950968e-17 -1.000000e+00 1.221180e-16
    outer loop
      vertex   2.715000e+01 -1.000001e+00 1.278500e+02
      vertex   6.762595e+00 -1.000001e+00 1.467098e+02
      vertex   6.660665e+00 -1.000001e+00 1.466768e+02
    endloop
  endfacet
  facet normal -3.208732e-17 -1.000000e+00 1.301958e-16
    outer loop
      vertex   2.715000e+01 -1.000001e+00 1.278500e+02
      vertex   6.660665e+00 -1.000001e+00 1.466768e+02
      vertex   6.551722e+00 -1.000001e+00 1.466500e+02
    endloop
  endfacet
  facet normal 0.000000e+00 -1.000000e+00 1.653524e-16
    outer loop
      vertex   6.551722e+00 -1.000001e+00 1.466500e+02
      vertex   -6.436781e+00 -1.000001e+00 1.466500e+02
      vertex   2.715000e+01 -1.000001e+00 1.278500e+02
    endloop
  endfacet
  facet normal -1.063197e-16 -1.000000e+00 -2.459107e-17
    outer loop
      vertex   2.715000e+01 -1.000001e+00 1.278500e+02
      vertex   -6.436781e+00 -1.000001e+00 1.466500e+02
      vertex   -2.715000e+01 -1.000001e+00 1.278500e+02
    endloop
  endfacet
  facet normal -2.747047e-17 -1.000000e+00 -1.114646e-16
    outer loop
      vertex   -2.715000e+01 -1.000001e+00 1.278500e+02
      vertex   -6.436781e+00 -1.000001e+00 1.466500e+02
      vertex   -6.545725e+00 -1.000001e+00 1.466768e+02
    endloop
  endfacet
  facet normal -3.381571e-17 -1.000000e+00 -1.045203e-16
    outer loop
      vertex   -2.715000e+01 -1.000001e+00 1.278500e+02
      vertex   -6.545725e+00 -1.000001e+00 1.466768e+02
      vertex   -6.647656e+00 -1.000001e+00 1.467098e+02
    endloop
  endfacet
  facet normal -4.260560e-17 -1.000000e+00 -9.496485e-17
    outer loop
      vertex   -6.647656e+00 -1.000001e+00 1.467098e+02
      vertex   -6.693801e+00 -1.000001e+00 1.467305e+02
      vertex   -2.715000e+01 -1.000001e+00 1.278500e+02
    endloop
  endfacet
  facet normal -5.066045e-17 -1.000000e+00 -8.623779e-17
    outer loop
      vertex   -2.715000e+01 -1.000001e+00 1.278500e+02
      vertex   -6.693801e+00 -1.000001e+00 1.467305e+02
      vertex   -6.735563e+00 -1.000001e+00 1.467551e+02
    endloop
  endfacet
  facet normal -6.041390e-17 -1.000000e+00 -7.570562e-17
    outer loop
      vertex   -2.715000e+01 -1.000001e+00 1.278500e+02
      vertex   -6.735563e+00 -1.000001e+00 1.467551e+02
      vertex   -6.772067e+00 -1.000001e+00 1.467842e+02
    endloop
  endfacet
  facet normal -6.881802e-17 -1.000000e+00 -6.666069e-17
    outer loop
      vertex   -6.772067e+00 -1.000001e+00 1.467842e+02
      vertex   -6.788075e+00 -1.000001e+00 1.468007e+02
      vertex   -2.715000e+01 -1.000001e+00 1.278500e+02
    endloop
  endfacet
  facet normal -7.467979e-17 -1.000000e+00 -6.036240e-17
    outer loop
      vertex   -2.715000e+01 -1.000001e+00 1.278500e+02
      vertex   -6.788075e+00 -1.000001e+00 1.468007e+02
      vertex   -6.802530e+00 -1.000001e+00 1.468186e+02
    endloop
  endfacet
  facet normal -8.288108e-17 -1.000000e+00 -5.156494e-17
    outer loop
      vertex   -2.715000e+01 -1.000001e+00 1.278500e+02
      vertex   -6.802530e+00 -1.000001e+00 1.468186e+02
      vertex   -6.827128e+00 -1.000001e+00 1.468581e+02
    endloop
  endfacet
  facet normal -9.276223e-17 -1.000000e+00 -4.100035e-17
    outer loop
      vertex   -6.827128e+00 -1.000001e+00 1.468581e+02
      vertex   -6.846587e+00 -1.000001e+00 1.469022e+02
      vertex   -2.715000e+01 -1.000001e+00 1.278500e+02
    endloop
  endfacet
  facet normal 1.578477e-15 -1.000000e+00 -1.821998e-15
    outer loop
      vertex   -2.715000e+01 -1.000001e+00 1.278500e+02
      vertex   -6.846587e+00 -1.000001e+00 1.469022e+02
      vertex   -6.873029e+00 -1.000001e+00 1.470011e+02
    endloop
  endfacet
  facet normal -9.826802e-16 -1.000000e+00 8.897230e-16
    outer loop
      vertex   -2.715000e+01 -1.000001e+00 1.278500e+02
      vertex   -6.873029e+00 -1.000001e+00 1.470011e+02
      vertex   -6.896552e+00 -1.000001e+00 1.472247e+02
    endloop
  endfacet
  facet normal -8.563294e-17 -1.000000e+00 -4.800964e-17
    outer loop
      vertex   -2.715000e+01 -1.000001e+00 1.278500e+02
      vertex   -6.896552e+00 -1.000001e+00 1.472247e+02
      vertex   -2.715000e+01 -1.000001e+00 1.833500e+02
    endloop
  endfacet
  facet normal 0.000000e+00 -1.000000e+00 0.000000e+00
    outer loop
      vertex   -2.715000e+01 -1.000001e+00 1.833500e+02
      vertex   -6.896552e+00 -1.000001e+00 1.472247e+02
      vertex   -6.896552e+00 -1.000001e+00 1.845500e+02
    endloop
  endfacet
  facet normal 0.000000e+00 -1.000000e+00 0.000000e+00
    outer loop
      vertex   -2.715000e+01 -1.000001e+00 1.833500e+02
      vertex   -6.896552e+00 -1.000001e+00 1.845500e+02
      vertex   -2.965000e+01 -1.000001e+00 1.845500e+02
    endloop
  endfacet
  facet normal 0.000000e+00 -1.000000e+00 0.000000e+00
    outer loop
      vertex   -2.965000e+01 -1.000001e+00 1.845500e+02
      vertex   -2.965000e+01 -1.000001e+00 1.833500e+02
      vertex   -2.715000e+01 -1.000001e+00 1.833500e+02
    endloop
  endfacet
  facet normal 2.664535e-16 -1.000000e+00 0.000000e+00
    outer loop
      vertex   2.715000e+01 -1.000001e+00 1.833500e+02
      vertex   2.965000e+01 -1.000001e+00 1.833500e+02
      vertex   2.965000e+01 -1.000001e+00 1.845500e+02
    endloop
  endfacet
  facet normal 0.000000e+00 2.842171e-12 1.000000e+00
    outer loop
      vertex   8.563217e+00 -7.152557e-07 1.845500e+02
      vertex   -8.563219e+00 -7.152557e-07 1.845500e+02
      vertex   8.563217e+00 -1.000072e-02 1.845500e+02
    endloop
  endfacet
  facet normal 0.000000e+00 2.842171e-12 1.000000e+00
    outer loop
      vertex   8.563217e+00 -1.000072e-02 1.845500e+02
      vertex   -8.563219e+00 -7.152557e-07 1.845500e+02
      vertex   -8.563219e+00 -1.000072e-02 1.845500e+02
    endloop
  endfacet
  facet normal 0.000000e+00 0.000000e+00 1.000000e+00
    outer loop
      vertex   8.563217e+00 -1.000072e-02 1.845500e+02
      vertex   -8.563219e+00 -1.000072e-02 1.845500e+02
      vertex   -6.896552e+00 -9.900007e-01 1.845500e+02
    endloop
  endfacet
  facet normal 0.000000e+00 0.000000e+00 1.000000e+00
    outer loop
      vertex   -6.896552e+00 -9.900007e-01 1.845500e+02
      vertex   -8.563219e+00 -1.000072e-02 1.845500e+02
      vertex   -2.250608e+01 -1.000072e-02 1.845500e+02
    endloop
  endfacet
  facet normal -1.240433e-15 -1.975774e-14 1.000000e+00
    outer loop
      vertex   -6.896552e+00 -9.900007e-01 1.845500e+02
      vertex   -2.250608e+01 -1.000072e-02 1.845500e+02
      vertex   -2.965000e+01 -1.000001e+00 1.845500e+02
    endloop
  endfacet
  facet normal -3.978450e-15 0.000000e+00 1.000000e+00
    outer loop
      vertex   -2.965000e+01 -1.000001e+00 1.845500e+02
      vertex   -2.250608e+01 -1.000072e-02 1.845500e+02
      vertex   -2.965000e+01 -7.152557e-07 1.845500e+02
    endloop
  endfacet
  facet normal 2.760604e-29 2.842171e-12 1.000000e+00
    outer loop
      vertex   -2.965000e+01 -7.152557e-07 1.845500e+02
      vertex   -2.250608e+01 -1.000072e-02 1.845500e+02
      vertex   -2.250608e+01 -7.152557e-07 1.845500e+02
    endloop
  endfacet
  facet normal -1.249117e-15 0.000000e+00 1.000000e+00
    outer loop
      vertex   -2.965000e+01 -1.000001e+00 1.845500e+02
      vertex   -6.896552e+00 -1.000001e+00 1.845500e+02
      vertex   -6.896552e+00 -9.900007e-01 1.845500e+02
    endloop
  endfacet
  facet normal 0.000000e+00 0.000000e+00 1.000000e+00
    outer loop
      vertex   -6.896552e+00 -9.900007e-01 1.845500e+02
      vertex   6.946010e+00 -9.900007e-01 1.845500e+02
      vertex   8.563217e+00 -1.000072e-02 1.845500e+02
    endloop
  endfacet
  facet normal -0.000000e+00 0.000000e+00 1.000000e+00
    outer loop
      vertex   8.563217e+00 -1.000072e-02 1.845500e+02
      vertex   6.946010e+00 -9.900007e-01 1.845500e+02
      vertex   2.250608e+01 -1.000072e-02 1.845500e+02
    endloop
  endfacet
  facet normal 0.000000e+00 0.000000e+00 1.000000e+00
    outer loop
      vertex   2.250608e+01 -1.000072e-02 1.845500e+02
      vertex   6.946010e+00 -9.900007e-01 1.845500e+02
      vertex   2.965000e+01 -1.000001e+00 1.845500e+02
    endloop
  endfacet
  facet normal -0.000000e+00 0.000000e+00 1.000000e+00
    outer loop
      vertex   2.250608e+01 -1.000072e-02 1.845500e+02
      vertex   2.965000e+01 -1.000001e+00 1.845500e+02
      vertex   2.965000e+01 -7.152557e-07 1.845500e+02
    endloop
  endfacet
  facet normal 0.000000e+00 0.000000e+00 1.000000e+00
    outer loop
      vertex   6.946010e+00 -9.900007e-01 1.845500e+02
      vertex   6.946010e+00 -1.000001e+00 1.845500e+02
      vertex   2.965000e+01 -1.000001e+00 1.845500e+02
    endloop
  endfacet
  facet normal -3.978447e-15 2.842171e-12 1.000000e+00
    outer loop
      vertex   2.965000e+01 -7.152557e-07 1.845500e+02
      vertex   2.250608e+01 -7.152557e-07 1.845500e+02
      vertex   2.250608e+01 -1.000072e-02 1.845500e+02
    endloop
  endfacet
  facet normal 1.136868e-14 0.000000e+00 -1.000000e+00
    outer loop
      vertex   2.715000e+01 -7.152557e-07 1.833500e+02
      vertex   2.965000e+01 -7.152557e-07 1.833500e+02
      vertex   2.715000e+01 -1.000001e+00 1.833500e+02
    endloop
  endfacet
  facet normal 1.136868e-14 0.000000e+00 -1.000000e+00
    outer loop
      vertex   2.715000e+01 -1.000001e+00 1.833500e+02
      vertex   2.965000e+01 -7.152557e-07 1.833500e+02
      vertex   2.965000e+01 -1.000001e+00 1.833500e+02
    endloop
  endfacet
  facet normal 1.000000e+00 0.000000e+00 -0.000000e+00
    outer loop
      vertex   2.965000e+01 -7.152557e-07 1.833500e+02
      vertex   2.965000e+01 -7.152557e-07 1.845500e+02
      vertex   2.965000e+01 -1.000001e+00 1.833500e+02
    endloop
  endfacet
  facet normal 1.000000e+00 0.000000e+00 0.000000e+00
    outer loop
      vertex   2.965000e+01 -1.000001e+00 1.833500e+02
      vertex   2.965000e+01 -7.152557e-07 1.845500e+02
      vertex   2.965000e+01 -1.000001e+00 1.845500e+02
    endloop
  endfacet
  facet normal 4.470348e-07 0.000000e+00 -1.000000e+00
    outer loop
      vertex   -2.965000e+01 -7.152557e-07 1.833500e+02
      vertex   -2.715000e+01 -7.152557e-07 1.833500e+02
      vertex   -2.965000e+01 -1.000001e+00 1.833500e+02
    endloop
  endfacet
  facet normal 4.470348e-07 0.000000e+00 -1.000000e+00
    outer loop
      vertex   -2.965000e+01 -1.000001e+00 1.833500e+02
      vertex   -2.715000e+01 -7.152557e-07 1.833500e+02
      vertex   -2.715000e+01 -1.000001e+00 1.833500e+02
    endloop
  endfacet
  facet normal -1.000000e+00 -0.000000e+00 -0.000000e+00
    outer loop
      vertex   -2.965000e+01 -7.152557e-07 1.845500e+02
      vertex   -2.965000e+01 -7.152557e-07 1.833500e+02
      vertex   -2.965000e+01 -1.000001e+00 1.845500e+02
    endloop
  endfacet
  facet normal -1.000000e+00 0.000000e+00 0.000000e+00
    outer loop
      vertex   -2.965000e+01 -1.000001e+00 1.845500e+02
      vertex   -2.965000e+01 -7.152557e-07 1.833500e+02
      vertex   -2.965000e+01 -1.000001e+00 1.833500e+02
    endloop
  endfacet
  facet normal -1.000000e+00 0.000000e+00 -6.401286e-16
    outer loop
      vertex   -2.715000e+01 -1.000001e+00 1.278500e+02
      vertex   -2.715000e+01 -1.000001e+00 1.833500e+02
      vertex   -2.715000e+01 -7.152557e-07 1.278500e+02
    endloop
  endfacet
  facet normal -1.000000e+00 0.000000e+00 -6.401286e-16
    outer loop
      vertex   -2.715000e+01 -7.152557e-07 1.278500e+02
      vertex   -2.715000e+01 -1.000001e+00 1.833500e+02
      vertex   -2.715000e+01 -7.152557e-07 1.833500e+02
    endloop
  endfacet
  facet normal 2.617100e-16 0.000000e+00 -1.000000e+00
    outer loop
      vertex   2.715000e+01 -1.000001e+00 1.278500e+02
      vertex   -2.715000e+01 -1.000001e+00 1.278500e+02
      vertex   2.715000e+01 -7.152557e-07 1.278500e+02
    endloop
  endfacet
  facet normal 2.617100e-16 0.000000e+00 -1.000000e+00
    outer loop
      vertex   2.715000e+01 -7.152557e-07 1.278500e+02
      vertex   -2.715000e+01 -1.000001e+00 1.278500e+02
      vertex   -2.715000e+01 -7.152557e-07 1.278500e+02
    endloop
  endfacet
  facet normal 1.000000e+00 -0.000000e+00 3.200643e-16
    outer loop
      vertex   2.715000e+01 -1.000001e+00 1.833500e+02
      vertex   2.715000e+01 -1.000001e+00 1.278500e+02
      vertex   2.715000e+01 -7.152557e-07 1.833500e+02
    endloop
  endfacet
  facet normal 1.000000e+00 0.000000e+00 3.200643e-16
    outer loop
      vertex   2.715000e+01 -7.152557e-07 1.833500e+02
      vertex   2.715000e+01 -1.000001e+00 1.278500e+02
      vertex   2.715000e+01 -7.152557e-07 1.278500e+02
    endloop
  endfacet
endsolid
