solid ASCII
  facet normal -2.392935e-01 0.000000e+00 9.709473e-01
    outer loop
      vertex   6.379309e+00 -1.000001e+00 1.466500e+02
      vertex   6.488252e+00 -1.000001e+00 1.466768e+02
      vertex   6.379309e+00 -9.900007e-01 1.466500e+02
    endloop
  endfacet
  facet normal -2.392935e-01 0.000000e+00 9.709473e-01
    outer loop
      vertex   6.379309e+00 -9.900007e-01 1.466500e+02
      vertex   6.488252e+00 -1.000001e+00 1.466768e+02
      vertex   6.488252e+00 -9.900007e-01 1.466768e+02
    endloop
  endfacet
  facet normal -3.078262e-01 0.000000e+00 9.514426e-01
    outer loop
      vertex   6.488252e+00 -9.900007e-01 1.466768e+02
      vertex   6.488252e+00 -1.000001e+00 1.466768e+02
      vertex   6.590183e+00 -1.000001e+00 1.467098e+02
    endloop
  endfacet
  facet normal -3.078262e-01 0.000000e+00 9.514426e-01
    outer loop
      vertex   6.488252e+00 -9.900007e-01 1.466768e+02
      vertex   6.590183e+00 -1.000001e+00 1.467098e+02
      vertex   6.590183e+00 -9.900007e-01 1.467098e+02
    endloop
  endfacet
  facet normal -4.093405e-01 0.000000e+00 9.123817e-01
    outer loop
      vertex   6.590183e+00 -9.900007e-01 1.467098e+02
      vertex   6.590183e+00 -1.000001e+00 1.467098e+02
      vertex   6.636327e+00 -1.000001e+00 1.467305e+02
    endloop
  endfacet
  facet normal -4.093405e-01 0.000000e+00 9.123817e-01
    outer loop
      vertex   6.590183e+00 -9.900007e-01 1.467098e+02
      vertex   6.636327e+00 -1.000001e+00 1.467305e+02
      vertex   6.636327e+00 -9.900007e-01 1.467305e+02
    endloop
  endfacet
  facet normal -5.065208e-01 0.000000e+00 8.622277e-01
    outer loop
      vertex   6.636327e+00 -9.900007e-01 1.467305e+02
      vertex   6.636327e+00 -1.000001e+00 1.467305e+02
      vertex   6.678089e+00 -1.000001e+00 1.467551e+02
    endloop
  endfacet
  facet normal -5.065208e-01 0.000000e+00 8.622277e-01
    outer loop
      vertex   6.636327e+00 -9.900007e-01 1.467305e+02
      vertex   6.678089e+00 -1.000001e+00 1.467551e+02
      vertex   6.678089e+00 -9.900007e-01 1.467551e+02
    endloop
  endfacet
  facet normal -6.237497e-01 0.000000e+00 7.816241e-01
    outer loop
      vertex   6.678089e+00 -9.900007e-01 1.467551e+02
      vertex   6.678089e+00 -1.000001e+00 1.467551e+02
      vertex   6.714593e+00 -1.000001e+00 1.467842e+02
    endloop
  endfacet
  facet normal -6.237497e-01 0.000000e+00 7.816241e-01
    outer loop
      vertex   6.678089e+00 -9.900007e-01 1.467551e+02
      vertex   6.714593e+00 -1.000001e+00 1.467842e+02
      vertex   6.714593e+00 -9.900007e-01 1.467842e+02
    endloop
  endfacet
  facet normal -7.182784e-01 0.000000e+00 6.957558e-01
    outer loop
      vertex   6.714593e+00 -9.900007e-01 1.467842e+02
      vertex   6.714593e+00 -1.000001e+00 1.467842e+02
      vertex   6.730600e+00 -1.000001e+00 1.468007e+02
    endloop
  endfacet
  facet normal -7.182784e-01 0.000000e+00 6.957558e-01
    outer loop
      vertex   6.714593e+00 -9.900007e-01 1.467842e+02
      vertex   6.730600e+00 -1.000001e+00 1.468007e+02
      vertex   6.730600e+00 -9.900007e-01 1.468007e+02
    endloop
  endfacet
  facet normal -7.777190e-01 0.000000e+00 6.286121e-01
    outer loop
      vertex   6.730600e+00 -9.900007e-01 1.468007e+02
      vertex   6.730600e+00 -1.000001e+00 1.468007e+02
      vertex   6.745055e+00 -1.000001e+00 1.468186e+02
    endloop
  endfacet
  facet normal -7.777190e-01 0.000000e+00 6.286121e-01
    outer loop
      vertex   6.730600e+00 -9.900007e-01 1.468007e+02
      vertex   6.745055e+00 -1.000001e+00 1.468186e+02
      vertex   6.745055e+00 -9.900007e-01 1.468186e+02
    endloop
  endfacet
  facet normal -8.490835e-01 0.000000e+00 5.282587e-01
    outer loop
      vertex   6.745055e+00 -9.900007e-01 1.468186e+02
      vertex   6.745055e+00 -1.000001e+00 1.468186e+02
      vertex   6.769653e+00 -1.000001e+00 1.468581e+02
    endloop
  endfacet
  facet normal -8.490835e-01 0.000000e+00 5.282587e-01
    outer loop
      vertex   6.745055e+00 -9.900007e-01 1.468186e+02
      vertex   6.769653e+00 -1.000001e+00 1.468581e+02
      vertex   6.769653e+00 -9.900007e-01 1.468581e+02
    endloop
  endfacet
  facet normal -9.146423e-01 0.000000e+00 4.042641e-01
    outer loop
      vertex   6.769653e+00 -9.900007e-01 1.468581e+02
      vertex   6.769653e+00 -1.000001e+00 1.468581e+02
      vertex   6.789113e+00 -1.000001e+00 1.469022e+02
    endloop
  endfacet
  facet normal -9.146423e-01 0.000000e+00 4.042641e-01
    outer loop
      vertex   6.769653e+00 -9.900007e-01 1.468581e+02
      vertex   6.789113e+00 -1.000001e+00 1.469022e+02
      vertex   6.789113e+00 -9.900007e-01 1.469022e+02
    endloop
  endfacet
  facet normal -9.661087e-01 0.000000e+00 2.581356e-01
    outer loop
      vertex   6.789113e+00 -9.900007e-01 1.469022e+02
      vertex   6.789113e+00 -1.000001e+00 1.469022e+02
      vertex   6.815554e+00 -1.000001e+00 1.470011e+02
    endloop
  endfacet
  facet normal -9.661087e-01 0.000000e+00 2.581356e-01
    outer loop
      vertex   6.789113e+00 -9.900007e-01 1.469022e+02
      vertex   6.815554e+00 -1.000001e+00 1.470011e+02
      vertex   6.815554e+00 -9.900007e-01 1.470011e+02
    endloop
  endfacet
  facet normal -9.945109e-01 0.000000e+00 1.046326e-01
    outer loop
      vertex   6.815554e+00 -9.900007e-01 1.470011e+02
      vertex   6.815554e+00 -1.000001e+00 1.470011e+02
      vertex   6.839078e+00 -1.000001e+00 1.472247e+02
    endloop
  endfacet
  facet normal -9.945109e-01 0.000000e+00 1.046326e-01
    outer loop
      vertex   6.815554e+00 -9.900007e-01 1.470011e+02
      vertex   6.839078e+00 -1.000001e+00 1.472247e+02
      vertex   6.839078e+00 -9.900007e-01 1.472247e+02
    endloop
  endfacet
  facet normal -1.000000e+00 0.000000e+00 0.000000e+00
    outer loop
      vertex   6.839078e+00 -1.000001e+00 1.472247e+02
      vertex   6.839078e+00 -1.000001e+00 1.597534e+02
      vertex   6.839078e+00 -9.900007e-01 1.472247e+02
    endloop
  endfacet
  facet normal -1.000000e+00 0.000000e+00 0.000000e+00
    outer loop
      vertex   6.839078e+00 -9.900007e-01 1.472247e+02
      vertex   6.839078e+00 -1.000001e+00 1.597534e+02
      vertex   6.839078e+00 -9.900007e-01 1.597534e+02
    endloop
  endfacet
  facet normal -9.832832e-01 0.000000e+00 -1.820826e-01
    outer loop
      vertex   6.839078e+00 -1.000001e+00 1.597534e+02
      vertex   6.803159e+00 -1.000001e+00 1.599474e+02
      vertex   6.839078e+00 -9.900007e-01 1.597534e+02
    endloop
  endfacet
  facet normal -9.832832e-01 0.000000e+00 -1.820826e-01
    outer loop
      vertex   6.839078e+00 -9.900007e-01 1.597534e+02
      vertex   6.803159e+00 -1.000001e+00 1.599474e+02
      vertex   6.803159e+00 -9.900007e-01 1.599474e+02
    endloop
  endfacet
  facet normal -9.515946e-01 -0.000000e+00 -3.073560e-01
    outer loop
      vertex   6.803159e+00 -9.900007e-01 1.599474e+02
      vertex   6.803159e+00 -1.000001e+00 1.599474e+02
      vertex   6.789128e+00 -1.000001e+00 1.599909e+02
    endloop
  endfacet
  facet normal -9.515946e-01 0.000000e+00 -3.073560e-01
    outer loop
      vertex   6.803159e+00 -9.900007e-01 1.599474e+02
      vertex   6.789128e+00 -1.000001e+00 1.599909e+02
      vertex   6.789128e+00 -9.900007e-01 1.599909e+02
    endloop
  endfacet
  facet normal -9.172764e-01 -0.000000e+00 -3.982513e-01
    outer loop
      vertex   6.789128e+00 -9.900007e-01 1.599909e+02
      vertex   6.789128e+00 -1.000001e+00 1.599909e+02
      vertex   6.771730e+00 -1.000001e+00 1.600309e+02
    endloop
  endfacet
  facet normal -9.172764e-01 0.000000e+00 -3.982513e-01
    outer loop
      vertex   6.789128e+00 -9.900007e-01 1.599909e+02
      vertex   6.771730e+00 -1.000001e+00 1.600309e+02
      vertex   6.771730e+00 -9.900007e-01 1.600309e+02
    endloop
  endfacet
  facet normal -8.593790e-01 -0.000000e+00 -5.113392e-01
    outer loop
      vertex   6.771730e+00 -9.900007e-01 1.600309e+02
      vertex   6.771730e+00 -1.000001e+00 1.600309e+02
      vertex   6.750291e+00 -1.000001e+00 1.600670e+02
    endloop
  endfacet
  facet normal -8.593790e-01 0.000000e+00 -5.113392e-01
    outer loop
      vertex   6.771730e+00 -9.900007e-01 1.600309e+02
      vertex   6.750291e+00 -1.000001e+00 1.600670e+02
      vertex   6.750291e+00 -9.900007e-01 1.600670e+02
    endloop
  endfacet
  facet normal -7.675454e-01 -0.000000e+00 -6.409946e-01
    outer loop
      vertex   6.750291e+00 -9.900007e-01 1.600670e+02
      vertex   6.750291e+00 -1.000001e+00 1.600670e+02
      vertex   6.724137e+00 -1.000001e+00 1.600983e+02
    endloop
  endfacet
  facet normal -7.675454e-01 0.000000e+00 -6.409946e-01
    outer loop
      vertex   6.750291e+00 -9.900007e-01 1.600670e+02
      vertex   6.724137e+00 -1.000001e+00 1.600983e+02
      vertex   6.724137e+00 -9.900007e-01 1.600983e+02
    endloop
  endfacet
  facet normal -6.409938e-01 -0.000000e+00 -7.675460e-01
    outer loop
      vertex   6.724137e+00 -9.900007e-01 1.600983e+02
      vertex   6.724137e+00 -1.000001e+00 1.600983e+02
      vertex   6.692820e+00 -1.000001e+00 1.601244e+02
    endloop
  endfacet
  facet normal -6.409938e-01 0.000000e+00 -7.675460e-01
    outer loop
      vertex   6.724137e+00 -9.900007e-01 1.600983e+02
      vertex   6.692820e+00 -1.000001e+00 1.601244e+02
      vertex   6.692820e+00 -9.900007e-01 1.601244e+02
    endloop
  endfacet
  facet normal -5.113365e-01 -0.000000e+00 -8.593806e-01
    outer loop
      vertex   6.692820e+00 -9.900007e-01 1.601244e+02
      vertex   6.692820e+00 -1.000001e+00 1.601244e+02
      vertex   6.656788e+00 -1.000001e+00 1.601459e+02
    endloop
  endfacet
  facet normal -5.113365e-01 0.000000e+00 -8.593806e-01
    outer loop
      vertex   6.692820e+00 -9.900007e-01 1.601244e+02
      vertex   6.656788e+00 -1.000001e+00 1.601459e+02
      vertex   6.656788e+00 -9.900007e-01 1.601459e+02
    endloop
  endfacet
  facet normal -3.982467e-01 -0.000000e+00 -9.172783e-01
    outer loop
      vertex   6.656788e+00 -9.900007e-01 1.601459e+02
      vertex   6.656788e+00 -1.000001e+00 1.601459e+02
      vertex   6.616715e+00 -1.000001e+00 1.601633e+02
    endloop
  endfacet
  facet normal -3.982467e-01 0.000000e+00 -9.172783e-01
    outer loop
      vertex   6.656788e+00 -9.900007e-01 1.601459e+02
      vertex   6.616715e+00 -1.000001e+00 1.601633e+02
      vertex   6.616715e+00 -9.900007e-01 1.601633e+02
    endloop
  endfacet
  facet normal -3.073499e-01 -0.000000e+00 -9.515966e-01
    outer loop
      vertex   6.616715e+00 -9.900007e-01 1.601633e+02
      vertex   6.616715e+00 -1.000001e+00 1.601633e+02
      vertex   6.573275e+00 -1.000001e+00 1.601773e+02
    endloop
  endfacet
  facet normal -3.073499e-01 0.000000e+00 -9.515966e-01
    outer loop
      vertex   6.616715e+00 -9.900007e-01 1.601633e+02
      vertex   6.573275e+00 -1.000001e+00 1.601773e+02
      vertex   6.573275e+00 -9.900007e-01 1.601773e+02
    endloop
  endfacet
  facet normal -1.820745e-01 -0.000000e+00 -9.832847e-01
    outer loop
      vertex   6.573275e+00 -9.900007e-01 1.601773e+02
      vertex   6.573275e+00 -1.000001e+00 1.601773e+02
      vertex   6.379309e+00 -1.000001e+00 1.602132e+02
    endloop
  endfacet
  facet normal -1.820745e-01 0.000000e+00 -9.832847e-01
    outer loop
      vertex   6.573275e+00 -9.900007e-01 1.601773e+02
      vertex   6.379309e+00 -1.000001e+00 1.602132e+02
      vertex   6.379309e+00 -9.900007e-01 1.602132e+02
    endloop
  endfacet
  facet normal 0.000000e+00 0.000000e+00 -1.000000e+00
    outer loop
      vertex   6.379309e+00 -1.000001e+00 1.602132e+02
      vertex   -6.494255e+00 -1.000001e+00 1.602132e+02
      vertex   6.379309e+00 -9.900007e-01 1.602132e+02
    endloop
  endfacet
  facet normal -0.000000e+00 0.000000e+00 -1.000000e+00
    outer loop
      vertex   6.379309e+00 -9.900007e-01 1.602132e+02
      vertex   -6.494255e+00 -1.000001e+00 1.602132e+02
      vertex   -6.494255e+00 -9.900007e-01 1.602132e+02
    endloop
  endfacet
  facet normal 1.820745e-01 0.000000e+00 -9.832847e-01
    outer loop
      vertex   -6.494255e+00 -1.000001e+00 1.602132e+02
      vertex   -6.688221e+00 -1.000001e+00 1.601773e+02
      vertex   -6.494255e+00 -9.900007e-01 1.602132e+02
    endloop
  endfacet
  facet normal 1.820745e-01 0.000000e+00 -9.832847e-01
    outer loop
      vertex   -6.494255e+00 -9.900007e-01 1.602132e+02
      vertex   -6.688221e+00 -1.000001e+00 1.601773e+02
      vertex   -6.688221e+00 -9.900007e-01 1.601773e+02
    endloop
  endfacet
  facet normal 3.073499e-01 0.000000e+00 -9.515966e-01
    outer loop
      vertex   -6.688221e+00 -9.900007e-01 1.601773e+02
      vertex   -6.688221e+00 -1.000001e+00 1.601773e+02
      vertex   -6.731662e+00 -1.000001e+00 1.601633e+02
    endloop
  endfacet
  facet normal 3.073499e-01 0.000000e+00 -9.515966e-01
    outer loop
      vertex   -6.688221e+00 -9.900007e-01 1.601773e+02
      vertex   -6.731662e+00 -1.000001e+00 1.601633e+02
      vertex   -6.731662e+00 -9.900007e-01 1.601633e+02
    endloop
  endfacet
  facet normal 3.982467e-01 0.000000e+00 -9.172783e-01
    outer loop
      vertex   -6.731662e+00 -9.900007e-01 1.601633e+02
      vertex   -6.731662e+00 -1.000001e+00 1.601633e+02
      vertex   -6.771734e+00 -1.000001e+00 1.601459e+02
    endloop
  endfacet
  facet normal 3.982467e-01 0.000000e+00 -9.172783e-01
    outer loop
      vertex   -6.731662e+00 -9.900007e-01 1.601633e+02
      vertex   -6.771734e+00 -1.000001e+00 1.601459e+02
      vertex   -6.771734e+00 -9.900007e-01 1.601459e+02
    endloop
  endfacet
  facet normal 5.113365e-01 0.000000e+00 -8.593806e-01
    outer loop
      vertex   -6.771734e+00 -9.900007e-01 1.601459e+02
      vertex   -6.771734e+00 -1.000001e+00 1.601459e+02
      vertex   -6.807766e+00 -1.000001e+00 1.601244e+02
    endloop
  endfacet
  facet normal 5.113365e-01 0.000000e+00 -8.593806e-01
    outer loop
      vertex   -6.771734e+00 -9.900007e-01 1.601459e+02
      vertex   -6.807766e+00 -1.000001e+00 1.601244e+02
      vertex   -6.807766e+00 -9.900007e-01 1.601244e+02
    endloop
  endfacet
  facet normal 6.409938e-01 0.000000e+00 -7.675460e-01
    outer loop
      vertex   -6.807766e+00 -9.900007e-01 1.601244e+02
      vertex   -6.807766e+00 -1.000001e+00 1.601244e+02
      vertex   -6.839083e+00 -1.000001e+00 1.600983e+02
    endloop
  endfacet
  facet normal 6.409938e-01 0.000000e+00 -7.675460e-01
    outer loop
      vertex   -6.807766e+00 -9.900007e-01 1.601244e+02
      vertex   -6.839083e+00 -1.000001e+00 1.600983e+02
      vertex   -6.839083e+00 -9.900007e-01 1.600983e+02
    endloop
  endfacet
  facet normal 7.675454e-01 0.000000e+00 -6.409946e-01
    outer loop
      vertex   -6.839083e+00 -9.900007e-01 1.600983e+02
      vertex   -6.839083e+00 -1.000001e+00 1.600983e+02
      vertex   -6.865237e+00 -1.000001e+00 1.600670e+02
    endloop
  endfacet
  facet normal 7.675454e-01 0.000000e+00 -6.409946e-01
    outer loop
      vertex   -6.839083e+00 -9.900007e-01 1.600983e+02
      vertex   -6.865237e+00 -1.000001e+00 1.600670e+02
      vertex   -6.865237e+00 -9.900007e-01 1.600670e+02
    endloop
  endfacet
  facet normal 8.593790e-01 0.000000e+00 -5.113392e-01
    outer loop
      vertex   -6.865237e+00 -9.900007e-01 1.600670e+02
      vertex   -6.865237e+00 -1.000001e+00 1.600670e+02
      vertex   -6.886676e+00 -1.000001e+00 1.600309e+02
    endloop
  endfacet
  facet normal 8.593790e-01 0.000000e+00 -5.113392e-01
    outer loop
      vertex   -6.865237e+00 -9.900007e-01 1.600670e+02
      vertex   -6.886676e+00 -1.000001e+00 1.600309e+02
      vertex   -6.886676e+00 -9.900007e-01 1.600309e+02
    endloop
  endfacet
  facet normal 9.172764e-01 0.000000e+00 -3.982513e-01
    outer loop
      vertex   -6.886676e+00 -9.900007e-01 1.600309e+02
      vertex   -6.886676e+00 -1.000001e+00 1.600309e+02
      vertex   -6.904075e+00 -1.000001e+00 1.599909e+02
    endloop
  endfacet
  facet normal 9.172764e-01 0.000000e+00 -3.982513e-01
    outer loop
      vertex   -6.886676e+00 -9.900007e-01 1.600309e+02
      vertex   -6.904075e+00 -1.000001e+00 1.599909e+02
      vertex   -6.904075e+00 -9.900007e-01 1.599909e+02
    endloop
  endfacet
  facet normal 9.515946e-01 0.000000e+00 -3.073560e-01
    outer loop
      vertex   -6.904075e+00 -9.900007e-01 1.599909e+02
      vertex   -6.904075e+00 -1.000001e+00 1.599909e+02
      vertex   -6.918105e+00 -1.000001e+00 1.599474e+02
    endloop
  endfacet
  facet normal 9.515946e-01 0.000000e+00 -3.073560e-01
    outer loop
      vertex   -6.904075e+00 -9.900007e-01 1.599909e+02
      vertex   -6.918105e+00 -1.000001e+00 1.599474e+02
      vertex   -6.918105e+00 -9.900007e-01 1.599474e+02
    endloop
  endfacet
  facet normal 9.832832e-01 0.000000e+00 -1.820826e-01
    outer loop
      vertex   -6.918105e+00 -9.900007e-01 1.599474e+02
      vertex   -6.918105e+00 -1.000001e+00 1.599474e+02
      vertex   -6.954024e+00 -1.000001e+00 1.597534e+02
    endloop
  endfacet
  facet normal 9.832832e-01 0.000000e+00 -1.820826e-01
    outer loop
      vertex   -6.918105e+00 -9.900007e-01 1.599474e+02
      vertex   -6.954024e+00 -1.000001e+00 1.597534e+02
      vertex   -6.954024e+00 -9.900007e-01 1.597534e+02
    endloop
  endfacet
  facet normal 1.000000e+00 -0.000000e+00 0.000000e+00
    outer loop
      vertex   -6.954024e+00 -1.000001e+00 1.597534e+02
      vertex   -6.954024e+00 -1.000001e+00 1.472247e+02
      vertex   -6.954024e+00 -9.900007e-01 1.597534e+02
    endloop
  endfacet
  facet normal 1.000000e+00 0.000000e+00 0.000000e+00
    outer loop
      vertex   -6.954024e+00 -9.900007e-01 1.597534e+02
      vertex   -6.954024e+00 -1.000001e+00 1.472247e+02
      vertex   -6.954024e+00 -9.900007e-01 1.472247e+02
    endloop
  endfacet
  facet normal 9.945109e-01 -0.000000e+00 1.046326e-01
    outer loop
      vertex   -6.954024e+00 -1.000001e+00 1.472247e+02
      vertex   -6.930500e+00 -1.000001e+00 1.470011e+02
      vertex   -6.954024e+00 -9.900007e-01 1.472247e+02
    endloop
  endfacet
  facet normal 9.945109e-01 0.000000e+00 1.046326e-01
    outer loop
      vertex   -6.954024e+00 -9.900007e-01 1.472247e+02
      vertex   -6.930500e+00 -1.000001e+00 1.470011e+02
      vertex   -6.930500e+00 -9.900007e-01 1.470011e+02
    endloop
  endfacet
  facet normal 9.661087e-01 0.000000e+00 2.581356e-01
    outer loop
      vertex   -6.930500e+00 -9.900007e-01 1.470011e+02
      vertex   -6.930500e+00 -1.000001e+00 1.470011e+02
      vertex   -6.904059e+00 -1.000001e+00 1.469022e+02
    endloop
  endfacet
  facet normal 9.661087e-01 0.000000e+00 2.581356e-01
    outer loop
      vertex   -6.930500e+00 -9.900007e-01 1.470011e+02
      vertex   -6.904059e+00 -1.000001e+00 1.469022e+02
      vertex   -6.904059e+00 -9.900007e-01 1.469022e+02
    endloop
  endfacet
  facet normal 9.146423e-01 0.000000e+00 4.042641e-01
    outer loop
      vertex   -6.904059e+00 -9.900007e-01 1.469022e+02
      vertex   -6.904059e+00 -1.000001e+00 1.469022e+02
      vertex   -6.884599e+00 -1.000001e+00 1.468581e+02
    endloop
  endfacet
  facet normal 9.146423e-01 0.000000e+00 4.042641e-01
    outer loop
      vertex   -6.904059e+00 -9.900007e-01 1.469022e+02
      vertex   -6.884599e+00 -1.000001e+00 1.468581e+02
      vertex   -6.884599e+00 -9.900007e-01 1.468581e+02
    endloop
  endfacet
  facet normal 8.490835e-01 0.000000e+00 5.282587e-01
    outer loop
      vertex   -6.884599e+00 -9.900007e-01 1.468581e+02
      vertex   -6.884599e+00 -1.000001e+00 1.468581e+02
      vertex   -6.860002e+00 -1.000001e+00 1.468186e+02
    endloop
  endfacet
  facet normal 8.490835e-01 0.000000e+00 5.282587e-01
    outer loop
      vertex   -6.884599e+00 -9.900007e-01 1.468581e+02
      vertex   -6.860002e+00 -1.000001e+00 1.468186e+02
      vertex   -6.860002e+00 -9.900007e-01 1.468186e+02
    endloop
  endfacet
  facet normal 7.777190e-01 0.000000e+00 6.286121e-01
    outer loop
      vertex   -6.860002e+00 -9.900007e-01 1.468186e+02
      vertex   -6.860002e+00 -1.000001e+00 1.468186e+02
      vertex   -6.845547e+00 -1.000001e+00 1.468007e+02
    endloop
  endfacet
  facet normal 7.777190e-01 0.000000e+00 6.286121e-01
    outer loop
      vertex   -6.860002e+00 -9.900007e-01 1.468186e+02
      vertex   -6.845547e+00 -1.000001e+00 1.468007e+02
      vertex   -6.845547e+00 -9.900007e-01 1.468007e+02
    endloop
  endfacet
  facet normal 7.182784e-01 0.000000e+00 6.957558e-01
    outer loop
      vertex   -6.845547e+00 -9.900007e-01 1.468007e+02
      vertex   -6.845547e+00 -1.000001e+00 1.468007e+02
      vertex   -6.829539e+00 -1.000001e+00 1.467842e+02
    endloop
  endfacet
  facet normal 7.182784e-01 0.000000e+00 6.957558e-01
    outer loop
      vertex   -6.845547e+00 -9.900007e-01 1.468007e+02
      vertex   -6.829539e+00 -1.000001e+00 1.467842e+02
      vertex   -6.829539e+00 -9.900007e-01 1.467842e+02
    endloop
  endfacet
  facet normal 6.237497e-01 0.000000e+00 7.816241e-01
    outer loop
      vertex   -6.829539e+00 -9.900007e-01 1.467842e+02
      vertex   -6.829539e+00 -1.000001e+00 1.467842e+02
      vertex   -6.793036e+00 -1.000001e+00 1.467551e+02
    endloop
  endfacet
  facet normal 6.237497e-01 0.000000e+00 7.816241e-01
    outer loop
      vertex   -6.829539e+00 -9.900007e-01 1.467842e+02
      vertex   -6.793036e+00 -1.000001e+00 1.467551e+02
      vertex   -6.793036e+00 -9.900007e-01 1.467551e+02
    endloop
  endfacet
  facet normal 5.065208e-01 0.000000e+00 8.622277e-01
    outer loop
      vertex   -6.793036e+00 -9.900007e-01 1.467551e+02
      vertex   -6.793036e+00 -1.000001e+00 1.467551e+02
      vertex   -6.751274e+00 -1.000001e+00 1.467305e+02
    endloop
  endfacet
  facet normal 5.065208e-01 0.000000e+00 8.622277e-01
    outer loop
      vertex   -6.793036e+00 -9.900007e-01 1.467551e+02
      vertex   -6.751274e+00 -1.000001e+00 1.467305e+02
      vertex   -6.751274e+00 -9.900007e-01 1.467305e+02
    endloop
  endfacet
  facet normal 4.093405e-01 0.000000e+00 9.123817e-01
    outer loop
      vertex   -6.751274e+00 -9.900007e-01 1.467305e+02
      vertex   -6.751274e+00 -1.000001e+00 1.467305e+02
      vertex   -6.705129e+00 -1.000001e+00 1.467098e+02
    endloop
  endfacet
  facet normal 4.093405e-01 0.000000e+00 9.123817e-01
    outer loop
      vertex   -6.751274e+00 -9.900007e-01 1.467305e+02
      vertex   -6.705129e+00 -1.000001e+00 1.467098e+02
      vertex   -6.705129e+00 -9.900007e-01 1.467098e+02
    endloop
  endfacet
  facet normal 3.078262e-01 0.000000e+00 9.514426e-01
    outer loop
      vertex   -6.705129e+00 -9.900007e-01 1.467098e+02
      vertex   -6.705129e+00 -1.000001e+00 1.467098e+02
      vertex   -6.603198e+00 -1.000001e+00 1.466768e+02
    endloop
  endfacet
  facet normal 3.078262e-01 0.000000e+00 9.514426e-01
    outer loop
      vertex   -6.705129e+00 -9.900007e-01 1.467098e+02
      vertex   -6.603198e+00 -1.000001e+00 1.466768e+02
      vertex   -6.603198e+00 -9.900007e-01 1.466768e+02
    endloop
  endfacet
  facet normal 2.392935e-01 0.000000e+00 9.709473e-01
    outer loop
      vertex   -6.603198e+00 -9.900007e-01 1.466768e+02
      vertex   -6.603198e+00 -1.000001e+00 1.466768e+02
      vertex   -6.494255e+00 -1.000001e+00 1.466500e+02
    endloop
  endfacet
  facet normal 2.392935e-01 0.000000e+00 9.709473e-01
    outer loop
      vertex   -6.603198e+00 -9.900007e-01 1.466768e+02
      vertex   -6.494255e+00 -1.000001e+00 1.466500e+02
      vertex   -6.494255e+00 -9.900007e-01 1.466500e+02
    endloop
  endfacet
  facet normal 0.000000e+00 0.000000e+00 1.000000e+00
    outer loop
      vertex   -6.494255e+00 -1.000001e+00 1.466500e+02
      vertex   6.379309e+00 -1.000001e+00 1.466500e+02
      vertex   -6.494255e+00 -9.900007e-01 1.466500e+02
    endloop
  endfacet
  facet normal -0.000000e+00 0.000000e+00 1.000000e+00
    outer loop
      vertex   -6.494255e+00 -9.900007e-01 1.466500e+02
      vertex   6.379309e+00 -1.000001e+00 1.466500e+02
      vertex   6.379309e+00 -9.900007e-01 1.466500e+02
    endloop
  endfacet
  facet normal 0.000000e+00 -1.000000e+00 0.000000e+00
    outer loop
      vertex   -6.603198e+00 -9.900007e-01 1.466768e+02
      vertex   -6.494255e+00 -9.900007e-01 1.466500e+02
      vertex   -6.954024e+00 -9.900007e-01 1.472247e+02
    endloop
  endfacet
  facet normal 0.000000e+00 -1.000000e+00 0.000000e+00
    outer loop
      vertex   -6.954024e+00 -9.900007e-01 1.472247e+02
      vertex   -6.494255e+00 -9.900007e-01 1.466500e+02
      vertex   6.379309e+00 -9.900007e-01 1.466500e+02
    endloop
  endfacet
  facet normal 0.000000e+00 -1.000000e+00 0.000000e+00
    outer loop
      vertex   -6.954024e+00 -9.900007e-01 1.472247e+02
      vertex   6.379309e+00 -9.900007e-01 1.466500e+02
      vertex   6.839078e+00 -9.900007e-01 1.472247e+02
    endloop
  endfacet
  facet normal 0.000000e+00 -1.000000e+00 0.000000e+00
    outer loop
      vertex   6.839078e+00 -9.900007e-01 1.472247e+02
      vertex   6.379309e+00 -9.900007e-01 1.466500e+02
      vertex   6.488252e+00 -9.900007e-01 1.466768e+02
    endloop
  endfacet
  facet normal 9.278964e-16 -1.000000e+00 -5.941811e-16
    outer loop
      vertex   6.839078e+00 -9.900007e-01 1.472247e+02
      vertex   6.488252e+00 -9.900007e-01 1.466768e+02
      vertex   6.815554e+00 -9.900007e-01 1.470011e+02
    endloop
  endfacet
  facet normal -1.644791e-16 -1.000000e+00 5.083790e-16
    outer loop
      vertex   6.815554e+00 -9.900007e-01 1.470011e+02
      vertex   6.488252e+00 -9.900007e-01 1.466768e+02
      vertex   6.590183e+00 -9.900007e-01 1.467098e+02
    endloop
  endfacet
  facet normal -3.677589e-15 -1.000000e+00 3.226378e-15
    outer loop
      vertex   6.815554e+00 -9.900007e-01 1.470011e+02
      vertex   6.590183e+00 -9.900007e-01 1.467098e+02
      vertex   6.789113e+00 -9.900007e-01 1.469022e+02
    endloop
  endfacet
  facet normal -4.005753e-15 -1.000000e+00 3.565786e-15
    outer loop
      vertex   6.789113e+00 -9.900007e-01 1.469022e+02
      vertex   6.590183e+00 -9.900007e-01 1.467098e+02
      vertex   6.636327e+00 -9.900007e-01 1.467305e+02
    endloop
  endfacet
  facet normal 1.114495e-14 -1.000000e+00 -9.920863e-15
    outer loop
      vertex   6.789113e+00 -9.900007e-01 1.469022e+02
      vertex   6.636327e+00 -9.900007e-01 1.467305e+02
      vertex   6.678089e+00 -9.900007e-01 1.467551e+02
    endloop
  endfacet
  facet normal 3.028723e-15 -1.000000e+00 -3.795309e-15
    outer loop
      vertex   6.678089e+00 -9.900007e-01 1.467551e+02
      vertex   6.714593e+00 -9.900007e-01 1.467842e+02
      vertex   6.789113e+00 -9.900007e-01 1.469022e+02
    endloop
  endfacet
  facet normal -1.435070e-14 -1.000000e+00 7.182733e-15
    outer loop
      vertex   6.789113e+00 -9.900007e-01 1.469022e+02
      vertex   6.714593e+00 -9.900007e-01 1.467842e+02
      vertex   6.730600e+00 -9.900007e-01 1.468007e+02
    endloop
  endfacet
  facet normal 4.727321e-15 -1.000000e+00 -3.820983e-15
    outer loop
      vertex   6.789113e+00 -9.900007e-01 1.469022e+02
      vertex   6.730600e+00 -9.900007e-01 1.468007e+02
      vertex   6.745055e+00 -9.900007e-01 1.468186e+02
    endloop
  endfacet
  facet normal 1.399683e-14 -1.000000e+00 -8.708153e-15
    outer loop
      vertex   6.745055e+00 -9.900007e-01 1.468186e+02
      vertex   6.769653e+00 -9.900007e-01 1.468581e+02
      vertex   6.789113e+00 -9.900007e-01 1.469022e+02
    endloop
  endfacet
  facet normal 0.000000e+00 -1.000000e+00 0.000000e+00
    outer loop
      vertex   -6.954024e+00 -9.900007e-01 1.472247e+02
      vertex   6.839078e+00 -9.900007e-01 1.472247e+02
      vertex   -6.954024e+00 -9.900007e-01 1.597534e+02
    endloop
  endfacet
  facet normal 0.000000e+00 -1.000000e+00 0.000000e+00
    outer loop
      vertex   -6.954024e+00 -9.900007e-01 1.597534e+02
      vertex   6.839078e+00 -9.900007e-01 1.472247e+02
      vertex   6.839078e+00 -9.900007e-01 1.597534e+02
    endloop
  endfacet
  facet normal 0.000000e+00 -1.000000e+00 0.000000e+00
    outer loop
      vertex   -6.954024e+00 -9.900007e-01 1.597534e+02
      vertex   6.839078e+00 -9.900007e-01 1.597534e+02
      vertex   -6.494255e+00 -9.900007e-01 1.602132e+02
    endloop
  endfacet
  facet normal 0.000000e+00 -1.000000e+00 0.000000e+00
    outer loop
      vertex   -6.494255e+00 -9.900007e-01 1.602132e+02
      vertex   6.839078e+00 -9.900007e-01 1.597534e+02
      vertex   6.379309e+00 -9.900007e-01 1.602132e+02
    endloop
  endfacet
  facet normal 0.000000e+00 -1.000000e+00 0.000000e+00
    outer loop
      vertex   6.379309e+00 -9.900007e-01 1.602132e+02
      vertex   6.839078e+00 -9.900007e-01 1.597534e+02
      vertex   6.803159e+00 -9.900007e-01 1.599474e+02
    endloop
  endfacet
  facet normal 0.000000e+00 -1.000000e+00 0.000000e+00
    outer loop
      vertex   6.379309e+00 -9.900007e-01 1.602132e+02
      vertex   6.803159e+00 -9.900007e-01 1.599474e+02
      vertex   6.573275e+00 -9.900007e-01 1.601773e+02
    endloop
  endfacet
  facet normal 3.775032e-15 -1.000000e+00 3.775044e-15
    outer loop
      vertex   6.573275e+00 -9.900007e-01 1.601773e+02
      vertex   6.803159e+00 -9.900007e-01 1.599474e+02
      vertex   6.789128e+00 -9.900007e-01 1.599909e+02
    endloop
  endfacet
  facet normal 3.775015e-15 -1.000000e+00 3.775025e-15
    outer loop
      vertex   6.573275e+00 -9.900007e-01 1.601773e+02
      vertex   6.789128e+00 -9.900007e-01 1.599909e+02
      vertex   6.616715e+00 -9.900007e-01 1.601633e+02
    endloop
  endfacet
  facet normal -4.896329e-15 -1.000000e+00 -4.896342e-15
    outer loop
      vertex   6.616715e+00 -9.900007e-01 1.601633e+02
      vertex   6.789128e+00 -9.900007e-01 1.599909e+02
      vertex   6.771730e+00 -9.900007e-01 1.600309e+02
    endloop
  endfacet
  facet normal -4.896307e-15 -1.000000e+00 -4.896316e-15
    outer loop
      vertex   6.616715e+00 -9.900007e-01 1.601633e+02
      vertex   6.771730e+00 -9.900007e-01 1.600309e+02
      vertex   6.656788e+00 -9.900007e-01 1.601459e+02
    endloop
  endfacet
  facet normal 0.000000e+00 -1.000000e+00 0.000000e+00
    outer loop
      vertex   6.656788e+00 -9.900007e-01 1.601459e+02
      vertex   6.771730e+00 -9.900007e-01 1.600309e+02
      vertex   6.750291e+00 -9.900007e-01 1.600670e+02
    endloop
  endfacet
  facet normal 0.000000e+00 -1.000000e+00 0.000000e+00
    outer loop
      vertex   6.656788e+00 -9.900007e-01 1.601459e+02
      vertex   6.750291e+00 -9.900007e-01 1.600670e+02
      vertex   6.692820e+00 -9.900007e-01 1.601244e+02
    endloop
  endfacet
  facet normal 0.000000e+00 -1.000000e+00 0.000000e+00
    outer loop
      vertex   6.692820e+00 -9.900007e-01 1.601244e+02
      vertex   6.750291e+00 -9.900007e-01 1.600670e+02
      vertex   6.724137e+00 -9.900007e-01 1.600983e+02
    endloop
  endfacet
  facet normal 0.000000e+00 -1.000000e+00 0.000000e+00
    outer loop
      vertex   -6.954024e+00 -9.900007e-01 1.597534e+02
      vertex   -6.494255e+00 -9.900007e-01 1.602132e+02
      vertex   -6.918105e+00 -9.900007e-01 1.599474e+02
    endloop
  endfacet
  facet normal 8.122030e-16 -1.000000e+00 -1.295156e-15
    outer loop
      vertex   -6.918105e+00 -9.900007e-01 1.599474e+02
      vertex   -6.494255e+00 -9.900007e-01 1.602132e+02
      vertex   -6.688221e+00 -9.900007e-01 1.601773e+02
    endloop
  endfacet
  facet normal -4.488387e-15 -1.000000e+00 4.005451e-15
    outer loop
      vertex   -6.918105e+00 -9.900007e-01 1.599474e+02
      vertex   -6.688221e+00 -9.900007e-01 1.601773e+02
      vertex   -6.904075e+00 -9.900007e-01 1.599909e+02
    endloop
  endfacet
  facet normal -7.550030e-15 -1.000000e+00 7.550049e-15
    outer loop
      vertex   -6.904075e+00 -9.900007e-01 1.599909e+02
      vertex   -6.688221e+00 -9.900007e-01 1.601773e+02
      vertex   -6.731662e+00 -9.900007e-01 1.601633e+02
    endloop
  endfacet
  facet normal 4.896329e-15 -1.000000e+00 -4.896342e-15
    outer loop
      vertex   -6.904075e+00 -9.900007e-01 1.599909e+02
      vertex   -6.731662e+00 -9.900007e-01 1.601633e+02
      vertex   -6.886676e+00 -9.900007e-01 1.600309e+02
    endloop
  endfacet
  facet normal 4.896307e-15 -1.000000e+00 -4.896316e-15
    outer loop
      vertex   -6.886676e+00 -9.900007e-01 1.600309e+02
      vertex   -6.731662e+00 -9.900007e-01 1.601633e+02
      vertex   -6.771734e+00 -9.900007e-01 1.601459e+02
    endloop
  endfacet
  facet normal 0.000000e+00 -1.000000e+00 0.000000e+00
    outer loop
      vertex   -6.886676e+00 -9.900007e-01 1.600309e+02
      vertex   -6.771734e+00 -9.900007e-01 1.601459e+02
      vertex   -6.865237e+00 -9.900007e-01 1.600670e+02
    endloop
  endfacet
  facet normal 0.000000e+00 -1.000000e+00 0.000000e+00
    outer loop
      vertex   -6.865237e+00 -9.900007e-01 1.600670e+02
      vertex   -6.771734e+00 -9.900007e-01 1.601459e+02
      vertex   -6.807766e+00 -9.900007e-01 1.601244e+02
    endloop
  endfacet
  facet normal 0.000000e+00 -1.000000e+00 0.000000e+00
    outer loop
      vertex   -6.865237e+00 -9.900007e-01 1.600670e+02
      vertex   -6.807766e+00 -9.900007e-01 1.601244e+02
      vertex   -6.839083e+00 -9.900007e-01 1.600983e+02
    endloop
  endfacet
  facet normal 0.000000e+00 -1.000000e+00 0.000000e+00
    outer loop
      vertex   -6.954024e+00 -9.900007e-01 1.472247e+02
      vertex   -6.930500e+00 -9.900007e-01 1.470011e+02
      vertex   -6.603198e+00 -9.900007e-01 1.466768e+02
    endloop
  endfacet
  facet normal -1.617338e-15 -1.000000e+00 -1.632417e-15
    outer loop
      vertex   -6.603198e+00 -9.900007e-01 1.466768e+02
      vertex   -6.930500e+00 -9.900007e-01 1.470011e+02
      vertex   -6.705129e+00 -9.900007e-01 1.467098e+02
    endloop
  endfacet
  facet normal 2.967539e-15 -1.000000e+00 1.914779e-15
    outer loop
      vertex   -6.705129e+00 -9.900007e-01 1.467098e+02
      vertex   -6.930500e+00 -9.900007e-01 1.470011e+02
      vertex   -6.904059e+00 -9.900007e-01 1.469022e+02
    endloop
  endfacet
  facet normal 3.522579e-15 -1.000000e+00 2.488838e-15
    outer loop
      vertex   -6.705129e+00 -9.900007e-01 1.467098e+02
      vertex   -6.904059e+00 -9.900007e-01 1.469022e+02
      vertex   -6.751274e+00 -9.900007e-01 1.467305e+02
    endloop
  endfacet
  facet normal -7.965183e-16 -1.000000e+00 -1.355877e-15
    outer loop
      vertex   -6.751274e+00 -9.900007e-01 1.467305e+02
      vertex   -6.904059e+00 -9.900007e-01 1.469022e+02
      vertex   -6.793036e+00 -9.900007e-01 1.467551e+02
    endloop
  endfacet
  facet normal 6.132970e-15 -1.000000e+00 3.874008e-15
    outer loop
      vertex   -6.793036e+00 -9.900007e-01 1.467551e+02
      vertex   -6.904059e+00 -9.900007e-01 1.469022e+02
      vertex   -6.829539e+00 -9.900007e-01 1.467842e+02
    endloop
  endfacet
  facet normal -1.993616e-14 -1.000000e+00 -1.259306e-14
    outer loop
      vertex   -6.829539e+00 -9.900007e-01 1.467842e+02
      vertex   -6.904059e+00 -9.900007e-01 1.469022e+02
      vertex   -6.845547e+00 -9.900007e-01 1.468007e+02
    endloop
  endfacet
  facet normal -4.727321e-15 -1.000000e+00 -3.820983e-15
    outer loop
      vertex   -6.845547e+00 -9.900007e-01 1.468007e+02
      vertex   -6.904059e+00 -9.900007e-01 1.469022e+02
      vertex   -6.860002e+00 -9.900007e-01 1.468186e+02
    endloop
  endfacet
  facet normal -1.399683e-14 -1.000000e+00 -8.708153e-15
    outer loop
      vertex   -6.860002e+00 -9.900007e-01 1.468186e+02
      vertex   -6.904059e+00 -9.900007e-01 1.469022e+02
      vertex   -6.884599e+00 -9.900007e-01 1.468581e+02
    endloop
  endfacet
  facet normal -2.275501e-01 0.000000e+00 9.737664e-01
    outer loop
      vertex   3.850572e+00 -1.000001e+00 1.677994e+02
      vertex   3.964575e+00 -1.000001e+00 1.678261e+02
      vertex   3.850572e+00 -9.900007e-01 1.677994e+02
    endloop
  endfacet
  facet normal -2.275501e-01 0.000000e+00 9.737664e-01
    outer loop
      vertex   3.850572e+00 -9.900007e-01 1.677994e+02
      vertex   3.964575e+00 -1.000001e+00 1.678261e+02
      vertex   3.964575e+00 -9.900007e-01 1.678261e+02
    endloop
  endfacet
  facet normal -2.898217e-01 0.000000e+00 9.570806e-01
    outer loop
      vertex   3.964575e+00 -9.900007e-01 1.678261e+02
      vertex   3.964575e+00 -1.000001e+00 1.678261e+02
      vertex   4.072845e+00 -1.000001e+00 1.678589e+02
    endloop
  endfacet
  facet normal -2.898217e-01 0.000000e+00 9.570806e-01
    outer loop
      vertex   3.964575e+00 -9.900007e-01 1.678261e+02
      vertex   4.072845e+00 -1.000001e+00 1.678589e+02
      vertex   4.072845e+00 -9.900007e-01 1.678589e+02
    endloop
  endfacet
  facet normal -3.799693e-01 0.000000e+00 9.249991e-01
    outer loop
      vertex   4.072845e+00 -9.900007e-01 1.678589e+02
      vertex   4.072845e+00 -1.000001e+00 1.678589e+02
      vertex   4.123038e+00 -1.000001e+00 1.678795e+02
    endloop
  endfacet
  facet normal -3.799693e-01 0.000000e+00 9.249991e-01
    outer loop
      vertex   4.072845e+00 -9.900007e-01 1.678589e+02
      vertex   4.123038e+00 -1.000001e+00 1.678795e+02
      vertex   4.123038e+00 -9.900007e-01 1.678795e+02
    endloop
  endfacet
  facet normal -4.646726e-01 0.000000e+00 8.854826e-01
    outer loop
      vertex   4.123038e+00 -9.900007e-01 1.678795e+02
      vertex   4.123038e+00 -1.000001e+00 1.678795e+02
      vertex   4.169649e+00 -1.000001e+00 1.679039e+02
    endloop
  endfacet
  facet normal -4.646726e-01 0.000000e+00 8.854826e-01
    outer loop
      vertex   4.123038e+00 -9.900007e-01 1.678795e+02
      vertex   4.169649e+00 -1.000001e+00 1.679039e+02
      vertex   4.169649e+00 -9.900007e-01 1.679039e+02
    endloop
  endfacet
  facet normal -5.662720e-01 0.000000e+00 8.242184e-01
    outer loop
      vertex   4.169649e+00 -9.900007e-01 1.679039e+02
      vertex   4.169649e+00 -1.000001e+00 1.679039e+02
      vertex   4.211959e+00 -1.000001e+00 1.679330e+02
    endloop
  endfacet
  facet normal -5.662720e-01 0.000000e+00 8.242184e-01
    outer loop
      vertex   4.169649e+00 -9.900007e-01 1.679039e+02
      vertex   4.211959e+00 -1.000001e+00 1.679330e+02
      vertex   4.211959e+00 -9.900007e-01 1.679330e+02
    endloop
  endfacet
  facet normal -6.769830e-01 0.000000e+00 7.359986e-01
    outer loop
      vertex   4.211959e+00 -9.900007e-01 1.679330e+02
      vertex   4.211959e+00 -1.000001e+00 1.679330e+02
      vertex   4.249324e+00 -1.000001e+00 1.679674e+02
    endloop
  endfacet
  facet normal -6.769830e-01 0.000000e+00 7.359986e-01
    outer loop
      vertex   4.211959e+00 -9.900007e-01 1.679330e+02
      vertex   4.249324e+00 -1.000001e+00 1.679674e+02
      vertex   4.249324e+00 -9.900007e-01 1.679674e+02
    endloop
  endfacet
  facet normal -7.720186e-01 0.000000e+00 6.356000e-01
    outer loop
      vertex   4.249324e+00 -9.900007e-01 1.679674e+02
      vertex   4.249324e+00 -1.000001e+00 1.679674e+02
      vertex   4.281872e+00 -1.000001e+00 1.680069e+02
    endloop
  endfacet
  facet normal -7.720186e-01 0.000000e+00 6.356000e-01
    outer loop
      vertex   4.249324e+00 -9.900007e-01 1.679674e+02
      vertex   4.281872e+00 -1.000001e+00 1.680069e+02
      vertex   4.281872e+00 -9.900007e-01 1.680069e+02
    endloop
  endfacet
  facet normal -8.411495e-01 0.000000e+00 5.408026e-01
    outer loop
      vertex   4.281872e+00 -9.900007e-01 1.680069e+02
      vertex   4.281872e+00 -1.000001e+00 1.680069e+02
      vertex   4.310199e+00 -1.000001e+00 1.680510e+02
    endloop
  endfacet
  facet normal -8.411495e-01 0.000000e+00 5.408026e-01
    outer loop
      vertex   4.281872e+00 -9.900007e-01 1.680069e+02
      vertex   4.310199e+00 -1.000001e+00 1.680510e+02
      vertex   4.310199e+00 -9.900007e-01 1.680510e+02
    endloop
  endfacet
  facet normal -9.056488e-01 0.000000e+00 4.240285e-01
    outer loop
      vertex   4.310199e+00 -9.900007e-01 1.680510e+02
      vertex   4.310199e+00 -1.000001e+00 1.680510e+02
      vertex   4.356601e+00 -1.000001e+00 1.681501e+02
    endloop
  endfacet
  facet normal -9.056488e-01 0.000000e+00 4.240285e-01
    outer loop
      vertex   4.310199e+00 -9.900007e-01 1.680510e+02
      vertex   4.356601e+00 -1.000001e+00 1.681501e+02
      vertex   4.356601e+00 -9.900007e-01 1.681501e+02
    endloop
  endfacet
  facet normal -9.560920e-01 0.000000e+00 2.930668e-01
    outer loop
      vertex   4.356601e+00 -9.900007e-01 1.681501e+02
      vertex   4.356601e+00 -1.000001e+00 1.681501e+02
      vertex   4.425285e+00 -1.000001e+00 1.683741e+02
    endloop
  endfacet
  facet normal -9.560920e-01 0.000000e+00 2.930668e-01
    outer loop
      vertex   4.356601e+00 -9.900007e-01 1.681501e+02
      vertex   4.425285e+00 -1.000001e+00 1.683741e+02
      vertex   4.425285e+00 -9.900007e-01 1.683741e+02
    endloop
  endfacet
  facet normal -9.958576e-01 0.000000e+00 9.092613e-02
    outer loop
      vertex   5.902211e+00 -9.900007e-01 1.845500e+02
      vertex   4.425285e+00 -9.900007e-01 1.683741e+02
      vertex   5.902211e+00 -1.000001e+00 1.845500e+02
    endloop
  endfacet
  facet normal -9.958576e-01 0.000000e+00 9.092613e-02
    outer loop
      vertex   5.902211e+00 -1.000001e+00 1.845500e+02
      vertex   4.425285e+00 -9.900007e-01 1.683741e+02
      vertex   4.425285e+00 -1.000001e+00 1.683741e+02
    endloop
  endfacet
  facet normal 9.958576e-01 -0.000000e+00 9.092613e-02
    outer loop
      vertex   -6.017158e+00 -1.000001e+00 1.845500e+02
      vertex   -4.540231e+00 -1.000001e+00 1.683741e+02
      vertex   -6.017158e+00 -9.900007e-01 1.845500e+02
    endloop
  endfacet
  facet normal 9.958576e-01 0.000000e+00 9.092613e-02
    outer loop
      vertex   -6.017158e+00 -9.900007e-01 1.845500e+02
      vertex   -4.540231e+00 -1.000001e+00 1.683741e+02
      vertex   -4.540231e+00 -9.900007e-01 1.683741e+02
    endloop
  endfacet
  facet normal 9.560920e-01 -0.000000e+00 2.930668e-01
    outer loop
      vertex   -4.540231e+00 -1.000001e+00 1.683741e+02
      vertex   -4.471548e+00 -1.000001e+00 1.681501e+02
      vertex   -4.540231e+00 -9.900007e-01 1.683741e+02
    endloop
  endfacet
  facet normal 9.560920e-01 0.000000e+00 2.930668e-01
    outer loop
      vertex   -4.540231e+00 -9.900007e-01 1.683741e+02
      vertex   -4.471548e+00 -1.000001e+00 1.681501e+02
      vertex   -4.471548e+00 -9.900007e-01 1.681501e+02
    endloop
  endfacet
  facet normal 9.056488e-01 0.000000e+00 4.240285e-01
    outer loop
      vertex   -4.471548e+00 -9.900007e-01 1.681501e+02
      vertex   -4.471548e+00 -1.000001e+00 1.681501e+02
      vertex   -4.425145e+00 -1.000001e+00 1.680510e+02
    endloop
  endfacet
  facet normal 9.056488e-01 0.000000e+00 4.240285e-01
    outer loop
      vertex   -4.471548e+00 -9.900007e-01 1.681501e+02
      vertex   -4.425145e+00 -1.000001e+00 1.680510e+02
      vertex   -4.425145e+00 -9.900007e-01 1.680510e+02
    endloop
  endfacet
  facet normal 8.411495e-01 0.000000e+00 5.408026e-01
    outer loop
      vertex   -4.425145e+00 -9.900007e-01 1.680510e+02
      vertex   -4.425145e+00 -1.000001e+00 1.680510e+02
      vertex   -4.396819e+00 -1.000001e+00 1.680069e+02
    endloop
  endfacet
  facet normal 8.411495e-01 0.000000e+00 5.408026e-01
    outer loop
      vertex   -4.425145e+00 -9.900007e-01 1.680510e+02
      vertex   -4.396819e+00 -1.000001e+00 1.680069e+02
      vertex   -4.396819e+00 -9.900007e-01 1.680069e+02
    endloop
  endfacet
  facet normal 7.720186e-01 0.000000e+00 6.356000e-01
    outer loop
      vertex   -4.396819e+00 -9.900007e-01 1.680069e+02
      vertex   -4.396819e+00 -1.000001e+00 1.680069e+02
      vertex   -4.364271e+00 -1.000001e+00 1.679674e+02
    endloop
  endfacet
  facet normal 7.720186e-01 0.000000e+00 6.356000e-01
    outer loop
      vertex   -4.396819e+00 -9.900007e-01 1.680069e+02
      vertex   -4.364271e+00 -1.000001e+00 1.679674e+02
      vertex   -4.364271e+00 -9.900007e-01 1.679674e+02
    endloop
  endfacet
  facet normal 6.769830e-01 0.000000e+00 7.359986e-01
    outer loop
      vertex   -4.364271e+00 -9.900007e-01 1.679674e+02
      vertex   -4.364271e+00 -1.000001e+00 1.679674e+02
      vertex   -4.326905e+00 -1.000001e+00 1.679330e+02
    endloop
  endfacet
  facet normal 6.769830e-01 0.000000e+00 7.359986e-01
    outer loop
      vertex   -4.364271e+00 -9.900007e-01 1.679674e+02
      vertex   -4.326905e+00 -1.000001e+00 1.679330e+02
      vertex   -4.326905e+00 -9.900007e-01 1.679330e+02
    endloop
  endfacet
  facet normal 5.662720e-01 0.000000e+00 8.242184e-01
    outer loop
      vertex   -4.326905e+00 -9.900007e-01 1.679330e+02
      vertex   -4.326905e+00 -1.000001e+00 1.679330e+02
      vertex   -4.284595e+00 -1.000001e+00 1.679039e+02
    endloop
  endfacet
  facet normal 5.662720e-01 0.000000e+00 8.242184e-01
    outer loop
      vertex   -4.326905e+00 -9.900007e-01 1.679330e+02
      vertex   -4.284595e+00 -1.000001e+00 1.679039e+02
      vertex   -4.284595e+00 -9.900007e-01 1.679039e+02
    endloop
  endfacet
  facet normal 4.646726e-01 0.000000e+00 8.854826e-01
    outer loop
      vertex   -4.284595e+00 -9.900007e-01 1.679039e+02
      vertex   -4.284595e+00 -1.000001e+00 1.679039e+02
      vertex   -4.237985e+00 -1.000001e+00 1.678795e+02
    endloop
  endfacet
  facet normal 4.646726e-01 0.000000e+00 8.854826e-01
    outer loop
      vertex   -4.284595e+00 -9.900007e-01 1.679039e+02
      vertex   -4.237985e+00 -1.000001e+00 1.678795e+02
      vertex   -4.237985e+00 -9.900007e-01 1.678795e+02
    endloop
  endfacet
  facet normal 3.799693e-01 0.000000e+00 9.249991e-01
    outer loop
      vertex   -4.237985e+00 -9.900007e-01 1.678795e+02
      vertex   -4.237985e+00 -1.000001e+00 1.678795e+02
      vertex   -4.187791e+00 -1.000001e+00 1.678589e+02
    endloop
  endfacet
  facet normal 3.799693e-01 0.000000e+00 9.249991e-01
    outer loop
      vertex   -4.237985e+00 -9.900007e-01 1.678795e+02
      vertex   -4.187791e+00 -1.000001e+00 1.678589e+02
      vertex   -4.187791e+00 -9.900007e-01 1.678589e+02
    endloop
  endfacet
  facet normal 2.898217e-01 0.000000e+00 9.570806e-01
    outer loop
      vertex   -4.187791e+00 -9.900007e-01 1.678589e+02
      vertex   -4.187791e+00 -1.000001e+00 1.678589e+02
      vertex   -4.079521e+00 -1.000001e+00 1.678261e+02
    endloop
  endfacet
  facet normal 2.898217e-01 0.000000e+00 9.570806e-01
    outer loop
      vertex   -4.187791e+00 -9.900007e-01 1.678589e+02
      vertex   -4.079521e+00 -1.000001e+00 1.678261e+02
      vertex   -4.079521e+00 -9.900007e-01 1.678261e+02
    endloop
  endfacet
  facet normal 2.275501e-01 0.000000e+00 9.737664e-01
    outer loop
      vertex   -4.079521e+00 -9.900007e-01 1.678261e+02
      vertex   -4.079521e+00 -1.000001e+00 1.678261e+02
      vertex   -3.965518e+00 -1.000001e+00 1.677994e+02
    endloop
  endfacet
  facet normal 2.275501e-01 0.000000e+00 9.737664e-01
    outer loop
      vertex   -4.079521e+00 -9.900007e-01 1.678261e+02
      vertex   -3.965518e+00 -1.000001e+00 1.677994e+02
      vertex   -3.965518e+00 -9.900007e-01 1.677994e+02
    endloop
  endfacet
  facet normal 0.000000e+00 0.000000e+00 1.000000e+00
    outer loop
      vertex   -3.965518e+00 -1.000001e+00 1.677994e+02
      vertex   3.850572e+00 -1.000001e+00 1.677994e+02
      vertex   -3.965518e+00 -9.900007e-01 1.677994e+02
    endloop
  endfacet
  facet normal -0.000000e+00 0.000000e+00 1.000000e+00
    outer loop
      vertex   -3.965518e+00 -9.900007e-01 1.677994e+02
      vertex   3.850572e+00 -1.000001e+00 1.677994e+02
      vertex   3.850572e+00 -9.900007e-01 1.677994e+02
    endloop
  endfacet
  facet normal -0.000000e+00 -1.000000e+00 0.000000e+00
    outer loop
      vertex   5.902211e+00 -9.900007e-01 1.845500e+02
      vertex   -6.017158e+00 -9.900007e-01 1.845500e+02
      vertex   4.425285e+00 -9.900007e-01 1.683741e+02
    endloop
  endfacet
  facet normal 0.000000e+00 -1.000000e+00 0.000000e+00
    outer loop
      vertex   4.425285e+00 -9.900007e-01 1.683741e+02
      vertex   -6.017158e+00 -9.900007e-01 1.845500e+02
      vertex   -4.540231e+00 -9.900007e-01 1.683741e+02
    endloop
  endfacet
  facet normal -0.000000e+00 -1.000000e+00 0.000000e+00
    outer loop
      vertex   4.425285e+00 -9.900007e-01 1.683741e+02
      vertex   -4.540231e+00 -9.900007e-01 1.683741e+02
      vertex   3.850572e+00 -9.900007e-01 1.677994e+02
    endloop
  endfacet
  facet normal 0.000000e+00 -1.000000e+00 0.000000e+00
    outer loop
      vertex   3.850572e+00 -9.900007e-01 1.677994e+02
      vertex   -4.540231e+00 -9.900007e-01 1.683741e+02
      vertex   -3.965518e+00 -9.900007e-01 1.677994e+02
    endloop
  endfacet
  facet normal 0.000000e+00 -1.000000e+00 0.000000e+00
    outer loop
      vertex   -3.965518e+00 -9.900007e-01 1.677994e+02
      vertex   -4.540231e+00 -9.900007e-01 1.683741e+02
      vertex   -4.079521e+00 -9.900007e-01 1.678261e+02
    endloop
  endfacet
  facet normal 0.000000e+00 -1.000000e+00 0.000000e+00
    outer loop
      vertex   -4.079521e+00 -9.900007e-01 1.678261e+02
      vertex   -4.540231e+00 -9.900007e-01 1.683741e+02
      vertex   -4.187791e+00 -9.900007e-01 1.678589e+02
    endloop
  endfacet
  facet normal 1.312724e-15 -1.000000e+00 8.978621e-16
    outer loop
      vertex   -4.187791e+00 -9.900007e-01 1.678589e+02
      vertex   -4.540231e+00 -9.900007e-01 1.683741e+02
      vertex   -4.471548e+00 -9.900007e-01 1.681501e+02
    endloop
  endfacet
  facet normal -2.611183e-16 -1.000000e+00 -6.356677e-16
    outer loop
      vertex   -4.187791e+00 -9.900007e-01 1.678589e+02
      vertex   -4.471548e+00 -9.900007e-01 1.681501e+02
      vertex   -4.237985e+00 -9.900007e-01 1.678795e+02
    endloop
  endfacet
  facet normal -4.747698e-15 -1.000000e+00 -4.508210e-15
    outer loop
      vertex   -4.237985e+00 -9.900007e-01 1.678795e+02
      vertex   -4.471548e+00 -9.900007e-01 1.681501e+02
      vertex   -4.284595e+00 -9.900007e-01 1.679039e+02
    endloop
  endfacet
  facet normal 9.679217e-15 -1.000000e+00 6.449694e-15
    outer loop
      vertex   -4.284595e+00 -9.900007e-01 1.679039e+02
      vertex   -4.471548e+00 -9.900007e-01 1.681501e+02
      vertex   -4.326905e+00 -9.900007e-01 1.679330e+02
    endloop
  endfacet
  facet normal 0.000000e+00 -1.000000e+00 0.000000e+00
    outer loop
      vertex   -4.326905e+00 -9.900007e-01 1.679330e+02
      vertex   -4.471548e+00 -9.900007e-01 1.681501e+02
      vertex   -4.364271e+00 -9.900007e-01 1.679674e+02
    endloop
  endfacet
  facet normal -2.378716e-14 -1.000000e+00 -1.396730e-14
    outer loop
      vertex   -4.364271e+00 -9.900007e-01 1.679674e+02
      vertex   -4.471548e+00 -9.900007e-01 1.681501e+02
      vertex   -4.396819e+00 -9.900007e-01 1.680069e+02
    endloop
  endfacet
  facet normal -1.282249e-14 -1.000000e+00 -8.244002e-15
    outer loop
      vertex   -4.396819e+00 -9.900007e-01 1.680069e+02
      vertex   -4.471548e+00 -9.900007e-01 1.681501e+02
      vertex   -4.425145e+00 -9.900007e-01 1.680510e+02
    endloop
  endfacet
  facet normal 0.000000e+00 -1.000000e+00 0.000000e+00
    outer loop
      vertex   3.850572e+00 -9.900007e-01 1.677994e+02
      vertex   3.964575e+00 -9.900007e-01 1.678261e+02
      vertex   4.425285e+00 -9.900007e-01 1.683741e+02
    endloop
  endfacet
  facet normal -1.375573e-15 -1.000000e+00 1.156307e-15
    outer loop
      vertex   4.425285e+00 -9.900007e-01 1.683741e+02
      vertex   3.964575e+00 -9.900007e-01 1.678261e+02
      vertex   4.072845e+00 -9.900007e-01 1.678589e+02
    endloop
  endfacet
  facet normal 1.883558e-15 -1.000000e+00 -1.072837e-15
    outer loop
      vertex   4.425285e+00 -9.900007e-01 1.683741e+02
      vertex   4.072845e+00 -9.900007e-01 1.678589e+02
      vertex   4.356601e+00 -9.900007e-01 1.681501e+02
    endloop
  endfacet
  facet normal 3.165826e-15 -1.000000e+00 -2.322262e-15
    outer loop
      vertex   4.356601e+00 -9.900007e-01 1.681501e+02
      vertex   4.072845e+00 -9.900007e-01 1.678589e+02
      vertex   4.123038e+00 -9.900007e-01 1.678795e+02
    endloop
  endfacet
  facet normal 3.960553e-15 -1.000000e+00 -3.008222e-15
    outer loop
      vertex   4.356601e+00 -9.900007e-01 1.681501e+02
      vertex   4.123038e+00 -9.900007e-01 1.678795e+02
      vertex   4.169649e+00 -9.900007e-01 1.679039e+02
    endloop
  endfacet
  facet normal 0.000000e+00 -1.000000e+00 0.000000e+00
    outer loop
      vertex   4.169649e+00 -9.900007e-01 1.679039e+02
      vertex   4.211959e+00 -9.900007e-01 1.679330e+02
      vertex   4.356601e+00 -9.900007e-01 1.681501e+02
    endloop
  endfacet
  facet normal -7.675936e-15 -1.000000e+00 5.114819e-15
    outer loop
      vertex   4.356601e+00 -9.900007e-01 1.681501e+02
      vertex   4.211959e+00 -9.900007e-01 1.679330e+02
      vertex   4.249324e+00 -9.900007e-01 1.679674e+02
    endloop
  endfacet
  facet normal -2.573615e-15 -1.000000e+00 2.118848e-15
    outer loop
      vertex   4.356601e+00 -9.900007e-01 1.681501e+02
      vertex   4.249324e+00 -9.900007e-01 1.679674e+02
      vertex   4.281872e+00 -9.900007e-01 1.680069e+02
    endloop
  endfacet
  facet normal -6.411247e-15 -1.000000e+00 4.122001e-15
    outer loop
      vertex   4.281872e+00 -9.900007e-01 1.680069e+02
      vertex   4.310199e+00 -9.900007e-01 1.680510e+02
      vertex   4.356601e+00 -9.900007e-01 1.681501e+02
    endloop
  endfacet
  facet normal -1.028513e-16 -1.000000e+00 7.693850e-16
    outer loop
      vertex   2.965000e+01 -1.000001e+00 1.845500e+02
      vertex   5.902211e+00 -1.000001e+00 1.845500e+02
      vertex   2.715000e+01 -1.000001e+00 1.833500e+02
    endloop
  endfacet
  facet normal -1.455529e-16 -1.000000e+00 1.328961e-17
    outer loop
      vertex   2.715000e+01 -1.000001e+00 1.833500e+02
      vertex   5.902211e+00 -1.000001e+00 1.845500e+02
      vertex   4.425285e+00 -1.000001e+00 1.683741e+02
    endloop
  endfacet
  facet normal -1.154929e-16 -1.000000e+00 -3.232405e-17
    outer loop
      vertex   2.715000e+01 -1.000001e+00 1.833500e+02
      vertex   4.425285e+00 -1.000001e+00 1.683741e+02
      vertex   6.750291e+00 -1.000001e+00 1.600670e+02
    endloop
  endfacet
  facet normal 0.000000e+00 -1.000000e+00 0.000000e+00
    outer loop
      vertex   6.750291e+00 -1.000001e+00 1.600670e+02
      vertex   4.425285e+00 -1.000001e+00 1.683741e+02
      vertex   6.724137e+00 -1.000001e+00 1.600983e+02
    endloop
  endfacet
  facet normal 0.000000e+00 -1.000000e+00 0.000000e+00
    outer loop
      vertex   6.724137e+00 -1.000001e+00 1.600983e+02
      vertex   4.425285e+00 -1.000001e+00 1.683741e+02
      vertex   4.356601e+00 -1.000001e+00 1.681501e+02
    endloop
  endfacet
  facet normal 0.000000e+00 -1.000000e+00 0.000000e+00
    outer loop
      vertex   6.724137e+00 -1.000001e+00 1.600983e+02
      vertex   4.356601e+00 -1.000001e+00 1.681501e+02
      vertex   6.692820e+00 -1.000001e+00 1.601244e+02
    endloop
  endfacet
  facet normal 0.000000e+00 -1.000000e+00 0.000000e+00
    outer loop
      vertex   6.692820e+00 -1.000001e+00 1.601244e+02
      vertex   4.356601e+00 -1.000001e+00 1.681501e+02
      vertex   4.310199e+00 -1.000001e+00 1.680510e+02
    endloop
  endfacet
  facet normal 0.000000e+00 -1.000000e+00 0.000000e+00
    outer loop
      vertex   6.692820e+00 -1.000001e+00 1.601244e+02
      vertex   4.310199e+00 -1.000001e+00 1.680510e+02
      vertex   6.656788e+00 -1.000001e+00 1.601459e+02
    endloop
  endfacet
  facet normal 5.362688e-15 -1.000000e+00 1.591888e-15
    outer loop
      vertex   6.656788e+00 -1.000001e+00 1.601459e+02
      vertex   4.310199e+00 -1.000001e+00 1.680510e+02
      vertex   4.281872e+00 -1.000001e+00 1.680069e+02
    endloop
  endfacet
  facet normal -1.411480e-17 -1.000000e+00 -3.251049e-17
    outer loop
      vertex   6.656788e+00 -1.000001e+00 1.601459e+02
      vertex   4.281872e+00 -1.000001e+00 1.680069e+02
      vertex   6.616715e+00 -1.000001e+00 1.601633e+02
    endloop
  endfacet
  facet normal -4.985212e-15 -1.000000e+00 -1.512275e-15
    outer loop
      vertex   6.616715e+00 -1.000001e+00 1.601633e+02
      vertex   4.281872e+00 -1.000001e+00 1.680069e+02
      vertex   4.249324e+00 -1.000001e+00 1.679674e+02
    endloop
  endfacet
  facet normal 0.000000e+00 -1.000000e+00 0.000000e+00
    outer loop
      vertex   6.616715e+00 -1.000001e+00 1.601633e+02
      vertex   4.249324e+00 -1.000001e+00 1.679674e+02
      vertex   6.573275e+00 -1.000001e+00 1.601773e+02
    endloop
  endfacet
  facet normal 0.000000e+00 -1.000000e+00 0.000000e+00
    outer loop
      vertex   6.573275e+00 -1.000001e+00 1.601773e+02
      vertex   4.249324e+00 -1.000001e+00 1.679674e+02
      vertex   4.211959e+00 -1.000001e+00 1.679330e+02
    endloop
  endfacet
  facet normal 0.000000e+00 -1.000000e+00 0.000000e+00
    outer loop
      vertex   6.573275e+00 -1.000001e+00 1.601773e+02
      vertex   4.211959e+00 -1.000001e+00 1.679330e+02
      vertex   6.379309e+00 -1.000001e+00 1.602132e+02
    endloop
  endfacet
  facet normal 0.000000e+00 -1.000000e+00 0.000000e+00
    outer loop
      vertex   6.379309e+00 -1.000001e+00 1.602132e+02
      vertex   4.211959e+00 -1.000001e+00 1.679330e+02
      vertex   4.169649e+00 -1.000001e+00 1.679039e+02
    endloop
  endfacet
  facet normal 0.000000e+00 -1.000000e+00 0.000000e+00
    outer loop
      vertex   6.379309e+00 -1.000001e+00 1.602132e+02
      vertex   4.169649e+00 -1.000001e+00 1.679039e+02
      vertex   4.123038e+00 -1.000001e+00 1.678795e+02
    endloop
  endfacet
  facet normal 3.946647e-15 -1.000000e+00 1.161545e-15
    outer loop
      vertex   4.123038e+00 -1.000001e+00 1.678795e+02
      vertex   4.072845e+00 -1.000001e+00 1.678589e+02
      vertex   6.379309e+00 -1.000001e+00 1.602132e+02
    endloop
  endfacet
  facet normal 8.058316e-18 -1.000000e+00 -2.661104e-17
    outer loop
      vertex   6.379309e+00 -1.000001e+00 1.602132e+02
      vertex   4.072845e+00 -1.000001e+00 1.678589e+02
      vertex   3.964575e+00 -1.000001e+00 1.678261e+02
    endloop
  endfacet
  facet normal -1.806957e-15 -1.000000e+00 -6.023190e-16
    outer loop
      vertex   6.379309e+00 -1.000001e+00 1.602132e+02
      vertex   3.964575e+00 -1.000001e+00 1.678261e+02
      vertex   3.850572e+00 -1.000001e+00 1.677994e+02
    endloop
  endfacet
  facet normal 0.000000e+00 -1.000000e+00 0.000000e+00
    outer loop
      vertex   6.379309e+00 -1.000001e+00 1.602132e+02
      vertex   3.850572e+00 -1.000001e+00 1.677994e+02
      vertex   -6.494255e+00 -1.000001e+00 1.602132e+02
    endloop
  endfacet
  facet normal 0.000000e+00 -1.000000e+00 0.000000e+00
    outer loop
      vertex   -6.494255e+00 -1.000001e+00 1.602132e+02
      vertex   3.850572e+00 -1.000001e+00 1.677994e+02
      vertex   -3.965518e+00 -1.000001e+00 1.677994e+02
    endloop
  endfacet
  facet normal 0.000000e+00 -1.000000e+00 0.000000e+00
    outer loop
      vertex   -6.494255e+00 -1.000001e+00 1.602132e+02
      vertex   -3.965518e+00 -1.000001e+00 1.677994e+02
      vertex   -4.079521e+00 -1.000001e+00 1.678261e+02
    endloop
  endfacet
  facet normal -0.000000e+00 -1.000000e+00 0.000000e+00
    outer loop
      vertex   -4.079521e+00 -1.000001e+00 1.678261e+02
      vertex   -4.187791e+00 -1.000001e+00 1.678589e+02
      vertex   -6.494255e+00 -1.000001e+00 1.602132e+02
    endloop
  endfacet
  facet normal 0.000000e+00 -1.000000e+00 0.000000e+00
    outer loop
      vertex   -6.494255e+00 -1.000001e+00 1.602132e+02
      vertex   -4.187791e+00 -1.000001e+00 1.678589e+02
      vertex   -4.237985e+00 -1.000001e+00 1.678795e+02
    endloop
  endfacet
  facet normal 0.000000e+00 -1.000000e+00 0.000000e+00
    outer loop
      vertex   -6.494255e+00 -1.000001e+00 1.602132e+02
      vertex   -4.237985e+00 -1.000001e+00 1.678795e+02
      vertex   -4.284595e+00 -1.000001e+00 1.679039e+02
    endloop
  endfacet
  facet normal 4.382849e-15 -1.000000e+00 -1.259259e-15
    outer loop
      vertex   -4.284595e+00 -1.000001e+00 1.679039e+02
      vertex   -4.326905e+00 -1.000001e+00 1.679330e+02
      vertex   -6.494255e+00 -1.000001e+00 1.602132e+02
    endloop
  endfacet
  facet normal 1.213153e-15 -1.000000e+00 -3.693589e-16
    outer loop
      vertex   -6.494255e+00 -1.000001e+00 1.602132e+02
      vertex   -4.326905e+00 -1.000001e+00 1.679330e+02
      vertex   -6.688221e+00 -1.000001e+00 1.601773e+02
    endloop
  endfacet
  facet normal -4.642394e-15 -1.000000e+00 1.413432e-15
    outer loop
      vertex   -6.688221e+00 -1.000001e+00 1.601773e+02
      vertex   -4.326905e+00 -1.000001e+00 1.679330e+02
      vertex   -4.364271e+00 -1.000001e+00 1.679674e+02
    endloop
  endfacet
  facet normal -5.666699e-15 -1.000000e+00 1.719005e-15
    outer loop
      vertex   -6.688221e+00 -1.000001e+00 1.601773e+02
      vertex   -4.364271e+00 -1.000001e+00 1.679674e+02
      vertex   -6.731662e+00 -1.000001e+00 1.601633e+02
    endloop
  endfacet
  facet normal 0.000000e+00 -1.000000e+00 0.000000e+00
    outer loop
      vertex   -6.731662e+00 -1.000001e+00 1.601633e+02
      vertex   -4.364271e+00 -1.000001e+00 1.679674e+02
      vertex   -4.396819e+00 -1.000001e+00 1.680069e+02
    endloop
  endfacet
  facet normal -0.000000e+00 -1.000000e+00 0.000000e+00
    outer loop
      vertex   -6.731662e+00 -1.000001e+00 1.601633e+02
      vertex   -4.396819e+00 -1.000001e+00 1.680069e+02
      vertex   -6.771734e+00 -1.000001e+00 1.601459e+02
    endloop
  endfacet
  facet normal -5.332800e-15 -1.000000e+00 1.611105e-15
    outer loop
      vertex   -6.771734e+00 -1.000001e+00 1.601459e+02
      vertex   -4.396819e+00 -1.000001e+00 1.680069e+02
      vertex   -4.425145e+00 -1.000001e+00 1.680510e+02
    endloop
  endfacet
  facet normal -2.029816e-17 -1.000000e+00 3.411422e-17
    outer loop
      vertex   -6.771734e+00 -1.000001e+00 1.601459e+02
      vertex   -4.425145e+00 -1.000001e+00 1.680510e+02
      vertex   -6.807766e+00 -1.000001e+00 1.601244e+02
    endloop
  endfacet
  facet normal 2.950693e-15 -1.000000e+00 -8.589302e-16
    outer loop
      vertex   -6.807766e+00 -1.000001e+00 1.601244e+02
      vertex   -4.425145e+00 -1.000001e+00 1.680510e+02
      vertex   -4.471548e+00 -1.000001e+00 1.681501e+02
    endloop
  endfacet
  facet normal -0.000000e+00 -1.000000e+00 0.000000e+00
    outer loop
      vertex   -6.807766e+00 -1.000001e+00 1.601244e+02
      vertex   -4.471548e+00 -1.000001e+00 1.681501e+02
      vertex   -6.839083e+00 -1.000001e+00 1.600983e+02
    endloop
  endfacet
  facet normal 0.000000e+00 -1.000000e+00 0.000000e+00
    outer loop
      vertex   -6.839083e+00 -1.000001e+00 1.600983e+02
      vertex   -4.471548e+00 -1.000001e+00 1.681501e+02
      vertex   -4.540231e+00 -1.000001e+00 1.683741e+02
    endloop
  endfacet
  facet normal -0.000000e+00 -1.000000e+00 0.000000e+00
    outer loop
      vertex   -6.839083e+00 -1.000001e+00 1.600983e+02
      vertex   -4.540231e+00 -1.000001e+00 1.683741e+02
      vertex   -6.865237e+00 -1.000001e+00 1.600670e+02
    endloop
  endfacet
  facet normal 0.000000e+00 -1.000000e+00 0.000000e+00
    outer loop
      vertex   -6.865237e+00 -1.000001e+00 1.600670e+02
      vertex   -4.540231e+00 -1.000001e+00 1.683741e+02
      vertex   -2.715000e+01 -1.000001e+00 1.833500e+02
    endloop
  endfacet
  facet normal -0.000000e+00 -1.000000e+00 0.000000e+00
    outer loop
      vertex   -6.865237e+00 -1.000001e+00 1.600670e+02
      vertex   -2.715000e+01 -1.000001e+00 1.833500e+02
      vertex   -6.886676e+00 -1.000001e+00 1.600309e+02
    endloop
  endfacet
  facet normal -0.000000e+00 -1.000000e+00 0.000000e+00
    outer loop
      vertex   -6.886676e+00 -1.000001e+00 1.600309e+02
      vertex   -2.715000e+01 -1.000001e+00 1.833500e+02
      vertex   -6.904075e+00 -1.000001e+00 1.599909e+02
    endloop
  endfacet
  facet normal -0.000000e+00 -1.000000e+00 0.000000e+00
    outer loop
      vertex   -6.904075e+00 -1.000001e+00 1.599909e+02
      vertex   -2.715000e+01 -1.000001e+00 1.833500e+02
      vertex   -6.918105e+00 -1.000001e+00 1.599474e+02
    endloop
  endfacet
  facet normal -0.000000e+00 -1.000000e+00 0.000000e+00
    outer loop
      vertex   -6.918105e+00 -1.000001e+00 1.599474e+02
      vertex   -2.715000e+01 -1.000001e+00 1.833500e+02
      vertex   -6.954024e+00 -1.000001e+00 1.597534e+02
    endloop
  endfacet
  facet normal -5.609346e-17 -1.000000e+00 -4.800964e-17
    outer loop
      vertex   -6.954024e+00 -1.000001e+00 1.597534e+02
      vertex   -2.715000e+01 -1.000001e+00 1.833500e+02
      vertex   -2.715000e+01 -1.000001e+00 1.278500e+02
    endloop
  endfacet
  facet normal -1.319340e-16 -1.000000e+00 -0.000000e+00
    outer loop
      vertex   -6.954024e+00 -1.000001e+00 1.597534e+02
      vertex   -2.715000e+01 -1.000001e+00 1.278500e+02
      vertex   -6.954024e+00 -1.000001e+00 1.472247e+02
    endloop
  endfacet
  facet normal -1.198385e-16 -1.000000e+00 -1.260822e-17
    outer loop
      vertex   -6.954024e+00 -1.000001e+00 1.472247e+02
      vertex   -2.715000e+01 -1.000001e+00 1.278500e+02
      vertex   -6.930500e+00 -1.000001e+00 1.470011e+02
    endloop
  endfacet
  facet normal -1.051658e-16 -1.000000e+00 -2.809938e-17
    outer loop
      vertex   -6.930500e+00 -1.000001e+00 1.470011e+02
      vertex   -2.715000e+01 -1.000001e+00 1.278500e+02
      vertex   -6.904059e+00 -1.000001e+00 1.469022e+02
    endloop
  endfacet
  facet normal -9.294835e-17 -1.000000e+00 -4.108238e-17
    outer loop
      vertex   -6.904059e+00 -1.000001e+00 1.469022e+02
      vertex   -2.715000e+01 -1.000001e+00 1.278500e+02
      vertex   -6.884599e+00 -1.000001e+00 1.468581e+02
    endloop
  endfacet
  facet normal -8.302972e-17 -1.000000e+00 -5.165707e-17
    outer loop
      vertex   -6.884599e+00 -1.000001e+00 1.468581e+02
      vertex   -2.715000e+01 -1.000001e+00 1.278500e+02
      vertex   -6.860002e+00 -1.000001e+00 1.468186e+02
    endloop
  endfacet
  facet normal -7.480053e-17 -1.000000e+00 -6.045952e-17
    outer loop
      vertex   -6.860002e+00 -1.000001e+00 1.468186e+02
      vertex   -2.715000e+01 -1.000001e+00 1.278500e+02
      vertex   -6.845547e+00 -1.000001e+00 1.468007e+02
    endloop
  endfacet
  facet normal -6.892059e-17 -1.000000e+00 -6.675949e-17
    outer loop
      vertex   -6.845547e+00 -1.000001e+00 1.468007e+02
      vertex   -2.715000e+01 -1.000001e+00 1.278500e+02
      vertex   -6.829539e+00 -1.000001e+00 1.467842e+02
    endloop
  endfacet
  facet normal -6.049300e-17 -1.000000e+00 -7.580410e-17
    outer loop
      vertex   -6.829539e+00 -1.000001e+00 1.467842e+02
      vertex   -2.715000e+01 -1.000001e+00 1.278500e+02
      vertex   -6.793036e+00 -1.000001e+00 1.467551e+02
    endloop
  endfacet
  facet normal -5.071614e-17 -1.000000e+00 -8.633182e-17
    outer loop
      vertex   -6.793036e+00 -1.000001e+00 1.467551e+02
      vertex   -2.715000e+01 -1.000001e+00 1.278500e+02
      vertex   -6.751274e+00 -1.000001e+00 1.467305e+02
    endloop
  endfacet
  facet normal -4.264508e-17 -1.000000e+00 -9.505189e-17
    outer loop
      vertex   -6.751274e+00 -1.000001e+00 1.467305e+02
      vertex   -2.715000e+01 -1.000001e+00 1.278500e+02
      vertex   -6.705129e+00 -1.000001e+00 1.467098e+02
    endloop
  endfacet
  facet normal -1.646589e-15 -1.000000e+00 1.643693e-15
    outer loop
      vertex   -6.705129e+00 -1.000001e+00 1.467098e+02
      vertex   -2.715000e+01 -1.000001e+00 1.278500e+02
      vertex   -6.603198e+00 -1.000001e+00 1.466768e+02
    endloop
  endfacet
  facet normal 1.576388e-15 -1.000000e+00 -1.873724e-15
    outer loop
      vertex   -6.603198e+00 -1.000001e+00 1.466768e+02
      vertex   -2.715000e+01 -1.000001e+00 1.278500e+02
      vertex   -6.494255e+00 -1.000001e+00 1.466500e+02
    endloop
  endfacet
  facet normal 0.000000e+00 -1.000000e+00 -1.417306e-16
    outer loop
      vertex   -6.494255e+00 -1.000001e+00 1.466500e+02
      vertex   -2.715000e+01 -1.000001e+00 1.278500e+02
      vertex   6.379309e+00 -1.000001e+00 1.466500e+02
    endloop
  endfacet
  facet normal -1.063197e-16 -1.000000e+00 4.788781e-17
    outer loop
      vertex   6.379309e+00 -1.000001e+00 1.466500e+02
      vertex   -2.715000e+01 -1.000001e+00 1.278500e+02
      vertex   2.715000e+01 -1.000001e+00 1.278500e+02
    endloop
  endfacet
  facet normal -3.203025e-17 -1.000000e+00 1.299646e-16
    outer loop
      vertex   6.379309e+00 -1.000001e+00 1.466500e+02
      vertex   2.715000e+01 -1.000001e+00 1.278500e+02
      vertex   6.488252e+00 -1.000001e+00 1.466768e+02
    endloop
  endfacet
  facet normal -1.647005e-15 -1.000000e+00 -1.642409e-15
    outer loop
      vertex   6.488252e+00 -1.000001e+00 1.466768e+02
      vertex   2.715000e+01 -1.000001e+00 1.278500e+02
      vertex   6.590183e+00 -1.000001e+00 1.467098e+02
    endloop
  endfacet
  facet normal -4.611400e-17 -1.000000e+00 1.027838e-16
    outer loop
      vertex   6.590183e+00 -1.000001e+00 1.467098e+02
      vertex   2.715000e+01 -1.000001e+00 1.278500e+02
      vertex   6.636327e+00 -1.000001e+00 1.467305e+02
    endloop
  endfacet
  facet normal 3.190603e-15 -1.000000e+00 3.619473e-15
    outer loop
      vertex   6.636327e+00 -1.000001e+00 1.467305e+02
      vertex   2.715000e+01 -1.000001e+00 1.278500e+02
      vertex   6.678089e+00 -1.000001e+00 1.467551e+02
    endloop
  endfacet
  facet normal -7.039147e-17 -1.000000e+00 8.820793e-17
    outer loop
      vertex   6.678089e+00 -1.000001e+00 1.467551e+02
      vertex   2.715000e+01 -1.000001e+00 1.278500e+02
      vertex   6.714593e+00 -1.000001e+00 1.467842e+02
    endloop
  endfacet
  facet normal -8.016900e-17 -1.000000e+00 7.765519e-17
    outer loop
      vertex   6.714593e+00 -1.000001e+00 1.467842e+02
      vertex   2.715000e+01 -1.000001e+00 1.278500e+02
      vertex   6.730600e+00 -1.000001e+00 1.468007e+02
    endloop
  endfacet
  facet normal -8.698659e-17 -1.000000e+00 7.030923e-17
    outer loop
      vertex   6.730600e+00 -1.000001e+00 1.468007e+02
      vertex   2.715000e+01 -1.000001e+00 1.278500e+02
      vertex   6.745055e+00 -1.000001e+00 1.468186e+02
    endloop
  endfacet
  facet normal -3.404313e-15 -1.000000e+00 -3.498212e-15
    outer loop
      vertex   6.745055e+00 -1.000001e+00 1.468186e+02
      vertex   2.715000e+01 -1.000001e+00 1.278500e+02
      vertex   6.769653e+00 -1.000001e+00 1.468581e+02
    endloop
  endfacet
  facet normal 3.230446e-15 -1.000000e+00 3.615514e-15
    outer loop
      vertex   6.769653e+00 -1.000001e+00 1.468581e+02
      vertex   2.715000e+01 -1.000001e+00 1.278500e+02
      vertex   6.789113e+00 -1.000001e+00 1.469022e+02
    endloop
  endfacet
  facet normal -1.221394e-16 -1.000000e+00 3.263455e-17
    outer loop
      vertex   6.789113e+00 -1.000001e+00 1.469022e+02
      vertex   2.715000e+01 -1.000001e+00 1.278500e+02
      vertex   6.815554e+00 -1.000001e+00 1.470011e+02
    endloop
  endfacet
  facet normal -1.390925e-16 -1.000000e+00 1.463394e-17
    outer loop
      vertex   6.815554e+00 -1.000001e+00 1.470011e+02
      vertex   2.715000e+01 -1.000001e+00 1.278500e+02
      vertex   6.839078e+00 -1.000001e+00 1.472247e+02
    endloop
  endfacet
  facet normal -1.530519e-16 -1.000000e+00 0.000000e+00
    outer loop
      vertex   6.839078e+00 -1.000001e+00 1.472247e+02
      vertex   2.715000e+01 -1.000001e+00 1.278500e+02
      vertex   6.839078e+00 -1.000001e+00 1.597534e+02
    endloop
  endfacet
  facet normal -1.530519e-16 -1.000000e+00 -4.478760e-32
    outer loop
      vertex   6.839078e+00 -1.000001e+00 1.597534e+02
      vertex   2.715000e+01 -1.000001e+00 1.278500e+02
      vertex   2.715000e+01 -1.000001e+00 1.833500e+02
    endloop
  endfacet
  facet normal -1.259547e-16 -1.000000e+00 -2.332406e-17
    outer loop
      vertex   6.839078e+00 -1.000001e+00 1.597534e+02
      vertex   2.715000e+01 -1.000001e+00 1.833500e+02
      vertex   6.803159e+00 -1.000001e+00 1.599474e+02
    endloop
  endfacet
  facet normal -1.113977e-16 -1.000000e+00 -3.598038e-17
    outer loop
      vertex   6.803159e+00 -1.000001e+00 1.599474e+02
      vertex   2.715000e+01 -1.000001e+00 1.833500e+02
      vertex   6.789128e+00 -1.000001e+00 1.599909e+02
    endloop
  endfacet
  facet normal -1.019133e-16 -1.000000e+00 -4.424739e-17
    outer loop
      vertex   6.789128e+00 -1.000001e+00 1.599909e+02
      vertex   2.715000e+01 -1.000001e+00 1.833500e+02
      vertex   6.771730e+00 -1.000001e+00 1.600309e+02
    endloop
  endfacet
  facet normal -9.075387e-17 -1.000000e+00 -5.399947e-17
    outer loop
      vertex   6.771730e+00 -1.000001e+00 1.600309e+02
      vertex   2.715000e+01 -1.000001e+00 1.833500e+02
      vertex   6.750291e+00 -1.000001e+00 1.600670e+02
    endloop
  endfacet
  facet normal 0.000000e+00 -1.000000e+00 0.000000e+00
    outer loop
      vertex   -4.540231e+00 -1.000001e+00 1.683741e+02
      vertex   -6.017158e+00 -1.000001e+00 1.845500e+02
      vertex   -2.715000e+01 -1.000001e+00 1.833500e+02
    endloop
  endfacet
  facet normal 0.000000e+00 -1.000000e+00 0.000000e+00
    outer loop
      vertex   -2.715000e+01 -1.000001e+00 1.833500e+02
      vertex   -6.017158e+00 -1.000001e+00 1.845500e+02
      vertex   -2.965000e+01 -1.000001e+00 1.845500e+02
    endloop
  endfacet
  facet normal -0.000000e+00 -1.000000e+00 0.000000e+00
    outer loop
      vertex   -2.715000e+01 -1.000001e+00 1.833500e+02
      vertex   -2.965000e+01 -1.000001e+00 1.845500e+02
      vertex   -2.965000e+01 -1.000001e+00 1.833500e+02
    endloop
  endfacet
  facet normal 2.664535e-16 -1.000000e+00 0.000000e+00
    outer loop
      vertex   2.715000e+01 -1.000001e+00 1.833500e+02
      vertex   2.965000e+01 -1.000001e+00 1.833500e+02
      vertex   2.965000e+01 -1.000001e+00 1.845500e+02
    endloop
  endfacet
  facet normal -1.099926e-16 1.000000e+00 -2.334417e-16
    outer loop
      vertex   2.965000e+01 -7.152557e-07 1.845500e+02
      vertex   2.715000e+01 -7.152557e-07 1.833500e+02
      vertex   -2.965000e+01 -7.152557e-07 1.845500e+02
    endloop
  endfacet
  facet normal -1.201208e-16 1.000000e+00 -7.128445e-16
    outer loop
      vertex   -2.965000e+01 -7.152557e-07 1.845500e+02
      vertex   2.715000e+01 -7.152557e-07 1.833500e+02
      vertex   -2.715000e+01 -7.152557e-07 1.833500e+02
    endloop
  endfacet
  facet normal 2.220446e-16 1.000000e+00 0.000000e+00
    outer loop
      vertex   -2.965000e+01 -7.152557e-07 1.845500e+02
      vertex   -2.715000e+01 -7.152557e-07 1.833500e+02
      vertex   -2.965000e+01 -7.152557e-07 1.833500e+02
    endloop
  endfacet
  facet normal -2.220446e-16 1.000000e+00 0.000000e+00
    outer loop
      vertex   2.965000e+01 -7.152557e-07 1.845500e+02
      vertex   2.965000e+01 -7.152557e-07 1.833500e+02
      vertex   2.715000e+01 -7.152557e-07 1.833500e+02
    endloop
  endfacet
  facet normal -1.201208e-16 1.000000e+00 -3.844638e-32
    outer loop
      vertex   2.715000e+01 -7.152557e-07 1.833500e+02
      vertex   2.715000e+01 -7.152557e-07 1.278500e+02
      vertex   -2.715000e+01 -7.152557e-07 1.833500e+02
    endloop
  endfacet
  facet normal -5.878253e-17 1.000000e+00 6.001206e-17
    outer loop
      vertex   -2.715000e+01 -7.152557e-07 1.833500e+02
      vertex   2.715000e+01 -7.152557e-07 1.278500e+02
      vertex   -2.715000e+01 -7.152557e-07 1.278500e+02
    endloop
  endfacet
  facet normal -0.000000e+00 0.000000e+00 1.000000e+00
    outer loop
      vertex   5.902211e+00 -1.000001e+00 1.845500e+02
      vertex   2.965000e+01 -1.000001e+00 1.845500e+02
      vertex   5.902211e+00 -9.900007e-01 1.845500e+02
    endloop
  endfacet
  facet normal -0.000000e+00 0.000000e+00 1.000000e+00
    outer loop
      vertex   5.902211e+00 -9.900007e-01 1.845500e+02
      vertex   2.965000e+01 -1.000001e+00 1.845500e+02
      vertex   2.965000e+01 -7.152557e-07 1.845500e+02
    endloop
  endfacet
  facet normal -4.792868e-16 1.149697e-14 1.000000e+00
    outer loop
      vertex   5.902211e+00 -9.900007e-01 1.845500e+02
      vertex   2.965000e+01 -7.152557e-07 1.845500e+02
      vertex   -2.965000e+01 -7.152557e-07 1.845500e+02
    endloop
  endfacet
  facet normal 0.000000e+00 2.870880e-14 1.000000e+00
    outer loop
      vertex   5.902211e+00 -9.900007e-01 1.845500e+02
      vertex   -2.965000e+01 -7.152557e-07 1.845500e+02
      vertex   -6.017158e+00 -9.900007e-01 1.845500e+02
    endloop
  endfacet
  facet normal -1.202636e-15 0.000000e+00 1.000000e+00
    outer loop
      vertex   -6.017158e+00 -9.900007e-01 1.845500e+02
      vertex   -2.965000e+01 -7.152557e-07 1.845500e+02
      vertex   -2.965000e+01 -1.000001e+00 1.845500e+02
    endloop
  endfacet
  facet normal -1.202636e-15 0.000000e+00 1.000000e+00
    outer loop
      vertex   -6.017158e+00 -9.900007e-01 1.845500e+02
      vertex   -2.965000e+01 -1.000001e+00 1.845500e+02
      vertex   -6.017158e+00 -1.000001e+00 1.845500e+02
    endloop
  endfacet
  facet normal 1.136868e-14 0.000000e+00 -1.000000e+00
    outer loop
      vertex   2.715000e+01 -7.152557e-07 1.833500e+02
      vertex   2.965000e+01 -7.152557e-07 1.833500e+02
      vertex   2.715000e+01 -1.000001e+00 1.833500e+02
    endloop
  endfacet
  facet normal 1.136868e-14 0.000000e+00 -1.000000e+00
    outer loop
      vertex   2.715000e+01 -1.000001e+00 1.833500e+02
      vertex   2.965000e+01 -7.152557e-07 1.833500e+02
      vertex   2.965000e+01 -1.000001e+00 1.833500e+02
    endloop
  endfacet
  facet normal 1.000000e+00 0.000000e+00 -0.000000e+00
    outer loop
      vertex   2.965000e+01 -7.152557e-07 1.833500e+02
      vertex   2.965000e+01 -7.152557e-07 1.845500e+02
      vertex   2.965000e+01 -1.000001e+00 1.833500e+02
    endloop
  endfacet
  facet normal 1.000000e+00 0.000000e+00 0.000000e+00
    outer loop
      vertex   2.965000e+01 -1.000001e+00 1.833500e+02
      vertex   2.965000e+01 -7.152557e-07 1.845500e+02
      vertex   2.965000e+01 -1.000001e+00 1.845500e+02
    endloop
  endfacet
  facet normal 4.470348e-07 0.000000e+00 -1.000000e+00
    outer loop
      vertex   -2.965000e+01 -7.152557e-07 1.833500e+02
      vertex   -2.715000e+01 -7.152557e-07 1.833500e+02
      vertex   -2.965000e+01 -1.000001e+00 1.833500e+02
    endloop
  endfacet
  facet normal 4.470348e-07 0.000000e+00 -1.000000e+00
    outer loop
      vertex   -2.965000e+01 -1.000001e+00 1.833500e+02
      vertex   -2.715000e+01 -7.152557e-07 1.833500e+02
      vertex   -2.715000e+01 -1.000001e+00 1.833500e+02
    endloop
  endfacet
  facet normal -1.000000e+00 -0.000000e+00 -0.000000e+00
    outer loop
      vertex   -2.965000e+01 -7.152557e-07 1.845500e+02
      vertex   -2.965000e+01 -7.152557e-07 1.833500e+02
      vertex   -2.965000e+01 -1.000001e+00 1.845500e+02
    endloop
  endfacet
  facet normal -1.000000e+00 0.000000e+00 0.000000e+00
    outer loop
      vertex   -2.965000e+01 -1.000001e+00 1.845500e+02
      vertex   -2.965000e+01 -7.152557e-07 1.833500e+02
      vertex   -2.965000e+01 -1.000001e+00 1.833500e+02
    endloop
  endfacet
  facet normal -1.000000e+00 0.000000e+00 -6.401286e-16
    outer loop
      vertex   -2.715000e+01 -1.000001e+00 1.278500e+02
      vertex   -2.715000e+01 -1.000001e+00 1.833500e+02
      vertex   -2.715000e+01 -7.152557e-07 1.278500e+02
    endloop
  endfacet
  facet normal -1.000000e+00 0.000000e+00 -6.401286e-16
    outer loop
      vertex   -2.715000e+01 -7.152557e-07 1.278500e+02
      vertex   -2.715000e+01 -1.000001e+00 1.833500e+02
      vertex   -2.715000e+01 -7.152557e-07 1.833500e+02
    endloop
  endfacet
  facet normal 2.617100e-16 0.000000e+00 -1.000000e+00
    outer loop
      vertex   2.715000e+01 -1.000001e+00 1.278500e+02
      vertex   -2.715000e+01 -1.000001e+00 1.278500e+02
      vertex   2.715000e+01 -7.152557e-07 1.278500e+02
    endloop
  endfacet
  facet normal 2.617100e-16 0.000000e+00 -1.000000e+00
    outer loop
      vertex   2.715000e+01 -7.152557e-07 1.278500e+02
      vertex   -2.715000e+01 -1.000001e+00 1.278500e+02
      vertex   -2.715000e+01 -7.152557e-07 1.278500e+02
    endloop
  endfacet
  facet normal 1.000000e+00 -0.000000e+00 3.200643e-16
    outer loop
      vertex   2.715000e+01 -1.000001e+00 1.833500e+02
      vertex   2.715000e+01 -1.000001e+00 1.278500e+02
      vertex   2.715000e+01 -7.152557e-07 1.833500e+02
    endloop
  endfacet
  facet normal 1.000000e+00 0.000000e+00 3.200643e-16
    outer loop
      vertex   2.715000e+01 -7.152557e-07 1.833500e+02
      vertex   2.715000e+01 -1.000001e+00 1.278500e+02
      vertex   2.715000e+01 -7.152557e-07 1.278500e+02
    endloop
  endfacet
endsolid
