solid ASCII
  facet normal -7.077186e-01 -8.698824e-18 -7.064944e-01
    outer loop
      vertex   3.800000e+01 5.800000e+01 6.000000e+01
      vertex   2.801730e+01 5.800000e+01 7.000000e+01
      vertex   3.800000e+01 5.900000e+01 6.000000e+01
    endloop
  endfacet
  facet normal -7.077186e-01 2.011457e-15 -7.064944e-01
    outer loop
      vertex   3.800000e+01 5.900000e+01 6.000000e+01
      vertex   2.801730e+01 5.800000e+01 7.000000e+01
      vertex   2.801730e+01 5.900000e+01 7.000000e+01
    endloop
  endfacet
  facet normal -1.000000e+00 0.000000e+00 0.000000e+00
    outer loop
      vertex   3.800000e+01 -1.500000e+00 7.000000e+01
      vertex   3.800000e+01 0.000000e+00 6.000000e+01
      vertex   3.800000e+01 -1.500000e+00 5.900000e+01
    endloop
  endfacet
  facet normal -1.000000e+00 0.000000e+00 0.000000e+00
    outer loop
      vertex   3.800000e+01 -1.500000e+00 5.900000e+01
      vertex   3.800000e+01 0.000000e+00 6.000000e+01
      vertex   3.800000e+01 1.000000e+00 6.000000e+01
    endloop
  endfacet
  facet normal -1.000000e+00 1.246566e-16 -3.116412e-16
    outer loop
      vertex   3.800000e+01 -1.500000e+00 5.900000e+01
      vertex   3.800000e+01 1.000000e+00 6.000000e+01
      vertex   3.800000e+01 5.800000e+01 6.000000e+01
    endloop
  endfacet
  facet normal -1.000000e+00 1.246566e-16 0.000000e+00
    outer loop
      vertex   3.800000e+01 5.800000e+01 6.000000e+01
      vertex   3.800000e+01 1.000000e+00 6.000000e+01
      vertex   3.800000e+01 1.000000e+00 6.989950e+01
    endloop
  endfacet
  facet normal -1.000000e+00 1.252848e-18 -7.105427e-16
    outer loop
      vertex   3.800000e+01 5.800000e+01 6.000000e+01
      vertex   3.800000e+01 1.000000e+00 6.989950e+01
      vertex   3.800000e+01 5.800000e+01 7.000000e+01
    endloop
  endfacet
  facet normal -1.000000e+00 -0.000000e+00 0.000000e+00
    outer loop
      vertex   3.800000e+01 5.800000e+01 7.000000e+01
      vertex   3.800000e+01 1.000000e+00 6.989950e+01
      vertex   3.800000e+01 -1.500000e+00 7.000000e+01
    endloop
  endfacet
  facet normal -1.000000e+00 0.000000e+00 0.000000e+00
    outer loop
      vertex   3.800000e+01 -1.500000e+00 7.000000e+01
      vertex   3.800000e+01 1.000000e+00 6.989950e+01
      vertex   3.800000e+01 0.000000e+00 6.989950e+01
    endloop
  endfacet
  facet normal -1.000000e+00 0.000000e+00 0.000000e+00
    outer loop
      vertex   3.800000e+01 -1.500000e+00 7.000000e+01
      vertex   3.800000e+01 0.000000e+00 6.989950e+01
      vertex   3.800000e+01 0.000000e+00 6.000000e+01
    endloop
  endfacet
  facet normal -1.000000e+00 0.000000e+00 7.105427e-15
    outer loop
      vertex   3.800000e+01 -1.500000e+00 5.900000e+01
      vertex   3.800000e+01 5.800000e+01 6.000000e+01
      vertex   3.800000e+01 6.050000e+01 5.900000e+01
    endloop
  endfacet
  facet normal -1.000000e+00 -7.105427e-15 -1.065814e-14
    outer loop
      vertex   3.800000e+01 6.050000e+01 5.900000e+01
      vertex   3.800000e+01 5.800000e+01 6.000000e+01
      vertex   3.800000e+01 5.900000e+01 6.000000e+01
    endloop
  endfacet
  facet normal -1.000000e+00 0.000000e+00 0.000000e+00
    outer loop
      vertex   3.800000e+01 6.050000e+01 5.900000e+01
      vertex   3.800000e+01 5.900000e+01 6.000000e+01
      vertex   3.800000e+01 6.050000e+01 7.000000e+01
    endloop
  endfacet
  facet normal -1.000000e+00 -0.000000e+00 0.000000e+00
    outer loop
      vertex   3.800000e+01 6.050000e+01 7.000000e+01
      vertex   3.800000e+01 5.900000e+01 6.000000e+01
      vertex   3.800000e+01 5.900000e+01 7.000000e+01
    endloop
  endfacet
  facet normal -7.071068e-01 -0.000000e+00 -7.071068e-01
    outer loop
      vertex   3.800000e+01 1.000000e+00 6.000000e+01
      vertex   3.800000e+01 0.000000e+00 6.000000e+01
      vertex   2.800000e+01 1.000000e+00 7.000000e+01
    endloop
  endfacet
  facet normal -7.071068e-01 -5.024296e-15 -7.071068e-01
    outer loop
      vertex   2.800000e+01 1.000000e+00 7.000000e+01
      vertex   3.800000e+01 0.000000e+00 6.000000e+01
      vertex   2.800000e+01 0.000000e+00 7.000000e+01
    endloop
  endfacet
  facet normal 7.071068e-01 0.000000e+00 -7.071068e-01
    outer loop
      vertex   -2.800000e+01 5.800000e+01 7.000000e+01
      vertex   -3.800000e+01 5.800000e+01 6.000000e+01
      vertex   -2.800000e+01 5.900000e+01 7.000000e+01
    endloop
  endfacet
  facet normal 7.071068e-01 0.000000e+00 -7.071068e-01
    outer loop
      vertex   -2.800000e+01 5.900000e+01 7.000000e+01
      vertex   -3.800000e+01 5.800000e+01 6.000000e+01
      vertex   -3.800000e+01 5.900000e+01 6.000000e+01
    endloop
  endfacet
  facet normal 0.000000e+00 -1.000000e+00 0.000000e+00
    outer loop
      vertex   -3.800000e+01 5.800000e+01 6.000000e+01
      vertex   -2.800000e+01 5.800000e+01 7.000000e+01
      vertex   -3.800000e+01 5.800000e+01 7.000000e+01
    endloop
  endfacet
  facet normal 0.000000e+00 1.000000e+00 0.000000e+00
    outer loop
      vertex   -2.800000e+01 5.900000e+01 7.000000e+01
      vertex   -3.800000e+01 5.900000e+01 6.000000e+01
      vertex   -3.800000e+01 5.900000e+01 7.000000e+01
    endloop
  endfacet
  facet normal 7.071068e-01 0.000000e+00 -7.071068e-01
    outer loop
      vertex   -2.800000e+01 0.000000e+00 7.000000e+01
      vertex   -3.800000e+01 0.000000e+00 6.000000e+01
      vertex   -2.800000e+01 1.000000e+00 7.000000e+01
    endloop
  endfacet
  facet normal 7.071068e-01 0.000000e+00 -7.071068e-01
    outer loop
      vertex   -2.800000e+01 1.000000e+00 7.000000e+01
      vertex   -3.800000e+01 0.000000e+00 6.000000e+01
      vertex   -3.800000e+01 1.000000e+00 6.000000e+01
    endloop
  endfacet
  facet normal 0.000000e+00 -1.000000e+00 0.000000e+00
    outer loop
      vertex   -3.800000e+01 0.000000e+00 6.000000e+01
      vertex   -2.800000e+01 0.000000e+00 7.000000e+01
      vertex   -3.800000e+01 0.000000e+00 7.000000e+01
    endloop
  endfacet
  facet normal 0.000000e+00 1.000000e+00 0.000000e+00
    outer loop
      vertex   -2.800000e+01 1.000000e+00 7.000000e+01
      vertex   -3.800000e+01 1.000000e+00 6.000000e+01
      vertex   -3.800000e+01 1.000000e+00 7.000000e+01
    endloop
  endfacet
  facet normal 0.000000e+00 0.000000e+00 -1.000000e+00
    outer loop
      vertex   -3.800000e+01 5.900000e+01 7.000000e+01
      vertex   -3.800000e+01 6.050000e+01 7.000000e+01
      vertex   -2.800000e+01 5.900000e+01 7.000000e+01
    endloop
  endfacet
  facet normal 0.000000e+00 0.000000e+00 -1.000000e+00
    outer loop
      vertex   -2.800000e+01 5.900000e+01 7.000000e+01
      vertex   -3.800000e+01 6.050000e+01 7.000000e+01
      vertex   3.800000e+01 6.050000e+01 7.000000e+01
    endloop
  endfacet
  facet normal 0.000000e+00 0.000000e+00 -1.000000e+00
    outer loop
      vertex   -2.800000e+01 5.900000e+01 7.000000e+01
      vertex   3.800000e+01 6.050000e+01 7.000000e+01
      vertex   2.801730e+01 5.900000e+01 7.000000e+01
    endloop
  endfacet
  facet normal 1.343428e-08 -8.940697e-08 -1.000000e+00
    outer loop
      vertex   2.801730e+01 5.900000e+01 7.000000e+01
      vertex   3.800000e+01 6.050000e+01 7.000000e+01
      vertex   3.800000e+01 5.900000e+01 7.000000e+01
    endloop
  endfacet
  facet normal 0.000000e+00 0.000000e+00 -1.000000e+00
    outer loop
      vertex   -2.800000e+01 5.900000e+01 7.000000e+01
      vertex   2.801730e+01 5.900000e+01 7.000000e+01
      vertex   -2.800000e+01 5.800000e+01 7.000000e+01
    endloop
  endfacet
  facet normal 0.000000e+00 0.000000e+00 -1.000000e+00
    outer loop
      vertex   -2.800000e+01 5.800000e+01 7.000000e+01
      vertex   2.801730e+01 5.900000e+01 7.000000e+01
      vertex   2.801730e+01 5.800000e+01 7.000000e+01
    endloop
  endfacet
  facet normal 0.000000e+00 0.000000e+00 -1.000000e+00
    outer loop
      vertex   -2.800000e+01 5.800000e+01 7.000000e+01
      vertex   2.801730e+01 5.800000e+01 7.000000e+01
      vertex   -2.800000e+01 5.500000e+01 7.000000e+01
    endloop
  endfacet
  facet normal 0.000000e+00 0.000000e+00 -1.000000e+00
    outer loop
      vertex   -2.800000e+01 5.500000e+01 7.000000e+01
      vertex   2.801730e+01 5.800000e+01 7.000000e+01
      vertex   3.000000e+01 5.500000e+01 7.000000e+01
    endloop
  endfacet
  facet normal 0.000000e+00 0.000000e+00 -1.000000e+00
    outer loop
      vertex   3.000000e+01 5.500000e+01 7.000000e+01
      vertex   2.801730e+01 5.800000e+01 7.000000e+01
      vertex   3.043578e+01 5.498097e+01 7.000000e+01
    endloop
  endfacet
  facet normal 0.000000e+00 0.000000e+00 -1.000000e+00
    outer loop
      vertex   3.043578e+01 5.498097e+01 7.000000e+01
      vertex   2.801730e+01 5.800000e+01 7.000000e+01
      vertex   3.086824e+01 5.492404e+01 7.000000e+01
    endloop
  endfacet
  facet normal 0.000000e+00 0.000000e+00 -1.000000e+00
    outer loop
      vertex   3.086824e+01 5.492404e+01 7.000000e+01
      vertex   2.801730e+01 5.800000e+01 7.000000e+01
      vertex   3.129410e+01 5.482963e+01 7.000000e+01
    endloop
  endfacet
  facet normal 0.000000e+00 0.000000e+00 -1.000000e+00
    outer loop
      vertex   3.129410e+01 5.482963e+01 7.000000e+01
      vertex   2.801730e+01 5.800000e+01 7.000000e+01
      vertex   3.800000e+01 5.800000e+01 7.000000e+01
    endloop
  endfacet
  facet normal 0.000000e+00 0.000000e+00 -1.000000e+00
    outer loop
      vertex   3.129410e+01 5.482963e+01 7.000000e+01
      vertex   3.800000e+01 5.800000e+01 7.000000e+01
      vertex   3.171010e+01 5.469846e+01 7.000000e+01
    endloop
  endfacet
  facet normal 0.000000e+00 0.000000e+00 -1.000000e+00
    outer loop
      vertex   3.171010e+01 5.469846e+01 7.000000e+01
      vertex   3.800000e+01 5.800000e+01 7.000000e+01
      vertex   3.211309e+01 5.453154e+01 7.000000e+01
    endloop
  endfacet
  facet normal 0.000000e+00 0.000000e+00 -1.000000e+00
    outer loop
      vertex   3.211309e+01 5.453154e+01 7.000000e+01
      vertex   3.800000e+01 5.800000e+01 7.000000e+01
      vertex   3.250000e+01 5.433013e+01 7.000000e+01
    endloop
  endfacet
  facet normal 0.000000e+00 0.000000e+00 -1.000000e+00
    outer loop
      vertex   3.250000e+01 5.433013e+01 7.000000e+01
      vertex   3.800000e+01 5.800000e+01 7.000000e+01
      vertex   3.286788e+01 5.409576e+01 7.000000e+01
    endloop
  endfacet
  facet normal 0.000000e+00 0.000000e+00 -1.000000e+00
    outer loop
      vertex   3.286788e+01 5.409576e+01 7.000000e+01
      vertex   3.800000e+01 5.800000e+01 7.000000e+01
      vertex   3.321394e+01 5.383022e+01 7.000000e+01
    endloop
  endfacet
  facet normal 0.000000e+00 0.000000e+00 -1.000000e+00
    outer loop
      vertex   3.321394e+01 5.383022e+01 7.000000e+01
      vertex   3.800000e+01 5.800000e+01 7.000000e+01
      vertex   3.353553e+01 5.353553e+01 7.000000e+01
    endloop
  endfacet
  facet normal 0.000000e+00 0.000000e+00 -1.000000e+00
    outer loop
      vertex   3.353553e+01 5.353553e+01 7.000000e+01
      vertex   3.800000e+01 5.800000e+01 7.000000e+01
      vertex   3.383022e+01 5.321394e+01 7.000000e+01
    endloop
  endfacet
  facet normal 0.000000e+00 0.000000e+00 -1.000000e+00
    outer loop
      vertex   3.383022e+01 5.321394e+01 7.000000e+01
      vertex   3.800000e+01 5.800000e+01 7.000000e+01
      vertex   3.409576e+01 5.286788e+01 7.000000e+01
    endloop
  endfacet
  facet normal 0.000000e+00 0.000000e+00 -1.000000e+00
    outer loop
      vertex   3.409576e+01 5.286788e+01 7.000000e+01
      vertex   3.800000e+01 5.800000e+01 7.000000e+01
      vertex   3.433013e+01 5.250000e+01 7.000000e+01
    endloop
  endfacet
  facet normal 0.000000e+00 0.000000e+00 -1.000000e+00
    outer loop
      vertex   3.433013e+01 5.250000e+01 7.000000e+01
      vertex   3.800000e+01 5.800000e+01 7.000000e+01
      vertex   3.453154e+01 5.211309e+01 7.000000e+01
    endloop
  endfacet
  facet normal 0.000000e+00 0.000000e+00 -1.000000e+00
    outer loop
      vertex   3.453154e+01 5.211309e+01 7.000000e+01
      vertex   3.800000e+01 5.800000e+01 7.000000e+01
      vertex   3.469846e+01 5.171010e+01 7.000000e+01
    endloop
  endfacet
  facet normal 0.000000e+00 0.000000e+00 -1.000000e+00
    outer loop
      vertex   3.469846e+01 5.171010e+01 7.000000e+01
      vertex   3.800000e+01 5.800000e+01 7.000000e+01
      vertex   3.482963e+01 5.129410e+01 7.000000e+01
    endloop
  endfacet
  facet normal 0.000000e+00 0.000000e+00 -1.000000e+00
    outer loop
      vertex   3.482963e+01 5.129410e+01 7.000000e+01
      vertex   3.800000e+01 5.800000e+01 7.000000e+01
      vertex   3.492404e+01 5.086824e+01 7.000000e+01
    endloop
  endfacet
  facet normal 0.000000e+00 0.000000e+00 -1.000000e+00
    outer loop
      vertex   3.492404e+01 5.086824e+01 7.000000e+01
      vertex   3.800000e+01 5.800000e+01 7.000000e+01
      vertex   3.498097e+01 5.043578e+01 7.000000e+01
    endloop
  endfacet
  facet normal 0.000000e+00 0.000000e+00 -1.000000e+00
    outer loop
      vertex   3.498097e+01 5.043578e+01 7.000000e+01
      vertex   3.800000e+01 5.800000e+01 7.000000e+01
      vertex   3.500000e+01 5.000000e+01 7.000000e+01
    endloop
  endfacet
  facet normal 0.000000e+00 0.000000e+00 -1.000000e+00
    outer loop
      vertex   3.500000e+01 5.000000e+01 7.000000e+01
      vertex   3.800000e+01 5.800000e+01 7.000000e+01
      vertex   3.500000e+01 1.000000e+01 7.000000e+01
    endloop
  endfacet
  facet normal 0.000000e+00 0.000000e+00 -1.000000e+00
    outer loop
      vertex   3.500000e+01 1.000000e+01 7.000000e+01
      vertex   3.800000e+01 5.800000e+01 7.000000e+01
      vertex   3.789950e+01 1.000000e+00 7.000000e+01
    endloop
  endfacet
  facet normal 0.000000e+00 -0.000000e+00 -1.000000e+00
    outer loop
      vertex   3.500000e+01 1.000000e+01 7.000000e+01
      vertex   3.789950e+01 1.000000e+00 7.000000e+01
      vertex   3.498097e+01 9.564221e+00 7.000000e+01
    endloop
  endfacet
  facet normal 0.000000e+00 -0.000000e+00 -1.000000e+00
    outer loop
      vertex   3.498097e+01 9.564221e+00 7.000000e+01
      vertex   3.789950e+01 1.000000e+00 7.000000e+01
      vertex   3.492404e+01 9.131759e+00 7.000000e+01
    endloop
  endfacet
  facet normal 0.000000e+00 -0.000000e+00 -1.000000e+00
    outer loop
      vertex   3.492404e+01 9.131759e+00 7.000000e+01
      vertex   3.789950e+01 1.000000e+00 7.000000e+01
      vertex   3.482963e+01 8.705905e+00 7.000000e+01
    endloop
  endfacet
  facet normal 0.000000e+00 -0.000000e+00 -1.000000e+00
    outer loop
      vertex   3.482963e+01 8.705905e+00 7.000000e+01
      vertex   3.789950e+01 1.000000e+00 7.000000e+01
      vertex   3.469846e+01 8.289899e+00 7.000000e+01
    endloop
  endfacet
  facet normal 0.000000e+00 -0.000000e+00 -1.000000e+00
    outer loop
      vertex   3.469846e+01 8.289899e+00 7.000000e+01
      vertex   3.789950e+01 1.000000e+00 7.000000e+01
      vertex   3.453154e+01 7.886909e+00 7.000000e+01
    endloop
  endfacet
  facet normal 0.000000e+00 -0.000000e+00 -1.000000e+00
    outer loop
      vertex   3.453154e+01 7.886909e+00 7.000000e+01
      vertex   3.789950e+01 1.000000e+00 7.000000e+01
      vertex   3.433013e+01 7.500000e+00 7.000000e+01
    endloop
  endfacet
  facet normal 0.000000e+00 -0.000000e+00 -1.000000e+00
    outer loop
      vertex   3.433013e+01 7.500000e+00 7.000000e+01
      vertex   3.789950e+01 1.000000e+00 7.000000e+01
      vertex   3.409576e+01 7.132118e+00 7.000000e+01
    endloop
  endfacet
  facet normal 0.000000e+00 -0.000000e+00 -1.000000e+00
    outer loop
      vertex   3.409576e+01 7.132118e+00 7.000000e+01
      vertex   3.789950e+01 1.000000e+00 7.000000e+01
      vertex   3.383022e+01 6.786062e+00 7.000000e+01
    endloop
  endfacet
  facet normal 0.000000e+00 -0.000000e+00 -1.000000e+00
    outer loop
      vertex   3.383022e+01 6.786062e+00 7.000000e+01
      vertex   3.789950e+01 1.000000e+00 7.000000e+01
      vertex   3.353553e+01 6.464466e+00 7.000000e+01
    endloop
  endfacet
  facet normal 0.000000e+00 -0.000000e+00 -1.000000e+00
    outer loop
      vertex   3.353553e+01 6.464466e+00 7.000000e+01
      vertex   3.789950e+01 1.000000e+00 7.000000e+01
      vertex   3.321394e+01 6.169778e+00 7.000000e+01
    endloop
  endfacet
  facet normal 0.000000e+00 -0.000000e+00 -1.000000e+00
    outer loop
      vertex   3.321394e+01 6.169778e+00 7.000000e+01
      vertex   3.789950e+01 1.000000e+00 7.000000e+01
      vertex   3.286788e+01 5.904240e+00 7.000000e+01
    endloop
  endfacet
  facet normal 0.000000e+00 -0.000000e+00 -1.000000e+00
    outer loop
      vertex   3.286788e+01 5.904240e+00 7.000000e+01
      vertex   3.789950e+01 1.000000e+00 7.000000e+01
      vertex   3.250000e+01 5.669873e+00 7.000000e+01
    endloop
  endfacet
  facet normal 0.000000e+00 -0.000000e+00 -1.000000e+00
    outer loop
      vertex   3.250000e+01 5.669873e+00 7.000000e+01
      vertex   3.789950e+01 1.000000e+00 7.000000e+01
      vertex   3.211309e+01 5.468461e+00 7.000000e+01
    endloop
  endfacet
  facet normal 0.000000e+00 -0.000000e+00 -1.000000e+00
    outer loop
      vertex   3.211309e+01 5.468461e+00 7.000000e+01
      vertex   3.789950e+01 1.000000e+00 7.000000e+01
      vertex   3.171010e+01 5.301537e+00 7.000000e+01
    endloop
  endfacet
  facet normal 0.000000e+00 -0.000000e+00 -1.000000e+00
    outer loop
      vertex   3.171010e+01 5.301537e+00 7.000000e+01
      vertex   3.789950e+01 1.000000e+00 7.000000e+01
      vertex   3.129410e+01 5.170371e+00 7.000000e+01
    endloop
  endfacet
  facet normal 0.000000e+00 -0.000000e+00 -1.000000e+00
    outer loop
      vertex   3.129410e+01 5.170371e+00 7.000000e+01
      vertex   3.789950e+01 1.000000e+00 7.000000e+01
      vertex   2.800000e+01 1.000000e+00 7.000000e+01
    endloop
  endfacet
  facet normal 0.000000e+00 0.000000e+00 -1.000000e+00
    outer loop
      vertex   3.129410e+01 5.170371e+00 7.000000e+01
      vertex   2.800000e+01 1.000000e+00 7.000000e+01
      vertex   3.086824e+01 5.075961e+00 7.000000e+01
    endloop
  endfacet
  facet normal 0.000000e+00 0.000000e+00 -1.000000e+00
    outer loop
      vertex   3.086824e+01 5.075961e+00 7.000000e+01
      vertex   2.800000e+01 1.000000e+00 7.000000e+01
      vertex   3.043578e+01 5.019027e+00 7.000000e+01
    endloop
  endfacet
  facet normal 0.000000e+00 0.000000e+00 -1.000000e+00
    outer loop
      vertex   3.043578e+01 5.019027e+00 7.000000e+01
      vertex   2.800000e+01 1.000000e+00 7.000000e+01
      vertex   3.000000e+01 5.000000e+00 7.000000e+01
    endloop
  endfacet
  facet normal -0.000000e+00 0.000000e+00 -1.000000e+00
    outer loop
      vertex   3.000000e+01 5.000000e+00 7.000000e+01
      vertex   2.800000e+01 1.000000e+00 7.000000e+01
      vertex   -2.800000e+01 5.000000e+00 7.000000e+01
    endloop
  endfacet
  facet normal 0.000000e+00 -0.000000e+00 -1.000000e+00
    outer loop
      vertex   -2.800000e+01 5.000000e+00 7.000000e+01
      vertex   2.800000e+01 1.000000e+00 7.000000e+01
      vertex   -2.800000e+01 1.000000e+00 7.000000e+01
    endloop
  endfacet
  facet normal -0.000000e+00 0.000000e+00 -1.000000e+00
    outer loop
      vertex   -2.800000e+01 5.000000e+00 7.000000e+01
      vertex   -2.800000e+01 1.000000e+00 7.000000e+01
      vertex   -2.843578e+01 5.019027e+00 7.000000e+01
    endloop
  endfacet
  facet normal -0.000000e+00 -0.000000e+00 -1.000000e+00
    outer loop
      vertex   -2.843578e+01 5.019027e+00 7.000000e+01
      vertex   -2.800000e+01 1.000000e+00 7.000000e+01
      vertex   -2.886824e+01 5.075961e+00 7.000000e+01
    endloop
  endfacet
  facet normal -0.000000e+00 -0.000000e+00 -1.000000e+00
    outer loop
      vertex   -2.886824e+01 5.075961e+00 7.000000e+01
      vertex   -2.800000e+01 1.000000e+00 7.000000e+01
      vertex   -2.929410e+01 5.170371e+00 7.000000e+01
    endloop
  endfacet
  facet normal -0.000000e+00 -0.000000e+00 -1.000000e+00
    outer loop
      vertex   -2.929410e+01 5.170371e+00 7.000000e+01
      vertex   -2.800000e+01 1.000000e+00 7.000000e+01
      vertex   -2.971010e+01 5.301537e+00 7.000000e+01
    endloop
  endfacet
  facet normal -0.000000e+00 -0.000000e+00 -1.000000e+00
    outer loop
      vertex   -2.971010e+01 5.301537e+00 7.000000e+01
      vertex   -2.800000e+01 1.000000e+00 7.000000e+01
      vertex   -3.011309e+01 5.468461e+00 7.000000e+01
    endloop
  endfacet
  facet normal 0.000000e+00 -0.000000e+00 -1.000000e+00
    outer loop
      vertex   -3.011309e+01 5.468461e+00 7.000000e+01
      vertex   -2.800000e+01 1.000000e+00 7.000000e+01
      vertex   -3.800000e+01 1.000000e+00 7.000000e+01
    endloop
  endfacet
  facet normal -0.000000e+00 0.000000e+00 -1.000000e+00
    outer loop
      vertex   -3.011309e+01 5.468461e+00 7.000000e+01
      vertex   -3.800000e+01 1.000000e+00 7.000000e+01
      vertex   -3.050000e+01 5.669873e+00 7.000000e+01
    endloop
  endfacet
  facet normal -0.000000e+00 0.000000e+00 -1.000000e+00
    outer loop
      vertex   -3.050000e+01 5.669873e+00 7.000000e+01
      vertex   -3.800000e+01 1.000000e+00 7.000000e+01
      vertex   -3.086788e+01 5.904240e+00 7.000000e+01
    endloop
  endfacet
  facet normal -0.000000e+00 0.000000e+00 -1.000000e+00
    outer loop
      vertex   -3.086788e+01 5.904240e+00 7.000000e+01
      vertex   -3.800000e+01 1.000000e+00 7.000000e+01
      vertex   -3.121394e+01 6.169778e+00 7.000000e+01
    endloop
  endfacet
  facet normal -0.000000e+00 0.000000e+00 -1.000000e+00
    outer loop
      vertex   -3.121394e+01 6.169778e+00 7.000000e+01
      vertex   -3.800000e+01 1.000000e+00 7.000000e+01
      vertex   -3.153553e+01 6.464466e+00 7.000000e+01
    endloop
  endfacet
  facet normal -0.000000e+00 0.000000e+00 -1.000000e+00
    outer loop
      vertex   -3.153553e+01 6.464466e+00 7.000000e+01
      vertex   -3.800000e+01 1.000000e+00 7.000000e+01
      vertex   -3.183022e+01 6.786062e+00 7.000000e+01
    endloop
  endfacet
  facet normal -0.000000e+00 0.000000e+00 -1.000000e+00
    outer loop
      vertex   -3.183022e+01 6.786062e+00 7.000000e+01
      vertex   -3.800000e+01 1.000000e+00 7.000000e+01
      vertex   -3.209576e+01 7.132118e+00 7.000000e+01
    endloop
  endfacet
  facet normal -0.000000e+00 0.000000e+00 -1.000000e+00
    outer loop
      vertex   -3.209576e+01 7.132118e+00 7.000000e+01
      vertex   -3.800000e+01 1.000000e+00 7.000000e+01
      vertex   -3.233013e+01 7.500000e+00 7.000000e+01
    endloop
  endfacet
  facet normal -0.000000e+00 0.000000e+00 -1.000000e+00
    outer loop
      vertex   -3.233013e+01 7.500000e+00 7.000000e+01
      vertex   -3.800000e+01 1.000000e+00 7.000000e+01
      vertex   -3.253154e+01 7.886909e+00 7.000000e+01
    endloop
  endfacet
  facet normal -0.000000e+00 0.000000e+00 -1.000000e+00
    outer loop
      vertex   -3.253154e+01 7.886909e+00 7.000000e+01
      vertex   -3.800000e+01 1.000000e+00 7.000000e+01
      vertex   -3.269846e+01 8.289899e+00 7.000000e+01
    endloop
  endfacet
  facet normal -0.000000e+00 0.000000e+00 -1.000000e+00
    outer loop
      vertex   -3.269846e+01 8.289899e+00 7.000000e+01
      vertex   -3.800000e+01 1.000000e+00 7.000000e+01
      vertex   -3.282963e+01 8.705905e+00 7.000000e+01
    endloop
  endfacet
  facet normal -0.000000e+00 0.000000e+00 -1.000000e+00
    outer loop
      vertex   -3.282963e+01 8.705905e+00 7.000000e+01
      vertex   -3.800000e+01 1.000000e+00 7.000000e+01
      vertex   -3.292404e+01 9.131759e+00 7.000000e+01
    endloop
  endfacet
  facet normal -0.000000e+00 0.000000e+00 -1.000000e+00
    outer loop
      vertex   -3.292404e+01 9.131759e+00 7.000000e+01
      vertex   -3.800000e+01 1.000000e+00 7.000000e+01
      vertex   -3.298097e+01 9.564221e+00 7.000000e+01
    endloop
  endfacet
  facet normal -0.000000e+00 0.000000e+00 -1.000000e+00
    outer loop
      vertex   -3.298097e+01 9.564221e+00 7.000000e+01
      vertex   -3.800000e+01 1.000000e+00 7.000000e+01
      vertex   -3.300000e+01 1.000000e+01 7.000000e+01
    endloop
  endfacet
  facet normal -0.000000e+00 0.000000e+00 -1.000000e+00
    outer loop
      vertex   -3.300000e+01 1.000000e+01 7.000000e+01
      vertex   -3.800000e+01 1.000000e+00 7.000000e+01
      vertex   -3.800000e+01 5.800000e+01 7.000000e+01
    endloop
  endfacet
  facet normal 0.000000e+00 0.000000e+00 -1.000000e+00
    outer loop
      vertex   -3.300000e+01 1.000000e+01 7.000000e+01
      vertex   -3.800000e+01 5.800000e+01 7.000000e+01
      vertex   -3.300000e+01 5.000000e+01 7.000000e+01
    endloop
  endfacet
  facet normal 0.000000e+00 0.000000e+00 -1.000000e+00
    outer loop
      vertex   -3.300000e+01 5.000000e+01 7.000000e+01
      vertex   -3.800000e+01 5.800000e+01 7.000000e+01
      vertex   -3.298097e+01 5.043578e+01 7.000000e+01
    endloop
  endfacet
  facet normal 0.000000e+00 0.000000e+00 -1.000000e+00
    outer loop
      vertex   -3.298097e+01 5.043578e+01 7.000000e+01
      vertex   -3.800000e+01 5.800000e+01 7.000000e+01
      vertex   -3.292404e+01 5.086824e+01 7.000000e+01
    endloop
  endfacet
  facet normal 0.000000e+00 0.000000e+00 -1.000000e+00
    outer loop
      vertex   -3.292404e+01 5.086824e+01 7.000000e+01
      vertex   -3.800000e+01 5.800000e+01 7.000000e+01
      vertex   -3.282963e+01 5.129410e+01 7.000000e+01
    endloop
  endfacet
  facet normal 0.000000e+00 0.000000e+00 -1.000000e+00
    outer loop
      vertex   -3.282963e+01 5.129410e+01 7.000000e+01
      vertex   -3.800000e+01 5.800000e+01 7.000000e+01
      vertex   -3.269846e+01 5.171010e+01 7.000000e+01
    endloop
  endfacet
  facet normal 0.000000e+00 0.000000e+00 -1.000000e+00
    outer loop
      vertex   -3.269846e+01 5.171010e+01 7.000000e+01
      vertex   -3.800000e+01 5.800000e+01 7.000000e+01
      vertex   -3.253154e+01 5.211309e+01 7.000000e+01
    endloop
  endfacet
  facet normal 0.000000e+00 0.000000e+00 -1.000000e+00
    outer loop
      vertex   -3.253154e+01 5.211309e+01 7.000000e+01
      vertex   -3.800000e+01 5.800000e+01 7.000000e+01
      vertex   -3.233013e+01 5.250000e+01 7.000000e+01
    endloop
  endfacet
  facet normal 0.000000e+00 0.000000e+00 -1.000000e+00
    outer loop
      vertex   -3.233013e+01 5.250000e+01 7.000000e+01
      vertex   -3.800000e+01 5.800000e+01 7.000000e+01
      vertex   -3.209576e+01 5.286788e+01 7.000000e+01
    endloop
  endfacet
  facet normal 0.000000e+00 0.000000e+00 -1.000000e+00
    outer loop
      vertex   -3.209576e+01 5.286788e+01 7.000000e+01
      vertex   -3.800000e+01 5.800000e+01 7.000000e+01
      vertex   -3.183022e+01 5.321394e+01 7.000000e+01
    endloop
  endfacet
  facet normal 0.000000e+00 0.000000e+00 -1.000000e+00
    outer loop
      vertex   -3.183022e+01 5.321394e+01 7.000000e+01
      vertex   -3.800000e+01 5.800000e+01 7.000000e+01
      vertex   -3.153553e+01 5.353553e+01 7.000000e+01
    endloop
  endfacet
  facet normal 0.000000e+00 0.000000e+00 -1.000000e+00
    outer loop
      vertex   -3.153553e+01 5.353553e+01 7.000000e+01
      vertex   -3.800000e+01 5.800000e+01 7.000000e+01
      vertex   -3.121394e+01 5.383022e+01 7.000000e+01
    endloop
  endfacet
  facet normal 0.000000e+00 0.000000e+00 -1.000000e+00
    outer loop
      vertex   -3.121394e+01 5.383022e+01 7.000000e+01
      vertex   -3.800000e+01 5.800000e+01 7.000000e+01
      vertex   -3.086788e+01 5.409576e+01 7.000000e+01
    endloop
  endfacet
  facet normal 0.000000e+00 0.000000e+00 -1.000000e+00
    outer loop
      vertex   -3.086788e+01 5.409576e+01 7.000000e+01
      vertex   -3.800000e+01 5.800000e+01 7.000000e+01
      vertex   -3.050000e+01 5.433013e+01 7.000000e+01
    endloop
  endfacet
  facet normal 0.000000e+00 0.000000e+00 -1.000000e+00
    outer loop
      vertex   -3.050000e+01 5.433013e+01 7.000000e+01
      vertex   -3.800000e+01 5.800000e+01 7.000000e+01
      vertex   -3.011309e+01 5.453154e+01 7.000000e+01
    endloop
  endfacet
  facet normal 0.000000e+00 0.000000e+00 -1.000000e+00
    outer loop
      vertex   -3.011309e+01 5.453154e+01 7.000000e+01
      vertex   -3.800000e+01 5.800000e+01 7.000000e+01
      vertex   -2.800000e+01 5.800000e+01 7.000000e+01
    endloop
  endfacet
  facet normal 0.000000e+00 0.000000e+00 -1.000000e+00
    outer loop
      vertex   -3.011309e+01 5.453154e+01 7.000000e+01
      vertex   -2.800000e+01 5.800000e+01 7.000000e+01
      vertex   -2.971010e+01 5.469846e+01 7.000000e+01
    endloop
  endfacet
  facet normal 0.000000e+00 0.000000e+00 -1.000000e+00
    outer loop
      vertex   -2.971010e+01 5.469846e+01 7.000000e+01
      vertex   -2.800000e+01 5.800000e+01 7.000000e+01
      vertex   -2.929410e+01 5.482963e+01 7.000000e+01
    endloop
  endfacet
  facet normal 0.000000e+00 0.000000e+00 -1.000000e+00
    outer loop
      vertex   -2.929410e+01 5.482963e+01 7.000000e+01
      vertex   -2.800000e+01 5.800000e+01 7.000000e+01
      vertex   -2.886824e+01 5.492404e+01 7.000000e+01
    endloop
  endfacet
  facet normal 0.000000e+00 0.000000e+00 -1.000000e+00
    outer loop
      vertex   -2.886824e+01 5.492404e+01 7.000000e+01
      vertex   -2.800000e+01 5.800000e+01 7.000000e+01
      vertex   -2.843578e+01 5.498097e+01 7.000000e+01
    endloop
  endfacet
  facet normal 0.000000e+00 0.000000e+00 -1.000000e+00
    outer loop
      vertex   -2.843578e+01 5.498097e+01 7.000000e+01
      vertex   -2.800000e+01 5.800000e+01 7.000000e+01
      vertex   -2.800000e+01 5.500000e+01 7.000000e+01
    endloop
  endfacet
  facet normal 0.000000e+00 -0.000000e+00 -1.000000e+00
    outer loop
      vertex   3.800000e+01 5.800000e+01 7.000000e+01
      vertex   3.800000e+01 -1.500000e+00 7.000000e+01
      vertex   3.789950e+01 1.000000e+00 7.000000e+01
    endloop
  endfacet
  facet normal 0.000000e+00 -0.000000e+00 -1.000000e+00
    outer loop
      vertex   3.789950e+01 1.000000e+00 7.000000e+01
      vertex   3.800000e+01 -1.500000e+00 7.000000e+01
      vertex   3.789950e+01 0.000000e+00 7.000000e+01
    endloop
  endfacet
  facet normal -1.354720e-08 -9.076981e-10 -1.000000e+00
    outer loop
      vertex   3.789950e+01 0.000000e+00 7.000000e+01
      vertex   3.800000e+01 -1.500000e+00 7.000000e+01
      vertex   2.800000e+01 0.000000e+00 7.000000e+01
    endloop
  endfacet
  facet normal 2.394829e-09 1.053725e-07 -1.000000e+00
    outer loop
      vertex   2.800000e+01 0.000000e+00 7.000000e+01
      vertex   3.800000e+01 -1.500000e+00 7.000000e+01
      vertex   -2.800000e+01 0.000000e+00 7.000000e+01
    endloop
  endfacet
  facet normal 2.394829e-09 -1.341105e-07 -1.000000e+00
    outer loop
      vertex   2.800000e+01 0.000000e+00 7.000000e+01
      vertex   -2.800000e+01 0.000000e+00 7.000000e+01
      vertex   2.800000e+01 1.000000e+00 7.000000e+01
    endloop
  endfacet
  facet normal 0.000000e+00 0.000000e+00 -1.000000e+00
    outer loop
      vertex   2.800000e+01 1.000000e+00 7.000000e+01
      vertex   -2.800000e+01 0.000000e+00 7.000000e+01
      vertex   -2.800000e+01 1.000000e+00 7.000000e+01
    endloop
  endfacet
  facet normal 0.000000e+00 0.000000e+00 -1.000000e+00
    outer loop
      vertex   3.800000e+01 -1.500000e+00 7.000000e+01
      vertex   -3.800000e+01 -1.500000e+00 7.000000e+01
      vertex   -2.800000e+01 0.000000e+00 7.000000e+01
    endloop
  endfacet
  facet normal -0.000000e+00 0.000000e+00 -1.000000e+00
    outer loop
      vertex   -2.800000e+01 0.000000e+00 7.000000e+01
      vertex   -3.800000e+01 -1.500000e+00 7.000000e+01
      vertex   -3.800000e+01 0.000000e+00 7.000000e+01
    endloop
  endfacet
  facet normal -9.990482e-01 4.361939e-02 0.000000e+00
    outer loop
      vertex   3.500000e+01 1.000000e+01 7.300000e+01
      vertex   3.500000e+01 1.000000e+01 7.000000e+01
      vertex   3.498097e+01 9.564221e+00 7.300000e+01
    endloop
  endfacet
  facet normal -9.990482e-01 4.361939e-02 0.000000e+00
    outer loop
      vertex   3.498097e+01 9.564221e+00 7.300000e+01
      vertex   3.500000e+01 1.000000e+01 7.000000e+01
      vertex   3.498097e+01 9.564221e+00 7.000000e+01
    endloop
  endfacet
  facet normal -9.914449e-01 1.305262e-01 0.000000e+00
    outer loop
      vertex   3.498097e+01 9.564221e+00 7.300000e+01
      vertex   3.498097e+01 9.564221e+00 7.000000e+01
      vertex   3.492404e+01 9.131759e+00 7.300000e+01
    endloop
  endfacet
  facet normal -9.914449e-01 1.305262e-01 0.000000e+00
    outer loop
      vertex   3.492404e+01 9.131759e+00 7.300000e+01
      vertex   3.498097e+01 9.564221e+00 7.000000e+01
      vertex   3.492404e+01 9.131759e+00 7.000000e+01
    endloop
  endfacet
  facet normal -9.762960e-01 2.164396e-01 0.000000e+00
    outer loop
      vertex   3.492404e+01 9.131759e+00 7.300000e+01
      vertex   3.492404e+01 9.131759e+00 7.000000e+01
      vertex   3.482963e+01 8.705905e+00 7.300000e+01
    endloop
  endfacet
  facet normal -9.762960e-01 2.164396e-01 0.000000e+00
    outer loop
      vertex   3.482963e+01 8.705905e+00 7.300000e+01
      vertex   3.492404e+01 9.131759e+00 7.000000e+01
      vertex   3.482963e+01 8.705905e+00 7.000000e+01
    endloop
  endfacet
  facet normal -9.537170e-01 3.007058e-01 0.000000e+00
    outer loop
      vertex   3.482963e+01 8.705905e+00 7.300000e+01
      vertex   3.482963e+01 8.705905e+00 7.000000e+01
      vertex   3.469846e+01 8.289899e+00 7.300000e+01
    endloop
  endfacet
  facet normal -9.537170e-01 3.007058e-01 0.000000e+00
    outer loop
      vertex   3.469846e+01 8.289899e+00 7.300000e+01
      vertex   3.482963e+01 8.705905e+00 7.000000e+01
      vertex   3.469846e+01 8.289899e+00 7.000000e+01
    endloop
  endfacet
  facet normal -9.238795e-01 3.826834e-01 0.000000e+00
    outer loop
      vertex   3.469846e+01 8.289899e+00 7.300000e+01
      vertex   3.469846e+01 8.289899e+00 7.000000e+01
      vertex   3.453154e+01 7.886909e+00 7.300000e+01
    endloop
  endfacet
  facet normal -9.238795e-01 3.826834e-01 -1.132970e-16
    outer loop
      vertex   3.453154e+01 7.886909e+00 7.300000e+01
      vertex   3.469846e+01 8.289899e+00 7.000000e+01
      vertex   3.453154e+01 7.886909e+00 7.000000e+01
    endloop
  endfacet
  facet normal -8.870108e-01 4.617486e-01 -1.367050e-16
    outer loop
      vertex   3.453154e+01 7.886909e+00 7.300000e+01
      vertex   3.453154e+01 7.886909e+00 7.000000e+01
      vertex   3.433013e+01 7.500000e+00 7.300000e+01
    endloop
  endfacet
  facet normal -8.870108e-01 4.617486e-01 1.367050e-16
    outer loop
      vertex   3.433013e+01 7.500000e+00 7.300000e+01
      vertex   3.453154e+01 7.886909e+00 7.000000e+01
      vertex   3.433013e+01 7.500000e+00 7.000000e+01
    endloop
  endfacet
  facet normal -8.433914e-01 5.372996e-01 1.590726e-16
    outer loop
      vertex   3.433013e+01 7.500000e+00 7.300000e+01
      vertex   3.433013e+01 7.500000e+00 7.000000e+01
      vertex   3.409576e+01 7.132118e+00 7.300000e+01
    endloop
  endfacet
  facet normal -8.433914e-01 5.372996e-01 0.000000e+00
    outer loop
      vertex   3.409576e+01 7.132118e+00 7.300000e+01
      vertex   3.433013e+01 7.500000e+00 7.000000e+01
      vertex   3.409576e+01 7.132118e+00 7.000000e+01
    endloop
  endfacet
  facet normal -7.933533e-01 6.087614e-01 0.000000e+00
    outer loop
      vertex   3.409576e+01 7.132118e+00 7.300000e+01
      vertex   3.409576e+01 7.132118e+00 7.000000e+01
      vertex   3.383022e+01 6.786062e+00 7.300000e+01
    endloop
  endfacet
  facet normal -7.933533e-01 6.087614e-01 0.000000e+00
    outer loop
      vertex   3.383022e+01 6.786062e+00 7.300000e+01
      vertex   3.409576e+01 7.132118e+00 7.000000e+01
      vertex   3.383022e+01 6.786062e+00 7.000000e+01
    endloop
  endfacet
  facet normal -7.372773e-01 6.755902e-01 0.000000e+00
    outer loop
      vertex   3.383022e+01 6.786062e+00 7.300000e+01
      vertex   3.383022e+01 6.786062e+00 7.000000e+01
      vertex   3.353553e+01 6.464466e+00 7.300000e+01
    endloop
  endfacet
  facet normal -7.372773e-01 6.755902e-01 0.000000e+00
    outer loop
      vertex   3.353553e+01 6.464466e+00 7.300000e+01
      vertex   3.383022e+01 6.786062e+00 7.000000e+01
      vertex   3.353553e+01 6.464466e+00 7.000000e+01
    endloop
  endfacet
  facet normal -6.755902e-01 7.372773e-01 0.000000e+00
    outer loop
      vertex   3.353553e+01 6.464466e+00 7.300000e+01
      vertex   3.353553e+01 6.464466e+00 7.000000e+01
      vertex   3.321394e+01 6.169778e+00 7.300000e+01
    endloop
  endfacet
  facet normal -6.755902e-01 7.372773e-01 0.000000e+00
    outer loop
      vertex   3.321394e+01 6.169778e+00 7.300000e+01
      vertex   3.353553e+01 6.464466e+00 7.000000e+01
      vertex   3.321394e+01 6.169778e+00 7.000000e+01
    endloop
  endfacet
  facet normal -6.087614e-01 7.933533e-01 0.000000e+00
    outer loop
      vertex   3.321394e+01 6.169778e+00 7.300000e+01
      vertex   3.321394e+01 6.169778e+00 7.000000e+01
      vertex   3.286788e+01 5.904240e+00 7.300000e+01
    endloop
  endfacet
  facet normal -6.087614e-01 7.933533e-01 0.000000e+00
    outer loop
      vertex   3.286788e+01 5.904240e+00 7.300000e+01
      vertex   3.321394e+01 6.169778e+00 7.000000e+01
      vertex   3.286788e+01 5.904240e+00 7.000000e+01
    endloop
  endfacet
  facet normal -5.372996e-01 8.433914e-01 0.000000e+00
    outer loop
      vertex   3.286788e+01 5.904240e+00 7.300000e+01
      vertex   3.286788e+01 5.904240e+00 7.000000e+01
      vertex   3.250000e+01 5.669873e+00 7.300000e+01
    endloop
  endfacet
  facet normal -5.372996e-01 8.433914e-01 2.496939e-16
    outer loop
      vertex   3.250000e+01 5.669873e+00 7.300000e+01
      vertex   3.286788e+01 5.904240e+00 7.000000e+01
      vertex   3.250000e+01 5.669873e+00 7.000000e+01
    endloop
  endfacet
  facet normal -4.617486e-01 8.870108e-01 2.626079e-16
    outer loop
      vertex   3.250000e+01 5.669873e+00 7.300000e+01
      vertex   3.250000e+01 5.669873e+00 7.000000e+01
      vertex   3.211309e+01 5.468461e+00 7.300000e+01
    endloop
  endfacet
  facet normal -4.617486e-01 8.870108e-01 -2.626079e-16
    outer loop
      vertex   3.211309e+01 5.468461e+00 7.300000e+01
      vertex   3.250000e+01 5.669873e+00 7.000000e+01
      vertex   3.211309e+01 5.468461e+00 7.000000e+01
    endloop
  endfacet
  facet normal -3.826834e-01 9.238795e-01 -2.735232e-16
    outer loop
      vertex   3.211309e+01 5.468461e+00 7.300000e+01
      vertex   3.211309e+01 5.468461e+00 7.000000e+01
      vertex   3.171010e+01 5.301537e+00 7.300000e+01
    endloop
  endfacet
  facet normal -3.826834e-01 9.238795e-01 0.000000e+00
    outer loop
      vertex   3.171010e+01 5.301537e+00 7.300000e+01
      vertex   3.211309e+01 5.468461e+00 7.000000e+01
      vertex   3.171010e+01 5.301537e+00 7.000000e+01
    endloop
  endfacet
  facet normal -3.007058e-01 9.537170e-01 0.000000e+00
    outer loop
      vertex   3.171010e+01 5.301537e+00 7.300000e+01
      vertex   3.171010e+01 5.301537e+00 7.000000e+01
      vertex   3.129410e+01 5.170371e+00 7.300000e+01
    endloop
  endfacet
  facet normal -3.007058e-01 9.537170e-01 0.000000e+00
    outer loop
      vertex   3.129410e+01 5.170371e+00 7.300000e+01
      vertex   3.171010e+01 5.301537e+00 7.000000e+01
      vertex   3.129410e+01 5.170371e+00 7.000000e+01
    endloop
  endfacet
  facet normal -2.164396e-01 9.762960e-01 0.000000e+00
    outer loop
      vertex   3.129410e+01 5.170371e+00 7.300000e+01
      vertex   3.129410e+01 5.170371e+00 7.000000e+01
      vertex   3.086824e+01 5.075961e+00 7.300000e+01
    endloop
  endfacet
  facet normal -2.164396e-01 9.762960e-01 0.000000e+00
    outer loop
      vertex   3.086824e+01 5.075961e+00 7.300000e+01
      vertex   3.129410e+01 5.170371e+00 7.000000e+01
      vertex   3.086824e+01 5.075961e+00 7.000000e+01
    endloop
  endfacet
  facet normal -1.305262e-01 9.914449e-01 0.000000e+00
    outer loop
      vertex   3.086824e+01 5.075961e+00 7.300000e+01
      vertex   3.086824e+01 5.075961e+00 7.000000e+01
      vertex   3.043578e+01 5.019027e+00 7.300000e+01
    endloop
  endfacet
  facet normal -1.305262e-01 9.914449e-01 0.000000e+00
    outer loop
      vertex   3.043578e+01 5.019027e+00 7.300000e+01
      vertex   3.086824e+01 5.075961e+00 7.000000e+01
      vertex   3.043578e+01 5.019027e+00 7.000000e+01
    endloop
  endfacet
  facet normal -4.361939e-02 9.990482e-01 0.000000e+00
    outer loop
      vertex   3.043578e+01 5.019027e+00 7.300000e+01
      vertex   3.043578e+01 5.019027e+00 7.000000e+01
      vertex   3.000000e+01 5.000000e+00 7.300000e+01
    endloop
  endfacet
  facet normal -4.361939e-02 9.990482e-01 0.000000e+00
    outer loop
      vertex   3.000000e+01 5.000000e+00 7.300000e+01
      vertex   3.043578e+01 5.019027e+00 7.000000e+01
      vertex   3.000000e+01 5.000000e+00 7.000000e+01
    endloop
  endfacet
  facet normal 0.000000e+00 1.000000e+00 -0.000000e+00
    outer loop
      vertex   3.000000e+01 5.000000e+00 7.000000e+01
      vertex   -2.800000e+01 5.000000e+00 7.000000e+01
      vertex   3.000000e+01 5.000000e+00 7.300000e+01
    endloop
  endfacet
  facet normal 0.000000e+00 1.000000e+00 0.000000e+00
    outer loop
      vertex   3.000000e+01 5.000000e+00 7.300000e+01
      vertex   -2.800000e+01 5.000000e+00 7.000000e+01
      vertex   -2.800000e+01 5.000000e+00 7.300000e+01
    endloop
  endfacet
  facet normal 4.361939e-02 9.990482e-01 0.000000e+00
    outer loop
      vertex   -2.800000e+01 5.000000e+00 7.300000e+01
      vertex   -2.800000e+01 5.000000e+00 7.000000e+01
      vertex   -2.843578e+01 5.019027e+00 7.300000e+01
    endloop
  endfacet
  facet normal 4.361939e-02 9.990482e-01 0.000000e+00
    outer loop
      vertex   -2.843578e+01 5.019027e+00 7.300000e+01
      vertex   -2.800000e+01 5.000000e+00 7.000000e+01
      vertex   -2.843578e+01 5.019027e+00 7.000000e+01
    endloop
  endfacet
  facet normal 1.305262e-01 9.914449e-01 0.000000e+00
    outer loop
      vertex   -2.843578e+01 5.019027e+00 7.300000e+01
      vertex   -2.843578e+01 5.019027e+00 7.000000e+01
      vertex   -2.886824e+01 5.075961e+00 7.300000e+01
    endloop
  endfacet
  facet normal 1.305262e-01 9.914449e-01 0.000000e+00
    outer loop
      vertex   -2.886824e+01 5.075961e+00 7.300000e+01
      vertex   -2.843578e+01 5.019027e+00 7.000000e+01
      vertex   -2.886824e+01 5.075961e+00 7.000000e+01
    endloop
  endfacet
  facet normal 2.164396e-01 9.762960e-01 0.000000e+00
    outer loop
      vertex   -2.886824e+01 5.075961e+00 7.300000e+01
      vertex   -2.886824e+01 5.075961e+00 7.000000e+01
      vertex   -2.929410e+01 5.170371e+00 7.300000e+01
    endloop
  endfacet
  facet normal 2.164396e-01 9.762960e-01 0.000000e+00
    outer loop
      vertex   -2.929410e+01 5.170371e+00 7.300000e+01
      vertex   -2.886824e+01 5.075961e+00 7.000000e+01
      vertex   -2.929410e+01 5.170371e+00 7.000000e+01
    endloop
  endfacet
  facet normal 3.007058e-01 9.537170e-01 0.000000e+00
    outer loop
      vertex   -2.929410e+01 5.170371e+00 7.300000e+01
      vertex   -2.929410e+01 5.170371e+00 7.000000e+01
      vertex   -2.971010e+01 5.301537e+00 7.300000e+01
    endloop
  endfacet
  facet normal 3.007058e-01 9.537170e-01 0.000000e+00
    outer loop
      vertex   -2.971010e+01 5.301537e+00 7.300000e+01
      vertex   -2.929410e+01 5.170371e+00 7.000000e+01
      vertex   -2.971010e+01 5.301537e+00 7.000000e+01
    endloop
  endfacet
  facet normal 3.826834e-01 9.238795e-01 0.000000e+00
    outer loop
      vertex   -2.971010e+01 5.301537e+00 7.300000e+01
      vertex   -2.971010e+01 5.301537e+00 7.000000e+01
      vertex   -3.011309e+01 5.468461e+00 7.300000e+01
    endloop
  endfacet
  facet normal 3.826834e-01 9.238795e-01 2.735232e-16
    outer loop
      vertex   -3.011309e+01 5.468461e+00 7.300000e+01
      vertex   -2.971010e+01 5.301537e+00 7.000000e+01
      vertex   -3.011309e+01 5.468461e+00 7.000000e+01
    endloop
  endfacet
  facet normal 4.617486e-01 8.870108e-01 2.626079e-16
    outer loop
      vertex   -3.011309e+01 5.468461e+00 7.300000e+01
      vertex   -3.011309e+01 5.468461e+00 7.000000e+01
      vertex   -3.050000e+01 5.669873e+00 7.300000e+01
    endloop
  endfacet
  facet normal 4.617486e-01 8.870108e-01 -2.626079e-16
    outer loop
      vertex   -3.050000e+01 5.669873e+00 7.300000e+01
      vertex   -3.011309e+01 5.468461e+00 7.000000e+01
      vertex   -3.050000e+01 5.669873e+00 7.000000e+01
    endloop
  endfacet
  facet normal 5.372996e-01 8.433914e-01 -2.496939e-16
    outer loop
      vertex   -3.050000e+01 5.669873e+00 7.300000e+01
      vertex   -3.050000e+01 5.669873e+00 7.000000e+01
      vertex   -3.086788e+01 5.904240e+00 7.300000e+01
    endloop
  endfacet
  facet normal 5.372996e-01 8.433914e-01 0.000000e+00
    outer loop
      vertex   -3.086788e+01 5.904240e+00 7.300000e+01
      vertex   -3.050000e+01 5.669873e+00 7.000000e+01
      vertex   -3.086788e+01 5.904240e+00 7.000000e+01
    endloop
  endfacet
  facet normal 6.087614e-01 7.933533e-01 0.000000e+00
    outer loop
      vertex   -3.086788e+01 5.904240e+00 7.300000e+01
      vertex   -3.086788e+01 5.904240e+00 7.000000e+01
      vertex   -3.121394e+01 6.169778e+00 7.300000e+01
    endloop
  endfacet
  facet normal 6.087614e-01 7.933533e-01 0.000000e+00
    outer loop
      vertex   -3.121394e+01 6.169778e+00 7.300000e+01
      vertex   -3.086788e+01 5.904240e+00 7.000000e+01
      vertex   -3.121394e+01 6.169778e+00 7.000000e+01
    endloop
  endfacet
  facet normal 6.755902e-01 7.372773e-01 0.000000e+00
    outer loop
      vertex   -3.121394e+01 6.169778e+00 7.300000e+01
      vertex   -3.121394e+01 6.169778e+00 7.000000e+01
      vertex   -3.153553e+01 6.464466e+00 7.300000e+01
    endloop
  endfacet
  facet normal 6.755902e-01 7.372773e-01 0.000000e+00
    outer loop
      vertex   -3.153553e+01 6.464466e+00 7.300000e+01
      vertex   -3.121394e+01 6.169778e+00 7.000000e+01
      vertex   -3.153553e+01 6.464466e+00 7.000000e+01
    endloop
  endfacet
  facet normal 7.372773e-01 6.755902e-01 0.000000e+00
    outer loop
      vertex   -3.153553e+01 6.464466e+00 7.300000e+01
      vertex   -3.153553e+01 6.464466e+00 7.000000e+01
      vertex   -3.183022e+01 6.786062e+00 7.300000e+01
    endloop
  endfacet
  facet normal 7.372773e-01 6.755902e-01 0.000000e+00
    outer loop
      vertex   -3.183022e+01 6.786062e+00 7.300000e+01
      vertex   -3.153553e+01 6.464466e+00 7.000000e+01
      vertex   -3.183022e+01 6.786062e+00 7.000000e+01
    endloop
  endfacet
  facet normal 7.933533e-01 6.087614e-01 0.000000e+00
    outer loop
      vertex   -3.183022e+01 6.786062e+00 7.300000e+01
      vertex   -3.183022e+01 6.786062e+00 7.000000e+01
      vertex   -3.209576e+01 7.132118e+00 7.300000e+01
    endloop
  endfacet
  facet normal 7.933533e-01 6.087614e-01 0.000000e+00
    outer loop
      vertex   -3.209576e+01 7.132118e+00 7.300000e+01
      vertex   -3.183022e+01 6.786062e+00 7.000000e+01
      vertex   -3.209576e+01 7.132118e+00 7.000000e+01
    endloop
  endfacet
  facet normal 8.433914e-01 5.372996e-01 0.000000e+00
    outer loop
      vertex   -3.209576e+01 7.132118e+00 7.300000e+01
      vertex   -3.209576e+01 7.132118e+00 7.000000e+01
      vertex   -3.233013e+01 7.500000e+00 7.300000e+01
    endloop
  endfacet
  facet normal 8.433914e-01 5.372996e-01 -1.590726e-16
    outer loop
      vertex   -3.233013e+01 7.500000e+00 7.300000e+01
      vertex   -3.209576e+01 7.132118e+00 7.000000e+01
      vertex   -3.233013e+01 7.500000e+00 7.000000e+01
    endloop
  endfacet
  facet normal 8.870108e-01 4.617486e-01 -1.367050e-16
    outer loop
      vertex   -3.233013e+01 7.500000e+00 7.300000e+01
      vertex   -3.233013e+01 7.500000e+00 7.000000e+01
      vertex   -3.253154e+01 7.886909e+00 7.300000e+01
    endloop
  endfacet
  facet normal 8.870108e-01 4.617486e-01 1.367050e-16
    outer loop
      vertex   -3.253154e+01 7.886909e+00 7.300000e+01
      vertex   -3.233013e+01 7.500000e+00 7.000000e+01
      vertex   -3.253154e+01 7.886909e+00 7.000000e+01
    endloop
  endfacet
  facet normal 9.238795e-01 3.826834e-01 1.132970e-16
    outer loop
      vertex   -3.253154e+01 7.886909e+00 7.300000e+01
      vertex   -3.253154e+01 7.886909e+00 7.000000e+01
      vertex   -3.269846e+01 8.289899e+00 7.300000e+01
    endloop
  endfacet
  facet normal 9.238795e-01 3.826834e-01 0.000000e+00
    outer loop
      vertex   -3.269846e+01 8.289899e+00 7.300000e+01
      vertex   -3.253154e+01 7.886909e+00 7.000000e+01
      vertex   -3.269846e+01 8.289899e+00 7.000000e+01
    endloop
  endfacet
  facet normal 9.537170e-01 3.007058e-01 0.000000e+00
    outer loop
      vertex   -3.269846e+01 8.289899e+00 7.300000e+01
      vertex   -3.269846e+01 8.289899e+00 7.000000e+01
      vertex   -3.282963e+01 8.705905e+00 7.300000e+01
    endloop
  endfacet
  facet normal 9.537170e-01 3.007058e-01 0.000000e+00
    outer loop
      vertex   -3.282963e+01 8.705905e+00 7.300000e+01
      vertex   -3.269846e+01 8.289899e+00 7.000000e+01
      vertex   -3.282963e+01 8.705905e+00 7.000000e+01
    endloop
  endfacet
  facet normal 9.762960e-01 2.164396e-01 0.000000e+00
    outer loop
      vertex   -3.282963e+01 8.705905e+00 7.300000e+01
      vertex   -3.282963e+01 8.705905e+00 7.000000e+01
      vertex   -3.292404e+01 9.131759e+00 7.300000e+01
    endloop
  endfacet
  facet normal 9.762960e-01 2.164396e-01 0.000000e+00
    outer loop
      vertex   -3.292404e+01 9.131759e+00 7.300000e+01
      vertex   -3.282963e+01 8.705905e+00 7.000000e+01
      vertex   -3.292404e+01 9.131759e+00 7.000000e+01
    endloop
  endfacet
  facet normal 9.914449e-01 1.305262e-01 0.000000e+00
    outer loop
      vertex   -3.292404e+01 9.131759e+00 7.300000e+01
      vertex   -3.292404e+01 9.131759e+00 7.000000e+01
      vertex   -3.298097e+01 9.564221e+00 7.300000e+01
    endloop
  endfacet
  facet normal 9.914449e-01 1.305262e-01 0.000000e+00
    outer loop
      vertex   -3.298097e+01 9.564221e+00 7.300000e+01
      vertex   -3.292404e+01 9.131759e+00 7.000000e+01
      vertex   -3.298097e+01 9.564221e+00 7.000000e+01
    endloop
  endfacet
  facet normal 9.990482e-01 4.361939e-02 0.000000e+00
    outer loop
      vertex   -3.298097e+01 9.564221e+00 7.300000e+01
      vertex   -3.298097e+01 9.564221e+00 7.000000e+01
      vertex   -3.300000e+01 1.000000e+01 7.300000e+01
    endloop
  endfacet
  facet normal 9.990482e-01 4.361939e-02 0.000000e+00
    outer loop
      vertex   -3.300000e+01 1.000000e+01 7.300000e+01
      vertex   -3.298097e+01 9.564221e+00 7.000000e+01
      vertex   -3.300000e+01 1.000000e+01 7.000000e+01
    endloop
  endfacet
  facet normal 1.000000e+00 0.000000e+00 0.000000e+00
    outer loop
      vertex   -3.300000e+01 1.000000e+01 7.000000e+01
      vertex   -3.300000e+01 5.000000e+01 7.000000e+01
      vertex   -3.300000e+01 1.000000e+01 7.300000e+01
    endloop
  endfacet
  facet normal 1.000000e+00 -0.000000e+00 0.000000e+00
    outer loop
      vertex   -3.300000e+01 1.000000e+01 7.300000e+01
      vertex   -3.300000e+01 5.000000e+01 7.000000e+01
      vertex   -3.300000e+01 5.000000e+01 7.300000e+01
    endloop
  endfacet
  facet normal 9.990482e-01 -4.361939e-02 0.000000e+00
    outer loop
      vertex   -3.300000e+01 5.000000e+01 7.300000e+01
      vertex   -3.300000e+01 5.000000e+01 7.000000e+01
      vertex   -3.298097e+01 5.043578e+01 7.300000e+01
    endloop
  endfacet
  facet normal 9.990482e-01 -4.361939e-02 0.000000e+00
    outer loop
      vertex   -3.298097e+01 5.043578e+01 7.300000e+01
      vertex   -3.300000e+01 5.000000e+01 7.000000e+01
      vertex   -3.298097e+01 5.043578e+01 7.000000e+01
    endloop
  endfacet
  facet normal 9.914449e-01 -1.305262e-01 0.000000e+00
    outer loop
      vertex   -3.298097e+01 5.043578e+01 7.300000e+01
      vertex   -3.298097e+01 5.043578e+01 7.000000e+01
      vertex   -3.292404e+01 5.086824e+01 7.300000e+01
    endloop
  endfacet
  facet normal 9.914449e-01 -1.305262e-01 0.000000e+00
    outer loop
      vertex   -3.292404e+01 5.086824e+01 7.300000e+01
      vertex   -3.298097e+01 5.043578e+01 7.000000e+01
      vertex   -3.292404e+01 5.086824e+01 7.000000e+01
    endloop
  endfacet
  facet normal 9.762960e-01 -2.164396e-01 0.000000e+00
    outer loop
      vertex   -3.292404e+01 5.086824e+01 7.300000e+01
      vertex   -3.292404e+01 5.086824e+01 7.000000e+01
      vertex   -3.282963e+01 5.129410e+01 7.300000e+01
    endloop
  endfacet
  facet normal 9.762960e-01 -2.164396e-01 0.000000e+00
    outer loop
      vertex   -3.282963e+01 5.129410e+01 7.300000e+01
      vertex   -3.292404e+01 5.086824e+01 7.000000e+01
      vertex   -3.282963e+01 5.129410e+01 7.000000e+01
    endloop
  endfacet
  facet normal 9.537170e-01 -3.007058e-01 0.000000e+00
    outer loop
      vertex   -3.282963e+01 5.129410e+01 7.300000e+01
      vertex   -3.282963e+01 5.129410e+01 7.000000e+01
      vertex   -3.269846e+01 5.171010e+01 7.300000e+01
    endloop
  endfacet
  facet normal 9.537170e-01 -3.007058e-01 0.000000e+00
    outer loop
      vertex   -3.269846e+01 5.171010e+01 7.300000e+01
      vertex   -3.282963e+01 5.129410e+01 7.000000e+01
      vertex   -3.269846e+01 5.171010e+01 7.000000e+01
    endloop
  endfacet
  facet normal 9.238795e-01 -3.826834e-01 0.000000e+00
    outer loop
      vertex   -3.269846e+01 5.171010e+01 7.300000e+01
      vertex   -3.269846e+01 5.171010e+01 7.000000e+01
      vertex   -3.253154e+01 5.211309e+01 7.300000e+01
    endloop
  endfacet
  facet normal 9.238795e-01 -3.826834e-01 1.812752e-15
    outer loop
      vertex   -3.253154e+01 5.211309e+01 7.300000e+01
      vertex   -3.269846e+01 5.171010e+01 7.000000e+01
      vertex   -3.253154e+01 5.211309e+01 7.000000e+01
    endloop
  endfacet
  facet normal 8.870108e-01 -4.617486e-01 2.187280e-15
    outer loop
      vertex   -3.253154e+01 5.211309e+01 7.300000e+01
      vertex   -3.253154e+01 5.211309e+01 7.000000e+01
      vertex   -3.233013e+01 5.250000e+01 7.300000e+01
    endloop
  endfacet
  facet normal 8.870108e-01 -4.617486e-01 -2.100863e-15
    outer loop
      vertex   -3.233013e+01 5.250000e+01 7.300000e+01
      vertex   -3.253154e+01 5.211309e+01 7.000000e+01
      vertex   -3.233013e+01 5.250000e+01 7.000000e+01
    endloop
  endfacet
  facet normal 8.433914e-01 -5.372996e-01 -1.997551e-15
    outer loop
      vertex   -3.233013e+01 5.250000e+01 7.300000e+01
      vertex   -3.233013e+01 5.250000e+01 7.000000e+01
      vertex   -3.209576e+01 5.286788e+01 7.300000e+01
    endloop
  endfacet
  facet normal 8.433914e-01 -5.372996e-01 0.000000e+00
    outer loop
      vertex   -3.209576e+01 5.286788e+01 7.300000e+01
      vertex   -3.233013e+01 5.250000e+01 7.000000e+01
      vertex   -3.209576e+01 5.286788e+01 7.000000e+01
    endloop
  endfacet
  facet normal 7.933533e-01 -6.087614e-01 0.000000e+00
    outer loop
      vertex   -3.209576e+01 5.286788e+01 7.300000e+01
      vertex   -3.209576e+01 5.286788e+01 7.000000e+01
      vertex   -3.183022e+01 5.321394e+01 7.300000e+01
    endloop
  endfacet
  facet normal 7.933533e-01 -6.087614e-01 -9.395187e-16
    outer loop
      vertex   -3.183022e+01 5.321394e+01 7.300000e+01
      vertex   -3.209576e+01 5.286788e+01 7.000000e+01
      vertex   -3.183022e+01 5.321394e+01 7.000000e+01
    endloop
  endfacet
  facet normal 7.372773e-01 -6.755902e-01 -8.731114e-16
    outer loop
      vertex   -3.183022e+01 5.321394e+01 7.300000e+01
      vertex   -3.183022e+01 5.321394e+01 7.000000e+01
      vertex   -3.153553e+01 5.353553e+01 7.300000e+01
    endloop
  endfacet
  facet normal 7.372773e-01 -6.755902e-01 0.000000e+00
    outer loop
      vertex   -3.153553e+01 5.353553e+01 7.300000e+01
      vertex   -3.183022e+01 5.321394e+01 7.000000e+01
      vertex   -3.153553e+01 5.353553e+01 7.000000e+01
    endloop
  endfacet
  facet normal 6.755902e-01 -7.372773e-01 0.000000e+00
    outer loop
      vertex   -3.153553e+01 5.353553e+01 7.300000e+01
      vertex   -3.153553e+01 5.353553e+01 7.000000e+01
      vertex   -3.121394e+01 5.383022e+01 7.300000e+01
    endloop
  endfacet
  facet normal 6.755902e-01 -7.372773e-01 0.000000e+00
    outer loop
      vertex   -3.121394e+01 5.383022e+01 7.300000e+01
      vertex   -3.153553e+01 5.353553e+01 7.000000e+01
      vertex   -3.121394e+01 5.383022e+01 7.000000e+01
    endloop
  endfacet
  facet normal 6.087614e-01 -7.933533e-01 0.000000e+00
    outer loop
      vertex   -3.121394e+01 5.383022e+01 7.300000e+01
      vertex   -3.121394e+01 5.383022e+01 7.000000e+01
      vertex   -3.086788e+01 5.409576e+01 7.300000e+01
    endloop
  endfacet
  facet normal 6.087614e-01 -7.933533e-01 1.879037e-15
    outer loop
      vertex   -3.086788e+01 5.409576e+01 7.300000e+01
      vertex   -3.121394e+01 5.383022e+01 7.000000e+01
      vertex   -3.086788e+01 5.409576e+01 7.000000e+01
    endloop
  endfacet
  facet normal 5.372996e-01 -8.433914e-01 1.997551e-15
    outer loop
      vertex   -3.086788e+01 5.409576e+01 7.300000e+01
      vertex   -3.086788e+01 5.409576e+01 7.000000e+01
      vertex   -3.050000e+01 5.433013e+01 7.300000e+01
    endloop
  endfacet
  facet normal 5.372996e-01 -8.433914e-01 3.358813e-15
    outer loop
      vertex   -3.050000e+01 5.433013e+01 7.300000e+01
      vertex   -3.086788e+01 5.409576e+01 7.000000e+01
      vertex   -3.050000e+01 5.433013e+01 7.000000e+01
    endloop
  endfacet
  facet normal 4.617486e-01 -8.870108e-01 3.654906e-15
    outer loop
      vertex   -3.050000e+01 5.433013e+01 7.300000e+01
      vertex   -3.050000e+01 5.433013e+01 7.000000e+01
      vertex   -3.011309e+01 5.453154e+01 7.300000e+01
    endloop
  endfacet
  facet normal 4.617486e-01 -8.870108e-01 0.000000e+00
    outer loop
      vertex   -3.011309e+01 5.453154e+01 7.300000e+01
      vertex   -3.050000e+01 5.433013e+01 7.000000e+01
      vertex   -3.011309e+01 5.453154e+01 7.000000e+01
    endloop
  endfacet
  facet normal 3.826834e-01 -9.238795e-01 0.000000e+00
    outer loop
      vertex   -3.011309e+01 5.453154e+01 7.300000e+01
      vertex   -3.011309e+01 5.453154e+01 7.000000e+01
      vertex   -2.971010e+01 5.469846e+01 7.300000e+01
    endloop
  endfacet
  facet normal 3.826834e-01 -9.238795e-01 -2.641374e-15
    outer loop
      vertex   -2.971010e+01 5.469846e+01 7.300000e+01
      vertex   -3.011309e+01 5.453154e+01 7.000000e+01
      vertex   -2.971010e+01 5.469846e+01 7.000000e+01
    endloop
  endfacet
  facet normal 3.007058e-01 -9.537170e-01 -2.614962e-15
    outer loop
      vertex   -2.971010e+01 5.469846e+01 7.300000e+01
      vertex   -2.971010e+01 5.469846e+01 7.000000e+01
      vertex   -2.929410e+01 5.482963e+01 7.300000e+01
    endloop
  endfacet
  facet normal 3.007058e-01 -9.537170e-01 2.258855e-15
    outer loop
      vertex   -2.929410e+01 5.482963e+01 7.300000e+01
      vertex   -2.971010e+01 5.469846e+01 7.000000e+01
      vertex   -2.929410e+01 5.482963e+01 7.000000e+01
    endloop
  endfacet
  facet normal 2.164396e-01 -9.762960e-01 2.312333e-15
    outer loop
      vertex   -2.929410e+01 5.482963e+01 7.300000e+01
      vertex   -2.929410e+01 5.482963e+01 7.000000e+01
      vertex   -2.886824e+01 5.492404e+01 7.300000e+01
    endloop
  endfacet
  facet normal 2.164396e-01 -9.762960e-01 -5.126318e-16
    outer loop
      vertex   -2.886824e+01 5.492404e+01 7.300000e+01
      vertex   -2.929410e+01 5.482963e+01 7.000000e+01
      vertex   -2.886824e+01 5.492404e+01 7.000000e+01
    endloop
  endfacet
  facet normal 1.305262e-01 -9.914449e-01 -3.091480e-16
    outer loop
      vertex   -2.886824e+01 5.492404e+01 7.300000e+01
      vertex   -2.886824e+01 5.492404e+01 7.000000e+01
      vertex   -2.843578e+01 5.498097e+01 7.300000e+01
    endloop
  endfacet
  facet normal 1.305262e-01 -9.914449e-01 -1.545740e-16
    outer loop
      vertex   -2.843578e+01 5.498097e+01 7.300000e+01
      vertex   -2.886824e+01 5.492404e+01 7.000000e+01
      vertex   -2.843578e+01 5.498097e+01 7.000000e+01
    endloop
  endfacet
  facet normal 4.361939e-02 -9.990482e-01 -5.165571e-17
    outer loop
      vertex   -2.843578e+01 5.498097e+01 7.300000e+01
      vertex   -2.843578e+01 5.498097e+01 7.000000e+01
      vertex   -2.800000e+01 5.500000e+01 7.300000e+01
    endloop
  endfacet
  facet normal 4.361939e-02 -9.990482e-01 -5.165571e-17
    outer loop
      vertex   -2.800000e+01 5.500000e+01 7.300000e+01
      vertex   -2.843578e+01 5.498097e+01 7.000000e+01
      vertex   -2.800000e+01 5.500000e+01 7.000000e+01
    endloop
  endfacet
  facet normal 0.000000e+00 -1.000000e+00 0.000000e+00
    outer loop
      vertex   -2.800000e+01 5.500000e+01 7.000000e+01
      vertex   3.000000e+01 5.500000e+01 7.000000e+01
      vertex   -2.800000e+01 5.500000e+01 7.300000e+01
    endloop
  endfacet
  facet normal 0.000000e+00 -1.000000e+00 0.000000e+00
    outer loop
      vertex   -2.800000e+01 5.500000e+01 7.300000e+01
      vertex   3.000000e+01 5.500000e+01 7.000000e+01
      vertex   3.000000e+01 5.500000e+01 7.300000e+01
    endloop
  endfacet
  facet normal -4.361939e-02 -9.990482e-01 -0.000000e+00
    outer loop
      vertex   3.000000e+01 5.500000e+01 7.300000e+01
      vertex   3.000000e+01 5.500000e+01 7.000000e+01
      vertex   3.043578e+01 5.498097e+01 7.300000e+01
    endloop
  endfacet
  facet normal -4.361939e-02 -9.990482e-01 -0.000000e+00
    outer loop
      vertex   3.043578e+01 5.498097e+01 7.300000e+01
      vertex   3.000000e+01 5.500000e+01 7.000000e+01
      vertex   3.043578e+01 5.498097e+01 7.000000e+01
    endloop
  endfacet
  facet normal -1.305262e-01 -9.914449e-01 -0.000000e+00
    outer loop
      vertex   3.043578e+01 5.498097e+01 7.300000e+01
      vertex   3.043578e+01 5.498097e+01 7.000000e+01
      vertex   3.086824e+01 5.492404e+01 7.300000e+01
    endloop
  endfacet
  facet normal -1.305262e-01 -9.914449e-01 -0.000000e+00
    outer loop
      vertex   3.086824e+01 5.492404e+01 7.300000e+01
      vertex   3.043578e+01 5.498097e+01 7.000000e+01
      vertex   3.086824e+01 5.492404e+01 7.000000e+01
    endloop
  endfacet
  facet normal -2.164396e-01 -9.762960e-01 -0.000000e+00
    outer loop
      vertex   3.086824e+01 5.492404e+01 7.300000e+01
      vertex   3.086824e+01 5.492404e+01 7.000000e+01
      vertex   3.129410e+01 5.482963e+01 7.300000e+01
    endloop
  endfacet
  facet normal -2.164396e-01 -9.762960e-01 -0.000000e+00
    outer loop
      vertex   3.129410e+01 5.482963e+01 7.300000e+01
      vertex   3.086824e+01 5.492404e+01 7.000000e+01
      vertex   3.129410e+01 5.482963e+01 7.000000e+01
    endloop
  endfacet
  facet normal -3.007058e-01 -9.537170e-01 -0.000000e+00
    outer loop
      vertex   3.129410e+01 5.482963e+01 7.300000e+01
      vertex   3.129410e+01 5.482963e+01 7.000000e+01
      vertex   3.171010e+01 5.469846e+01 7.300000e+01
    endloop
  endfacet
  facet normal -3.007058e-01 -9.537170e-01 -0.000000e+00
    outer loop
      vertex   3.171010e+01 5.469846e+01 7.300000e+01
      vertex   3.129410e+01 5.482963e+01 7.000000e+01
      vertex   3.171010e+01 5.469846e+01 7.000000e+01
    endloop
  endfacet
  facet normal -3.826834e-01 -9.238795e-01 -0.000000e+00
    outer loop
      vertex   3.171010e+01 5.469846e+01 7.300000e+01
      vertex   3.171010e+01 5.469846e+01 7.000000e+01
      vertex   3.211309e+01 5.453154e+01 7.300000e+01
    endloop
  endfacet
  facet normal -3.826834e-01 -9.238795e-01 -0.000000e+00
    outer loop
      vertex   3.211309e+01 5.453154e+01 7.300000e+01
      vertex   3.171010e+01 5.469846e+01 7.000000e+01
      vertex   3.211309e+01 5.453154e+01 7.000000e+01
    endloop
  endfacet
  facet normal -4.617486e-01 -8.870108e-01 -0.000000e+00
    outer loop
      vertex   3.211309e+01 5.453154e+01 7.300000e+01
      vertex   3.211309e+01 5.453154e+01 7.000000e+01
      vertex   3.250000e+01 5.433013e+01 7.300000e+01
    endloop
  endfacet
  facet normal -4.617486e-01 -8.870108e-01 -0.000000e+00
    outer loop
      vertex   3.250000e+01 5.433013e+01 7.300000e+01
      vertex   3.211309e+01 5.453154e+01 7.000000e+01
      vertex   3.250000e+01 5.433013e+01 7.000000e+01
    endloop
  endfacet
  facet normal -5.372996e-01 -8.433914e-01 -0.000000e+00
    outer loop
      vertex   3.250000e+01 5.433013e+01 7.300000e+01
      vertex   3.250000e+01 5.433013e+01 7.000000e+01
      vertex   3.286788e+01 5.409576e+01 7.300000e+01
    endloop
  endfacet
  facet normal -5.372996e-01 -8.433914e-01 -0.000000e+00
    outer loop
      vertex   3.286788e+01 5.409576e+01 7.300000e+01
      vertex   3.250000e+01 5.433013e+01 7.000000e+01
      vertex   3.286788e+01 5.409576e+01 7.000000e+01
    endloop
  endfacet
  facet normal -6.087614e-01 -7.933533e-01 -0.000000e+00
    outer loop
      vertex   3.286788e+01 5.409576e+01 7.300000e+01
      vertex   3.286788e+01 5.409576e+01 7.000000e+01
      vertex   3.321394e+01 5.383022e+01 7.300000e+01
    endloop
  endfacet
  facet normal -6.087614e-01 -7.933533e-01 -0.000000e+00
    outer loop
      vertex   3.321394e+01 5.383022e+01 7.300000e+01
      vertex   3.286788e+01 5.409576e+01 7.000000e+01
      vertex   3.321394e+01 5.383022e+01 7.000000e+01
    endloop
  endfacet
  facet normal -6.755902e-01 -7.372773e-01 -0.000000e+00
    outer loop
      vertex   3.321394e+01 5.383022e+01 7.300000e+01
      vertex   3.321394e+01 5.383022e+01 7.000000e+01
      vertex   3.353553e+01 5.353553e+01 7.300000e+01
    endloop
  endfacet
  facet normal -6.755902e-01 -7.372773e-01 -0.000000e+00
    outer loop
      vertex   3.353553e+01 5.353553e+01 7.300000e+01
      vertex   3.321394e+01 5.383022e+01 7.000000e+01
      vertex   3.353553e+01 5.353553e+01 7.000000e+01
    endloop
  endfacet
  facet normal -7.372773e-01 -6.755902e-01 -0.000000e+00
    outer loop
      vertex   3.353553e+01 5.353553e+01 7.300000e+01
      vertex   3.353553e+01 5.353553e+01 7.000000e+01
      vertex   3.383022e+01 5.321394e+01 7.300000e+01
    endloop
  endfacet
  facet normal -7.372773e-01 -6.755902e-01 -0.000000e+00
    outer loop
      vertex   3.383022e+01 5.321394e+01 7.300000e+01
      vertex   3.353553e+01 5.353553e+01 7.000000e+01
      vertex   3.383022e+01 5.321394e+01 7.000000e+01
    endloop
  endfacet
  facet normal -7.933533e-01 -6.087614e-01 -0.000000e+00
    outer loop
      vertex   3.383022e+01 5.321394e+01 7.300000e+01
      vertex   3.383022e+01 5.321394e+01 7.000000e+01
      vertex   3.409576e+01 5.286788e+01 7.300000e+01
    endloop
  endfacet
  facet normal -7.933533e-01 -6.087614e-01 -0.000000e+00
    outer loop
      vertex   3.409576e+01 5.286788e+01 7.300000e+01
      vertex   3.383022e+01 5.321394e+01 7.000000e+01
      vertex   3.409576e+01 5.286788e+01 7.000000e+01
    endloop
  endfacet
  facet normal -8.433914e-01 -5.372996e-01 -0.000000e+00
    outer loop
      vertex   3.409576e+01 5.286788e+01 7.300000e+01
      vertex   3.409576e+01 5.286788e+01 7.000000e+01
      vertex   3.433013e+01 5.250000e+01 7.300000e+01
    endloop
  endfacet
  facet normal -8.433914e-01 -5.372996e-01 -0.000000e+00
    outer loop
      vertex   3.433013e+01 5.250000e+01 7.300000e+01
      vertex   3.409576e+01 5.286788e+01 7.000000e+01
      vertex   3.433013e+01 5.250000e+01 7.000000e+01
    endloop
  endfacet
  facet normal -8.870108e-01 -4.617486e-01 -0.000000e+00
    outer loop
      vertex   3.433013e+01 5.250000e+01 7.300000e+01
      vertex   3.433013e+01 5.250000e+01 7.000000e+01
      vertex   3.453154e+01 5.211309e+01 7.300000e+01
    endloop
  endfacet
  facet normal -8.870108e-01 -4.617486e-01 -0.000000e+00
    outer loop
      vertex   3.453154e+01 5.211309e+01 7.300000e+01
      vertex   3.433013e+01 5.250000e+01 7.000000e+01
      vertex   3.453154e+01 5.211309e+01 7.000000e+01
    endloop
  endfacet
  facet normal -9.238795e-01 -3.826834e-01 -0.000000e+00
    outer loop
      vertex   3.453154e+01 5.211309e+01 7.300000e+01
      vertex   3.453154e+01 5.211309e+01 7.000000e+01
      vertex   3.469846e+01 5.171010e+01 7.300000e+01
    endloop
  endfacet
  facet normal -9.238795e-01 -3.826834e-01 -0.000000e+00
    outer loop
      vertex   3.469846e+01 5.171010e+01 7.300000e+01
      vertex   3.453154e+01 5.211309e+01 7.000000e+01
      vertex   3.469846e+01 5.171010e+01 7.000000e+01
    endloop
  endfacet
  facet normal -9.537170e-01 -3.007058e-01 -0.000000e+00
    outer loop
      vertex   3.469846e+01 5.171010e+01 7.300000e+01
      vertex   3.469846e+01 5.171010e+01 7.000000e+01
      vertex   3.482963e+01 5.129410e+01 7.300000e+01
    endloop
  endfacet
  facet normal -9.537170e-01 -3.007058e-01 -0.000000e+00
    outer loop
      vertex   3.482963e+01 5.129410e+01 7.300000e+01
      vertex   3.469846e+01 5.171010e+01 7.000000e+01
      vertex   3.482963e+01 5.129410e+01 7.000000e+01
    endloop
  endfacet
  facet normal -9.762960e-01 -2.164396e-01 -0.000000e+00
    outer loop
      vertex   3.482963e+01 5.129410e+01 7.300000e+01
      vertex   3.482963e+01 5.129410e+01 7.000000e+01
      vertex   3.492404e+01 5.086824e+01 7.300000e+01
    endloop
  endfacet
  facet normal -9.762960e-01 -2.164396e-01 -0.000000e+00
    outer loop
      vertex   3.492404e+01 5.086824e+01 7.300000e+01
      vertex   3.482963e+01 5.129410e+01 7.000000e+01
      vertex   3.492404e+01 5.086824e+01 7.000000e+01
    endloop
  endfacet
  facet normal -9.914449e-01 -1.305262e-01 -0.000000e+00
    outer loop
      vertex   3.492404e+01 5.086824e+01 7.300000e+01
      vertex   3.492404e+01 5.086824e+01 7.000000e+01
      vertex   3.498097e+01 5.043578e+01 7.300000e+01
    endloop
  endfacet
  facet normal -9.914449e-01 -1.305262e-01 -0.000000e+00
    outer loop
      vertex   3.498097e+01 5.043578e+01 7.300000e+01
      vertex   3.492404e+01 5.086824e+01 7.000000e+01
      vertex   3.498097e+01 5.043578e+01 7.000000e+01
    endloop
  endfacet
  facet normal -9.990482e-01 -4.361939e-02 -0.000000e+00
    outer loop
      vertex   3.498097e+01 5.043578e+01 7.300000e+01
      vertex   3.498097e+01 5.043578e+01 7.000000e+01
      vertex   3.500000e+01 5.000000e+01 7.300000e+01
    endloop
  endfacet
  facet normal -9.990482e-01 -4.361939e-02 -0.000000e+00
    outer loop
      vertex   3.500000e+01 5.000000e+01 7.300000e+01
      vertex   3.498097e+01 5.043578e+01 7.000000e+01
      vertex   3.500000e+01 5.000000e+01 7.000000e+01
    endloop
  endfacet
  facet normal -1.000000e+00 0.000000e+00 0.000000e+00
    outer loop
      vertex   3.500000e+01 1.000000e+01 7.300000e+01
      vertex   3.500000e+01 5.000000e+01 7.300000e+01
      vertex   3.500000e+01 1.000000e+01 7.000000e+01
    endloop
  endfacet
  facet normal -1.000000e+00 0.000000e+00 0.000000e+00
    outer loop
      vertex   3.500000e+01 1.000000e+01 7.000000e+01
      vertex   3.500000e+01 5.000000e+01 7.300000e+01
      vertex   3.500000e+01 5.000000e+01 7.000000e+01
    endloop
  endfacet
  facet normal 0.000000e+00 0.000000e+00 -1.000000e+00
    outer loop
      vertex   4.000000e+01 -1.500000e+00 5.900000e+01
      vertex   3.800000e+01 -1.500000e+00 5.900000e+01
      vertex   4.000000e+01 6.050000e+01 5.900000e+01
    endloop
  endfacet
  facet normal -0.000000e+00 0.000000e+00 -1.000000e+00
    outer loop
      vertex   4.000000e+01 6.050000e+01 5.900000e+01
      vertex   3.800000e+01 -1.500000e+00 5.900000e+01
      vertex   3.800000e+01 6.050000e+01 5.900000e+01
    endloop
  endfacet
  facet normal 0.000000e+00 1.000000e+00 -0.000000e+00
    outer loop
      vertex   3.800000e+01 5.900000e+01 6.000000e+01
      vertex   2.801730e+01 5.900000e+01 7.000000e+01
      vertex   3.800000e+01 5.900000e+01 7.000000e+01
    endloop
  endfacet
  facet normal 0.000000e+00 -1.000000e+00 0.000000e+00
    outer loop
      vertex   3.800000e+01 5.800000e+01 6.000000e+01
      vertex   3.800000e+01 5.800000e+01 7.000000e+01
      vertex   2.801730e+01 5.800000e+01 7.000000e+01
    endloop
  endfacet
  facet normal 0.000000e+00 1.000000e+00 0.000000e+00
    outer loop
      vertex   -3.800000e+01 6.050000e+01 7.000000e+01
      vertex   -3.800000e+01 6.050000e+01 7.300000e+01
      vertex   3.800000e+01 6.050000e+01 7.000000e+01
    endloop
  endfacet
  facet normal 0.000000e+00 1.000000e+00 -0.000000e+00
    outer loop
      vertex   3.800000e+01 6.050000e+01 7.000000e+01
      vertex   -3.800000e+01 6.050000e+01 7.300000e+01
      vertex   4.000000e+01 6.050000e+01 7.300000e+01
    endloop
  endfacet
  facet normal -0.000000e+00 1.000000e+00 0.000000e+00
    outer loop
      vertex   3.800000e+01 6.050000e+01 7.000000e+01
      vertex   4.000000e+01 6.050000e+01 7.300000e+01
      vertex   4.000000e+01 6.050000e+01 5.900000e+01
    endloop
  endfacet
  facet normal 0.000000e+00 1.000000e+00 0.000000e+00
    outer loop
      vertex   4.000000e+01 6.050000e+01 5.900000e+01
      vertex   3.800000e+01 6.050000e+01 5.900000e+01
      vertex   3.800000e+01 6.050000e+01 7.000000e+01
    endloop
  endfacet
  facet normal 0.000000e+00 1.000000e+00 -0.000000e+00
    outer loop
      vertex   3.800000e+01 1.000000e+00 6.000000e+01
      vertex   2.800000e+01 1.000000e+00 7.000000e+01
      vertex   3.800000e+01 1.000000e+00 6.989950e+01
    endloop
  endfacet
  facet normal 0.000000e+00 1.000000e+00 0.000000e+00
    outer loop
      vertex   3.800000e+01 1.000000e+00 6.989950e+01
      vertex   2.800000e+01 1.000000e+00 7.000000e+01
      vertex   3.789950e+01 1.000000e+00 7.000000e+01
    endloop
  endfacet
  facet normal 7.071068e-01 -5.024296e-15 7.071068e-01
    outer loop
      vertex   3.789950e+01 0.000000e+00 7.000000e+01
      vertex   3.800000e+01 0.000000e+00 6.989950e+01
      vertex   3.789950e+01 1.000000e+00 7.000000e+01
    endloop
  endfacet
  facet normal 7.071068e-01 0.000000e+00 7.071068e-01
    outer loop
      vertex   3.789950e+01 1.000000e+00 7.000000e+01
      vertex   3.800000e+01 0.000000e+00 6.989950e+01
      vertex   3.800000e+01 1.000000e+00 6.989950e+01
    endloop
  endfacet
  facet normal -0.000000e+00 -1.000000e+00 -0.000000e+00
    outer loop
      vertex   3.800000e+01 0.000000e+00 6.989950e+01
      vertex   3.789950e+01 0.000000e+00 7.000000e+01
      vertex   3.800000e+01 0.000000e+00 6.000000e+01
    endloop
  endfacet
  facet normal 0.000000e+00 -1.000000e+00 0.000000e+00
    outer loop
      vertex   3.800000e+01 0.000000e+00 6.000000e+01
      vertex   3.789950e+01 0.000000e+00 7.000000e+01
      vertex   2.800000e+01 0.000000e+00 7.000000e+01
    endloop
  endfacet
  facet normal 1.000000e+00 0.000000e+00 5.075305e-16
    outer loop
      vertex   4.000000e+01 6.050000e+01 5.900000e+01
      vertex   4.000000e+01 6.050000e+01 7.300000e+01
      vertex   4.000000e+01 -1.500000e+00 5.900000e+01
    endloop
  endfacet
  facet normal 1.000000e+00 0.000000e+00 5.075305e-16
    outer loop
      vertex   4.000000e+01 -1.500000e+00 5.900000e+01
      vertex   4.000000e+01 6.050000e+01 7.300000e+01
      vertex   4.000000e+01 -1.500000e+00 7.300000e+01
    endloop
  endfacet
  facet normal -2.264976e-07 0.000000e+00 1.000000e+00
    outer loop
      vertex   -3.300000e+01 5.000000e+01 7.300000e+01
      vertex   -3.800000e+01 6.050000e+01 7.300000e+01
      vertex   -3.300000e+01 1.000000e+01 7.300000e+01
    endloop
  endfacet
  facet normal -2.264976e-07 0.000000e+00 1.000000e+00
    outer loop
      vertex   -3.300000e+01 1.000000e+01 7.300000e+01
      vertex   -3.800000e+01 6.050000e+01 7.300000e+01
      vertex   -3.800000e+01 -1.500000e+00 7.300000e+01
    endloop
  endfacet
  facet normal -2.058285e-07 -8.986600e-09 1.000000e+00
    outer loop
      vertex   -3.300000e+01 1.000000e+01 7.300000e+01
      vertex   -3.800000e+01 -1.500000e+00 7.300000e+01
      vertex   -3.298097e+01 9.564221e+00 7.300000e+01
    endloop
  endfacet
  facet normal -1.748839e-07 -2.302390e-08 1.000000e+00
    outer loop
      vertex   -3.298097e+01 9.564221e+00 7.300000e+01
      vertex   -3.800000e+01 -1.500000e+00 7.300000e+01
      vertex   -3.292404e+01 9.131759e+00 7.300000e+01
    endloop
  endfacet
  facet normal -1.523602e-07 -3.377745e-08 1.000000e+00
    outer loop
      vertex   -3.292404e+01 9.131759e+00 7.300000e+01
      vertex   -3.800000e+01 -1.500000e+00 7.300000e+01
      vertex   -3.282963e+01 8.705905e+00 7.300000e+01
    endloop
  endfacet
  facet normal -1.350084e-07 -4.256798e-08 1.000000e+00
    outer loop
      vertex   -3.282963e+01 8.705905e+00 7.300000e+01
      vertex   -3.800000e+01 -1.500000e+00 7.300000e+01
      vertex   -3.269846e+01 8.289899e+00 7.300000e+01
    endloop
  endfacet
  facet normal -1.210357e-07 -5.013463e-08 1.000000e+00
    outer loop
      vertex   -3.269846e+01 8.289899e+00 7.300000e+01
      vertex   -3.800000e+01 -1.500000e+00 7.300000e+01
      vertex   -3.253154e+01 7.886909e+00 7.300000e+01
    endloop
  endfacet
  facet normal -1.093666e-07 -5.693263e-08 1.000000e+00
    outer loop
      vertex   -3.253154e+01 7.886909e+00 7.300000e+01
      vertex   -3.800000e+01 -1.500000e+00 7.300000e+01
      vertex   -3.233013e+01 7.500000e+00 7.300000e+01
    endloop
  endfacet
  facet normal -9.931054e-08 -6.326779e-08 1.000000e+00
    outer loop
      vertex   -3.233013e+01 7.500000e+00 7.300000e+01
      vertex   -3.800000e+01 -1.500000e+00 7.300000e+01
      vertex   -3.209576e+01 7.132118e+00 7.300000e+01
    endloop
  endfacet
  facet normal -9.039732e-08 -6.936430e-08 1.000000e+00
    outer loop
      vertex   -3.209576e+01 7.132118e+00 7.300000e+01
      vertex   -3.800000e+01 -1.500000e+00 7.300000e+01
      vertex   -3.183022e+01 6.786062e+00 7.300000e+01
    endloop
  endfacet
  facet normal -8.228765e-08 -7.540274e-08 1.000000e+00
    outer loop
      vertex   -3.183022e+01 6.786062e+00 7.300000e+01
      vertex   -3.800000e+01 -1.500000e+00 7.300000e+01
      vertex   -3.153553e+01 6.464466e+00 7.300000e+01
    endloop
  endfacet
  facet normal -7.472134e-08 -8.154403e-08 1.000000e+00
    outer loop
      vertex   -3.153553e+01 6.464466e+00 7.300000e+01
      vertex   -3.800000e+01 -1.500000e+00 7.300000e+01
      vertex   -3.121394e+01 6.169778e+00 7.300000e+01
    endloop
  endfacet
  facet normal -6.748428e-08 -8.794723e-08 1.000000e+00
    outer loop
      vertex   -3.121394e+01 6.169778e+00 7.300000e+01
      vertex   -3.800000e+01 -1.500000e+00 7.300000e+01
      vertex   -3.086788e+01 5.904240e+00 7.300000e+01
    endloop
  endfacet
  facet normal -6.038505e-08 -9.478555e-08 1.000000e+00
    outer loop
      vertex   -3.086788e+01 5.904240e+00 7.300000e+01
      vertex   -3.800000e+01 -1.500000e+00 7.300000e+01
      vertex   -3.050000e+01 5.669873e+00 7.300000e+01
    endloop
  endfacet
  facet normal -5.323545e-08 -1.022643e-07 1.000000e+00
    outer loop
      vertex   -3.050000e+01 5.669873e+00 7.300000e+01
      vertex   -3.800000e+01 -1.500000e+00 7.300000e+01
      vertex   -3.011309e+01 5.468461e+00 7.300000e+01
    endloop
  endfacet
  facet normal -4.583069e-08 -1.106451e-07 1.000000e+00
    outer loop
      vertex   -3.011309e+01 5.468461e+00 7.300000e+01
      vertex   -3.800000e+01 -1.500000e+00 7.300000e+01
      vertex   -2.971010e+01 5.301537e+00 7.300000e+01
    endloop
  endfacet
  facet normal -3.792454e-08 -1.202813e-07 1.000000e+00
    outer loop
      vertex   -2.971010e+01 5.301537e+00 7.300000e+01
      vertex   -3.800000e+01 -1.500000e+00 7.300000e+01
      vertex   -2.929410e+01 5.170371e+00 7.300000e+01
    endloop
  endfacet
  facet normal -2.919235e-08 -1.316782e-07 1.000000e+00
    outer loop
      vertex   -2.929410e+01 5.170371e+00 7.300000e+01
      vertex   -3.800000e+01 -1.500000e+00 7.300000e+01
      vertex   -2.886824e+01 5.075961e+00 7.300000e+01
    endloop
  endfacet
  facet normal -1.916835e-08 -1.455981e-07 1.000000e+00
    outer loop
      vertex   -2.886824e+01 5.075961e+00 7.300000e+01
      vertex   -3.800000e+01 -1.500000e+00 7.300000e+01
      vertex   -2.843578e+01 5.019027e+00 7.300000e+01
    endloop
  endfacet
  facet normal -7.128134e-09 -1.632626e-07 1.000000e+00
    outer loop
      vertex   -2.843578e+01 5.019027e+00 7.300000e+01
      vertex   -3.800000e+01 -1.500000e+00 7.300000e+01
      vertex   -2.800000e+01 5.000000e+00 7.300000e+01
    endloop
  endfacet
  facet normal -1.451908e-08 -1.518919e-07 1.000000e+00
    outer loop
      vertex   -2.800000e+01 5.000000e+00 7.300000e+01
      vertex   -3.800000e+01 -1.500000e+00 7.300000e+01
      vertex   4.000000e+01 -1.500000e+00 7.300000e+01
    endloop
  endfacet
  facet normal -4.900295e-16 -7.538914e-16 1.000000e+00
    outer loop
      vertex   -2.800000e+01 5.000000e+00 7.300000e+01
      vertex   4.000000e+01 -1.500000e+00 7.300000e+01
      vertex   3.000000e+01 5.000000e+00 7.300000e+01
    endloop
  endfacet
  facet normal -0.000000e+00 0.000000e+00 1.000000e+00
    outer loop
      vertex   3.000000e+01 5.000000e+00 7.300000e+01
      vertex   4.000000e+01 -1.500000e+00 7.300000e+01
      vertex   3.043578e+01 5.019027e+00 7.300000e+01
    endloop
  endfacet
  facet normal -0.000000e+00 0.000000e+00 1.000000e+00
    outer loop
      vertex   3.043578e+01 5.019027e+00 7.300000e+01
      vertex   4.000000e+01 -1.500000e+00 7.300000e+01
      vertex   3.086824e+01 5.075961e+00 7.300000e+01
    endloop
  endfacet
  facet normal -0.000000e+00 0.000000e+00 1.000000e+00
    outer loop
      vertex   3.086824e+01 5.075961e+00 7.300000e+01
      vertex   4.000000e+01 -1.500000e+00 7.300000e+01
      vertex   3.129410e+01 5.170371e+00 7.300000e+01
    endloop
  endfacet
  facet normal -0.000000e+00 0.000000e+00 1.000000e+00
    outer loop
      vertex   3.129410e+01 5.170371e+00 7.300000e+01
      vertex   4.000000e+01 -1.500000e+00 7.300000e+01
      vertex   3.171010e+01 5.301537e+00 7.300000e+01
    endloop
  endfacet
  facet normal -0.000000e+00 0.000000e+00 1.000000e+00
    outer loop
      vertex   3.171010e+01 5.301537e+00 7.300000e+01
      vertex   4.000000e+01 -1.500000e+00 7.300000e+01
      vertex   3.211309e+01 5.468461e+00 7.300000e+01
    endloop
  endfacet
  facet normal -0.000000e+00 0.000000e+00 1.000000e+00
    outer loop
      vertex   3.211309e+01 5.468461e+00 7.300000e+01
      vertex   4.000000e+01 -1.500000e+00 7.300000e+01
      vertex   3.250000e+01 5.669873e+00 7.300000e+01
    endloop
  endfacet
  facet normal -0.000000e+00 0.000000e+00 1.000000e+00
    outer loop
      vertex   3.250000e+01 5.669873e+00 7.300000e+01
      vertex   4.000000e+01 -1.500000e+00 7.300000e+01
      vertex   3.286788e+01 5.904240e+00 7.300000e+01
    endloop
  endfacet
  facet normal -0.000000e+00 0.000000e+00 1.000000e+00
    outer loop
      vertex   3.286788e+01 5.904240e+00 7.300000e+01
      vertex   4.000000e+01 -1.500000e+00 7.300000e+01
      vertex   3.321394e+01 6.169778e+00 7.300000e+01
    endloop
  endfacet
  facet normal -0.000000e+00 0.000000e+00 1.000000e+00
    outer loop
      vertex   3.321394e+01 6.169778e+00 7.300000e+01
      vertex   4.000000e+01 -1.500000e+00 7.300000e+01
      vertex   3.353553e+01 6.464466e+00 7.300000e+01
    endloop
  endfacet
  facet normal -0.000000e+00 0.000000e+00 1.000000e+00
    outer loop
      vertex   3.353553e+01 6.464466e+00 7.300000e+01
      vertex   4.000000e+01 -1.500000e+00 7.300000e+01
      vertex   3.383022e+01 6.786062e+00 7.300000e+01
    endloop
  endfacet
  facet normal -0.000000e+00 0.000000e+00 1.000000e+00
    outer loop
      vertex   3.383022e+01 6.786062e+00 7.300000e+01
      vertex   4.000000e+01 -1.500000e+00 7.300000e+01
      vertex   3.409576e+01 7.132118e+00 7.300000e+01
    endloop
  endfacet
  facet normal -0.000000e+00 0.000000e+00 1.000000e+00
    outer loop
      vertex   3.409576e+01 7.132118e+00 7.300000e+01
      vertex   4.000000e+01 -1.500000e+00 7.300000e+01
      vertex   3.433013e+01 7.500000e+00 7.300000e+01
    endloop
  endfacet
  facet normal -0.000000e+00 0.000000e+00 1.000000e+00
    outer loop
      vertex   3.433013e+01 7.500000e+00 7.300000e+01
      vertex   4.000000e+01 -1.500000e+00 7.300000e+01
      vertex   3.453154e+01 7.886909e+00 7.300000e+01
    endloop
  endfacet
  facet normal -0.000000e+00 0.000000e+00 1.000000e+00
    outer loop
      vertex   3.453154e+01 7.886909e+00 7.300000e+01
      vertex   4.000000e+01 -1.500000e+00 7.300000e+01
      vertex   3.469846e+01 8.289899e+00 7.300000e+01
    endloop
  endfacet
  facet normal -0.000000e+00 0.000000e+00 1.000000e+00
    outer loop
      vertex   3.469846e+01 8.289899e+00 7.300000e+01
      vertex   4.000000e+01 -1.500000e+00 7.300000e+01
      vertex   3.482963e+01 8.705905e+00 7.300000e+01
    endloop
  endfacet
  facet normal -0.000000e+00 0.000000e+00 1.000000e+00
    outer loop
      vertex   3.482963e+01 8.705905e+00 7.300000e+01
      vertex   4.000000e+01 -1.500000e+00 7.300000e+01
      vertex   3.492404e+01 9.131759e+00 7.300000e+01
    endloop
  endfacet
  facet normal -0.000000e+00 0.000000e+00 1.000000e+00
    outer loop
      vertex   3.492404e+01 9.131759e+00 7.300000e+01
      vertex   4.000000e+01 -1.500000e+00 7.300000e+01
      vertex   3.498097e+01 9.564221e+00 7.300000e+01
    endloop
  endfacet
  facet normal -0.000000e+00 0.000000e+00 1.000000e+00
    outer loop
      vertex   3.498097e+01 9.564221e+00 7.300000e+01
      vertex   4.000000e+01 -1.500000e+00 7.300000e+01
      vertex   3.500000e+01 1.000000e+01 7.300000e+01
    endloop
  endfacet
  facet normal -0.000000e+00 0.000000e+00 1.000000e+00
    outer loop
      vertex   3.500000e+01 1.000000e+01 7.300000e+01
      vertex   4.000000e+01 -1.500000e+00 7.300000e+01
      vertex   4.000000e+01 6.050000e+01 7.300000e+01
    endloop
  endfacet
  facet normal 0.000000e+00 0.000000e+00 1.000000e+00
    outer loop
      vertex   3.500000e+01 1.000000e+01 7.300000e+01
      vertex   4.000000e+01 6.050000e+01 7.300000e+01
      vertex   3.500000e+01 5.000000e+01 7.300000e+01
    endloop
  endfacet
  facet normal 0.000000e+00 -0.000000e+00 1.000000e+00
    outer loop
      vertex   3.500000e+01 5.000000e+01 7.300000e+01
      vertex   4.000000e+01 6.050000e+01 7.300000e+01
      vertex   3.498097e+01 5.043578e+01 7.300000e+01
    endloop
  endfacet
  facet normal 0.000000e+00 -0.000000e+00 1.000000e+00
    outer loop
      vertex   3.498097e+01 5.043578e+01 7.300000e+01
      vertex   4.000000e+01 6.050000e+01 7.300000e+01
      vertex   3.492404e+01 5.086824e+01 7.300000e+01
    endloop
  endfacet
  facet normal 0.000000e+00 -0.000000e+00 1.000000e+00
    outer loop
      vertex   3.492404e+01 5.086824e+01 7.300000e+01
      vertex   4.000000e+01 6.050000e+01 7.300000e+01
      vertex   3.482963e+01 5.129410e+01 7.300000e+01
    endloop
  endfacet
  facet normal 0.000000e+00 -0.000000e+00 1.000000e+00
    outer loop
      vertex   3.482963e+01 5.129410e+01 7.300000e+01
      vertex   4.000000e+01 6.050000e+01 7.300000e+01
      vertex   3.469846e+01 5.171010e+01 7.300000e+01
    endloop
  endfacet
  facet normal 0.000000e+00 -0.000000e+00 1.000000e+00
    outer loop
      vertex   3.469846e+01 5.171010e+01 7.300000e+01
      vertex   4.000000e+01 6.050000e+01 7.300000e+01
      vertex   3.453154e+01 5.211309e+01 7.300000e+01
    endloop
  endfacet
  facet normal 0.000000e+00 -0.000000e+00 1.000000e+00
    outer loop
      vertex   3.453154e+01 5.211309e+01 7.300000e+01
      vertex   4.000000e+01 6.050000e+01 7.300000e+01
      vertex   3.433013e+01 5.250000e+01 7.300000e+01
    endloop
  endfacet
  facet normal 0.000000e+00 -0.000000e+00 1.000000e+00
    outer loop
      vertex   3.433013e+01 5.250000e+01 7.300000e+01
      vertex   4.000000e+01 6.050000e+01 7.300000e+01
      vertex   3.409576e+01 5.286788e+01 7.300000e+01
    endloop
  endfacet
  facet normal 0.000000e+00 -0.000000e+00 1.000000e+00
    outer loop
      vertex   3.409576e+01 5.286788e+01 7.300000e+01
      vertex   4.000000e+01 6.050000e+01 7.300000e+01
      vertex   3.383022e+01 5.321394e+01 7.300000e+01
    endloop
  endfacet
  facet normal 0.000000e+00 -0.000000e+00 1.000000e+00
    outer loop
      vertex   3.383022e+01 5.321394e+01 7.300000e+01
      vertex   4.000000e+01 6.050000e+01 7.300000e+01
      vertex   3.353553e+01 5.353553e+01 7.300000e+01
    endloop
  endfacet
  facet normal 0.000000e+00 -0.000000e+00 1.000000e+00
    outer loop
      vertex   3.353553e+01 5.353553e+01 7.300000e+01
      vertex   4.000000e+01 6.050000e+01 7.300000e+01
      vertex   3.321394e+01 5.383022e+01 7.300000e+01
    endloop
  endfacet
  facet normal 0.000000e+00 -0.000000e+00 1.000000e+00
    outer loop
      vertex   3.321394e+01 5.383022e+01 7.300000e+01
      vertex   4.000000e+01 6.050000e+01 7.300000e+01
      vertex   3.286788e+01 5.409576e+01 7.300000e+01
    endloop
  endfacet
  facet normal 0.000000e+00 -0.000000e+00 1.000000e+00
    outer loop
      vertex   3.286788e+01 5.409576e+01 7.300000e+01
      vertex   4.000000e+01 6.050000e+01 7.300000e+01
      vertex   3.250000e+01 5.433013e+01 7.300000e+01
    endloop
  endfacet
  facet normal 0.000000e+00 -0.000000e+00 1.000000e+00
    outer loop
      vertex   3.250000e+01 5.433013e+01 7.300000e+01
      vertex   4.000000e+01 6.050000e+01 7.300000e+01
      vertex   3.211309e+01 5.453154e+01 7.300000e+01
    endloop
  endfacet
  facet normal 0.000000e+00 -0.000000e+00 1.000000e+00
    outer loop
      vertex   3.211309e+01 5.453154e+01 7.300000e+01
      vertex   4.000000e+01 6.050000e+01 7.300000e+01
      vertex   3.171010e+01 5.469846e+01 7.300000e+01
    endloop
  endfacet
  facet normal 0.000000e+00 -0.000000e+00 1.000000e+00
    outer loop
      vertex   3.171010e+01 5.469846e+01 7.300000e+01
      vertex   4.000000e+01 6.050000e+01 7.300000e+01
      vertex   3.129410e+01 5.482963e+01 7.300000e+01
    endloop
  endfacet
  facet normal 0.000000e+00 -0.000000e+00 1.000000e+00
    outer loop
      vertex   3.129410e+01 5.482963e+01 7.300000e+01
      vertex   4.000000e+01 6.050000e+01 7.300000e+01
      vertex   3.086824e+01 5.492404e+01 7.300000e+01
    endloop
  endfacet
  facet normal 0.000000e+00 -0.000000e+00 1.000000e+00
    outer loop
      vertex   3.086824e+01 5.492404e+01 7.300000e+01
      vertex   4.000000e+01 6.050000e+01 7.300000e+01
      vertex   3.043578e+01 5.498097e+01 7.300000e+01
    endloop
  endfacet
  facet normal 0.000000e+00 -0.000000e+00 1.000000e+00
    outer loop
      vertex   3.043578e+01 5.498097e+01 7.300000e+01
      vertex   4.000000e+01 6.050000e+01 7.300000e+01
      vertex   3.000000e+01 5.500000e+01 7.300000e+01
    endloop
  endfacet
  facet normal -4.900295e-16 8.909627e-16 1.000000e+00
    outer loop
      vertex   3.000000e+01 5.500000e+01 7.300000e+01
      vertex   4.000000e+01 6.050000e+01 7.300000e+01
      vertex   -2.800000e+01 5.500000e+01 7.300000e+01
    endloop
  endfacet
  facet normal -1.451908e-08 1.795086e-07 1.000000e+00
    outer loop
      vertex   -2.800000e+01 5.500000e+01 7.300000e+01
      vertex   4.000000e+01 6.050000e+01 7.300000e+01
      vertex   -3.800000e+01 6.050000e+01 7.300000e+01
    endloop
  endfacet
  facet normal -8.328854e-09 1.907636e-07 1.000000e+00
    outer loop
      vertex   -2.800000e+01 5.500000e+01 7.300000e+01
      vertex   -3.800000e+01 6.050000e+01 7.300000e+01
      vertex   -2.843578e+01 5.498097e+01 7.300000e+01
    endloop
  endfacet
  facet normal -2.199631e-08 1.670785e-07 1.000000e+00
    outer loop
      vertex   -2.843578e+01 5.498097e+01 7.300000e+01
      vertex   -3.800000e+01 6.050000e+01 7.300000e+01
      vertex   -2.886824e+01 5.492404e+01 7.300000e+01
    endloop
  endfacet
  facet normal -3.303324e-08 1.490033e-07 1.000000e+00
    outer loop
      vertex   -2.886824e+01 5.492404e+01 7.300000e+01
      vertex   -3.800000e+01 6.050000e+01 7.300000e+01
      vertex   -2.929410e+01 5.482963e+01 7.300000e+01
    endloop
  endfacet
  facet normal -4.243115e-08 1.345744e-07 1.000000e+00
    outer loop
      vertex   -2.929410e+01 5.482963e+01 7.300000e+01
      vertex   -3.800000e+01 6.050000e+01 7.300000e+01
      vertex   -2.971010e+01 5.469846e+01 7.300000e+01
    endloop
  endfacet
  facet normal -5.079323e-08 1.226257e-07 1.000000e+00
    outer loop
      vertex   -2.971010e+01 5.469846e+01 7.300000e+01
      vertex   -3.800000e+01 6.050000e+01 7.300000e+01
      vertex   -3.011309e+01 5.453154e+01 7.300000e+01
    endloop
  endfacet
  facet normal -5.851983e-08 1.124155e-07 1.000000e+00
    outer loop
      vertex   -3.011309e+01 5.453154e+01 7.300000e+01
      vertex   -3.800000e+01 6.050000e+01 7.300000e+01
      vertex   -3.050000e+01 5.433013e+01 7.300000e+01
    endloop
  endfacet
  facet normal -6.590073e-08 1.034434e-07 1.000000e+00
    outer loop
      vertex   -3.050000e+01 5.433013e+01 7.300000e+01
      vertex   -3.800000e+01 6.050000e+01 7.300000e+01
      vertex   -3.086788e+01 5.409576e+01 7.300000e+01
    endloop
  endfacet
  facet normal -7.316626e-08 9.535213e-08 1.000000e+00
    outer loop
      vertex   -3.086788e+01 5.409576e+01 7.300000e+01
      vertex   -3.800000e+01 6.050000e+01 7.300000e+01
      vertex   -3.121394e+01 5.383022e+01 7.300000e+01
    endloop
  endfacet
  facet normal -8.051906e-08 8.787114e-08 1.000000e+00
    outer loop
      vertex   -3.121394e+01 5.383022e+01 7.300000e+01
      vertex   -3.800000e+01 6.050000e+01 7.300000e+01
      vertex   -3.153553e+01 5.353553e+01 7.300000e+01
    endloop
  endfacet
  facet normal -8.815729e-08 8.078128e-08 1.000000e+00
    outer loop
      vertex   -3.153553e+01 5.353553e+01 7.300000e+01
      vertex   -3.800000e+01 6.050000e+01 7.300000e+01
      vertex   -3.183022e+01 5.321394e+01 7.300000e+01
    endloop
  endfacet
  facet normal -9.629536e-08 7.389003e-08 1.000000e+00
    outer loop
      vertex   -3.183022e+01 5.321394e+01 7.300000e+01
      vertex   -3.800000e+01 6.050000e+01 7.300000e+01
      vertex   -3.209576e+01 5.286788e+01 7.300000e+01
    endloop
  endfacet
  facet normal -1.051869e-07 6.701147e-08 1.000000e+00
    outer loop
      vertex   -3.209576e+01 5.286788e+01 7.300000e+01
      vertex   -3.800000e+01 6.050000e+01 7.300000e+01
      vertex   -3.233013e+01 5.250000e+01 7.300000e+01
    endloop
  endfacet
  facet normal -1.151557e-07 5.994626e-08 1.000000e+00
    outer loop
      vertex   -3.233013e+01 5.250000e+01 7.300000e+01
      vertex   -3.800000e+01 6.050000e+01 7.300000e+01
      vertex   -3.253154e+01 5.211309e+01 7.300000e+01
    endloop
  endfacet
  facet normal -1.266421e-07 5.245687e-08 1.000000e+00
    outer loop
      vertex   -3.253154e+01 5.211309e+01 7.300000e+01
      vertex   -3.800000e+01 6.050000e+01 7.300000e+01
      vertex   -3.269846e+01 5.171010e+01 7.300000e+01
    endloop
  endfacet
  facet normal -1.402813e-07 4.423052e-08 1.000000e+00
    outer loop
      vertex   -3.269846e+01 5.171010e+01 7.300000e+01
      vertex   -3.800000e+01 6.050000e+01 7.300000e+01
      vertex   -3.282963e+01 5.129410e+01 7.300000e+01
    endloop
  endfacet
  facet normal -1.570442e-07 3.481586e-08 1.000000e+00
    outer loop
      vertex   -3.282963e+01 5.129410e+01 7.300000e+01
      vertex   -3.800000e+01 6.050000e+01 7.300000e+01
      vertex   -3.292404e+01 5.086824e+01 7.300000e+01
    endloop
  endfacet
  facet normal -1.785131e-07 2.350170e-08 1.000000e+00
    outer loop
      vertex   -3.292404e+01 5.086824e+01 7.300000e+01
      vertex   -3.800000e+01 6.050000e+01 7.300000e+01
      vertex   -3.298097e+01 5.043578e+01 7.300000e+01
    endloop
  endfacet
  facet normal -2.074748e-07 9.058482e-09 1.000000e+00
    outer loop
      vertex   -3.298097e+01 5.043578e+01 7.300000e+01
      vertex   -3.800000e+01 6.050000e+01 7.300000e+01
      vertex   -3.300000e+01 5.000000e+01 7.300000e+01
    endloop
  endfacet
  facet normal -1.000000e+00 0.000000e+00 0.000000e+00
    outer loop
      vertex   -3.800000e+01 -1.500000e+00 7.000000e+01
      vertex   -3.800000e+01 -1.500000e+00 7.300000e+01
      vertex   -3.800000e+01 0.000000e+00 7.000000e+01
    endloop
  endfacet
  facet normal -1.000000e+00 0.000000e+00 0.000000e+00
    outer loop
      vertex   -3.800000e+01 0.000000e+00 7.000000e+01
      vertex   -3.800000e+01 -1.500000e+00 7.300000e+01
      vertex   -3.800000e+01 1.000000e+00 7.000000e+01
    endloop
  endfacet
  facet normal -1.000000e+00 0.000000e+00 0.000000e+00
    outer loop
      vertex   -3.800000e+01 0.000000e+00 7.000000e+01
      vertex   -3.800000e+01 1.000000e+00 7.000000e+01
      vertex   -3.800000e+01 1.000000e+00 6.000000e+01
    endloop
  endfacet
  facet normal -1.000000e+00 0.000000e+00 0.000000e+00
    outer loop
      vertex   -3.800000e+01 -1.500000e+00 7.300000e+01
      vertex   -3.800000e+01 6.050000e+01 7.300000e+01
      vertex   -3.800000e+01 1.000000e+00 7.000000e+01
    endloop
  endfacet
  facet normal -1.000000e+00 0.000000e+00 0.000000e+00
    outer loop
      vertex   -3.800000e+01 1.000000e+00 7.000000e+01
      vertex   -3.800000e+01 6.050000e+01 7.300000e+01
      vertex   -3.800000e+01 5.800000e+01 7.000000e+01
    endloop
  endfacet
  facet normal -1.000000e+00 0.000000e+00 0.000000e+00
    outer loop
      vertex   -3.800000e+01 5.800000e+01 7.000000e+01
      vertex   -3.800000e+01 6.050000e+01 7.300000e+01
      vertex   -3.800000e+01 5.900000e+01 7.000000e+01
    endloop
  endfacet
  facet normal -1.000000e+00 0.000000e+00 0.000000e+00
    outer loop
      vertex   -3.800000e+01 5.800000e+01 7.000000e+01
      vertex   -3.800000e+01 5.900000e+01 7.000000e+01
      vertex   -3.800000e+01 5.900000e+01 6.000000e+01
    endloop
  endfacet
  facet normal -1.000000e+00 0.000000e+00 -0.000000e+00
    outer loop
      vertex   -3.800000e+01 6.050000e+01 7.300000e+01
      vertex   -3.800000e+01 6.050000e+01 7.000000e+01
      vertex   -3.800000e+01 5.900000e+01 7.000000e+01
    endloop
  endfacet
  facet normal -1.000000e+00 0.000000e+00 0.000000e+00
    outer loop
      vertex   -3.800000e+01 5.900000e+01 6.000000e+01
      vertex   -3.800000e+01 5.800000e+01 6.000000e+01
      vertex   -3.800000e+01 5.800000e+01 7.000000e+01
    endloop
  endfacet
  facet normal -1.000000e+00 0.000000e+00 0.000000e+00
    outer loop
      vertex   -3.800000e+01 1.000000e+00 6.000000e+01
      vertex   -3.800000e+01 0.000000e+00 6.000000e+01
      vertex   -3.800000e+01 0.000000e+00 7.000000e+01
    endloop
  endfacet
  facet normal 0.000000e+00 -1.000000e+00 0.000000e+00
    outer loop
      vertex   3.800000e+01 -1.500000e+00 5.900000e+01
      vertex   4.000000e+01 -1.500000e+00 5.900000e+01
      vertex   3.800000e+01 -1.500000e+00 7.000000e+01
    endloop
  endfacet
  facet normal 0.000000e+00 -1.000000e+00 0.000000e+00
    outer loop
      vertex   3.800000e+01 -1.500000e+00 7.000000e+01
      vertex   4.000000e+01 -1.500000e+00 5.900000e+01
      vertex   4.000000e+01 -1.500000e+00 7.300000e+01
    endloop
  endfacet
  facet normal 0.000000e+00 -1.000000e+00 0.000000e+00
    outer loop
      vertex   3.800000e+01 -1.500000e+00 7.000000e+01
      vertex   4.000000e+01 -1.500000e+00 7.300000e+01
      vertex   -3.800000e+01 -1.500000e+00 7.300000e+01
    endloop
  endfacet
  facet normal 0.000000e+00 -1.000000e+00 0.000000e+00
    outer loop
      vertex   -3.800000e+01 -1.500000e+00 7.300000e+01
      vertex   -3.800000e+01 -1.500000e+00 7.000000e+01
      vertex   3.800000e+01 -1.500000e+00 7.000000e+01
    endloop
  endfacet
endsolid
